%TF.GenerationSoftware,KiCad,Pcbnew,7.0.6-0*%
%TF.CreationDate,2023-12-30T17:34:11-06:00*%
%TF.ProjectId,fpga_adaptor,66706761-5f61-4646-9170-746f722e6b69,rev?*%
%TF.SameCoordinates,Original*%
%TF.FileFunction,Copper,L1,Top*%
%TF.FilePolarity,Positive*%
%FSLAX46Y46*%
G04 Gerber Fmt 4.6, Leading zero omitted, Abs format (unit mm)*
G04 Created by KiCad (PCBNEW 7.0.6-0) date 2023-12-30 17:34:11*
%MOMM*%
%LPD*%
G01*
G04 APERTURE LIST*
G04 Aperture macros list*
%AMRoundRect*
0 Rectangle with rounded corners*
0 $1 Rounding radius*
0 $2 $3 $4 $5 $6 $7 $8 $9 X,Y pos of 4 corners*
0 Add a 4 corners polygon primitive as box body*
4,1,4,$2,$3,$4,$5,$6,$7,$8,$9,$2,$3,0*
0 Add four circle primitives for the rounded corners*
1,1,$1+$1,$2,$3*
1,1,$1+$1,$4,$5*
1,1,$1+$1,$6,$7*
1,1,$1+$1,$8,$9*
0 Add four rect primitives between the rounded corners*
20,1,$1+$1,$2,$3,$4,$5,0*
20,1,$1+$1,$4,$5,$6,$7,0*
20,1,$1+$1,$6,$7,$8,$9,0*
20,1,$1+$1,$8,$9,$2,$3,0*%
G04 Aperture macros list end*
%TA.AperFunction,SMDPad,CuDef*%
%ADD10RoundRect,0.225000X-0.225000X-0.250000X0.225000X-0.250000X0.225000X0.250000X-0.225000X0.250000X0*%
%TD*%
%TA.AperFunction,SMDPad,CuDef*%
%ADD11RoundRect,0.200000X0.200000X0.275000X-0.200000X0.275000X-0.200000X-0.275000X0.200000X-0.275000X0*%
%TD*%
%TA.AperFunction,SMDPad,CuDef*%
%ADD12RoundRect,0.225000X0.225000X0.250000X-0.225000X0.250000X-0.225000X-0.250000X0.225000X-0.250000X0*%
%TD*%
%TA.AperFunction,SMDPad,CuDef*%
%ADD13RoundRect,0.225000X0.250000X-0.225000X0.250000X0.225000X-0.250000X0.225000X-0.250000X-0.225000X0*%
%TD*%
%TA.AperFunction,SMDPad,CuDef*%
%ADD14RoundRect,0.225000X-0.250000X0.225000X-0.250000X-0.225000X0.250000X-0.225000X0.250000X0.225000X0*%
%TD*%
%TA.AperFunction,SMDPad,CuDef*%
%ADD15RoundRect,0.225000X-0.225000X-0.375000X0.225000X-0.375000X0.225000X0.375000X-0.225000X0.375000X0*%
%TD*%
%TA.AperFunction,SMDPad,CuDef*%
%ADD16RoundRect,0.150000X-0.512500X-0.150000X0.512500X-0.150000X0.512500X0.150000X-0.512500X0.150000X0*%
%TD*%
%TA.AperFunction,ComponentPad*%
%ADD17R,2.000000X1.905000*%
%TD*%
%TA.AperFunction,ComponentPad*%
%ADD18O,2.000000X1.905000*%
%TD*%
%TA.AperFunction,SMDPad,CuDef*%
%ADD19RoundRect,0.150000X0.150000X-0.512500X0.150000X0.512500X-0.150000X0.512500X-0.150000X-0.512500X0*%
%TD*%
%TA.AperFunction,SMDPad,CuDef*%
%ADD20RoundRect,0.150000X-0.150000X0.825000X-0.150000X-0.825000X0.150000X-0.825000X0.150000X0.825000X0*%
%TD*%
%TA.AperFunction,SMDPad,CuDef*%
%ADD21RoundRect,0.150000X-0.150000X0.512500X-0.150000X-0.512500X0.150000X-0.512500X0.150000X0.512500X0*%
%TD*%
%TA.AperFunction,SMDPad,CuDef*%
%ADD22RoundRect,0.150000X0.512500X0.150000X-0.512500X0.150000X-0.512500X-0.150000X0.512500X-0.150000X0*%
%TD*%
%TA.AperFunction,SMDPad,CuDef*%
%ADD23RoundRect,0.200000X-0.275000X0.200000X-0.275000X-0.200000X0.275000X-0.200000X0.275000X0.200000X0*%
%TD*%
%TA.AperFunction,SMDPad,CuDef*%
%ADD24RoundRect,0.218750X0.218750X0.256250X-0.218750X0.256250X-0.218750X-0.256250X0.218750X-0.256250X0*%
%TD*%
%TA.AperFunction,SMDPad,CuDef*%
%ADD25RoundRect,0.200000X-0.200000X-0.275000X0.200000X-0.275000X0.200000X0.275000X-0.200000X0.275000X0*%
%TD*%
%TA.AperFunction,ComponentPad*%
%ADD26R,1.800000X1.800000*%
%TD*%
%TA.AperFunction,ComponentPad*%
%ADD27C,1.800000*%
%TD*%
%TA.AperFunction,ComponentPad*%
%ADD28C,2.050000*%
%TD*%
%TA.AperFunction,ComponentPad*%
%ADD29C,2.250000*%
%TD*%
%TA.AperFunction,ComponentPad*%
%ADD30RoundRect,0.250000X-0.845000X0.620000X-0.845000X-0.620000X0.845000X-0.620000X0.845000X0.620000X0*%
%TD*%
%TA.AperFunction,ComponentPad*%
%ADD31O,2.190000X1.740000*%
%TD*%
%TA.AperFunction,ComponentPad*%
%ADD32R,1.700000X1.700000*%
%TD*%
%TA.AperFunction,ComponentPad*%
%ADD33O,1.700000X1.700000*%
%TD*%
%TA.AperFunction,ComponentPad*%
%ADD34R,1.600000X1.600000*%
%TD*%
%TA.AperFunction,ComponentPad*%
%ADD35O,1.600000X1.600000*%
%TD*%
%TA.AperFunction,ComponentPad*%
%ADD36R,2.400000X1.600000*%
%TD*%
%TA.AperFunction,ComponentPad*%
%ADD37O,2.400000X1.600000*%
%TD*%
%TA.AperFunction,ComponentPad*%
%ADD38C,1.400000*%
%TD*%
%TA.AperFunction,ComponentPad*%
%ADD39O,1.400000X1.400000*%
%TD*%
%TA.AperFunction,ComponentPad*%
%ADD40C,1.440000*%
%TD*%
%TA.AperFunction,ViaPad*%
%ADD41C,1.000000*%
%TD*%
%TA.AperFunction,ViaPad*%
%ADD42C,3.500000*%
%TD*%
%TA.AperFunction,Conductor*%
%ADD43C,0.300000*%
%TD*%
%TA.AperFunction,Conductor*%
%ADD44C,0.400000*%
%TD*%
%TA.AperFunction,Conductor*%
%ADD45C,0.600000*%
%TD*%
%TA.AperFunction,Conductor*%
%ADD46C,0.200000*%
%TD*%
%TA.AperFunction,Conductor*%
%ADD47C,0.250000*%
%TD*%
G04 APERTURE END LIST*
D10*
%TO.P,C12,1*%
%TO.N,+5V*%
X55975000Y-89250000D03*
%TO.P,C12,2*%
%TO.N,GND*%
X57525000Y-89250000D03*
%TD*%
D11*
%TO.P,R5,1*%
%TO.N,GND*%
X49900000Y-94000000D03*
%TO.P,R5,2*%
%TO.N,Net-(D3-K)*%
X48250000Y-94000000D03*
%TD*%
D12*
%TO.P,C16,1*%
%TO.N,GND*%
X68500000Y-103000000D03*
%TO.P,C16,2*%
%TO.N,Net-(D5-K)*%
X66950000Y-103000000D03*
%TD*%
D13*
%TO.P,C4,1*%
%TO.N,GND*%
X46750000Y-130050000D03*
%TO.P,C4,2*%
%TO.N,+12V*%
X46750000Y-128500000D03*
%TD*%
D14*
%TO.P,C14,1*%
%TO.N,+5V*%
X56905000Y-109925000D03*
%TO.P,C14,2*%
%TO.N,GND*%
X56905000Y-111475000D03*
%TD*%
D15*
%TO.P,D1,1,K*%
%TO.N,Net-(D1-K)*%
X57200000Y-48250000D03*
%TO.P,D1,2,A*%
%TO.N,+5V*%
X60500000Y-48250000D03*
%TD*%
D16*
%TO.P,U7,1*%
%TO.N,N/C*%
X52975000Y-85600000D03*
%TO.P,U7,2*%
%TO.N,Net-(C10-Pad2)*%
X52975000Y-86550000D03*
%TO.P,U7,3*%
%TO.N,+5V*%
X52975000Y-87500000D03*
%TO.P,U7,4*%
%TO.N,Net-(U8-TR)*%
X55250000Y-87500000D03*
%TO.P,U7,5*%
%TO.N,GND*%
X55250000Y-85600000D03*
%TD*%
D17*
%TO.P,U2,1,IN*%
%TO.N,+12V*%
X50590000Y-127210000D03*
D18*
%TO.P,U2,2,GND*%
%TO.N,GND*%
X50590000Y-129750000D03*
%TO.P,U2,3,OUT*%
%TO.N,+5V*%
X50590000Y-132290000D03*
%TD*%
D19*
%TO.P,U4,1*%
%TO.N,N/C*%
X48300000Y-63387500D03*
%TO.P,U4,2*%
%TO.N,Net-(J6-In)*%
X49250000Y-63387500D03*
%TO.P,U4,3*%
%TO.N,GND*%
X50200000Y-63387500D03*
%TO.P,U4,4*%
%TO.N,/ifin*%
X50200000Y-61112500D03*
%TO.P,U4,5*%
%TO.N,+3.3V*%
X48300000Y-61112500D03*
%TD*%
D10*
%TO.P,C10,1*%
%TO.N,Net-(J9-Pin_3)*%
X45200000Y-87500000D03*
%TO.P,C10,2*%
%TO.N,Net-(C10-Pad2)*%
X46750000Y-87500000D03*
%TD*%
D11*
%TO.P,R6,1*%
%TO.N,Net-(C11-Pad1)*%
X50900000Y-87500000D03*
%TO.P,R6,2*%
%TO.N,Net-(C10-Pad2)*%
X49250000Y-87500000D03*
%TD*%
D10*
%TO.P,C2,1*%
%TO.N,GND*%
X49950000Y-120750000D03*
%TO.P,C2,2*%
%TO.N,+5V*%
X51500000Y-120750000D03*
%TD*%
D14*
%TO.P,C3,1*%
%TO.N,GND*%
X46750000Y-124450000D03*
%TO.P,C3,2*%
%TO.N,+12V*%
X46750000Y-126000000D03*
%TD*%
D13*
%TO.P,C9,1*%
%TO.N,GND*%
X56800000Y-68750000D03*
%TO.P,C9,2*%
%TO.N,+5V*%
X56800000Y-67200000D03*
%TD*%
D20*
%TO.P,U8,1,GND*%
%TO.N,GND*%
X57060000Y-102750000D03*
%TO.P,U8,2,TR*%
%TO.N,Net-(U8-TR)*%
X55790000Y-102750000D03*
%TO.P,U8,3,Q*%
%TO.N,Net-(D4-A)*%
X54520000Y-102750000D03*
%TO.P,U8,4,R*%
%TO.N,+5V*%
X53250000Y-102750000D03*
%TO.P,U8,5,CV*%
%TO.N,Net-(U8-CV)*%
X53250000Y-107700000D03*
%TO.P,U8,6,THR*%
%TO.N,Net-(U8-DIS)*%
X54520000Y-107700000D03*
%TO.P,U8,7,DIS*%
X55790000Y-107700000D03*
%TO.P,U8,8,VCC*%
%TO.N,+5V*%
X57060000Y-107700000D03*
%TD*%
D11*
%TO.P,R2,1*%
%TO.N,Net-(R2-Pad1)*%
X50075000Y-71250000D03*
%TO.P,R2,2*%
%TO.N,Net-(J9-Pin_7)*%
X48425000Y-71250000D03*
%TD*%
D14*
%TO.P,C11,1*%
%TO.N,Net-(C11-Pad1)*%
X52750000Y-93950000D03*
%TO.P,C11,2*%
%TO.N,GND*%
X52750000Y-95500000D03*
%TD*%
D13*
%TO.P,C5,1*%
%TO.N,+3.3V*%
X48250000Y-54000000D03*
%TO.P,C5,2*%
%TO.N,GND*%
X48250000Y-52450000D03*
%TD*%
%TO.P,C6,1*%
%TO.N,+3.3V*%
X46500000Y-61275000D03*
%TO.P,C6,2*%
%TO.N,GND*%
X46500000Y-59725000D03*
%TD*%
D21*
%TO.P,U5,1*%
%TO.N,N/C*%
X49900000Y-66250000D03*
%TO.P,U5,2*%
%TO.N,/dithercacode*%
X48950000Y-66250000D03*
%TO.P,U5,3*%
%TO.N,+5V*%
X48000000Y-66250000D03*
%TO.P,U5,4*%
%TO.N,Net-(J8-In)*%
X48000000Y-68525000D03*
%TO.P,U5,5*%
%TO.N,GND*%
X49900000Y-68525000D03*
%TD*%
D22*
%TO.P,U6,1*%
%TO.N,N/C*%
X59250000Y-65400000D03*
%TO.P,U6,2*%
%TO.N,Net-(R2-Pad1)*%
X59250000Y-64450000D03*
%TO.P,U6,3*%
%TO.N,GND*%
X59250000Y-63500000D03*
%TO.P,U6,4*%
%TO.N,/codesign*%
X56975000Y-63500000D03*
%TO.P,U6,5*%
%TO.N,+5V*%
X56975000Y-65400000D03*
%TD*%
D23*
%TO.P,R8,1*%
%TO.N,/dataedge*%
X44700000Y-106650000D03*
%TO.P,R8,2*%
%TO.N,GND*%
X44700000Y-108300000D03*
%TD*%
D24*
%TO.P,D5,1,K*%
%TO.N,Net-(D5-K)*%
X68075000Y-113000000D03*
%TO.P,D5,2,A*%
%TO.N,+5V*%
X66500000Y-113000000D03*
%TD*%
D13*
%TO.P,C7,1*%
%TO.N,Net-(J7-Pin_4)*%
X44750000Y-112050000D03*
%TO.P,C7,2*%
%TO.N,GND*%
X44750000Y-110500000D03*
%TD*%
D14*
%TO.P,C15,1*%
%TO.N,Net-(U8-DIS)*%
X54905000Y-109925000D03*
%TO.P,C15,2*%
%TO.N,GND*%
X54905000Y-111475000D03*
%TD*%
D25*
%TO.P,R3,1*%
%TO.N,/codesign*%
X56925000Y-61750000D03*
%TO.P,R3,2*%
%TO.N,Net-(R2-Pad1)*%
X58575000Y-61750000D03*
%TD*%
D14*
%TO.P,C13,1*%
%TO.N,Net-(U8-CV)*%
X53155000Y-109925000D03*
%TO.P,C13,2*%
%TO.N,GND*%
X53155000Y-111475000D03*
%TD*%
D10*
%TO.P,C1,1*%
%TO.N,GND*%
X49950000Y-122500000D03*
%TO.P,C1,2*%
%TO.N,+5V*%
X51500000Y-122500000D03*
%TD*%
D11*
%TO.P,R4,1*%
%TO.N,GND*%
X49790000Y-100750000D03*
%TO.P,R4,2*%
%TO.N,Net-(D2-K)*%
X48140000Y-100750000D03*
%TD*%
%TO.P,R1,1*%
%TO.N,/pwm*%
X48150000Y-112000000D03*
%TO.P,R1,2*%
%TO.N,Net-(J7-Pin_4)*%
X46500000Y-112000000D03*
%TD*%
D23*
%TO.P,R7,1*%
%TO.N,+5V*%
X51405000Y-105150000D03*
%TO.P,R7,2*%
%TO.N,Net-(U8-DIS)*%
X51405000Y-106800000D03*
%TD*%
D13*
%TO.P,C8,1*%
%TO.N,+5V*%
X46250000Y-66300000D03*
%TO.P,C8,2*%
%TO.N,GND*%
X46250000Y-64750000D03*
%TD*%
D19*
%TO.P,U3,1*%
%TO.N,N/C*%
X48350000Y-58250000D03*
%TO.P,U3,2*%
%TO.N,Net-(J5-In)*%
X49300000Y-58250000D03*
%TO.P,U3,3*%
%TO.N,GND*%
X50250000Y-58250000D03*
%TO.P,U3,4*%
%TO.N,/clk*%
X50250000Y-55975000D03*
%TO.P,U3,5*%
%TO.N,+3.3V*%
X48350000Y-55975000D03*
%TD*%
D26*
%TO.P,D3,1,K*%
%TO.N,Net-(D3-K)*%
X48290000Y-92000000D03*
D27*
%TO.P,D3,2,A*%
%TO.N,/codetrack*%
X45750000Y-92000000D03*
%TD*%
D28*
%TO.P,J8,1,In*%
%TO.N,Net-(J8-In)*%
X41040000Y-75540000D03*
D29*
%TO.P,J8,2,Ext*%
%TO.N,GND*%
X43580000Y-78080000D03*
X43580000Y-73000000D03*
X38500000Y-78080000D03*
X38500000Y-73000000D03*
%TD*%
D30*
%TO.P,J4,1,Pin_1*%
%TO.N,GND*%
X40250000Y-136600000D03*
D31*
%TO.P,J4,2,Pin_2*%
%TO.N,+12V*%
X40250000Y-139140000D03*
%TD*%
D32*
%TO.P,J11,1,Pin_1*%
%TO.N,GND*%
X72410000Y-115500000D03*
D33*
%TO.P,J11,2,Pin_2*%
%TO.N,/DIO*%
X69870000Y-115500000D03*
%TO.P,J11,3,Pin_3*%
%TO.N,/CLK*%
X67330000Y-115500000D03*
%TO.P,J11,4,Pin_4*%
%TO.N,/KEYPAD*%
X64790000Y-115500000D03*
%TO.P,J11,5,Pin_5*%
%TO.N,+5V*%
X62250000Y-115500000D03*
%TD*%
D30*
%TO.P,J10,1,Pin_1*%
%TO.N,GND*%
X61250000Y-89500000D03*
D31*
%TO.P,J10,2,Pin_2*%
%TO.N,/epoch*%
X61250000Y-92040000D03*
%TO.P,J10,3,Pin_3*%
%TO.N,/dataclk*%
X61250000Y-94580000D03*
%TO.P,J10,4,Pin_4*%
%TO.N,/data*%
X61250000Y-97120000D03*
%TD*%
D30*
%TO.P,J1,1,Pin_1*%
%TO.N,GND*%
X40250000Y-116230000D03*
D31*
%TO.P,J1,2,Pin_2*%
%TO.N,+12V*%
X40250000Y-118770000D03*
%TD*%
D34*
%TO.P,U9,1,~{RESET}/PB5*%
%TO.N,Net-(U9-~{RESET}{slash}PB5)*%
X72550000Y-102950000D03*
D35*
%TO.P,U9,2,XTAL1/PB3*%
%TO.N,/DIO*%
X72550000Y-105490000D03*
%TO.P,U9,3,XTAL2/PB4*%
%TO.N,/KEYPAD*%
X72550000Y-108030000D03*
%TO.P,U9,4,GND*%
%TO.N,GND*%
X72550000Y-110570000D03*
%TO.P,U9,5,AREF/PB0*%
%TO.N,/FPGA*%
X64930000Y-110570000D03*
%TO.P,U9,6,PB1*%
%TO.N,Net-(U1-J1)*%
X64930000Y-108030000D03*
%TO.P,U9,7,PB2*%
%TO.N,/CLK*%
X64930000Y-105490000D03*
%TO.P,U9,8,VCC*%
%TO.N,Net-(D5-K)*%
X64930000Y-102950000D03*
%TD*%
D30*
%TO.P,J9,1,Pin_1*%
%TO.N,+12V*%
X40250000Y-82500000D03*
D31*
%TO.P,J9,2,Pin_2*%
%TO.N,GND*%
X40250000Y-85040000D03*
%TO.P,J9,3,Pin_3*%
%TO.N,Net-(J9-Pin_3)*%
X40250000Y-87580000D03*
%TO.P,J9,4,Pin_4*%
%TO.N,/codetrack*%
X40250000Y-90120000D03*
%TO.P,J9,5,Pin_5*%
%TO.N,/doptrack*%
X40250000Y-92660000D03*
%TO.P,J9,6,Pin_6*%
%TO.N,GND*%
X40250000Y-95200000D03*
%TO.P,J9,7,Pin_7*%
%TO.N,Net-(J9-Pin_7)*%
X40250000Y-97740000D03*
%TO.P,J9,8,Pin_8*%
%TO.N,GND*%
X40250000Y-100280000D03*
%TD*%
D32*
%TO.P,J13,1,Pin_1*%
%TO.N,GND*%
X73700000Y-73650000D03*
D33*
%TO.P,J13,2,Pin_2*%
X73700000Y-76190000D03*
%TO.P,J13,3,Pin_3*%
X73700000Y-78730000D03*
%TO.P,J13,4,Pin_4*%
X73700000Y-81270000D03*
%TD*%
D28*
%TO.P,J5,1,In*%
%TO.N,Net-(J5-In)*%
X41040000Y-55040000D03*
D29*
%TO.P,J5,2,Ext*%
%TO.N,GND*%
X38500000Y-52500000D03*
X38500000Y-57580000D03*
X43580000Y-52500000D03*
X43580000Y-57580000D03*
%TD*%
D26*
%TO.P,D2,1,K*%
%TO.N,Net-(D2-K)*%
X48290000Y-98750000D03*
D27*
%TO.P,D2,2,A*%
%TO.N,/doptrack*%
X45750000Y-98750000D03*
%TD*%
D36*
%TO.P,U1,1,GND*%
%TO.N,GND*%
X68850000Y-48250000D03*
D37*
%TO.P,U1,2,A2*%
%TO.N,Net-(J12-Pin_1)*%
X68850000Y-50790000D03*
%TO.P,U1,3,A1*%
%TO.N,Net-(J12-Pin_2)*%
X68850000Y-53330000D03*
%TO.P,U1,4,B1*%
%TO.N,Net-(J12-Pin_3)*%
X68850000Y-55870000D03*
%TO.P,U1,5,C2*%
%TO.N,Net-(J12-Pin_4)*%
X68850000Y-58410000D03*
%TO.P,U1,6,C1*%
%TO.N,Net-(J12-Pin_5)*%
X68850000Y-60950000D03*
%TO.P,U1,7,D2*%
%TO.N,Net-(J12-Pin_6)*%
X68850000Y-63490000D03*
%TO.P,U1,8,D1*%
%TO.N,Net-(J12-Pin_7)*%
X68850000Y-66030000D03*
%TO.P,U1,9,E2*%
%TO.N,Net-(J12-Pin_8)*%
X68850000Y-68570000D03*
%TO.P,U1,10,E1*%
%TO.N,Net-(J12-Pin_9)*%
X68850000Y-71110000D03*
%TO.P,U1,11,G2*%
%TO.N,/DIO*%
X68850000Y-73650000D03*
%TO.P,U1,12,H1*%
%TO.N,/FPGA*%
X68850000Y-76190000D03*
%TO.P,U1,13,J1*%
%TO.N,Net-(U1-J1)*%
X68850000Y-78730000D03*
%TO.P,U1,14,H2*%
%TO.N,/CLK*%
X68850000Y-81270000D03*
%TO.P,U1,15,H9*%
%TO.N,/epoch*%
X53610000Y-81270000D03*
%TO.P,U1,16,D9*%
%TO.N,/dataclk*%
X53610000Y-78730000D03*
%TO.P,U1,17,D8*%
%TO.N,/data*%
X53610000Y-76190000D03*
%TO.P,U1,18,C9*%
%TO.N,/pwm*%
X53610000Y-73650000D03*
%TO.P,U1,19,A9*%
%TO.N,/dataedge*%
X53610000Y-71110000D03*
%TO.P,U1,20,B8*%
%TO.N,/codetrack*%
X53610000Y-68570000D03*
%TO.P,U1,21,A8*%
%TO.N,/doptrack*%
X53610000Y-66030000D03*
%TO.P,U1,22,B7*%
%TO.N,/codesign*%
X53610000Y-63490000D03*
%TO.P,U1,23,A7*%
%TO.N,/dithercacode*%
X53610000Y-60950000D03*
%TO.P,U1,24,B6*%
%TO.N,/ifin*%
X53610000Y-58410000D03*
%TO.P,U1,25,A6*%
%TO.N,/clk*%
X53610000Y-55870000D03*
%TO.P,U1,26,3.3*%
%TO.N,+3.3V*%
X53610000Y-53330000D03*
%TO.P,U1,27,GND*%
%TO.N,GND*%
X53610000Y-50790000D03*
%TO.P,U1,28,Vin*%
%TO.N,Net-(D1-K)*%
X53610000Y-48250000D03*
%TD*%
D30*
%TO.P,J3,1,Pin_1*%
%TO.N,GND*%
X40250000Y-123000000D03*
D31*
%TO.P,J3,2,Pin_2*%
%TO.N,+12V*%
X40250000Y-125540000D03*
%TD*%
D30*
%TO.P,J2,1,Pin_1*%
%TO.N,GND*%
X40250000Y-129830000D03*
D31*
%TO.P,J2,2,Pin_2*%
%TO.N,+12V*%
X40250000Y-132370000D03*
%TD*%
D26*
%TO.P,D4,1,K*%
%TO.N,/dataedge*%
X46950000Y-106800000D03*
D27*
%TO.P,D4,2,A*%
%TO.N,Net-(D4-A)*%
X46950000Y-104260000D03*
%TD*%
D38*
%TO.P,R9,1*%
%TO.N,Net-(U9-~{RESET}{slash}PB5)*%
X72750000Y-100250000D03*
D39*
%TO.P,R9,2*%
%TO.N,Net-(D5-K)*%
X67670000Y-100250000D03*
%TD*%
D28*
%TO.P,J6,1,In*%
%TO.N,Net-(J6-In)*%
X41040000Y-65540000D03*
D29*
%TO.P,J6,2,Ext*%
%TO.N,GND*%
X43580000Y-68080000D03*
X43580000Y-63000000D03*
X38500000Y-68080000D03*
X38500000Y-63000000D03*
%TD*%
D32*
%TO.P,J12,1,Pin_1*%
%TO.N,Net-(J12-Pin_1)*%
X73700000Y-50780000D03*
D33*
%TO.P,J12,2,Pin_2*%
%TO.N,Net-(J12-Pin_2)*%
X73700000Y-53320000D03*
%TO.P,J12,3,Pin_3*%
%TO.N,Net-(J12-Pin_3)*%
X73700000Y-55860000D03*
%TO.P,J12,4,Pin_4*%
%TO.N,Net-(J12-Pin_4)*%
X73700000Y-58400000D03*
%TO.P,J12,5,Pin_5*%
%TO.N,Net-(J12-Pin_5)*%
X73700000Y-60940000D03*
%TO.P,J12,6,Pin_6*%
%TO.N,Net-(J12-Pin_6)*%
X73700000Y-63480000D03*
%TO.P,J12,7,Pin_7*%
%TO.N,Net-(J12-Pin_7)*%
X73700000Y-66020000D03*
%TO.P,J12,8,Pin_8*%
%TO.N,Net-(J12-Pin_8)*%
X73700000Y-68560000D03*
%TO.P,J12,9,Pin_9*%
%TO.N,Net-(J12-Pin_9)*%
X73700000Y-71100000D03*
%TD*%
D40*
%TO.P,RV1,1,1*%
%TO.N,+5V*%
X54750000Y-91170000D03*
%TO.P,RV1,2,2*%
%TO.N,Net-(C11-Pad1)*%
X54750000Y-93710000D03*
%TO.P,RV1,3,3*%
%TO.N,GND*%
X54750000Y-96250000D03*
%TD*%
D30*
%TO.P,J7,1,Pin_1*%
%TO.N,GND*%
X40250000Y-104460000D03*
D31*
%TO.P,J7,2,Pin_2*%
%TO.N,+12V*%
X40250000Y-107000000D03*
%TO.P,J7,3,Pin_3*%
%TO.N,GND*%
X40250000Y-109540000D03*
%TO.P,J7,4,Pin_4*%
%TO.N,Net-(J7-Pin_4)*%
X40250000Y-112080000D03*
%TD*%
D41*
%TO.N,GND*%
X55000000Y-83250000D03*
X46800000Y-124400000D03*
X43200000Y-100400000D03*
X72500000Y-123500000D03*
X72500000Y-121250000D03*
X50400000Y-62800000D03*
X49800000Y-122400000D03*
D42*
X75000000Y-87500000D03*
D41*
X43200000Y-95200000D03*
X70000000Y-105500000D03*
D42*
X47500000Y-140000000D03*
X75000000Y-140000000D03*
D41*
X50600000Y-58000000D03*
X57750000Y-100000000D03*
X65700000Y-48000000D03*
X49000000Y-83000000D03*
X63500000Y-84200000D03*
X72800000Y-113000000D03*
X43200000Y-104600000D03*
X60500000Y-102250000D03*
X43400000Y-84600000D03*
X64000000Y-139750000D03*
X60500000Y-67800000D03*
X49500000Y-68500000D03*
D42*
X37500000Y-47500000D03*
D41*
X67000000Y-139750000D03*
%TO.N,+5V*%
X46250000Y-66300000D03*
X56905000Y-109925000D03*
X53250000Y-102750000D03*
X51405000Y-105150000D03*
X56800000Y-67200000D03*
%TD*%
D43*
%TO.N,+5V*%
X58819607Y-68018566D02*
X54338173Y-72500000D01*
D44*
X57060000Y-107700000D02*
X57060000Y-109770000D01*
D43*
X56975000Y-65400000D02*
X56975000Y-67025000D01*
X53250000Y-102750000D02*
X53250000Y-99263209D01*
X58819607Y-67200000D02*
X60500000Y-65519607D01*
X56800000Y-67200000D02*
X58819607Y-67200000D01*
X51000000Y-74233654D02*
X52733654Y-72500000D01*
D45*
X53000000Y-122500000D02*
X53000000Y-120750000D01*
D43*
X54000000Y-85255393D02*
X53694607Y-84950000D01*
X56975000Y-67025000D02*
X56800000Y-67200000D01*
D44*
X54992817Y-105150000D02*
X57060000Y-107217183D01*
D43*
X54000000Y-86894607D02*
X53394607Y-87500000D01*
X60500000Y-65519607D02*
X60500000Y-48250000D01*
D45*
X53000000Y-120250000D02*
X57750000Y-115500000D01*
X57750000Y-115500000D02*
X62250000Y-115500000D01*
D43*
X53394607Y-87500000D02*
X52975000Y-87500000D01*
X66500000Y-113000000D02*
X64750000Y-113000000D01*
D44*
X55975000Y-89250000D02*
X54775000Y-89250000D01*
X52975000Y-87500000D02*
X54750000Y-89275000D01*
X51405000Y-105150000D02*
X54992817Y-105150000D01*
X46300000Y-66250000D02*
X46250000Y-66300000D01*
X54750000Y-89275000D02*
X54750000Y-91170000D01*
D43*
X55820000Y-96693209D02*
X55820000Y-92240000D01*
D45*
X53000000Y-129880000D02*
X53000000Y-122500000D01*
D44*
X48000000Y-66250000D02*
X46300000Y-66250000D01*
D43*
X53250000Y-99263209D02*
X55820000Y-96693209D01*
D45*
X50590000Y-132290000D02*
X53000000Y-129880000D01*
D43*
X64750000Y-113000000D02*
X62250000Y-115500000D01*
D44*
X57060000Y-107217183D02*
X57060000Y-107700000D01*
X57060000Y-109770000D02*
X56905000Y-109925000D01*
D43*
X54000000Y-85255393D02*
X54000000Y-86894607D01*
D44*
X54775000Y-89250000D02*
X54750000Y-89275000D01*
D43*
X55820000Y-92240000D02*
X54750000Y-91170000D01*
D45*
X51500000Y-122500000D02*
X53000000Y-122500000D01*
D43*
X53694607Y-84950000D02*
X53200000Y-84950000D01*
X53200000Y-84950000D02*
X51000000Y-82750000D01*
X58819607Y-67200000D02*
X58819607Y-68018566D01*
X51000000Y-82750000D02*
X51000000Y-74233654D01*
X54338173Y-72500000D02*
X52733654Y-72500000D01*
D45*
X53000000Y-120750000D02*
X53000000Y-120250000D01*
X51500000Y-120750000D02*
X53000000Y-120750000D01*
%TO.N,+12V*%
X40220000Y-118770000D02*
X38250000Y-116800000D01*
X41920000Y-127210000D02*
X40250000Y-125540000D01*
X38250000Y-130370000D02*
X38250000Y-130300000D01*
X40250000Y-132370000D02*
X38250000Y-130370000D01*
X50590000Y-127210000D02*
X46750000Y-127210000D01*
D43*
X46750000Y-128500000D02*
X46750000Y-127210000D01*
D45*
X38250000Y-137125660D02*
X40250000Y-139125660D01*
X38250000Y-123540000D02*
X38250000Y-123400000D01*
X40250000Y-125540000D02*
X38250000Y-123540000D01*
X38405000Y-107000000D02*
X38250000Y-107155000D01*
X38250000Y-114000000D02*
X38250000Y-116800000D01*
X46750000Y-127210000D02*
X41920000Y-127210000D01*
X38250000Y-130300000D02*
X38250000Y-137125660D01*
X38250000Y-116800000D02*
X38250000Y-123400000D01*
D43*
X46750000Y-126000000D02*
X46750000Y-127210000D01*
D45*
X38250000Y-123400000D02*
X38250000Y-130300000D01*
X38250000Y-107155000D02*
X38250000Y-114000000D01*
X40250000Y-139125660D02*
X40250000Y-139140000D01*
X40250000Y-118770000D02*
X40220000Y-118770000D01*
X40250000Y-107000000D02*
X38405000Y-107000000D01*
D44*
%TO.N,+3.3V*%
X50887500Y-59312500D02*
X50100000Y-59312500D01*
X46662500Y-61112500D02*
X46500000Y-61275000D01*
X50100000Y-59312500D02*
X48300000Y-61112500D01*
X51237500Y-57037500D02*
X51600000Y-57400000D01*
X48350000Y-55975000D02*
X48350000Y-54100000D01*
X51600000Y-58600000D02*
X50887500Y-59312500D01*
X53610000Y-53330000D02*
X48920000Y-53330000D01*
X48350000Y-54100000D02*
X48250000Y-54000000D01*
X49872183Y-57037500D02*
X51237500Y-57037500D01*
X48809683Y-55975000D02*
X49872183Y-57037500D01*
X48300000Y-61112500D02*
X46662500Y-61112500D01*
D43*
X48350000Y-55975000D02*
X48350000Y-55912500D01*
D44*
X48350000Y-55975000D02*
X48809683Y-55975000D01*
X48920000Y-53330000D02*
X48250000Y-54000000D01*
X51600000Y-57400000D02*
X51600000Y-58600000D01*
D45*
%TO.N,Net-(J7-Pin_4)*%
X44720000Y-112080000D02*
X44750000Y-112050000D01*
X40250000Y-112080000D02*
X44720000Y-112080000D01*
X46450000Y-112050000D02*
X46500000Y-112000000D01*
X44750000Y-112050000D02*
X46450000Y-112050000D01*
D44*
%TO.N,Net-(J9-Pin_3)*%
X45120000Y-87580000D02*
X40250000Y-87580000D01*
X45200000Y-87500000D02*
X45120000Y-87580000D01*
%TO.N,Net-(C10-Pad2)*%
X46750000Y-87500000D02*
X49250000Y-87500000D01*
X50200000Y-86550000D02*
X49250000Y-87500000D01*
X52975000Y-86550000D02*
X50200000Y-86550000D01*
%TO.N,Net-(C11-Pad1)*%
X50900000Y-89860000D02*
X54750000Y-93710000D01*
X54510000Y-93950000D02*
X54750000Y-93710000D01*
X52750000Y-93950000D02*
X54510000Y-93950000D01*
X50900000Y-87500000D02*
X50900000Y-89860000D01*
%TO.N,Net-(U8-CV)*%
X53250000Y-109830000D02*
X53155000Y-109925000D01*
X53250000Y-107700000D02*
X53250000Y-109830000D01*
%TO.N,Net-(U8-DIS)*%
X51880000Y-106325000D02*
X53627817Y-106325000D01*
X51405000Y-106800000D02*
X51880000Y-106325000D01*
X55790000Y-107700000D02*
X54520000Y-107700000D01*
X54520000Y-109540000D02*
X54905000Y-109925000D01*
X54520000Y-107217183D02*
X54520000Y-107700000D01*
X55790000Y-107217183D02*
X55790000Y-107700000D01*
X54520000Y-107700000D02*
X54520000Y-109540000D01*
X53627817Y-106325000D02*
X54520000Y-107217183D01*
D45*
%TO.N,Net-(D1-K)*%
X53610000Y-48250000D02*
X57200000Y-48250000D01*
D44*
%TO.N,Net-(D2-K)*%
X48290000Y-98750000D02*
X48290000Y-100600000D01*
X48290000Y-100600000D02*
X48140000Y-100750000D01*
%TO.N,/doptrack*%
X45750000Y-98750000D02*
X45750000Y-94250000D01*
X49150000Y-73498528D02*
X49150000Y-76501472D01*
X45660000Y-98660000D02*
X45750000Y-98750000D01*
X53610000Y-66030000D02*
X51470000Y-66030000D01*
X49150000Y-76501472D02*
X45021472Y-80630000D01*
X51350000Y-66150000D02*
X51350000Y-71298528D01*
X51470000Y-66030000D02*
X51350000Y-66150000D01*
X38887233Y-80630000D02*
X37765761Y-81751472D01*
X37765761Y-90175761D02*
X40250000Y-92660000D01*
X44160000Y-92660000D02*
X40250000Y-92660000D01*
X51350000Y-71298528D02*
X49150000Y-73498528D01*
X45021472Y-80630000D02*
X38887233Y-80630000D01*
X37765761Y-81751472D02*
X37765761Y-90175761D01*
X45750000Y-94250000D02*
X44160000Y-92660000D01*
%TO.N,Net-(D3-K)*%
X48250000Y-92040000D02*
X48290000Y-92000000D01*
X48250000Y-94000000D02*
X48250000Y-92040000D01*
%TO.N,/codetrack*%
X49750000Y-73747056D02*
X49750000Y-76750000D01*
X45270000Y-81230000D02*
X39135761Y-81230000D01*
X51950000Y-68750000D02*
X52130000Y-68570000D01*
X49750000Y-76750000D02*
X45270000Y-81230000D01*
X43870000Y-90120000D02*
X45750000Y-92000000D01*
X51950000Y-71547056D02*
X51950000Y-68750000D01*
X51950000Y-71547056D02*
X49750000Y-73747056D01*
X38365761Y-88235761D02*
X40250000Y-90120000D01*
X38365761Y-82000000D02*
X38365761Y-88235761D01*
X40250000Y-90120000D02*
X43870000Y-90120000D01*
X39135761Y-81230000D02*
X38365761Y-82000000D01*
X52130000Y-68570000D02*
X53610000Y-68570000D01*
D46*
%TO.N,/dataedge*%
X53140000Y-71110000D02*
X53610000Y-71110000D01*
D43*
X45978553Y-81521447D02*
X45978553Y-86478553D01*
X47000000Y-91482233D02*
X47000000Y-102442233D01*
D47*
X45975000Y-86482106D02*
X45975000Y-87946015D01*
D43*
X50500000Y-74026548D02*
X50500000Y-77000000D01*
X45978553Y-90460786D02*
X47000000Y-91482233D01*
X47000000Y-102442233D02*
X44700000Y-104742233D01*
X50500000Y-77000000D02*
X45978553Y-81521447D01*
D44*
X46800000Y-106650000D02*
X46950000Y-106800000D01*
D43*
X53610000Y-71110000D02*
X53416548Y-71110000D01*
X53416548Y-71110000D02*
X50500000Y-74026548D01*
X45978553Y-87946015D02*
X45978553Y-90460786D01*
D44*
X44700000Y-106650000D02*
X46800000Y-106650000D01*
D43*
X44700000Y-104742233D02*
X44700000Y-106650000D01*
D47*
X45978553Y-86478553D02*
X45975000Y-86482106D01*
D44*
%TO.N,Net-(D4-A)*%
X54520000Y-103232817D02*
X54520000Y-102750000D01*
D43*
X54520000Y-103162107D02*
X54520000Y-102750000D01*
X46950000Y-104260000D02*
X53422107Y-104260000D01*
X53422107Y-104260000D02*
X54520000Y-103162107D01*
D44*
%TO.N,Net-(J5-In)*%
X45437500Y-57187500D02*
X43290000Y-55040000D01*
X43290000Y-55040000D02*
X41040000Y-55040000D01*
X48750000Y-57187500D02*
X45437500Y-57187500D01*
X49300000Y-57737500D02*
X48750000Y-57187500D01*
X49300000Y-58250000D02*
X49300000Y-57737500D01*
%TO.N,Net-(J6-In)*%
X44101117Y-65540000D02*
X47391117Y-62250000D01*
X48602817Y-62250000D02*
X49250000Y-62897183D01*
X41040000Y-65540000D02*
X44101117Y-65540000D01*
X49250000Y-62897183D02*
X49250000Y-63387500D01*
X47391117Y-62250000D02*
X48602817Y-62250000D01*
D43*
%TO.N,Net-(J8-In)*%
X45055000Y-71445000D02*
X45055000Y-73610966D01*
X48000000Y-68525000D02*
X47975000Y-68525000D01*
X43125966Y-75540000D02*
X41040000Y-75540000D01*
X45055000Y-73610966D02*
X43125966Y-75540000D01*
X47975000Y-68525000D02*
X45055000Y-71445000D01*
D44*
%TO.N,Net-(J9-Pin_7)*%
X37165761Y-81502944D02*
X37165761Y-94655761D01*
X48425000Y-76377944D02*
X44772944Y-80030000D01*
X44772944Y-80030000D02*
X38638705Y-80030000D01*
X37165761Y-94655761D02*
X40250000Y-97740000D01*
X48425000Y-71250000D02*
X48425000Y-76377944D01*
X38638705Y-80030000D02*
X37165761Y-81502944D01*
%TO.N,/epoch*%
X62745000Y-88610761D02*
X62745000Y-90545000D01*
X62745000Y-90545000D02*
X61250000Y-92040000D01*
X62745000Y-88610761D02*
X55404239Y-81270000D01*
X55404239Y-81270000D02*
X53610000Y-81270000D01*
%TO.N,/dataclk*%
X53610000Y-78730000D02*
X53730000Y-78730000D01*
X53730000Y-78730000D02*
X63345000Y-88345000D01*
X63345000Y-88345000D02*
X63345000Y-92485000D01*
X63345000Y-92485000D02*
X61250000Y-94580000D01*
%TO.N,/data*%
X63945000Y-87945000D02*
X55750000Y-79750000D01*
X55750000Y-79750000D02*
X55750000Y-78330000D01*
X55750000Y-78330000D02*
X53610000Y-76190000D01*
X63945000Y-94425000D02*
X63945000Y-87945000D01*
X61250000Y-97120000D02*
X63945000Y-94425000D01*
%TO.N,/DIO*%
X72550000Y-105490000D02*
X69870000Y-108170000D01*
X68770000Y-87155888D02*
X67050000Y-85435888D01*
X70500000Y-81717056D02*
X70500000Y-75300000D01*
X69717056Y-82500000D02*
X70500000Y-81717056D01*
X70500000Y-75300000D02*
X68850000Y-73650000D01*
X67750000Y-82500000D02*
X69717056Y-82500000D01*
X72550000Y-105490000D02*
X68770000Y-101710000D01*
X69870000Y-108170000D02*
X69870000Y-115500000D01*
X67050000Y-83200000D02*
X67750000Y-82500000D01*
X68770000Y-101710000D02*
X68770000Y-87155888D01*
X67050000Y-85435888D02*
X67050000Y-83200000D01*
%TO.N,/CLK*%
X67995000Y-98187943D02*
X63730000Y-102452943D01*
X67330000Y-107890000D02*
X64930000Y-105490000D01*
X63730000Y-104290000D02*
X64930000Y-105490000D01*
D43*
X67287500Y-111712500D02*
X67287500Y-115457500D01*
D44*
X66450000Y-85684416D02*
X67995000Y-87229416D01*
X67995000Y-87229416D02*
X67995000Y-98187943D01*
X67330000Y-107890000D02*
X67330000Y-111670000D01*
D43*
X67287500Y-115457500D02*
X67330000Y-115500000D01*
X67330000Y-111670000D02*
X67287500Y-111712500D01*
D44*
X66450000Y-82550000D02*
X66450000Y-85684416D01*
X67730000Y-81270000D02*
X66450000Y-82550000D01*
X63730000Y-102452943D02*
X63730000Y-104290000D01*
X68850000Y-81270000D02*
X67730000Y-81270000D01*
%TO.N,/KEYPAD*%
X71160000Y-115977767D02*
X71160000Y-109420000D01*
X71160000Y-109420000D02*
X72550000Y-108030000D01*
X70387767Y-116750000D02*
X71160000Y-115977767D01*
X66040000Y-116750000D02*
X70387767Y-116750000D01*
X64790000Y-115500000D02*
X66040000Y-116750000D01*
%TO.N,Net-(J12-Pin_1)*%
X68850000Y-50790000D02*
X73690000Y-50790000D01*
X73690000Y-50790000D02*
X73700000Y-50780000D01*
%TO.N,Net-(J12-Pin_2)*%
X73700000Y-53320000D02*
X68860000Y-53320000D01*
X68860000Y-53320000D02*
X68850000Y-53330000D01*
%TO.N,Net-(J12-Pin_3)*%
X73690000Y-55870000D02*
X73700000Y-55860000D01*
X68850000Y-55870000D02*
X73690000Y-55870000D01*
%TO.N,Net-(J12-Pin_4)*%
X68850000Y-58410000D02*
X73690000Y-58410000D01*
X73690000Y-58410000D02*
X73700000Y-58400000D01*
%TO.N,Net-(J12-Pin_5)*%
X73700000Y-60940000D02*
X68860000Y-60940000D01*
X68860000Y-60940000D02*
X68850000Y-60950000D01*
%TO.N,Net-(J12-Pin_6)*%
X68850000Y-63490000D02*
X73690000Y-63490000D01*
X73690000Y-63490000D02*
X73700000Y-63480000D01*
%TO.N,Net-(J12-Pin_7)*%
X68850000Y-66030000D02*
X73690000Y-66030000D01*
X73690000Y-66030000D02*
X73700000Y-66020000D01*
%TO.N,Net-(J12-Pin_8)*%
X73690000Y-68570000D02*
X73700000Y-68560000D01*
X68850000Y-68570000D02*
X73690000Y-68570000D01*
%TO.N,Net-(J12-Pin_9)*%
X68850000Y-71110000D02*
X73690000Y-71110000D01*
X73690000Y-71110000D02*
X73700000Y-71100000D01*
%TO.N,/pwm*%
X48650000Y-112500000D02*
X57250000Y-112500000D01*
X58400000Y-101991051D02*
X61691051Y-98700000D01*
X62700000Y-98700000D02*
X64545000Y-96855000D01*
X64545000Y-96855000D02*
X64545000Y-87696472D01*
X57250000Y-112500000D02*
X58400000Y-111350000D01*
X61691051Y-98700000D02*
X62700000Y-98700000D01*
X53610000Y-74050000D02*
X53610000Y-73650000D01*
X58400000Y-111350000D02*
X58400000Y-101991051D01*
X48150000Y-112000000D02*
X48650000Y-112500000D01*
X56350000Y-76790000D02*
X53610000Y-74050000D01*
X56350000Y-79501472D02*
X56350000Y-76790000D01*
X64545000Y-87696472D02*
X56350000Y-79501472D01*
%TO.N,Net-(R2-Pad1)*%
X58759683Y-64450000D02*
X59250000Y-64450000D01*
X50750000Y-65500000D02*
X51550000Y-64700000D01*
X51550000Y-64700000D02*
X57365317Y-64700000D01*
X58187500Y-62137500D02*
X58187500Y-63877817D01*
X50075000Y-71250000D02*
X50750000Y-70575000D01*
X50750000Y-70575000D02*
X50750000Y-65500000D01*
X58187500Y-63877817D02*
X58759683Y-64450000D01*
X57365317Y-64700000D02*
X58187500Y-63877817D01*
X58575000Y-61750000D02*
X58187500Y-62137500D01*
%TO.N,/codesign*%
X56965000Y-63490000D02*
X56975000Y-63500000D01*
X56925000Y-61750000D02*
X56925000Y-63450000D01*
X56925000Y-63450000D02*
X56975000Y-63500000D01*
X53610000Y-63490000D02*
X56965000Y-63490000D01*
%TO.N,Net-(U9-~{RESET}{slash}PB5)*%
X72550000Y-102950000D02*
X72550000Y-100450000D01*
X72550000Y-100450000D02*
X72750000Y-100250000D01*
%TO.N,/FPGA*%
X65250000Y-86181472D02*
X66795000Y-87726472D01*
X66475736Y-78564264D02*
X68850000Y-76190000D01*
X66795000Y-97690887D02*
X62530000Y-101955887D01*
X62530000Y-108170000D02*
X64930000Y-110570000D01*
X65250000Y-82052944D02*
X66475736Y-80827208D01*
X66795000Y-87726472D02*
X66795000Y-97690887D01*
X65250000Y-86181472D02*
X65250000Y-82052944D01*
X62530000Y-101955887D02*
X62530000Y-108170000D01*
X66475736Y-80827208D02*
X66475736Y-78564264D01*
D43*
%TO.N,/dithercacode*%
X48950000Y-65830393D02*
X48950000Y-66250000D01*
X51802817Y-60950000D02*
X51802817Y-63447183D01*
X53610000Y-60950000D02*
X51802817Y-60950000D01*
X51802817Y-63447183D02*
X50012500Y-65237500D01*
X50012500Y-65237500D02*
X49542893Y-65237500D01*
X49542893Y-65237500D02*
X48950000Y-65830393D01*
D44*
%TO.N,/ifin*%
X52902500Y-58410000D02*
X53610000Y-58410000D01*
X50200000Y-61112500D02*
X52902500Y-58410000D01*
D47*
%TO.N,/clk*%
X53610000Y-55870000D02*
X50355000Y-55870000D01*
X50355000Y-55870000D02*
X50250000Y-55975000D01*
D43*
%TO.N,Net-(U8-TR)*%
X55835000Y-102705000D02*
X55835000Y-98163133D01*
X55835000Y-98163133D02*
X56320000Y-97678133D01*
D47*
X56750000Y-88772183D02*
X56750000Y-90140000D01*
X55250000Y-87500000D02*
X55477817Y-87500000D01*
D44*
X55905000Y-102635000D02*
X55790000Y-102750000D01*
D47*
X55477817Y-87500000D02*
X56750000Y-88772183D01*
X56750000Y-90140000D02*
X56320000Y-90570000D01*
D43*
X55790000Y-102750000D02*
X55835000Y-102705000D01*
X56320000Y-97678133D02*
X56320000Y-90570000D01*
D44*
%TO.N,Net-(U1-J1)*%
X67075736Y-80504264D02*
X68850000Y-78730000D01*
X67075736Y-81075736D02*
X67075736Y-80504264D01*
X65850000Y-82301472D02*
X67075736Y-81075736D01*
X67395000Y-87477944D02*
X65850000Y-85932944D01*
X65850000Y-85932944D02*
X65850000Y-82301472D01*
X63130000Y-106230000D02*
X64930000Y-108030000D01*
X63130000Y-102204415D02*
X63130000Y-106230000D01*
X67395000Y-97939415D02*
X63130000Y-102204415D01*
X67395000Y-87477944D02*
X67395000Y-97939415D01*
D43*
%TO.N,Net-(D5-K)*%
X68075000Y-113000000D02*
X68075000Y-104125000D01*
D44*
X67630000Y-100250000D02*
X64930000Y-102950000D01*
D43*
X68075000Y-104125000D02*
X67338909Y-103388909D01*
D44*
X67670000Y-100250000D02*
X67630000Y-100250000D01*
X66900000Y-102950000D02*
X66950000Y-103000000D01*
X64930000Y-102950000D02*
X66900000Y-102950000D01*
%TD*%
%TA.AperFunction,Conductor*%
%TO.N,GND*%
G36*
X65362128Y-87305248D02*
G01*
X65414222Y-87336351D01*
X66058180Y-87980309D01*
X66091665Y-88041632D01*
X66094499Y-88067990D01*
X66094499Y-97349367D01*
X66074814Y-97416406D01*
X66058180Y-97437048D01*
X62050966Y-101444262D01*
X62048240Y-101446829D01*
X62001818Y-101487955D01*
X61966586Y-101538996D01*
X61964368Y-101542011D01*
X61926124Y-101590826D01*
X61926119Y-101590835D01*
X61921960Y-101600075D01*
X61910942Y-101619610D01*
X61905187Y-101627948D01*
X61905183Y-101627954D01*
X61905182Y-101627957D01*
X61905180Y-101627961D01*
X61905179Y-101627964D01*
X61883189Y-101685942D01*
X61881757Y-101689400D01*
X61856305Y-101745955D01*
X61854477Y-101755929D01*
X61848453Y-101777540D01*
X61844860Y-101787014D01*
X61844859Y-101787015D01*
X61837384Y-101848572D01*
X61836821Y-101852273D01*
X61825642Y-101913277D01*
X61825642Y-101913282D01*
X61829387Y-101975189D01*
X61829500Y-101978934D01*
X61829500Y-108146951D01*
X61829387Y-108150696D01*
X61825642Y-108212603D01*
X61825642Y-108212605D01*
X61836821Y-108273612D01*
X61837384Y-108277313D01*
X61844859Y-108338870D01*
X61844860Y-108338874D01*
X61848451Y-108348343D01*
X61854474Y-108369946D01*
X61856304Y-108379930D01*
X61881759Y-108436490D01*
X61883189Y-108439941D01*
X61905182Y-108497930D01*
X61905183Y-108497931D01*
X61910936Y-108506266D01*
X61921961Y-108525813D01*
X61926120Y-108535055D01*
X61926124Y-108535060D01*
X61964371Y-108583878D01*
X61966591Y-108586896D01*
X62001812Y-108637924D01*
X62001816Y-108637928D01*
X62001817Y-108637929D01*
X62048250Y-108679064D01*
X62050941Y-108681598D01*
X62921634Y-109552290D01*
X63608972Y-110239628D01*
X63642457Y-110300951D01*
X63644819Y-110338116D01*
X63624532Y-110569998D01*
X63624532Y-110570001D01*
X63644364Y-110796686D01*
X63644366Y-110796697D01*
X63703258Y-111016488D01*
X63703261Y-111016497D01*
X63799431Y-111222732D01*
X63799432Y-111222734D01*
X63929954Y-111409141D01*
X64090858Y-111570045D01*
X64090861Y-111570047D01*
X64277266Y-111700568D01*
X64483504Y-111796739D01*
X64703308Y-111855635D01*
X64865230Y-111869801D01*
X64929998Y-111875468D01*
X64930000Y-111875468D01*
X64930002Y-111875468D01*
X64986672Y-111870509D01*
X65156692Y-111855635D01*
X65376496Y-111796739D01*
X65582734Y-111700568D01*
X65769139Y-111570047D01*
X65930047Y-111409139D01*
X66060568Y-111222734D01*
X66156739Y-111016496D01*
X66215635Y-110796692D01*
X66235468Y-110570000D01*
X66215635Y-110343308D01*
X66156739Y-110123504D01*
X66060568Y-109917266D01*
X65930047Y-109730861D01*
X65930045Y-109730858D01*
X65769141Y-109569954D01*
X65582734Y-109439432D01*
X65582728Y-109439429D01*
X65524725Y-109412382D01*
X65472285Y-109366210D01*
X65453133Y-109299017D01*
X65473348Y-109232135D01*
X65524725Y-109187618D01*
X65582734Y-109160568D01*
X65769139Y-109030047D01*
X65930047Y-108869139D01*
X66060568Y-108682734D01*
X66156739Y-108476496D01*
X66215635Y-108256692D01*
X66231911Y-108070648D01*
X66257363Y-108005581D01*
X66313954Y-107964602D01*
X66383716Y-107960724D01*
X66443120Y-107993776D01*
X66593181Y-108143837D01*
X66626666Y-108205160D01*
X66629500Y-108231518D01*
X66629500Y-111712374D01*
X66636547Y-111770413D01*
X66637000Y-111777894D01*
X66637000Y-111900500D01*
X66617315Y-111967539D01*
X66564511Y-112013294D01*
X66513000Y-112024500D01*
X66233318Y-112024500D01*
X66134816Y-112034563D01*
X66134815Y-112034564D01*
X66055719Y-112060773D01*
X65975215Y-112087450D01*
X65975204Y-112087455D01*
X65832112Y-112175716D01*
X65832108Y-112175719D01*
X65713219Y-112294608D01*
X65708738Y-112300276D01*
X65706713Y-112298675D01*
X65663741Y-112337324D01*
X65610155Y-112349500D01*
X64835505Y-112349500D01*
X64819494Y-112347732D01*
X64819472Y-112347974D01*
X64811705Y-112347240D01*
X64811704Y-112347240D01*
X64739797Y-112349500D01*
X64709075Y-112349500D01*
X64709071Y-112349500D01*
X64709061Y-112349501D01*
X64701793Y-112350419D01*
X64695976Y-112350876D01*
X64647436Y-112352402D01*
X64647425Y-112352404D01*
X64627049Y-112358323D01*
X64608008Y-112362266D01*
X64586953Y-112364926D01*
X64586937Y-112364930D01*
X64541771Y-112382812D01*
X64536244Y-112384704D01*
X64489599Y-112398256D01*
X64471327Y-112409062D01*
X64453861Y-112417619D01*
X64434128Y-112425432D01*
X64394830Y-112453983D01*
X64389953Y-112457186D01*
X64376281Y-112465272D01*
X64348132Y-112481920D01*
X64333126Y-112496926D01*
X64318336Y-112509558D01*
X64301167Y-112522032D01*
X64301165Y-112522034D01*
X64270194Y-112559470D01*
X64266262Y-112563791D01*
X62677762Y-114152290D01*
X62616439Y-114185775D01*
X62557989Y-114184384D01*
X62485416Y-114164939D01*
X62485412Y-114164938D01*
X62485408Y-114164937D01*
X62485406Y-114164936D01*
X62485403Y-114164936D01*
X62250001Y-114144341D01*
X62249999Y-114144341D01*
X62014596Y-114164936D01*
X62014586Y-114164938D01*
X61786344Y-114226094D01*
X61786335Y-114226098D01*
X61572171Y-114325964D01*
X61572169Y-114325965D01*
X61378597Y-114461505D01*
X61211508Y-114628594D01*
X61198884Y-114646624D01*
X61144307Y-114690248D01*
X61097309Y-114699500D01*
X57840194Y-114699500D01*
X57659805Y-114699500D01*
X57659803Y-114699500D01*
X57659797Y-114699501D01*
X57619098Y-114708790D01*
X57612242Y-114709955D01*
X57570743Y-114714632D01*
X57531328Y-114728423D01*
X57524646Y-114730348D01*
X57483940Y-114739640D01*
X57446326Y-114757753D01*
X57439901Y-114760414D01*
X57400482Y-114774209D01*
X57400474Y-114774213D01*
X57365117Y-114796428D01*
X57359032Y-114799791D01*
X57321413Y-114817908D01*
X57321411Y-114817909D01*
X57288769Y-114843941D01*
X57283096Y-114847966D01*
X57247739Y-114870183D01*
X57157164Y-114960755D01*
X57157160Y-114960761D01*
X52439159Y-119678760D01*
X52439151Y-119678771D01*
X52370183Y-119747739D01*
X52347966Y-119783096D01*
X52343941Y-119788769D01*
X52317909Y-119821411D01*
X52317906Y-119821416D01*
X52306363Y-119845385D01*
X52259539Y-119897243D01*
X52192111Y-119915554D01*
X52129548Y-119897119D01*
X52033699Y-119837998D01*
X52033694Y-119837996D01*
X51872709Y-119784651D01*
X51773346Y-119774500D01*
X51226662Y-119774500D01*
X51226644Y-119774501D01*
X51127292Y-119784650D01*
X51127289Y-119784651D01*
X50966305Y-119837996D01*
X50966294Y-119838001D01*
X50821959Y-119927029D01*
X50821955Y-119927032D01*
X50702032Y-120046955D01*
X50702029Y-120046959D01*
X50613001Y-120191294D01*
X50612996Y-120191305D01*
X50559651Y-120352290D01*
X50549500Y-120451647D01*
X50549500Y-121048337D01*
X50549501Y-121048355D01*
X50559650Y-121147707D01*
X50559651Y-121147710D01*
X50612996Y-121308694D01*
X50613001Y-121308705D01*
X50702029Y-121453040D01*
X50702032Y-121453044D01*
X50786306Y-121537318D01*
X50819791Y-121598641D01*
X50814807Y-121668333D01*
X50786307Y-121712679D01*
X50702032Y-121796955D01*
X50702029Y-121796959D01*
X50613001Y-121941294D01*
X50612996Y-121941305D01*
X50559651Y-122102290D01*
X50549500Y-122201647D01*
X50549500Y-122798337D01*
X50549501Y-122798355D01*
X50559650Y-122897707D01*
X50559651Y-122897710D01*
X50612996Y-123058694D01*
X50613001Y-123058705D01*
X50702029Y-123203040D01*
X50702032Y-123203044D01*
X50821955Y-123322967D01*
X50821959Y-123322970D01*
X50966294Y-123411998D01*
X50966297Y-123411999D01*
X50966303Y-123412003D01*
X51127292Y-123465349D01*
X51226655Y-123475500D01*
X51773344Y-123475499D01*
X51773352Y-123475498D01*
X51773355Y-123475498D01*
X51827760Y-123469940D01*
X51872708Y-123465349D01*
X52033697Y-123412003D01*
X52033698Y-123412001D01*
X52036496Y-123411075D01*
X52106324Y-123408673D01*
X52166366Y-123444405D01*
X52197559Y-123506925D01*
X52199500Y-123528781D01*
X52199500Y-125863964D01*
X52179815Y-125931003D01*
X52127011Y-125976758D01*
X52057853Y-125986702D01*
X51994297Y-125957677D01*
X51976234Y-125938276D01*
X51970202Y-125930219D01*
X51947546Y-125899954D01*
X51947544Y-125899953D01*
X51947544Y-125899952D01*
X51832335Y-125813706D01*
X51832328Y-125813702D01*
X51697482Y-125763408D01*
X51697483Y-125763408D01*
X51637883Y-125757001D01*
X51637881Y-125757000D01*
X51637873Y-125757000D01*
X51637864Y-125757000D01*
X49542129Y-125757000D01*
X49542123Y-125757001D01*
X49482516Y-125763408D01*
X49347671Y-125813702D01*
X49347664Y-125813706D01*
X49232455Y-125899952D01*
X49232452Y-125899955D01*
X49146206Y-126015164D01*
X49146202Y-126015171D01*
X49095908Y-126150017D01*
X49089501Y-126209616D01*
X49089500Y-126209635D01*
X49089500Y-126285500D01*
X49069815Y-126352539D01*
X49017011Y-126398294D01*
X48965500Y-126409500D01*
X47848904Y-126409500D01*
X47781865Y-126389815D01*
X47736110Y-126337011D01*
X47726145Y-126276543D01*
X47725339Y-126276502D01*
X47725497Y-126273370D01*
X47725500Y-126273345D01*
X47725499Y-125726656D01*
X47715349Y-125627292D01*
X47662003Y-125466303D01*
X47661999Y-125466297D01*
X47661998Y-125466294D01*
X47572970Y-125321959D01*
X47572967Y-125321955D01*
X47453044Y-125202032D01*
X47453040Y-125202029D01*
X47308705Y-125113001D01*
X47308699Y-125112998D01*
X47308697Y-125112997D01*
X47308694Y-125112996D01*
X47147709Y-125059651D01*
X47048346Y-125049500D01*
X46451662Y-125049500D01*
X46451644Y-125049501D01*
X46352292Y-125059650D01*
X46352289Y-125059651D01*
X46191305Y-125112996D01*
X46191294Y-125113001D01*
X46046959Y-125202029D01*
X46046955Y-125202032D01*
X45927032Y-125321955D01*
X45927029Y-125321959D01*
X45838001Y-125466294D01*
X45837996Y-125466305D01*
X45784651Y-125627290D01*
X45774500Y-125726647D01*
X45774500Y-126273337D01*
X45774662Y-126276499D01*
X45773780Y-126276543D01*
X45761679Y-126341604D01*
X45713793Y-126392483D01*
X45651097Y-126409500D01*
X42302940Y-126409500D01*
X42235901Y-126389815D01*
X42215259Y-126373181D01*
X41837661Y-125995583D01*
X41804176Y-125934260D01*
X41806777Y-125871592D01*
X41819583Y-125829780D01*
X41849216Y-125598376D01*
X41839314Y-125365293D01*
X41790164Y-125137235D01*
X41703179Y-124920765D01*
X41580862Y-124722109D01*
X41426731Y-124546982D01*
X41426729Y-124546980D01*
X41426726Y-124546977D01*
X41245226Y-124400426D01*
X41245220Y-124400421D01*
X41041554Y-124286646D01*
X40821591Y-124208929D01*
X40821586Y-124208927D01*
X40821584Y-124208927D01*
X40821580Y-124208926D01*
X40821579Y-124208926D01*
X40591655Y-124169500D01*
X40591647Y-124169500D01*
X40062940Y-124169500D01*
X39995901Y-124149815D01*
X39975259Y-124133181D01*
X39086819Y-123244741D01*
X39053334Y-123183418D01*
X39050500Y-123157060D01*
X39050500Y-120004132D01*
X39070185Y-119937093D01*
X39122989Y-119891338D01*
X39192147Y-119881394D01*
X39250328Y-119906755D01*
X39250415Y-119906628D01*
X39251102Y-119907092D01*
X39252404Y-119907660D01*
X39254776Y-119909575D01*
X39254779Y-119909578D01*
X39458445Y-120023353D01*
X39458448Y-120023354D01*
X39678416Y-120101073D01*
X39806725Y-120123074D01*
X39908344Y-120140499D01*
X39908353Y-120140500D01*
X40533221Y-120140500D01*
X40707446Y-120125671D01*
X40707446Y-120125670D01*
X40707453Y-120125670D01*
X40933219Y-120066885D01*
X41145802Y-119970792D01*
X41339088Y-119840153D01*
X41507516Y-119678728D01*
X41646240Y-119491161D01*
X41751270Y-119282847D01*
X41819583Y-119059780D01*
X41849216Y-118828376D01*
X41839314Y-118595293D01*
X41790164Y-118367235D01*
X41703179Y-118150765D01*
X41580862Y-117952109D01*
X41426731Y-117776982D01*
X41426729Y-117776980D01*
X41426726Y-117776977D01*
X41245226Y-117630426D01*
X41245220Y-117630421D01*
X41041554Y-117516646D01*
X40821591Y-117438929D01*
X40821586Y-117438927D01*
X40821584Y-117438927D01*
X40821580Y-117438926D01*
X40821579Y-117438926D01*
X40591655Y-117399500D01*
X40591647Y-117399500D01*
X40032940Y-117399500D01*
X39965901Y-117379815D01*
X39945259Y-117363181D01*
X39086819Y-116504741D01*
X39053334Y-116443418D01*
X39050500Y-116417060D01*
X39050500Y-113314132D01*
X39070185Y-113247093D01*
X39122989Y-113201338D01*
X39192147Y-113191394D01*
X39250328Y-113216755D01*
X39250415Y-113216628D01*
X39251102Y-113217092D01*
X39252404Y-113217660D01*
X39254776Y-113219575D01*
X39254779Y-113219578D01*
X39458445Y-113333353D01*
X39458448Y-113333354D01*
X39678416Y-113411073D01*
X39806725Y-113433074D01*
X39908344Y-113450499D01*
X39908353Y-113450500D01*
X40533221Y-113450500D01*
X40707446Y-113435671D01*
X40707446Y-113435670D01*
X40707453Y-113435670D01*
X40933219Y-113376885D01*
X41145802Y-113280792D01*
X41339088Y-113150153D01*
X41507516Y-112988728D01*
X41545774Y-112937000D01*
X41550386Y-112930765D01*
X41606076Y-112888571D01*
X41650081Y-112880500D01*
X44064532Y-112880500D01*
X44129628Y-112898961D01*
X44191303Y-112937003D01*
X44352292Y-112990349D01*
X44451655Y-113000500D01*
X45048344Y-113000499D01*
X45048352Y-113000498D01*
X45048355Y-113000498D01*
X45102760Y-112994940D01*
X45147708Y-112990349D01*
X45308697Y-112937003D01*
X45419008Y-112868961D01*
X45484105Y-112850500D01*
X45863377Y-112850500D01*
X45927527Y-112868383D01*
X46010394Y-112918478D01*
X46172804Y-112969086D01*
X46243384Y-112975500D01*
X46243387Y-112975500D01*
X46756613Y-112975500D01*
X46756616Y-112975500D01*
X46827196Y-112969086D01*
X46989606Y-112918478D01*
X47135185Y-112830472D01*
X47135189Y-112830467D01*
X47237319Y-112728339D01*
X47298642Y-112694854D01*
X47368334Y-112699838D01*
X47412681Y-112728339D01*
X47514811Y-112830469D01*
X47514813Y-112830470D01*
X47514815Y-112830472D01*
X47660394Y-112918478D01*
X47822804Y-112969086D01*
X47893384Y-112975500D01*
X48079590Y-112975500D01*
X48146629Y-112995185D01*
X48172405Y-113017273D01*
X48182069Y-113028181D01*
X48182071Y-113028183D01*
X48233130Y-113063427D01*
X48236112Y-113065621D01*
X48284943Y-113103877D01*
X48284947Y-113103880D01*
X48284946Y-113103880D01*
X48294177Y-113108034D01*
X48313731Y-113119062D01*
X48322066Y-113124816D01*
X48322068Y-113124816D01*
X48322070Y-113124818D01*
X48380079Y-113146817D01*
X48383476Y-113148224D01*
X48430770Y-113169509D01*
X48440064Y-113173693D01*
X48440065Y-113173693D01*
X48440069Y-113173695D01*
X48450034Y-113175521D01*
X48471656Y-113181548D01*
X48471667Y-113181552D01*
X48481128Y-113185140D01*
X48526251Y-113190618D01*
X48542674Y-113192613D01*
X48546371Y-113193175D01*
X48607394Y-113204358D01*
X48662752Y-113201009D01*
X48669303Y-113200613D01*
X48673048Y-113200500D01*
X57226952Y-113200500D01*
X57230697Y-113200613D01*
X57238042Y-113201057D01*
X57292606Y-113204358D01*
X57330314Y-113197447D01*
X57353621Y-113193177D01*
X57357325Y-113192613D01*
X57375170Y-113190446D01*
X57418872Y-113185140D01*
X57428335Y-113181550D01*
X57449961Y-113175522D01*
X57450893Y-113175351D01*
X57459932Y-113173695D01*
X57516512Y-113148229D01*
X57519942Y-113146809D01*
X57577930Y-113124818D01*
X57586266Y-113119062D01*
X57605821Y-113108034D01*
X57615057Y-113103878D01*
X57663896Y-113065613D01*
X57666876Y-113063421D01*
X57717929Y-113028183D01*
X57759065Y-112981748D01*
X57761599Y-112979056D01*
X58879048Y-111861606D01*
X58881740Y-111859072D01*
X58928183Y-111817929D01*
X58963427Y-111766867D01*
X58965634Y-111763869D01*
X58966173Y-111763181D01*
X59003878Y-111715056D01*
X59008037Y-111705813D01*
X59019061Y-111686268D01*
X59024818Y-111677930D01*
X59046810Y-111619939D01*
X59048232Y-111616503D01*
X59073695Y-111559931D01*
X59075522Y-111549959D01*
X59081546Y-111528347D01*
X59085140Y-111518872D01*
X59092613Y-111457324D01*
X59093177Y-111453619D01*
X59096535Y-111435289D01*
X59104358Y-111392606D01*
X59100613Y-111330696D01*
X59100500Y-111326951D01*
X59100500Y-102332570D01*
X59120185Y-102265531D01*
X59136819Y-102244889D01*
X61944889Y-99436819D01*
X62006212Y-99403334D01*
X62032570Y-99400500D01*
X62676952Y-99400500D01*
X62680697Y-99400613D01*
X62688042Y-99401057D01*
X62742606Y-99404358D01*
X62780314Y-99397447D01*
X62803621Y-99393177D01*
X62807325Y-99392613D01*
X62825170Y-99390446D01*
X62868872Y-99385140D01*
X62878335Y-99381550D01*
X62899961Y-99375522D01*
X62900893Y-99375351D01*
X62909932Y-99373695D01*
X62966512Y-99348229D01*
X62969942Y-99346809D01*
X63027930Y-99324818D01*
X63036266Y-99319062D01*
X63055821Y-99308034D01*
X63065057Y-99303878D01*
X63113896Y-99265613D01*
X63116876Y-99263421D01*
X63167929Y-99228183D01*
X63209065Y-99181748D01*
X63211599Y-99179056D01*
X65024056Y-97366599D01*
X65026748Y-97364065D01*
X65073183Y-97322929D01*
X65108421Y-97271876D01*
X65110613Y-97268896D01*
X65148878Y-97220057D01*
X65153034Y-97210821D01*
X65164062Y-97191266D01*
X65169818Y-97182930D01*
X65191809Y-97124942D01*
X65193229Y-97121512D01*
X65218695Y-97064932D01*
X65220521Y-97054961D01*
X65226552Y-97033331D01*
X65230140Y-97023871D01*
X65230140Y-97023868D01*
X65237613Y-96962325D01*
X65238177Y-96958621D01*
X65244867Y-96922110D01*
X65249358Y-96897606D01*
X65245611Y-96835667D01*
X65245500Y-96831985D01*
X65245500Y-87719472D01*
X65245610Y-87715795D01*
X65249357Y-87653866D01*
X65238177Y-87592858D01*
X65237615Y-87589161D01*
X65230140Y-87527601D01*
X65230139Y-87527597D01*
X65226546Y-87518123D01*
X65220519Y-87496501D01*
X65218694Y-87486542D01*
X65218694Y-87486540D01*
X65213465Y-87474923D01*
X65203902Y-87405712D01*
X65233275Y-87342317D01*
X65292259Y-87304865D01*
X65362128Y-87305248D01*
G37*
%TD.AperFunction*%
%TA.AperFunction,Conductor*%
G36*
X67992229Y-101431084D02*
G01*
X68046908Y-101474581D01*
X68069391Y-101540735D01*
X68069500Y-101545942D01*
X68069500Y-101686951D01*
X68069387Y-101690696D01*
X68067548Y-101721106D01*
X68065642Y-101752606D01*
X68068828Y-101769990D01*
X68076821Y-101813612D01*
X68077384Y-101817313D01*
X68084859Y-101878870D01*
X68084860Y-101878874D01*
X68088451Y-101888343D01*
X68094474Y-101909946D01*
X68096304Y-101919930D01*
X68121759Y-101976490D01*
X68123189Y-101979941D01*
X68145182Y-102037930D01*
X68145183Y-102037931D01*
X68150936Y-102046266D01*
X68161961Y-102065813D01*
X68166120Y-102075055D01*
X68166122Y-102075057D01*
X68187331Y-102102129D01*
X68204371Y-102123878D01*
X68206591Y-102126896D01*
X68241812Y-102177924D01*
X68241816Y-102177928D01*
X68241817Y-102177929D01*
X68288250Y-102219064D01*
X68290941Y-102221598D01*
X69762673Y-103693330D01*
X71228972Y-105159629D01*
X71262457Y-105220952D01*
X71264819Y-105258117D01*
X71244532Y-105489998D01*
X71244532Y-105490001D01*
X71264819Y-105721881D01*
X71251052Y-105790381D01*
X71228972Y-105820369D01*
X69390966Y-107658375D01*
X69388240Y-107660942D01*
X69341818Y-107702068D01*
X69306586Y-107753109D01*
X69304368Y-107756124D01*
X69266124Y-107804939D01*
X69266119Y-107804948D01*
X69261960Y-107814188D01*
X69250942Y-107833723D01*
X69245187Y-107842061D01*
X69245183Y-107842067D01*
X69245182Y-107842070D01*
X69245180Y-107842074D01*
X69245179Y-107842077D01*
X69223189Y-107900055D01*
X69221757Y-107903513D01*
X69196305Y-107960068D01*
X69194477Y-107970042D01*
X69188453Y-107991653D01*
X69184860Y-108001127D01*
X69184859Y-108001128D01*
X69177384Y-108062685D01*
X69176821Y-108066386D01*
X69165642Y-108127390D01*
X69165642Y-108127395D01*
X69169387Y-108189302D01*
X69169500Y-108193047D01*
X69169500Y-112356261D01*
X69149815Y-112423300D01*
X69097011Y-112469055D01*
X69027853Y-112478999D01*
X68964297Y-112449974D01*
X68939962Y-112421358D01*
X68861783Y-112294612D01*
X68861782Y-112294611D01*
X68861781Y-112294609D01*
X68761818Y-112194646D01*
X68728334Y-112133323D01*
X68725500Y-112106965D01*
X68725500Y-104210502D01*
X68727268Y-104194489D01*
X68727026Y-104194467D01*
X68727758Y-104186711D01*
X68727760Y-104186704D01*
X68725500Y-104114796D01*
X68725500Y-104084075D01*
X68724579Y-104076788D01*
X68724122Y-104070979D01*
X68724063Y-104069103D01*
X68722597Y-104022431D01*
X68716676Y-104002053D01*
X68712731Y-103983004D01*
X68710071Y-103961942D01*
X68692185Y-103916769D01*
X68690296Y-103911249D01*
X68676743Y-103864600D01*
X68665940Y-103846334D01*
X68657378Y-103828856D01*
X68649568Y-103809129D01*
X68649565Y-103809125D01*
X68641390Y-103797873D01*
X68621014Y-103769827D01*
X68617811Y-103764951D01*
X68596544Y-103728991D01*
X68593081Y-103723135D01*
X68593079Y-103723133D01*
X68593078Y-103723131D01*
X68578075Y-103708129D01*
X68565435Y-103693330D01*
X68559648Y-103685365D01*
X68554422Y-103678171D01*
X68552961Y-103676160D01*
X68515528Y-103645194D01*
X68511206Y-103641260D01*
X67936818Y-103066872D01*
X67903333Y-103005549D01*
X67900499Y-102979191D01*
X67900499Y-102701662D01*
X67900498Y-102701644D01*
X67890349Y-102602292D01*
X67890348Y-102602289D01*
X67880133Y-102571461D01*
X67837003Y-102441303D01*
X67836999Y-102441297D01*
X67836998Y-102441294D01*
X67747970Y-102296959D01*
X67747967Y-102296955D01*
X67628044Y-102177032D01*
X67628040Y-102177029D01*
X67483705Y-102088001D01*
X67483699Y-102087998D01*
X67483697Y-102087997D01*
X67483694Y-102087996D01*
X67322709Y-102034651D01*
X67223352Y-102024500D01*
X67223345Y-102024500D01*
X67145518Y-102024500D01*
X67078479Y-102004815D01*
X67032724Y-101952011D01*
X67022780Y-101882853D01*
X67051805Y-101819297D01*
X67057837Y-101812819D01*
X67225148Y-101645508D01*
X67395768Y-101474887D01*
X67457089Y-101441404D01*
X67506231Y-101440681D01*
X67558757Y-101450500D01*
X67558759Y-101450500D01*
X67781240Y-101450500D01*
X67781243Y-101450500D01*
X67922718Y-101424053D01*
X67992229Y-101431084D01*
G37*
%TD.AperFunction*%
%TA.AperFunction,Conductor*%
G36*
X52012536Y-74243575D02*
G01*
X52068470Y-74285446D01*
X52076207Y-74298341D01*
X52076724Y-74298043D01*
X52079432Y-74302734D01*
X52209954Y-74489141D01*
X52370858Y-74650045D01*
X52370861Y-74650047D01*
X52557266Y-74780568D01*
X52615275Y-74807618D01*
X52667714Y-74853791D01*
X52686866Y-74920984D01*
X52666650Y-74987865D01*
X52615275Y-75032382D01*
X52557267Y-75059431D01*
X52557265Y-75059432D01*
X52370858Y-75189954D01*
X52209954Y-75350858D01*
X52079432Y-75537265D01*
X52079431Y-75537267D01*
X51983261Y-75743502D01*
X51983258Y-75743511D01*
X51924366Y-75963302D01*
X51924364Y-75963313D01*
X51904532Y-76189998D01*
X51904532Y-76190001D01*
X51924364Y-76416686D01*
X51924366Y-76416697D01*
X51983258Y-76636488D01*
X51983261Y-76636497D01*
X52079431Y-76842732D01*
X52079432Y-76842734D01*
X52209954Y-77029141D01*
X52370858Y-77190045D01*
X52370861Y-77190047D01*
X52557266Y-77320568D01*
X52615275Y-77347618D01*
X52667714Y-77393791D01*
X52686866Y-77460984D01*
X52666650Y-77527865D01*
X52615275Y-77572382D01*
X52557267Y-77599431D01*
X52557265Y-77599432D01*
X52370858Y-77729954D01*
X52209954Y-77890858D01*
X52079432Y-78077265D01*
X52079431Y-78077267D01*
X51983261Y-78283502D01*
X51983258Y-78283511D01*
X51924366Y-78503302D01*
X51924364Y-78503313D01*
X51904532Y-78729998D01*
X51904532Y-78730001D01*
X51924364Y-78956686D01*
X51924366Y-78956697D01*
X51983258Y-79176488D01*
X51983261Y-79176497D01*
X52079431Y-79382732D01*
X52079432Y-79382734D01*
X52209954Y-79569141D01*
X52370858Y-79730045D01*
X52370861Y-79730047D01*
X52557266Y-79860568D01*
X52615275Y-79887618D01*
X52667714Y-79933791D01*
X52686866Y-80000984D01*
X52666650Y-80067865D01*
X52615275Y-80112382D01*
X52557267Y-80139431D01*
X52557265Y-80139432D01*
X52370858Y-80269954D01*
X52209954Y-80430858D01*
X52079432Y-80617265D01*
X52079431Y-80617267D01*
X51983261Y-80823502D01*
X51983258Y-80823511D01*
X51924366Y-81043302D01*
X51924364Y-81043313D01*
X51904532Y-81269998D01*
X51904532Y-81270001D01*
X51924364Y-81496686D01*
X51924366Y-81496697D01*
X51983258Y-81716488D01*
X51983261Y-81716497D01*
X52079431Y-81922732D01*
X52079432Y-81922734D01*
X52209954Y-82109141D01*
X52370858Y-82270045D01*
X52370861Y-82270047D01*
X52557266Y-82400568D01*
X52763504Y-82496739D01*
X52983308Y-82555635D01*
X53153216Y-82570500D01*
X54066784Y-82570500D01*
X54236692Y-82555635D01*
X54456496Y-82496739D01*
X54662734Y-82400568D01*
X54849139Y-82270047D01*
X55010047Y-82109139D01*
X55025227Y-82087459D01*
X55079801Y-82043835D01*
X55149300Y-82036640D01*
X55211655Y-82068161D01*
X55214483Y-82070901D01*
X62008181Y-88864599D01*
X62041666Y-88925922D01*
X62044500Y-88952280D01*
X62044500Y-90203480D01*
X62024815Y-90270519D01*
X62008181Y-90291161D01*
X61666161Y-90633181D01*
X61604838Y-90666666D01*
X61578480Y-90669500D01*
X60966779Y-90669500D01*
X60792553Y-90684328D01*
X60792551Y-90684329D01*
X60566781Y-90743114D01*
X60354197Y-90839208D01*
X60160911Y-90969847D01*
X60160909Y-90969849D01*
X59992483Y-91131272D01*
X59992482Y-91131273D01*
X59853762Y-91318834D01*
X59748733Y-91527147D01*
X59748730Y-91527153D01*
X59680416Y-91750223D01*
X59650784Y-91981624D01*
X59660685Y-92214700D01*
X59660686Y-92214709D01*
X59709836Y-92442766D01*
X59709837Y-92442769D01*
X59796819Y-92659231D01*
X59796821Y-92659235D01*
X59919138Y-92857891D01*
X60073269Y-93033018D01*
X60073270Y-93033019D01*
X60073273Y-93033022D01*
X60254773Y-93179573D01*
X60254775Y-93179574D01*
X60254780Y-93179578D01*
X60295102Y-93202103D01*
X60344028Y-93251983D01*
X60358220Y-93320396D01*
X60333172Y-93385622D01*
X60304065Y-93413092D01*
X60160907Y-93509850D01*
X59992483Y-93671272D01*
X59992482Y-93671273D01*
X59853762Y-93858834D01*
X59748733Y-94067147D01*
X59748730Y-94067153D01*
X59680416Y-94290223D01*
X59650784Y-94521624D01*
X59660685Y-94754700D01*
X59660686Y-94754709D01*
X59709836Y-94982766D01*
X59709837Y-94982769D01*
X59766462Y-95123685D01*
X59796821Y-95199235D01*
X59919138Y-95397891D01*
X60073269Y-95573018D01*
X60073270Y-95573019D01*
X60073273Y-95573022D01*
X60254773Y-95719573D01*
X60254775Y-95719574D01*
X60254780Y-95719578D01*
X60293498Y-95741207D01*
X60295102Y-95742103D01*
X60344028Y-95791983D01*
X60358220Y-95860396D01*
X60333172Y-95925622D01*
X60304065Y-95953092D01*
X60160907Y-96049850D01*
X59992483Y-96211272D01*
X59992482Y-96211273D01*
X59853762Y-96398834D01*
X59748733Y-96607147D01*
X59748730Y-96607153D01*
X59680416Y-96830223D01*
X59650784Y-97061624D01*
X59660685Y-97294700D01*
X59660686Y-97294709D01*
X59709836Y-97522766D01*
X59709837Y-97522769D01*
X59796762Y-97739088D01*
X59796821Y-97739235D01*
X59919138Y-97937891D01*
X60073269Y-98113018D01*
X60073270Y-98113019D01*
X60073273Y-98113022D01*
X60254773Y-98259573D01*
X60254779Y-98259578D01*
X60458445Y-98373353D01*
X60458448Y-98373354D01*
X60678416Y-98451073D01*
X60678426Y-98451074D01*
X60683507Y-98452398D01*
X60682872Y-98454835D01*
X60736190Y-98480881D01*
X60772424Y-98540622D01*
X60770608Y-98610468D01*
X60740260Y-98660133D01*
X57920966Y-101479426D01*
X57918240Y-101481993D01*
X57871818Y-101523119D01*
X57836586Y-101574160D01*
X57834368Y-101577175D01*
X57796124Y-101625990D01*
X57796119Y-101625999D01*
X57791960Y-101635239D01*
X57780942Y-101654774D01*
X57775187Y-101663112D01*
X57775183Y-101663118D01*
X57775182Y-101663121D01*
X57775180Y-101663125D01*
X57775179Y-101663128D01*
X57753189Y-101721106D01*
X57751757Y-101724564D01*
X57726305Y-101781119D01*
X57724477Y-101791093D01*
X57718453Y-101812704D01*
X57714860Y-101822178D01*
X57714859Y-101822179D01*
X57707384Y-101883736D01*
X57706821Y-101887437D01*
X57695642Y-101948441D01*
X57695642Y-101948446D01*
X57699387Y-102010353D01*
X57699500Y-102014098D01*
X57699500Y-106191351D01*
X57679815Y-106258390D01*
X57627011Y-106304145D01*
X57557853Y-106314089D01*
X57512380Y-106298084D01*
X57509578Y-106296427D01*
X57470398Y-106273256D01*
X57470396Y-106273255D01*
X57470394Y-106273254D01*
X57312573Y-106227402D01*
X57312567Y-106227401D01*
X57275696Y-106224500D01*
X57275694Y-106224500D01*
X57109336Y-106224500D01*
X57042297Y-106204815D01*
X57021655Y-106188181D01*
X56289676Y-105456202D01*
X55504415Y-104670941D01*
X55501881Y-104668250D01*
X55460746Y-104621817D01*
X55460745Y-104621816D01*
X55460741Y-104621812D01*
X55409713Y-104586591D01*
X55406704Y-104584377D01*
X55357877Y-104546124D01*
X55357872Y-104546120D01*
X55348630Y-104541961D01*
X55329083Y-104530936D01*
X55320748Y-104525183D01*
X55320749Y-104525183D01*
X55320747Y-104525182D01*
X55262758Y-104503189D01*
X55259307Y-104501759D01*
X55202747Y-104476304D01*
X55192763Y-104474474D01*
X55171160Y-104468451D01*
X55161691Y-104464860D01*
X55161687Y-104464859D01*
X55100130Y-104457384D01*
X55096429Y-104456821D01*
X55035425Y-104445642D01*
X55035420Y-104445642D01*
X54973514Y-104449387D01*
X54969769Y-104449500D01*
X54862836Y-104449500D01*
X54795797Y-104429815D01*
X54750042Y-104377011D01*
X54740098Y-104307853D01*
X54769123Y-104244297D01*
X54827901Y-104206523D01*
X54828241Y-104206424D01*
X54896112Y-104186705D01*
X54930398Y-104176744D01*
X55071865Y-104093081D01*
X55071870Y-104093076D01*
X55078026Y-104088301D01*
X55079927Y-104090752D01*
X55128579Y-104064154D01*
X55198274Y-104069103D01*
X55230700Y-104089942D01*
X55231974Y-104088301D01*
X55238139Y-104093084D01*
X55274853Y-104114796D01*
X55379602Y-104176744D01*
X55413884Y-104186704D01*
X55537426Y-104222597D01*
X55537429Y-104222597D01*
X55537431Y-104222598D01*
X55549722Y-104223565D01*
X55574304Y-104225500D01*
X55574306Y-104225500D01*
X56005696Y-104225500D01*
X56024131Y-104224049D01*
X56042569Y-104222598D01*
X56042571Y-104222597D01*
X56042573Y-104222597D01*
X56131317Y-104196814D01*
X56200398Y-104176744D01*
X56341865Y-104093081D01*
X56458081Y-103976865D01*
X56541744Y-103835398D01*
X56587598Y-103677569D01*
X56590292Y-103643336D01*
X56590500Y-103640696D01*
X56590500Y-102791780D01*
X56592531Y-102769428D01*
X56604950Y-102701662D01*
X56609358Y-102677606D01*
X56599086Y-102507804D01*
X56596113Y-102498265D01*
X56590500Y-102461378D01*
X56590500Y-101859304D01*
X56587598Y-101822432D01*
X56587597Y-101822426D01*
X56549325Y-101690696D01*
X56541744Y-101664602D01*
X56502766Y-101598694D01*
X56485500Y-101535578D01*
X56485500Y-98483939D01*
X56505185Y-98416901D01*
X56521815Y-98396263D01*
X56719509Y-98198568D01*
X56732079Y-98188498D01*
X56731925Y-98188311D01*
X56737937Y-98183337D01*
X56737937Y-98183336D01*
X56737940Y-98183335D01*
X56787190Y-98130888D01*
X56808912Y-98109167D01*
X56813402Y-98103377D01*
X56817184Y-98098947D01*
X56850448Y-98063526D01*
X56860674Y-98044922D01*
X56871347Y-98028674D01*
X56884363Y-98011896D01*
X56903651Y-97967320D01*
X56906224Y-97962069D01*
X56906561Y-97961454D01*
X56929627Y-97919501D01*
X56934904Y-97898941D01*
X56941206Y-97880536D01*
X56949636Y-97861059D01*
X56957235Y-97813078D01*
X56958417Y-97807367D01*
X56970500Y-97760310D01*
X56970500Y-97739088D01*
X56972027Y-97719688D01*
X56975347Y-97698728D01*
X56970775Y-97650360D01*
X56970500Y-97644522D01*
X56970500Y-90855451D01*
X56990185Y-90788412D01*
X57006810Y-90767779D01*
X57133789Y-90640799D01*
X57146041Y-90630987D01*
X57145858Y-90630765D01*
X57151875Y-90625787D01*
X57151874Y-90625787D01*
X57151877Y-90625786D01*
X57182568Y-90593103D01*
X57199227Y-90575364D01*
X57209671Y-90564918D01*
X57220120Y-90554471D01*
X57224379Y-90548978D01*
X57228152Y-90544561D01*
X57260062Y-90510582D01*
X57269715Y-90493020D01*
X57280389Y-90476770D01*
X57292673Y-90460936D01*
X57311180Y-90418167D01*
X57313749Y-90412924D01*
X57321359Y-90399082D01*
X57336197Y-90372092D01*
X57341177Y-90352691D01*
X57347478Y-90334288D01*
X57355438Y-90315896D01*
X57362730Y-90269849D01*
X57363911Y-90264152D01*
X57375500Y-90219019D01*
X57375500Y-90198983D01*
X57377027Y-90179582D01*
X57378066Y-90173028D01*
X57380160Y-90159804D01*
X57375772Y-90113394D01*
X57375500Y-90107599D01*
X57375500Y-88854920D01*
X57377224Y-88839306D01*
X57376938Y-88839279D01*
X57377672Y-88831516D01*
X57375500Y-88762385D01*
X57375500Y-88732834D01*
X57375500Y-88732833D01*
X57374629Y-88725942D01*
X57374172Y-88720128D01*
X57372709Y-88673557D01*
X57372709Y-88673555D01*
X57367120Y-88654320D01*
X57363174Y-88635267D01*
X57360664Y-88615391D01*
X57343501Y-88572042D01*
X57341614Y-88566529D01*
X57328617Y-88521793D01*
X57328616Y-88521791D01*
X57318421Y-88504552D01*
X57309860Y-88487076D01*
X57302486Y-88468452D01*
X57302486Y-88468450D01*
X57292474Y-88454671D01*
X57275083Y-88430733D01*
X57271900Y-88425888D01*
X57248170Y-88385762D01*
X57248165Y-88385756D01*
X57234005Y-88371596D01*
X57221370Y-88356803D01*
X57209593Y-88340595D01*
X57173693Y-88310896D01*
X57169381Y-88306973D01*
X56449319Y-87586911D01*
X56415834Y-87525588D01*
X56413000Y-87499230D01*
X56413000Y-87284304D01*
X56411065Y-87259722D01*
X56410098Y-87247431D01*
X56404610Y-87228543D01*
X56364245Y-87089606D01*
X56364244Y-87089603D01*
X56364244Y-87089602D01*
X56280581Y-86948135D01*
X56280579Y-86948133D01*
X56280576Y-86948129D01*
X56164370Y-86831923D01*
X56164362Y-86831917D01*
X56022896Y-86748255D01*
X56022893Y-86748254D01*
X55865073Y-86702402D01*
X55865067Y-86702401D01*
X55828196Y-86699500D01*
X55828194Y-86699500D01*
X54774500Y-86699500D01*
X54707461Y-86679815D01*
X54661706Y-86627011D01*
X54650500Y-86575500D01*
X54650500Y-85340895D01*
X54652268Y-85324882D01*
X54652026Y-85324860D01*
X54652758Y-85317104D01*
X54652760Y-85317097D01*
X54650500Y-85245189D01*
X54650500Y-85214468D01*
X54649579Y-85207181D01*
X54649122Y-85201372D01*
X54647597Y-85152824D01*
X54641676Y-85132446D01*
X54637731Y-85113397D01*
X54635071Y-85092335D01*
X54617185Y-85047162D01*
X54615296Y-85041642D01*
X54601743Y-84994993D01*
X54590940Y-84976727D01*
X54582378Y-84959249D01*
X54574568Y-84939522D01*
X54574565Y-84939518D01*
X54567773Y-84930169D01*
X54546014Y-84900220D01*
X54542811Y-84895344D01*
X54531091Y-84875527D01*
X54518081Y-84853528D01*
X54518079Y-84853526D01*
X54518078Y-84853524D01*
X54503075Y-84838522D01*
X54490435Y-84823723D01*
X54477961Y-84806553D01*
X54440528Y-84775587D01*
X54436206Y-84771653D01*
X54215041Y-84550488D01*
X54204968Y-84537914D01*
X54204781Y-84538070D01*
X54199808Y-84532059D01*
X54147363Y-84482810D01*
X54125642Y-84461089D01*
X54119847Y-84456594D01*
X54115405Y-84452799D01*
X54080003Y-84419554D01*
X54079995Y-84419548D01*
X54061399Y-84409325D01*
X54045138Y-84398644D01*
X54028370Y-84385637D01*
X54004902Y-84375482D01*
X53983785Y-84366343D01*
X53978563Y-84363786D01*
X53935975Y-84340373D01*
X53935972Y-84340372D01*
X53915408Y-84335092D01*
X53897003Y-84328790D01*
X53877534Y-84320365D01*
X53877528Y-84320363D01*
X53829558Y-84312766D01*
X53823843Y-84311582D01*
X53807379Y-84307355D01*
X53776787Y-84299500D01*
X53776784Y-84299500D01*
X53755562Y-84299500D01*
X53736162Y-84297973D01*
X53715203Y-84294653D01*
X53715202Y-84294653D01*
X53691393Y-84296903D01*
X53666837Y-84299225D01*
X53660999Y-84299500D01*
X53520808Y-84299500D01*
X53453769Y-84279815D01*
X53433127Y-84263181D01*
X51686819Y-82516873D01*
X51653334Y-82455550D01*
X51650500Y-82429192D01*
X51650500Y-74554461D01*
X51670185Y-74487422D01*
X51686815Y-74466784D01*
X51881524Y-74272074D01*
X51942845Y-74238591D01*
X52012536Y-74243575D01*
G37*
%TD.AperFunction*%
%TA.AperFunction,Conductor*%
G36*
X50118333Y-88199837D02*
G01*
X50162681Y-88228338D01*
X50163181Y-88228838D01*
X50196666Y-88290161D01*
X50199500Y-88316519D01*
X50199500Y-89836951D01*
X50199387Y-89840696D01*
X50195642Y-89902603D01*
X50195642Y-89902605D01*
X50206821Y-89963612D01*
X50207384Y-89967313D01*
X50214859Y-90028870D01*
X50214860Y-90028874D01*
X50218451Y-90038343D01*
X50224474Y-90059946D01*
X50226304Y-90069930D01*
X50251759Y-90126490D01*
X50253189Y-90129941D01*
X50275182Y-90187930D01*
X50275183Y-90187931D01*
X50280936Y-90196266D01*
X50291961Y-90215813D01*
X50296120Y-90225055D01*
X50296124Y-90225060D01*
X50334371Y-90273878D01*
X50336591Y-90276896D01*
X50371812Y-90327924D01*
X50371816Y-90327928D01*
X50371817Y-90327929D01*
X50418250Y-90369064D01*
X50420941Y-90371598D01*
X51637218Y-91587875D01*
X52837162Y-92787819D01*
X52870647Y-92849142D01*
X52865663Y-92918834D01*
X52823791Y-92974767D01*
X52758327Y-92999184D01*
X52749481Y-92999500D01*
X52451663Y-92999500D01*
X52451644Y-92999501D01*
X52352292Y-93009650D01*
X52352289Y-93009651D01*
X52191305Y-93062996D01*
X52191294Y-93063001D01*
X52046959Y-93152029D01*
X52046955Y-93152032D01*
X51927032Y-93271955D01*
X51927029Y-93271959D01*
X51838001Y-93416294D01*
X51837996Y-93416305D01*
X51784651Y-93577290D01*
X51774500Y-93676647D01*
X51774500Y-94223337D01*
X51774501Y-94223355D01*
X51784650Y-94322707D01*
X51784651Y-94322710D01*
X51837996Y-94483694D01*
X51838001Y-94483705D01*
X51927029Y-94628040D01*
X51927032Y-94628044D01*
X52046955Y-94747967D01*
X52046959Y-94747970D01*
X52191294Y-94836998D01*
X52191297Y-94836999D01*
X52191303Y-94837003D01*
X52352292Y-94890349D01*
X52451655Y-94900500D01*
X53048344Y-94900499D01*
X53048352Y-94900498D01*
X53048355Y-94900498D01*
X53102760Y-94894940D01*
X53147708Y-94890349D01*
X53308697Y-94837003D01*
X53453044Y-94747968D01*
X53514193Y-94686818D01*
X53575516Y-94653334D01*
X53601874Y-94650500D01*
X53926200Y-94650500D01*
X53993239Y-94670185D01*
X53997309Y-94672915D01*
X54137419Y-94771021D01*
X54137421Y-94771022D01*
X54137420Y-94771022D01*
X54201936Y-94801106D01*
X54330970Y-94861276D01*
X54330976Y-94861277D01*
X54330977Y-94861278D01*
X54380627Y-94874581D01*
X54537253Y-94916549D01*
X54689215Y-94929844D01*
X54749998Y-94935162D01*
X54750000Y-94935162D01*
X54750002Y-94935162D01*
X54808830Y-94930015D01*
X54962747Y-94916549D01*
X55013405Y-94902975D01*
X55083252Y-94904636D01*
X55141115Y-94943798D01*
X55168621Y-95008026D01*
X55169498Y-95022749D01*
X55169499Y-96372401D01*
X55149814Y-96439440D01*
X55133180Y-96460082D01*
X52850483Y-98742778D01*
X52837910Y-98752852D01*
X52838065Y-98753039D01*
X52832059Y-98758007D01*
X52807434Y-98784230D01*
X52782809Y-98810453D01*
X52771948Y-98821313D01*
X52761088Y-98832174D01*
X52761078Y-98832186D01*
X52756587Y-98837974D01*
X52752801Y-98842406D01*
X52719552Y-98877815D01*
X52709322Y-98896422D01*
X52698646Y-98912673D01*
X52685640Y-98929441D01*
X52685636Y-98929447D01*
X52666348Y-98974020D01*
X52663777Y-98979267D01*
X52640372Y-99021839D01*
X52640372Y-99021840D01*
X52635091Y-99042408D01*
X52628791Y-99060810D01*
X52620364Y-99080282D01*
X52612766Y-99128256D01*
X52611581Y-99133979D01*
X52599500Y-99181027D01*
X52599500Y-99202253D01*
X52597973Y-99221653D01*
X52594653Y-99242612D01*
X52594652Y-99242614D01*
X52599224Y-99290978D01*
X52599499Y-99296815D01*
X52599500Y-101459484D01*
X52582232Y-101522605D01*
X52498255Y-101664603D01*
X52498254Y-101664606D01*
X52452402Y-101822426D01*
X52452401Y-101822432D01*
X52449500Y-101859304D01*
X52449500Y-102103946D01*
X52429815Y-102170985D01*
X52421355Y-102182609D01*
X52414090Y-102191461D01*
X52414086Y-102191467D01*
X52321188Y-102365266D01*
X52263975Y-102553870D01*
X52244659Y-102750000D01*
X52263975Y-102946129D01*
X52263976Y-102946132D01*
X52305655Y-103083530D01*
X52321187Y-103134730D01*
X52370017Y-103226084D01*
X52414090Y-103308538D01*
X52421350Y-103317385D01*
X52448666Y-103381691D01*
X52449500Y-103396052D01*
X52449500Y-103485500D01*
X52429815Y-103552539D01*
X52377011Y-103598294D01*
X52325500Y-103609500D01*
X48265017Y-103609500D01*
X48197978Y-103589815D01*
X48161208Y-103553321D01*
X48160697Y-103552539D01*
X48116899Y-103485500D01*
X48058983Y-103396852D01*
X48058980Y-103396849D01*
X48058979Y-103396847D01*
X47901784Y-103226087D01*
X47901779Y-103226083D01*
X47901777Y-103226081D01*
X47718634Y-103083535D01*
X47718628Y-103083531D01*
X47574628Y-103005602D01*
X47525038Y-102956382D01*
X47509930Y-102888165D01*
X47528958Y-102835716D01*
X47526687Y-102834468D01*
X47530448Y-102827626D01*
X47540674Y-102809023D01*
X47551353Y-102792766D01*
X47564362Y-102775997D01*
X47583656Y-102731408D01*
X47586212Y-102726189D01*
X47609627Y-102683601D01*
X47614905Y-102663039D01*
X47621207Y-102644632D01*
X47629635Y-102625160D01*
X47637233Y-102577186D01*
X47638414Y-102571480D01*
X47650500Y-102524410D01*
X47650500Y-102503182D01*
X47652027Y-102483782D01*
X47655346Y-102462828D01*
X47650772Y-102414449D01*
X47650500Y-102408654D01*
X47650500Y-101837030D01*
X47670185Y-101769990D01*
X47722989Y-101724236D01*
X47792147Y-101714292D01*
X47811390Y-101718645D01*
X47812804Y-101719086D01*
X47883384Y-101725500D01*
X47883387Y-101725500D01*
X48396613Y-101725500D01*
X48396616Y-101725500D01*
X48467196Y-101719086D01*
X48629606Y-101668478D01*
X48775185Y-101580472D01*
X48895472Y-101460185D01*
X48983478Y-101314606D01*
X49034086Y-101152196D01*
X49040500Y-101081616D01*
X49040500Y-100418384D01*
X49034086Y-100347804D01*
X49022737Y-100311386D01*
X49021588Y-100241528D01*
X49058389Y-100182136D01*
X49121458Y-100152068D01*
X49141124Y-100150499D01*
X49237871Y-100150499D01*
X49237872Y-100150499D01*
X49297483Y-100144091D01*
X49432331Y-100093796D01*
X49547546Y-100007546D01*
X49633796Y-99892331D01*
X49684091Y-99757483D01*
X49690500Y-99697873D01*
X49690499Y-97802128D01*
X49684091Y-97742517D01*
X49682865Y-97739231D01*
X49633797Y-97607671D01*
X49633793Y-97607664D01*
X49547547Y-97492455D01*
X49547544Y-97492452D01*
X49432335Y-97406206D01*
X49432328Y-97406202D01*
X49297482Y-97355908D01*
X49297483Y-97355908D01*
X49237883Y-97349501D01*
X49237881Y-97349500D01*
X49237873Y-97349500D01*
X49237865Y-97349500D01*
X47774500Y-97349500D01*
X47707461Y-97329815D01*
X47661706Y-97277011D01*
X47650500Y-97225500D01*
X47650500Y-95052753D01*
X47670185Y-94985714D01*
X47722989Y-94939959D01*
X47792147Y-94930015D01*
X47811382Y-94934366D01*
X47922804Y-94969086D01*
X47993384Y-94975500D01*
X47993387Y-94975500D01*
X48506613Y-94975500D01*
X48506616Y-94975500D01*
X48577196Y-94969086D01*
X48739606Y-94918478D01*
X48885185Y-94830472D01*
X49005472Y-94710185D01*
X49093478Y-94564606D01*
X49144086Y-94402196D01*
X49150500Y-94331616D01*
X49150500Y-93668384D01*
X49144086Y-93597804D01*
X49132523Y-93560699D01*
X49131374Y-93490841D01*
X49168175Y-93431449D01*
X49231244Y-93401381D01*
X49237657Y-93400522D01*
X49237871Y-93400499D01*
X49237872Y-93400499D01*
X49297483Y-93394091D01*
X49432331Y-93343796D01*
X49547546Y-93257546D01*
X49633796Y-93142331D01*
X49684091Y-93007483D01*
X49690500Y-92947873D01*
X49690499Y-91052128D01*
X49684091Y-90992517D01*
X49675636Y-90969849D01*
X49633797Y-90857671D01*
X49633793Y-90857664D01*
X49547547Y-90742455D01*
X49547544Y-90742452D01*
X49432335Y-90656206D01*
X49432328Y-90656202D01*
X49297482Y-90605908D01*
X49297483Y-90605908D01*
X49237883Y-90599501D01*
X49237881Y-90599500D01*
X49237873Y-90599500D01*
X49237864Y-90599500D01*
X47342129Y-90599500D01*
X47342123Y-90599501D01*
X47282515Y-90605909D01*
X47183182Y-90642957D01*
X47113490Y-90647941D01*
X47052169Y-90614456D01*
X46665372Y-90227659D01*
X46631887Y-90166336D01*
X46629053Y-90139978D01*
X46629053Y-88599499D01*
X46648738Y-88532460D01*
X46701542Y-88486705D01*
X46753053Y-88475499D01*
X47023338Y-88475499D01*
X47023344Y-88475499D01*
X47023352Y-88475498D01*
X47023355Y-88475498D01*
X47092331Y-88468452D01*
X47122708Y-88465349D01*
X47283697Y-88412003D01*
X47428044Y-88322968D01*
X47514192Y-88236819D01*
X47575516Y-88203334D01*
X47601874Y-88200500D01*
X48433480Y-88200500D01*
X48500519Y-88220185D01*
X48521161Y-88236819D01*
X48614811Y-88330469D01*
X48614813Y-88330470D01*
X48614815Y-88330472D01*
X48760394Y-88418478D01*
X48922804Y-88469086D01*
X48993384Y-88475500D01*
X48993387Y-88475500D01*
X49506613Y-88475500D01*
X49506616Y-88475500D01*
X49577196Y-88469086D01*
X49739606Y-88418478D01*
X49885185Y-88330472D01*
X49987320Y-88228336D01*
X50048641Y-88194853D01*
X50118333Y-88199837D01*
G37*
%TD.AperFunction*%
%TA.AperFunction,Conductor*%
G36*
X45271092Y-81950185D02*
G01*
X45316847Y-82002989D01*
X45328053Y-82054500D01*
X45328053Y-86400500D01*
X45308368Y-86467539D01*
X45255564Y-86513294D01*
X45204053Y-86524500D01*
X44926663Y-86524500D01*
X44926644Y-86524501D01*
X44827292Y-86534650D01*
X44827289Y-86534651D01*
X44666305Y-86587996D01*
X44666294Y-86588001D01*
X44521959Y-86677029D01*
X44521955Y-86677032D01*
X44402031Y-86796956D01*
X44400117Y-86800060D01*
X44387502Y-86820514D01*
X44387451Y-86820596D01*
X44335504Y-86867321D01*
X44281912Y-86879500D01*
X41722413Y-86879500D01*
X41655374Y-86859815D01*
X41616823Y-86820514D01*
X41602139Y-86796666D01*
X41580862Y-86762109D01*
X41426731Y-86586982D01*
X41426730Y-86586981D01*
X41426726Y-86586977D01*
X41245226Y-86440426D01*
X41245220Y-86440421D01*
X41041554Y-86326646D01*
X40821591Y-86248929D01*
X40821586Y-86248927D01*
X40821584Y-86248927D01*
X40821580Y-86248926D01*
X40821579Y-86248926D01*
X40591655Y-86209500D01*
X40591647Y-86209500D01*
X39966784Y-86209500D01*
X39966779Y-86209500D01*
X39792553Y-86224328D01*
X39792551Y-86224329D01*
X39566781Y-86283114D01*
X39354197Y-86379208D01*
X39259698Y-86443078D01*
X39193132Y-86464310D01*
X39125655Y-86446183D01*
X39078689Y-86394452D01*
X39066261Y-86340343D01*
X39066261Y-85182050D01*
X39066261Y-83970099D01*
X39085945Y-83903064D01*
X39138748Y-83857309D01*
X39207907Y-83847365D01*
X39229264Y-83852397D01*
X39252203Y-83859999D01*
X39354991Y-83870500D01*
X41145008Y-83870499D01*
X41247797Y-83859999D01*
X41414334Y-83804814D01*
X41563656Y-83712712D01*
X41687712Y-83588656D01*
X41779814Y-83439334D01*
X41834999Y-83272797D01*
X41845500Y-83170009D01*
X41845499Y-82054499D01*
X41865184Y-81987461D01*
X41917987Y-81941706D01*
X41969499Y-81930500D01*
X45204053Y-81930500D01*
X45271092Y-81950185D01*
G37*
%TD.AperFunction*%
%TA.AperFunction,Conductor*%
G36*
X50268834Y-78253626D02*
G01*
X50324767Y-78295498D01*
X50349184Y-78360962D01*
X50349500Y-78369808D01*
X50349500Y-82664494D01*
X50347732Y-82680505D01*
X50347974Y-82680528D01*
X50347240Y-82688294D01*
X50349500Y-82760203D01*
X50349500Y-82790920D01*
X50349501Y-82790940D01*
X50350418Y-82798206D01*
X50350876Y-82804024D01*
X50352402Y-82852567D01*
X50352403Y-82852570D01*
X50358323Y-82872948D01*
X50362268Y-82891996D01*
X50364928Y-82913054D01*
X50364931Y-82913064D01*
X50382813Y-82958230D01*
X50384705Y-82963758D01*
X50398254Y-83010395D01*
X50398255Y-83010397D01*
X50409060Y-83028666D01*
X50417617Y-83046134D01*
X50423226Y-83060300D01*
X50425432Y-83065872D01*
X50453983Y-83105170D01*
X50457188Y-83110049D01*
X50481919Y-83151865D01*
X50481923Y-83151869D01*
X50496925Y-83166871D01*
X50509563Y-83181669D01*
X50522033Y-83198833D01*
X50522036Y-83198836D01*
X50522037Y-83198837D01*
X50559476Y-83229809D01*
X50563776Y-83233722D01*
X51593235Y-84263181D01*
X52074566Y-84744512D01*
X52108051Y-84805835D01*
X52103067Y-84875527D01*
X52065867Y-84926118D01*
X52066151Y-84926402D01*
X52064295Y-84928257D01*
X52062890Y-84930169D01*
X52060633Y-84931919D01*
X51944423Y-85048129D01*
X51944417Y-85048137D01*
X51860755Y-85189603D01*
X51860754Y-85189606D01*
X51814902Y-85347426D01*
X51814901Y-85347432D01*
X51812000Y-85384304D01*
X51812000Y-85725500D01*
X51792315Y-85792539D01*
X51739511Y-85838294D01*
X51688000Y-85849500D01*
X50223048Y-85849500D01*
X50219303Y-85849387D01*
X50157396Y-85845642D01*
X50157389Y-85845642D01*
X50096386Y-85856821D01*
X50092685Y-85857384D01*
X50031128Y-85864859D01*
X50031121Y-85864861D01*
X50021647Y-85868454D01*
X50000049Y-85874475D01*
X49990068Y-85876305D01*
X49990063Y-85876306D01*
X49933505Y-85901761D01*
X49930046Y-85903193D01*
X49872070Y-85925181D01*
X49872066Y-85925184D01*
X49863723Y-85930942D01*
X49844188Y-85941960D01*
X49834948Y-85946119D01*
X49834939Y-85946124D01*
X49786124Y-85984368D01*
X49783109Y-85986586D01*
X49732068Y-86021818D01*
X49690942Y-86068240D01*
X49688375Y-86070966D01*
X49271162Y-86488181D01*
X49209839Y-86521666D01*
X49183481Y-86524500D01*
X48993384Y-86524500D01*
X48974145Y-86526248D01*
X48922807Y-86530913D01*
X48760393Y-86581522D01*
X48614811Y-86669530D01*
X48614810Y-86669531D01*
X48521161Y-86763181D01*
X48459838Y-86796666D01*
X48433480Y-86799500D01*
X47601874Y-86799500D01*
X47534835Y-86779815D01*
X47514193Y-86763181D01*
X47428044Y-86677032D01*
X47428040Y-86677029D01*
X47283705Y-86588001D01*
X47283699Y-86587998D01*
X47283697Y-86587997D01*
X47237509Y-86572692D01*
X47122709Y-86534651D01*
X47023352Y-86524500D01*
X47023345Y-86524500D01*
X46753053Y-86524500D01*
X46686014Y-86504815D01*
X46640259Y-86452011D01*
X46629053Y-86400500D01*
X46629053Y-81842255D01*
X46648738Y-81775216D01*
X46665372Y-81754574D01*
X50137819Y-78282127D01*
X50199142Y-78248642D01*
X50268834Y-78253626D01*
G37*
%TD.AperFunction*%
%TA.AperFunction,Conductor*%
G36*
X55755039Y-65420185D02*
G01*
X55800794Y-65472989D01*
X55812000Y-65524500D01*
X55812000Y-65615696D01*
X55814901Y-65652567D01*
X55814902Y-65652573D01*
X55860754Y-65810393D01*
X55860755Y-65810396D01*
X55860756Y-65810398D01*
X55896082Y-65870132D01*
X55944232Y-65951550D01*
X55944418Y-65951864D01*
X55944423Y-65951870D01*
X56060629Y-66068076D01*
X56060633Y-66068079D01*
X56060635Y-66068081D01*
X56060638Y-66068082D01*
X56060641Y-66068085D01*
X56178879Y-66138010D01*
X56226563Y-66189078D01*
X56239067Y-66257820D01*
X56212422Y-66322410D01*
X56180857Y-66350280D01*
X56096956Y-66402031D01*
X55977032Y-66521955D01*
X55977029Y-66521959D01*
X55888001Y-66666294D01*
X55887996Y-66666305D01*
X55834651Y-66827290D01*
X55824500Y-66926647D01*
X55824500Y-66950781D01*
X55819161Y-66986775D01*
X55813975Y-67003868D01*
X55794659Y-67200000D01*
X55813975Y-67396126D01*
X55813977Y-67396139D01*
X55819161Y-67413227D01*
X55824500Y-67449214D01*
X55824500Y-67473335D01*
X55824501Y-67473356D01*
X55834650Y-67572707D01*
X55834651Y-67572710D01*
X55887996Y-67733694D01*
X55888001Y-67733705D01*
X55977029Y-67878040D01*
X55977032Y-67878044D01*
X56096955Y-67997967D01*
X56096959Y-67997970D01*
X56241294Y-68086998D01*
X56241297Y-68086999D01*
X56241303Y-68087003D01*
X56402292Y-68140349D01*
X56465002Y-68146754D01*
X56467275Y-68146987D01*
X56490671Y-68151685D01*
X56603866Y-68186024D01*
X56636142Y-68189202D01*
X56800000Y-68205341D01*
X56996132Y-68186024D01*
X57109335Y-68151683D01*
X57132728Y-68146986D01*
X57197708Y-68140349D01*
X57358697Y-68087003D01*
X57503044Y-67997968D01*
X57614192Y-67886819D01*
X57675516Y-67853334D01*
X57701874Y-67850500D01*
X57768365Y-67850500D01*
X57835404Y-67870185D01*
X57881159Y-67922989D01*
X57891103Y-67992147D01*
X57862078Y-68055703D01*
X57856046Y-68062181D01*
X55367679Y-70550546D01*
X55306356Y-70584031D01*
X55236664Y-70579047D01*
X55180731Y-70537175D01*
X55167616Y-70515271D01*
X55140568Y-70457266D01*
X55010047Y-70270861D01*
X55010045Y-70270858D01*
X54849141Y-70109954D01*
X54662734Y-69979432D01*
X54662728Y-69979429D01*
X54604725Y-69952382D01*
X54552285Y-69906210D01*
X54533133Y-69839017D01*
X54553348Y-69772135D01*
X54604725Y-69727618D01*
X54611800Y-69724319D01*
X54662734Y-69700568D01*
X54849139Y-69570047D01*
X55010047Y-69409139D01*
X55140568Y-69222734D01*
X55236739Y-69016496D01*
X55295635Y-68796692D01*
X55315468Y-68570000D01*
X55295635Y-68343308D01*
X55236739Y-68123504D01*
X55140568Y-67917266D01*
X55010047Y-67730861D01*
X55010045Y-67730858D01*
X54849141Y-67569954D01*
X54662734Y-67439432D01*
X54662728Y-67439429D01*
X54635038Y-67426517D01*
X54604724Y-67412381D01*
X54552285Y-67366210D01*
X54533133Y-67299017D01*
X54553348Y-67232135D01*
X54604725Y-67187618D01*
X54606055Y-67186998D01*
X54662734Y-67160568D01*
X54849139Y-67030047D01*
X55010047Y-66869139D01*
X55140568Y-66682734D01*
X55236739Y-66476496D01*
X55295635Y-66256692D01*
X55315468Y-66030000D01*
X55315175Y-66026655D01*
X55309801Y-65965230D01*
X55295635Y-65803308D01*
X55236739Y-65583504D01*
X55236737Y-65583501D01*
X55236736Y-65583496D01*
X55233661Y-65576902D01*
X55223170Y-65507824D01*
X55251692Y-65444041D01*
X55310169Y-65405803D01*
X55346044Y-65400500D01*
X55688000Y-65400500D01*
X55755039Y-65420185D01*
G37*
%TD.AperFunction*%
%TA.AperFunction,Conductor*%
G36*
X51105985Y-61902852D02*
G01*
X51145915Y-61960187D01*
X51152317Y-61999515D01*
X51152317Y-63126374D01*
X51132632Y-63193413D01*
X51115998Y-63214055D01*
X50261358Y-64068694D01*
X50200035Y-64102179D01*
X50130343Y-64097195D01*
X50074410Y-64055323D01*
X50049993Y-63989859D01*
X50050059Y-63971285D01*
X50050500Y-63965694D01*
X50050500Y-62809306D01*
X50049938Y-62802171D01*
X50047598Y-62772432D01*
X50047597Y-62772426D01*
X50001745Y-62614606D01*
X50001744Y-62614603D01*
X50001744Y-62614602D01*
X49918081Y-62473135D01*
X49914110Y-62466420D01*
X49915928Y-62465344D01*
X49894381Y-62410468D01*
X49908059Y-62341950D01*
X49956609Y-62291704D01*
X50017895Y-62275500D01*
X50415696Y-62275500D01*
X50434131Y-62274049D01*
X50452569Y-62272598D01*
X50452571Y-62272597D01*
X50452573Y-62272597D01*
X50543871Y-62246072D01*
X50610398Y-62226744D01*
X50751865Y-62143081D01*
X50868081Y-62026865D01*
X50921585Y-61936393D01*
X50972654Y-61888711D01*
X51041395Y-61876207D01*
X51105985Y-61902852D01*
G37*
%TD.AperFunction*%
%TA.AperFunction,Conductor*%
G36*
X50842539Y-57757685D02*
G01*
X50888294Y-57810489D01*
X50899500Y-57862000D01*
X50899500Y-58258481D01*
X50879815Y-58325520D01*
X50863181Y-58346162D01*
X50633662Y-58575681D01*
X50572339Y-58609166D01*
X50545981Y-58612000D01*
X50224500Y-58612000D01*
X50157461Y-58592315D01*
X50111706Y-58539511D01*
X50100500Y-58488000D01*
X50100500Y-57862000D01*
X50120185Y-57794961D01*
X50172989Y-57749206D01*
X50224500Y-57738000D01*
X50775500Y-57738000D01*
X50842539Y-57757685D01*
G37*
%TD.AperFunction*%
%TA.AperFunction,Conductor*%
G36*
X77432539Y-45030185D02*
G01*
X77478294Y-45082989D01*
X77489500Y-45134500D01*
X77489500Y-142365500D01*
X77469815Y-142432539D01*
X77417011Y-142478294D01*
X77365500Y-142489500D01*
X35134500Y-142489500D01*
X35067461Y-142469815D01*
X35021706Y-142417011D01*
X35010500Y-142365500D01*
X35010500Y-94698366D01*
X36461403Y-94698366D01*
X36472582Y-94759373D01*
X36473145Y-94763074D01*
X36480620Y-94824631D01*
X36480621Y-94824635D01*
X36484212Y-94834104D01*
X36490235Y-94855707D01*
X36492065Y-94865691D01*
X36517520Y-94922251D01*
X36518950Y-94925702D01*
X36540943Y-94983691D01*
X36545587Y-94990418D01*
X36546697Y-94992027D01*
X36557722Y-95011574D01*
X36561881Y-95020816D01*
X36561885Y-95020821D01*
X36600132Y-95069639D01*
X36602352Y-95072657D01*
X36637573Y-95123685D01*
X36637577Y-95123689D01*
X36637578Y-95123690D01*
X36684011Y-95164825D01*
X36686702Y-95167359D01*
X37730615Y-96211272D01*
X38695493Y-97176150D01*
X38728978Y-97237473D01*
X38726377Y-97300140D01*
X38680416Y-97450221D01*
X38650784Y-97681624D01*
X38660685Y-97914700D01*
X38660686Y-97914709D01*
X38709836Y-98142766D01*
X38709837Y-98142769D01*
X38796819Y-98359231D01*
X38796821Y-98359235D01*
X38919138Y-98557891D01*
X39073269Y-98733018D01*
X39073270Y-98733019D01*
X39073273Y-98733022D01*
X39254773Y-98879573D01*
X39254779Y-98879578D01*
X39458445Y-98993353D01*
X39458448Y-98993354D01*
X39678416Y-99071073D01*
X39806725Y-99093074D01*
X39908344Y-99110499D01*
X39908353Y-99110500D01*
X40533221Y-99110500D01*
X40707446Y-99095671D01*
X40707446Y-99095670D01*
X40707453Y-99095670D01*
X40933219Y-99036885D01*
X41145802Y-98940792D01*
X41339088Y-98810153D01*
X41507516Y-98648728D01*
X41646240Y-98461161D01*
X41751270Y-98252847D01*
X41819583Y-98029780D01*
X41849216Y-97798376D01*
X41839314Y-97565293D01*
X41790164Y-97337235D01*
X41703179Y-97120765D01*
X41580862Y-96922109D01*
X41426731Y-96746982D01*
X41426729Y-96746980D01*
X41426726Y-96746977D01*
X41245226Y-96600426D01*
X41245220Y-96600421D01*
X41041554Y-96486646D01*
X40821591Y-96408929D01*
X40821586Y-96408927D01*
X40821584Y-96408927D01*
X40821580Y-96408926D01*
X40821579Y-96408926D01*
X40591655Y-96369500D01*
X40591647Y-96369500D01*
X39966784Y-96369500D01*
X39966779Y-96369500D01*
X39935173Y-96372190D01*
X39866705Y-96358262D01*
X39836975Y-96336318D01*
X37902580Y-94401923D01*
X37869095Y-94340600D01*
X37866261Y-94314242D01*
X37866261Y-91566279D01*
X37885946Y-91499240D01*
X37938750Y-91453485D01*
X38007908Y-91443541D01*
X38071464Y-91472566D01*
X38077942Y-91478598D01*
X38695493Y-92096149D01*
X38728978Y-92157472D01*
X38726377Y-92220139D01*
X38680416Y-92370221D01*
X38650784Y-92601624D01*
X38660685Y-92834700D01*
X38660686Y-92834709D01*
X38709836Y-93062766D01*
X38709837Y-93062769D01*
X38793896Y-93271956D01*
X38796821Y-93279235D01*
X38919138Y-93477891D01*
X39073269Y-93653018D01*
X39073270Y-93653019D01*
X39073273Y-93653022D01*
X39254773Y-93799573D01*
X39254779Y-93799578D01*
X39458445Y-93913353D01*
X39458448Y-93913354D01*
X39678416Y-93991073D01*
X39806725Y-94013074D01*
X39908344Y-94030499D01*
X39908353Y-94030500D01*
X40533221Y-94030500D01*
X40707446Y-94015671D01*
X40707446Y-94015670D01*
X40707453Y-94015670D01*
X40933219Y-93956885D01*
X41145802Y-93860792D01*
X41339088Y-93730153D01*
X41507516Y-93568728D01*
X41624346Y-93410763D01*
X41680035Y-93368571D01*
X41724040Y-93360500D01*
X43818481Y-93360500D01*
X43885520Y-93380185D01*
X43906162Y-93396819D01*
X45013181Y-94503837D01*
X45046666Y-94565160D01*
X45049500Y-94591518D01*
X45049500Y-97462773D01*
X45029815Y-97529812D01*
X44984527Y-97571823D01*
X44981377Y-97573527D01*
X44981365Y-97573535D01*
X44798222Y-97716081D01*
X44798219Y-97716084D01*
X44798216Y-97716086D01*
X44798216Y-97716087D01*
X44773886Y-97742517D01*
X44641016Y-97886852D01*
X44514075Y-98081151D01*
X44420842Y-98293699D01*
X44363866Y-98518691D01*
X44363864Y-98518702D01*
X44344700Y-98749993D01*
X44344700Y-98750006D01*
X44363864Y-98981297D01*
X44363866Y-98981308D01*
X44420842Y-99206300D01*
X44514075Y-99418848D01*
X44641016Y-99613147D01*
X44641019Y-99613151D01*
X44641021Y-99613153D01*
X44798216Y-99783913D01*
X44798219Y-99783915D01*
X44798222Y-99783918D01*
X44981365Y-99926464D01*
X44981371Y-99926468D01*
X44981374Y-99926470D01*
X45185497Y-100036936D01*
X45299487Y-100076068D01*
X45405015Y-100112297D01*
X45405017Y-100112297D01*
X45405019Y-100112298D01*
X45633951Y-100150500D01*
X45633952Y-100150500D01*
X45866048Y-100150500D01*
X45866049Y-100150500D01*
X46094981Y-100112298D01*
X46185237Y-100081312D01*
X46255035Y-100078163D01*
X46315457Y-100113249D01*
X46347317Y-100175431D01*
X46349500Y-100198594D01*
X46349500Y-102121424D01*
X46329815Y-102188463D01*
X46313181Y-102209105D01*
X44300483Y-104221802D01*
X44287910Y-104231876D01*
X44288065Y-104232063D01*
X44282059Y-104237031D01*
X44257434Y-104263254D01*
X44232809Y-104289477D01*
X44221948Y-104300337D01*
X44211088Y-104311198D01*
X44211078Y-104311210D01*
X44206587Y-104316998D01*
X44202801Y-104321430D01*
X44169552Y-104356839D01*
X44159322Y-104375446D01*
X44148646Y-104391697D01*
X44135640Y-104408465D01*
X44135636Y-104408471D01*
X44116348Y-104453044D01*
X44113777Y-104458291D01*
X44090372Y-104500863D01*
X44090372Y-104500864D01*
X44085091Y-104521432D01*
X44078791Y-104539834D01*
X44070364Y-104559306D01*
X44062766Y-104607280D01*
X44061581Y-104613003D01*
X44049500Y-104660051D01*
X44049500Y-104681277D01*
X44047973Y-104700676D01*
X44044653Y-104721638D01*
X44049225Y-104770000D01*
X44049500Y-104775839D01*
X44049500Y-105788510D01*
X44029815Y-105855549D01*
X43995194Y-105889234D01*
X43995718Y-105889903D01*
X43989811Y-105894530D01*
X43869530Y-106014811D01*
X43781522Y-106160393D01*
X43730913Y-106322807D01*
X43725782Y-106379275D01*
X43725647Y-106380768D01*
X43724500Y-106393386D01*
X43724500Y-106906613D01*
X43730913Y-106977192D01*
X43730913Y-106977194D01*
X43730914Y-106977196D01*
X43747354Y-107029954D01*
X43781522Y-107139606D01*
X43869530Y-107285188D01*
X43989811Y-107405469D01*
X43989813Y-107405470D01*
X43989815Y-107405472D01*
X44135394Y-107493478D01*
X44297804Y-107544086D01*
X44368384Y-107550500D01*
X44368387Y-107550500D01*
X45031613Y-107550500D01*
X45031616Y-107550500D01*
X45102196Y-107544086D01*
X45264606Y-107493478D01*
X45361352Y-107434992D01*
X45428905Y-107417156D01*
X45495379Y-107438673D01*
X45539667Y-107492713D01*
X45549501Y-107541109D01*
X45549501Y-107747876D01*
X45555908Y-107807483D01*
X45606202Y-107942328D01*
X45606206Y-107942335D01*
X45692452Y-108057544D01*
X45692455Y-108057547D01*
X45807664Y-108143793D01*
X45807671Y-108143797D01*
X45942517Y-108194091D01*
X45942516Y-108194091D01*
X45949444Y-108194835D01*
X46002127Y-108200500D01*
X47897872Y-108200499D01*
X47957483Y-108194091D01*
X48092331Y-108143796D01*
X48207546Y-108057546D01*
X48293796Y-107942331D01*
X48344091Y-107807483D01*
X48350500Y-107747873D01*
X48350499Y-105852128D01*
X48344091Y-105792517D01*
X48343294Y-105790381D01*
X48293797Y-105657671D01*
X48293793Y-105657664D01*
X48207547Y-105542455D01*
X48207544Y-105542452D01*
X48092335Y-105456206D01*
X48092328Y-105456202D01*
X48012094Y-105426277D01*
X47956160Y-105384406D01*
X47931743Y-105318941D01*
X47946595Y-105250668D01*
X47964190Y-105226121D01*
X48058979Y-105123153D01*
X48161209Y-104966678D01*
X48214354Y-104921322D01*
X48265017Y-104910500D01*
X50286435Y-104910500D01*
X50353474Y-104930185D01*
X50399229Y-104982989D01*
X50409838Y-105046654D01*
X50399659Y-105150000D01*
X50418975Y-105346133D01*
X50424159Y-105363217D01*
X50429500Y-105399217D01*
X50429500Y-105406613D01*
X50435913Y-105477192D01*
X50435913Y-105477194D01*
X50435914Y-105477196D01*
X50486522Y-105639606D01*
X50497438Y-105657664D01*
X50574530Y-105785188D01*
X50676661Y-105887319D01*
X50710146Y-105948642D01*
X50705162Y-106018334D01*
X50676661Y-106062681D01*
X50574531Y-106164810D01*
X50574530Y-106164811D01*
X50486522Y-106310393D01*
X50435913Y-106472807D01*
X50429500Y-106543386D01*
X50429500Y-107056613D01*
X50435913Y-107127192D01*
X50435913Y-107127194D01*
X50435914Y-107127196D01*
X50485144Y-107285185D01*
X50486522Y-107289606D01*
X50574530Y-107435188D01*
X50694811Y-107555469D01*
X50694813Y-107555470D01*
X50694815Y-107555472D01*
X50840394Y-107643478D01*
X51002804Y-107694086D01*
X51073384Y-107700500D01*
X51073387Y-107700500D01*
X51736613Y-107700500D01*
X51736616Y-107700500D01*
X51807196Y-107694086D01*
X51969606Y-107643478D01*
X52115185Y-107555472D01*
X52235472Y-107435185D01*
X52235473Y-107435182D01*
X52237817Y-107432839D01*
X52299140Y-107399354D01*
X52368832Y-107404338D01*
X52424766Y-107446209D01*
X52449183Y-107511673D01*
X52449499Y-107520520D01*
X52449500Y-108590696D01*
X52452401Y-108627567D01*
X52452402Y-108627573D01*
X52498254Y-108785392D01*
X52498259Y-108785405D01*
X52532231Y-108842849D01*
X52549499Y-108905969D01*
X52549499Y-108997658D01*
X52529814Y-109064697D01*
X52490598Y-109103195D01*
X52451958Y-109127029D01*
X52332029Y-109246959D01*
X52243001Y-109391294D01*
X52242996Y-109391305D01*
X52189651Y-109552290D01*
X52179500Y-109651647D01*
X52179500Y-110198337D01*
X52179501Y-110198355D01*
X52189650Y-110297707D01*
X52189651Y-110297710D01*
X52242996Y-110458694D01*
X52243001Y-110458705D01*
X52332029Y-110603040D01*
X52332032Y-110603044D01*
X52451955Y-110722967D01*
X52451959Y-110722970D01*
X52596294Y-110811998D01*
X52596297Y-110811999D01*
X52596303Y-110812003D01*
X52757292Y-110865349D01*
X52856655Y-110875500D01*
X53453344Y-110875499D01*
X53453352Y-110875498D01*
X53453355Y-110875498D01*
X53507760Y-110869940D01*
X53552708Y-110865349D01*
X53713697Y-110812003D01*
X53858044Y-110722968D01*
X53942321Y-110638690D01*
X54003640Y-110605208D01*
X54073332Y-110610192D01*
X54117680Y-110638692D01*
X54201956Y-110722968D01*
X54201958Y-110722969D01*
X54201959Y-110722970D01*
X54346294Y-110811998D01*
X54346297Y-110811999D01*
X54346303Y-110812003D01*
X54507292Y-110865349D01*
X54606655Y-110875500D01*
X55203344Y-110875499D01*
X55203352Y-110875498D01*
X55203355Y-110875498D01*
X55257760Y-110869940D01*
X55302708Y-110865349D01*
X55463697Y-110812003D01*
X55608044Y-110722968D01*
X55727968Y-110603044D01*
X55799463Y-110487132D01*
X55851409Y-110440411D01*
X55920372Y-110429188D01*
X55984454Y-110457032D01*
X56010535Y-110487130D01*
X56061651Y-110570001D01*
X56082033Y-110603045D01*
X56201955Y-110722967D01*
X56201959Y-110722970D01*
X56346294Y-110811998D01*
X56346297Y-110811999D01*
X56346303Y-110812003D01*
X56507292Y-110865349D01*
X56570002Y-110871754D01*
X56572275Y-110871987D01*
X56595671Y-110876685D01*
X56708866Y-110911024D01*
X56744036Y-110914487D01*
X56905000Y-110930341D01*
X57101132Y-110911024D01*
X57214335Y-110876683D01*
X57237728Y-110871986D01*
X57302708Y-110865349D01*
X57463697Y-110812003D01*
X57510404Y-110783193D01*
X57577794Y-110764753D01*
X57644458Y-110785675D01*
X57689228Y-110839316D01*
X57699500Y-110888732D01*
X57699500Y-111008481D01*
X57679815Y-111075520D01*
X57663181Y-111096162D01*
X56996162Y-111763181D01*
X56934839Y-111796666D01*
X56908481Y-111799500D01*
X49174500Y-111799500D01*
X49107461Y-111779815D01*
X49061706Y-111727011D01*
X49050500Y-111675500D01*
X49050500Y-111668386D01*
X49044086Y-111597807D01*
X49044086Y-111597804D01*
X48993478Y-111435394D01*
X48905472Y-111289815D01*
X48905470Y-111289813D01*
X48905469Y-111289811D01*
X48785188Y-111169530D01*
X48774384Y-111162999D01*
X48639606Y-111081522D01*
X48477196Y-111030914D01*
X48477194Y-111030913D01*
X48477192Y-111030913D01*
X48427778Y-111026423D01*
X48406616Y-111024500D01*
X47893384Y-111024500D01*
X47874145Y-111026248D01*
X47822807Y-111030913D01*
X47660393Y-111081522D01*
X47514811Y-111169530D01*
X47514810Y-111169531D01*
X47412681Y-111271661D01*
X47351358Y-111305146D01*
X47281666Y-111300162D01*
X47237319Y-111271661D01*
X47135188Y-111169530D01*
X47124384Y-111162999D01*
X46989606Y-111081522D01*
X46827196Y-111030914D01*
X46827194Y-111030913D01*
X46827192Y-111030913D01*
X46777778Y-111026423D01*
X46756616Y-111024500D01*
X46243384Y-111024500D01*
X46224145Y-111026248D01*
X46172807Y-111030913D01*
X46010393Y-111081522D01*
X45864811Y-111169530D01*
X45864811Y-111169531D01*
X45821163Y-111213180D01*
X45759840Y-111246666D01*
X45733481Y-111249500D01*
X45484105Y-111249500D01*
X45419008Y-111231038D01*
X45366286Y-111198518D01*
X45308701Y-111162999D01*
X45308698Y-111162997D01*
X45308697Y-111162997D01*
X45308694Y-111162996D01*
X45147709Y-111109651D01*
X45048346Y-111099500D01*
X44451662Y-111099500D01*
X44451644Y-111099501D01*
X44352292Y-111109650D01*
X44352289Y-111109651D01*
X44191305Y-111162996D01*
X44191294Y-111163001D01*
X44046958Y-111252029D01*
X44046029Y-111252765D01*
X44045270Y-111253070D01*
X44040809Y-111255823D01*
X44040338Y-111255060D01*
X43981234Y-111278907D01*
X43969117Y-111279500D01*
X41652220Y-111279500D01*
X41585181Y-111259815D01*
X41559137Y-111237424D01*
X41426730Y-111086981D01*
X41426726Y-111086977D01*
X41245226Y-110940426D01*
X41245220Y-110940421D01*
X41041554Y-110826646D01*
X40821591Y-110748929D01*
X40821586Y-110748927D01*
X40821584Y-110748927D01*
X40821580Y-110748926D01*
X40821579Y-110748926D01*
X40591655Y-110709500D01*
X40591647Y-110709500D01*
X39966784Y-110709500D01*
X39966779Y-110709500D01*
X39792553Y-110724328D01*
X39792551Y-110724329D01*
X39566781Y-110783114D01*
X39354197Y-110879208D01*
X39243937Y-110953731D01*
X39177371Y-110974963D01*
X39109894Y-110956836D01*
X39062929Y-110905105D01*
X39050500Y-110850996D01*
X39050500Y-108234132D01*
X39070185Y-108167093D01*
X39122989Y-108121338D01*
X39192147Y-108111394D01*
X39250328Y-108136755D01*
X39250415Y-108136628D01*
X39251102Y-108137092D01*
X39252404Y-108137660D01*
X39254776Y-108139575D01*
X39254779Y-108139578D01*
X39458445Y-108253353D01*
X39467910Y-108256697D01*
X39678416Y-108331073D01*
X39806725Y-108353074D01*
X39908344Y-108370499D01*
X39908353Y-108370500D01*
X40533221Y-108370500D01*
X40707446Y-108355671D01*
X40707446Y-108355670D01*
X40707453Y-108355670D01*
X40933219Y-108296885D01*
X41145802Y-108200792D01*
X41339088Y-108070153D01*
X41507516Y-107908728D01*
X41646240Y-107721161D01*
X41751270Y-107512847D01*
X41819583Y-107289780D01*
X41849216Y-107058376D01*
X41839314Y-106825293D01*
X41790164Y-106597235D01*
X41703179Y-106380765D01*
X41580862Y-106182109D01*
X41426731Y-106006982D01*
X41426729Y-106006980D01*
X41426726Y-106006977D01*
X41245226Y-105860426D01*
X41245220Y-105860421D01*
X41041554Y-105746646D01*
X40821591Y-105668929D01*
X40821586Y-105668927D01*
X40821584Y-105668927D01*
X40821580Y-105668926D01*
X40821579Y-105668926D01*
X40591655Y-105629500D01*
X40591647Y-105629500D01*
X39966784Y-105629500D01*
X39966779Y-105629500D01*
X39792553Y-105644328D01*
X39792551Y-105644329D01*
X39566781Y-105703114D01*
X39354197Y-105799208D01*
X39160911Y-105929847D01*
X39160909Y-105929849D01*
X38992483Y-106091272D01*
X38992482Y-106091273D01*
X38949614Y-106149235D01*
X38893924Y-106191429D01*
X38849919Y-106199500D01*
X38495194Y-106199500D01*
X38314806Y-106199500D01*
X38308888Y-106200850D01*
X38274089Y-106208791D01*
X38267235Y-106209955D01*
X38225744Y-106214632D01*
X38186341Y-106228419D01*
X38179659Y-106230344D01*
X38138939Y-106239639D01*
X38101320Y-106257755D01*
X38094895Y-106260416D01*
X38055483Y-106274208D01*
X38055476Y-106274212D01*
X38020120Y-106296427D01*
X38014033Y-106299791D01*
X37976410Y-106317910D01*
X37943769Y-106343941D01*
X37938096Y-106347966D01*
X37902739Y-106370183D01*
X37853311Y-106419609D01*
X37853307Y-106419615D01*
X37747738Y-106525184D01*
X37620186Y-106652735D01*
X37620183Y-106652739D01*
X37597966Y-106688096D01*
X37593941Y-106693769D01*
X37567910Y-106726410D01*
X37549791Y-106764033D01*
X37546427Y-106770120D01*
X37524212Y-106805476D01*
X37524208Y-106805483D01*
X37510416Y-106844895D01*
X37507755Y-106851320D01*
X37489639Y-106888939D01*
X37480344Y-106929659D01*
X37478419Y-106936341D01*
X37464632Y-106975744D01*
X37459955Y-107017235D01*
X37458791Y-107024089D01*
X37449500Y-107064806D01*
X37449500Y-137215851D01*
X37449501Y-137215860D01*
X37458791Y-137256568D01*
X37459955Y-137263423D01*
X37464632Y-137304919D01*
X37478420Y-137344322D01*
X37480345Y-137351005D01*
X37489639Y-137391721D01*
X37507759Y-137429348D01*
X37510421Y-137435774D01*
X37524212Y-137475185D01*
X37546422Y-137510532D01*
X37549787Y-137516619D01*
X37567910Y-137554249D01*
X37593940Y-137586889D01*
X37597966Y-137592564D01*
X37620181Y-137627918D01*
X37620184Y-137627922D01*
X37652173Y-137659912D01*
X37652174Y-137659912D01*
X37669612Y-137677351D01*
X37669615Y-137677353D01*
X38665700Y-138673438D01*
X38699185Y-138734761D01*
X38696584Y-138797428D01*
X38680416Y-138850221D01*
X38650784Y-139081624D01*
X38660685Y-139314700D01*
X38660686Y-139314709D01*
X38709836Y-139542766D01*
X38709837Y-139542769D01*
X38796819Y-139759231D01*
X38796821Y-139759235D01*
X38919138Y-139957891D01*
X38999083Y-140048726D01*
X39073270Y-140133019D01*
X39073273Y-140133022D01*
X39254773Y-140279573D01*
X39254779Y-140279578D01*
X39458445Y-140393353D01*
X39458448Y-140393354D01*
X39678416Y-140471073D01*
X39806725Y-140493074D01*
X39908344Y-140510499D01*
X39908353Y-140510500D01*
X40533221Y-140510500D01*
X40707446Y-140495671D01*
X40707446Y-140495670D01*
X40707453Y-140495670D01*
X40933219Y-140436885D01*
X41145802Y-140340792D01*
X41339088Y-140210153D01*
X41507516Y-140048728D01*
X41646240Y-139861161D01*
X41751270Y-139652847D01*
X41819583Y-139429780D01*
X41849216Y-139198376D01*
X41839314Y-138965293D01*
X41790164Y-138737235D01*
X41703179Y-138520765D01*
X41580862Y-138322109D01*
X41426731Y-138146982D01*
X41426729Y-138146980D01*
X41426726Y-138146977D01*
X41245226Y-138000426D01*
X41245220Y-138000421D01*
X41041554Y-137886646D01*
X40821591Y-137808929D01*
X40821586Y-137808927D01*
X40821584Y-137808927D01*
X40821580Y-137808926D01*
X40821579Y-137808926D01*
X40591655Y-137769500D01*
X40591647Y-137769500D01*
X40077280Y-137769500D01*
X40010241Y-137749815D01*
X39989599Y-137733181D01*
X39086819Y-136830401D01*
X39053334Y-136769078D01*
X39050500Y-136742720D01*
X39050500Y-133604132D01*
X39070185Y-133537093D01*
X39122989Y-133491338D01*
X39192147Y-133481394D01*
X39250328Y-133506755D01*
X39250415Y-133506628D01*
X39251102Y-133507092D01*
X39252404Y-133507660D01*
X39254776Y-133509575D01*
X39254779Y-133509578D01*
X39458445Y-133623353D01*
X39458448Y-133623354D01*
X39678416Y-133701073D01*
X39806725Y-133723074D01*
X39908344Y-133740499D01*
X39908353Y-133740500D01*
X40533221Y-133740500D01*
X40707446Y-133725671D01*
X40707446Y-133725670D01*
X40707453Y-133725670D01*
X40933219Y-133666885D01*
X41145802Y-133570792D01*
X41339088Y-133440153D01*
X41507516Y-133278728D01*
X41646240Y-133091161D01*
X41751270Y-132882847D01*
X41819583Y-132659780D01*
X41849216Y-132428376D01*
X41839314Y-132195293D01*
X41790164Y-131967235D01*
X41703179Y-131750765D01*
X41580862Y-131552109D01*
X41426731Y-131376982D01*
X41426729Y-131376980D01*
X41426726Y-131376977D01*
X41245226Y-131230426D01*
X41245220Y-131230421D01*
X41041554Y-131116646D01*
X40821591Y-131038929D01*
X40821586Y-131038927D01*
X40821584Y-131038927D01*
X40821580Y-131038926D01*
X40821579Y-131038926D01*
X40591655Y-130999500D01*
X40591647Y-130999500D01*
X40062940Y-130999500D01*
X39995901Y-130979815D01*
X39975259Y-130963181D01*
X39086819Y-130074740D01*
X39053334Y-130013417D01*
X39050500Y-129987059D01*
X39050500Y-126774132D01*
X39070185Y-126707093D01*
X39122989Y-126661338D01*
X39192147Y-126651394D01*
X39250328Y-126676755D01*
X39250415Y-126676628D01*
X39251102Y-126677092D01*
X39252404Y-126677660D01*
X39254776Y-126679575D01*
X39254779Y-126679578D01*
X39458445Y-126793353D01*
X39458448Y-126793354D01*
X39678416Y-126871073D01*
X39806725Y-126893074D01*
X39908344Y-126910499D01*
X39908353Y-126910500D01*
X40437060Y-126910500D01*
X40504099Y-126930185D01*
X40524741Y-126946819D01*
X41417738Y-127839816D01*
X41453096Y-127862033D01*
X41458770Y-127866060D01*
X41489346Y-127890443D01*
X41491414Y-127892092D01*
X41529038Y-127910210D01*
X41535123Y-127913574D01*
X41570478Y-127935789D01*
X41609899Y-127949583D01*
X41616307Y-127952238D01*
X41653939Y-127970360D01*
X41694641Y-127979650D01*
X41701328Y-127981576D01*
X41740742Y-127995367D01*
X41740745Y-127995368D01*
X41782241Y-128000043D01*
X41789093Y-128001207D01*
X41829806Y-128010500D01*
X41875046Y-128010500D01*
X45659269Y-128010500D01*
X45726308Y-128030185D01*
X45772063Y-128082989D01*
X45782627Y-128147102D01*
X45774500Y-128226645D01*
X45774500Y-128773337D01*
X45774501Y-128773355D01*
X45784650Y-128872707D01*
X45784651Y-128872710D01*
X45837996Y-129033694D01*
X45838001Y-129033705D01*
X45927029Y-129178040D01*
X45927032Y-129178044D01*
X46046955Y-129297967D01*
X46046959Y-129297970D01*
X46191294Y-129386998D01*
X46191297Y-129386999D01*
X46191303Y-129387003D01*
X46352292Y-129440349D01*
X46451655Y-129450500D01*
X47048344Y-129450499D01*
X47048352Y-129450498D01*
X47048355Y-129450498D01*
X47102760Y-129444940D01*
X47147708Y-129440349D01*
X47308697Y-129387003D01*
X47453044Y-129297968D01*
X47572968Y-129178044D01*
X47662003Y-129033697D01*
X47715349Y-128872708D01*
X47725500Y-128773345D01*
X47725499Y-128226656D01*
X47725429Y-128225970D01*
X47717373Y-128147101D01*
X47730143Y-128078408D01*
X47778024Y-128027524D01*
X47840731Y-128010500D01*
X48965501Y-128010500D01*
X49032540Y-128030185D01*
X49078295Y-128082989D01*
X49089501Y-128134500D01*
X49089501Y-128210376D01*
X49095908Y-128269983D01*
X49146202Y-128404828D01*
X49146206Y-128404835D01*
X49232452Y-128520044D01*
X49232455Y-128520047D01*
X49347664Y-128606293D01*
X49347671Y-128606297D01*
X49482517Y-128656591D01*
X49482516Y-128656591D01*
X49489444Y-128657335D01*
X49542127Y-128663000D01*
X51637872Y-128662999D01*
X51697483Y-128656591D01*
X51832331Y-128606296D01*
X51947546Y-128520046D01*
X51976234Y-128481722D01*
X52032167Y-128439853D01*
X52101859Y-128434869D01*
X52163182Y-128468354D01*
X52196666Y-128529677D01*
X52199500Y-128556035D01*
X52199500Y-129497059D01*
X52179815Y-129564098D01*
X52163181Y-129584740D01*
X50935239Y-130812682D01*
X50873916Y-130846167D01*
X50837318Y-130848577D01*
X50738372Y-130840378D01*
X50697600Y-130837000D01*
X50482400Y-130837000D01*
X50449898Y-130839693D01*
X50302527Y-130851904D01*
X50069094Y-130911017D01*
X49848581Y-131007743D01*
X49646990Y-131139449D01*
X49499621Y-131275112D01*
X49469829Y-131302537D01*
X49436973Y-131344751D01*
X49321929Y-131492558D01*
X49207321Y-131704334D01*
X49207318Y-131704343D01*
X49129134Y-131932083D01*
X49116912Y-132005329D01*
X49089500Y-132169601D01*
X49089500Y-132410399D01*
X49092500Y-132428376D01*
X49129134Y-132647916D01*
X49207318Y-132875656D01*
X49207321Y-132875665D01*
X49321929Y-133087441D01*
X49324828Y-133091165D01*
X49469829Y-133277463D01*
X49646990Y-133440551D01*
X49848578Y-133572255D01*
X50069095Y-133668983D01*
X50302524Y-133728095D01*
X50482400Y-133743000D01*
X50482402Y-133743000D01*
X50697598Y-133743000D01*
X50697600Y-133743000D01*
X50877476Y-133728095D01*
X51110905Y-133668983D01*
X51331422Y-133572255D01*
X51533010Y-133440551D01*
X51710171Y-133277463D01*
X51858072Y-133087439D01*
X51972679Y-132875664D01*
X52050866Y-132647913D01*
X52090500Y-132410399D01*
X52090500Y-132169601D01*
X52065536Y-132020000D01*
X52073918Y-131950638D01*
X52100161Y-131911915D01*
X53502259Y-130509817D01*
X53502262Y-130509816D01*
X53629816Y-130382262D01*
X53652042Y-130346887D01*
X53656045Y-130341245D01*
X53682092Y-130308586D01*
X53700213Y-130270955D01*
X53703570Y-130264881D01*
X53725789Y-130229522D01*
X53739581Y-130190107D01*
X53742244Y-130183679D01*
X53760360Y-130146061D01*
X53769658Y-130105321D01*
X53771571Y-130098680D01*
X53785368Y-130059255D01*
X53790043Y-130017760D01*
X53791208Y-130010905D01*
X53792726Y-130004249D01*
X53800500Y-129970194D01*
X53800500Y-129789805D01*
X53800500Y-129750001D01*
X64994671Y-129750001D01*
X64996835Y-129783027D01*
X64996933Y-129789155D01*
X64995723Y-129825367D01*
X64995723Y-129825376D01*
X65006880Y-129936281D01*
X65013965Y-130044376D01*
X65013966Y-130044389D01*
X65021050Y-130080003D01*
X65021930Y-130085891D01*
X65025882Y-130125164D01*
X65050996Y-130230546D01*
X65071516Y-130333711D01*
X65071518Y-130333719D01*
X65084230Y-130371171D01*
X65085831Y-130376727D01*
X65095728Y-130418252D01*
X65095730Y-130418257D01*
X65095731Y-130418261D01*
X65133542Y-130516437D01*
X65158825Y-130590917D01*
X65166348Y-130613076D01*
X65185263Y-130651433D01*
X65187515Y-130656573D01*
X65204019Y-130699428D01*
X65204023Y-130699436D01*
X65253076Y-130788946D01*
X65296822Y-130877655D01*
X65296833Y-130877673D01*
X65322380Y-130915907D01*
X65325199Y-130920557D01*
X65348822Y-130963659D01*
X65348829Y-130963671D01*
X65406671Y-131042175D01*
X65408308Y-131044507D01*
X65449366Y-131105955D01*
X65460727Y-131122957D01*
X65475190Y-131139449D01*
X65493182Y-131159965D01*
X65496482Y-131164068D01*
X65527551Y-131206235D01*
X65593114Y-131274028D01*
X65595160Y-131276249D01*
X65655242Y-131344758D01*
X65690025Y-131375262D01*
X65694670Y-131379336D01*
X65698358Y-131382849D01*
X65737018Y-131422822D01*
X65737020Y-131422824D01*
X65764375Y-131444426D01*
X65808495Y-131479267D01*
X65810950Y-131481311D01*
X65877040Y-131539270D01*
X65877040Y-131539271D01*
X65923336Y-131570205D01*
X65927307Y-131573092D01*
X65973485Y-131609558D01*
X66049059Y-131654320D01*
X66051897Y-131656106D01*
X66103617Y-131690665D01*
X66122338Y-131703174D01*
X66139190Y-131711484D01*
X66175187Y-131729236D01*
X66179318Y-131731473D01*
X66211889Y-131750765D01*
X66232717Y-131763102D01*
X66232722Y-131763104D01*
X66232730Y-131763109D01*
X66310665Y-131796156D01*
X66313826Y-131797604D01*
X66386923Y-131833652D01*
X66445759Y-131853624D01*
X66450014Y-131855245D01*
X66510128Y-131880736D01*
X66588640Y-131902242D01*
X66592160Y-131903320D01*
X66666278Y-131928481D01*
X66724967Y-131940154D01*
X66730384Y-131941232D01*
X66734658Y-131942241D01*
X66800729Y-131960340D01*
X66878224Y-131970761D01*
X66882037Y-131971397D01*
X66955620Y-131986034D01*
X67024067Y-131990519D01*
X67028246Y-131990937D01*
X67099347Y-132000500D01*
X67174302Y-132000500D01*
X67178349Y-132000632D01*
X67210372Y-132002731D01*
X67249994Y-132005329D01*
X67250000Y-132005329D01*
X67250004Y-132005329D01*
X67260762Y-132004623D01*
X67322081Y-132000604D01*
X67325222Y-132000500D01*
X67325244Y-132000500D01*
X67398842Y-131995573D01*
X67544380Y-131986034D01*
X67544409Y-131986028D01*
X67545522Y-131985882D01*
X67549478Y-131985489D01*
X67550634Y-131985412D01*
X67693658Y-131956341D01*
X67833722Y-131928481D01*
X67834442Y-131928236D01*
X67842018Y-131926185D01*
X67845903Y-131925396D01*
X67980821Y-131878547D01*
X68113077Y-131833652D01*
X68116687Y-131831871D01*
X68123754Y-131828914D01*
X68130537Y-131826560D01*
X68255220Y-131763554D01*
X68377665Y-131703172D01*
X68383700Y-131699138D01*
X68390164Y-131695364D01*
X68399459Y-131690668D01*
X68512040Y-131613385D01*
X68622957Y-131539273D01*
X68630840Y-131532358D01*
X68636622Y-131527863D01*
X68647869Y-131520144D01*
X68746824Y-131430643D01*
X68844758Y-131344758D01*
X68853799Y-131334446D01*
X68858823Y-131329345D01*
X68871333Y-131318032D01*
X68955443Y-131218545D01*
X69039273Y-131122957D01*
X69048687Y-131108866D01*
X69052895Y-131103279D01*
X69065863Y-131087941D01*
X69065865Y-131087939D01*
X69134276Y-130980775D01*
X69203172Y-130877665D01*
X69212098Y-130859562D01*
X69215441Y-130853631D01*
X69227993Y-130833970D01*
X69280195Y-130721476D01*
X69333652Y-130613077D01*
X69341179Y-130590899D01*
X69343641Y-130584752D01*
X69354823Y-130560658D01*
X69390632Y-130445219D01*
X69428481Y-130333722D01*
X69433677Y-130307597D01*
X69435271Y-130301316D01*
X69444093Y-130272879D01*
X69463676Y-130156782D01*
X69486034Y-130044380D01*
X69487986Y-130014576D01*
X69488714Y-130008342D01*
X69494209Y-129975770D01*
X69498038Y-129861231D01*
X69502720Y-129789805D01*
X69505329Y-129750005D01*
X69505329Y-129750001D01*
X69505329Y-129750000D01*
X69503162Y-129716955D01*
X69503065Y-129710849D01*
X69504277Y-129674631D01*
X69493119Y-129563718D01*
X69486034Y-129455620D01*
X69478944Y-129419977D01*
X69478068Y-129414107D01*
X69474118Y-129374840D01*
X69474118Y-129374838D01*
X69449003Y-129269454D01*
X69428481Y-129166278D01*
X69415764Y-129128816D01*
X69414169Y-129123283D01*
X69404269Y-129081739D01*
X69366457Y-128983562D01*
X69333652Y-128886923D01*
X69314732Y-128848556D01*
X69312485Y-128843429D01*
X69295977Y-128800566D01*
X69264285Y-128742737D01*
X69246919Y-128711046D01*
X69223224Y-128662998D01*
X69203172Y-128622336D01*
X69177612Y-128584083D01*
X69174798Y-128579444D01*
X69161970Y-128556035D01*
X69151175Y-128536335D01*
X69093312Y-128457802D01*
X69091706Y-128455514D01*
X69039273Y-128377043D01*
X69006817Y-128340033D01*
X69003516Y-128335930D01*
X68972450Y-128293768D01*
X68972446Y-128293762D01*
X68907546Y-128226655D01*
X68906884Y-128225970D01*
X68904838Y-128223749D01*
X68844760Y-128155244D01*
X68805322Y-128120656D01*
X68801635Y-128117144D01*
X68762981Y-128077176D01*
X68691514Y-128020740D01*
X68689059Y-128018696D01*
X68622960Y-127960729D01*
X68576656Y-127929788D01*
X68572677Y-127926894D01*
X68526517Y-127890443D01*
X68478551Y-127862033D01*
X68450918Y-127845666D01*
X68448089Y-127843884D01*
X68377666Y-127796828D01*
X68324821Y-127770767D01*
X68320668Y-127768518D01*
X68267270Y-127736891D01*
X68267266Y-127736889D01*
X68267262Y-127736887D01*
X68237641Y-127724327D01*
X68189346Y-127703847D01*
X68186157Y-127702386D01*
X68113075Y-127666347D01*
X68054243Y-127646375D01*
X68049969Y-127644746D01*
X68011174Y-127628297D01*
X67989872Y-127619264D01*
X67989868Y-127619263D01*
X67989866Y-127619262D01*
X67911365Y-127597757D01*
X67907815Y-127596670D01*
X67833734Y-127571522D01*
X67833723Y-127571519D01*
X67833722Y-127571519D01*
X67769608Y-127558765D01*
X67765333Y-127557756D01*
X67699281Y-127539662D01*
X67699265Y-127539658D01*
X67621792Y-127529239D01*
X67617962Y-127528601D01*
X67571006Y-127519262D01*
X67544380Y-127513966D01*
X67544377Y-127513965D01*
X67544374Y-127513965D01*
X67475959Y-127509481D01*
X67471750Y-127509061D01*
X67437282Y-127504426D01*
X67400653Y-127499500D01*
X67400650Y-127499500D01*
X67325698Y-127499500D01*
X67321650Y-127499367D01*
X67289627Y-127497268D01*
X67250006Y-127494671D01*
X67250002Y-127494671D01*
X67250000Y-127494671D01*
X67201934Y-127497821D01*
X67177985Y-127499391D01*
X67174765Y-127499499D01*
X67101157Y-127504426D01*
X66955620Y-127513965D01*
X66954420Y-127514123D01*
X66950506Y-127514511D01*
X66949375Y-127514587D01*
X66949372Y-127514587D01*
X66949366Y-127514588D01*
X66806341Y-127543658D01*
X66666277Y-127571518D01*
X66666270Y-127571520D01*
X66665508Y-127571779D01*
X66657943Y-127573822D01*
X66654098Y-127574603D01*
X66590548Y-127596670D01*
X66519178Y-127621452D01*
X66473442Y-127636977D01*
X66386927Y-127666346D01*
X66386922Y-127666348D01*
X66383320Y-127668124D01*
X66376241Y-127671086D01*
X66369462Y-127673440D01*
X66244757Y-127736456D01*
X66122343Y-127796823D01*
X66122328Y-127796832D01*
X66116301Y-127800858D01*
X66109828Y-127804637D01*
X66100544Y-127809329D01*
X65987943Y-127886625D01*
X65889748Y-127952238D01*
X65877043Y-127960727D01*
X65869156Y-127967642D01*
X65863373Y-127972138D01*
X65852132Y-127979854D01*
X65753175Y-128069356D01*
X65655241Y-128155242D01*
X65646196Y-128165555D01*
X65641175Y-128170653D01*
X65628668Y-128181966D01*
X65544556Y-128281454D01*
X65460726Y-128377042D01*
X65451308Y-128391136D01*
X65447106Y-128396716D01*
X65434141Y-128412052D01*
X65434140Y-128412053D01*
X65365715Y-128519237D01*
X65296830Y-128622331D01*
X65287905Y-128640427D01*
X65284560Y-128646362D01*
X65272006Y-128666031D01*
X65219801Y-128778530D01*
X65166350Y-128886918D01*
X65166345Y-128886930D01*
X65158822Y-128909089D01*
X65156353Y-128915257D01*
X65145176Y-128939344D01*
X65145171Y-128939358D01*
X65109367Y-129054780D01*
X65071518Y-129166279D01*
X65071516Y-129166288D01*
X65066320Y-129192410D01*
X65064728Y-129198683D01*
X65055907Y-129227119D01*
X65036323Y-129343216D01*
X65036323Y-129343217D01*
X65014985Y-129450500D01*
X65013965Y-129455627D01*
X65013964Y-129455628D01*
X65012012Y-129485416D01*
X65011281Y-129491673D01*
X65005791Y-129524231D01*
X65001961Y-129638768D01*
X64994671Y-129750001D01*
X53800500Y-129750001D01*
X53800500Y-122548435D01*
X53800889Y-122541496D01*
X53805565Y-122500000D01*
X53800889Y-122458502D01*
X53800500Y-122451564D01*
X53800500Y-120798435D01*
X53800889Y-120791496D01*
X53805565Y-120750000D01*
X53800889Y-120708502D01*
X53800500Y-120701564D01*
X53800500Y-120632940D01*
X53820185Y-120565901D01*
X53836819Y-120545259D01*
X58045259Y-116336819D01*
X58106582Y-116303334D01*
X58132940Y-116300500D01*
X61097309Y-116300500D01*
X61164348Y-116320185D01*
X61198883Y-116353375D01*
X61211501Y-116371396D01*
X61211508Y-116371405D01*
X61308526Y-116468422D01*
X61378599Y-116538495D01*
X61475384Y-116606264D01*
X61572165Y-116674032D01*
X61572167Y-116674033D01*
X61572170Y-116674035D01*
X61786337Y-116773903D01*
X62014592Y-116835063D01*
X62202918Y-116851539D01*
X62249999Y-116855659D01*
X62250000Y-116855659D01*
X62250001Y-116855659D01*
X62289234Y-116852226D01*
X62485408Y-116835063D01*
X62713663Y-116773903D01*
X62927830Y-116674035D01*
X63121401Y-116538495D01*
X63288495Y-116371401D01*
X63418424Y-116185842D01*
X63473002Y-116142217D01*
X63542500Y-116135023D01*
X63604855Y-116166546D01*
X63621575Y-116185842D01*
X63738883Y-116353376D01*
X63751505Y-116371401D01*
X63918599Y-116538495D01*
X64015384Y-116606264D01*
X64112165Y-116674032D01*
X64112167Y-116674033D01*
X64112170Y-116674035D01*
X64326337Y-116773903D01*
X64554592Y-116835063D01*
X64742918Y-116851539D01*
X64789999Y-116855659D01*
X64790000Y-116855659D01*
X64790001Y-116855659D01*
X64829234Y-116852226D01*
X65025408Y-116835063D01*
X65042216Y-116830559D01*
X65112064Y-116832218D01*
X65161993Y-116862650D01*
X65528399Y-117229056D01*
X65530935Y-117231750D01*
X65567610Y-117273148D01*
X65572070Y-117278182D01*
X65623106Y-117313410D01*
X65626122Y-117315630D01*
X65652490Y-117336287D01*
X65674943Y-117353878D01*
X65681845Y-117356984D01*
X65684182Y-117358036D01*
X65703733Y-117369063D01*
X65712070Y-117374818D01*
X65770065Y-117396812D01*
X65773474Y-117398223D01*
X65820787Y-117419517D01*
X65830064Y-117423693D01*
X65830065Y-117423693D01*
X65830069Y-117423695D01*
X65840034Y-117425521D01*
X65861656Y-117431548D01*
X65861667Y-117431552D01*
X65871128Y-117435140D01*
X65916251Y-117440618D01*
X65932674Y-117442613D01*
X65936371Y-117443175D01*
X65997394Y-117454358D01*
X66052752Y-117451009D01*
X66059303Y-117450613D01*
X66063048Y-117450500D01*
X70364719Y-117450500D01*
X70368464Y-117450613D01*
X70375809Y-117451057D01*
X70430373Y-117454358D01*
X70468081Y-117447447D01*
X70491388Y-117443177D01*
X70495092Y-117442613D01*
X70512937Y-117440446D01*
X70556639Y-117435140D01*
X70566102Y-117431550D01*
X70587728Y-117425522D01*
X70588660Y-117425351D01*
X70597699Y-117423695D01*
X70654279Y-117398229D01*
X70657709Y-117396809D01*
X70715697Y-117374818D01*
X70724033Y-117369062D01*
X70743588Y-117358034D01*
X70752824Y-117353878D01*
X70801663Y-117315613D01*
X70804643Y-117313421D01*
X70855696Y-117278183D01*
X70896832Y-117231748D01*
X70899366Y-117229056D01*
X71639056Y-116489366D01*
X71641748Y-116486832D01*
X71688183Y-116445696D01*
X71689756Y-116443418D01*
X71696889Y-116433081D01*
X71723427Y-116394633D01*
X71725617Y-116391657D01*
X71763877Y-116342824D01*
X71768029Y-116333595D01*
X71779062Y-116314035D01*
X71779419Y-116313517D01*
X71784818Y-116305697D01*
X71806812Y-116247700D01*
X71808231Y-116244272D01*
X71833694Y-116187699D01*
X71835520Y-116177732D01*
X71841548Y-116156107D01*
X71845140Y-116146639D01*
X71852615Y-116085076D01*
X71853179Y-116081372D01*
X71859019Y-116049500D01*
X71864357Y-116020373D01*
X71860613Y-115958474D01*
X71860500Y-115954730D01*
X71860500Y-109761518D01*
X71880185Y-109694479D01*
X71896815Y-109673841D01*
X72219630Y-109351025D01*
X72280951Y-109317542D01*
X72318117Y-109315180D01*
X72323303Y-109315633D01*
X72323308Y-109315635D01*
X72528263Y-109333566D01*
X72549999Y-109335468D01*
X72550000Y-109335468D01*
X72550002Y-109335468D01*
X72606673Y-109330509D01*
X72776692Y-109315635D01*
X72996496Y-109256739D01*
X73202734Y-109160568D01*
X73389139Y-109030047D01*
X73550047Y-108869139D01*
X73680568Y-108682734D01*
X73776739Y-108476496D01*
X73835635Y-108256692D01*
X73855468Y-108030000D01*
X73852232Y-107993018D01*
X73837485Y-107824457D01*
X73835635Y-107803308D01*
X73776739Y-107583504D01*
X73680568Y-107377266D01*
X73550047Y-107190861D01*
X73550045Y-107190858D01*
X73389141Y-107029954D01*
X73202734Y-106899432D01*
X73202728Y-106899429D01*
X73144725Y-106872382D01*
X73092285Y-106826210D01*
X73073133Y-106759017D01*
X73093348Y-106692135D01*
X73144725Y-106647618D01*
X73202734Y-106620568D01*
X73389139Y-106490047D01*
X73550047Y-106329139D01*
X73680568Y-106142734D01*
X73776739Y-105936496D01*
X73835635Y-105716692D01*
X73855468Y-105490000D01*
X73854347Y-105477192D01*
X73847550Y-105399500D01*
X73835635Y-105263308D01*
X73776739Y-105043504D01*
X73680568Y-104837266D01*
X73563192Y-104669634D01*
X73550045Y-104650858D01*
X73389143Y-104489956D01*
X73364536Y-104472726D01*
X73320912Y-104418149D01*
X73313719Y-104348650D01*
X73345241Y-104286296D01*
X73405471Y-104250882D01*
X73422404Y-104247861D01*
X73457483Y-104244091D01*
X73592331Y-104193796D01*
X73707546Y-104107546D01*
X73793796Y-103992331D01*
X73844091Y-103857483D01*
X73850500Y-103797873D01*
X73850499Y-102102128D01*
X73844091Y-102042517D01*
X73842380Y-102037930D01*
X73793797Y-101907671D01*
X73793793Y-101907664D01*
X73707547Y-101792455D01*
X73707544Y-101792452D01*
X73592335Y-101706206D01*
X73592328Y-101706202D01*
X73457482Y-101655908D01*
X73457483Y-101655908D01*
X73397883Y-101649501D01*
X73397881Y-101649500D01*
X73397873Y-101649500D01*
X73397865Y-101649500D01*
X73374500Y-101649500D01*
X73307461Y-101629815D01*
X73261706Y-101577011D01*
X73250500Y-101525500D01*
X73250500Y-101421162D01*
X73270185Y-101354123D01*
X73309221Y-101315736D01*
X73476562Y-101212124D01*
X73619722Y-101081616D01*
X73640979Y-101062238D01*
X73650501Y-101049630D01*
X73775058Y-100884689D01*
X73874229Y-100685528D01*
X73935115Y-100471536D01*
X73955643Y-100250000D01*
X73935115Y-100028464D01*
X73874229Y-99814472D01*
X73859015Y-99783918D01*
X73775061Y-99615316D01*
X73775056Y-99615308D01*
X73640979Y-99437761D01*
X73476562Y-99287876D01*
X73476560Y-99287874D01*
X73287404Y-99170754D01*
X73287398Y-99170752D01*
X73079940Y-99090382D01*
X72861243Y-99049500D01*
X72638757Y-99049500D01*
X72420060Y-99090382D01*
X72288864Y-99141207D01*
X72212601Y-99170752D01*
X72212595Y-99170754D01*
X72023439Y-99287874D01*
X72023437Y-99287876D01*
X71859020Y-99437761D01*
X71724943Y-99615308D01*
X71724938Y-99615316D01*
X71625775Y-99814461D01*
X71625769Y-99814476D01*
X71564885Y-100028462D01*
X71564884Y-100028464D01*
X71544357Y-100249999D01*
X71544357Y-100250000D01*
X71564884Y-100471535D01*
X71564885Y-100471537D01*
X71625769Y-100685523D01*
X71625775Y-100685538D01*
X71724938Y-100884683D01*
X71724943Y-100884691D01*
X71769718Y-100943982D01*
X71824454Y-101016464D01*
X71849146Y-101081824D01*
X71849500Y-101091190D01*
X71849500Y-101525500D01*
X71829815Y-101592539D01*
X71777011Y-101638294D01*
X71725505Y-101649500D01*
X71702132Y-101649500D01*
X71702123Y-101649501D01*
X71642516Y-101655908D01*
X71507671Y-101706202D01*
X71507664Y-101706206D01*
X71392455Y-101792452D01*
X71392452Y-101792455D01*
X71306206Y-101907664D01*
X71306202Y-101907671D01*
X71255908Y-102042517D01*
X71249501Y-102102116D01*
X71249501Y-102102123D01*
X71249500Y-102102135D01*
X71249500Y-102899481D01*
X71229815Y-102966520D01*
X71177011Y-103012275D01*
X71107853Y-103022219D01*
X71044297Y-102993194D01*
X71037819Y-102987162D01*
X69506819Y-101456162D01*
X69473334Y-101394839D01*
X69470500Y-101368481D01*
X69470500Y-87178923D01*
X69470613Y-87175178D01*
X69474357Y-87113282D01*
X69463177Y-87052274D01*
X69462615Y-87048577D01*
X69455140Y-86987017D01*
X69455139Y-86987013D01*
X69451546Y-86977539D01*
X69445519Y-86955917D01*
X69443694Y-86945956D01*
X69418239Y-86889400D01*
X69416809Y-86885945D01*
X69406899Y-86859815D01*
X69394818Y-86827958D01*
X69389059Y-86819615D01*
X69378030Y-86800060D01*
X69373877Y-86790831D01*
X69373874Y-86790826D01*
X69335633Y-86742015D01*
X69333413Y-86738998D01*
X69308152Y-86702402D01*
X69298183Y-86687959D01*
X69251750Y-86646823D01*
X69249056Y-86644287D01*
X67786819Y-85182050D01*
X67753334Y-85120727D01*
X67750500Y-85094369D01*
X67750500Y-83541518D01*
X67770185Y-83474479D01*
X67786819Y-83453837D01*
X68003837Y-83236819D01*
X68065160Y-83203334D01*
X68091518Y-83200500D01*
X69694008Y-83200500D01*
X69697753Y-83200613D01*
X69705098Y-83201057D01*
X69759662Y-83204358D01*
X69797370Y-83197447D01*
X69820677Y-83193177D01*
X69824381Y-83192613D01*
X69842226Y-83190446D01*
X69885928Y-83185140D01*
X69895391Y-83181550D01*
X69917017Y-83175522D01*
X69917949Y-83175351D01*
X69926988Y-83173695D01*
X69983568Y-83148229D01*
X69986998Y-83146809D01*
X70044986Y-83124818D01*
X70053322Y-83119062D01*
X70072877Y-83108034D01*
X70082113Y-83103878D01*
X70130952Y-83065613D01*
X70133932Y-83063421D01*
X70184985Y-83028183D01*
X70226121Y-82981748D01*
X70228655Y-82979056D01*
X70979056Y-82228655D01*
X70981748Y-82226121D01*
X71028183Y-82184985D01*
X71063421Y-82133932D01*
X71065613Y-82130952D01*
X71103878Y-82082113D01*
X71108034Y-82072877D01*
X71119062Y-82053322D01*
X71124818Y-82044986D01*
X71146809Y-81986998D01*
X71148229Y-81983568D01*
X71173695Y-81926988D01*
X71175521Y-81917017D01*
X71181552Y-81895387D01*
X71185140Y-81885927D01*
X71185140Y-81885924D01*
X71186516Y-81874597D01*
X71192613Y-81824381D01*
X71193177Y-81820677D01*
X71197447Y-81797370D01*
X71204358Y-81759662D01*
X71200613Y-81697752D01*
X71200500Y-81694007D01*
X71200500Y-75323035D01*
X71200613Y-75319290D01*
X71204357Y-75257394D01*
X71193177Y-75196386D01*
X71192615Y-75192689D01*
X71185140Y-75131129D01*
X71185139Y-75131125D01*
X71181546Y-75121651D01*
X71175519Y-75100029D01*
X71173694Y-75090070D01*
X71173694Y-75090068D01*
X71148239Y-75033512D01*
X71146809Y-75030057D01*
X71124818Y-74972070D01*
X71119059Y-74963727D01*
X71108030Y-74944172D01*
X71103877Y-74934943D01*
X71103874Y-74934938D01*
X71065633Y-74886127D01*
X71063413Y-74883110D01*
X71037312Y-74845297D01*
X71028183Y-74832071D01*
X70981750Y-74790935D01*
X70979056Y-74788399D01*
X70477842Y-74287185D01*
X70444357Y-74225862D01*
X70449341Y-74156170D01*
X70453130Y-74147124D01*
X70476739Y-74096496D01*
X70535635Y-73876692D01*
X70554404Y-73662162D01*
X70555468Y-73650001D01*
X70555468Y-73649998D01*
X70535635Y-73423313D01*
X70535635Y-73423308D01*
X70476739Y-73203504D01*
X70380568Y-72997266D01*
X70250047Y-72810861D01*
X70250045Y-72810858D01*
X70089141Y-72649954D01*
X69902734Y-72519432D01*
X69902728Y-72519429D01*
X69844725Y-72492382D01*
X69792285Y-72446210D01*
X69773133Y-72379017D01*
X69793348Y-72312135D01*
X69844725Y-72267618D01*
X69902734Y-72240568D01*
X70089139Y-72110047D01*
X70250047Y-71949139D01*
X70310096Y-71863377D01*
X70364675Y-71819752D01*
X70411673Y-71810500D01*
X72484291Y-71810500D01*
X72551330Y-71830185D01*
X72585866Y-71863377D01*
X72661500Y-71971395D01*
X72661505Y-71971401D01*
X72828599Y-72138495D01*
X72905866Y-72192598D01*
X73022165Y-72274032D01*
X73022167Y-72274033D01*
X73022170Y-72274035D01*
X73236337Y-72373903D01*
X73236343Y-72373904D01*
X73236344Y-72373905D01*
X73262764Y-72380984D01*
X73464592Y-72435063D01*
X73652918Y-72451539D01*
X73699999Y-72455659D01*
X73700000Y-72455659D01*
X73700001Y-72455659D01*
X73739234Y-72452226D01*
X73935408Y-72435063D01*
X74163663Y-72373903D01*
X74377830Y-72274035D01*
X74571401Y-72138495D01*
X74738495Y-71971401D01*
X74874035Y-71777830D01*
X74973903Y-71563663D01*
X75035063Y-71335408D01*
X75055659Y-71100000D01*
X75035063Y-70864592D01*
X74973903Y-70636337D01*
X74874035Y-70422171D01*
X74872185Y-70419528D01*
X74738494Y-70228597D01*
X74571402Y-70061506D01*
X74571396Y-70061501D01*
X74385842Y-69931575D01*
X74342217Y-69876998D01*
X74335023Y-69807500D01*
X74366546Y-69745145D01*
X74385842Y-69728425D01*
X74447719Y-69685098D01*
X74571401Y-69598495D01*
X74738495Y-69431401D01*
X74874035Y-69237830D01*
X74973903Y-69023663D01*
X75035063Y-68795408D01*
X75055659Y-68560000D01*
X75035063Y-68324592D01*
X74973903Y-68096337D01*
X74874035Y-67882171D01*
X74871146Y-67878044D01*
X74738494Y-67688597D01*
X74571402Y-67521506D01*
X74571396Y-67521501D01*
X74385842Y-67391575D01*
X74342217Y-67336998D01*
X74335023Y-67267500D01*
X74366546Y-67205145D01*
X74385842Y-67188425D01*
X74515023Y-67097971D01*
X74571401Y-67058495D01*
X74738495Y-66891401D01*
X74874035Y-66697830D01*
X74973903Y-66483663D01*
X75035063Y-66255408D01*
X75055659Y-66020000D01*
X75035063Y-65784592D01*
X74973903Y-65556337D01*
X74874035Y-65342171D01*
X74869459Y-65335635D01*
X74738494Y-65148597D01*
X74571402Y-64981506D01*
X74571396Y-64981501D01*
X74385842Y-64851575D01*
X74342217Y-64796998D01*
X74335023Y-64727500D01*
X74366546Y-64665145D01*
X74385842Y-64648425D01*
X74469420Y-64589903D01*
X74571401Y-64518495D01*
X74738495Y-64351401D01*
X74874035Y-64157830D01*
X74973903Y-63943663D01*
X75035063Y-63715408D01*
X75055659Y-63480000D01*
X75035063Y-63244592D01*
X74973903Y-63016337D01*
X74874035Y-62802171D01*
X74858685Y-62780248D01*
X74738494Y-62608597D01*
X74571402Y-62441506D01*
X74571396Y-62441501D01*
X74385842Y-62311575D01*
X74342217Y-62256998D01*
X74335023Y-62187500D01*
X74366546Y-62125145D01*
X74385842Y-62108425D01*
X74502314Y-62026870D01*
X74571401Y-61978495D01*
X74738495Y-61811401D01*
X74874035Y-61617830D01*
X74973903Y-61403663D01*
X75035063Y-61175408D01*
X75055659Y-60940000D01*
X75035063Y-60704592D01*
X74974089Y-60477032D01*
X74973905Y-60476344D01*
X74973904Y-60476343D01*
X74973903Y-60476337D01*
X74874035Y-60262171D01*
X74851683Y-60230248D01*
X74738494Y-60068597D01*
X74571402Y-59901506D01*
X74571396Y-59901501D01*
X74385842Y-59771575D01*
X74342217Y-59716998D01*
X74335023Y-59647500D01*
X74366546Y-59585145D01*
X74385842Y-59568425D01*
X74425627Y-59540567D01*
X74571401Y-59438495D01*
X74738495Y-59271401D01*
X74874035Y-59077830D01*
X74973903Y-58863663D01*
X75035063Y-58635408D01*
X75055659Y-58400000D01*
X75035063Y-58164592D01*
X74981182Y-57963502D01*
X74973905Y-57936344D01*
X74973904Y-57936343D01*
X74973903Y-57936337D01*
X74874035Y-57722171D01*
X74858685Y-57700248D01*
X74738494Y-57528597D01*
X74571402Y-57361506D01*
X74571396Y-57361501D01*
X74385842Y-57231575D01*
X74342217Y-57176998D01*
X74335023Y-57107500D01*
X74366546Y-57045145D01*
X74385842Y-57028425D01*
X74476162Y-56965182D01*
X74571401Y-56898495D01*
X74738495Y-56731401D01*
X74874035Y-56537830D01*
X74973903Y-56323663D01*
X75035063Y-56095408D01*
X75055659Y-55860000D01*
X75035063Y-55624592D01*
X74977704Y-55410523D01*
X74973905Y-55396344D01*
X74973904Y-55396343D01*
X74973903Y-55396337D01*
X74874035Y-55182171D01*
X74858685Y-55160248D01*
X74738494Y-54988597D01*
X74571402Y-54821506D01*
X74571396Y-54821501D01*
X74385842Y-54691575D01*
X74342217Y-54636998D01*
X74335023Y-54567500D01*
X74366546Y-54505145D01*
X74385842Y-54488425D01*
X74466481Y-54431961D01*
X74571401Y-54358495D01*
X74738495Y-54191401D01*
X74874035Y-53997830D01*
X74973903Y-53783663D01*
X75035063Y-53555408D01*
X75055659Y-53320000D01*
X75035063Y-53084592D01*
X74973903Y-52856337D01*
X74874035Y-52642171D01*
X74870682Y-52637383D01*
X74738496Y-52448600D01*
X74738496Y-52448599D01*
X74616567Y-52326671D01*
X74583084Y-52265351D01*
X74588068Y-52195659D01*
X74629939Y-52139725D01*
X74660915Y-52122810D01*
X74792331Y-52073796D01*
X74907546Y-51987546D01*
X74993796Y-51872331D01*
X75044091Y-51737483D01*
X75050500Y-51677873D01*
X75050499Y-49882128D01*
X75044091Y-49822517D01*
X75031945Y-49789953D01*
X74993797Y-49687671D01*
X74993793Y-49687664D01*
X74907547Y-49572455D01*
X74907544Y-49572452D01*
X74792335Y-49486206D01*
X74792328Y-49486202D01*
X74657482Y-49435908D01*
X74657483Y-49435908D01*
X74597883Y-49429501D01*
X74597881Y-49429500D01*
X74597873Y-49429500D01*
X74597864Y-49429500D01*
X72802129Y-49429500D01*
X72802123Y-49429501D01*
X72742516Y-49435908D01*
X72607671Y-49486202D01*
X72607664Y-49486206D01*
X72492455Y-49572452D01*
X72492452Y-49572455D01*
X72406206Y-49687664D01*
X72406202Y-49687671D01*
X72355908Y-49822517D01*
X72349501Y-49882116D01*
X72349501Y-49882123D01*
X72349500Y-49882135D01*
X72349500Y-49965500D01*
X72329815Y-50032539D01*
X72277011Y-50078294D01*
X72225500Y-50089500D01*
X70411673Y-50089500D01*
X70344634Y-50069815D01*
X70310098Y-50036623D01*
X70250045Y-49950858D01*
X70089141Y-49789954D01*
X69902734Y-49659432D01*
X69902732Y-49659431D01*
X69696497Y-49563261D01*
X69696488Y-49563258D01*
X69476697Y-49504366D01*
X69476687Y-49504364D01*
X69306784Y-49489500D01*
X68393216Y-49489500D01*
X68223312Y-49504364D01*
X68223302Y-49504366D01*
X68003511Y-49563258D01*
X68003502Y-49563261D01*
X67797267Y-49659431D01*
X67797265Y-49659432D01*
X67610858Y-49789954D01*
X67449954Y-49950858D01*
X67319432Y-50137265D01*
X67319431Y-50137267D01*
X67223261Y-50343502D01*
X67223258Y-50343511D01*
X67164366Y-50563302D01*
X67164364Y-50563313D01*
X67144532Y-50789998D01*
X67144532Y-50790001D01*
X67164364Y-51016686D01*
X67164366Y-51016697D01*
X67223258Y-51236488D01*
X67223261Y-51236497D01*
X67319431Y-51442732D01*
X67319432Y-51442734D01*
X67449954Y-51629141D01*
X67610858Y-51790045D01*
X67728382Y-51872335D01*
X67797266Y-51920568D01*
X67855278Y-51947619D01*
X67907713Y-51993788D01*
X67926866Y-52060982D01*
X67906651Y-52127863D01*
X67855277Y-52172380D01*
X67797268Y-52199430D01*
X67797265Y-52199432D01*
X67610858Y-52329954D01*
X67449954Y-52490858D01*
X67319432Y-52677265D01*
X67319431Y-52677267D01*
X67223261Y-52883502D01*
X67223258Y-52883511D01*
X67164366Y-53103302D01*
X67164364Y-53103313D01*
X67144532Y-53329998D01*
X67144532Y-53330001D01*
X67164364Y-53556686D01*
X67164366Y-53556697D01*
X67223258Y-53776488D01*
X67223261Y-53776497D01*
X67319431Y-53982732D01*
X67319432Y-53982734D01*
X67449954Y-54169141D01*
X67610858Y-54330045D01*
X67646298Y-54354860D01*
X67797266Y-54460568D01*
X67855275Y-54487618D01*
X67907714Y-54533791D01*
X67926866Y-54600984D01*
X67906650Y-54667865D01*
X67855275Y-54712382D01*
X67797267Y-54739431D01*
X67797265Y-54739432D01*
X67610858Y-54869954D01*
X67449954Y-55030858D01*
X67319432Y-55217265D01*
X67319431Y-55217267D01*
X67223261Y-55423502D01*
X67223258Y-55423511D01*
X67164366Y-55643302D01*
X67164364Y-55643313D01*
X67144532Y-55869998D01*
X67144532Y-55870001D01*
X67164364Y-56096686D01*
X67164366Y-56096697D01*
X67223258Y-56316488D01*
X67223261Y-56316497D01*
X67319431Y-56522732D01*
X67319432Y-56522734D01*
X67449954Y-56709141D01*
X67610858Y-56870045D01*
X67610861Y-56870047D01*
X67797266Y-57000568D01*
X67855275Y-57027618D01*
X67907714Y-57073791D01*
X67926866Y-57140984D01*
X67906650Y-57207865D01*
X67855275Y-57252382D01*
X67797267Y-57279431D01*
X67797265Y-57279432D01*
X67610858Y-57409954D01*
X67449954Y-57570858D01*
X67319432Y-57757265D01*
X67319431Y-57757267D01*
X67223261Y-57963502D01*
X67223258Y-57963511D01*
X67164366Y-58183302D01*
X67164364Y-58183313D01*
X67144532Y-58409998D01*
X67144532Y-58410001D01*
X67164364Y-58636686D01*
X67164366Y-58636697D01*
X67223258Y-58856488D01*
X67223261Y-58856497D01*
X67319431Y-59062732D01*
X67319432Y-59062734D01*
X67449954Y-59249141D01*
X67610858Y-59410045D01*
X67610861Y-59410047D01*
X67797266Y-59540568D01*
X67855275Y-59567618D01*
X67907714Y-59613791D01*
X67926866Y-59680984D01*
X67906650Y-59747865D01*
X67855275Y-59792382D01*
X67797267Y-59819431D01*
X67797265Y-59819432D01*
X67610858Y-59949954D01*
X67449954Y-60110858D01*
X67319432Y-60297265D01*
X67319431Y-60297267D01*
X67223261Y-60503502D01*
X67223258Y-60503511D01*
X67164366Y-60723302D01*
X67164364Y-60723313D01*
X67144532Y-60949998D01*
X67144532Y-60950001D01*
X67164364Y-61176686D01*
X67164366Y-61176697D01*
X67223258Y-61396488D01*
X67223261Y-61396497D01*
X67319431Y-61602732D01*
X67319432Y-61602734D01*
X67449954Y-61789141D01*
X67610858Y-61950045D01*
X67651486Y-61978493D01*
X67797266Y-62080568D01*
X67855275Y-62107618D01*
X67907714Y-62153791D01*
X67926866Y-62220984D01*
X67906650Y-62287865D01*
X67855275Y-62332382D01*
X67797267Y-62359431D01*
X67797265Y-62359432D01*
X67610858Y-62489954D01*
X67449954Y-62650858D01*
X67319432Y-62837265D01*
X67319431Y-62837267D01*
X67223261Y-63043502D01*
X67223258Y-63043511D01*
X67164366Y-63263302D01*
X67164364Y-63263313D01*
X67144532Y-63489998D01*
X67144532Y-63490001D01*
X67164364Y-63716686D01*
X67164366Y-63716697D01*
X67223258Y-63936488D01*
X67223261Y-63936497D01*
X67319431Y-64142732D01*
X67319432Y-64142734D01*
X67449954Y-64329141D01*
X67610858Y-64490045D01*
X67610861Y-64490047D01*
X67797266Y-64620568D01*
X67855275Y-64647618D01*
X67907714Y-64693791D01*
X67926866Y-64760984D01*
X67906650Y-64827865D01*
X67855275Y-64872382D01*
X67797267Y-64899431D01*
X67797265Y-64899432D01*
X67610858Y-65029954D01*
X67449954Y-65190858D01*
X67319432Y-65377265D01*
X67319431Y-65377267D01*
X67223261Y-65583502D01*
X67223258Y-65583511D01*
X67164366Y-65803302D01*
X67164364Y-65803313D01*
X67144532Y-66029998D01*
X67144532Y-66030001D01*
X67164364Y-66256686D01*
X67164366Y-66256697D01*
X67223258Y-66476488D01*
X67223261Y-66476497D01*
X67319431Y-66682732D01*
X67319432Y-66682734D01*
X67449954Y-66869141D01*
X67610858Y-67030045D01*
X67610861Y-67030047D01*
X67797266Y-67160568D01*
X67853945Y-67186998D01*
X67855275Y-67187618D01*
X67907714Y-67233791D01*
X67926866Y-67300984D01*
X67906650Y-67367865D01*
X67855275Y-67412381D01*
X67838272Y-67420310D01*
X67797267Y-67439431D01*
X67797265Y-67439432D01*
X67610858Y-67569954D01*
X67449954Y-67730858D01*
X67319432Y-67917265D01*
X67319431Y-67917267D01*
X67223261Y-68123502D01*
X67223258Y-68123511D01*
X67164366Y-68343302D01*
X67164364Y-68343313D01*
X67144532Y-68569998D01*
X67144532Y-68570001D01*
X67164364Y-68796686D01*
X67164366Y-68796697D01*
X67223258Y-69016488D01*
X67223261Y-69016497D01*
X67319431Y-69222732D01*
X67319432Y-69222734D01*
X67449954Y-69409141D01*
X67610858Y-69570045D01*
X67610861Y-69570047D01*
X67797266Y-69700568D01*
X67848200Y-69724319D01*
X67855275Y-69727618D01*
X67907714Y-69773791D01*
X67926866Y-69840984D01*
X67906650Y-69907865D01*
X67855275Y-69952382D01*
X67797267Y-69979431D01*
X67797265Y-69979432D01*
X67610858Y-70109954D01*
X67449954Y-70270858D01*
X67319432Y-70457265D01*
X67319431Y-70457267D01*
X67223261Y-70663502D01*
X67223258Y-70663511D01*
X67164366Y-70883302D01*
X67164364Y-70883313D01*
X67144532Y-71109998D01*
X67144532Y-71110001D01*
X67164364Y-71336686D01*
X67164366Y-71336697D01*
X67223258Y-71556488D01*
X67223261Y-71556497D01*
X67319431Y-71762732D01*
X67319432Y-71762734D01*
X67449954Y-71949141D01*
X67610858Y-72110045D01*
X67610861Y-72110047D01*
X67797266Y-72240568D01*
X67855275Y-72267618D01*
X67907714Y-72313791D01*
X67926866Y-72380984D01*
X67906650Y-72447865D01*
X67855275Y-72492382D01*
X67797267Y-72519431D01*
X67797265Y-72519432D01*
X67610858Y-72649954D01*
X67449954Y-72810858D01*
X67319432Y-72997265D01*
X67319431Y-72997267D01*
X67223261Y-73203502D01*
X67223258Y-73203511D01*
X67164366Y-73423302D01*
X67164364Y-73423313D01*
X67144532Y-73649998D01*
X67144532Y-73650001D01*
X67164364Y-73876686D01*
X67164366Y-73876697D01*
X67223258Y-74096488D01*
X67223261Y-74096497D01*
X67319431Y-74302732D01*
X67319432Y-74302734D01*
X67449954Y-74489141D01*
X67610858Y-74650045D01*
X67610861Y-74650047D01*
X67797266Y-74780568D01*
X67855275Y-74807618D01*
X67907714Y-74853791D01*
X67926866Y-74920984D01*
X67906650Y-74987865D01*
X67855275Y-75032382D01*
X67797267Y-75059431D01*
X67797265Y-75059432D01*
X67610858Y-75189954D01*
X67449954Y-75350858D01*
X67319432Y-75537265D01*
X67319431Y-75537267D01*
X67223261Y-75743502D01*
X67223258Y-75743511D01*
X67164366Y-75963302D01*
X67164364Y-75963313D01*
X67144532Y-76189998D01*
X67144532Y-76190001D01*
X67164364Y-76416686D01*
X67164366Y-76416697D01*
X67223258Y-76636488D01*
X67223260Y-76636492D01*
X67223261Y-76636496D01*
X67233088Y-76657569D01*
X67246858Y-76687101D01*
X67257349Y-76756178D01*
X67228828Y-76819962D01*
X67222156Y-76827185D01*
X65996702Y-78052639D01*
X65993976Y-78055206D01*
X65947554Y-78096332D01*
X65912322Y-78147373D01*
X65910104Y-78150388D01*
X65871860Y-78199203D01*
X65871855Y-78199212D01*
X65867696Y-78208452D01*
X65856678Y-78227987D01*
X65850923Y-78236325D01*
X65850919Y-78236331D01*
X65850918Y-78236334D01*
X65850916Y-78236338D01*
X65850915Y-78236341D01*
X65828925Y-78294319D01*
X65827493Y-78297777D01*
X65802041Y-78354332D01*
X65800213Y-78364306D01*
X65794189Y-78385917D01*
X65790596Y-78395391D01*
X65790595Y-78395392D01*
X65783120Y-78456949D01*
X65782557Y-78460650D01*
X65771378Y-78521654D01*
X65771378Y-78521659D01*
X65775123Y-78583566D01*
X65775236Y-78587311D01*
X65775236Y-80485688D01*
X65755551Y-80552727D01*
X65738917Y-80573369D01*
X64770966Y-81541319D01*
X64768240Y-81543886D01*
X64721818Y-81585012D01*
X64686586Y-81636053D01*
X64684368Y-81639068D01*
X64646124Y-81687883D01*
X64646119Y-81687892D01*
X64641960Y-81697132D01*
X64630942Y-81716667D01*
X64625187Y-81725005D01*
X64625183Y-81725011D01*
X64625182Y-81725014D01*
X64625180Y-81725018D01*
X64625179Y-81725021D01*
X64603189Y-81782999D01*
X64601757Y-81786457D01*
X64576305Y-81843012D01*
X64574477Y-81852986D01*
X64568453Y-81874597D01*
X64564860Y-81884071D01*
X64564859Y-81884072D01*
X64557384Y-81945629D01*
X64556821Y-81949330D01*
X64545642Y-82010334D01*
X64545642Y-82010339D01*
X64549387Y-82072246D01*
X64549500Y-82075991D01*
X64549500Y-86158423D01*
X64549387Y-86162168D01*
X64545642Y-86224078D01*
X64550196Y-86248929D01*
X64556821Y-86285084D01*
X64557384Y-86288785D01*
X64564859Y-86350342D01*
X64564860Y-86350346D01*
X64568451Y-86359815D01*
X64574474Y-86381418D01*
X64576304Y-86391402D01*
X64581533Y-86403020D01*
X64591095Y-86472232D01*
X64561720Y-86535627D01*
X64502734Y-86573077D01*
X64432866Y-86572692D01*
X64380775Y-86541590D01*
X57086818Y-79247634D01*
X57053333Y-79186311D01*
X57050499Y-79159953D01*
X57050499Y-78052639D01*
X57050499Y-76813000D01*
X57050610Y-76809323D01*
X57054357Y-76747394D01*
X57043177Y-76686386D01*
X57042615Y-76682689D01*
X57035140Y-76621129D01*
X57035139Y-76621125D01*
X57031546Y-76611651D01*
X57025519Y-76590029D01*
X57023694Y-76580070D01*
X57023694Y-76580068D01*
X56998241Y-76523514D01*
X56996807Y-76520052D01*
X56974818Y-76462071D01*
X56974818Y-76462070D01*
X56969058Y-76453726D01*
X56958035Y-76434180D01*
X56953878Y-76424943D01*
X56915617Y-76376107D01*
X56913417Y-76373117D01*
X56896786Y-76349021D01*
X56878185Y-76322073D01*
X56878183Y-76322071D01*
X56831750Y-76280935D01*
X56829056Y-76278399D01*
X55095871Y-74545214D01*
X55062386Y-74483891D01*
X55067370Y-74414199D01*
X55081978Y-74386409D01*
X55140566Y-74302737D01*
X55140568Y-74302733D01*
X55236739Y-74096496D01*
X55295635Y-73876692D01*
X55314404Y-73662162D01*
X55315468Y-73650001D01*
X55315468Y-73649998D01*
X55295635Y-73423313D01*
X55295635Y-73423308D01*
X55236739Y-73203504D01*
X55140568Y-72997266D01*
X55043865Y-72859159D01*
X55021539Y-72792955D01*
X55038549Y-72725188D01*
X55057756Y-72700361D01*
X59219118Y-68538998D01*
X59231693Y-68528925D01*
X59231538Y-68528738D01*
X59237540Y-68523771D01*
X59237547Y-68523768D01*
X59286812Y-68471305D01*
X59308518Y-68449600D01*
X59313010Y-68443807D01*
X59316800Y-68439371D01*
X59350055Y-68403959D01*
X59360277Y-68385362D01*
X59370962Y-68369097D01*
X59383970Y-68352329D01*
X59403258Y-68307753D01*
X59405831Y-68302502D01*
X59406168Y-68301887D01*
X59429234Y-68259934D01*
X59434511Y-68239374D01*
X59440813Y-68220969D01*
X59449243Y-68201492D01*
X59456842Y-68153511D01*
X59458024Y-68147800D01*
X59470107Y-68100743D01*
X59470107Y-68079521D01*
X59471634Y-68060121D01*
X59472334Y-68055703D01*
X59474954Y-68039161D01*
X59470382Y-67990796D01*
X59470107Y-67984958D01*
X59470107Y-67520807D01*
X59489792Y-67453768D01*
X59506421Y-67433131D01*
X60899513Y-66040038D01*
X60912079Y-66029972D01*
X60911925Y-66029785D01*
X60917937Y-66024811D01*
X60917937Y-66024810D01*
X60917940Y-66024809D01*
X60967190Y-65972362D01*
X60988912Y-65950641D01*
X60993402Y-65944851D01*
X60997184Y-65940421D01*
X61030448Y-65905000D01*
X61040674Y-65886396D01*
X61051347Y-65870148D01*
X61064363Y-65853370D01*
X61083651Y-65808794D01*
X61086224Y-65803543D01*
X61086561Y-65802928D01*
X61109627Y-65760975D01*
X61114904Y-65740415D01*
X61121206Y-65722010D01*
X61129636Y-65702533D01*
X61137235Y-65654552D01*
X61138417Y-65648841D01*
X61150500Y-65601784D01*
X61150500Y-65580562D01*
X61152027Y-65561162D01*
X61152791Y-65556337D01*
X61155347Y-65540202D01*
X61150772Y-65491812D01*
X61150500Y-65486018D01*
X61150500Y-49276872D01*
X61170185Y-49209834D01*
X61186810Y-49189201D01*
X61297968Y-49078044D01*
X61387003Y-48933697D01*
X61440349Y-48772708D01*
X61450500Y-48673345D01*
X61450499Y-47826656D01*
X61440349Y-47727292D01*
X61387003Y-47566303D01*
X61386999Y-47566297D01*
X61386998Y-47566294D01*
X61297970Y-47421959D01*
X61297967Y-47421955D01*
X61178044Y-47302032D01*
X61178040Y-47302029D01*
X61033705Y-47213001D01*
X61033699Y-47212998D01*
X61033697Y-47212997D01*
X61033694Y-47212996D01*
X60872709Y-47159651D01*
X60773346Y-47149500D01*
X60226662Y-47149500D01*
X60226644Y-47149501D01*
X60127292Y-47159650D01*
X60127289Y-47159651D01*
X59966305Y-47212996D01*
X59966294Y-47213001D01*
X59821959Y-47302029D01*
X59821955Y-47302032D01*
X59702032Y-47421955D01*
X59702029Y-47421959D01*
X59613001Y-47566294D01*
X59612996Y-47566305D01*
X59559651Y-47727290D01*
X59549500Y-47826647D01*
X59549500Y-48673337D01*
X59549501Y-48673355D01*
X59559650Y-48772707D01*
X59559651Y-48772710D01*
X59612996Y-48933694D01*
X59613001Y-48933705D01*
X59702029Y-49078040D01*
X59702032Y-49078044D01*
X59813181Y-49189193D01*
X59846666Y-49250516D01*
X59849500Y-49276874D01*
X59849500Y-63525500D01*
X59829815Y-63592539D01*
X59777011Y-63638294D01*
X59725500Y-63649500D01*
X59012000Y-63649500D01*
X58944961Y-63629815D01*
X58899206Y-63577011D01*
X58888000Y-63525500D01*
X58888000Y-62814750D01*
X58907685Y-62747711D01*
X58960489Y-62701956D01*
X58975093Y-62696370D01*
X59064606Y-62668478D01*
X59210185Y-62580472D01*
X59330472Y-62460185D01*
X59418478Y-62314606D01*
X59469086Y-62152196D01*
X59475500Y-62081616D01*
X59475500Y-61418384D01*
X59469086Y-61347804D01*
X59418478Y-61185394D01*
X59330472Y-61039815D01*
X59330470Y-61039813D01*
X59330469Y-61039811D01*
X59210188Y-60919530D01*
X59064606Y-60831522D01*
X59064605Y-60831521D01*
X58902196Y-60780914D01*
X58902194Y-60780913D01*
X58902192Y-60780913D01*
X58852778Y-60776423D01*
X58831616Y-60774500D01*
X58318384Y-60774500D01*
X58299144Y-60776248D01*
X58247807Y-60780913D01*
X58085393Y-60831522D01*
X57939813Y-60919529D01*
X57837680Y-61021662D01*
X57776357Y-61055146D01*
X57706665Y-61050162D01*
X57662319Y-61021662D01*
X57560185Y-60919528D01*
X57414606Y-60831522D01*
X57252196Y-60780914D01*
X57252194Y-60780913D01*
X57252192Y-60780913D01*
X57202778Y-60776423D01*
X57181616Y-60774500D01*
X56668384Y-60774500D01*
X56649144Y-60776248D01*
X56597807Y-60780913D01*
X56435393Y-60831522D01*
X56289811Y-60919530D01*
X56169530Y-61039811D01*
X56081522Y-61185393D01*
X56030913Y-61347807D01*
X56024500Y-61418386D01*
X56024500Y-62081613D01*
X56030913Y-62152192D01*
X56030913Y-62152194D01*
X56030914Y-62152196D01*
X56081522Y-62314606D01*
X56158235Y-62441505D01*
X56169530Y-62460188D01*
X56188179Y-62478836D01*
X56221666Y-62540158D01*
X56224500Y-62566519D01*
X56224500Y-62664281D01*
X56204815Y-62731320D01*
X56163626Y-62771010D01*
X56161565Y-62772229D01*
X56098439Y-62789500D01*
X55171673Y-62789500D01*
X55104634Y-62769815D01*
X55070098Y-62736623D01*
X55010045Y-62650858D01*
X54849141Y-62489954D01*
X54662734Y-62359432D01*
X54662728Y-62359429D01*
X54604725Y-62332382D01*
X54552285Y-62286210D01*
X54533133Y-62219017D01*
X54553348Y-62152135D01*
X54604725Y-62107618D01*
X54662734Y-62080568D01*
X54849139Y-61950047D01*
X55010047Y-61789139D01*
X55140568Y-61602734D01*
X55236739Y-61396496D01*
X55295635Y-61176692D01*
X55315468Y-60950000D01*
X55295635Y-60723308D01*
X55236739Y-60503504D01*
X55140568Y-60297266D01*
X55010047Y-60110861D01*
X55010045Y-60110858D01*
X54849141Y-59949954D01*
X54662734Y-59819432D01*
X54662728Y-59819429D01*
X54604725Y-59792382D01*
X54552285Y-59746210D01*
X54533133Y-59679017D01*
X54553348Y-59612135D01*
X54604725Y-59567618D01*
X54662734Y-59540568D01*
X54849139Y-59410047D01*
X55010047Y-59249139D01*
X55140568Y-59062734D01*
X55236739Y-58856496D01*
X55295635Y-58636692D01*
X55315468Y-58410000D01*
X55295635Y-58183308D01*
X55236739Y-57963504D01*
X55140568Y-57757266D01*
X55010047Y-57570861D01*
X55010045Y-57570858D01*
X54849141Y-57409954D01*
X54662734Y-57279432D01*
X54662728Y-57279429D01*
X54604725Y-57252382D01*
X54552285Y-57206210D01*
X54533133Y-57139017D01*
X54553348Y-57072135D01*
X54604725Y-57027618D01*
X54662734Y-57000568D01*
X54849139Y-56870047D01*
X55010047Y-56709139D01*
X55140568Y-56522734D01*
X55236739Y-56316496D01*
X55295635Y-56096692D01*
X55315468Y-55870000D01*
X55295635Y-55643308D01*
X55236739Y-55423504D01*
X55140568Y-55217266D01*
X55010047Y-55030861D01*
X55010045Y-55030858D01*
X54849141Y-54869954D01*
X54662734Y-54739432D01*
X54662728Y-54739429D01*
X54604725Y-54712382D01*
X54552285Y-54666210D01*
X54533133Y-54599017D01*
X54553348Y-54532135D01*
X54604725Y-54487618D01*
X54662734Y-54460568D01*
X54849139Y-54330047D01*
X55010047Y-54169139D01*
X55140568Y-53982734D01*
X55236739Y-53776496D01*
X55295635Y-53556692D01*
X55315468Y-53330000D01*
X55295635Y-53103308D01*
X55236739Y-52883504D01*
X55140568Y-52677266D01*
X55010047Y-52490861D01*
X55010045Y-52490858D01*
X54849141Y-52329954D01*
X54662734Y-52199432D01*
X54662732Y-52199431D01*
X54456497Y-52103261D01*
X54456488Y-52103258D01*
X54236697Y-52044366D01*
X54236687Y-52044364D01*
X54066784Y-52029500D01*
X53153216Y-52029500D01*
X52983312Y-52044364D01*
X52983302Y-52044366D01*
X52763511Y-52103258D01*
X52763502Y-52103261D01*
X52557267Y-52199431D01*
X52557265Y-52199432D01*
X52370858Y-52329954D01*
X52209954Y-52490858D01*
X52149902Y-52576623D01*
X52095325Y-52620248D01*
X52048327Y-52629500D01*
X48943037Y-52629500D01*
X48939293Y-52629387D01*
X48877397Y-52625643D01*
X48877390Y-52625643D01*
X48836413Y-52633152D01*
X48816387Y-52636821D01*
X48812698Y-52637383D01*
X48751128Y-52644859D01*
X48751127Y-52644860D01*
X48741653Y-52648453D01*
X48720042Y-52654477D01*
X48710068Y-52656305D01*
X48653513Y-52681757D01*
X48650055Y-52683189D01*
X48592077Y-52705179D01*
X48592074Y-52705180D01*
X48592070Y-52705182D01*
X48592067Y-52705183D01*
X48592061Y-52705187D01*
X48583723Y-52710942D01*
X48564188Y-52721960D01*
X48554948Y-52726119D01*
X48554939Y-52726124D01*
X48506124Y-52764368D01*
X48503109Y-52766586D01*
X48452068Y-52801818D01*
X48410942Y-52848240D01*
X48408375Y-52850966D01*
X48246160Y-53013181D01*
X48184837Y-53046666D01*
X48158480Y-53049500D01*
X47951663Y-53049500D01*
X47951644Y-53049501D01*
X47852292Y-53059650D01*
X47852289Y-53059651D01*
X47691305Y-53112996D01*
X47691294Y-53113001D01*
X47546959Y-53202029D01*
X47546955Y-53202032D01*
X47427032Y-53321955D01*
X47427029Y-53321959D01*
X47338001Y-53466294D01*
X47337996Y-53466305D01*
X47284651Y-53627290D01*
X47274500Y-53726647D01*
X47274500Y-54273337D01*
X47274501Y-54273355D01*
X47284650Y-54372707D01*
X47284651Y-54372710D01*
X47337996Y-54533694D01*
X47338001Y-54533705D01*
X47427029Y-54678040D01*
X47427032Y-54678044D01*
X47546956Y-54797968D01*
X47590597Y-54824886D01*
X47637321Y-54876832D01*
X47649500Y-54930424D01*
X47649500Y-55081530D01*
X47632232Y-55144650D01*
X47598257Y-55202099D01*
X47598254Y-55202106D01*
X47552402Y-55359926D01*
X47552401Y-55359932D01*
X47549500Y-55396804D01*
X47549500Y-56363000D01*
X47529815Y-56430039D01*
X47477011Y-56475794D01*
X47425500Y-56487000D01*
X45779019Y-56487000D01*
X45711980Y-56467315D01*
X45691338Y-56450681D01*
X44753510Y-55512853D01*
X43801598Y-54560941D01*
X43799064Y-54558250D01*
X43757929Y-54511817D01*
X43757928Y-54511816D01*
X43757924Y-54511812D01*
X43706896Y-54476591D01*
X43703887Y-54474377D01*
X43655060Y-54436124D01*
X43655055Y-54436120D01*
X43645813Y-54431961D01*
X43626266Y-54420936D01*
X43617931Y-54415183D01*
X43617932Y-54415183D01*
X43617930Y-54415182D01*
X43559941Y-54393189D01*
X43556490Y-54391759D01*
X43499930Y-54366304D01*
X43489946Y-54364474D01*
X43468343Y-54358451D01*
X43458874Y-54354860D01*
X43458870Y-54354859D01*
X43397313Y-54347384D01*
X43393612Y-54346821D01*
X43332608Y-54335642D01*
X43332603Y-54335642D01*
X43270697Y-54339387D01*
X43266952Y-54339500D01*
X42469325Y-54339500D01*
X42402286Y-54319815D01*
X42363597Y-54280289D01*
X42309127Y-54191402D01*
X42277972Y-54140561D01*
X42122027Y-53957973D01*
X41939439Y-53802028D01*
X41939436Y-53802026D01*
X41734702Y-53676565D01*
X41512865Y-53584678D01*
X41512867Y-53584678D01*
X41512863Y-53584677D01*
X41512859Y-53584676D01*
X41512853Y-53584674D01*
X41279382Y-53528623D01*
X41040000Y-53509783D01*
X40800617Y-53528623D01*
X40567146Y-53584674D01*
X40567134Y-53584678D01*
X40345297Y-53676565D01*
X40140563Y-53802026D01*
X39957973Y-53957973D01*
X39802026Y-54140563D01*
X39676565Y-54345297D01*
X39584678Y-54567134D01*
X39584674Y-54567146D01*
X39528623Y-54800617D01*
X39509783Y-55040000D01*
X39528623Y-55279382D01*
X39584674Y-55512853D01*
X39584678Y-55512865D01*
X39676565Y-55734702D01*
X39802026Y-55939436D01*
X39802028Y-55939439D01*
X39957973Y-56122027D01*
X40140561Y-56277972D01*
X40215109Y-56323655D01*
X40345297Y-56403434D01*
X40409528Y-56430039D01*
X40567137Y-56495323D01*
X40800621Y-56551377D01*
X41040000Y-56570217D01*
X41279379Y-56551377D01*
X41512863Y-56495323D01*
X41734704Y-56403433D01*
X41939439Y-56277972D01*
X42122027Y-56122027D01*
X42277972Y-55939439D01*
X42363596Y-55799711D01*
X42415409Y-55752835D01*
X42469325Y-55740500D01*
X42948481Y-55740500D01*
X43015520Y-55760185D01*
X43036162Y-55776819D01*
X44925899Y-57666556D01*
X44928435Y-57669250D01*
X44969571Y-57715683D01*
X45020630Y-57750927D01*
X45023612Y-57753121D01*
X45072444Y-57791378D01*
X45072447Y-57791380D01*
X45072446Y-57791380D01*
X45081677Y-57795534D01*
X45101231Y-57806562D01*
X45109566Y-57812316D01*
X45109568Y-57812316D01*
X45109570Y-57812318D01*
X45167579Y-57834317D01*
X45170976Y-57835724D01*
X45218270Y-57857009D01*
X45227564Y-57861193D01*
X45227565Y-57861193D01*
X45227569Y-57861195D01*
X45237534Y-57863021D01*
X45259156Y-57869048D01*
X45262277Y-57870231D01*
X45268628Y-57872640D01*
X45313751Y-57878118D01*
X45330174Y-57880113D01*
X45333871Y-57880675D01*
X45394894Y-57891858D01*
X45450252Y-57888509D01*
X45456803Y-57888113D01*
X45460548Y-57888000D01*
X47425500Y-57888000D01*
X47492539Y-57907685D01*
X47538294Y-57960489D01*
X47549500Y-58012000D01*
X47549500Y-58828196D01*
X47552401Y-58865067D01*
X47552402Y-58865073D01*
X47598254Y-59022893D01*
X47598255Y-59022896D01*
X47681917Y-59164362D01*
X47681923Y-59164370D01*
X47798129Y-59280576D01*
X47798133Y-59280579D01*
X47798135Y-59280581D01*
X47939602Y-59364244D01*
X47981224Y-59376336D01*
X48097426Y-59410097D01*
X48097429Y-59410097D01*
X48097431Y-59410098D01*
X48109722Y-59411065D01*
X48134304Y-59413000D01*
X48134306Y-59413000D01*
X48565696Y-59413000D01*
X48584131Y-59411549D01*
X48602569Y-59410098D01*
X48715528Y-59377280D01*
X48785397Y-59377479D01*
X48844067Y-59415421D01*
X48872911Y-59479059D01*
X48862770Y-59548189D01*
X48837805Y-59584037D01*
X48508660Y-59913182D01*
X48447339Y-59946666D01*
X48420981Y-59949500D01*
X48084304Y-59949500D01*
X48047432Y-59952401D01*
X48047426Y-59952402D01*
X47889606Y-59998254D01*
X47889603Y-59998255D01*
X47748137Y-60081917D01*
X47748129Y-60081923D01*
X47631923Y-60198129D01*
X47631917Y-60198137D01*
X47544285Y-60346317D01*
X47542572Y-60345303D01*
X47504583Y-60390956D01*
X47437950Y-60411975D01*
X47435474Y-60412000D01*
X47132778Y-60412000D01*
X47067681Y-60393538D01*
X47058705Y-60388001D01*
X47058699Y-60387998D01*
X47058697Y-60387997D01*
X47058694Y-60387996D01*
X46897709Y-60334651D01*
X46798346Y-60324500D01*
X46201662Y-60324500D01*
X46201644Y-60324501D01*
X46102292Y-60334650D01*
X46102289Y-60334651D01*
X45941305Y-60387996D01*
X45941294Y-60388001D01*
X45796959Y-60477029D01*
X45796955Y-60477032D01*
X45677032Y-60596955D01*
X45677029Y-60596959D01*
X45588001Y-60741294D01*
X45587996Y-60741305D01*
X45534651Y-60902290D01*
X45524500Y-61001647D01*
X45524500Y-61548337D01*
X45524501Y-61548355D01*
X45534650Y-61647707D01*
X45534651Y-61647710D01*
X45587996Y-61808694D01*
X45588001Y-61808705D01*
X45677029Y-61953040D01*
X45677032Y-61953044D01*
X45796955Y-62072967D01*
X45796959Y-62072970D01*
X45941294Y-62161998D01*
X45941297Y-62161999D01*
X45941303Y-62162003D01*
X46102292Y-62215349D01*
X46144663Y-62219677D01*
X46209354Y-62246072D01*
X46249506Y-62303252D01*
X46252370Y-62373063D01*
X46219742Y-62430716D01*
X43847279Y-64803181D01*
X43785956Y-64836666D01*
X43759598Y-64839500D01*
X42469325Y-64839500D01*
X42402286Y-64819815D01*
X42363597Y-64780289D01*
X42286229Y-64654035D01*
X42277972Y-64640561D01*
X42122027Y-64457973D01*
X41939439Y-64302028D01*
X41843729Y-64243377D01*
X41734702Y-64176565D01*
X41512865Y-64084678D01*
X41512867Y-64084678D01*
X41512863Y-64084677D01*
X41512859Y-64084676D01*
X41512853Y-64084674D01*
X41279382Y-64028623D01*
X41099844Y-64014493D01*
X41040000Y-64009783D01*
X41039999Y-64009783D01*
X40800617Y-64028623D01*
X40567146Y-64084674D01*
X40567134Y-64084678D01*
X40345297Y-64176565D01*
X40140563Y-64302026D01*
X39957973Y-64457973D01*
X39802026Y-64640563D01*
X39676565Y-64845297D01*
X39584678Y-65067134D01*
X39584674Y-65067146D01*
X39528623Y-65300617D01*
X39509783Y-65539999D01*
X39528623Y-65779382D01*
X39584674Y-66012853D01*
X39584676Y-66012859D01*
X39584677Y-66012863D01*
X39588366Y-66021768D01*
X39676565Y-66234702D01*
X39759172Y-66369504D01*
X39802028Y-66439439D01*
X39957973Y-66622027D01*
X40140561Y-66777972D01*
X40215933Y-66824159D01*
X40345297Y-66903434D01*
X40438429Y-66942010D01*
X40567137Y-66995323D01*
X40800621Y-67051377D01*
X41040000Y-67070217D01*
X41279379Y-67051377D01*
X41512863Y-66995323D01*
X41734704Y-66903433D01*
X41939439Y-66777972D01*
X42122027Y-66622027D01*
X42277972Y-66439439D01*
X42363596Y-66299711D01*
X42415409Y-66252835D01*
X42469325Y-66240500D01*
X44078069Y-66240500D01*
X44081814Y-66240613D01*
X44089159Y-66241057D01*
X44143723Y-66244358D01*
X44181431Y-66237447D01*
X44204738Y-66233177D01*
X44208442Y-66232613D01*
X44226287Y-66230446D01*
X44269989Y-66225140D01*
X44279452Y-66221550D01*
X44301078Y-66215522D01*
X44302010Y-66215351D01*
X44311049Y-66213695D01*
X44367629Y-66188229D01*
X44371059Y-66186809D01*
X44429047Y-66164818D01*
X44437383Y-66159062D01*
X44456938Y-66148034D01*
X44466174Y-66143878D01*
X44515013Y-66105613D01*
X44517993Y-66103421D01*
X44569046Y-66068183D01*
X44610182Y-66021748D01*
X44612716Y-66019056D01*
X47287818Y-63343953D01*
X47349142Y-63310469D01*
X47418834Y-63315453D01*
X47474767Y-63357325D01*
X47499184Y-63422789D01*
X47499500Y-63431635D01*
X47499500Y-63965696D01*
X47502401Y-64002567D01*
X47502402Y-64002573D01*
X47548254Y-64160393D01*
X47548255Y-64160396D01*
X47631917Y-64301862D01*
X47631923Y-64301870D01*
X47748129Y-64418076D01*
X47748133Y-64418079D01*
X47748135Y-64418081D01*
X47889602Y-64501744D01*
X47931224Y-64513836D01*
X48047426Y-64547597D01*
X48047429Y-64547597D01*
X48047431Y-64547598D01*
X48059722Y-64548565D01*
X48084304Y-64550500D01*
X48084306Y-64550500D01*
X48515696Y-64550500D01*
X48534805Y-64548996D01*
X48552569Y-64547598D01*
X48552571Y-64547597D01*
X48552573Y-64547597D01*
X48594191Y-64535505D01*
X48710398Y-64501744D01*
X48711874Y-64500870D01*
X48713183Y-64500538D01*
X48717557Y-64498646D01*
X48717862Y-64499351D01*
X48779597Y-64483685D01*
X48832233Y-64499138D01*
X48832446Y-64498647D01*
X48836427Y-64500370D01*
X48838118Y-64500866D01*
X48839602Y-64501744D01*
X48881224Y-64513836D01*
X48997426Y-64547597D01*
X48997429Y-64547597D01*
X48997431Y-64547598D01*
X49015202Y-64548996D01*
X49080490Y-64573877D01*
X49121963Y-64630106D01*
X49126453Y-64699832D01*
X49097388Y-64752173D01*
X49099027Y-64753529D01*
X49063087Y-64796970D01*
X49059155Y-64801291D01*
X48809138Y-65051308D01*
X48747815Y-65084793D01*
X48731187Y-65087245D01*
X48697431Y-65089901D01*
X48697426Y-65089902D01*
X48539606Y-65135754D01*
X48539605Y-65135754D01*
X48539601Y-65135756D01*
X48539602Y-65135756D01*
X48538118Y-65136633D01*
X48536804Y-65136966D01*
X48532446Y-65138853D01*
X48532141Y-65138149D01*
X48470396Y-65153815D01*
X48417766Y-65138361D01*
X48417554Y-65138853D01*
X48413573Y-65137130D01*
X48411881Y-65136633D01*
X48410398Y-65135756D01*
X48410394Y-65135755D01*
X48410393Y-65135754D01*
X48252573Y-65089902D01*
X48252567Y-65089901D01*
X48215696Y-65087000D01*
X48215694Y-65087000D01*
X47784306Y-65087000D01*
X47784304Y-65087000D01*
X47747432Y-65089901D01*
X47747426Y-65089902D01*
X47589606Y-65135754D01*
X47589603Y-65135755D01*
X47448137Y-65219417D01*
X47448129Y-65219423D01*
X47331923Y-65335629D01*
X47331917Y-65335637D01*
X47293558Y-65400500D01*
X47250689Y-65472989D01*
X47244285Y-65483817D01*
X47242572Y-65482803D01*
X47204583Y-65528456D01*
X47137950Y-65549475D01*
X47135474Y-65549500D01*
X47051874Y-65549500D01*
X46984835Y-65529815D01*
X46964193Y-65513181D01*
X46953044Y-65502032D01*
X46953040Y-65502029D01*
X46808705Y-65413001D01*
X46808699Y-65412998D01*
X46808697Y-65412997D01*
X46770983Y-65400500D01*
X46647709Y-65359651D01*
X46582725Y-65353012D01*
X46559333Y-65348315D01*
X46446130Y-65313975D01*
X46250000Y-65294659D01*
X46053869Y-65313975D01*
X45940662Y-65348316D01*
X45917269Y-65353013D01*
X45852290Y-65359651D01*
X45691305Y-65412996D01*
X45691294Y-65413001D01*
X45546959Y-65502029D01*
X45546955Y-65502032D01*
X45427032Y-65621955D01*
X45427029Y-65621959D01*
X45338001Y-65766294D01*
X45337996Y-65766305D01*
X45284651Y-65927290D01*
X45274500Y-66026647D01*
X45274500Y-66050781D01*
X45269161Y-66086775D01*
X45263975Y-66103868D01*
X45244659Y-66300000D01*
X45263975Y-66496126D01*
X45263977Y-66496139D01*
X45269161Y-66513227D01*
X45274500Y-66549214D01*
X45274500Y-66573335D01*
X45274501Y-66573356D01*
X45284650Y-66672707D01*
X45284651Y-66672710D01*
X45337996Y-66833694D01*
X45338001Y-66833705D01*
X45427029Y-66978040D01*
X45427032Y-66978044D01*
X45546955Y-67097967D01*
X45546959Y-67097970D01*
X45691294Y-67186998D01*
X45691297Y-67186999D01*
X45691303Y-67187003D01*
X45852292Y-67240349D01*
X45915002Y-67246754D01*
X45917275Y-67246987D01*
X45940671Y-67251685D01*
X46053866Y-67286024D01*
X46086142Y-67289202D01*
X46250000Y-67305341D01*
X46446132Y-67286024D01*
X46559335Y-67251683D01*
X46582728Y-67246986D01*
X46647708Y-67240349D01*
X46808697Y-67187003D01*
X46953044Y-67097968D01*
X47053411Y-66997600D01*
X47114730Y-66964118D01*
X47184422Y-66969102D01*
X47240356Y-67010973D01*
X47247821Y-67022163D01*
X47331916Y-67164361D01*
X47331923Y-67164370D01*
X47448129Y-67280576D01*
X47448140Y-67280585D01*
X47448455Y-67280771D01*
X47448650Y-67280980D01*
X47454298Y-67285361D01*
X47453591Y-67286272D01*
X47496136Y-67331843D01*
X47508637Y-67400585D01*
X47481988Y-67465173D01*
X47454078Y-67489356D01*
X47454298Y-67489639D01*
X47449092Y-67493676D01*
X47448455Y-67494229D01*
X47448140Y-67494414D01*
X47448129Y-67494423D01*
X47331923Y-67610629D01*
X47331917Y-67610637D01*
X47248255Y-67752103D01*
X47248254Y-67752106D01*
X47202402Y-67909926D01*
X47202401Y-67909932D01*
X47199500Y-67946804D01*
X47199500Y-68329191D01*
X47179815Y-68396230D01*
X47163181Y-68416872D01*
X44655484Y-70924568D01*
X44642910Y-70934643D01*
X44643065Y-70934830D01*
X44637059Y-70939798D01*
X44612434Y-70966021D01*
X44587809Y-70992244D01*
X44576948Y-71003104D01*
X44566088Y-71013965D01*
X44566078Y-71013977D01*
X44561587Y-71019765D01*
X44557801Y-71024197D01*
X44524552Y-71059606D01*
X44514322Y-71078213D01*
X44503646Y-71094464D01*
X44490640Y-71111232D01*
X44490636Y-71111238D01*
X44471348Y-71155811D01*
X44468777Y-71161058D01*
X44445372Y-71203630D01*
X44445372Y-71203631D01*
X44440091Y-71224199D01*
X44433791Y-71242601D01*
X44425364Y-71262073D01*
X44417766Y-71310047D01*
X44416581Y-71315769D01*
X44404500Y-71362822D01*
X44404499Y-71362829D01*
X44404499Y-71384047D01*
X44402973Y-71403436D01*
X44399653Y-71424402D01*
X44399653Y-71424404D01*
X44404225Y-71472767D01*
X44404500Y-71478606D01*
X44404500Y-73290157D01*
X44384815Y-73357196D01*
X44368181Y-73377838D01*
X42892839Y-74853181D01*
X42831516Y-74886666D01*
X42805158Y-74889500D01*
X42499965Y-74889500D01*
X42432926Y-74869815D01*
X42394237Y-74830290D01*
X42380344Y-74807618D01*
X42277972Y-74640561D01*
X42122027Y-74457973D01*
X41939439Y-74302028D01*
X41939436Y-74302026D01*
X41734702Y-74176565D01*
X41512865Y-74084678D01*
X41512867Y-74084678D01*
X41512863Y-74084677D01*
X41512859Y-74084676D01*
X41512853Y-74084674D01*
X41279382Y-74028623D01*
X41040000Y-74009783D01*
X40800617Y-74028623D01*
X40567146Y-74084674D01*
X40567134Y-74084678D01*
X40345297Y-74176565D01*
X40140563Y-74302026D01*
X39957973Y-74457973D01*
X39802026Y-74640563D01*
X39676565Y-74845297D01*
X39584678Y-75067134D01*
X39584674Y-75067146D01*
X39528623Y-75300617D01*
X39509783Y-75540000D01*
X39528623Y-75779382D01*
X39584674Y-76012853D01*
X39584676Y-76012859D01*
X39584677Y-76012863D01*
X39591956Y-76030436D01*
X39676565Y-76234702D01*
X39788092Y-76416697D01*
X39802028Y-76439439D01*
X39957973Y-76622027D01*
X40140561Y-76777972D01*
X40140563Y-76777973D01*
X40345297Y-76903434D01*
X40442047Y-76943508D01*
X40567137Y-76995323D01*
X40800621Y-77051377D01*
X41040000Y-77070217D01*
X41279379Y-77051377D01*
X41512863Y-76995323D01*
X41734704Y-76903433D01*
X41939439Y-76777972D01*
X42122027Y-76622027D01*
X42277972Y-76439439D01*
X42394237Y-76249709D01*
X42446049Y-76202835D01*
X42499965Y-76190500D01*
X43040461Y-76190500D01*
X43056471Y-76192267D01*
X43056494Y-76192026D01*
X43064255Y-76192758D01*
X43064262Y-76192760D01*
X43136169Y-76190500D01*
X43166891Y-76190500D01*
X43174156Y-76189581D01*
X43179982Y-76189122D01*
X43228535Y-76187597D01*
X43248922Y-76181673D01*
X43267962Y-76177731D01*
X43289024Y-76175071D01*
X43334201Y-76157183D01*
X43339701Y-76155300D01*
X43386364Y-76141744D01*
X43404631Y-76130939D01*
X43422102Y-76122380D01*
X43441837Y-76114568D01*
X43481143Y-76086010D01*
X43486009Y-76082813D01*
X43527831Y-76058081D01*
X43542836Y-76043075D01*
X43557634Y-76030436D01*
X43574803Y-76017963D01*
X43605775Y-75980522D01*
X43609689Y-75976221D01*
X45454513Y-74131397D01*
X45467079Y-74121331D01*
X45466925Y-74121144D01*
X45472937Y-74116170D01*
X45472937Y-74116169D01*
X45472940Y-74116168D01*
X45522190Y-74063721D01*
X45543911Y-74042001D01*
X45548401Y-74036211D01*
X45552183Y-74031781D01*
X45585448Y-73996359D01*
X45595674Y-73977756D01*
X45606353Y-73961499D01*
X45619362Y-73944730D01*
X45638663Y-73900125D01*
X45641207Y-73894931D01*
X45664627Y-73852334D01*
X45669907Y-73831768D01*
X45676209Y-73813361D01*
X45684635Y-73793892D01*
X45692233Y-73745914D01*
X45693411Y-73740219D01*
X45705500Y-73693143D01*
X45705500Y-73671921D01*
X45707027Y-73652521D01*
X45707427Y-73649998D01*
X45710347Y-73631561D01*
X45705775Y-73583196D01*
X45705500Y-73577358D01*
X45705500Y-71765807D01*
X45725185Y-71698768D01*
X45741814Y-71678131D01*
X47695626Y-69724318D01*
X47756949Y-69690834D01*
X47783307Y-69688000D01*
X48215696Y-69688000D01*
X48234131Y-69686549D01*
X48252569Y-69685098D01*
X48252571Y-69685097D01*
X48252573Y-69685097D01*
X48294191Y-69673005D01*
X48410398Y-69639244D01*
X48551865Y-69555581D01*
X48668081Y-69439365D01*
X48751744Y-69297898D01*
X48797598Y-69140069D01*
X48800500Y-69103194D01*
X48800500Y-67946806D01*
X48797598Y-67909931D01*
X48790883Y-67886819D01*
X48751745Y-67752106D01*
X48751744Y-67752103D01*
X48751744Y-67752102D01*
X48668081Y-67610635D01*
X48664110Y-67603920D01*
X48665928Y-67602844D01*
X48644381Y-67547968D01*
X48658059Y-67479450D01*
X48706609Y-67429204D01*
X48767895Y-67413000D01*
X49165696Y-67413000D01*
X49184131Y-67411549D01*
X49202569Y-67410098D01*
X49202571Y-67410097D01*
X49202573Y-67410097D01*
X49280351Y-67387500D01*
X49360398Y-67364244D01*
X49361874Y-67363370D01*
X49363183Y-67363038D01*
X49367557Y-67361146D01*
X49367862Y-67361851D01*
X49429597Y-67346185D01*
X49482229Y-67361639D01*
X49482443Y-67361146D01*
X49486441Y-67362876D01*
X49488125Y-67363370D01*
X49489602Y-67364244D01*
X49526125Y-67374855D01*
X49647426Y-67410097D01*
X49647429Y-67410097D01*
X49647431Y-67410098D01*
X49655792Y-67410756D01*
X49684304Y-67413000D01*
X49684306Y-67413000D01*
X49925500Y-67413000D01*
X49992539Y-67432685D01*
X50038294Y-67485489D01*
X50049500Y-67537000D01*
X50049500Y-70150500D01*
X50029815Y-70217539D01*
X49977011Y-70263294D01*
X49925500Y-70274500D01*
X49818384Y-70274500D01*
X49799144Y-70276248D01*
X49747807Y-70280913D01*
X49585393Y-70331522D01*
X49439813Y-70419529D01*
X49337680Y-70521662D01*
X49276357Y-70555146D01*
X49206665Y-70550162D01*
X49162319Y-70521662D01*
X49060185Y-70419528D01*
X48914606Y-70331522D01*
X48752196Y-70280914D01*
X48752194Y-70280913D01*
X48752192Y-70280913D01*
X48702778Y-70276423D01*
X48681616Y-70274500D01*
X48168384Y-70274500D01*
X48149144Y-70276248D01*
X48097807Y-70280913D01*
X47935393Y-70331522D01*
X47789811Y-70419530D01*
X47669530Y-70539811D01*
X47581522Y-70685393D01*
X47530913Y-70847807D01*
X47524500Y-70918386D01*
X47524500Y-71581613D01*
X47530913Y-71652192D01*
X47530913Y-71652194D01*
X47530914Y-71652196D01*
X47581522Y-71814606D01*
X47663246Y-71949794D01*
X47669530Y-71960188D01*
X47688179Y-71978836D01*
X47721666Y-72040158D01*
X47724500Y-72066519D01*
X47724500Y-76036425D01*
X47704815Y-76103464D01*
X47688181Y-76124106D01*
X44519106Y-79293181D01*
X44457783Y-79326666D01*
X44431425Y-79329500D01*
X38661742Y-79329500D01*
X38657998Y-79329387D01*
X38596102Y-79325643D01*
X38596095Y-79325643D01*
X38535107Y-79336819D01*
X38531406Y-79337382D01*
X38469830Y-79344860D01*
X38460347Y-79348456D01*
X38438743Y-79354478D01*
X38437240Y-79354754D01*
X38428770Y-79356306D01*
X38428768Y-79356307D01*
X38372232Y-79381752D01*
X38368774Y-79383184D01*
X38310774Y-79405182D01*
X38302429Y-79410942D01*
X38282888Y-79421964D01*
X38273649Y-79426122D01*
X38273644Y-79426125D01*
X38224826Y-79464370D01*
X38221811Y-79466589D01*
X38170777Y-79501816D01*
X38170770Y-79501822D01*
X38129647Y-79548240D01*
X38127080Y-79550966D01*
X36686727Y-80991319D01*
X36684001Y-80993886D01*
X36637579Y-81035012D01*
X36602347Y-81086053D01*
X36600129Y-81089068D01*
X36561885Y-81137883D01*
X36561880Y-81137892D01*
X36557721Y-81147132D01*
X36546703Y-81166667D01*
X36540948Y-81175005D01*
X36540944Y-81175011D01*
X36540943Y-81175014D01*
X36540941Y-81175018D01*
X36540940Y-81175021D01*
X36518950Y-81232999D01*
X36517518Y-81236457D01*
X36492066Y-81293012D01*
X36490238Y-81302986D01*
X36484214Y-81324597D01*
X36480621Y-81334071D01*
X36480620Y-81334072D01*
X36473145Y-81395629D01*
X36472582Y-81399330D01*
X36461403Y-81460334D01*
X36461403Y-81460339D01*
X36465148Y-81522246D01*
X36465261Y-81525991D01*
X36465261Y-94632712D01*
X36465148Y-94636457D01*
X36461403Y-94698364D01*
X36461403Y-94698366D01*
X35010500Y-94698366D01*
X35010500Y-48250001D01*
X51904532Y-48250001D01*
X51924364Y-48476686D01*
X51924366Y-48476697D01*
X51983258Y-48696488D01*
X51983261Y-48696497D01*
X52079431Y-48902732D01*
X52079432Y-48902734D01*
X52209954Y-49089141D01*
X52370858Y-49250045D01*
X52370861Y-49250047D01*
X52557266Y-49380568D01*
X52763504Y-49476739D01*
X52763509Y-49476740D01*
X52763511Y-49476741D01*
X52811129Y-49489500D01*
X52983308Y-49535635D01*
X53153216Y-49550500D01*
X54066784Y-49550500D01*
X54236692Y-49535635D01*
X54456496Y-49476739D01*
X54662734Y-49380568D01*
X54849139Y-49250047D01*
X54909995Y-49189191D01*
X55012368Y-49086819D01*
X55073691Y-49053334D01*
X55100049Y-49050500D01*
X56323126Y-49050500D01*
X56390165Y-49070185D01*
X56410807Y-49086819D01*
X56521955Y-49197967D01*
X56521959Y-49197970D01*
X56666294Y-49286998D01*
X56666297Y-49286999D01*
X56666303Y-49287003D01*
X56827292Y-49340349D01*
X56926655Y-49350500D01*
X57473344Y-49350499D01*
X57473352Y-49350498D01*
X57473355Y-49350498D01*
X57527760Y-49344940D01*
X57572708Y-49340349D01*
X57733697Y-49287003D01*
X57878044Y-49197968D01*
X57997968Y-49078044D01*
X58087003Y-48933697D01*
X58140349Y-48772708D01*
X58150500Y-48673345D01*
X58150499Y-47826656D01*
X58140349Y-47727292D01*
X58087003Y-47566303D01*
X58086999Y-47566297D01*
X58086998Y-47566294D01*
X57997970Y-47421959D01*
X57997967Y-47421955D01*
X57878044Y-47302032D01*
X57878040Y-47302029D01*
X57733705Y-47213001D01*
X57733699Y-47212998D01*
X57733697Y-47212997D01*
X57733694Y-47212996D01*
X57572709Y-47159651D01*
X57473346Y-47149500D01*
X56926662Y-47149500D01*
X56926644Y-47149501D01*
X56827292Y-47159650D01*
X56827289Y-47159651D01*
X56666305Y-47212996D01*
X56666294Y-47213001D01*
X56521959Y-47302029D01*
X56521955Y-47302032D01*
X56410807Y-47413181D01*
X56349484Y-47446666D01*
X56323126Y-47449500D01*
X55100049Y-47449500D01*
X55033010Y-47429815D01*
X55012368Y-47413181D01*
X54849141Y-47249954D01*
X54662734Y-47119432D01*
X54662732Y-47119431D01*
X54456497Y-47023261D01*
X54456488Y-47023258D01*
X54236697Y-46964366D01*
X54236687Y-46964364D01*
X54066784Y-46949500D01*
X53153216Y-46949500D01*
X52983312Y-46964364D01*
X52983302Y-46964366D01*
X52763511Y-47023258D01*
X52763502Y-47023261D01*
X52557267Y-47119431D01*
X52557265Y-47119432D01*
X52370858Y-47249954D01*
X52209954Y-47410858D01*
X52079432Y-47597265D01*
X52079431Y-47597267D01*
X51983261Y-47803502D01*
X51983258Y-47803511D01*
X51924366Y-48023302D01*
X51924364Y-48023313D01*
X51904532Y-48249998D01*
X51904532Y-48250001D01*
X35010500Y-48250001D01*
X35010500Y-45134500D01*
X35030185Y-45067461D01*
X35082989Y-45021706D01*
X35134500Y-45010500D01*
X77365500Y-45010500D01*
X77432539Y-45030185D01*
G37*
%TD.AperFunction*%
%TD*%
M02*
