%TF.GenerationSoftware,KiCad,Pcbnew,7.0.6-0*%
%TF.CreationDate,2023-12-30T17:34:11-06:00*%
%TF.ProjectId,fpga_adaptor,66706761-5f61-4646-9170-746f722e6b69,rev?*%
%TF.SameCoordinates,Original*%
%TF.FileFunction,Legend,Top*%
%TF.FilePolarity,Positive*%
%FSLAX46Y46*%
G04 Gerber Fmt 4.6, Leading zero omitted, Abs format (unit mm)*
G04 Created by KiCad (PCBNEW 7.0.6-0) date 2023-12-30 17:34:11*
%MOMM*%
%LPD*%
G01*
G04 APERTURE LIST*
%ADD10C,0.150000*%
%ADD11C,0.120000*%
G04 APERTURE END LIST*
D10*
X56357142Y-91109580D02*
X56309523Y-91157200D01*
X56309523Y-91157200D02*
X56166666Y-91204819D01*
X56166666Y-91204819D02*
X56071428Y-91204819D01*
X56071428Y-91204819D02*
X55928571Y-91157200D01*
X55928571Y-91157200D02*
X55833333Y-91061961D01*
X55833333Y-91061961D02*
X55785714Y-90966723D01*
X55785714Y-90966723D02*
X55738095Y-90776247D01*
X55738095Y-90776247D02*
X55738095Y-90633390D01*
X55738095Y-90633390D02*
X55785714Y-90442914D01*
X55785714Y-90442914D02*
X55833333Y-90347676D01*
X55833333Y-90347676D02*
X55928571Y-90252438D01*
X55928571Y-90252438D02*
X56071428Y-90204819D01*
X56071428Y-90204819D02*
X56166666Y-90204819D01*
X56166666Y-90204819D02*
X56309523Y-90252438D01*
X56309523Y-90252438D02*
X56357142Y-90300057D01*
X57309523Y-91204819D02*
X56738095Y-91204819D01*
X57023809Y-91204819D02*
X57023809Y-90204819D01*
X57023809Y-90204819D02*
X56928571Y-90347676D01*
X56928571Y-90347676D02*
X56833333Y-90442914D01*
X56833333Y-90442914D02*
X56738095Y-90490533D01*
X57690476Y-90300057D02*
X57738095Y-90252438D01*
X57738095Y-90252438D02*
X57833333Y-90204819D01*
X57833333Y-90204819D02*
X58071428Y-90204819D01*
X58071428Y-90204819D02*
X58166666Y-90252438D01*
X58166666Y-90252438D02*
X58214285Y-90300057D01*
X58214285Y-90300057D02*
X58261904Y-90395295D01*
X58261904Y-90395295D02*
X58261904Y-90490533D01*
X58261904Y-90490533D02*
X58214285Y-90633390D01*
X58214285Y-90633390D02*
X57642857Y-91204819D01*
X57642857Y-91204819D02*
X58261904Y-91204819D01*
X46333333Y-94454819D02*
X46000000Y-93978628D01*
X45761905Y-94454819D02*
X45761905Y-93454819D01*
X45761905Y-93454819D02*
X46142857Y-93454819D01*
X46142857Y-93454819D02*
X46238095Y-93502438D01*
X46238095Y-93502438D02*
X46285714Y-93550057D01*
X46285714Y-93550057D02*
X46333333Y-93645295D01*
X46333333Y-93645295D02*
X46333333Y-93788152D01*
X46333333Y-93788152D02*
X46285714Y-93883390D01*
X46285714Y-93883390D02*
X46238095Y-93931009D01*
X46238095Y-93931009D02*
X46142857Y-93978628D01*
X46142857Y-93978628D02*
X45761905Y-93978628D01*
X47238095Y-93454819D02*
X46761905Y-93454819D01*
X46761905Y-93454819D02*
X46714286Y-93931009D01*
X46714286Y-93931009D02*
X46761905Y-93883390D01*
X46761905Y-93883390D02*
X46857143Y-93835771D01*
X46857143Y-93835771D02*
X47095238Y-93835771D01*
X47095238Y-93835771D02*
X47190476Y-93883390D01*
X47190476Y-93883390D02*
X47238095Y-93931009D01*
X47238095Y-93931009D02*
X47285714Y-94026247D01*
X47285714Y-94026247D02*
X47285714Y-94264342D01*
X47285714Y-94264342D02*
X47238095Y-94359580D01*
X47238095Y-94359580D02*
X47190476Y-94407200D01*
X47190476Y-94407200D02*
X47095238Y-94454819D01*
X47095238Y-94454819D02*
X46857143Y-94454819D01*
X46857143Y-94454819D02*
X46761905Y-94407200D01*
X46761905Y-94407200D02*
X46714286Y-94359580D01*
X67107142Y-104859580D02*
X67059523Y-104907200D01*
X67059523Y-104907200D02*
X66916666Y-104954819D01*
X66916666Y-104954819D02*
X66821428Y-104954819D01*
X66821428Y-104954819D02*
X66678571Y-104907200D01*
X66678571Y-104907200D02*
X66583333Y-104811961D01*
X66583333Y-104811961D02*
X66535714Y-104716723D01*
X66535714Y-104716723D02*
X66488095Y-104526247D01*
X66488095Y-104526247D02*
X66488095Y-104383390D01*
X66488095Y-104383390D02*
X66535714Y-104192914D01*
X66535714Y-104192914D02*
X66583333Y-104097676D01*
X66583333Y-104097676D02*
X66678571Y-104002438D01*
X66678571Y-104002438D02*
X66821428Y-103954819D01*
X66821428Y-103954819D02*
X66916666Y-103954819D01*
X66916666Y-103954819D02*
X67059523Y-104002438D01*
X67059523Y-104002438D02*
X67107142Y-104050057D01*
X68059523Y-104954819D02*
X67488095Y-104954819D01*
X67773809Y-104954819D02*
X67773809Y-103954819D01*
X67773809Y-103954819D02*
X67678571Y-104097676D01*
X67678571Y-104097676D02*
X67583333Y-104192914D01*
X67583333Y-104192914D02*
X67488095Y-104240533D01*
X68916666Y-103954819D02*
X68726190Y-103954819D01*
X68726190Y-103954819D02*
X68630952Y-104002438D01*
X68630952Y-104002438D02*
X68583333Y-104050057D01*
X68583333Y-104050057D02*
X68488095Y-104192914D01*
X68488095Y-104192914D02*
X68440476Y-104383390D01*
X68440476Y-104383390D02*
X68440476Y-104764342D01*
X68440476Y-104764342D02*
X68488095Y-104859580D01*
X68488095Y-104859580D02*
X68535714Y-104907200D01*
X68535714Y-104907200D02*
X68630952Y-104954819D01*
X68630952Y-104954819D02*
X68821428Y-104954819D01*
X68821428Y-104954819D02*
X68916666Y-104907200D01*
X68916666Y-104907200D02*
X68964285Y-104859580D01*
X68964285Y-104859580D02*
X69011904Y-104764342D01*
X69011904Y-104764342D02*
X69011904Y-104526247D01*
X69011904Y-104526247D02*
X68964285Y-104431009D01*
X68964285Y-104431009D02*
X68916666Y-104383390D01*
X68916666Y-104383390D02*
X68821428Y-104335771D01*
X68821428Y-104335771D02*
X68630952Y-104335771D01*
X68630952Y-104335771D02*
X68535714Y-104383390D01*
X68535714Y-104383390D02*
X68488095Y-104431009D01*
X68488095Y-104431009D02*
X68440476Y-104526247D01*
X46633333Y-131959580D02*
X46585714Y-132007200D01*
X46585714Y-132007200D02*
X46442857Y-132054819D01*
X46442857Y-132054819D02*
X46347619Y-132054819D01*
X46347619Y-132054819D02*
X46204762Y-132007200D01*
X46204762Y-132007200D02*
X46109524Y-131911961D01*
X46109524Y-131911961D02*
X46061905Y-131816723D01*
X46061905Y-131816723D02*
X46014286Y-131626247D01*
X46014286Y-131626247D02*
X46014286Y-131483390D01*
X46014286Y-131483390D02*
X46061905Y-131292914D01*
X46061905Y-131292914D02*
X46109524Y-131197676D01*
X46109524Y-131197676D02*
X46204762Y-131102438D01*
X46204762Y-131102438D02*
X46347619Y-131054819D01*
X46347619Y-131054819D02*
X46442857Y-131054819D01*
X46442857Y-131054819D02*
X46585714Y-131102438D01*
X46585714Y-131102438D02*
X46633333Y-131150057D01*
X47490476Y-131388152D02*
X47490476Y-132054819D01*
X47252381Y-131007200D02*
X47014286Y-131721485D01*
X47014286Y-131721485D02*
X47633333Y-131721485D01*
X57264580Y-114367857D02*
X57312200Y-114415476D01*
X57312200Y-114415476D02*
X57359819Y-114558333D01*
X57359819Y-114558333D02*
X57359819Y-114653571D01*
X57359819Y-114653571D02*
X57312200Y-114796428D01*
X57312200Y-114796428D02*
X57216961Y-114891666D01*
X57216961Y-114891666D02*
X57121723Y-114939285D01*
X57121723Y-114939285D02*
X56931247Y-114986904D01*
X56931247Y-114986904D02*
X56788390Y-114986904D01*
X56788390Y-114986904D02*
X56597914Y-114939285D01*
X56597914Y-114939285D02*
X56502676Y-114891666D01*
X56502676Y-114891666D02*
X56407438Y-114796428D01*
X56407438Y-114796428D02*
X56359819Y-114653571D01*
X56359819Y-114653571D02*
X56359819Y-114558333D01*
X56359819Y-114558333D02*
X56407438Y-114415476D01*
X56407438Y-114415476D02*
X56455057Y-114367857D01*
X57359819Y-113415476D02*
X57359819Y-113986904D01*
X57359819Y-113701190D02*
X56359819Y-113701190D01*
X56359819Y-113701190D02*
X56502676Y-113796428D01*
X56502676Y-113796428D02*
X56597914Y-113891666D01*
X56597914Y-113891666D02*
X56645533Y-113986904D01*
X56693152Y-112558333D02*
X57359819Y-112558333D01*
X56312200Y-112796428D02*
X57026485Y-113034523D01*
X57026485Y-113034523D02*
X57026485Y-112415476D01*
X58111905Y-46704819D02*
X58111905Y-45704819D01*
X58111905Y-45704819D02*
X58350000Y-45704819D01*
X58350000Y-45704819D02*
X58492857Y-45752438D01*
X58492857Y-45752438D02*
X58588095Y-45847676D01*
X58588095Y-45847676D02*
X58635714Y-45942914D01*
X58635714Y-45942914D02*
X58683333Y-46133390D01*
X58683333Y-46133390D02*
X58683333Y-46276247D01*
X58683333Y-46276247D02*
X58635714Y-46466723D01*
X58635714Y-46466723D02*
X58588095Y-46561961D01*
X58588095Y-46561961D02*
X58492857Y-46657200D01*
X58492857Y-46657200D02*
X58350000Y-46704819D01*
X58350000Y-46704819D02*
X58111905Y-46704819D01*
X59635714Y-46704819D02*
X59064286Y-46704819D01*
X59350000Y-46704819D02*
X59350000Y-45704819D01*
X59350000Y-45704819D02*
X59254762Y-45847676D01*
X59254762Y-45847676D02*
X59159524Y-45942914D01*
X59159524Y-45942914D02*
X59064286Y-45990533D01*
X53350595Y-83604819D02*
X53350595Y-84414342D01*
X53350595Y-84414342D02*
X53398214Y-84509580D01*
X53398214Y-84509580D02*
X53445833Y-84557200D01*
X53445833Y-84557200D02*
X53541071Y-84604819D01*
X53541071Y-84604819D02*
X53731547Y-84604819D01*
X53731547Y-84604819D02*
X53826785Y-84557200D01*
X53826785Y-84557200D02*
X53874404Y-84509580D01*
X53874404Y-84509580D02*
X53922023Y-84414342D01*
X53922023Y-84414342D02*
X53922023Y-83604819D01*
X54302976Y-83604819D02*
X54969642Y-83604819D01*
X54969642Y-83604819D02*
X54541071Y-84604819D01*
X70624819Y-130511904D02*
X71434342Y-130511904D01*
X71434342Y-130511904D02*
X71529580Y-130464285D01*
X71529580Y-130464285D02*
X71577200Y-130416666D01*
X71577200Y-130416666D02*
X71624819Y-130321428D01*
X71624819Y-130321428D02*
X71624819Y-130130952D01*
X71624819Y-130130952D02*
X71577200Y-130035714D01*
X71577200Y-130035714D02*
X71529580Y-129988095D01*
X71529580Y-129988095D02*
X71434342Y-129940476D01*
X71434342Y-129940476D02*
X70624819Y-129940476D01*
X70720057Y-129511904D02*
X70672438Y-129464285D01*
X70672438Y-129464285D02*
X70624819Y-129369047D01*
X70624819Y-129369047D02*
X70624819Y-129130952D01*
X70624819Y-129130952D02*
X70672438Y-129035714D01*
X70672438Y-129035714D02*
X70720057Y-128988095D01*
X70720057Y-128988095D02*
X70815295Y-128940476D01*
X70815295Y-128940476D02*
X70910533Y-128940476D01*
X70910533Y-128940476D02*
X71053390Y-128988095D01*
X71053390Y-128988095D02*
X71624819Y-129559523D01*
X71624819Y-129559523D02*
X71624819Y-128940476D01*
X45738095Y-62704819D02*
X45738095Y-63514342D01*
X45738095Y-63514342D02*
X45785714Y-63609580D01*
X45785714Y-63609580D02*
X45833333Y-63657200D01*
X45833333Y-63657200D02*
X45928571Y-63704819D01*
X45928571Y-63704819D02*
X46119047Y-63704819D01*
X46119047Y-63704819D02*
X46214285Y-63657200D01*
X46214285Y-63657200D02*
X46261904Y-63609580D01*
X46261904Y-63609580D02*
X46309523Y-63514342D01*
X46309523Y-63514342D02*
X46309523Y-62704819D01*
X47214285Y-63038152D02*
X47214285Y-63704819D01*
X46976190Y-62657200D02*
X46738095Y-63371485D01*
X46738095Y-63371485D02*
X47357142Y-63371485D01*
X45332142Y-86429580D02*
X45284523Y-86477200D01*
X45284523Y-86477200D02*
X45141666Y-86524819D01*
X45141666Y-86524819D02*
X45046428Y-86524819D01*
X45046428Y-86524819D02*
X44903571Y-86477200D01*
X44903571Y-86477200D02*
X44808333Y-86381961D01*
X44808333Y-86381961D02*
X44760714Y-86286723D01*
X44760714Y-86286723D02*
X44713095Y-86096247D01*
X44713095Y-86096247D02*
X44713095Y-85953390D01*
X44713095Y-85953390D02*
X44760714Y-85762914D01*
X44760714Y-85762914D02*
X44808333Y-85667676D01*
X44808333Y-85667676D02*
X44903571Y-85572438D01*
X44903571Y-85572438D02*
X45046428Y-85524819D01*
X45046428Y-85524819D02*
X45141666Y-85524819D01*
X45141666Y-85524819D02*
X45284523Y-85572438D01*
X45284523Y-85572438D02*
X45332142Y-85620057D01*
X46284523Y-86524819D02*
X45713095Y-86524819D01*
X45998809Y-86524819D02*
X45998809Y-85524819D01*
X45998809Y-85524819D02*
X45903571Y-85667676D01*
X45903571Y-85667676D02*
X45808333Y-85762914D01*
X45808333Y-85762914D02*
X45713095Y-85810533D01*
X46903571Y-85524819D02*
X46998809Y-85524819D01*
X46998809Y-85524819D02*
X47094047Y-85572438D01*
X47094047Y-85572438D02*
X47141666Y-85620057D01*
X47141666Y-85620057D02*
X47189285Y-85715295D01*
X47189285Y-85715295D02*
X47236904Y-85905771D01*
X47236904Y-85905771D02*
X47236904Y-86143866D01*
X47236904Y-86143866D02*
X47189285Y-86334342D01*
X47189285Y-86334342D02*
X47141666Y-86429580D01*
X47141666Y-86429580D02*
X47094047Y-86477200D01*
X47094047Y-86477200D02*
X46998809Y-86524819D01*
X46998809Y-86524819D02*
X46903571Y-86524819D01*
X46903571Y-86524819D02*
X46808333Y-86477200D01*
X46808333Y-86477200D02*
X46760714Y-86429580D01*
X46760714Y-86429580D02*
X46713095Y-86334342D01*
X46713095Y-86334342D02*
X46665476Y-86143866D01*
X46665476Y-86143866D02*
X46665476Y-85905771D01*
X46665476Y-85905771D02*
X46713095Y-85715295D01*
X46713095Y-85715295D02*
X46760714Y-85620057D01*
X46760714Y-85620057D02*
X46808333Y-85572438D01*
X46808333Y-85572438D02*
X46903571Y-85524819D01*
X48083333Y-121109580D02*
X48035714Y-121157200D01*
X48035714Y-121157200D02*
X47892857Y-121204819D01*
X47892857Y-121204819D02*
X47797619Y-121204819D01*
X47797619Y-121204819D02*
X47654762Y-121157200D01*
X47654762Y-121157200D02*
X47559524Y-121061961D01*
X47559524Y-121061961D02*
X47511905Y-120966723D01*
X47511905Y-120966723D02*
X47464286Y-120776247D01*
X47464286Y-120776247D02*
X47464286Y-120633390D01*
X47464286Y-120633390D02*
X47511905Y-120442914D01*
X47511905Y-120442914D02*
X47559524Y-120347676D01*
X47559524Y-120347676D02*
X47654762Y-120252438D01*
X47654762Y-120252438D02*
X47797619Y-120204819D01*
X47797619Y-120204819D02*
X47892857Y-120204819D01*
X47892857Y-120204819D02*
X48035714Y-120252438D01*
X48035714Y-120252438D02*
X48083333Y-120300057D01*
X48464286Y-120300057D02*
X48511905Y-120252438D01*
X48511905Y-120252438D02*
X48607143Y-120204819D01*
X48607143Y-120204819D02*
X48845238Y-120204819D01*
X48845238Y-120204819D02*
X48940476Y-120252438D01*
X48940476Y-120252438D02*
X48988095Y-120300057D01*
X48988095Y-120300057D02*
X49035714Y-120395295D01*
X49035714Y-120395295D02*
X49035714Y-120490533D01*
X49035714Y-120490533D02*
X48988095Y-120633390D01*
X48988095Y-120633390D02*
X48416667Y-121204819D01*
X48416667Y-121204819D02*
X49035714Y-121204819D01*
X46583333Y-123359580D02*
X46535714Y-123407200D01*
X46535714Y-123407200D02*
X46392857Y-123454819D01*
X46392857Y-123454819D02*
X46297619Y-123454819D01*
X46297619Y-123454819D02*
X46154762Y-123407200D01*
X46154762Y-123407200D02*
X46059524Y-123311961D01*
X46059524Y-123311961D02*
X46011905Y-123216723D01*
X46011905Y-123216723D02*
X45964286Y-123026247D01*
X45964286Y-123026247D02*
X45964286Y-122883390D01*
X45964286Y-122883390D02*
X46011905Y-122692914D01*
X46011905Y-122692914D02*
X46059524Y-122597676D01*
X46059524Y-122597676D02*
X46154762Y-122502438D01*
X46154762Y-122502438D02*
X46297619Y-122454819D01*
X46297619Y-122454819D02*
X46392857Y-122454819D01*
X46392857Y-122454819D02*
X46535714Y-122502438D01*
X46535714Y-122502438D02*
X46583333Y-122550057D01*
X46916667Y-122454819D02*
X47535714Y-122454819D01*
X47535714Y-122454819D02*
X47202381Y-122835771D01*
X47202381Y-122835771D02*
X47345238Y-122835771D01*
X47345238Y-122835771D02*
X47440476Y-122883390D01*
X47440476Y-122883390D02*
X47488095Y-122931009D01*
X47488095Y-122931009D02*
X47535714Y-123026247D01*
X47535714Y-123026247D02*
X47535714Y-123264342D01*
X47535714Y-123264342D02*
X47488095Y-123359580D01*
X47488095Y-123359580D02*
X47440476Y-123407200D01*
X47440476Y-123407200D02*
X47345238Y-123454819D01*
X47345238Y-123454819D02*
X47059524Y-123454819D01*
X47059524Y-123454819D02*
X46964286Y-123407200D01*
X46964286Y-123407200D02*
X46916667Y-123359580D01*
X56833333Y-70559580D02*
X56785714Y-70607200D01*
X56785714Y-70607200D02*
X56642857Y-70654819D01*
X56642857Y-70654819D02*
X56547619Y-70654819D01*
X56547619Y-70654819D02*
X56404762Y-70607200D01*
X56404762Y-70607200D02*
X56309524Y-70511961D01*
X56309524Y-70511961D02*
X56261905Y-70416723D01*
X56261905Y-70416723D02*
X56214286Y-70226247D01*
X56214286Y-70226247D02*
X56214286Y-70083390D01*
X56214286Y-70083390D02*
X56261905Y-69892914D01*
X56261905Y-69892914D02*
X56309524Y-69797676D01*
X56309524Y-69797676D02*
X56404762Y-69702438D01*
X56404762Y-69702438D02*
X56547619Y-69654819D01*
X56547619Y-69654819D02*
X56642857Y-69654819D01*
X56642857Y-69654819D02*
X56785714Y-69702438D01*
X56785714Y-69702438D02*
X56833333Y-69750057D01*
X57309524Y-70654819D02*
X57500000Y-70654819D01*
X57500000Y-70654819D02*
X57595238Y-70607200D01*
X57595238Y-70607200D02*
X57642857Y-70559580D01*
X57642857Y-70559580D02*
X57738095Y-70416723D01*
X57738095Y-70416723D02*
X57785714Y-70226247D01*
X57785714Y-70226247D02*
X57785714Y-69845295D01*
X57785714Y-69845295D02*
X57738095Y-69750057D01*
X57738095Y-69750057D02*
X57690476Y-69702438D01*
X57690476Y-69702438D02*
X57595238Y-69654819D01*
X57595238Y-69654819D02*
X57404762Y-69654819D01*
X57404762Y-69654819D02*
X57309524Y-69702438D01*
X57309524Y-69702438D02*
X57261905Y-69750057D01*
X57261905Y-69750057D02*
X57214286Y-69845295D01*
X57214286Y-69845295D02*
X57214286Y-70083390D01*
X57214286Y-70083390D02*
X57261905Y-70178628D01*
X57261905Y-70178628D02*
X57309524Y-70226247D01*
X57309524Y-70226247D02*
X57404762Y-70273866D01*
X57404762Y-70273866D02*
X57595238Y-70273866D01*
X57595238Y-70273866D02*
X57690476Y-70226247D01*
X57690476Y-70226247D02*
X57738095Y-70178628D01*
X57738095Y-70178628D02*
X57785714Y-70083390D01*
X54609819Y-105986904D02*
X55419342Y-105986904D01*
X55419342Y-105986904D02*
X55514580Y-105939285D01*
X55514580Y-105939285D02*
X55562200Y-105891666D01*
X55562200Y-105891666D02*
X55609819Y-105796428D01*
X55609819Y-105796428D02*
X55609819Y-105605952D01*
X55609819Y-105605952D02*
X55562200Y-105510714D01*
X55562200Y-105510714D02*
X55514580Y-105463095D01*
X55514580Y-105463095D02*
X55419342Y-105415476D01*
X55419342Y-105415476D02*
X54609819Y-105415476D01*
X55038390Y-104796428D02*
X54990771Y-104891666D01*
X54990771Y-104891666D02*
X54943152Y-104939285D01*
X54943152Y-104939285D02*
X54847914Y-104986904D01*
X54847914Y-104986904D02*
X54800295Y-104986904D01*
X54800295Y-104986904D02*
X54705057Y-104939285D01*
X54705057Y-104939285D02*
X54657438Y-104891666D01*
X54657438Y-104891666D02*
X54609819Y-104796428D01*
X54609819Y-104796428D02*
X54609819Y-104605952D01*
X54609819Y-104605952D02*
X54657438Y-104510714D01*
X54657438Y-104510714D02*
X54705057Y-104463095D01*
X54705057Y-104463095D02*
X54800295Y-104415476D01*
X54800295Y-104415476D02*
X54847914Y-104415476D01*
X54847914Y-104415476D02*
X54943152Y-104463095D01*
X54943152Y-104463095D02*
X54990771Y-104510714D01*
X54990771Y-104510714D02*
X55038390Y-104605952D01*
X55038390Y-104605952D02*
X55038390Y-104796428D01*
X55038390Y-104796428D02*
X55086009Y-104891666D01*
X55086009Y-104891666D02*
X55133628Y-104939285D01*
X55133628Y-104939285D02*
X55228866Y-104986904D01*
X55228866Y-104986904D02*
X55419342Y-104986904D01*
X55419342Y-104986904D02*
X55514580Y-104939285D01*
X55514580Y-104939285D02*
X55562200Y-104891666D01*
X55562200Y-104891666D02*
X55609819Y-104796428D01*
X55609819Y-104796428D02*
X55609819Y-104605952D01*
X55609819Y-104605952D02*
X55562200Y-104510714D01*
X55562200Y-104510714D02*
X55514580Y-104463095D01*
X55514580Y-104463095D02*
X55419342Y-104415476D01*
X55419342Y-104415476D02*
X55228866Y-104415476D01*
X55228866Y-104415476D02*
X55133628Y-104463095D01*
X55133628Y-104463095D02*
X55086009Y-104510714D01*
X55086009Y-104510714D02*
X55038390Y-104605952D01*
X49083333Y-73134819D02*
X48750000Y-72658628D01*
X48511905Y-73134819D02*
X48511905Y-72134819D01*
X48511905Y-72134819D02*
X48892857Y-72134819D01*
X48892857Y-72134819D02*
X48988095Y-72182438D01*
X48988095Y-72182438D02*
X49035714Y-72230057D01*
X49035714Y-72230057D02*
X49083333Y-72325295D01*
X49083333Y-72325295D02*
X49083333Y-72468152D01*
X49083333Y-72468152D02*
X49035714Y-72563390D01*
X49035714Y-72563390D02*
X48988095Y-72611009D01*
X48988095Y-72611009D02*
X48892857Y-72658628D01*
X48892857Y-72658628D02*
X48511905Y-72658628D01*
X49464286Y-72230057D02*
X49511905Y-72182438D01*
X49511905Y-72182438D02*
X49607143Y-72134819D01*
X49607143Y-72134819D02*
X49845238Y-72134819D01*
X49845238Y-72134819D02*
X49940476Y-72182438D01*
X49940476Y-72182438D02*
X49988095Y-72230057D01*
X49988095Y-72230057D02*
X50035714Y-72325295D01*
X50035714Y-72325295D02*
X50035714Y-72420533D01*
X50035714Y-72420533D02*
X49988095Y-72563390D01*
X49988095Y-72563390D02*
X49416667Y-73134819D01*
X49416667Y-73134819D02*
X50035714Y-73134819D01*
X51857142Y-97609580D02*
X51809523Y-97657200D01*
X51809523Y-97657200D02*
X51666666Y-97704819D01*
X51666666Y-97704819D02*
X51571428Y-97704819D01*
X51571428Y-97704819D02*
X51428571Y-97657200D01*
X51428571Y-97657200D02*
X51333333Y-97561961D01*
X51333333Y-97561961D02*
X51285714Y-97466723D01*
X51285714Y-97466723D02*
X51238095Y-97276247D01*
X51238095Y-97276247D02*
X51238095Y-97133390D01*
X51238095Y-97133390D02*
X51285714Y-96942914D01*
X51285714Y-96942914D02*
X51333333Y-96847676D01*
X51333333Y-96847676D02*
X51428571Y-96752438D01*
X51428571Y-96752438D02*
X51571428Y-96704819D01*
X51571428Y-96704819D02*
X51666666Y-96704819D01*
X51666666Y-96704819D02*
X51809523Y-96752438D01*
X51809523Y-96752438D02*
X51857142Y-96800057D01*
X52809523Y-97704819D02*
X52238095Y-97704819D01*
X52523809Y-97704819D02*
X52523809Y-96704819D01*
X52523809Y-96704819D02*
X52428571Y-96847676D01*
X52428571Y-96847676D02*
X52333333Y-96942914D01*
X52333333Y-96942914D02*
X52238095Y-96990533D01*
X53761904Y-97704819D02*
X53190476Y-97704819D01*
X53476190Y-97704819D02*
X53476190Y-96704819D01*
X53476190Y-96704819D02*
X53380952Y-96847676D01*
X53380952Y-96847676D02*
X53285714Y-96942914D01*
X53285714Y-96942914D02*
X53190476Y-96990533D01*
X48333333Y-51359580D02*
X48285714Y-51407200D01*
X48285714Y-51407200D02*
X48142857Y-51454819D01*
X48142857Y-51454819D02*
X48047619Y-51454819D01*
X48047619Y-51454819D02*
X47904762Y-51407200D01*
X47904762Y-51407200D02*
X47809524Y-51311961D01*
X47809524Y-51311961D02*
X47761905Y-51216723D01*
X47761905Y-51216723D02*
X47714286Y-51026247D01*
X47714286Y-51026247D02*
X47714286Y-50883390D01*
X47714286Y-50883390D02*
X47761905Y-50692914D01*
X47761905Y-50692914D02*
X47809524Y-50597676D01*
X47809524Y-50597676D02*
X47904762Y-50502438D01*
X47904762Y-50502438D02*
X48047619Y-50454819D01*
X48047619Y-50454819D02*
X48142857Y-50454819D01*
X48142857Y-50454819D02*
X48285714Y-50502438D01*
X48285714Y-50502438D02*
X48333333Y-50550057D01*
X49238095Y-50454819D02*
X48761905Y-50454819D01*
X48761905Y-50454819D02*
X48714286Y-50931009D01*
X48714286Y-50931009D02*
X48761905Y-50883390D01*
X48761905Y-50883390D02*
X48857143Y-50835771D01*
X48857143Y-50835771D02*
X49095238Y-50835771D01*
X49095238Y-50835771D02*
X49190476Y-50883390D01*
X49190476Y-50883390D02*
X49238095Y-50931009D01*
X49238095Y-50931009D02*
X49285714Y-51026247D01*
X49285714Y-51026247D02*
X49285714Y-51264342D01*
X49285714Y-51264342D02*
X49238095Y-51359580D01*
X49238095Y-51359580D02*
X49190476Y-51407200D01*
X49190476Y-51407200D02*
X49095238Y-51454819D01*
X49095238Y-51454819D02*
X48857143Y-51454819D01*
X48857143Y-51454819D02*
X48761905Y-51407200D01*
X48761905Y-51407200D02*
X48714286Y-51359580D01*
X46333333Y-58584580D02*
X46285714Y-58632200D01*
X46285714Y-58632200D02*
X46142857Y-58679819D01*
X46142857Y-58679819D02*
X46047619Y-58679819D01*
X46047619Y-58679819D02*
X45904762Y-58632200D01*
X45904762Y-58632200D02*
X45809524Y-58536961D01*
X45809524Y-58536961D02*
X45761905Y-58441723D01*
X45761905Y-58441723D02*
X45714286Y-58251247D01*
X45714286Y-58251247D02*
X45714286Y-58108390D01*
X45714286Y-58108390D02*
X45761905Y-57917914D01*
X45761905Y-57917914D02*
X45809524Y-57822676D01*
X45809524Y-57822676D02*
X45904762Y-57727438D01*
X45904762Y-57727438D02*
X46047619Y-57679819D01*
X46047619Y-57679819D02*
X46142857Y-57679819D01*
X46142857Y-57679819D02*
X46285714Y-57727438D01*
X46285714Y-57727438D02*
X46333333Y-57775057D01*
X47190476Y-57679819D02*
X47000000Y-57679819D01*
X47000000Y-57679819D02*
X46904762Y-57727438D01*
X46904762Y-57727438D02*
X46857143Y-57775057D01*
X46857143Y-57775057D02*
X46761905Y-57917914D01*
X46761905Y-57917914D02*
X46714286Y-58108390D01*
X46714286Y-58108390D02*
X46714286Y-58489342D01*
X46714286Y-58489342D02*
X46761905Y-58584580D01*
X46761905Y-58584580D02*
X46809524Y-58632200D01*
X46809524Y-58632200D02*
X46904762Y-58679819D01*
X46904762Y-58679819D02*
X47095238Y-58679819D01*
X47095238Y-58679819D02*
X47190476Y-58632200D01*
X47190476Y-58632200D02*
X47238095Y-58584580D01*
X47238095Y-58584580D02*
X47285714Y-58489342D01*
X47285714Y-58489342D02*
X47285714Y-58251247D01*
X47285714Y-58251247D02*
X47238095Y-58156009D01*
X47238095Y-58156009D02*
X47190476Y-58108390D01*
X47190476Y-58108390D02*
X47095238Y-58060771D01*
X47095238Y-58060771D02*
X46904762Y-58060771D01*
X46904762Y-58060771D02*
X46809524Y-58108390D01*
X46809524Y-58108390D02*
X46761905Y-58156009D01*
X46761905Y-58156009D02*
X46714286Y-58251247D01*
X45488095Y-68454819D02*
X45488095Y-69264342D01*
X45488095Y-69264342D02*
X45535714Y-69359580D01*
X45535714Y-69359580D02*
X45583333Y-69407200D01*
X45583333Y-69407200D02*
X45678571Y-69454819D01*
X45678571Y-69454819D02*
X45869047Y-69454819D01*
X45869047Y-69454819D02*
X45964285Y-69407200D01*
X45964285Y-69407200D02*
X46011904Y-69359580D01*
X46011904Y-69359580D02*
X46059523Y-69264342D01*
X46059523Y-69264342D02*
X46059523Y-68454819D01*
X47011904Y-68454819D02*
X46535714Y-68454819D01*
X46535714Y-68454819D02*
X46488095Y-68931009D01*
X46488095Y-68931009D02*
X46535714Y-68883390D01*
X46535714Y-68883390D02*
X46630952Y-68835771D01*
X46630952Y-68835771D02*
X46869047Y-68835771D01*
X46869047Y-68835771D02*
X46964285Y-68883390D01*
X46964285Y-68883390D02*
X47011904Y-68931009D01*
X47011904Y-68931009D02*
X47059523Y-69026247D01*
X47059523Y-69026247D02*
X47059523Y-69264342D01*
X47059523Y-69264342D02*
X47011904Y-69359580D01*
X47011904Y-69359580D02*
X46964285Y-69407200D01*
X46964285Y-69407200D02*
X46869047Y-69454819D01*
X46869047Y-69454819D02*
X46630952Y-69454819D01*
X46630952Y-69454819D02*
X46535714Y-69407200D01*
X46535714Y-69407200D02*
X46488095Y-69359580D01*
X60638095Y-62654819D02*
X60638095Y-63464342D01*
X60638095Y-63464342D02*
X60685714Y-63559580D01*
X60685714Y-63559580D02*
X60733333Y-63607200D01*
X60733333Y-63607200D02*
X60828571Y-63654819D01*
X60828571Y-63654819D02*
X61019047Y-63654819D01*
X61019047Y-63654819D02*
X61114285Y-63607200D01*
X61114285Y-63607200D02*
X61161904Y-63559580D01*
X61161904Y-63559580D02*
X61209523Y-63464342D01*
X61209523Y-63464342D02*
X61209523Y-62654819D01*
X62114285Y-62654819D02*
X61923809Y-62654819D01*
X61923809Y-62654819D02*
X61828571Y-62702438D01*
X61828571Y-62702438D02*
X61780952Y-62750057D01*
X61780952Y-62750057D02*
X61685714Y-62892914D01*
X61685714Y-62892914D02*
X61638095Y-63083390D01*
X61638095Y-63083390D02*
X61638095Y-63464342D01*
X61638095Y-63464342D02*
X61685714Y-63559580D01*
X61685714Y-63559580D02*
X61733333Y-63607200D01*
X61733333Y-63607200D02*
X61828571Y-63654819D01*
X61828571Y-63654819D02*
X62019047Y-63654819D01*
X62019047Y-63654819D02*
X62114285Y-63607200D01*
X62114285Y-63607200D02*
X62161904Y-63559580D01*
X62161904Y-63559580D02*
X62209523Y-63464342D01*
X62209523Y-63464342D02*
X62209523Y-63226247D01*
X62209523Y-63226247D02*
X62161904Y-63131009D01*
X62161904Y-63131009D02*
X62114285Y-63083390D01*
X62114285Y-63083390D02*
X62019047Y-63035771D01*
X62019047Y-63035771D02*
X61828571Y-63035771D01*
X61828571Y-63035771D02*
X61733333Y-63083390D01*
X61733333Y-63083390D02*
X61685714Y-63131009D01*
X61685714Y-63131009D02*
X61638095Y-63226247D01*
X45154819Y-105216666D02*
X44678628Y-105549999D01*
X45154819Y-105788094D02*
X44154819Y-105788094D01*
X44154819Y-105788094D02*
X44154819Y-105407142D01*
X44154819Y-105407142D02*
X44202438Y-105311904D01*
X44202438Y-105311904D02*
X44250057Y-105264285D01*
X44250057Y-105264285D02*
X44345295Y-105216666D01*
X44345295Y-105216666D02*
X44488152Y-105216666D01*
X44488152Y-105216666D02*
X44583390Y-105264285D01*
X44583390Y-105264285D02*
X44631009Y-105311904D01*
X44631009Y-105311904D02*
X44678628Y-105407142D01*
X44678628Y-105407142D02*
X44678628Y-105788094D01*
X44583390Y-104645237D02*
X44535771Y-104740475D01*
X44535771Y-104740475D02*
X44488152Y-104788094D01*
X44488152Y-104788094D02*
X44392914Y-104835713D01*
X44392914Y-104835713D02*
X44345295Y-104835713D01*
X44345295Y-104835713D02*
X44250057Y-104788094D01*
X44250057Y-104788094D02*
X44202438Y-104740475D01*
X44202438Y-104740475D02*
X44154819Y-104645237D01*
X44154819Y-104645237D02*
X44154819Y-104454761D01*
X44154819Y-104454761D02*
X44202438Y-104359523D01*
X44202438Y-104359523D02*
X44250057Y-104311904D01*
X44250057Y-104311904D02*
X44345295Y-104264285D01*
X44345295Y-104264285D02*
X44392914Y-104264285D01*
X44392914Y-104264285D02*
X44488152Y-104311904D01*
X44488152Y-104311904D02*
X44535771Y-104359523D01*
X44535771Y-104359523D02*
X44583390Y-104454761D01*
X44583390Y-104454761D02*
X44583390Y-104645237D01*
X44583390Y-104645237D02*
X44631009Y-104740475D01*
X44631009Y-104740475D02*
X44678628Y-104788094D01*
X44678628Y-104788094D02*
X44773866Y-104835713D01*
X44773866Y-104835713D02*
X44964342Y-104835713D01*
X44964342Y-104835713D02*
X45059580Y-104788094D01*
X45059580Y-104788094D02*
X45107200Y-104740475D01*
X45107200Y-104740475D02*
X45154819Y-104645237D01*
X45154819Y-104645237D02*
X45154819Y-104454761D01*
X45154819Y-104454761D02*
X45107200Y-104359523D01*
X45107200Y-104359523D02*
X45059580Y-104311904D01*
X45059580Y-104311904D02*
X44964342Y-104264285D01*
X44964342Y-104264285D02*
X44773866Y-104264285D01*
X44773866Y-104264285D02*
X44678628Y-104311904D01*
X44678628Y-104311904D02*
X44631009Y-104359523D01*
X44631009Y-104359523D02*
X44583390Y-104454761D01*
X66549405Y-114884819D02*
X66549405Y-113884819D01*
X66549405Y-113884819D02*
X66787500Y-113884819D01*
X66787500Y-113884819D02*
X66930357Y-113932438D01*
X66930357Y-113932438D02*
X67025595Y-114027676D01*
X67025595Y-114027676D02*
X67073214Y-114122914D01*
X67073214Y-114122914D02*
X67120833Y-114313390D01*
X67120833Y-114313390D02*
X67120833Y-114456247D01*
X67120833Y-114456247D02*
X67073214Y-114646723D01*
X67073214Y-114646723D02*
X67025595Y-114741961D01*
X67025595Y-114741961D02*
X66930357Y-114837200D01*
X66930357Y-114837200D02*
X66787500Y-114884819D01*
X66787500Y-114884819D02*
X66549405Y-114884819D01*
X68025595Y-113884819D02*
X67549405Y-113884819D01*
X67549405Y-113884819D02*
X67501786Y-114361009D01*
X67501786Y-114361009D02*
X67549405Y-114313390D01*
X67549405Y-114313390D02*
X67644643Y-114265771D01*
X67644643Y-114265771D02*
X67882738Y-114265771D01*
X67882738Y-114265771D02*
X67977976Y-114313390D01*
X67977976Y-114313390D02*
X68025595Y-114361009D01*
X68025595Y-114361009D02*
X68073214Y-114456247D01*
X68073214Y-114456247D02*
X68073214Y-114694342D01*
X68073214Y-114694342D02*
X68025595Y-114789580D01*
X68025595Y-114789580D02*
X67977976Y-114837200D01*
X67977976Y-114837200D02*
X67882738Y-114884819D01*
X67882738Y-114884819D02*
X67644643Y-114884819D01*
X67644643Y-114884819D02*
X67549405Y-114837200D01*
X67549405Y-114837200D02*
X67501786Y-114789580D01*
X43679580Y-111441666D02*
X43727200Y-111489285D01*
X43727200Y-111489285D02*
X43774819Y-111632142D01*
X43774819Y-111632142D02*
X43774819Y-111727380D01*
X43774819Y-111727380D02*
X43727200Y-111870237D01*
X43727200Y-111870237D02*
X43631961Y-111965475D01*
X43631961Y-111965475D02*
X43536723Y-112013094D01*
X43536723Y-112013094D02*
X43346247Y-112060713D01*
X43346247Y-112060713D02*
X43203390Y-112060713D01*
X43203390Y-112060713D02*
X43012914Y-112013094D01*
X43012914Y-112013094D02*
X42917676Y-111965475D01*
X42917676Y-111965475D02*
X42822438Y-111870237D01*
X42822438Y-111870237D02*
X42774819Y-111727380D01*
X42774819Y-111727380D02*
X42774819Y-111632142D01*
X42774819Y-111632142D02*
X42822438Y-111489285D01*
X42822438Y-111489285D02*
X42870057Y-111441666D01*
X42774819Y-111108332D02*
X42774819Y-110441666D01*
X42774819Y-110441666D02*
X43774819Y-110870237D01*
X55264580Y-114367857D02*
X55312200Y-114415476D01*
X55312200Y-114415476D02*
X55359819Y-114558333D01*
X55359819Y-114558333D02*
X55359819Y-114653571D01*
X55359819Y-114653571D02*
X55312200Y-114796428D01*
X55312200Y-114796428D02*
X55216961Y-114891666D01*
X55216961Y-114891666D02*
X55121723Y-114939285D01*
X55121723Y-114939285D02*
X54931247Y-114986904D01*
X54931247Y-114986904D02*
X54788390Y-114986904D01*
X54788390Y-114986904D02*
X54597914Y-114939285D01*
X54597914Y-114939285D02*
X54502676Y-114891666D01*
X54502676Y-114891666D02*
X54407438Y-114796428D01*
X54407438Y-114796428D02*
X54359819Y-114653571D01*
X54359819Y-114653571D02*
X54359819Y-114558333D01*
X54359819Y-114558333D02*
X54407438Y-114415476D01*
X54407438Y-114415476D02*
X54455057Y-114367857D01*
X55359819Y-113415476D02*
X55359819Y-113986904D01*
X55359819Y-113701190D02*
X54359819Y-113701190D01*
X54359819Y-113701190D02*
X54502676Y-113796428D01*
X54502676Y-113796428D02*
X54597914Y-113891666D01*
X54597914Y-113891666D02*
X54645533Y-113986904D01*
X54359819Y-112510714D02*
X54359819Y-112986904D01*
X54359819Y-112986904D02*
X54836009Y-113034523D01*
X54836009Y-113034523D02*
X54788390Y-112986904D01*
X54788390Y-112986904D02*
X54740771Y-112891666D01*
X54740771Y-112891666D02*
X54740771Y-112653571D01*
X54740771Y-112653571D02*
X54788390Y-112558333D01*
X54788390Y-112558333D02*
X54836009Y-112510714D01*
X54836009Y-112510714D02*
X54931247Y-112463095D01*
X54931247Y-112463095D02*
X55169342Y-112463095D01*
X55169342Y-112463095D02*
X55264580Y-112510714D01*
X55264580Y-112510714D02*
X55312200Y-112558333D01*
X55312200Y-112558333D02*
X55359819Y-112653571D01*
X55359819Y-112653571D02*
X55359819Y-112891666D01*
X55359819Y-112891666D02*
X55312200Y-112986904D01*
X55312200Y-112986904D02*
X55264580Y-113034523D01*
X57583333Y-60774819D02*
X57250000Y-60298628D01*
X57011905Y-60774819D02*
X57011905Y-59774819D01*
X57011905Y-59774819D02*
X57392857Y-59774819D01*
X57392857Y-59774819D02*
X57488095Y-59822438D01*
X57488095Y-59822438D02*
X57535714Y-59870057D01*
X57535714Y-59870057D02*
X57583333Y-59965295D01*
X57583333Y-59965295D02*
X57583333Y-60108152D01*
X57583333Y-60108152D02*
X57535714Y-60203390D01*
X57535714Y-60203390D02*
X57488095Y-60251009D01*
X57488095Y-60251009D02*
X57392857Y-60298628D01*
X57392857Y-60298628D02*
X57011905Y-60298628D01*
X57916667Y-59774819D02*
X58535714Y-59774819D01*
X58535714Y-59774819D02*
X58202381Y-60155771D01*
X58202381Y-60155771D02*
X58345238Y-60155771D01*
X58345238Y-60155771D02*
X58440476Y-60203390D01*
X58440476Y-60203390D02*
X58488095Y-60251009D01*
X58488095Y-60251009D02*
X58535714Y-60346247D01*
X58535714Y-60346247D02*
X58535714Y-60584342D01*
X58535714Y-60584342D02*
X58488095Y-60679580D01*
X58488095Y-60679580D02*
X58440476Y-60727200D01*
X58440476Y-60727200D02*
X58345238Y-60774819D01*
X58345238Y-60774819D02*
X58059524Y-60774819D01*
X58059524Y-60774819D02*
X57964286Y-60727200D01*
X57964286Y-60727200D02*
X57916667Y-60679580D01*
X53514580Y-114367857D02*
X53562200Y-114415476D01*
X53562200Y-114415476D02*
X53609819Y-114558333D01*
X53609819Y-114558333D02*
X53609819Y-114653571D01*
X53609819Y-114653571D02*
X53562200Y-114796428D01*
X53562200Y-114796428D02*
X53466961Y-114891666D01*
X53466961Y-114891666D02*
X53371723Y-114939285D01*
X53371723Y-114939285D02*
X53181247Y-114986904D01*
X53181247Y-114986904D02*
X53038390Y-114986904D01*
X53038390Y-114986904D02*
X52847914Y-114939285D01*
X52847914Y-114939285D02*
X52752676Y-114891666D01*
X52752676Y-114891666D02*
X52657438Y-114796428D01*
X52657438Y-114796428D02*
X52609819Y-114653571D01*
X52609819Y-114653571D02*
X52609819Y-114558333D01*
X52609819Y-114558333D02*
X52657438Y-114415476D01*
X52657438Y-114415476D02*
X52705057Y-114367857D01*
X53609819Y-113415476D02*
X53609819Y-113986904D01*
X53609819Y-113701190D02*
X52609819Y-113701190D01*
X52609819Y-113701190D02*
X52752676Y-113796428D01*
X52752676Y-113796428D02*
X52847914Y-113891666D01*
X52847914Y-113891666D02*
X52895533Y-113986904D01*
X52609819Y-113082142D02*
X52609819Y-112463095D01*
X52609819Y-112463095D02*
X52990771Y-112796428D01*
X52990771Y-112796428D02*
X52990771Y-112653571D01*
X52990771Y-112653571D02*
X53038390Y-112558333D01*
X53038390Y-112558333D02*
X53086009Y-112510714D01*
X53086009Y-112510714D02*
X53181247Y-112463095D01*
X53181247Y-112463095D02*
X53419342Y-112463095D01*
X53419342Y-112463095D02*
X53514580Y-112510714D01*
X53514580Y-112510714D02*
X53562200Y-112558333D01*
X53562200Y-112558333D02*
X53609819Y-112653571D01*
X53609819Y-112653571D02*
X53609819Y-112939285D01*
X53609819Y-112939285D02*
X53562200Y-113034523D01*
X53562200Y-113034523D02*
X53514580Y-113082142D01*
X48083333Y-122859580D02*
X48035714Y-122907200D01*
X48035714Y-122907200D02*
X47892857Y-122954819D01*
X47892857Y-122954819D02*
X47797619Y-122954819D01*
X47797619Y-122954819D02*
X47654762Y-122907200D01*
X47654762Y-122907200D02*
X47559524Y-122811961D01*
X47559524Y-122811961D02*
X47511905Y-122716723D01*
X47511905Y-122716723D02*
X47464286Y-122526247D01*
X47464286Y-122526247D02*
X47464286Y-122383390D01*
X47464286Y-122383390D02*
X47511905Y-122192914D01*
X47511905Y-122192914D02*
X47559524Y-122097676D01*
X47559524Y-122097676D02*
X47654762Y-122002438D01*
X47654762Y-122002438D02*
X47797619Y-121954819D01*
X47797619Y-121954819D02*
X47892857Y-121954819D01*
X47892857Y-121954819D02*
X48035714Y-122002438D01*
X48035714Y-122002438D02*
X48083333Y-122050057D01*
X49035714Y-122954819D02*
X48464286Y-122954819D01*
X48750000Y-122954819D02*
X48750000Y-121954819D01*
X48750000Y-121954819D02*
X48654762Y-122097676D01*
X48654762Y-122097676D02*
X48559524Y-122192914D01*
X48559524Y-122192914D02*
X48464286Y-122240533D01*
X46298333Y-101204819D02*
X45965000Y-100728628D01*
X45726905Y-101204819D02*
X45726905Y-100204819D01*
X45726905Y-100204819D02*
X46107857Y-100204819D01*
X46107857Y-100204819D02*
X46203095Y-100252438D01*
X46203095Y-100252438D02*
X46250714Y-100300057D01*
X46250714Y-100300057D02*
X46298333Y-100395295D01*
X46298333Y-100395295D02*
X46298333Y-100538152D01*
X46298333Y-100538152D02*
X46250714Y-100633390D01*
X46250714Y-100633390D02*
X46203095Y-100681009D01*
X46203095Y-100681009D02*
X46107857Y-100728628D01*
X46107857Y-100728628D02*
X45726905Y-100728628D01*
X47155476Y-100538152D02*
X47155476Y-101204819D01*
X46917381Y-100157200D02*
X46679286Y-100871485D01*
X46679286Y-100871485D02*
X47298333Y-100871485D01*
X47158333Y-113884819D02*
X46825000Y-113408628D01*
X46586905Y-113884819D02*
X46586905Y-112884819D01*
X46586905Y-112884819D02*
X46967857Y-112884819D01*
X46967857Y-112884819D02*
X47063095Y-112932438D01*
X47063095Y-112932438D02*
X47110714Y-112980057D01*
X47110714Y-112980057D02*
X47158333Y-113075295D01*
X47158333Y-113075295D02*
X47158333Y-113218152D01*
X47158333Y-113218152D02*
X47110714Y-113313390D01*
X47110714Y-113313390D02*
X47063095Y-113361009D01*
X47063095Y-113361009D02*
X46967857Y-113408628D01*
X46967857Y-113408628D02*
X46586905Y-113408628D01*
X48110714Y-113884819D02*
X47539286Y-113884819D01*
X47825000Y-113884819D02*
X47825000Y-112884819D01*
X47825000Y-112884819D02*
X47729762Y-113027676D01*
X47729762Y-113027676D02*
X47634524Y-113122914D01*
X47634524Y-113122914D02*
X47539286Y-113170533D01*
X51859819Y-103466666D02*
X51383628Y-103799999D01*
X51859819Y-104038094D02*
X50859819Y-104038094D01*
X50859819Y-104038094D02*
X50859819Y-103657142D01*
X50859819Y-103657142D02*
X50907438Y-103561904D01*
X50907438Y-103561904D02*
X50955057Y-103514285D01*
X50955057Y-103514285D02*
X51050295Y-103466666D01*
X51050295Y-103466666D02*
X51193152Y-103466666D01*
X51193152Y-103466666D02*
X51288390Y-103514285D01*
X51288390Y-103514285D02*
X51336009Y-103561904D01*
X51336009Y-103561904D02*
X51383628Y-103657142D01*
X51383628Y-103657142D02*
X51383628Y-104038094D01*
X50859819Y-103133332D02*
X50859819Y-102466666D01*
X50859819Y-102466666D02*
X51859819Y-102895237D01*
X46083333Y-68109580D02*
X46035714Y-68157200D01*
X46035714Y-68157200D02*
X45892857Y-68204819D01*
X45892857Y-68204819D02*
X45797619Y-68204819D01*
X45797619Y-68204819D02*
X45654762Y-68157200D01*
X45654762Y-68157200D02*
X45559524Y-68061961D01*
X45559524Y-68061961D02*
X45511905Y-67966723D01*
X45511905Y-67966723D02*
X45464286Y-67776247D01*
X45464286Y-67776247D02*
X45464286Y-67633390D01*
X45464286Y-67633390D02*
X45511905Y-67442914D01*
X45511905Y-67442914D02*
X45559524Y-67347676D01*
X45559524Y-67347676D02*
X45654762Y-67252438D01*
X45654762Y-67252438D02*
X45797619Y-67204819D01*
X45797619Y-67204819D02*
X45892857Y-67204819D01*
X45892857Y-67204819D02*
X46035714Y-67252438D01*
X46035714Y-67252438D02*
X46083333Y-67300057D01*
X46654762Y-67633390D02*
X46559524Y-67585771D01*
X46559524Y-67585771D02*
X46511905Y-67538152D01*
X46511905Y-67538152D02*
X46464286Y-67442914D01*
X46464286Y-67442914D02*
X46464286Y-67395295D01*
X46464286Y-67395295D02*
X46511905Y-67300057D01*
X46511905Y-67300057D02*
X46559524Y-67252438D01*
X46559524Y-67252438D02*
X46654762Y-67204819D01*
X46654762Y-67204819D02*
X46845238Y-67204819D01*
X46845238Y-67204819D02*
X46940476Y-67252438D01*
X46940476Y-67252438D02*
X46988095Y-67300057D01*
X46988095Y-67300057D02*
X47035714Y-67395295D01*
X47035714Y-67395295D02*
X47035714Y-67442914D01*
X47035714Y-67442914D02*
X46988095Y-67538152D01*
X46988095Y-67538152D02*
X46940476Y-67585771D01*
X46940476Y-67585771D02*
X46845238Y-67633390D01*
X46845238Y-67633390D02*
X46654762Y-67633390D01*
X46654762Y-67633390D02*
X46559524Y-67681009D01*
X46559524Y-67681009D02*
X46511905Y-67728628D01*
X46511905Y-67728628D02*
X46464286Y-67823866D01*
X46464286Y-67823866D02*
X46464286Y-68014342D01*
X46464286Y-68014342D02*
X46511905Y-68109580D01*
X46511905Y-68109580D02*
X46559524Y-68157200D01*
X46559524Y-68157200D02*
X46654762Y-68204819D01*
X46654762Y-68204819D02*
X46845238Y-68204819D01*
X46845238Y-68204819D02*
X46940476Y-68157200D01*
X46940476Y-68157200D02*
X46988095Y-68109580D01*
X46988095Y-68109580D02*
X47035714Y-68014342D01*
X47035714Y-68014342D02*
X47035714Y-67823866D01*
X47035714Y-67823866D02*
X46988095Y-67728628D01*
X46988095Y-67728628D02*
X46940476Y-67681009D01*
X46940476Y-67681009D02*
X46845238Y-67633390D01*
X49738095Y-53817319D02*
X49738095Y-54626842D01*
X49738095Y-54626842D02*
X49785714Y-54722080D01*
X49785714Y-54722080D02*
X49833333Y-54769700D01*
X49833333Y-54769700D02*
X49928571Y-54817319D01*
X49928571Y-54817319D02*
X50119047Y-54817319D01*
X50119047Y-54817319D02*
X50214285Y-54769700D01*
X50214285Y-54769700D02*
X50261904Y-54722080D01*
X50261904Y-54722080D02*
X50309523Y-54626842D01*
X50309523Y-54626842D02*
X50309523Y-53817319D01*
X50690476Y-53817319D02*
X51309523Y-53817319D01*
X51309523Y-53817319D02*
X50976190Y-54198271D01*
X50976190Y-54198271D02*
X51119047Y-54198271D01*
X51119047Y-54198271D02*
X51214285Y-54245890D01*
X51214285Y-54245890D02*
X51261904Y-54293509D01*
X51261904Y-54293509D02*
X51309523Y-54388747D01*
X51309523Y-54388747D02*
X51309523Y-54626842D01*
X51309523Y-54626842D02*
X51261904Y-54722080D01*
X51261904Y-54722080D02*
X51214285Y-54769700D01*
X51214285Y-54769700D02*
X51119047Y-54817319D01*
X51119047Y-54817319D02*
X50833333Y-54817319D01*
X50833333Y-54817319D02*
X50738095Y-54769700D01*
X50738095Y-54769700D02*
X50690476Y-54722080D01*
D11*
%TO.C,C12*%
X56609420Y-88740000D02*
X56890580Y-88740000D01*
X56609420Y-89760000D02*
X56890580Y-89760000D01*
%TO.C,R5*%
X49312258Y-94522500D02*
X48837742Y-94522500D01*
X49312258Y-93477500D02*
X48837742Y-93477500D01*
%TO.C,C16*%
X67865580Y-103510000D02*
X67584420Y-103510000D01*
X67865580Y-102490000D02*
X67584420Y-102490000D01*
%TO.C,C4*%
X46240000Y-129415580D02*
X46240000Y-129134420D01*
X47260000Y-129415580D02*
X47260000Y-129134420D01*
%TO.C,C14*%
X57415000Y-110559420D02*
X57415000Y-110840580D01*
X56395000Y-110559420D02*
X56395000Y-110840580D01*
%TO.C,D1*%
X56490000Y-47250000D02*
X56490000Y-49250000D01*
X56490000Y-47250000D02*
X60500000Y-47250000D01*
X56490000Y-49250000D02*
X60500000Y-49250000D01*
%TO.C,U7*%
X54112500Y-84990000D02*
X52312500Y-84990000D01*
X54112500Y-84990000D02*
X54912500Y-84990000D01*
X54112500Y-88110000D02*
X53312500Y-88110000D01*
X54112500Y-88110000D02*
X54912500Y-88110000D01*
%TO.C,U2*%
X70170000Y-124630000D02*
X54280000Y-124630000D01*
X70170000Y-124630000D02*
X70170000Y-134870000D01*
X54280000Y-124630000D02*
X54280000Y-134870000D01*
X54280000Y-127210000D02*
X51740000Y-127210000D01*
X54280000Y-129750000D02*
X51740000Y-129750000D01*
X54280000Y-132290000D02*
X51740000Y-132290000D01*
X70170000Y-134870000D02*
X54280000Y-134870000D01*
%TO.C,U4*%
X47690000Y-62250000D02*
X47690000Y-64050000D01*
X47690000Y-62250000D02*
X47690000Y-61450000D01*
X50810000Y-62250000D02*
X50810000Y-63050000D01*
X50810000Y-62250000D02*
X50810000Y-61450000D01*
%TO.C,C10*%
X45834420Y-86990000D02*
X46115580Y-86990000D01*
X45834420Y-88010000D02*
X46115580Y-88010000D01*
%TO.C,R6*%
X50312258Y-88022500D02*
X49837742Y-88022500D01*
X50312258Y-86977500D02*
X49837742Y-86977500D01*
%TO.C,C2*%
X50584420Y-120240000D02*
X50865580Y-120240000D01*
X50584420Y-121260000D02*
X50865580Y-121260000D01*
%TO.C,C3*%
X47260000Y-125084420D02*
X47260000Y-125365580D01*
X46240000Y-125084420D02*
X46240000Y-125365580D01*
%TO.C,C9*%
X56290000Y-68115580D02*
X56290000Y-67834420D01*
X57310000Y-68115580D02*
X57310000Y-67834420D01*
%TO.C,U8*%
X57715000Y-105225000D02*
X57715000Y-101775000D01*
X57715000Y-105225000D02*
X57715000Y-107175000D01*
X52595000Y-105225000D02*
X52595000Y-103275000D01*
X52595000Y-105225000D02*
X52595000Y-107175000D01*
%TO.C,R2*%
X49487258Y-71772500D02*
X49012742Y-71772500D01*
X49487258Y-70727500D02*
X49012742Y-70727500D01*
%TO.C,C11*%
X53260000Y-94584420D02*
X53260000Y-94865580D01*
X52240000Y-94584420D02*
X52240000Y-94865580D01*
%TO.C,C5*%
X47740000Y-53365580D02*
X47740000Y-53084420D01*
X48760000Y-53365580D02*
X48760000Y-53084420D01*
%TO.C,C6*%
X45990000Y-60640580D02*
X45990000Y-60359420D01*
X47010000Y-60640580D02*
X47010000Y-60359420D01*
%TO.C,U5*%
X50510000Y-67387500D02*
X50510000Y-65587500D01*
X50510000Y-67387500D02*
X50510000Y-68187500D01*
X47390000Y-67387500D02*
X47390000Y-66587500D01*
X47390000Y-67387500D02*
X47390000Y-68187500D01*
%TO.C,U6*%
X58112500Y-66010000D02*
X59912500Y-66010000D01*
X58112500Y-66010000D02*
X57312500Y-66010000D01*
X58112500Y-62890000D02*
X58912500Y-62890000D01*
X58112500Y-62890000D02*
X57312500Y-62890000D01*
%TO.C,R8*%
X45222500Y-107237742D02*
X45222500Y-107712258D01*
X44177500Y-107237742D02*
X44177500Y-107712258D01*
%TO.C,D5*%
X68772500Y-113735000D02*
X68772500Y-112265000D01*
X68772500Y-112265000D02*
X66487500Y-112265000D01*
X66487500Y-113735000D02*
X68772500Y-113735000D01*
%TO.C,C7*%
X44240000Y-111415580D02*
X44240000Y-111134420D01*
X45260000Y-111415580D02*
X45260000Y-111134420D01*
%TO.C,C15*%
X55415000Y-110559420D02*
X55415000Y-110840580D01*
X54395000Y-110559420D02*
X54395000Y-110840580D01*
%TO.C,R3*%
X57512742Y-61227500D02*
X57987258Y-61227500D01*
X57512742Y-62272500D02*
X57987258Y-62272500D01*
%TO.C,C13*%
X53665000Y-110559420D02*
X53665000Y-110840580D01*
X52645000Y-110559420D02*
X52645000Y-110840580D01*
%TO.C,C1*%
X50584420Y-121990000D02*
X50865580Y-121990000D01*
X50584420Y-123010000D02*
X50865580Y-123010000D01*
%TO.C,R4*%
X49202258Y-101272500D02*
X48727742Y-101272500D01*
X49202258Y-100227500D02*
X48727742Y-100227500D01*
%TO.C,R1*%
X47562258Y-112522500D02*
X47087742Y-112522500D01*
X47562258Y-111477500D02*
X47087742Y-111477500D01*
%TO.C,R7*%
X51927500Y-105737742D02*
X51927500Y-106212258D01*
X50882500Y-105737742D02*
X50882500Y-106212258D01*
%TO.C,C8*%
X45740000Y-65665580D02*
X45740000Y-65384420D01*
X46760000Y-65665580D02*
X46760000Y-65384420D01*
%TO.C,U3*%
X47740000Y-57112500D02*
X47740000Y-58912500D01*
X47740000Y-57112500D02*
X47740000Y-56312500D01*
X50860000Y-57112500D02*
X50860000Y-57912500D01*
X50860000Y-57112500D02*
X50860000Y-56312500D01*
%TD*%
M02*
