%TF.GenerationSoftware,KiCad,Pcbnew,7.0.6-0*%
%TF.CreationDate,2023-12-30T17:34:11-06:00*%
%TF.ProjectId,fpga_adaptor,66706761-5f61-4646-9170-746f722e6b69,rev?*%
%TF.SameCoordinates,Original*%
%TF.FileFunction,Soldermask,Bot*%
%TF.FilePolarity,Negative*%
%FSLAX46Y46*%
G04 Gerber Fmt 4.6, Leading zero omitted, Abs format (unit mm)*
G04 Created by KiCad (PCBNEW 7.0.6-0) date 2023-12-30 17:34:11*
%MOMM*%
%LPD*%
G01*
G04 APERTURE LIST*
G04 Aperture macros list*
%AMRoundRect*
0 Rectangle with rounded corners*
0 $1 Rounding radius*
0 $2 $3 $4 $5 $6 $7 $8 $9 X,Y pos of 4 corners*
0 Add a 4 corners polygon primitive as box body*
4,1,4,$2,$3,$4,$5,$6,$7,$8,$9,$2,$3,0*
0 Add four circle primitives for the rounded corners*
1,1,$1+$1,$2,$3*
1,1,$1+$1,$4,$5*
1,1,$1+$1,$6,$7*
1,1,$1+$1,$8,$9*
0 Add four rect primitives between the rounded corners*
20,1,$1+$1,$2,$3,$4,$5,0*
20,1,$1+$1,$4,$5,$6,$7,0*
20,1,$1+$1,$6,$7,$8,$9,0*
20,1,$1+$1,$8,$9,$2,$3,0*%
G04 Aperture macros list end*
%ADD10O,3.900000X3.900000*%
%ADD11RoundRect,0.200000X-1.000000X0.952500X-1.000000X-0.952500X1.000000X-0.952500X1.000000X0.952500X0*%
%ADD12O,2.400000X2.305000*%
%ADD13RoundRect,0.200000X0.900000X0.900000X-0.900000X0.900000X-0.900000X-0.900000X0.900000X-0.900000X0*%
%ADD14C,2.200000*%
%ADD15C,2.450000*%
%ADD16C,2.650000*%
%ADD17RoundRect,0.450000X-0.845000X0.620000X-0.845000X-0.620000X0.845000X-0.620000X0.845000X0.620000X0*%
%ADD18O,2.590000X2.140000*%
%ADD19RoundRect,0.200000X0.850000X-0.850000X0.850000X0.850000X-0.850000X0.850000X-0.850000X-0.850000X0*%
%ADD20O,2.100000X2.100000*%
%ADD21RoundRect,0.200000X0.800000X0.800000X-0.800000X0.800000X-0.800000X-0.800000X0.800000X-0.800000X0*%
%ADD22O,2.000000X2.000000*%
%ADD23RoundRect,0.200000X0.850000X0.850000X-0.850000X0.850000X-0.850000X-0.850000X0.850000X-0.850000X0*%
%ADD24RoundRect,0.200000X1.200000X0.800000X-1.200000X0.800000X-1.200000X-0.800000X1.200000X-0.800000X0*%
%ADD25O,2.800000X2.000000*%
%ADD26RoundRect,0.200000X0.900000X-0.900000X0.900000X0.900000X-0.900000X0.900000X-0.900000X-0.900000X0*%
%ADD27C,1.800000*%
%ADD28O,1.800000X1.800000*%
%ADD29C,1.840000*%
G04 APERTURE END LIST*
D10*
%TO.C,U2*%
X67250000Y-129750000D03*
D11*
X50590000Y-127210000D03*
D12*
X50590000Y-129750000D03*
X50590000Y-132290000D03*
%TD*%
D13*
%TO.C,D3*%
X48290000Y-92000000D03*
D14*
X45750000Y-92000000D03*
%TD*%
D15*
%TO.C,J8*%
X41040000Y-75540000D03*
D16*
X43580000Y-78080000D03*
X43580000Y-73000000D03*
X38500000Y-78080000D03*
X38500000Y-73000000D03*
%TD*%
D17*
%TO.C,J4*%
X40250000Y-136600000D03*
D18*
X40250000Y-139140000D03*
%TD*%
D19*
%TO.C,J11*%
X72410000Y-115500000D03*
D20*
X69870000Y-115500000D03*
X67330000Y-115500000D03*
X64790000Y-115500000D03*
X62250000Y-115500000D03*
%TD*%
D17*
%TO.C,J10*%
X61250000Y-89500000D03*
D18*
X61250000Y-92040000D03*
X61250000Y-94580000D03*
X61250000Y-97120000D03*
%TD*%
D17*
%TO.C,J1*%
X40250000Y-116230000D03*
D18*
X40250000Y-118770000D03*
%TD*%
D21*
%TO.C,U9*%
X72550000Y-102950000D03*
D22*
X72550000Y-105490000D03*
X72550000Y-108030000D03*
X72550000Y-110570000D03*
X64930000Y-110570000D03*
X64930000Y-108030000D03*
X64930000Y-105490000D03*
X64930000Y-102950000D03*
%TD*%
D17*
%TO.C,J9*%
X40250000Y-82500000D03*
D18*
X40250000Y-85040000D03*
X40250000Y-87580000D03*
X40250000Y-90120000D03*
X40250000Y-92660000D03*
X40250000Y-95200000D03*
X40250000Y-97740000D03*
X40250000Y-100280000D03*
%TD*%
D23*
%TO.C,J13*%
X73700000Y-73650000D03*
D20*
X73700000Y-76190000D03*
X73700000Y-78730000D03*
X73700000Y-81270000D03*
%TD*%
D15*
%TO.C,J5*%
X41040000Y-55040000D03*
D16*
X38500000Y-52500000D03*
X38500000Y-57580000D03*
X43580000Y-52500000D03*
X43580000Y-57580000D03*
%TD*%
D13*
%TO.C,D2*%
X48290000Y-98750000D03*
D14*
X45750000Y-98750000D03*
%TD*%
D24*
%TO.C,U1*%
X68850000Y-48250000D03*
D25*
X68850000Y-50790000D03*
X68850000Y-53330000D03*
X68850000Y-55870000D03*
X68850000Y-58410000D03*
X68850000Y-60950000D03*
X68850000Y-63490000D03*
X68850000Y-66030000D03*
X68850000Y-68570000D03*
X68850000Y-71110000D03*
X68850000Y-73650000D03*
X68850000Y-76190000D03*
X68850000Y-78730000D03*
X68850000Y-81270000D03*
X53610000Y-81270000D03*
X53610000Y-78730000D03*
X53610000Y-76190000D03*
X53610000Y-73650000D03*
X53610000Y-71110000D03*
X53610000Y-68570000D03*
X53610000Y-66030000D03*
X53610000Y-63490000D03*
X53610000Y-60950000D03*
X53610000Y-58410000D03*
X53610000Y-55870000D03*
X53610000Y-53330000D03*
X53610000Y-50790000D03*
X53610000Y-48250000D03*
%TD*%
D17*
%TO.C,J3*%
X40250000Y-123000000D03*
D18*
X40250000Y-125540000D03*
%TD*%
D17*
%TO.C,J2*%
X40250000Y-129830000D03*
D18*
X40250000Y-132370000D03*
%TD*%
D26*
%TO.C,D4*%
X46950000Y-106800000D03*
D14*
X46950000Y-104260000D03*
%TD*%
D27*
%TO.C,R9*%
X72750000Y-100250000D03*
D28*
X67670000Y-100250000D03*
%TD*%
D15*
%TO.C,J6*%
X41040000Y-65540000D03*
D16*
X43580000Y-68080000D03*
X43580000Y-63000000D03*
X38500000Y-68080000D03*
X38500000Y-63000000D03*
%TD*%
D23*
%TO.C,J12*%
X73700000Y-50780000D03*
D20*
X73700000Y-53320000D03*
X73700000Y-55860000D03*
X73700000Y-58400000D03*
X73700000Y-60940000D03*
X73700000Y-63480000D03*
X73700000Y-66020000D03*
X73700000Y-68560000D03*
X73700000Y-71100000D03*
%TD*%
D29*
%TO.C,RV1*%
X54750000Y-91170000D03*
X54750000Y-93710000D03*
X54750000Y-96250000D03*
%TD*%
D17*
%TO.C,J7*%
X40250000Y-104460000D03*
D18*
X40250000Y-107000000D03*
X40250000Y-109540000D03*
X40250000Y-112080000D03*
%TD*%
M02*
