%TF.GenerationSoftware,KiCad,Pcbnew,7.0.6-0*%
%TF.CreationDate,2023-12-30T17:34:11-06:00*%
%TF.ProjectId,fpga_adaptor,66706761-5f61-4646-9170-746f722e6b69,rev?*%
%TF.SameCoordinates,Original*%
%TF.FileFunction,Copper,L2,Bot*%
%TF.FilePolarity,Positive*%
%FSLAX46Y46*%
G04 Gerber Fmt 4.6, Leading zero omitted, Abs format (unit mm)*
G04 Created by KiCad (PCBNEW 7.0.6-0) date 2023-12-30 17:34:11*
%MOMM*%
%LPD*%
G01*
G04 APERTURE LIST*
G04 Aperture macros list*
%AMRoundRect*
0 Rectangle with rounded corners*
0 $1 Rounding radius*
0 $2 $3 $4 $5 $6 $7 $8 $9 X,Y pos of 4 corners*
0 Add a 4 corners polygon primitive as box body*
4,1,4,$2,$3,$4,$5,$6,$7,$8,$9,$2,$3,0*
0 Add four circle primitives for the rounded corners*
1,1,$1+$1,$2,$3*
1,1,$1+$1,$4,$5*
1,1,$1+$1,$6,$7*
1,1,$1+$1,$8,$9*
0 Add four rect primitives between the rounded corners*
20,1,$1+$1,$2,$3,$4,$5,0*
20,1,$1+$1,$4,$5,$6,$7,0*
20,1,$1+$1,$6,$7,$8,$9,0*
20,1,$1+$1,$8,$9,$2,$3,0*%
G04 Aperture macros list end*
%TA.AperFunction,ComponentPad*%
%ADD10R,2.000000X1.905000*%
%TD*%
%TA.AperFunction,ComponentPad*%
%ADD11O,2.000000X1.905000*%
%TD*%
%TA.AperFunction,ComponentPad*%
%ADD12R,1.800000X1.800000*%
%TD*%
%TA.AperFunction,ComponentPad*%
%ADD13C,1.800000*%
%TD*%
%TA.AperFunction,ComponentPad*%
%ADD14C,2.050000*%
%TD*%
%TA.AperFunction,ComponentPad*%
%ADD15C,2.250000*%
%TD*%
%TA.AperFunction,ComponentPad*%
%ADD16RoundRect,0.250000X-0.845000X0.620000X-0.845000X-0.620000X0.845000X-0.620000X0.845000X0.620000X0*%
%TD*%
%TA.AperFunction,ComponentPad*%
%ADD17O,2.190000X1.740000*%
%TD*%
%TA.AperFunction,ComponentPad*%
%ADD18R,1.700000X1.700000*%
%TD*%
%TA.AperFunction,ComponentPad*%
%ADD19O,1.700000X1.700000*%
%TD*%
%TA.AperFunction,ComponentPad*%
%ADD20R,1.600000X1.600000*%
%TD*%
%TA.AperFunction,ComponentPad*%
%ADD21O,1.600000X1.600000*%
%TD*%
%TA.AperFunction,ComponentPad*%
%ADD22R,2.400000X1.600000*%
%TD*%
%TA.AperFunction,ComponentPad*%
%ADD23O,2.400000X1.600000*%
%TD*%
%TA.AperFunction,ComponentPad*%
%ADD24C,1.400000*%
%TD*%
%TA.AperFunction,ComponentPad*%
%ADD25O,1.400000X1.400000*%
%TD*%
%TA.AperFunction,ComponentPad*%
%ADD26C,1.440000*%
%TD*%
%TA.AperFunction,ViaPad*%
%ADD27C,1.000000*%
%TD*%
%TA.AperFunction,ViaPad*%
%ADD28C,3.500000*%
%TD*%
%TA.AperFunction,Conductor*%
%ADD29C,0.300000*%
%TD*%
%TA.AperFunction,Conductor*%
%ADD30C,0.600000*%
%TD*%
G04 APERTURE END LIST*
D10*
%TO.P,U2,1,IN*%
%TO.N,+12V*%
X50590000Y-127210000D03*
D11*
%TO.P,U2,2,GND*%
%TO.N,GND*%
X50590000Y-129750000D03*
%TO.P,U2,3,OUT*%
%TO.N,+5V*%
X50590000Y-132290000D03*
%TD*%
D12*
%TO.P,D3,1,K*%
%TO.N,Net-(D3-K)*%
X48290000Y-92000000D03*
D13*
%TO.P,D3,2,A*%
%TO.N,/codetrack*%
X45750000Y-92000000D03*
%TD*%
D14*
%TO.P,J8,1,In*%
%TO.N,Net-(J8-In)*%
X41040000Y-75540000D03*
D15*
%TO.P,J8,2,Ext*%
%TO.N,GND*%
X43580000Y-78080000D03*
X43580000Y-73000000D03*
X38500000Y-78080000D03*
X38500000Y-73000000D03*
%TD*%
D16*
%TO.P,J4,1,Pin_1*%
%TO.N,GND*%
X40250000Y-136600000D03*
D17*
%TO.P,J4,2,Pin_2*%
%TO.N,+12V*%
X40250000Y-139140000D03*
%TD*%
D18*
%TO.P,J11,1,Pin_1*%
%TO.N,GND*%
X72410000Y-115500000D03*
D19*
%TO.P,J11,2,Pin_2*%
%TO.N,/DIO*%
X69870000Y-115500000D03*
%TO.P,J11,3,Pin_3*%
%TO.N,/CLK*%
X67330000Y-115500000D03*
%TO.P,J11,4,Pin_4*%
%TO.N,/KEYPAD*%
X64790000Y-115500000D03*
%TO.P,J11,5,Pin_5*%
%TO.N,+5V*%
X62250000Y-115500000D03*
%TD*%
D16*
%TO.P,J10,1,Pin_1*%
%TO.N,GND*%
X61250000Y-89500000D03*
D17*
%TO.P,J10,2,Pin_2*%
%TO.N,/epoch*%
X61250000Y-92040000D03*
%TO.P,J10,3,Pin_3*%
%TO.N,/dataclk*%
X61250000Y-94580000D03*
%TO.P,J10,4,Pin_4*%
%TO.N,/data*%
X61250000Y-97120000D03*
%TD*%
D16*
%TO.P,J1,1,Pin_1*%
%TO.N,GND*%
X40250000Y-116230000D03*
D17*
%TO.P,J1,2,Pin_2*%
%TO.N,+12V*%
X40250000Y-118770000D03*
%TD*%
D20*
%TO.P,U9,1,~{RESET}/PB5*%
%TO.N,Net-(U9-~{RESET}{slash}PB5)*%
X72550000Y-102950000D03*
D21*
%TO.P,U9,2,XTAL1/PB3*%
%TO.N,/DIO*%
X72550000Y-105490000D03*
%TO.P,U9,3,XTAL2/PB4*%
%TO.N,/KEYPAD*%
X72550000Y-108030000D03*
%TO.P,U9,4,GND*%
%TO.N,GND*%
X72550000Y-110570000D03*
%TO.P,U9,5,AREF/PB0*%
%TO.N,/FPGA*%
X64930000Y-110570000D03*
%TO.P,U9,6,PB1*%
%TO.N,Net-(U1-J1)*%
X64930000Y-108030000D03*
%TO.P,U9,7,PB2*%
%TO.N,/CLK*%
X64930000Y-105490000D03*
%TO.P,U9,8,VCC*%
%TO.N,Net-(D5-K)*%
X64930000Y-102950000D03*
%TD*%
D16*
%TO.P,J9,1,Pin_1*%
%TO.N,+12V*%
X40250000Y-82500000D03*
D17*
%TO.P,J9,2,Pin_2*%
%TO.N,GND*%
X40250000Y-85040000D03*
%TO.P,J9,3,Pin_3*%
%TO.N,Net-(J9-Pin_3)*%
X40250000Y-87580000D03*
%TO.P,J9,4,Pin_4*%
%TO.N,/codetrack*%
X40250000Y-90120000D03*
%TO.P,J9,5,Pin_5*%
%TO.N,/doptrack*%
X40250000Y-92660000D03*
%TO.P,J9,6,Pin_6*%
%TO.N,GND*%
X40250000Y-95200000D03*
%TO.P,J9,7,Pin_7*%
%TO.N,Net-(J9-Pin_7)*%
X40250000Y-97740000D03*
%TO.P,J9,8,Pin_8*%
%TO.N,GND*%
X40250000Y-100280000D03*
%TD*%
D18*
%TO.P,J13,1,Pin_1*%
%TO.N,GND*%
X73700000Y-73650000D03*
D19*
%TO.P,J13,2,Pin_2*%
X73700000Y-76190000D03*
%TO.P,J13,3,Pin_3*%
X73700000Y-78730000D03*
%TO.P,J13,4,Pin_4*%
X73700000Y-81270000D03*
%TD*%
D14*
%TO.P,J5,1,In*%
%TO.N,Net-(J5-In)*%
X41040000Y-55040000D03*
D15*
%TO.P,J5,2,Ext*%
%TO.N,GND*%
X38500000Y-52500000D03*
X38500000Y-57580000D03*
X43580000Y-52500000D03*
X43580000Y-57580000D03*
%TD*%
D12*
%TO.P,D2,1,K*%
%TO.N,Net-(D2-K)*%
X48290000Y-98750000D03*
D13*
%TO.P,D2,2,A*%
%TO.N,/doptrack*%
X45750000Y-98750000D03*
%TD*%
D22*
%TO.P,U1,1,GND*%
%TO.N,GND*%
X68850000Y-48250000D03*
D23*
%TO.P,U1,2,A2*%
%TO.N,Net-(J12-Pin_1)*%
X68850000Y-50790000D03*
%TO.P,U1,3,A1*%
%TO.N,Net-(J12-Pin_2)*%
X68850000Y-53330000D03*
%TO.P,U1,4,B1*%
%TO.N,Net-(J12-Pin_3)*%
X68850000Y-55870000D03*
%TO.P,U1,5,C2*%
%TO.N,Net-(J12-Pin_4)*%
X68850000Y-58410000D03*
%TO.P,U1,6,C1*%
%TO.N,Net-(J12-Pin_5)*%
X68850000Y-60950000D03*
%TO.P,U1,7,D2*%
%TO.N,Net-(J12-Pin_6)*%
X68850000Y-63490000D03*
%TO.P,U1,8,D1*%
%TO.N,Net-(J12-Pin_7)*%
X68850000Y-66030000D03*
%TO.P,U1,9,E2*%
%TO.N,Net-(J12-Pin_8)*%
X68850000Y-68570000D03*
%TO.P,U1,10,E1*%
%TO.N,Net-(J12-Pin_9)*%
X68850000Y-71110000D03*
%TO.P,U1,11,G2*%
%TO.N,/DIO*%
X68850000Y-73650000D03*
%TO.P,U1,12,H1*%
%TO.N,/FPGA*%
X68850000Y-76190000D03*
%TO.P,U1,13,J1*%
%TO.N,Net-(U1-J1)*%
X68850000Y-78730000D03*
%TO.P,U1,14,H2*%
%TO.N,/CLK*%
X68850000Y-81270000D03*
%TO.P,U1,15,H9*%
%TO.N,/epoch*%
X53610000Y-81270000D03*
%TO.P,U1,16,D9*%
%TO.N,/dataclk*%
X53610000Y-78730000D03*
%TO.P,U1,17,D8*%
%TO.N,/data*%
X53610000Y-76190000D03*
%TO.P,U1,18,C9*%
%TO.N,/pwm*%
X53610000Y-73650000D03*
%TO.P,U1,19,A9*%
%TO.N,/dataedge*%
X53610000Y-71110000D03*
%TO.P,U1,20,B8*%
%TO.N,/codetrack*%
X53610000Y-68570000D03*
%TO.P,U1,21,A8*%
%TO.N,/doptrack*%
X53610000Y-66030000D03*
%TO.P,U1,22,B7*%
%TO.N,/codesign*%
X53610000Y-63490000D03*
%TO.P,U1,23,A7*%
%TO.N,/dithercacode*%
X53610000Y-60950000D03*
%TO.P,U1,24,B6*%
%TO.N,/ifin*%
X53610000Y-58410000D03*
%TO.P,U1,25,A6*%
%TO.N,/clk*%
X53610000Y-55870000D03*
%TO.P,U1,26,3.3*%
%TO.N,+3.3V*%
X53610000Y-53330000D03*
%TO.P,U1,27,GND*%
%TO.N,GND*%
X53610000Y-50790000D03*
%TO.P,U1,28,Vin*%
%TO.N,Net-(D1-K)*%
X53610000Y-48250000D03*
%TD*%
D16*
%TO.P,J3,1,Pin_1*%
%TO.N,GND*%
X40250000Y-123000000D03*
D17*
%TO.P,J3,2,Pin_2*%
%TO.N,+12V*%
X40250000Y-125540000D03*
%TD*%
D16*
%TO.P,J2,1,Pin_1*%
%TO.N,GND*%
X40250000Y-129830000D03*
D17*
%TO.P,J2,2,Pin_2*%
%TO.N,+12V*%
X40250000Y-132370000D03*
%TD*%
D12*
%TO.P,D4,1,K*%
%TO.N,/dataedge*%
X46950000Y-106800000D03*
D13*
%TO.P,D4,2,A*%
%TO.N,Net-(D4-A)*%
X46950000Y-104260000D03*
%TD*%
D24*
%TO.P,R9,1*%
%TO.N,Net-(U9-~{RESET}{slash}PB5)*%
X72750000Y-100250000D03*
D25*
%TO.P,R9,2*%
%TO.N,Net-(D5-K)*%
X67670000Y-100250000D03*
%TD*%
D14*
%TO.P,J6,1,In*%
%TO.N,Net-(J6-In)*%
X41040000Y-65540000D03*
D15*
%TO.P,J6,2,Ext*%
%TO.N,GND*%
X43580000Y-68080000D03*
X43580000Y-63000000D03*
X38500000Y-68080000D03*
X38500000Y-63000000D03*
%TD*%
D18*
%TO.P,J12,1,Pin_1*%
%TO.N,Net-(J12-Pin_1)*%
X73700000Y-50780000D03*
D19*
%TO.P,J12,2,Pin_2*%
%TO.N,Net-(J12-Pin_2)*%
X73700000Y-53320000D03*
%TO.P,J12,3,Pin_3*%
%TO.N,Net-(J12-Pin_3)*%
X73700000Y-55860000D03*
%TO.P,J12,4,Pin_4*%
%TO.N,Net-(J12-Pin_4)*%
X73700000Y-58400000D03*
%TO.P,J12,5,Pin_5*%
%TO.N,Net-(J12-Pin_5)*%
X73700000Y-60940000D03*
%TO.P,J12,6,Pin_6*%
%TO.N,Net-(J12-Pin_6)*%
X73700000Y-63480000D03*
%TO.P,J12,7,Pin_7*%
%TO.N,Net-(J12-Pin_7)*%
X73700000Y-66020000D03*
%TO.P,J12,8,Pin_8*%
%TO.N,Net-(J12-Pin_8)*%
X73700000Y-68560000D03*
%TO.P,J12,9,Pin_9*%
%TO.N,Net-(J12-Pin_9)*%
X73700000Y-71100000D03*
%TD*%
D26*
%TO.P,RV1,1,1*%
%TO.N,+5V*%
X54750000Y-91170000D03*
%TO.P,RV1,2,2*%
%TO.N,Net-(C11-Pad1)*%
X54750000Y-93710000D03*
%TO.P,RV1,3,3*%
%TO.N,GND*%
X54750000Y-96250000D03*
%TD*%
D16*
%TO.P,J7,1,Pin_1*%
%TO.N,GND*%
X40250000Y-104460000D03*
D17*
%TO.P,J7,2,Pin_2*%
%TO.N,+12V*%
X40250000Y-107000000D03*
%TO.P,J7,3,Pin_3*%
%TO.N,GND*%
X40250000Y-109540000D03*
%TO.P,J7,4,Pin_4*%
%TO.N,Net-(J7-Pin_4)*%
X40250000Y-112080000D03*
%TD*%
D27*
%TO.N,GND*%
X55000000Y-83250000D03*
X46800000Y-124400000D03*
X43200000Y-100400000D03*
X72500000Y-123500000D03*
X72500000Y-121250000D03*
X50400000Y-62800000D03*
X49800000Y-122400000D03*
D28*
X75000000Y-87500000D03*
D27*
X43200000Y-95200000D03*
X70000000Y-105500000D03*
D28*
X47500000Y-140000000D03*
X75000000Y-140000000D03*
D27*
X50600000Y-58000000D03*
X57750000Y-100000000D03*
X65700000Y-48000000D03*
X49000000Y-83000000D03*
X63500000Y-84200000D03*
X72800000Y-113000000D03*
X43200000Y-104600000D03*
X60500000Y-102250000D03*
X43400000Y-84600000D03*
X64000000Y-139750000D03*
X60500000Y-67800000D03*
X49500000Y-68500000D03*
D28*
X37500000Y-47500000D03*
D27*
X67000000Y-139750000D03*
%TO.N,+5V*%
X46250000Y-66300000D03*
X56905000Y-109925000D03*
X53250000Y-102750000D03*
X51405000Y-105150000D03*
X56800000Y-67200000D03*
%TD*%
D29*
%TO.N,+5V*%
X52750000Y-102750000D02*
X53250000Y-102750000D01*
X47150000Y-67200000D02*
X56800000Y-67200000D01*
X51405000Y-105150000D02*
X51405000Y-104095000D01*
X56905000Y-109925000D02*
X59675000Y-109925000D01*
X59675000Y-109925000D02*
X62250000Y-112500000D01*
X51405000Y-104095000D02*
X52750000Y-102750000D01*
X62250000Y-112500000D02*
X62250000Y-115500000D01*
X46250000Y-66300000D02*
X47150000Y-67200000D01*
D30*
%TO.N,+12V*%
X40250000Y-107000000D02*
X38250000Y-105000000D01*
X38250000Y-105000000D02*
X38250000Y-84500000D01*
X38250000Y-84500000D02*
X40250000Y-82500000D01*
%TD*%
%TA.AperFunction,Conductor*%
%TO.N,GND*%
G36*
X77432539Y-45030185D02*
G01*
X77478294Y-45082989D01*
X77489500Y-45134500D01*
X77489500Y-142365500D01*
X77469815Y-142432539D01*
X77417011Y-142478294D01*
X77365500Y-142489500D01*
X35134500Y-142489500D01*
X35067461Y-142469815D01*
X35021706Y-142417011D01*
X35010500Y-142365500D01*
X35010500Y-139081624D01*
X38650784Y-139081624D01*
X38660685Y-139314700D01*
X38660686Y-139314709D01*
X38709836Y-139542766D01*
X38709837Y-139542769D01*
X38796819Y-139759231D01*
X38796821Y-139759235D01*
X38919138Y-139957891D01*
X38999083Y-140048726D01*
X39073270Y-140133019D01*
X39073273Y-140133022D01*
X39254773Y-140279573D01*
X39254779Y-140279578D01*
X39458445Y-140393353D01*
X39458448Y-140393354D01*
X39678416Y-140471073D01*
X39806725Y-140493074D01*
X39908344Y-140510499D01*
X39908353Y-140510500D01*
X40533221Y-140510500D01*
X40707446Y-140495671D01*
X40707446Y-140495670D01*
X40707453Y-140495670D01*
X40933219Y-140436885D01*
X41145802Y-140340792D01*
X41339088Y-140210153D01*
X41507516Y-140048728D01*
X41646240Y-139861161D01*
X41751270Y-139652847D01*
X41819583Y-139429780D01*
X41849216Y-139198376D01*
X41839314Y-138965293D01*
X41790164Y-138737235D01*
X41703179Y-138520765D01*
X41580862Y-138322109D01*
X41426731Y-138146982D01*
X41426729Y-138146980D01*
X41426726Y-138146977D01*
X41245226Y-138000426D01*
X41245220Y-138000421D01*
X41041554Y-137886646D01*
X40821591Y-137808929D01*
X40821586Y-137808927D01*
X40821584Y-137808927D01*
X40821580Y-137808926D01*
X40821579Y-137808926D01*
X40591655Y-137769500D01*
X40591647Y-137769500D01*
X39966784Y-137769500D01*
X39966779Y-137769500D01*
X39792553Y-137784328D01*
X39792551Y-137784329D01*
X39566781Y-137843114D01*
X39354197Y-137939208D01*
X39160911Y-138069847D01*
X39160909Y-138069849D01*
X38992483Y-138231272D01*
X38992482Y-138231273D01*
X38853762Y-138418834D01*
X38748733Y-138627147D01*
X38748730Y-138627153D01*
X38680416Y-138850223D01*
X38650784Y-139081624D01*
X35010500Y-139081624D01*
X35010500Y-132311624D01*
X38650784Y-132311624D01*
X38660685Y-132544700D01*
X38660686Y-132544709D01*
X38709836Y-132772766D01*
X38709837Y-132772769D01*
X38796819Y-132989231D01*
X38796821Y-132989235D01*
X38919138Y-133187891D01*
X38997973Y-133277465D01*
X39073270Y-133363019D01*
X39073273Y-133363022D01*
X39254773Y-133509573D01*
X39254779Y-133509578D01*
X39458445Y-133623353D01*
X39458448Y-133623354D01*
X39678416Y-133701073D01*
X39806725Y-133723074D01*
X39908344Y-133740499D01*
X39908353Y-133740500D01*
X40533221Y-133740500D01*
X40707446Y-133725671D01*
X40707446Y-133725670D01*
X40707453Y-133725670D01*
X40933219Y-133666885D01*
X41145802Y-133570792D01*
X41339088Y-133440153D01*
X41507516Y-133278728D01*
X41646240Y-133091161D01*
X41751270Y-132882847D01*
X41819583Y-132659780D01*
X41849216Y-132428376D01*
X41848452Y-132410399D01*
X49089500Y-132410399D01*
X49092500Y-132428376D01*
X49129134Y-132647916D01*
X49207318Y-132875656D01*
X49207321Y-132875665D01*
X49321929Y-133087441D01*
X49324828Y-133091165D01*
X49469829Y-133277463D01*
X49646990Y-133440551D01*
X49848578Y-133572255D01*
X50069095Y-133668983D01*
X50302524Y-133728095D01*
X50482400Y-133743000D01*
X50482402Y-133743000D01*
X50697598Y-133743000D01*
X50697600Y-133743000D01*
X50877476Y-133728095D01*
X51110905Y-133668983D01*
X51331422Y-133572255D01*
X51533010Y-133440551D01*
X51710171Y-133277463D01*
X51858072Y-133087439D01*
X51972679Y-132875664D01*
X52050866Y-132647913D01*
X52090500Y-132410399D01*
X52090500Y-132169601D01*
X52050866Y-131932087D01*
X52040787Y-131902729D01*
X52004197Y-131796144D01*
X51972679Y-131704336D01*
X51858072Y-131492561D01*
X51710171Y-131302537D01*
X51533010Y-131139449D01*
X51331422Y-131007745D01*
X51331419Y-131007743D01*
X51331418Y-131007743D01*
X51110905Y-130911017D01*
X50877472Y-130851904D01*
X50733329Y-130839960D01*
X50697600Y-130837000D01*
X50482400Y-130837000D01*
X50449898Y-130839693D01*
X50302527Y-130851904D01*
X50069094Y-130911017D01*
X49848581Y-131007743D01*
X49646990Y-131139449D01*
X49499621Y-131275112D01*
X49469829Y-131302537D01*
X49436973Y-131344751D01*
X49321929Y-131492558D01*
X49207321Y-131704334D01*
X49207318Y-131704343D01*
X49129134Y-131932083D01*
X49097426Y-132122098D01*
X49089500Y-132169601D01*
X49089500Y-132410399D01*
X41848452Y-132410399D01*
X41839314Y-132195293D01*
X41790164Y-131967235D01*
X41703179Y-131750765D01*
X41580862Y-131552109D01*
X41426731Y-131376982D01*
X41426729Y-131376980D01*
X41426726Y-131376977D01*
X41245226Y-131230426D01*
X41245220Y-131230421D01*
X41041554Y-131116646D01*
X40821591Y-131038929D01*
X40821586Y-131038927D01*
X40821584Y-131038927D01*
X40821580Y-131038926D01*
X40821579Y-131038926D01*
X40591655Y-130999500D01*
X40591647Y-130999500D01*
X39966784Y-130999500D01*
X39966779Y-130999500D01*
X39792553Y-131014328D01*
X39792551Y-131014329D01*
X39566781Y-131073114D01*
X39354197Y-131169208D01*
X39160911Y-131299847D01*
X39160909Y-131299849D01*
X38992483Y-131461272D01*
X38992482Y-131461273D01*
X38853762Y-131648834D01*
X38748733Y-131857147D01*
X38748730Y-131857153D01*
X38680416Y-132080223D01*
X38650784Y-132311624D01*
X35010500Y-132311624D01*
X35010500Y-129750001D01*
X64994671Y-129750001D01*
X64996835Y-129783027D01*
X64996933Y-129789155D01*
X64995723Y-129825367D01*
X64995723Y-129825376D01*
X65006880Y-129936281D01*
X65013965Y-130044376D01*
X65013966Y-130044389D01*
X65021050Y-130080003D01*
X65021930Y-130085891D01*
X65025882Y-130125164D01*
X65050996Y-130230546D01*
X65071516Y-130333711D01*
X65071518Y-130333719D01*
X65084230Y-130371171D01*
X65085831Y-130376727D01*
X65095728Y-130418252D01*
X65095730Y-130418257D01*
X65095731Y-130418261D01*
X65133542Y-130516437D01*
X65158825Y-130590917D01*
X65166348Y-130613076D01*
X65185263Y-130651433D01*
X65187515Y-130656573D01*
X65204019Y-130699428D01*
X65204023Y-130699436D01*
X65253076Y-130788946D01*
X65296822Y-130877655D01*
X65296833Y-130877673D01*
X65322380Y-130915907D01*
X65325199Y-130920557D01*
X65348822Y-130963659D01*
X65348829Y-130963671D01*
X65406671Y-131042175D01*
X65408308Y-131044507D01*
X65449366Y-131105955D01*
X65460727Y-131122957D01*
X65475190Y-131139449D01*
X65493182Y-131159965D01*
X65496482Y-131164068D01*
X65527551Y-131206235D01*
X65593114Y-131274028D01*
X65595160Y-131276249D01*
X65655242Y-131344758D01*
X65690025Y-131375262D01*
X65694670Y-131379336D01*
X65698358Y-131382849D01*
X65737018Y-131422822D01*
X65737020Y-131422824D01*
X65764375Y-131444426D01*
X65808495Y-131479267D01*
X65810950Y-131481311D01*
X65877040Y-131539270D01*
X65877040Y-131539271D01*
X65923336Y-131570205D01*
X65927307Y-131573092D01*
X65973485Y-131609558D01*
X66039796Y-131648834D01*
X66049059Y-131654320D01*
X66051897Y-131656106D01*
X66103617Y-131690665D01*
X66122338Y-131703174D01*
X66139190Y-131711484D01*
X66175187Y-131729236D01*
X66179318Y-131731473D01*
X66211889Y-131750765D01*
X66232717Y-131763102D01*
X66232722Y-131763104D01*
X66232730Y-131763109D01*
X66310665Y-131796156D01*
X66313826Y-131797604D01*
X66386923Y-131833652D01*
X66445759Y-131853624D01*
X66450014Y-131855245D01*
X66510128Y-131880736D01*
X66588640Y-131902242D01*
X66592160Y-131903320D01*
X66666278Y-131928481D01*
X66724967Y-131940154D01*
X66730384Y-131941232D01*
X66734658Y-131942241D01*
X66800729Y-131960340D01*
X66878224Y-131970761D01*
X66882037Y-131971397D01*
X66955620Y-131986034D01*
X67024067Y-131990519D01*
X67028246Y-131990937D01*
X67099347Y-132000500D01*
X67174302Y-132000500D01*
X67178349Y-132000632D01*
X67210372Y-132002731D01*
X67249994Y-132005329D01*
X67250000Y-132005329D01*
X67250004Y-132005329D01*
X67260762Y-132004623D01*
X67322081Y-132000604D01*
X67325222Y-132000500D01*
X67325244Y-132000500D01*
X67398842Y-131995573D01*
X67544380Y-131986034D01*
X67544409Y-131986028D01*
X67545522Y-131985882D01*
X67549478Y-131985489D01*
X67550634Y-131985412D01*
X67693658Y-131956341D01*
X67833722Y-131928481D01*
X67834442Y-131928236D01*
X67842018Y-131926185D01*
X67845903Y-131925396D01*
X67980821Y-131878547D01*
X68113077Y-131833652D01*
X68116687Y-131831871D01*
X68123754Y-131828914D01*
X68130537Y-131826560D01*
X68255220Y-131763554D01*
X68377665Y-131703172D01*
X68383700Y-131699138D01*
X68390164Y-131695364D01*
X68399459Y-131690668D01*
X68512040Y-131613385D01*
X68622957Y-131539273D01*
X68630840Y-131532358D01*
X68636622Y-131527863D01*
X68647869Y-131520144D01*
X68746824Y-131430643D01*
X68844758Y-131344758D01*
X68853799Y-131334446D01*
X68858823Y-131329345D01*
X68871333Y-131318032D01*
X68955443Y-131218545D01*
X69039273Y-131122957D01*
X69048687Y-131108866D01*
X69052895Y-131103279D01*
X69065863Y-131087941D01*
X69065865Y-131087939D01*
X69134276Y-130980775D01*
X69203172Y-130877665D01*
X69212098Y-130859562D01*
X69215441Y-130853631D01*
X69227993Y-130833970D01*
X69280195Y-130721476D01*
X69333652Y-130613077D01*
X69341179Y-130590899D01*
X69343641Y-130584752D01*
X69354823Y-130560658D01*
X69390632Y-130445219D01*
X69428481Y-130333722D01*
X69433677Y-130307597D01*
X69435271Y-130301316D01*
X69444093Y-130272879D01*
X69463676Y-130156782D01*
X69486034Y-130044380D01*
X69487986Y-130014576D01*
X69488714Y-130008342D01*
X69494209Y-129975770D01*
X69498038Y-129861231D01*
X69500389Y-129825367D01*
X69505329Y-129750005D01*
X69505329Y-129750001D01*
X69505329Y-129750000D01*
X69503162Y-129716955D01*
X69503065Y-129710849D01*
X69504277Y-129674631D01*
X69493119Y-129563718D01*
X69486034Y-129455620D01*
X69478944Y-129419977D01*
X69478068Y-129414107D01*
X69474118Y-129374840D01*
X69474118Y-129374838D01*
X69449003Y-129269454D01*
X69428481Y-129166278D01*
X69415764Y-129128816D01*
X69414169Y-129123283D01*
X69404269Y-129081739D01*
X69366457Y-128983562D01*
X69333652Y-128886923D01*
X69314732Y-128848556D01*
X69312485Y-128843429D01*
X69295977Y-128800566D01*
X69264285Y-128742737D01*
X69246919Y-128711046D01*
X69223224Y-128662998D01*
X69203172Y-128622336D01*
X69177612Y-128584083D01*
X69174798Y-128579444D01*
X69151175Y-128536335D01*
X69093312Y-128457802D01*
X69091706Y-128455514D01*
X69039273Y-128377043D01*
X69006817Y-128340033D01*
X69003516Y-128335930D01*
X68972450Y-128293768D01*
X68972446Y-128293762D01*
X68949448Y-128269982D01*
X68906884Y-128225970D01*
X68904838Y-128223749D01*
X68844760Y-128155244D01*
X68805322Y-128120656D01*
X68801635Y-128117144D01*
X68762981Y-128077176D01*
X68691514Y-128020740D01*
X68689059Y-128018696D01*
X68622960Y-127960729D01*
X68576656Y-127929788D01*
X68572677Y-127926894D01*
X68526517Y-127890443D01*
X68511677Y-127881653D01*
X68450918Y-127845666D01*
X68448089Y-127843884D01*
X68377666Y-127796828D01*
X68324821Y-127770767D01*
X68320668Y-127768518D01*
X68267270Y-127736891D01*
X68267266Y-127736889D01*
X68267262Y-127736887D01*
X68237641Y-127724327D01*
X68189346Y-127703847D01*
X68186157Y-127702386D01*
X68113075Y-127666347D01*
X68054243Y-127646375D01*
X68049969Y-127644746D01*
X68011174Y-127628297D01*
X67989872Y-127619264D01*
X67989868Y-127619263D01*
X67989866Y-127619262D01*
X67911365Y-127597757D01*
X67907815Y-127596670D01*
X67833734Y-127571522D01*
X67833723Y-127571519D01*
X67833722Y-127571519D01*
X67769608Y-127558765D01*
X67765333Y-127557756D01*
X67699281Y-127539662D01*
X67699265Y-127539658D01*
X67621792Y-127529239D01*
X67617962Y-127528601D01*
X67571006Y-127519262D01*
X67544380Y-127513966D01*
X67544377Y-127513965D01*
X67544374Y-127513965D01*
X67475959Y-127509481D01*
X67471750Y-127509061D01*
X67437282Y-127504426D01*
X67400653Y-127499500D01*
X67400650Y-127499500D01*
X67325698Y-127499500D01*
X67321650Y-127499367D01*
X67289627Y-127497268D01*
X67250006Y-127494671D01*
X67250002Y-127494671D01*
X67250000Y-127494671D01*
X67201934Y-127497821D01*
X67177985Y-127499391D01*
X67174765Y-127499499D01*
X67101157Y-127504426D01*
X66955620Y-127513965D01*
X66954420Y-127514123D01*
X66950506Y-127514511D01*
X66949375Y-127514587D01*
X66949372Y-127514587D01*
X66949366Y-127514588D01*
X66806341Y-127543658D01*
X66666277Y-127571518D01*
X66666270Y-127571520D01*
X66665508Y-127571779D01*
X66657943Y-127573822D01*
X66654098Y-127574603D01*
X66590548Y-127596670D01*
X66519178Y-127621452D01*
X66473442Y-127636977D01*
X66386927Y-127666346D01*
X66386922Y-127666348D01*
X66383320Y-127668124D01*
X66376241Y-127671086D01*
X66369462Y-127673440D01*
X66244757Y-127736456D01*
X66122343Y-127796823D01*
X66122328Y-127796832D01*
X66116301Y-127800858D01*
X66109828Y-127804637D01*
X66100544Y-127809329D01*
X65987943Y-127886625D01*
X65923346Y-127929788D01*
X65877043Y-127960727D01*
X65869156Y-127967642D01*
X65863373Y-127972138D01*
X65852132Y-127979854D01*
X65753175Y-128069356D01*
X65655241Y-128155242D01*
X65646196Y-128165555D01*
X65641175Y-128170653D01*
X65628668Y-128181966D01*
X65544556Y-128281454D01*
X65460726Y-128377042D01*
X65451308Y-128391136D01*
X65447106Y-128396716D01*
X65434141Y-128412052D01*
X65434140Y-128412053D01*
X65365715Y-128519237D01*
X65296830Y-128622331D01*
X65287905Y-128640427D01*
X65284560Y-128646362D01*
X65272006Y-128666031D01*
X65219801Y-128778530D01*
X65166350Y-128886918D01*
X65166345Y-128886930D01*
X65158822Y-128909089D01*
X65156353Y-128915257D01*
X65145176Y-128939344D01*
X65145171Y-128939358D01*
X65109367Y-129054780D01*
X65071518Y-129166279D01*
X65071516Y-129166288D01*
X65066320Y-129192410D01*
X65064728Y-129198683D01*
X65055907Y-129227119D01*
X65055907Y-129227121D01*
X65036323Y-129343217D01*
X65021051Y-129420002D01*
X65013965Y-129455627D01*
X65013964Y-129455628D01*
X65012012Y-129485416D01*
X65011281Y-129491673D01*
X65005791Y-129524231D01*
X65001961Y-129638768D01*
X64994671Y-129750001D01*
X35010500Y-129750001D01*
X35010500Y-128210370D01*
X49089500Y-128210370D01*
X49089501Y-128210376D01*
X49095908Y-128269983D01*
X49146202Y-128404828D01*
X49146206Y-128404835D01*
X49232452Y-128520044D01*
X49232455Y-128520047D01*
X49347664Y-128606293D01*
X49347671Y-128606297D01*
X49482517Y-128656591D01*
X49482516Y-128656591D01*
X49489444Y-128657335D01*
X49542127Y-128663000D01*
X51637872Y-128662999D01*
X51697483Y-128656591D01*
X51832331Y-128606296D01*
X51947546Y-128520046D01*
X52033796Y-128404831D01*
X52084091Y-128269983D01*
X52090500Y-128210373D01*
X52090499Y-126209628D01*
X52084091Y-126150017D01*
X52033796Y-126015169D01*
X52033795Y-126015168D01*
X52033793Y-126015164D01*
X51947547Y-125899955D01*
X51947544Y-125899952D01*
X51832335Y-125813706D01*
X51832328Y-125813702D01*
X51697482Y-125763408D01*
X51697483Y-125763408D01*
X51637883Y-125757001D01*
X51637881Y-125757000D01*
X51637873Y-125757000D01*
X51637864Y-125757000D01*
X49542129Y-125757000D01*
X49542123Y-125757001D01*
X49482516Y-125763408D01*
X49347671Y-125813702D01*
X49347664Y-125813706D01*
X49232455Y-125899952D01*
X49232452Y-125899955D01*
X49146206Y-126015164D01*
X49146202Y-126015171D01*
X49095908Y-126150017D01*
X49089501Y-126209616D01*
X49089501Y-126209623D01*
X49089500Y-126209635D01*
X49089500Y-128210370D01*
X35010500Y-128210370D01*
X35010500Y-125481624D01*
X38650784Y-125481624D01*
X38660685Y-125714700D01*
X38660686Y-125714709D01*
X38709836Y-125942766D01*
X38709837Y-125942769D01*
X38796819Y-126159231D01*
X38796821Y-126159235D01*
X38919138Y-126357891D01*
X38999083Y-126448726D01*
X39073270Y-126533019D01*
X39073273Y-126533022D01*
X39254773Y-126679573D01*
X39254779Y-126679578D01*
X39458445Y-126793353D01*
X39458448Y-126793354D01*
X39678416Y-126871073D01*
X39806725Y-126893074D01*
X39908344Y-126910499D01*
X39908353Y-126910500D01*
X40533221Y-126910500D01*
X40707446Y-126895671D01*
X40707446Y-126895670D01*
X40707453Y-126895670D01*
X40933219Y-126836885D01*
X41145802Y-126740792D01*
X41339088Y-126610153D01*
X41507516Y-126448728D01*
X41646240Y-126261161D01*
X41751270Y-126052847D01*
X41819583Y-125829780D01*
X41849216Y-125598376D01*
X41839314Y-125365293D01*
X41790164Y-125137235D01*
X41703179Y-124920765D01*
X41580862Y-124722109D01*
X41426731Y-124546982D01*
X41426729Y-124546980D01*
X41426726Y-124546977D01*
X41245226Y-124400426D01*
X41245220Y-124400421D01*
X41041554Y-124286646D01*
X40821591Y-124208929D01*
X40821586Y-124208927D01*
X40821584Y-124208927D01*
X40821580Y-124208926D01*
X40821579Y-124208926D01*
X40591655Y-124169500D01*
X40591647Y-124169500D01*
X39966784Y-124169500D01*
X39966779Y-124169500D01*
X39792553Y-124184328D01*
X39792551Y-124184329D01*
X39566781Y-124243114D01*
X39354197Y-124339208D01*
X39160911Y-124469847D01*
X39160909Y-124469849D01*
X38992483Y-124631272D01*
X38992482Y-124631273D01*
X38853762Y-124818834D01*
X38748733Y-125027147D01*
X38748730Y-125027153D01*
X38680416Y-125250223D01*
X38650784Y-125481624D01*
X35010500Y-125481624D01*
X35010500Y-118711624D01*
X38650784Y-118711624D01*
X38660685Y-118944700D01*
X38660686Y-118944709D01*
X38709836Y-119172766D01*
X38709837Y-119172769D01*
X38796819Y-119389231D01*
X38796821Y-119389235D01*
X38919138Y-119587891D01*
X38999083Y-119678726D01*
X39073270Y-119763019D01*
X39073273Y-119763022D01*
X39254773Y-119909573D01*
X39254779Y-119909578D01*
X39458445Y-120023353D01*
X39458448Y-120023354D01*
X39678416Y-120101073D01*
X39806725Y-120123074D01*
X39908344Y-120140499D01*
X39908353Y-120140500D01*
X40533221Y-120140500D01*
X40707446Y-120125671D01*
X40707446Y-120125670D01*
X40707453Y-120125670D01*
X40933219Y-120066885D01*
X41145802Y-119970792D01*
X41339088Y-119840153D01*
X41507516Y-119678728D01*
X41646240Y-119491161D01*
X41751270Y-119282847D01*
X41819583Y-119059780D01*
X41849216Y-118828376D01*
X41839314Y-118595293D01*
X41790164Y-118367235D01*
X41703179Y-118150765D01*
X41580862Y-117952109D01*
X41426731Y-117776982D01*
X41426729Y-117776980D01*
X41426726Y-117776977D01*
X41245226Y-117630426D01*
X41245220Y-117630421D01*
X41041554Y-117516646D01*
X40821591Y-117438929D01*
X40821586Y-117438927D01*
X40821584Y-117438927D01*
X40821580Y-117438926D01*
X40821579Y-117438926D01*
X40591655Y-117399500D01*
X40591647Y-117399500D01*
X39966784Y-117399500D01*
X39966779Y-117399500D01*
X39792553Y-117414328D01*
X39792551Y-117414329D01*
X39566781Y-117473114D01*
X39354197Y-117569208D01*
X39160911Y-117699847D01*
X39160909Y-117699849D01*
X38992483Y-117861272D01*
X38992482Y-117861273D01*
X38853762Y-118048834D01*
X38748733Y-118257147D01*
X38748730Y-118257153D01*
X38680416Y-118480223D01*
X38650784Y-118711624D01*
X35010500Y-118711624D01*
X35010500Y-112021624D01*
X38650784Y-112021624D01*
X38660685Y-112254700D01*
X38660686Y-112254709D01*
X38709836Y-112482766D01*
X38709837Y-112482769D01*
X38796819Y-112699231D01*
X38796821Y-112699235D01*
X38919138Y-112897891D01*
X38999083Y-112988726D01*
X39073270Y-113073019D01*
X39073273Y-113073022D01*
X39254773Y-113219573D01*
X39254779Y-113219578D01*
X39458445Y-113333353D01*
X39458448Y-113333354D01*
X39678416Y-113411073D01*
X39806725Y-113433074D01*
X39908344Y-113450499D01*
X39908353Y-113450500D01*
X40533221Y-113450500D01*
X40707446Y-113435671D01*
X40707446Y-113435670D01*
X40707453Y-113435670D01*
X40933219Y-113376885D01*
X41145802Y-113280792D01*
X41339088Y-113150153D01*
X41507516Y-112988728D01*
X41646240Y-112801161D01*
X41751270Y-112592847D01*
X41819583Y-112369780D01*
X41849216Y-112138376D01*
X41847506Y-112098135D01*
X41839314Y-111905299D01*
X41839314Y-111905293D01*
X41790164Y-111677235D01*
X41703179Y-111460765D01*
X41580862Y-111262109D01*
X41426731Y-111086982D01*
X41426729Y-111086980D01*
X41426726Y-111086977D01*
X41245226Y-110940426D01*
X41245220Y-110940421D01*
X41041554Y-110826646D01*
X40821591Y-110748929D01*
X40821586Y-110748927D01*
X40821584Y-110748927D01*
X40821580Y-110748926D01*
X40821579Y-110748926D01*
X40591655Y-110709500D01*
X40591647Y-110709500D01*
X39966784Y-110709500D01*
X39966779Y-110709500D01*
X39792553Y-110724328D01*
X39792551Y-110724329D01*
X39566781Y-110783114D01*
X39354197Y-110879208D01*
X39160911Y-111009847D01*
X39160909Y-111009849D01*
X38992483Y-111171272D01*
X38992482Y-111171273D01*
X38853762Y-111358834D01*
X38748733Y-111567147D01*
X38748730Y-111567153D01*
X38680416Y-111790223D01*
X38650784Y-112021624D01*
X35010500Y-112021624D01*
X35010500Y-109925000D01*
X55899659Y-109925000D01*
X55918975Y-110121129D01*
X55976188Y-110309733D01*
X56069086Y-110483532D01*
X56069090Y-110483539D01*
X56194116Y-110635883D01*
X56346460Y-110760909D01*
X56346467Y-110760913D01*
X56520266Y-110853811D01*
X56520269Y-110853811D01*
X56520273Y-110853814D01*
X56708868Y-110911024D01*
X56905000Y-110930341D01*
X57101132Y-110911024D01*
X57289727Y-110853814D01*
X57463538Y-110760910D01*
X57615883Y-110635883D01*
X57628231Y-110620836D01*
X57685978Y-110581501D01*
X57724086Y-110575500D01*
X59354192Y-110575500D01*
X59421231Y-110595185D01*
X59441873Y-110611819D01*
X61563181Y-112733127D01*
X61596666Y-112794450D01*
X61599500Y-112820808D01*
X61599500Y-114242278D01*
X61579815Y-114309317D01*
X61546623Y-114343853D01*
X61378597Y-114461505D01*
X61211505Y-114628597D01*
X61075965Y-114822169D01*
X61075964Y-114822171D01*
X60976098Y-115036335D01*
X60976094Y-115036344D01*
X60914938Y-115264586D01*
X60914936Y-115264596D01*
X60894341Y-115499999D01*
X60894341Y-115500000D01*
X60914936Y-115735403D01*
X60914938Y-115735413D01*
X60976094Y-115963655D01*
X60976096Y-115963659D01*
X60976097Y-115963663D01*
X60980000Y-115972032D01*
X61075965Y-116177830D01*
X61075967Y-116177834D01*
X61184281Y-116332521D01*
X61211505Y-116371401D01*
X61378599Y-116538495D01*
X61475384Y-116606264D01*
X61572165Y-116674032D01*
X61572167Y-116674033D01*
X61572170Y-116674035D01*
X61786337Y-116773903D01*
X62014592Y-116835063D01*
X62202918Y-116851539D01*
X62249999Y-116855659D01*
X62250000Y-116855659D01*
X62250001Y-116855659D01*
X62289234Y-116852226D01*
X62485408Y-116835063D01*
X62713663Y-116773903D01*
X62927830Y-116674035D01*
X63121401Y-116538495D01*
X63288495Y-116371401D01*
X63418424Y-116185842D01*
X63473002Y-116142217D01*
X63542500Y-116135023D01*
X63604855Y-116166546D01*
X63621575Y-116185842D01*
X63751500Y-116371395D01*
X63751505Y-116371401D01*
X63918599Y-116538495D01*
X64015384Y-116606264D01*
X64112165Y-116674032D01*
X64112167Y-116674033D01*
X64112170Y-116674035D01*
X64326337Y-116773903D01*
X64554592Y-116835063D01*
X64742918Y-116851539D01*
X64789999Y-116855659D01*
X64790000Y-116855659D01*
X64790001Y-116855659D01*
X64829234Y-116852226D01*
X65025408Y-116835063D01*
X65253663Y-116773903D01*
X65467830Y-116674035D01*
X65661401Y-116538495D01*
X65828495Y-116371401D01*
X65958424Y-116185842D01*
X66013002Y-116142217D01*
X66082500Y-116135023D01*
X66144855Y-116166546D01*
X66161575Y-116185842D01*
X66291500Y-116371395D01*
X66291505Y-116371401D01*
X66458599Y-116538495D01*
X66555384Y-116606264D01*
X66652165Y-116674032D01*
X66652167Y-116674033D01*
X66652170Y-116674035D01*
X66866337Y-116773903D01*
X67094592Y-116835063D01*
X67282918Y-116851539D01*
X67329999Y-116855659D01*
X67330000Y-116855659D01*
X67330001Y-116855659D01*
X67369234Y-116852226D01*
X67565408Y-116835063D01*
X67793663Y-116773903D01*
X68007830Y-116674035D01*
X68201401Y-116538495D01*
X68368495Y-116371401D01*
X68498424Y-116185842D01*
X68553002Y-116142217D01*
X68622500Y-116135023D01*
X68684855Y-116166546D01*
X68701575Y-116185842D01*
X68831500Y-116371395D01*
X68831505Y-116371401D01*
X68998599Y-116538495D01*
X69095384Y-116606264D01*
X69192165Y-116674032D01*
X69192167Y-116674033D01*
X69192170Y-116674035D01*
X69406337Y-116773903D01*
X69634592Y-116835063D01*
X69822918Y-116851539D01*
X69869999Y-116855659D01*
X69870000Y-116855659D01*
X69870001Y-116855659D01*
X69909234Y-116852226D01*
X70105408Y-116835063D01*
X70333663Y-116773903D01*
X70547830Y-116674035D01*
X70741401Y-116538495D01*
X70908495Y-116371401D01*
X71044035Y-116177830D01*
X71143903Y-115963663D01*
X71205063Y-115735408D01*
X71225659Y-115500000D01*
X71205063Y-115264592D01*
X71143903Y-115036337D01*
X71044035Y-114822171D01*
X71038425Y-114814158D01*
X70908494Y-114628597D01*
X70741402Y-114461506D01*
X70741395Y-114461501D01*
X70547834Y-114325967D01*
X70547830Y-114325965D01*
X70469148Y-114289275D01*
X70333663Y-114226097D01*
X70333659Y-114226096D01*
X70333655Y-114226094D01*
X70105413Y-114164938D01*
X70105403Y-114164936D01*
X69870001Y-114144341D01*
X69869999Y-114144341D01*
X69634596Y-114164936D01*
X69634586Y-114164938D01*
X69406344Y-114226094D01*
X69406335Y-114226098D01*
X69192171Y-114325964D01*
X69192169Y-114325965D01*
X68998597Y-114461505D01*
X68831505Y-114628597D01*
X68701575Y-114814158D01*
X68646998Y-114857783D01*
X68577500Y-114864977D01*
X68515145Y-114833454D01*
X68498425Y-114814158D01*
X68368494Y-114628597D01*
X68201402Y-114461506D01*
X68201395Y-114461501D01*
X68007834Y-114325967D01*
X68007830Y-114325965D01*
X67929148Y-114289275D01*
X67793663Y-114226097D01*
X67793659Y-114226096D01*
X67793655Y-114226094D01*
X67565413Y-114164938D01*
X67565403Y-114164936D01*
X67330001Y-114144341D01*
X67329999Y-114144341D01*
X67094596Y-114164936D01*
X67094586Y-114164938D01*
X66866344Y-114226094D01*
X66866335Y-114226098D01*
X66652171Y-114325964D01*
X66652169Y-114325965D01*
X66458597Y-114461505D01*
X66291505Y-114628597D01*
X66161575Y-114814158D01*
X66106998Y-114857783D01*
X66037500Y-114864977D01*
X65975145Y-114833454D01*
X65958425Y-114814158D01*
X65828494Y-114628597D01*
X65661402Y-114461506D01*
X65661395Y-114461501D01*
X65467834Y-114325967D01*
X65467830Y-114325965D01*
X65389148Y-114289275D01*
X65253663Y-114226097D01*
X65253659Y-114226096D01*
X65253655Y-114226094D01*
X65025413Y-114164938D01*
X65025403Y-114164936D01*
X64790001Y-114144341D01*
X64789999Y-114144341D01*
X64554596Y-114164936D01*
X64554586Y-114164938D01*
X64326344Y-114226094D01*
X64326335Y-114226098D01*
X64112171Y-114325964D01*
X64112169Y-114325965D01*
X63918597Y-114461505D01*
X63751505Y-114628597D01*
X63621575Y-114814158D01*
X63566998Y-114857783D01*
X63497500Y-114864977D01*
X63435145Y-114833454D01*
X63418425Y-114814158D01*
X63288494Y-114628597D01*
X63121402Y-114461506D01*
X63121401Y-114461505D01*
X62953374Y-114343851D01*
X62909751Y-114289275D01*
X62900500Y-114242282D01*
X62900500Y-112585502D01*
X62902268Y-112569489D01*
X62902026Y-112569467D01*
X62902758Y-112561711D01*
X62902760Y-112561704D01*
X62900500Y-112489796D01*
X62900500Y-112459075D01*
X62899579Y-112451788D01*
X62899122Y-112445979D01*
X62897597Y-112397431D01*
X62891676Y-112377053D01*
X62887731Y-112358004D01*
X62885071Y-112336942D01*
X62867185Y-112291769D01*
X62865296Y-112286249D01*
X62851743Y-112239600D01*
X62840940Y-112221334D01*
X62832378Y-112203856D01*
X62824568Y-112184129D01*
X62824565Y-112184125D01*
X62796014Y-112144827D01*
X62792811Y-112139951D01*
X62791878Y-112138373D01*
X62768081Y-112098135D01*
X62768079Y-112098133D01*
X62768078Y-112098131D01*
X62753075Y-112083129D01*
X62740435Y-112068330D01*
X62727961Y-112051160D01*
X62690528Y-112020194D01*
X62686206Y-112016260D01*
X61239947Y-110570001D01*
X63624532Y-110570001D01*
X63644364Y-110796686D01*
X63644366Y-110796697D01*
X63703258Y-111016488D01*
X63703261Y-111016497D01*
X63799431Y-111222732D01*
X63799432Y-111222734D01*
X63929954Y-111409141D01*
X64090858Y-111570045D01*
X64090861Y-111570047D01*
X64277266Y-111700568D01*
X64483504Y-111796739D01*
X64703308Y-111855635D01*
X64865230Y-111869801D01*
X64929998Y-111875468D01*
X64930000Y-111875468D01*
X64930002Y-111875468D01*
X64986672Y-111870509D01*
X65156692Y-111855635D01*
X65376496Y-111796739D01*
X65582734Y-111700568D01*
X65769139Y-111570047D01*
X65930047Y-111409139D01*
X66060568Y-111222734D01*
X66156739Y-111016496D01*
X66215635Y-110796692D01*
X66235468Y-110570000D01*
X66215635Y-110343308D01*
X66156739Y-110123504D01*
X66060568Y-109917266D01*
X65930047Y-109730861D01*
X65930045Y-109730858D01*
X65769141Y-109569954D01*
X65582734Y-109439432D01*
X65582728Y-109439429D01*
X65524725Y-109412382D01*
X65472285Y-109366210D01*
X65453133Y-109299017D01*
X65473348Y-109232135D01*
X65524725Y-109187618D01*
X65582734Y-109160568D01*
X65769139Y-109030047D01*
X65930047Y-108869139D01*
X66060568Y-108682734D01*
X66156739Y-108476496D01*
X66215635Y-108256692D01*
X66235468Y-108030001D01*
X71244532Y-108030001D01*
X71264364Y-108256686D01*
X71264366Y-108256697D01*
X71323258Y-108476488D01*
X71323261Y-108476497D01*
X71419431Y-108682732D01*
X71419432Y-108682734D01*
X71549954Y-108869141D01*
X71710858Y-109030045D01*
X71710861Y-109030047D01*
X71897266Y-109160568D01*
X72103504Y-109256739D01*
X72323308Y-109315635D01*
X72485230Y-109329801D01*
X72549998Y-109335468D01*
X72550000Y-109335468D01*
X72550002Y-109335468D01*
X72606673Y-109330509D01*
X72776692Y-109315635D01*
X72996496Y-109256739D01*
X73202734Y-109160568D01*
X73389139Y-109030047D01*
X73550047Y-108869139D01*
X73680568Y-108682734D01*
X73776739Y-108476496D01*
X73835635Y-108256692D01*
X73855468Y-108030000D01*
X73852232Y-107993018D01*
X73844858Y-107908726D01*
X73835635Y-107803308D01*
X73776739Y-107583504D01*
X73680568Y-107377266D01*
X73550047Y-107190861D01*
X73550045Y-107190858D01*
X73389141Y-107029954D01*
X73202734Y-106899432D01*
X73202728Y-106899429D01*
X73144725Y-106872382D01*
X73092285Y-106826210D01*
X73073133Y-106759017D01*
X73093348Y-106692135D01*
X73144725Y-106647618D01*
X73202734Y-106620568D01*
X73389139Y-106490047D01*
X73550047Y-106329139D01*
X73680568Y-106142734D01*
X73776739Y-105936496D01*
X73835635Y-105716692D01*
X73854395Y-105502262D01*
X73855468Y-105490001D01*
X73855468Y-105489998D01*
X73839442Y-105306822D01*
X73835635Y-105263308D01*
X73776739Y-105043504D01*
X73680568Y-104837266D01*
X73550047Y-104650861D01*
X73550045Y-104650858D01*
X73389143Y-104489956D01*
X73364536Y-104472726D01*
X73320912Y-104418149D01*
X73313719Y-104348650D01*
X73345241Y-104286296D01*
X73405471Y-104250882D01*
X73422404Y-104247861D01*
X73457483Y-104244091D01*
X73592331Y-104193796D01*
X73707546Y-104107546D01*
X73793796Y-103992331D01*
X73844091Y-103857483D01*
X73850500Y-103797873D01*
X73850499Y-102102128D01*
X73844091Y-102042517D01*
X73809567Y-101949954D01*
X73793797Y-101907671D01*
X73793793Y-101907664D01*
X73707547Y-101792455D01*
X73707544Y-101792452D01*
X73592335Y-101706206D01*
X73592328Y-101706202D01*
X73457482Y-101655908D01*
X73457483Y-101655908D01*
X73397883Y-101649501D01*
X73397881Y-101649500D01*
X73397873Y-101649500D01*
X73397865Y-101649500D01*
X73124072Y-101649500D01*
X73057033Y-101629815D01*
X73011278Y-101577011D01*
X73001334Y-101507853D01*
X73030359Y-101444297D01*
X73079279Y-101409873D01*
X73079934Y-101409618D01*
X73079940Y-101409618D01*
X73287401Y-101329247D01*
X73476562Y-101212124D01*
X73640981Y-101062236D01*
X73775058Y-100884689D01*
X73874229Y-100685528D01*
X73935115Y-100471536D01*
X73955643Y-100250000D01*
X73935115Y-100028464D01*
X73874229Y-99814472D01*
X73859015Y-99783918D01*
X73775061Y-99615316D01*
X73775056Y-99615308D01*
X73640979Y-99437761D01*
X73476562Y-99287876D01*
X73476560Y-99287874D01*
X73287404Y-99170754D01*
X73287398Y-99170752D01*
X73079940Y-99090382D01*
X72861243Y-99049500D01*
X72638757Y-99049500D01*
X72420060Y-99090382D01*
X72368130Y-99110500D01*
X72212601Y-99170752D01*
X72212595Y-99170754D01*
X72023439Y-99287874D01*
X72023437Y-99287876D01*
X71859020Y-99437761D01*
X71724943Y-99615308D01*
X71724938Y-99615316D01*
X71625775Y-99814461D01*
X71625769Y-99814476D01*
X71564885Y-100028462D01*
X71564884Y-100028464D01*
X71544357Y-100249999D01*
X71544357Y-100250000D01*
X71564884Y-100471535D01*
X71564885Y-100471537D01*
X71625769Y-100685523D01*
X71625775Y-100685538D01*
X71724938Y-100884683D01*
X71724943Y-100884691D01*
X71859020Y-101062238D01*
X72023437Y-101212123D01*
X72023439Y-101212125D01*
X72212595Y-101329245D01*
X72212597Y-101329246D01*
X72212599Y-101329247D01*
X72420060Y-101409618D01*
X72420065Y-101409618D01*
X72420721Y-101409873D01*
X72476123Y-101452446D01*
X72499714Y-101518212D01*
X72484003Y-101586293D01*
X72433980Y-101635072D01*
X72375928Y-101649500D01*
X71702129Y-101649500D01*
X71702123Y-101649501D01*
X71642516Y-101655908D01*
X71507671Y-101706202D01*
X71507664Y-101706206D01*
X71392455Y-101792452D01*
X71392452Y-101792455D01*
X71306206Y-101907664D01*
X71306202Y-101907671D01*
X71255908Y-102042517D01*
X71249501Y-102102116D01*
X71249501Y-102102123D01*
X71249500Y-102102135D01*
X71249500Y-103797870D01*
X71249501Y-103797876D01*
X71255908Y-103857483D01*
X71306202Y-103992328D01*
X71306206Y-103992335D01*
X71392452Y-104107544D01*
X71392455Y-104107547D01*
X71507664Y-104193793D01*
X71507671Y-104193797D01*
X71552618Y-104210560D01*
X71642517Y-104244091D01*
X71677596Y-104247862D01*
X71742144Y-104274599D01*
X71781993Y-104331991D01*
X71784488Y-104401816D01*
X71748836Y-104461905D01*
X71735464Y-104472725D01*
X71710858Y-104489954D01*
X71549954Y-104650858D01*
X71419432Y-104837265D01*
X71419431Y-104837267D01*
X71323261Y-105043502D01*
X71323258Y-105043511D01*
X71264366Y-105263302D01*
X71264364Y-105263313D01*
X71244532Y-105489998D01*
X71244532Y-105490001D01*
X71264364Y-105716686D01*
X71264366Y-105716697D01*
X71323258Y-105936488D01*
X71323261Y-105936497D01*
X71419431Y-106142732D01*
X71419432Y-106142734D01*
X71549954Y-106329141D01*
X71710858Y-106490045D01*
X71710861Y-106490047D01*
X71897266Y-106620568D01*
X71955275Y-106647618D01*
X72007714Y-106693791D01*
X72026866Y-106760984D01*
X72006650Y-106827865D01*
X71955275Y-106872382D01*
X71897267Y-106899431D01*
X71897265Y-106899432D01*
X71710858Y-107029954D01*
X71549954Y-107190858D01*
X71419432Y-107377265D01*
X71419431Y-107377267D01*
X71323261Y-107583502D01*
X71323258Y-107583511D01*
X71264366Y-107803302D01*
X71264364Y-107803313D01*
X71244532Y-108029998D01*
X71244532Y-108030001D01*
X66235468Y-108030001D01*
X66235468Y-108030000D01*
X66232232Y-107993018D01*
X66224858Y-107908726D01*
X66215635Y-107803308D01*
X66156739Y-107583504D01*
X66060568Y-107377266D01*
X65930047Y-107190861D01*
X65930045Y-107190858D01*
X65769141Y-107029954D01*
X65582734Y-106899432D01*
X65582728Y-106899429D01*
X65524725Y-106872382D01*
X65472285Y-106826210D01*
X65453133Y-106759017D01*
X65473348Y-106692135D01*
X65524725Y-106647618D01*
X65582734Y-106620568D01*
X65769139Y-106490047D01*
X65930047Y-106329139D01*
X66060568Y-106142734D01*
X66156739Y-105936496D01*
X66215635Y-105716692D01*
X66234395Y-105502262D01*
X66235468Y-105490001D01*
X66235468Y-105489998D01*
X66219442Y-105306822D01*
X66215635Y-105263308D01*
X66156739Y-105043504D01*
X66060568Y-104837266D01*
X65930047Y-104650861D01*
X65930045Y-104650858D01*
X65769141Y-104489954D01*
X65582734Y-104359432D01*
X65582728Y-104359429D01*
X65524725Y-104332382D01*
X65472285Y-104286210D01*
X65453133Y-104219017D01*
X65473348Y-104152135D01*
X65524725Y-104107618D01*
X65582734Y-104080568D01*
X65769139Y-103950047D01*
X65930047Y-103789139D01*
X66060568Y-103602734D01*
X66156739Y-103396496D01*
X66215635Y-103176692D01*
X66235468Y-102950000D01*
X66215635Y-102723308D01*
X66156739Y-102503504D01*
X66060568Y-102297266D01*
X65930047Y-102110861D01*
X65930045Y-102110858D01*
X65769141Y-101949954D01*
X65582734Y-101819432D01*
X65582732Y-101819431D01*
X65376497Y-101723261D01*
X65376488Y-101723258D01*
X65156697Y-101664366D01*
X65156693Y-101664365D01*
X65156692Y-101664365D01*
X65156691Y-101664364D01*
X65156686Y-101664364D01*
X64930002Y-101644532D01*
X64929998Y-101644532D01*
X64703313Y-101664364D01*
X64703302Y-101664366D01*
X64483511Y-101723258D01*
X64483502Y-101723261D01*
X64277267Y-101819431D01*
X64277265Y-101819432D01*
X64090858Y-101949954D01*
X63929954Y-102110858D01*
X63799432Y-102297265D01*
X63799431Y-102297267D01*
X63703261Y-102503502D01*
X63703258Y-102503511D01*
X63644366Y-102723302D01*
X63644364Y-102723313D01*
X63624532Y-102949998D01*
X63624532Y-102950001D01*
X63644364Y-103176686D01*
X63644366Y-103176697D01*
X63703258Y-103396488D01*
X63703261Y-103396497D01*
X63799431Y-103602732D01*
X63799432Y-103602734D01*
X63929954Y-103789141D01*
X64090858Y-103950045D01*
X64137693Y-103982839D01*
X64277266Y-104080568D01*
X64335275Y-104107618D01*
X64387714Y-104153791D01*
X64406866Y-104220984D01*
X64386650Y-104287865D01*
X64335275Y-104332382D01*
X64277267Y-104359431D01*
X64277265Y-104359432D01*
X64090858Y-104489954D01*
X63929954Y-104650858D01*
X63799432Y-104837265D01*
X63799431Y-104837267D01*
X63703261Y-105043502D01*
X63703258Y-105043511D01*
X63644366Y-105263302D01*
X63644364Y-105263313D01*
X63624532Y-105489998D01*
X63624532Y-105490001D01*
X63644364Y-105716686D01*
X63644366Y-105716697D01*
X63703258Y-105936488D01*
X63703261Y-105936497D01*
X63799431Y-106142732D01*
X63799432Y-106142734D01*
X63929954Y-106329141D01*
X64090858Y-106490045D01*
X64090861Y-106490047D01*
X64277266Y-106620568D01*
X64335275Y-106647618D01*
X64387714Y-106693791D01*
X64406866Y-106760984D01*
X64386650Y-106827865D01*
X64335275Y-106872382D01*
X64277267Y-106899431D01*
X64277265Y-106899432D01*
X64090858Y-107029954D01*
X63929954Y-107190858D01*
X63799432Y-107377265D01*
X63799431Y-107377267D01*
X63703261Y-107583502D01*
X63703258Y-107583511D01*
X63644366Y-107803302D01*
X63644364Y-107803313D01*
X63624532Y-108029998D01*
X63624532Y-108030001D01*
X63644364Y-108256686D01*
X63644366Y-108256697D01*
X63703258Y-108476488D01*
X63703261Y-108476497D01*
X63799431Y-108682732D01*
X63799432Y-108682734D01*
X63929954Y-108869141D01*
X64090858Y-109030045D01*
X64090861Y-109030047D01*
X64277266Y-109160568D01*
X64335275Y-109187618D01*
X64387714Y-109233791D01*
X64406866Y-109300984D01*
X64386650Y-109367865D01*
X64335275Y-109412382D01*
X64277267Y-109439431D01*
X64277265Y-109439432D01*
X64090858Y-109569954D01*
X63929954Y-109730858D01*
X63799432Y-109917265D01*
X63799431Y-109917267D01*
X63703261Y-110123502D01*
X63703258Y-110123511D01*
X63644366Y-110343302D01*
X63644364Y-110343313D01*
X63624532Y-110569998D01*
X63624532Y-110570001D01*
X61239947Y-110570001D01*
X60195434Y-109525488D01*
X60185361Y-109512914D01*
X60185174Y-109513070D01*
X60180201Y-109507059D01*
X60127756Y-109457810D01*
X60106035Y-109436089D01*
X60100240Y-109431594D01*
X60095798Y-109427799D01*
X60060396Y-109394554D01*
X60060388Y-109394548D01*
X60041792Y-109384325D01*
X60025531Y-109373644D01*
X60008763Y-109360637D01*
X59985295Y-109350482D01*
X59964178Y-109341343D01*
X59958956Y-109338786D01*
X59916368Y-109315373D01*
X59916365Y-109315372D01*
X59895801Y-109310092D01*
X59877396Y-109303790D01*
X59857927Y-109295365D01*
X59857921Y-109295363D01*
X59809951Y-109287766D01*
X59804236Y-109286582D01*
X59787772Y-109282355D01*
X59757180Y-109274500D01*
X59757177Y-109274500D01*
X59735955Y-109274500D01*
X59716555Y-109272973D01*
X59695596Y-109269653D01*
X59695595Y-109269653D01*
X59671786Y-109271903D01*
X59647230Y-109274225D01*
X59641392Y-109274500D01*
X57724086Y-109274500D01*
X57657047Y-109254815D01*
X57628232Y-109229164D01*
X57615882Y-109214116D01*
X57463539Y-109089090D01*
X57463532Y-109089086D01*
X57289733Y-108996188D01*
X57289727Y-108996186D01*
X57101132Y-108938976D01*
X57101129Y-108938975D01*
X56905000Y-108919659D01*
X56708870Y-108938975D01*
X56520266Y-108996188D01*
X56346467Y-109089086D01*
X56346460Y-109089090D01*
X56194116Y-109214116D01*
X56069090Y-109366460D01*
X56069086Y-109366467D01*
X55976188Y-109540266D01*
X55918975Y-109728870D01*
X55899659Y-109925000D01*
X35010500Y-109925000D01*
X35010500Y-105090191D01*
X37449500Y-105090191D01*
X37449501Y-105090200D01*
X37458791Y-105130908D01*
X37459955Y-105137763D01*
X37464632Y-105179259D01*
X37478420Y-105218662D01*
X37480345Y-105225345D01*
X37489639Y-105266061D01*
X37507759Y-105303688D01*
X37510421Y-105310114D01*
X37524212Y-105349525D01*
X37546422Y-105384872D01*
X37549787Y-105390959D01*
X37567910Y-105428589D01*
X37593940Y-105461229D01*
X37597966Y-105466904D01*
X37620182Y-105502259D01*
X37620184Y-105502262D01*
X38662338Y-106544416D01*
X38695823Y-106605739D01*
X38693222Y-106668406D01*
X38680416Y-106710221D01*
X38650784Y-106941624D01*
X38660685Y-107174700D01*
X38660686Y-107174709D01*
X38709836Y-107402766D01*
X38709837Y-107402769D01*
X38796819Y-107619231D01*
X38796821Y-107619235D01*
X38919138Y-107817891D01*
X39073269Y-107993018D01*
X39073270Y-107993019D01*
X39073273Y-107993022D01*
X39254773Y-108139573D01*
X39254779Y-108139578D01*
X39458445Y-108253353D01*
X39467910Y-108256697D01*
X39678416Y-108331073D01*
X39806725Y-108353074D01*
X39908344Y-108370499D01*
X39908353Y-108370500D01*
X40533221Y-108370500D01*
X40707446Y-108355671D01*
X40707446Y-108355670D01*
X40707453Y-108355670D01*
X40933219Y-108296885D01*
X41145802Y-108200792D01*
X41339088Y-108070153D01*
X41507516Y-107908728D01*
X41646240Y-107721161D01*
X41751270Y-107512847D01*
X41819583Y-107289780D01*
X41849216Y-107058376D01*
X41839314Y-106825293D01*
X41790164Y-106597235D01*
X41703179Y-106380765D01*
X41580862Y-106182109D01*
X41426731Y-106006982D01*
X41426729Y-106006980D01*
X41426726Y-106006977D01*
X41245226Y-105860426D01*
X41245220Y-105860421D01*
X41041554Y-105746646D01*
X40821591Y-105668929D01*
X40821586Y-105668927D01*
X40821584Y-105668927D01*
X40821580Y-105668926D01*
X40821579Y-105668926D01*
X40591655Y-105629500D01*
X40591647Y-105629500D01*
X40062940Y-105629500D01*
X39995901Y-105609815D01*
X39975259Y-105593181D01*
X39086819Y-104704740D01*
X39053334Y-104643417D01*
X39050500Y-104617059D01*
X39050500Y-104260006D01*
X45544700Y-104260006D01*
X45563864Y-104491297D01*
X45563866Y-104491308D01*
X45620842Y-104716300D01*
X45714075Y-104928848D01*
X45841016Y-105123147D01*
X45841019Y-105123151D01*
X45841021Y-105123153D01*
X45935803Y-105226114D01*
X45966724Y-105288767D01*
X45958864Y-105358193D01*
X45914716Y-105412348D01*
X45887906Y-105426277D01*
X45807669Y-105456203D01*
X45807664Y-105456206D01*
X45692455Y-105542452D01*
X45692452Y-105542455D01*
X45606206Y-105657664D01*
X45606202Y-105657671D01*
X45555908Y-105792517D01*
X45549501Y-105852116D01*
X45549501Y-105852123D01*
X45549500Y-105852135D01*
X45549500Y-107747870D01*
X45549501Y-107747876D01*
X45555908Y-107807483D01*
X45606202Y-107942328D01*
X45606206Y-107942335D01*
X45692452Y-108057544D01*
X45692455Y-108057547D01*
X45807664Y-108143793D01*
X45807671Y-108143797D01*
X45942517Y-108194091D01*
X45942516Y-108194091D01*
X45949444Y-108194835D01*
X46002127Y-108200500D01*
X47897872Y-108200499D01*
X47957483Y-108194091D01*
X48092331Y-108143796D01*
X48207546Y-108057546D01*
X48293796Y-107942331D01*
X48344091Y-107807483D01*
X48350500Y-107747873D01*
X48350499Y-105852128D01*
X48344091Y-105792517D01*
X48326982Y-105746646D01*
X48293797Y-105657671D01*
X48293793Y-105657664D01*
X48207547Y-105542455D01*
X48207544Y-105542452D01*
X48092335Y-105456206D01*
X48092328Y-105456202D01*
X48012094Y-105426277D01*
X47956160Y-105384406D01*
X47931743Y-105318941D01*
X47946595Y-105250668D01*
X47964190Y-105226121D01*
X48034265Y-105150000D01*
X50399659Y-105150000D01*
X50418975Y-105346129D01*
X50418976Y-105346132D01*
X50462618Y-105490001D01*
X50476188Y-105534733D01*
X50569086Y-105708532D01*
X50569090Y-105708539D01*
X50694116Y-105860883D01*
X50846460Y-105985909D01*
X50846467Y-105985913D01*
X51020266Y-106078811D01*
X51020269Y-106078811D01*
X51020273Y-106078814D01*
X51208868Y-106136024D01*
X51405000Y-106155341D01*
X51601132Y-106136024D01*
X51789727Y-106078814D01*
X51963538Y-105985910D01*
X52115883Y-105860883D01*
X52240910Y-105708538D01*
X52333814Y-105534727D01*
X52391024Y-105346132D01*
X52410341Y-105150000D01*
X52391024Y-104953868D01*
X52333814Y-104765273D01*
X52333811Y-104765269D01*
X52333811Y-104765266D01*
X52240913Y-104591467D01*
X52240909Y-104591460D01*
X52126304Y-104451815D01*
X52098991Y-104387505D01*
X52110782Y-104318638D01*
X52134473Y-104285472D01*
X52719345Y-103700599D01*
X52780666Y-103667116D01*
X52850357Y-103672100D01*
X52864815Y-103678625D01*
X52865260Y-103678809D01*
X52865268Y-103678811D01*
X52865273Y-103678814D01*
X53053868Y-103736024D01*
X53250000Y-103755341D01*
X53446132Y-103736024D01*
X53634727Y-103678814D01*
X53634737Y-103678809D01*
X53721632Y-103632361D01*
X53808538Y-103585910D01*
X53960883Y-103460883D01*
X54085910Y-103308538D01*
X54156383Y-103176692D01*
X54178811Y-103134733D01*
X54178811Y-103134732D01*
X54178814Y-103134727D01*
X54236024Y-102946132D01*
X54255341Y-102750000D01*
X54236024Y-102553868D01*
X54178814Y-102365273D01*
X54178811Y-102365269D01*
X54178811Y-102365266D01*
X54085913Y-102191467D01*
X54085909Y-102191460D01*
X53960883Y-102039116D01*
X53808539Y-101914090D01*
X53808532Y-101914086D01*
X53634733Y-101821188D01*
X53634727Y-101821186D01*
X53446132Y-101763976D01*
X53446129Y-101763975D01*
X53250000Y-101744659D01*
X53053870Y-101763975D01*
X52865266Y-101821188D01*
X52691467Y-101914086D01*
X52691460Y-101914090D01*
X52539121Y-102039112D01*
X52427169Y-102175522D01*
X52404207Y-102197170D01*
X52394841Y-102203975D01*
X52389956Y-102207184D01*
X52348131Y-102231921D01*
X52333126Y-102246926D01*
X52318336Y-102259558D01*
X52301167Y-102272032D01*
X52301165Y-102272034D01*
X52270194Y-102309470D01*
X52266262Y-102313791D01*
X51005483Y-103574569D01*
X50992910Y-103584643D01*
X50993065Y-103584830D01*
X50987059Y-103589798D01*
X50974912Y-103602734D01*
X50937809Y-103642244D01*
X50926949Y-103653104D01*
X50916088Y-103663965D01*
X50916078Y-103663977D01*
X50911587Y-103669765D01*
X50907801Y-103674197D01*
X50874552Y-103709606D01*
X50864322Y-103728213D01*
X50853646Y-103744464D01*
X50840640Y-103761232D01*
X50840636Y-103761238D01*
X50821348Y-103805811D01*
X50818777Y-103811058D01*
X50795372Y-103853630D01*
X50795372Y-103853631D01*
X50790091Y-103874199D01*
X50783791Y-103892601D01*
X50775364Y-103912073D01*
X50767766Y-103960047D01*
X50766581Y-103965769D01*
X50754500Y-104012822D01*
X50754499Y-104012829D01*
X50754499Y-104034047D01*
X50752973Y-104053436D01*
X50749653Y-104074402D01*
X50749653Y-104074404D01*
X50754225Y-104122767D01*
X50754500Y-104128606D01*
X50754500Y-104330914D01*
X50734815Y-104397953D01*
X50709167Y-104426765D01*
X50694115Y-104439118D01*
X50569090Y-104591460D01*
X50569086Y-104591467D01*
X50476188Y-104765266D01*
X50418975Y-104953870D01*
X50399659Y-105150000D01*
X48034265Y-105150000D01*
X48058979Y-105123153D01*
X48185924Y-104928849D01*
X48279157Y-104716300D01*
X48336134Y-104491305D01*
X48336246Y-104489953D01*
X48355300Y-104260006D01*
X48355300Y-104259993D01*
X48336135Y-104028702D01*
X48336133Y-104028691D01*
X48279157Y-103803699D01*
X48185924Y-103591151D01*
X48058983Y-103396852D01*
X48058980Y-103396849D01*
X48058979Y-103396847D01*
X47901784Y-103226087D01*
X47901779Y-103226083D01*
X47901777Y-103226081D01*
X47718634Y-103083535D01*
X47718628Y-103083531D01*
X47514504Y-102973064D01*
X47514495Y-102973061D01*
X47294984Y-102897702D01*
X47123282Y-102869050D01*
X47066049Y-102859500D01*
X46833951Y-102859500D01*
X46788164Y-102867140D01*
X46605015Y-102897702D01*
X46385504Y-102973061D01*
X46385495Y-102973064D01*
X46181371Y-103083531D01*
X46181365Y-103083535D01*
X45998222Y-103226081D01*
X45998219Y-103226084D01*
X45841016Y-103396852D01*
X45714075Y-103591151D01*
X45620842Y-103803699D01*
X45563866Y-104028691D01*
X45563864Y-104028702D01*
X45544700Y-104259993D01*
X45544700Y-104260006D01*
X39050500Y-104260006D01*
X39050500Y-100250000D01*
X66464357Y-100250000D01*
X66484884Y-100471535D01*
X66484885Y-100471537D01*
X66545769Y-100685523D01*
X66545775Y-100685538D01*
X66644938Y-100884683D01*
X66644943Y-100884691D01*
X66779020Y-101062238D01*
X66943437Y-101212123D01*
X66943439Y-101212125D01*
X67132595Y-101329245D01*
X67132596Y-101329245D01*
X67132599Y-101329247D01*
X67340060Y-101409618D01*
X67558757Y-101450500D01*
X67558759Y-101450500D01*
X67781241Y-101450500D01*
X67781243Y-101450500D01*
X67999940Y-101409618D01*
X68207401Y-101329247D01*
X68396562Y-101212124D01*
X68560981Y-101062236D01*
X68695058Y-100884689D01*
X68794229Y-100685528D01*
X68855115Y-100471536D01*
X68875643Y-100250000D01*
X68855115Y-100028464D01*
X68794229Y-99814472D01*
X68779015Y-99783918D01*
X68695061Y-99615316D01*
X68695056Y-99615308D01*
X68560979Y-99437761D01*
X68396562Y-99287876D01*
X68396560Y-99287874D01*
X68207404Y-99170754D01*
X68207398Y-99170752D01*
X67999940Y-99090382D01*
X67781243Y-99049500D01*
X67558757Y-99049500D01*
X67340060Y-99090382D01*
X67288130Y-99110500D01*
X67132601Y-99170752D01*
X67132595Y-99170754D01*
X66943439Y-99287874D01*
X66943437Y-99287876D01*
X66779020Y-99437761D01*
X66644943Y-99615308D01*
X66644938Y-99615316D01*
X66545775Y-99814461D01*
X66545769Y-99814476D01*
X66484885Y-100028462D01*
X66484884Y-100028464D01*
X66464357Y-100249999D01*
X66464357Y-100250000D01*
X39050500Y-100250000D01*
X39050500Y-98974132D01*
X39070185Y-98907093D01*
X39122989Y-98861338D01*
X39192147Y-98851394D01*
X39250328Y-98876755D01*
X39250415Y-98876628D01*
X39251102Y-98877092D01*
X39252404Y-98877660D01*
X39254776Y-98879575D01*
X39254779Y-98879578D01*
X39458445Y-98993353D01*
X39458448Y-98993354D01*
X39678416Y-99071073D01*
X39806725Y-99093074D01*
X39908344Y-99110499D01*
X39908353Y-99110500D01*
X40533221Y-99110500D01*
X40707446Y-99095671D01*
X40707446Y-99095670D01*
X40707453Y-99095670D01*
X40933219Y-99036885D01*
X41145802Y-98940792D01*
X41339088Y-98810153D01*
X41401844Y-98750006D01*
X44344700Y-98750006D01*
X44363864Y-98981297D01*
X44363866Y-98981308D01*
X44420842Y-99206300D01*
X44514075Y-99418848D01*
X44641016Y-99613147D01*
X44641019Y-99613151D01*
X44641021Y-99613153D01*
X44798216Y-99783913D01*
X44798219Y-99783915D01*
X44798222Y-99783918D01*
X44981365Y-99926464D01*
X44981371Y-99926468D01*
X44981374Y-99926470D01*
X45185497Y-100036936D01*
X45299487Y-100076068D01*
X45405015Y-100112297D01*
X45405017Y-100112297D01*
X45405019Y-100112298D01*
X45633951Y-100150500D01*
X45633952Y-100150500D01*
X45866048Y-100150500D01*
X45866049Y-100150500D01*
X46094981Y-100112298D01*
X46314503Y-100036936D01*
X46518626Y-99926470D01*
X46701784Y-99783913D01*
X46710130Y-99774846D01*
X46770010Y-99738854D01*
X46839849Y-99740949D01*
X46897468Y-99780469D01*
X46917544Y-99815491D01*
X46946203Y-99892330D01*
X46946206Y-99892335D01*
X47032452Y-100007544D01*
X47032455Y-100007547D01*
X47147664Y-100093793D01*
X47147671Y-100093797D01*
X47282517Y-100144091D01*
X47282516Y-100144091D01*
X47289444Y-100144835D01*
X47342127Y-100150500D01*
X49237872Y-100150499D01*
X49297483Y-100144091D01*
X49432331Y-100093796D01*
X49547546Y-100007546D01*
X49633796Y-99892331D01*
X49684091Y-99757483D01*
X49690500Y-99697873D01*
X49690499Y-97802128D01*
X49684091Y-97742517D01*
X49682865Y-97739231D01*
X49633797Y-97607671D01*
X49633793Y-97607664D01*
X49547547Y-97492455D01*
X49547544Y-97492452D01*
X49432335Y-97406206D01*
X49432328Y-97406202D01*
X49297482Y-97355908D01*
X49297483Y-97355908D01*
X49237883Y-97349501D01*
X49237881Y-97349500D01*
X49237873Y-97349500D01*
X49237864Y-97349500D01*
X47342129Y-97349500D01*
X47342123Y-97349501D01*
X47282516Y-97355908D01*
X47147671Y-97406202D01*
X47147664Y-97406206D01*
X47032455Y-97492452D01*
X47032452Y-97492455D01*
X46946206Y-97607664D01*
X46946203Y-97607670D01*
X46917544Y-97684508D01*
X46875672Y-97740441D01*
X46810208Y-97764858D01*
X46741935Y-97750006D01*
X46710135Y-97725158D01*
X46701784Y-97716087D01*
X46701778Y-97716082D01*
X46701777Y-97716081D01*
X46518634Y-97573535D01*
X46518628Y-97573531D01*
X46314504Y-97463064D01*
X46314495Y-97463061D01*
X46094984Y-97387702D01*
X45904450Y-97355908D01*
X45866049Y-97349500D01*
X45633951Y-97349500D01*
X45595550Y-97355908D01*
X45405015Y-97387702D01*
X45185504Y-97463061D01*
X45185495Y-97463064D01*
X44981371Y-97573531D01*
X44981365Y-97573535D01*
X44798222Y-97716081D01*
X44798219Y-97716084D01*
X44798216Y-97716086D01*
X44798216Y-97716087D01*
X44753319Y-97764858D01*
X44641016Y-97886852D01*
X44514075Y-98081151D01*
X44420842Y-98293699D01*
X44363866Y-98518691D01*
X44363864Y-98518702D01*
X44344700Y-98749993D01*
X44344700Y-98750006D01*
X41401844Y-98750006D01*
X41507516Y-98648728D01*
X41646240Y-98461161D01*
X41751270Y-98252847D01*
X41819583Y-98029780D01*
X41849216Y-97798376D01*
X41839314Y-97565293D01*
X41790164Y-97337235D01*
X41703179Y-97120765D01*
X41666765Y-97061624D01*
X59650784Y-97061624D01*
X59660685Y-97294700D01*
X59660686Y-97294709D01*
X59709836Y-97522766D01*
X59709837Y-97522769D01*
X59796819Y-97739231D01*
X59796821Y-97739235D01*
X59919138Y-97937891D01*
X60045223Y-98081151D01*
X60073270Y-98113019D01*
X60073273Y-98113022D01*
X60254773Y-98259573D01*
X60254779Y-98259578D01*
X60458445Y-98373353D01*
X60458448Y-98373354D01*
X60678416Y-98451073D01*
X60806725Y-98473074D01*
X60908344Y-98490499D01*
X60908353Y-98490500D01*
X61533221Y-98490500D01*
X61707446Y-98475671D01*
X61707446Y-98475670D01*
X61707453Y-98475670D01*
X61933219Y-98416885D01*
X62145802Y-98320792D01*
X62339088Y-98190153D01*
X62507516Y-98028728D01*
X62646240Y-97841161D01*
X62751270Y-97632847D01*
X62819583Y-97409780D01*
X62849216Y-97178376D01*
X62839314Y-96945293D01*
X62790164Y-96717235D01*
X62703179Y-96500765D01*
X62580862Y-96302109D01*
X62426731Y-96126982D01*
X62426729Y-96126980D01*
X62426726Y-96126977D01*
X62245226Y-95980426D01*
X62245215Y-95980419D01*
X62204897Y-95957895D01*
X62155971Y-95908015D01*
X62141779Y-95839602D01*
X62166827Y-95774376D01*
X62195931Y-95746910D01*
X62339088Y-95650153D01*
X62507516Y-95488728D01*
X62646240Y-95301161D01*
X62751270Y-95092847D01*
X62819583Y-94869780D01*
X62849216Y-94638376D01*
X62839314Y-94405293D01*
X62790164Y-94177235D01*
X62703179Y-93960765D01*
X62580862Y-93762109D01*
X62426731Y-93586982D01*
X62426729Y-93586980D01*
X62426726Y-93586977D01*
X62245226Y-93440426D01*
X62245215Y-93440419D01*
X62204897Y-93417895D01*
X62155971Y-93368015D01*
X62141779Y-93299602D01*
X62166827Y-93234376D01*
X62195931Y-93206910D01*
X62339088Y-93110153D01*
X62507516Y-92948728D01*
X62646240Y-92761161D01*
X62751270Y-92552847D01*
X62819583Y-92329780D01*
X62849216Y-92098376D01*
X62839314Y-91865293D01*
X62790164Y-91637235D01*
X62703179Y-91420765D01*
X62580862Y-91222109D01*
X62426731Y-91046982D01*
X62426729Y-91046980D01*
X62426726Y-91046977D01*
X62245226Y-90900426D01*
X62245220Y-90900421D01*
X62041554Y-90786646D01*
X61821591Y-90708929D01*
X61821586Y-90708927D01*
X61821584Y-90708927D01*
X61821580Y-90708926D01*
X61821579Y-90708926D01*
X61591655Y-90669500D01*
X61591647Y-90669500D01*
X60966784Y-90669500D01*
X60966779Y-90669500D01*
X60792553Y-90684328D01*
X60792551Y-90684329D01*
X60566781Y-90743114D01*
X60354197Y-90839208D01*
X60160911Y-90969847D01*
X60160909Y-90969849D01*
X59992483Y-91131272D01*
X59992482Y-91131273D01*
X59853762Y-91318834D01*
X59748733Y-91527147D01*
X59748730Y-91527153D01*
X59680416Y-91750223D01*
X59650784Y-91981624D01*
X59660685Y-92214700D01*
X59660686Y-92214709D01*
X59709836Y-92442766D01*
X59709837Y-92442769D01*
X59796819Y-92659231D01*
X59796821Y-92659235D01*
X59919138Y-92857891D01*
X60071026Y-93030469D01*
X60073270Y-93033019D01*
X60073273Y-93033022D01*
X60254773Y-93179573D01*
X60254775Y-93179574D01*
X60254780Y-93179578D01*
X60295102Y-93202103D01*
X60344028Y-93251983D01*
X60358220Y-93320396D01*
X60333172Y-93385622D01*
X60304065Y-93413092D01*
X60160907Y-93509850D01*
X59992483Y-93671272D01*
X59992482Y-93671273D01*
X59853762Y-93858834D01*
X59748733Y-94067147D01*
X59748730Y-94067153D01*
X59680416Y-94290223D01*
X59650784Y-94521624D01*
X59660685Y-94754700D01*
X59660686Y-94754709D01*
X59709836Y-94982766D01*
X59709837Y-94982769D01*
X59796819Y-95199231D01*
X59796821Y-95199235D01*
X59919138Y-95397891D01*
X59999083Y-95488726D01*
X60073270Y-95573019D01*
X60073273Y-95573022D01*
X60254773Y-95719573D01*
X60254775Y-95719574D01*
X60254780Y-95719578D01*
X60295102Y-95742103D01*
X60344028Y-95791983D01*
X60358220Y-95860396D01*
X60333172Y-95925622D01*
X60304065Y-95953092D01*
X60160907Y-96049850D01*
X59992483Y-96211272D01*
X59992482Y-96211273D01*
X59853762Y-96398834D01*
X59748733Y-96607147D01*
X59748730Y-96607153D01*
X59680416Y-96830223D01*
X59650784Y-97061624D01*
X41666765Y-97061624D01*
X41580862Y-96922109D01*
X41426731Y-96746982D01*
X41426729Y-96746980D01*
X41426726Y-96746977D01*
X41245226Y-96600426D01*
X41245220Y-96600421D01*
X41041554Y-96486646D01*
X40821591Y-96408929D01*
X40821586Y-96408927D01*
X40821584Y-96408927D01*
X40821580Y-96408926D01*
X40821579Y-96408926D01*
X40591655Y-96369500D01*
X40591647Y-96369500D01*
X39966784Y-96369500D01*
X39966779Y-96369500D01*
X39792553Y-96384328D01*
X39792551Y-96384329D01*
X39566781Y-96443114D01*
X39354197Y-96539208D01*
X39243937Y-96613731D01*
X39177371Y-96634963D01*
X39109894Y-96616836D01*
X39062929Y-96565105D01*
X39050500Y-96510996D01*
X39050500Y-93894132D01*
X39070185Y-93827093D01*
X39122989Y-93781338D01*
X39192147Y-93771394D01*
X39250328Y-93796755D01*
X39250415Y-93796628D01*
X39251102Y-93797092D01*
X39252404Y-93797660D01*
X39254776Y-93799575D01*
X39254779Y-93799578D01*
X39458445Y-93913353D01*
X39458448Y-93913354D01*
X39678416Y-93991073D01*
X39806725Y-94013074D01*
X39908344Y-94030499D01*
X39908353Y-94030500D01*
X40533221Y-94030500D01*
X40707446Y-94015671D01*
X40707446Y-94015670D01*
X40707453Y-94015670D01*
X40933219Y-93956885D01*
X41145802Y-93860792D01*
X41339088Y-93730153D01*
X41360114Y-93710001D01*
X53524838Y-93710001D01*
X53543450Y-93922741D01*
X53543452Y-93922752D01*
X53598721Y-94129022D01*
X53598723Y-94129026D01*
X53598724Y-94129030D01*
X53621200Y-94177230D01*
X53688977Y-94322578D01*
X53811472Y-94497521D01*
X53962478Y-94648527D01*
X53962481Y-94648529D01*
X54137419Y-94771021D01*
X54137421Y-94771022D01*
X54137420Y-94771022D01*
X54201936Y-94801106D01*
X54330970Y-94861276D01*
X54330976Y-94861277D01*
X54330977Y-94861278D01*
X54380627Y-94874581D01*
X54537253Y-94916549D01*
X54689215Y-94929844D01*
X54749998Y-94935162D01*
X54750000Y-94935162D01*
X54750002Y-94935162D01*
X54803186Y-94930508D01*
X54962747Y-94916549D01*
X55169030Y-94861276D01*
X55362581Y-94771021D01*
X55537519Y-94648529D01*
X55688529Y-94497519D01*
X55811021Y-94322581D01*
X55901276Y-94129030D01*
X55956549Y-93922747D01*
X55975162Y-93710000D01*
X55956549Y-93497253D01*
X55909161Y-93320396D01*
X55901278Y-93290977D01*
X55901277Y-93290976D01*
X55901276Y-93290970D01*
X55811021Y-93097419D01*
X55688529Y-92922481D01*
X55688527Y-92922478D01*
X55537521Y-92771472D01*
X55397707Y-92673574D01*
X55362581Y-92648979D01*
X55362580Y-92648978D01*
X55362578Y-92648977D01*
X55362579Y-92648977D01*
X55233547Y-92588808D01*
X55169030Y-92558724D01*
X55169023Y-92558722D01*
X55163936Y-92556870D01*
X55164703Y-92554762D01*
X55113245Y-92523357D01*
X55082751Y-92460493D01*
X55091085Y-92391122D01*
X55135601Y-92337269D01*
X55164318Y-92324179D01*
X55163936Y-92323130D01*
X55169013Y-92321280D01*
X55169030Y-92321276D01*
X55362581Y-92231021D01*
X55537519Y-92108529D01*
X55688529Y-91957519D01*
X55811021Y-91782581D01*
X55901276Y-91589030D01*
X55956549Y-91382747D01*
X55975162Y-91170000D01*
X55972261Y-91136847D01*
X55967913Y-91087147D01*
X55956549Y-90957253D01*
X55901276Y-90750970D01*
X55811021Y-90557419D01*
X55688529Y-90382481D01*
X55688527Y-90382478D01*
X55537521Y-90231472D01*
X55362578Y-90108977D01*
X55362579Y-90108977D01*
X55233546Y-90048809D01*
X55169030Y-90018724D01*
X55169026Y-90018723D01*
X55169022Y-90018721D01*
X54962752Y-89963452D01*
X54962748Y-89963451D01*
X54962747Y-89963451D01*
X54962746Y-89963450D01*
X54962741Y-89963450D01*
X54750002Y-89944838D01*
X54749998Y-89944838D01*
X54537258Y-89963450D01*
X54537247Y-89963452D01*
X54330977Y-90018721D01*
X54330968Y-90018725D01*
X54137421Y-90108977D01*
X53962478Y-90231472D01*
X53811472Y-90382478D01*
X53688977Y-90557421D01*
X53598725Y-90750968D01*
X53598721Y-90750977D01*
X53543452Y-90957247D01*
X53543450Y-90957258D01*
X53524838Y-91169998D01*
X53524838Y-91170001D01*
X53543450Y-91382741D01*
X53543452Y-91382752D01*
X53598721Y-91589022D01*
X53598723Y-91589026D01*
X53598724Y-91589030D01*
X53621200Y-91637230D01*
X53688977Y-91782578D01*
X53811472Y-91957521D01*
X53962478Y-92108527D01*
X53962481Y-92108529D01*
X54137419Y-92231021D01*
X54137421Y-92231022D01*
X54137420Y-92231022D01*
X54193624Y-92257230D01*
X54330970Y-92321276D01*
X54330983Y-92321279D01*
X54336064Y-92323130D01*
X54335292Y-92325250D01*
X54386710Y-92356594D01*
X54417237Y-92419442D01*
X54408939Y-92488817D01*
X54364452Y-92542693D01*
X54335685Y-92555830D01*
X54336064Y-92556870D01*
X54330972Y-92558723D01*
X54330970Y-92558724D01*
X54330967Y-92558725D01*
X54330968Y-92558725D01*
X54137421Y-92648977D01*
X53962478Y-92771472D01*
X53811472Y-92922478D01*
X53688977Y-93097421D01*
X53598725Y-93290968D01*
X53598721Y-93290977D01*
X53543452Y-93497247D01*
X53543450Y-93497258D01*
X53524838Y-93709998D01*
X53524838Y-93710001D01*
X41360114Y-93710001D01*
X41507516Y-93568728D01*
X41646240Y-93381161D01*
X41751270Y-93172847D01*
X41819583Y-92949780D01*
X41849216Y-92718376D01*
X41839314Y-92485293D01*
X41790164Y-92257235D01*
X41703179Y-92040765D01*
X41678083Y-92000006D01*
X44344700Y-92000006D01*
X44363864Y-92231297D01*
X44363866Y-92231308D01*
X44420842Y-92456300D01*
X44514075Y-92668848D01*
X44641016Y-92863147D01*
X44641019Y-92863151D01*
X44641021Y-92863153D01*
X44798216Y-93033913D01*
X44798219Y-93033915D01*
X44798222Y-93033918D01*
X44981365Y-93176464D01*
X44981371Y-93176468D01*
X44981374Y-93176470D01*
X45185497Y-93286936D01*
X45282963Y-93320396D01*
X45405015Y-93362297D01*
X45405017Y-93362297D01*
X45405019Y-93362298D01*
X45633951Y-93400500D01*
X45633952Y-93400500D01*
X45866048Y-93400500D01*
X45866049Y-93400500D01*
X46094981Y-93362298D01*
X46314503Y-93286936D01*
X46518626Y-93176470D01*
X46523275Y-93172852D01*
X46603834Y-93110150D01*
X46701784Y-93033913D01*
X46710130Y-93024846D01*
X46770010Y-92988854D01*
X46839849Y-92990949D01*
X46897468Y-93030469D01*
X46917544Y-93065491D01*
X46946203Y-93142330D01*
X46946206Y-93142335D01*
X47032452Y-93257544D01*
X47032455Y-93257547D01*
X47147664Y-93343793D01*
X47147671Y-93343797D01*
X47282517Y-93394091D01*
X47282516Y-93394091D01*
X47289444Y-93394835D01*
X47342127Y-93400500D01*
X49237872Y-93400499D01*
X49297483Y-93394091D01*
X49432331Y-93343796D01*
X49547546Y-93257546D01*
X49633796Y-93142331D01*
X49684091Y-93007483D01*
X49690500Y-92947873D01*
X49690499Y-91052128D01*
X49684091Y-90992517D01*
X49675636Y-90969849D01*
X49633797Y-90857671D01*
X49633793Y-90857664D01*
X49547547Y-90742455D01*
X49547544Y-90742452D01*
X49432335Y-90656206D01*
X49432328Y-90656202D01*
X49297482Y-90605908D01*
X49297483Y-90605908D01*
X49237883Y-90599501D01*
X49237881Y-90599500D01*
X49237873Y-90599500D01*
X49237864Y-90599500D01*
X47342129Y-90599500D01*
X47342123Y-90599501D01*
X47282516Y-90605908D01*
X47147671Y-90656202D01*
X47147664Y-90656206D01*
X47032455Y-90742452D01*
X47032452Y-90742455D01*
X46946206Y-90857664D01*
X46946203Y-90857670D01*
X46917544Y-90934508D01*
X46875672Y-90990441D01*
X46810208Y-91014858D01*
X46741935Y-91000006D01*
X46710135Y-90975158D01*
X46701784Y-90966087D01*
X46701778Y-90966082D01*
X46701777Y-90966081D01*
X46518634Y-90823535D01*
X46518628Y-90823531D01*
X46314504Y-90713064D01*
X46314495Y-90713061D01*
X46094984Y-90637702D01*
X45904450Y-90605908D01*
X45866049Y-90599500D01*
X45633951Y-90599500D01*
X45595550Y-90605908D01*
X45405015Y-90637702D01*
X45185504Y-90713061D01*
X45185495Y-90713064D01*
X44981371Y-90823531D01*
X44981365Y-90823535D01*
X44798222Y-90966081D01*
X44798219Y-90966084D01*
X44798216Y-90966086D01*
X44798216Y-90966087D01*
X44753319Y-91014858D01*
X44641016Y-91136852D01*
X44514075Y-91331151D01*
X44420842Y-91543699D01*
X44363866Y-91768691D01*
X44363864Y-91768702D01*
X44344700Y-91999993D01*
X44344700Y-92000006D01*
X41678083Y-92000006D01*
X41580862Y-91842109D01*
X41426731Y-91666982D01*
X41426729Y-91666980D01*
X41426726Y-91666977D01*
X41245226Y-91520426D01*
X41245215Y-91520419D01*
X41204897Y-91497895D01*
X41155971Y-91448015D01*
X41141779Y-91379602D01*
X41166827Y-91314376D01*
X41195931Y-91286910D01*
X41339088Y-91190153D01*
X41507516Y-91028728D01*
X41646240Y-90841161D01*
X41751270Y-90632847D01*
X41819583Y-90409780D01*
X41849216Y-90178376D01*
X41839314Y-89945293D01*
X41790164Y-89717235D01*
X41703179Y-89500765D01*
X41580862Y-89302109D01*
X41426731Y-89126982D01*
X41426729Y-89126980D01*
X41426726Y-89126977D01*
X41245226Y-88980426D01*
X41245215Y-88980419D01*
X41204897Y-88957895D01*
X41155971Y-88908015D01*
X41141779Y-88839602D01*
X41166827Y-88774376D01*
X41195931Y-88746910D01*
X41339088Y-88650153D01*
X41507516Y-88488728D01*
X41646240Y-88301161D01*
X41751270Y-88092847D01*
X41819583Y-87869780D01*
X41849216Y-87638376D01*
X41839314Y-87405293D01*
X41790164Y-87177235D01*
X41703179Y-86960765D01*
X41580862Y-86762109D01*
X41426731Y-86586982D01*
X41426729Y-86586980D01*
X41426726Y-86586977D01*
X41245226Y-86440426D01*
X41245220Y-86440421D01*
X41041554Y-86326646D01*
X40821591Y-86248929D01*
X40821586Y-86248927D01*
X40821584Y-86248927D01*
X40821580Y-86248926D01*
X40821579Y-86248926D01*
X40591655Y-86209500D01*
X40591647Y-86209500D01*
X39966784Y-86209500D01*
X39966779Y-86209500D01*
X39792553Y-86224328D01*
X39792551Y-86224329D01*
X39566781Y-86283114D01*
X39354197Y-86379208D01*
X39243937Y-86453731D01*
X39177371Y-86474963D01*
X39109894Y-86456836D01*
X39062929Y-86405105D01*
X39050500Y-86350996D01*
X39050500Y-84882939D01*
X39070185Y-84815900D01*
X39086815Y-84795262D01*
X39975259Y-83906817D01*
X40036582Y-83873333D01*
X40062940Y-83870499D01*
X41145002Y-83870499D01*
X41145008Y-83870499D01*
X41247797Y-83859999D01*
X41414334Y-83804814D01*
X41563656Y-83712712D01*
X41687712Y-83588656D01*
X41779814Y-83439334D01*
X41834999Y-83272797D01*
X41845500Y-83170009D01*
X41845499Y-81829992D01*
X41834999Y-81727203D01*
X41779814Y-81560666D01*
X41687712Y-81411344D01*
X41563656Y-81287288D01*
X41414334Y-81195186D01*
X41247797Y-81140001D01*
X41247795Y-81140000D01*
X41145010Y-81129500D01*
X39354998Y-81129500D01*
X39354981Y-81129501D01*
X39252203Y-81140000D01*
X39252200Y-81140001D01*
X39085668Y-81195185D01*
X39085663Y-81195187D01*
X38936342Y-81287289D01*
X38812289Y-81411342D01*
X38720187Y-81560663D01*
X38720185Y-81560666D01*
X38720186Y-81560666D01*
X38665001Y-81727203D01*
X38665001Y-81727204D01*
X38665000Y-81727204D01*
X38654500Y-81829983D01*
X38654500Y-82912059D01*
X38634815Y-82979098D01*
X38618181Y-82999740D01*
X37747738Y-83870184D01*
X37620186Y-83997735D01*
X37620183Y-83997739D01*
X37597966Y-84033096D01*
X37593941Y-84038769D01*
X37567910Y-84071410D01*
X37549791Y-84109033D01*
X37546427Y-84115120D01*
X37524212Y-84150476D01*
X37524208Y-84150483D01*
X37510416Y-84189895D01*
X37507755Y-84196320D01*
X37489639Y-84233939D01*
X37480344Y-84274659D01*
X37478419Y-84281341D01*
X37464632Y-84320744D01*
X37459955Y-84362235D01*
X37458791Y-84369089D01*
X37449500Y-84409806D01*
X37449500Y-105090191D01*
X35010500Y-105090191D01*
X35010500Y-75540000D01*
X39509783Y-75540000D01*
X39528623Y-75779382D01*
X39584674Y-76012853D01*
X39584678Y-76012865D01*
X39676565Y-76234702D01*
X39788092Y-76416697D01*
X39802028Y-76439439D01*
X39957973Y-76622027D01*
X40140561Y-76777972D01*
X40140563Y-76777973D01*
X40345297Y-76903434D01*
X40442047Y-76943508D01*
X40567137Y-76995323D01*
X40800621Y-77051377D01*
X41040000Y-77070217D01*
X41279379Y-77051377D01*
X41512863Y-76995323D01*
X41734704Y-76903433D01*
X41939439Y-76777972D01*
X42122027Y-76622027D01*
X42277972Y-76439439D01*
X42403433Y-76234704D01*
X42495323Y-76012863D01*
X42551377Y-75779379D01*
X42570217Y-75540000D01*
X42551377Y-75300621D01*
X42495323Y-75067137D01*
X42434377Y-74920000D01*
X42403434Y-74845297D01*
X42277973Y-74640563D01*
X42277972Y-74640561D01*
X42122027Y-74457973D01*
X41939439Y-74302028D01*
X41939436Y-74302026D01*
X41734702Y-74176565D01*
X41512865Y-74084678D01*
X41512867Y-74084678D01*
X41512863Y-74084677D01*
X41512859Y-74084676D01*
X41512853Y-74084674D01*
X41279382Y-74028623D01*
X41040000Y-74009783D01*
X40800617Y-74028623D01*
X40567146Y-74084674D01*
X40567134Y-74084678D01*
X40345297Y-74176565D01*
X40140563Y-74302026D01*
X39957973Y-74457973D01*
X39802026Y-74640563D01*
X39676565Y-74845297D01*
X39584678Y-75067134D01*
X39584674Y-75067146D01*
X39528623Y-75300617D01*
X39509783Y-75540000D01*
X35010500Y-75540000D01*
X35010500Y-65539999D01*
X39509783Y-65539999D01*
X39528623Y-65779382D01*
X39584674Y-66012853D01*
X39584678Y-66012865D01*
X39676565Y-66234702D01*
X39802026Y-66439436D01*
X39802028Y-66439439D01*
X39957973Y-66622027D01*
X40140561Y-66777972D01*
X40140563Y-66777973D01*
X40345297Y-66903434D01*
X40442047Y-66943508D01*
X40567137Y-66995323D01*
X40800621Y-67051377D01*
X41040000Y-67070217D01*
X41279379Y-67051377D01*
X41512863Y-66995323D01*
X41734704Y-66903433D01*
X41939439Y-66777972D01*
X42122027Y-66622027D01*
X42277972Y-66439439D01*
X42363420Y-66300000D01*
X45244659Y-66300000D01*
X45263975Y-66496129D01*
X45263976Y-66496132D01*
X45320581Y-66682734D01*
X45321188Y-66684733D01*
X45414086Y-66858532D01*
X45414090Y-66858539D01*
X45539116Y-67010883D01*
X45691460Y-67135909D01*
X45691467Y-67135913D01*
X45865266Y-67228811D01*
X45865269Y-67228811D01*
X45865273Y-67228814D01*
X46053868Y-67286024D01*
X46250000Y-67305341D01*
X46250000Y-67305340D01*
X46250001Y-67305341D01*
X46250003Y-67305341D01*
X46261515Y-67304206D01*
X46269369Y-67303433D01*
X46338015Y-67316449D01*
X46369208Y-67339154D01*
X46629564Y-67599510D01*
X46639635Y-67612080D01*
X46639822Y-67611926D01*
X46644796Y-67617937D01*
X46644798Y-67617940D01*
X46673345Y-67644748D01*
X46697243Y-67667190D01*
X46718967Y-67688913D01*
X46724757Y-67693405D01*
X46729197Y-67697197D01*
X46758498Y-67724711D01*
X46764607Y-67730448D01*
X46764609Y-67730449D01*
X46783205Y-67740672D01*
X46799470Y-67751357D01*
X46816232Y-67764360D01*
X46816235Y-67764361D01*
X46816236Y-67764362D01*
X46860823Y-67783656D01*
X46866059Y-67786221D01*
X46908632Y-67809627D01*
X46924340Y-67813659D01*
X46929186Y-67814904D01*
X46947598Y-67821207D01*
X46967073Y-67829635D01*
X47015071Y-67837237D01*
X47020740Y-67838411D01*
X47067823Y-67850500D01*
X47089051Y-67850500D01*
X47108448Y-67852026D01*
X47129403Y-67855345D01*
X47129404Y-67855346D01*
X47129404Y-67855345D01*
X47129405Y-67855346D01*
X47177760Y-67850775D01*
X47183599Y-67850500D01*
X51915924Y-67850500D01*
X51982963Y-67870185D01*
X52028718Y-67922989D01*
X52038662Y-67992147D01*
X52028306Y-68026905D01*
X51983262Y-68123502D01*
X51983258Y-68123511D01*
X51924366Y-68343302D01*
X51924364Y-68343313D01*
X51904532Y-68569998D01*
X51904532Y-68570001D01*
X51924364Y-68796686D01*
X51924366Y-68796697D01*
X51983258Y-69016488D01*
X51983261Y-69016497D01*
X52079431Y-69222732D01*
X52079432Y-69222734D01*
X52209954Y-69409141D01*
X52370858Y-69570045D01*
X52370861Y-69570047D01*
X52557266Y-69700568D01*
X52615275Y-69727618D01*
X52667714Y-69773791D01*
X52686866Y-69840984D01*
X52666650Y-69907865D01*
X52615275Y-69952382D01*
X52557267Y-69979431D01*
X52557265Y-69979432D01*
X52370858Y-70109954D01*
X52209954Y-70270858D01*
X52079432Y-70457265D01*
X52079431Y-70457267D01*
X51983261Y-70663502D01*
X51983258Y-70663511D01*
X51924366Y-70883302D01*
X51924364Y-70883313D01*
X51904532Y-71109998D01*
X51904532Y-71110001D01*
X51924364Y-71336686D01*
X51924366Y-71336697D01*
X51983258Y-71556488D01*
X51983261Y-71556497D01*
X52079431Y-71762732D01*
X52079432Y-71762734D01*
X52209954Y-71949141D01*
X52370858Y-72110045D01*
X52370861Y-72110047D01*
X52557266Y-72240568D01*
X52615275Y-72267618D01*
X52667714Y-72313791D01*
X52686866Y-72380984D01*
X52666650Y-72447865D01*
X52615275Y-72492382D01*
X52557267Y-72519431D01*
X52557265Y-72519432D01*
X52370858Y-72649954D01*
X52209954Y-72810858D01*
X52079432Y-72997265D01*
X52079431Y-72997267D01*
X51983261Y-73203502D01*
X51983258Y-73203511D01*
X51924366Y-73423302D01*
X51924364Y-73423313D01*
X51904532Y-73649998D01*
X51904532Y-73650001D01*
X51924364Y-73876686D01*
X51924366Y-73876697D01*
X51983258Y-74096488D01*
X51983261Y-74096497D01*
X52079431Y-74302732D01*
X52079432Y-74302734D01*
X52209954Y-74489141D01*
X52370858Y-74650045D01*
X52370861Y-74650047D01*
X52557266Y-74780568D01*
X52615275Y-74807618D01*
X52667714Y-74853791D01*
X52686866Y-74920984D01*
X52666650Y-74987865D01*
X52615275Y-75032382D01*
X52557267Y-75059431D01*
X52557265Y-75059432D01*
X52370858Y-75189954D01*
X52209954Y-75350858D01*
X52079432Y-75537265D01*
X52079431Y-75537267D01*
X51983261Y-75743502D01*
X51983258Y-75743511D01*
X51924366Y-75963302D01*
X51924364Y-75963313D01*
X51904532Y-76189998D01*
X51904532Y-76190001D01*
X51924364Y-76416686D01*
X51924366Y-76416697D01*
X51983258Y-76636488D01*
X51983261Y-76636497D01*
X52079431Y-76842732D01*
X52079432Y-76842734D01*
X52209954Y-77029141D01*
X52370858Y-77190045D01*
X52370861Y-77190047D01*
X52557266Y-77320568D01*
X52615275Y-77347618D01*
X52667714Y-77393791D01*
X52686866Y-77460984D01*
X52666650Y-77527865D01*
X52615275Y-77572382D01*
X52557267Y-77599431D01*
X52557265Y-77599432D01*
X52370858Y-77729954D01*
X52209954Y-77890858D01*
X52079432Y-78077265D01*
X52079431Y-78077267D01*
X51983261Y-78283502D01*
X51983258Y-78283511D01*
X51924366Y-78503302D01*
X51924364Y-78503313D01*
X51904532Y-78729998D01*
X51904532Y-78730001D01*
X51924364Y-78956686D01*
X51924366Y-78956697D01*
X51983258Y-79176488D01*
X51983261Y-79176497D01*
X52079431Y-79382732D01*
X52079432Y-79382734D01*
X52209954Y-79569141D01*
X52370858Y-79730045D01*
X52370861Y-79730047D01*
X52557266Y-79860568D01*
X52615275Y-79887618D01*
X52667714Y-79933791D01*
X52686866Y-80000984D01*
X52666650Y-80067865D01*
X52615275Y-80112382D01*
X52557267Y-80139431D01*
X52557265Y-80139432D01*
X52370858Y-80269954D01*
X52209954Y-80430858D01*
X52079432Y-80617265D01*
X52079431Y-80617267D01*
X51983261Y-80823502D01*
X51983258Y-80823511D01*
X51924366Y-81043302D01*
X51924364Y-81043313D01*
X51904532Y-81269998D01*
X51904532Y-81270001D01*
X51924364Y-81496686D01*
X51924366Y-81496697D01*
X51983258Y-81716488D01*
X51983261Y-81716497D01*
X52079431Y-81922732D01*
X52079432Y-81922734D01*
X52209954Y-82109141D01*
X52370858Y-82270045D01*
X52370861Y-82270047D01*
X52557266Y-82400568D01*
X52763504Y-82496739D01*
X52983308Y-82555635D01*
X53153216Y-82570500D01*
X54066784Y-82570500D01*
X54236692Y-82555635D01*
X54456496Y-82496739D01*
X54662734Y-82400568D01*
X54849139Y-82270047D01*
X55010047Y-82109139D01*
X55140568Y-81922734D01*
X55236739Y-81716496D01*
X55295635Y-81496692D01*
X55313955Y-81287289D01*
X55315468Y-81270001D01*
X67144532Y-81270001D01*
X67164364Y-81496686D01*
X67164366Y-81496697D01*
X67223258Y-81716488D01*
X67223261Y-81716497D01*
X67319431Y-81922732D01*
X67319432Y-81922734D01*
X67449954Y-82109141D01*
X67610858Y-82270045D01*
X67610861Y-82270047D01*
X67797266Y-82400568D01*
X68003504Y-82496739D01*
X68223308Y-82555635D01*
X68393216Y-82570500D01*
X69306784Y-82570500D01*
X69476692Y-82555635D01*
X69696496Y-82496739D01*
X69902734Y-82400568D01*
X70089139Y-82270047D01*
X70250047Y-82109139D01*
X70380568Y-81922734D01*
X70476739Y-81716496D01*
X70535635Y-81496692D01*
X70553955Y-81287289D01*
X70555468Y-81270001D01*
X70555468Y-81269998D01*
X70548923Y-81195185D01*
X70535635Y-81043308D01*
X70476739Y-80823504D01*
X70380568Y-80617266D01*
X70250047Y-80430861D01*
X70250045Y-80430858D01*
X70089141Y-80269954D01*
X69902734Y-80139432D01*
X69902728Y-80139429D01*
X69844725Y-80112382D01*
X69792285Y-80066210D01*
X69773133Y-79999017D01*
X69793348Y-79932135D01*
X69844725Y-79887618D01*
X69902734Y-79860568D01*
X70089139Y-79730047D01*
X70250047Y-79569139D01*
X70380568Y-79382734D01*
X70476739Y-79176496D01*
X70535635Y-78956692D01*
X70555468Y-78730000D01*
X70535635Y-78503308D01*
X70476739Y-78283504D01*
X70380568Y-78077266D01*
X70250047Y-77890861D01*
X70250045Y-77890858D01*
X70089141Y-77729954D01*
X69902734Y-77599432D01*
X69902728Y-77599429D01*
X69844725Y-77572382D01*
X69792285Y-77526210D01*
X69773133Y-77459017D01*
X69793348Y-77392135D01*
X69844725Y-77347618D01*
X69902734Y-77320568D01*
X70089139Y-77190047D01*
X70250047Y-77029139D01*
X70380568Y-76842734D01*
X70476739Y-76636496D01*
X70535635Y-76416692D01*
X70555468Y-76190000D01*
X70535635Y-75963308D01*
X70476739Y-75743504D01*
X70380568Y-75537266D01*
X70250047Y-75350861D01*
X70250045Y-75350858D01*
X70089141Y-75189954D01*
X69902734Y-75059432D01*
X69902728Y-75059429D01*
X69844725Y-75032382D01*
X69792285Y-74986210D01*
X69773133Y-74919017D01*
X69793348Y-74852135D01*
X69844725Y-74807618D01*
X69902734Y-74780568D01*
X70089139Y-74650047D01*
X70250047Y-74489139D01*
X70380568Y-74302734D01*
X70476739Y-74096496D01*
X70535635Y-73876692D01*
X70555468Y-73650000D01*
X70535635Y-73423308D01*
X70476739Y-73203504D01*
X70380568Y-72997266D01*
X70250047Y-72810861D01*
X70250045Y-72810858D01*
X70089141Y-72649954D01*
X69902734Y-72519432D01*
X69902728Y-72519429D01*
X69844725Y-72492382D01*
X69792285Y-72446210D01*
X69773133Y-72379017D01*
X69793348Y-72312135D01*
X69844725Y-72267618D01*
X69902734Y-72240568D01*
X70089139Y-72110047D01*
X70250047Y-71949139D01*
X70380568Y-71762734D01*
X70476739Y-71556496D01*
X70535635Y-71336692D01*
X70555468Y-71110000D01*
X70554593Y-71100000D01*
X72344341Y-71100000D01*
X72364936Y-71335403D01*
X72364938Y-71335413D01*
X72426094Y-71563655D01*
X72426096Y-71563659D01*
X72426097Y-71563663D01*
X72518925Y-71762732D01*
X72525965Y-71777830D01*
X72525967Y-71777834D01*
X72634281Y-71932521D01*
X72661505Y-71971401D01*
X72828599Y-72138495D01*
X72925384Y-72206264D01*
X73022165Y-72274032D01*
X73022167Y-72274033D01*
X73022170Y-72274035D01*
X73236337Y-72373903D01*
X73236343Y-72373904D01*
X73236344Y-72373905D01*
X73262764Y-72380984D01*
X73464592Y-72435063D01*
X73652918Y-72451539D01*
X73699999Y-72455659D01*
X73700000Y-72455659D01*
X73700001Y-72455659D01*
X73739234Y-72452226D01*
X73935408Y-72435063D01*
X74163663Y-72373903D01*
X74377830Y-72274035D01*
X74571401Y-72138495D01*
X74738495Y-71971401D01*
X74874035Y-71777830D01*
X74973903Y-71563663D01*
X75035063Y-71335408D01*
X75055659Y-71100000D01*
X75035063Y-70864592D01*
X74973903Y-70636337D01*
X74874035Y-70422171D01*
X74738495Y-70228599D01*
X74738494Y-70228597D01*
X74571402Y-70061506D01*
X74571396Y-70061501D01*
X74385842Y-69931575D01*
X74342217Y-69876998D01*
X74335023Y-69807500D01*
X74366546Y-69745145D01*
X74385842Y-69728425D01*
X74425627Y-69700567D01*
X74571401Y-69598495D01*
X74738495Y-69431401D01*
X74874035Y-69237830D01*
X74973903Y-69023663D01*
X75035063Y-68795408D01*
X75055659Y-68560000D01*
X75035063Y-68324592D01*
X74973903Y-68096337D01*
X74874035Y-67882171D01*
X74865643Y-67870185D01*
X74738494Y-67688597D01*
X74571402Y-67521506D01*
X74571396Y-67521501D01*
X74385842Y-67391575D01*
X74342217Y-67336998D01*
X74335023Y-67267500D01*
X74366546Y-67205145D01*
X74385842Y-67188425D01*
X74554660Y-67070217D01*
X74571401Y-67058495D01*
X74738495Y-66891401D01*
X74874035Y-66697830D01*
X74973903Y-66483663D01*
X75035063Y-66255408D01*
X75055659Y-66020000D01*
X75035063Y-65784592D01*
X74973903Y-65556337D01*
X74874035Y-65342171D01*
X74844942Y-65300621D01*
X74738494Y-65148597D01*
X74571402Y-64981506D01*
X74571396Y-64981501D01*
X74385842Y-64851575D01*
X74342217Y-64796998D01*
X74335023Y-64727500D01*
X74366546Y-64665145D01*
X74385842Y-64648425D01*
X74425627Y-64620567D01*
X74571401Y-64518495D01*
X74738495Y-64351401D01*
X74874035Y-64157830D01*
X74973903Y-63943663D01*
X75035063Y-63715408D01*
X75055659Y-63480000D01*
X75035063Y-63244592D01*
X74973903Y-63016337D01*
X74874035Y-62802171D01*
X74738495Y-62608599D01*
X74738494Y-62608597D01*
X74571402Y-62441506D01*
X74571396Y-62441501D01*
X74385842Y-62311575D01*
X74342217Y-62256998D01*
X74335023Y-62187500D01*
X74366546Y-62125145D01*
X74385842Y-62108425D01*
X74425627Y-62080567D01*
X74571401Y-61978495D01*
X74738495Y-61811401D01*
X74874035Y-61617830D01*
X74973903Y-61403663D01*
X75035063Y-61175408D01*
X75055659Y-60940000D01*
X75035063Y-60704592D01*
X74973903Y-60476337D01*
X74874035Y-60262171D01*
X74738495Y-60068599D01*
X74738494Y-60068597D01*
X74571402Y-59901506D01*
X74571396Y-59901501D01*
X74385842Y-59771575D01*
X74342217Y-59716998D01*
X74335023Y-59647500D01*
X74366546Y-59585145D01*
X74385842Y-59568425D01*
X74425627Y-59540567D01*
X74571401Y-59438495D01*
X74738495Y-59271401D01*
X74874035Y-59077830D01*
X74973903Y-58863663D01*
X75035063Y-58635408D01*
X75055659Y-58400000D01*
X75035063Y-58164592D01*
X74973903Y-57936337D01*
X74874035Y-57722171D01*
X74738495Y-57528599D01*
X74738494Y-57528597D01*
X74571402Y-57361506D01*
X74571396Y-57361501D01*
X74385842Y-57231575D01*
X74342217Y-57176998D01*
X74335023Y-57107500D01*
X74366546Y-57045145D01*
X74385842Y-57028425D01*
X74425627Y-57000567D01*
X74571401Y-56898495D01*
X74738495Y-56731401D01*
X74874035Y-56537830D01*
X74973903Y-56323663D01*
X75035063Y-56095408D01*
X75055659Y-55860000D01*
X75035063Y-55624592D01*
X74973903Y-55396337D01*
X74874035Y-55182171D01*
X74774487Y-55040000D01*
X74738494Y-54988597D01*
X74571402Y-54821506D01*
X74571396Y-54821501D01*
X74385842Y-54691575D01*
X74342217Y-54636998D01*
X74335023Y-54567500D01*
X74366546Y-54505145D01*
X74385842Y-54488425D01*
X74425627Y-54460567D01*
X74571401Y-54358495D01*
X74738495Y-54191401D01*
X74874035Y-53997830D01*
X74973903Y-53783663D01*
X75035063Y-53555408D01*
X75055659Y-53320000D01*
X75035063Y-53084592D01*
X74973903Y-52856337D01*
X74874035Y-52642171D01*
X74738495Y-52448599D01*
X74616567Y-52326671D01*
X74583084Y-52265351D01*
X74588068Y-52195659D01*
X74629939Y-52139725D01*
X74660915Y-52122810D01*
X74792331Y-52073796D01*
X74907546Y-51987546D01*
X74993796Y-51872331D01*
X75044091Y-51737483D01*
X75050500Y-51677873D01*
X75050499Y-49882128D01*
X75044091Y-49822517D01*
X75031945Y-49789953D01*
X74993797Y-49687671D01*
X74993793Y-49687664D01*
X74907547Y-49572455D01*
X74907544Y-49572452D01*
X74792335Y-49486206D01*
X74792328Y-49486202D01*
X74657482Y-49435908D01*
X74657483Y-49435908D01*
X74597883Y-49429501D01*
X74597881Y-49429500D01*
X74597873Y-49429500D01*
X74597864Y-49429500D01*
X72802129Y-49429500D01*
X72802123Y-49429501D01*
X72742516Y-49435908D01*
X72607671Y-49486202D01*
X72607664Y-49486206D01*
X72492455Y-49572452D01*
X72492452Y-49572455D01*
X72406206Y-49687664D01*
X72406202Y-49687671D01*
X72355908Y-49822517D01*
X72349501Y-49882116D01*
X72349501Y-49882123D01*
X72349500Y-49882135D01*
X72349500Y-51677870D01*
X72349501Y-51677876D01*
X72355908Y-51737483D01*
X72406202Y-51872328D01*
X72406206Y-51872335D01*
X72492452Y-51987544D01*
X72492455Y-51987547D01*
X72607664Y-52073793D01*
X72607671Y-52073797D01*
X72739081Y-52122810D01*
X72795015Y-52164681D01*
X72819432Y-52230145D01*
X72804580Y-52298418D01*
X72783430Y-52326673D01*
X72661503Y-52448600D01*
X72525965Y-52642169D01*
X72525964Y-52642171D01*
X72426098Y-52856335D01*
X72426094Y-52856344D01*
X72364938Y-53084586D01*
X72364936Y-53084596D01*
X72344341Y-53319999D01*
X72344341Y-53320000D01*
X72364936Y-53555403D01*
X72364938Y-53555413D01*
X72426094Y-53783655D01*
X72426096Y-53783659D01*
X72426097Y-53783663D01*
X72434660Y-53802026D01*
X72525965Y-53997830D01*
X72525967Y-53997834D01*
X72661501Y-54191395D01*
X72661506Y-54191402D01*
X72828597Y-54358493D01*
X72828603Y-54358498D01*
X73014158Y-54488425D01*
X73057783Y-54543002D01*
X73064977Y-54612500D01*
X73033454Y-54674855D01*
X73014158Y-54691575D01*
X72828597Y-54821505D01*
X72661505Y-54988597D01*
X72525965Y-55182169D01*
X72525964Y-55182171D01*
X72426098Y-55396335D01*
X72426094Y-55396344D01*
X72364938Y-55624586D01*
X72364936Y-55624596D01*
X72344341Y-55859999D01*
X72344341Y-55860000D01*
X72364936Y-56095403D01*
X72364938Y-56095413D01*
X72426094Y-56323655D01*
X72426096Y-56323659D01*
X72426097Y-56323663D01*
X72463295Y-56403434D01*
X72525965Y-56537830D01*
X72525967Y-56537834D01*
X72661501Y-56731395D01*
X72661506Y-56731402D01*
X72828597Y-56898493D01*
X72828603Y-56898498D01*
X73014158Y-57028425D01*
X73057783Y-57083002D01*
X73064977Y-57152500D01*
X73033454Y-57214855D01*
X73014158Y-57231575D01*
X72828597Y-57361505D01*
X72661505Y-57528597D01*
X72525965Y-57722169D01*
X72525964Y-57722171D01*
X72426098Y-57936335D01*
X72426094Y-57936344D01*
X72364938Y-58164586D01*
X72364936Y-58164596D01*
X72344341Y-58399999D01*
X72344341Y-58400000D01*
X72364936Y-58635403D01*
X72364938Y-58635413D01*
X72426094Y-58863655D01*
X72426096Y-58863659D01*
X72426097Y-58863663D01*
X72518925Y-59062732D01*
X72525965Y-59077830D01*
X72525967Y-59077834D01*
X72661501Y-59271395D01*
X72661506Y-59271402D01*
X72828597Y-59438493D01*
X72828603Y-59438498D01*
X73014158Y-59568425D01*
X73057783Y-59623002D01*
X73064977Y-59692500D01*
X73033454Y-59754855D01*
X73014158Y-59771575D01*
X72828597Y-59901505D01*
X72661505Y-60068597D01*
X72525965Y-60262169D01*
X72525964Y-60262171D01*
X72426098Y-60476335D01*
X72426094Y-60476344D01*
X72364938Y-60704586D01*
X72364936Y-60704596D01*
X72344341Y-60939999D01*
X72344341Y-60940000D01*
X72364936Y-61175403D01*
X72364938Y-61175413D01*
X72426094Y-61403655D01*
X72426096Y-61403659D01*
X72426097Y-61403663D01*
X72518925Y-61602732D01*
X72525965Y-61617830D01*
X72525967Y-61617834D01*
X72661501Y-61811395D01*
X72661506Y-61811402D01*
X72828597Y-61978493D01*
X72828603Y-61978498D01*
X73014158Y-62108425D01*
X73057783Y-62163002D01*
X73064977Y-62232500D01*
X73033454Y-62294855D01*
X73014158Y-62311575D01*
X72828597Y-62441505D01*
X72661505Y-62608597D01*
X72525965Y-62802169D01*
X72525964Y-62802171D01*
X72426098Y-63016335D01*
X72426094Y-63016344D01*
X72364938Y-63244586D01*
X72364936Y-63244596D01*
X72344341Y-63479999D01*
X72344341Y-63480000D01*
X72364936Y-63715403D01*
X72364938Y-63715413D01*
X72426094Y-63943655D01*
X72426096Y-63943659D01*
X72426097Y-63943663D01*
X72465715Y-64028623D01*
X72525965Y-64157830D01*
X72525967Y-64157834D01*
X72661501Y-64351395D01*
X72661506Y-64351402D01*
X72828597Y-64518493D01*
X72828603Y-64518498D01*
X73014158Y-64648425D01*
X73057783Y-64703002D01*
X73064977Y-64772500D01*
X73033454Y-64834855D01*
X73014158Y-64851575D01*
X72828597Y-64981505D01*
X72661505Y-65148597D01*
X72525965Y-65342169D01*
X72525964Y-65342171D01*
X72426098Y-65556335D01*
X72426094Y-65556344D01*
X72364938Y-65784586D01*
X72364936Y-65784596D01*
X72344341Y-66019999D01*
X72344341Y-66020000D01*
X72364936Y-66255403D01*
X72364938Y-66255413D01*
X72426094Y-66483655D01*
X72426096Y-66483659D01*
X72426097Y-66483663D01*
X72518925Y-66682732D01*
X72525965Y-66697830D01*
X72525967Y-66697834D01*
X72661501Y-66891395D01*
X72661506Y-66891402D01*
X72828597Y-67058493D01*
X72828603Y-67058498D01*
X73014158Y-67188425D01*
X73057783Y-67243002D01*
X73064977Y-67312500D01*
X73033454Y-67374855D01*
X73014158Y-67391575D01*
X72828597Y-67521505D01*
X72661505Y-67688597D01*
X72525965Y-67882169D01*
X72525964Y-67882171D01*
X72426098Y-68096335D01*
X72426094Y-68096344D01*
X72364938Y-68324586D01*
X72364936Y-68324596D01*
X72344341Y-68559999D01*
X72344341Y-68560000D01*
X72364936Y-68795403D01*
X72364938Y-68795413D01*
X72426094Y-69023655D01*
X72426096Y-69023659D01*
X72426097Y-69023663D01*
X72518925Y-69222732D01*
X72525965Y-69237830D01*
X72525967Y-69237834D01*
X72661501Y-69431395D01*
X72661506Y-69431402D01*
X72828597Y-69598493D01*
X72828603Y-69598498D01*
X73014158Y-69728425D01*
X73057783Y-69783002D01*
X73064977Y-69852500D01*
X73033454Y-69914855D01*
X73014158Y-69931575D01*
X72828597Y-70061505D01*
X72661505Y-70228597D01*
X72525965Y-70422169D01*
X72525964Y-70422171D01*
X72426098Y-70636335D01*
X72426094Y-70636344D01*
X72364938Y-70864586D01*
X72364936Y-70864596D01*
X72344341Y-71099999D01*
X72344341Y-71100000D01*
X70554593Y-71100000D01*
X70535635Y-70883308D01*
X70476739Y-70663504D01*
X70380568Y-70457266D01*
X70250047Y-70270861D01*
X70250045Y-70270858D01*
X70089141Y-70109954D01*
X69902734Y-69979432D01*
X69902728Y-69979429D01*
X69844725Y-69952382D01*
X69792285Y-69906210D01*
X69773133Y-69839017D01*
X69793348Y-69772135D01*
X69844725Y-69727618D01*
X69902734Y-69700568D01*
X70089139Y-69570047D01*
X70250047Y-69409139D01*
X70380568Y-69222734D01*
X70476739Y-69016496D01*
X70535635Y-68796692D01*
X70555468Y-68570000D01*
X70535635Y-68343308D01*
X70476739Y-68123504D01*
X70380568Y-67917266D01*
X70269427Y-67758539D01*
X70250045Y-67730858D01*
X70089141Y-67569954D01*
X69902734Y-67439432D01*
X69902728Y-67439429D01*
X69844725Y-67412382D01*
X69792285Y-67366210D01*
X69773133Y-67299017D01*
X69793348Y-67232135D01*
X69844725Y-67187618D01*
X69902734Y-67160568D01*
X70089139Y-67030047D01*
X70250047Y-66869139D01*
X70380568Y-66682734D01*
X70476739Y-66476496D01*
X70535635Y-66256692D01*
X70555468Y-66030000D01*
X70535635Y-65803308D01*
X70476739Y-65583504D01*
X70380568Y-65377266D01*
X70250047Y-65190861D01*
X70250045Y-65190858D01*
X70089141Y-65029954D01*
X69902735Y-64899433D01*
X69902736Y-64899433D01*
X69902734Y-64899432D01*
X69844722Y-64872380D01*
X69792284Y-64826208D01*
X69773133Y-64759014D01*
X69793349Y-64692133D01*
X69844721Y-64647619D01*
X69902734Y-64620568D01*
X70089139Y-64490047D01*
X70250047Y-64329139D01*
X70380568Y-64142734D01*
X70476739Y-63936496D01*
X70535635Y-63716692D01*
X70555468Y-63490000D01*
X70535635Y-63263308D01*
X70476739Y-63043504D01*
X70380568Y-62837266D01*
X70250047Y-62650861D01*
X70250045Y-62650858D01*
X70089141Y-62489954D01*
X69902734Y-62359432D01*
X69902728Y-62359429D01*
X69844725Y-62332382D01*
X69792285Y-62286210D01*
X69773133Y-62219017D01*
X69793348Y-62152135D01*
X69844725Y-62107618D01*
X69902734Y-62080568D01*
X70089139Y-61950047D01*
X70250047Y-61789139D01*
X70380568Y-61602734D01*
X70476739Y-61396496D01*
X70535635Y-61176692D01*
X70555468Y-60950000D01*
X70535635Y-60723308D01*
X70476739Y-60503504D01*
X70380568Y-60297266D01*
X70250047Y-60110861D01*
X70250045Y-60110858D01*
X70089141Y-59949954D01*
X69902734Y-59819432D01*
X69902728Y-59819429D01*
X69844725Y-59792382D01*
X69792285Y-59746210D01*
X69773133Y-59679017D01*
X69793348Y-59612135D01*
X69844725Y-59567618D01*
X69902734Y-59540568D01*
X70089139Y-59410047D01*
X70250047Y-59249139D01*
X70380568Y-59062734D01*
X70476739Y-58856496D01*
X70535635Y-58636692D01*
X70555468Y-58410000D01*
X70535635Y-58183308D01*
X70476739Y-57963504D01*
X70380568Y-57757266D01*
X70250047Y-57570861D01*
X70250045Y-57570858D01*
X70089141Y-57409954D01*
X69902734Y-57279432D01*
X69902728Y-57279429D01*
X69844725Y-57252382D01*
X69792285Y-57206210D01*
X69773133Y-57139017D01*
X69793348Y-57072135D01*
X69844725Y-57027618D01*
X69902734Y-57000568D01*
X70089139Y-56870047D01*
X70250047Y-56709139D01*
X70380568Y-56522734D01*
X70476739Y-56316496D01*
X70535635Y-56096692D01*
X70555468Y-55870000D01*
X70535635Y-55643308D01*
X70476739Y-55423504D01*
X70380568Y-55217266D01*
X70250047Y-55030861D01*
X70250045Y-55030858D01*
X70089141Y-54869954D01*
X69902734Y-54739432D01*
X69902728Y-54739429D01*
X69844725Y-54712382D01*
X69792285Y-54666210D01*
X69773133Y-54599017D01*
X69793348Y-54532135D01*
X69844725Y-54487618D01*
X69902734Y-54460568D01*
X70089139Y-54330047D01*
X70250047Y-54169139D01*
X70380568Y-53982734D01*
X70476739Y-53776496D01*
X70535635Y-53556692D01*
X70555468Y-53330000D01*
X70535635Y-53103308D01*
X70476739Y-52883504D01*
X70380568Y-52677266D01*
X70250047Y-52490861D01*
X70250045Y-52490858D01*
X70089141Y-52329954D01*
X69902734Y-52199432D01*
X69902728Y-52199429D01*
X69844725Y-52172382D01*
X69792285Y-52126210D01*
X69773133Y-52059017D01*
X69793348Y-51992135D01*
X69844725Y-51947618D01*
X69902734Y-51920568D01*
X70089139Y-51790047D01*
X70250047Y-51629139D01*
X70380568Y-51442734D01*
X70476739Y-51236496D01*
X70535635Y-51016692D01*
X70555468Y-50790000D01*
X70535635Y-50563308D01*
X70476739Y-50343504D01*
X70380568Y-50137266D01*
X70250047Y-49950861D01*
X70250045Y-49950858D01*
X70089141Y-49789954D01*
X69902734Y-49659432D01*
X69902732Y-49659431D01*
X69696497Y-49563261D01*
X69696488Y-49563258D01*
X69476697Y-49504366D01*
X69476687Y-49504364D01*
X69306784Y-49489500D01*
X68393216Y-49489500D01*
X68223312Y-49504364D01*
X68223302Y-49504366D01*
X68003511Y-49563258D01*
X68003502Y-49563261D01*
X67797267Y-49659431D01*
X67797265Y-49659432D01*
X67610858Y-49789954D01*
X67449954Y-49950858D01*
X67319432Y-50137265D01*
X67319431Y-50137267D01*
X67223261Y-50343502D01*
X67223258Y-50343511D01*
X67164366Y-50563302D01*
X67164364Y-50563313D01*
X67144532Y-50789998D01*
X67144532Y-50790001D01*
X67164364Y-51016686D01*
X67164366Y-51016697D01*
X67223258Y-51236488D01*
X67223261Y-51236497D01*
X67319431Y-51442732D01*
X67319432Y-51442734D01*
X67449954Y-51629141D01*
X67610858Y-51790045D01*
X67728382Y-51872335D01*
X67797266Y-51920568D01*
X67855278Y-51947619D01*
X67907713Y-51993788D01*
X67926866Y-52060982D01*
X67906651Y-52127863D01*
X67855277Y-52172380D01*
X67797268Y-52199430D01*
X67797265Y-52199432D01*
X67610858Y-52329954D01*
X67449954Y-52490858D01*
X67319432Y-52677265D01*
X67319431Y-52677267D01*
X67223261Y-52883502D01*
X67223258Y-52883511D01*
X67164366Y-53103302D01*
X67164364Y-53103313D01*
X67144532Y-53329998D01*
X67144532Y-53330001D01*
X67164364Y-53556686D01*
X67164366Y-53556697D01*
X67223258Y-53776488D01*
X67223261Y-53776497D01*
X67319431Y-53982732D01*
X67319432Y-53982734D01*
X67449954Y-54169141D01*
X67610858Y-54330045D01*
X67610861Y-54330047D01*
X67797266Y-54460568D01*
X67855275Y-54487618D01*
X67907714Y-54533791D01*
X67926866Y-54600984D01*
X67906650Y-54667865D01*
X67855275Y-54712382D01*
X67797267Y-54739431D01*
X67797265Y-54739432D01*
X67610858Y-54869954D01*
X67449954Y-55030858D01*
X67319432Y-55217265D01*
X67319431Y-55217267D01*
X67223261Y-55423502D01*
X67223258Y-55423511D01*
X67164366Y-55643302D01*
X67164364Y-55643313D01*
X67144532Y-55869998D01*
X67144532Y-55870001D01*
X67164364Y-56096686D01*
X67164366Y-56096697D01*
X67223258Y-56316488D01*
X67223261Y-56316497D01*
X67319431Y-56522732D01*
X67319432Y-56522734D01*
X67449954Y-56709141D01*
X67610858Y-56870045D01*
X67610861Y-56870047D01*
X67797266Y-57000568D01*
X67855275Y-57027618D01*
X67907714Y-57073791D01*
X67926866Y-57140984D01*
X67906650Y-57207865D01*
X67855275Y-57252382D01*
X67797267Y-57279431D01*
X67797265Y-57279432D01*
X67610858Y-57409954D01*
X67449954Y-57570858D01*
X67319432Y-57757265D01*
X67319431Y-57757267D01*
X67223261Y-57963502D01*
X67223258Y-57963511D01*
X67164366Y-58183302D01*
X67164364Y-58183313D01*
X67144532Y-58409998D01*
X67144532Y-58410001D01*
X67164364Y-58636686D01*
X67164366Y-58636697D01*
X67223258Y-58856488D01*
X67223261Y-58856497D01*
X67319431Y-59062732D01*
X67319432Y-59062734D01*
X67449954Y-59249141D01*
X67610858Y-59410045D01*
X67610861Y-59410047D01*
X67797266Y-59540568D01*
X67855275Y-59567618D01*
X67907714Y-59613791D01*
X67926866Y-59680984D01*
X67906650Y-59747865D01*
X67855275Y-59792382D01*
X67797267Y-59819431D01*
X67797265Y-59819432D01*
X67610858Y-59949954D01*
X67449954Y-60110858D01*
X67319432Y-60297265D01*
X67319431Y-60297267D01*
X67223261Y-60503502D01*
X67223258Y-60503511D01*
X67164366Y-60723302D01*
X67164364Y-60723313D01*
X67144532Y-60949998D01*
X67144532Y-60950001D01*
X67164364Y-61176686D01*
X67164366Y-61176697D01*
X67223258Y-61396488D01*
X67223261Y-61396497D01*
X67319431Y-61602732D01*
X67319432Y-61602734D01*
X67449954Y-61789141D01*
X67610858Y-61950045D01*
X67610861Y-61950047D01*
X67797266Y-62080568D01*
X67855275Y-62107618D01*
X67907714Y-62153791D01*
X67926866Y-62220984D01*
X67906650Y-62287865D01*
X67855275Y-62332382D01*
X67797267Y-62359431D01*
X67797265Y-62359432D01*
X67610858Y-62489954D01*
X67449954Y-62650858D01*
X67319432Y-62837265D01*
X67319431Y-62837267D01*
X67223261Y-63043502D01*
X67223258Y-63043511D01*
X67164366Y-63263302D01*
X67164364Y-63263313D01*
X67144532Y-63489998D01*
X67144532Y-63490001D01*
X67164364Y-63716686D01*
X67164366Y-63716697D01*
X67223258Y-63936488D01*
X67223261Y-63936497D01*
X67319431Y-64142732D01*
X67319432Y-64142734D01*
X67449954Y-64329141D01*
X67610858Y-64490045D01*
X67610861Y-64490047D01*
X67797266Y-64620568D01*
X67855275Y-64647618D01*
X67907714Y-64693791D01*
X67926866Y-64760984D01*
X67906650Y-64827865D01*
X67855275Y-64872382D01*
X67797267Y-64899431D01*
X67797265Y-64899432D01*
X67610858Y-65029954D01*
X67449954Y-65190858D01*
X67319432Y-65377265D01*
X67319431Y-65377267D01*
X67223261Y-65583502D01*
X67223258Y-65583511D01*
X67164366Y-65803302D01*
X67164364Y-65803313D01*
X67144532Y-66029998D01*
X67144532Y-66030001D01*
X67164364Y-66256686D01*
X67164366Y-66256697D01*
X67223258Y-66476488D01*
X67223261Y-66476497D01*
X67319431Y-66682732D01*
X67319432Y-66682734D01*
X67449954Y-66869141D01*
X67610858Y-67030045D01*
X67610861Y-67030047D01*
X67797266Y-67160568D01*
X67855275Y-67187618D01*
X67907714Y-67233791D01*
X67926866Y-67300984D01*
X67906650Y-67367865D01*
X67855275Y-67412382D01*
X67797267Y-67439431D01*
X67797265Y-67439432D01*
X67610858Y-67569954D01*
X67449954Y-67730858D01*
X67319432Y-67917265D01*
X67319431Y-67917267D01*
X67223261Y-68123502D01*
X67223258Y-68123511D01*
X67164366Y-68343302D01*
X67164364Y-68343313D01*
X67144532Y-68569998D01*
X67144532Y-68570001D01*
X67164364Y-68796686D01*
X67164366Y-68796697D01*
X67223258Y-69016488D01*
X67223261Y-69016497D01*
X67319431Y-69222732D01*
X67319432Y-69222734D01*
X67449954Y-69409141D01*
X67610858Y-69570045D01*
X67610861Y-69570047D01*
X67797266Y-69700568D01*
X67855275Y-69727618D01*
X67907714Y-69773791D01*
X67926866Y-69840984D01*
X67906650Y-69907865D01*
X67855275Y-69952382D01*
X67797267Y-69979431D01*
X67797265Y-69979432D01*
X67610858Y-70109954D01*
X67449954Y-70270858D01*
X67319432Y-70457265D01*
X67319431Y-70457267D01*
X67223261Y-70663502D01*
X67223258Y-70663511D01*
X67164366Y-70883302D01*
X67164364Y-70883313D01*
X67144532Y-71109998D01*
X67144532Y-71110001D01*
X67164364Y-71336686D01*
X67164366Y-71336697D01*
X67223258Y-71556488D01*
X67223261Y-71556497D01*
X67319431Y-71762732D01*
X67319432Y-71762734D01*
X67449954Y-71949141D01*
X67610858Y-72110045D01*
X67610861Y-72110047D01*
X67797266Y-72240568D01*
X67855275Y-72267618D01*
X67907714Y-72313791D01*
X67926866Y-72380984D01*
X67906650Y-72447865D01*
X67855275Y-72492382D01*
X67797267Y-72519431D01*
X67797265Y-72519432D01*
X67610858Y-72649954D01*
X67449954Y-72810858D01*
X67319432Y-72997265D01*
X67319431Y-72997267D01*
X67223261Y-73203502D01*
X67223258Y-73203511D01*
X67164366Y-73423302D01*
X67164364Y-73423313D01*
X67144532Y-73649998D01*
X67144532Y-73650001D01*
X67164364Y-73876686D01*
X67164366Y-73876697D01*
X67223258Y-74096488D01*
X67223261Y-74096497D01*
X67319431Y-74302732D01*
X67319432Y-74302734D01*
X67449954Y-74489141D01*
X67610858Y-74650045D01*
X67610861Y-74650047D01*
X67797266Y-74780568D01*
X67855275Y-74807618D01*
X67907714Y-74853791D01*
X67926866Y-74920984D01*
X67906650Y-74987865D01*
X67855275Y-75032382D01*
X67797267Y-75059431D01*
X67797265Y-75059432D01*
X67610858Y-75189954D01*
X67449954Y-75350858D01*
X67319432Y-75537265D01*
X67319431Y-75537267D01*
X67223261Y-75743502D01*
X67223258Y-75743511D01*
X67164366Y-75963302D01*
X67164364Y-75963313D01*
X67144532Y-76189998D01*
X67144532Y-76190001D01*
X67164364Y-76416686D01*
X67164366Y-76416697D01*
X67223258Y-76636488D01*
X67223261Y-76636497D01*
X67319431Y-76842732D01*
X67319432Y-76842734D01*
X67449954Y-77029141D01*
X67610858Y-77190045D01*
X67610861Y-77190047D01*
X67797266Y-77320568D01*
X67855275Y-77347618D01*
X67907714Y-77393791D01*
X67926866Y-77460984D01*
X67906650Y-77527865D01*
X67855275Y-77572382D01*
X67797267Y-77599431D01*
X67797265Y-77599432D01*
X67610858Y-77729954D01*
X67449954Y-77890858D01*
X67319432Y-78077265D01*
X67319431Y-78077267D01*
X67223261Y-78283502D01*
X67223258Y-78283511D01*
X67164366Y-78503302D01*
X67164364Y-78503313D01*
X67144532Y-78729998D01*
X67144532Y-78730001D01*
X67164364Y-78956686D01*
X67164366Y-78956697D01*
X67223258Y-79176488D01*
X67223261Y-79176497D01*
X67319431Y-79382732D01*
X67319432Y-79382734D01*
X67449954Y-79569141D01*
X67610858Y-79730045D01*
X67610861Y-79730047D01*
X67797266Y-79860568D01*
X67855275Y-79887618D01*
X67907714Y-79933791D01*
X67926866Y-80000984D01*
X67906650Y-80067865D01*
X67855275Y-80112382D01*
X67797267Y-80139431D01*
X67797265Y-80139432D01*
X67610858Y-80269954D01*
X67449954Y-80430858D01*
X67319432Y-80617265D01*
X67319431Y-80617267D01*
X67223261Y-80823502D01*
X67223258Y-80823511D01*
X67164366Y-81043302D01*
X67164364Y-81043313D01*
X67144532Y-81269998D01*
X67144532Y-81270001D01*
X55315468Y-81270001D01*
X55315468Y-81269998D01*
X55308923Y-81195185D01*
X55295635Y-81043308D01*
X55236739Y-80823504D01*
X55140568Y-80617266D01*
X55010047Y-80430861D01*
X55010045Y-80430858D01*
X54849141Y-80269954D01*
X54662734Y-80139432D01*
X54662728Y-80139429D01*
X54604725Y-80112382D01*
X54552285Y-80066210D01*
X54533133Y-79999017D01*
X54553348Y-79932135D01*
X54604725Y-79887618D01*
X54662734Y-79860568D01*
X54849139Y-79730047D01*
X55010047Y-79569139D01*
X55140568Y-79382734D01*
X55236739Y-79176496D01*
X55295635Y-78956692D01*
X55315468Y-78730000D01*
X55295635Y-78503308D01*
X55236739Y-78283504D01*
X55140568Y-78077266D01*
X55010047Y-77890861D01*
X55010045Y-77890858D01*
X54849141Y-77729954D01*
X54662734Y-77599432D01*
X54662728Y-77599429D01*
X54604725Y-77572382D01*
X54552285Y-77526210D01*
X54533133Y-77459017D01*
X54553348Y-77392135D01*
X54604725Y-77347618D01*
X54662734Y-77320568D01*
X54849139Y-77190047D01*
X55010047Y-77029139D01*
X55140568Y-76842734D01*
X55236739Y-76636496D01*
X55295635Y-76416692D01*
X55315468Y-76190000D01*
X55295635Y-75963308D01*
X55236739Y-75743504D01*
X55140568Y-75537266D01*
X55010047Y-75350861D01*
X55010045Y-75350858D01*
X54849141Y-75189954D01*
X54662734Y-75059432D01*
X54662728Y-75059429D01*
X54604725Y-75032382D01*
X54552285Y-74986210D01*
X54533133Y-74919017D01*
X54553348Y-74852135D01*
X54604725Y-74807618D01*
X54662734Y-74780568D01*
X54849139Y-74650047D01*
X55010047Y-74489139D01*
X55140568Y-74302734D01*
X55236739Y-74096496D01*
X55295635Y-73876692D01*
X55315468Y-73650000D01*
X55295635Y-73423308D01*
X55236739Y-73203504D01*
X55140568Y-72997266D01*
X55010047Y-72810861D01*
X55010045Y-72810858D01*
X54849141Y-72649954D01*
X54662734Y-72519432D01*
X54662728Y-72519429D01*
X54604725Y-72492382D01*
X54552285Y-72446210D01*
X54533133Y-72379017D01*
X54553348Y-72312135D01*
X54604725Y-72267618D01*
X54662734Y-72240568D01*
X54849139Y-72110047D01*
X55010047Y-71949139D01*
X55140568Y-71762734D01*
X55236739Y-71556496D01*
X55295635Y-71336692D01*
X55315468Y-71110000D01*
X55295635Y-70883308D01*
X55236739Y-70663504D01*
X55140568Y-70457266D01*
X55010047Y-70270861D01*
X55010045Y-70270858D01*
X54849141Y-70109954D01*
X54662734Y-69979432D01*
X54662728Y-69979429D01*
X54604725Y-69952382D01*
X54552285Y-69906210D01*
X54533133Y-69839017D01*
X54553348Y-69772135D01*
X54604725Y-69727618D01*
X54662734Y-69700568D01*
X54849139Y-69570047D01*
X55010047Y-69409139D01*
X55140568Y-69222734D01*
X55236739Y-69016496D01*
X55295635Y-68796692D01*
X55315468Y-68570000D01*
X55295635Y-68343308D01*
X55236739Y-68123504D01*
X55191694Y-68026905D01*
X55181202Y-67957827D01*
X55209722Y-67894043D01*
X55268198Y-67855804D01*
X55304076Y-67850500D01*
X55980914Y-67850500D01*
X56047953Y-67870185D01*
X56076768Y-67895836D01*
X56089117Y-67910883D01*
X56241460Y-68035909D01*
X56241467Y-68035913D01*
X56415266Y-68128811D01*
X56415269Y-68128811D01*
X56415273Y-68128814D01*
X56603868Y-68186024D01*
X56800000Y-68205341D01*
X56996132Y-68186024D01*
X57184727Y-68128814D01*
X57194649Y-68123511D01*
X57358532Y-68035913D01*
X57358538Y-68035910D01*
X57510883Y-67910883D01*
X57635910Y-67758538D01*
X57728814Y-67584727D01*
X57786024Y-67396132D01*
X57805341Y-67200000D01*
X57786024Y-67003868D01*
X57728814Y-66815273D01*
X57728811Y-66815269D01*
X57728811Y-66815266D01*
X57635913Y-66641467D01*
X57635909Y-66641460D01*
X57510883Y-66489116D01*
X57358539Y-66364090D01*
X57358532Y-66364086D01*
X57184733Y-66271188D01*
X57184727Y-66271186D01*
X56996132Y-66213976D01*
X56996129Y-66213975D01*
X56800000Y-66194659D01*
X56603870Y-66213975D01*
X56415266Y-66271188D01*
X56241467Y-66364086D01*
X56241460Y-66364090D01*
X56089117Y-66489116D01*
X56076768Y-66504164D01*
X56019022Y-66543499D01*
X55980914Y-66549500D01*
X55378778Y-66549500D01*
X55311739Y-66529815D01*
X55265984Y-66477011D01*
X55256040Y-66407853D01*
X55259003Y-66393407D01*
X55284030Y-66300001D01*
X55295635Y-66256692D01*
X55315468Y-66030000D01*
X55295635Y-65803308D01*
X55236739Y-65583504D01*
X55140568Y-65377266D01*
X55010047Y-65190861D01*
X55010045Y-65190858D01*
X54849141Y-65029954D01*
X54662734Y-64899432D01*
X54662728Y-64899429D01*
X54604725Y-64872382D01*
X54552285Y-64826210D01*
X54533133Y-64759017D01*
X54553348Y-64692135D01*
X54604725Y-64647618D01*
X54662734Y-64620568D01*
X54849139Y-64490047D01*
X55010047Y-64329139D01*
X55140568Y-64142734D01*
X55236739Y-63936496D01*
X55295635Y-63716692D01*
X55315468Y-63490000D01*
X55295635Y-63263308D01*
X55236739Y-63043504D01*
X55140568Y-62837266D01*
X55010047Y-62650861D01*
X55010045Y-62650858D01*
X54849141Y-62489954D01*
X54662734Y-62359432D01*
X54662728Y-62359429D01*
X54604725Y-62332382D01*
X54552285Y-62286210D01*
X54533133Y-62219017D01*
X54553348Y-62152135D01*
X54604725Y-62107618D01*
X54662734Y-62080568D01*
X54849139Y-61950047D01*
X55010047Y-61789139D01*
X55140568Y-61602734D01*
X55236739Y-61396496D01*
X55295635Y-61176692D01*
X55315468Y-60950000D01*
X55295635Y-60723308D01*
X55236739Y-60503504D01*
X55140568Y-60297266D01*
X55010047Y-60110861D01*
X55010045Y-60110858D01*
X54849141Y-59949954D01*
X54662734Y-59819432D01*
X54662728Y-59819429D01*
X54604725Y-59792382D01*
X54552285Y-59746210D01*
X54533133Y-59679017D01*
X54553348Y-59612135D01*
X54604725Y-59567618D01*
X54662734Y-59540568D01*
X54849139Y-59410047D01*
X55010047Y-59249139D01*
X55140568Y-59062734D01*
X55236739Y-58856496D01*
X55295635Y-58636692D01*
X55315468Y-58410000D01*
X55295635Y-58183308D01*
X55236739Y-57963504D01*
X55140568Y-57757266D01*
X55010047Y-57570861D01*
X55010045Y-57570858D01*
X54849141Y-57409954D01*
X54662734Y-57279432D01*
X54662728Y-57279429D01*
X54604725Y-57252382D01*
X54552285Y-57206210D01*
X54533133Y-57139017D01*
X54553348Y-57072135D01*
X54604725Y-57027618D01*
X54662734Y-57000568D01*
X54849139Y-56870047D01*
X55010047Y-56709139D01*
X55140568Y-56522734D01*
X55236739Y-56316496D01*
X55295635Y-56096692D01*
X55315468Y-55870000D01*
X55295635Y-55643308D01*
X55236739Y-55423504D01*
X55140568Y-55217266D01*
X55010047Y-55030861D01*
X55010045Y-55030858D01*
X54849141Y-54869954D01*
X54662734Y-54739432D01*
X54662728Y-54739429D01*
X54604725Y-54712382D01*
X54552285Y-54666210D01*
X54533133Y-54599017D01*
X54553348Y-54532135D01*
X54604725Y-54487618D01*
X54662734Y-54460568D01*
X54849139Y-54330047D01*
X55010047Y-54169139D01*
X55140568Y-53982734D01*
X55236739Y-53776496D01*
X55295635Y-53556692D01*
X55315468Y-53330000D01*
X55295635Y-53103308D01*
X55236739Y-52883504D01*
X55140568Y-52677266D01*
X55010047Y-52490861D01*
X55010045Y-52490858D01*
X54849141Y-52329954D01*
X54662734Y-52199432D01*
X54662732Y-52199431D01*
X54456497Y-52103261D01*
X54456488Y-52103258D01*
X54236697Y-52044366D01*
X54236687Y-52044364D01*
X54066784Y-52029500D01*
X53153216Y-52029500D01*
X52983312Y-52044364D01*
X52983302Y-52044366D01*
X52763511Y-52103258D01*
X52763502Y-52103261D01*
X52557267Y-52199431D01*
X52557265Y-52199432D01*
X52370858Y-52329954D01*
X52209954Y-52490858D01*
X52079432Y-52677265D01*
X52079431Y-52677267D01*
X51983261Y-52883502D01*
X51983258Y-52883511D01*
X51924366Y-53103302D01*
X51924364Y-53103313D01*
X51904532Y-53329998D01*
X51904532Y-53330001D01*
X51924364Y-53556686D01*
X51924366Y-53556697D01*
X51983258Y-53776488D01*
X51983261Y-53776497D01*
X52079431Y-53982732D01*
X52079432Y-53982734D01*
X52209954Y-54169141D01*
X52370858Y-54330045D01*
X52370861Y-54330047D01*
X52557266Y-54460568D01*
X52615275Y-54487618D01*
X52667714Y-54533791D01*
X52686866Y-54600984D01*
X52666650Y-54667865D01*
X52615275Y-54712382D01*
X52557267Y-54739431D01*
X52557265Y-54739432D01*
X52370858Y-54869954D01*
X52209954Y-55030858D01*
X52079432Y-55217265D01*
X52079431Y-55217267D01*
X51983261Y-55423502D01*
X51983258Y-55423511D01*
X51924366Y-55643302D01*
X51924364Y-55643313D01*
X51904532Y-55869998D01*
X51904532Y-55870001D01*
X51924364Y-56096686D01*
X51924366Y-56096697D01*
X51983258Y-56316488D01*
X51983261Y-56316497D01*
X52079431Y-56522732D01*
X52079432Y-56522734D01*
X52209954Y-56709141D01*
X52370858Y-56870045D01*
X52370861Y-56870047D01*
X52557266Y-57000568D01*
X52615275Y-57027618D01*
X52667714Y-57073791D01*
X52686866Y-57140984D01*
X52666650Y-57207865D01*
X52615275Y-57252382D01*
X52557267Y-57279431D01*
X52557265Y-57279432D01*
X52370858Y-57409954D01*
X52209954Y-57570858D01*
X52079432Y-57757265D01*
X52079431Y-57757267D01*
X51983261Y-57963502D01*
X51983258Y-57963511D01*
X51924366Y-58183302D01*
X51924364Y-58183313D01*
X51904532Y-58409998D01*
X51904532Y-58410001D01*
X51924364Y-58636686D01*
X51924366Y-58636697D01*
X51983258Y-58856488D01*
X51983261Y-58856497D01*
X52079431Y-59062732D01*
X52079432Y-59062734D01*
X52209954Y-59249141D01*
X52370858Y-59410045D01*
X52370861Y-59410047D01*
X52557266Y-59540568D01*
X52615275Y-59567618D01*
X52667714Y-59613791D01*
X52686866Y-59680984D01*
X52666650Y-59747865D01*
X52615275Y-59792382D01*
X52557267Y-59819431D01*
X52557265Y-59819432D01*
X52370858Y-59949954D01*
X52209954Y-60110858D01*
X52079432Y-60297265D01*
X52079431Y-60297267D01*
X51983261Y-60503502D01*
X51983258Y-60503511D01*
X51924366Y-60723302D01*
X51924364Y-60723313D01*
X51904532Y-60949998D01*
X51904532Y-60950001D01*
X51924364Y-61176686D01*
X51924366Y-61176697D01*
X51983258Y-61396488D01*
X51983261Y-61396497D01*
X52079431Y-61602732D01*
X52079432Y-61602734D01*
X52209954Y-61789141D01*
X52370858Y-61950045D01*
X52370861Y-61950047D01*
X52557266Y-62080568D01*
X52615275Y-62107618D01*
X52667714Y-62153791D01*
X52686866Y-62220984D01*
X52666650Y-62287865D01*
X52615275Y-62332382D01*
X52557267Y-62359431D01*
X52557265Y-62359432D01*
X52370858Y-62489954D01*
X52209954Y-62650858D01*
X52079432Y-62837265D01*
X52079431Y-62837267D01*
X51983261Y-63043502D01*
X51983258Y-63043511D01*
X51924366Y-63263302D01*
X51924364Y-63263313D01*
X51904532Y-63489998D01*
X51904532Y-63490001D01*
X51924364Y-63716686D01*
X51924366Y-63716697D01*
X51983258Y-63936488D01*
X51983261Y-63936497D01*
X52079431Y-64142732D01*
X52079432Y-64142734D01*
X52209954Y-64329141D01*
X52370858Y-64490045D01*
X52370861Y-64490047D01*
X52557266Y-64620568D01*
X52615275Y-64647618D01*
X52667714Y-64693791D01*
X52686866Y-64760984D01*
X52666650Y-64827865D01*
X52615275Y-64872382D01*
X52557267Y-64899431D01*
X52557265Y-64899432D01*
X52370858Y-65029954D01*
X52209954Y-65190858D01*
X52079432Y-65377265D01*
X52079431Y-65377267D01*
X51983261Y-65583502D01*
X51983258Y-65583511D01*
X51924366Y-65803302D01*
X51924364Y-65803313D01*
X51904532Y-66029998D01*
X51904532Y-66030001D01*
X51924364Y-66256686D01*
X51924366Y-66256697D01*
X51960997Y-66393407D01*
X51959334Y-66463257D01*
X51920171Y-66521119D01*
X51855943Y-66548623D01*
X51841222Y-66549500D01*
X47470808Y-66549500D01*
X47403769Y-66529815D01*
X47383127Y-66513181D01*
X47289154Y-66419208D01*
X47255669Y-66357885D01*
X47253433Y-66319369D01*
X47255341Y-66300003D01*
X47255340Y-66300002D01*
X47255341Y-66300000D01*
X47236024Y-66103868D01*
X47178814Y-65915273D01*
X47178811Y-65915269D01*
X47178811Y-65915266D01*
X47085913Y-65741467D01*
X47085909Y-65741460D01*
X46960883Y-65589116D01*
X46808539Y-65464090D01*
X46808532Y-65464086D01*
X46634733Y-65371188D01*
X46634727Y-65371186D01*
X46446132Y-65313976D01*
X46446129Y-65313975D01*
X46250000Y-65294659D01*
X46053870Y-65313975D01*
X45865266Y-65371188D01*
X45691467Y-65464086D01*
X45691460Y-65464090D01*
X45539116Y-65589116D01*
X45414090Y-65741460D01*
X45414086Y-65741467D01*
X45321188Y-65915266D01*
X45263975Y-66103870D01*
X45244659Y-66300000D01*
X42363420Y-66300000D01*
X42403433Y-66234704D01*
X42495323Y-66012863D01*
X42551377Y-65779379D01*
X42570217Y-65540000D01*
X42551377Y-65300621D01*
X42495323Y-65067137D01*
X42443508Y-64942047D01*
X42403434Y-64845297D01*
X42282791Y-64648425D01*
X42277972Y-64640561D01*
X42122027Y-64457973D01*
X41939439Y-64302028D01*
X41939436Y-64302026D01*
X41734702Y-64176565D01*
X41512865Y-64084678D01*
X41512867Y-64084678D01*
X41512863Y-64084677D01*
X41512859Y-64084676D01*
X41512853Y-64084674D01*
X41279382Y-64028623D01*
X41099844Y-64014493D01*
X41040000Y-64009783D01*
X41039999Y-64009783D01*
X40800617Y-64028623D01*
X40567146Y-64084674D01*
X40567134Y-64084678D01*
X40345297Y-64176565D01*
X40140563Y-64302026D01*
X39957973Y-64457973D01*
X39802026Y-64640563D01*
X39676565Y-64845297D01*
X39584678Y-65067134D01*
X39584674Y-65067146D01*
X39528623Y-65300617D01*
X39509783Y-65539999D01*
X35010500Y-65539999D01*
X35010500Y-55040000D01*
X39509783Y-55040000D01*
X39528623Y-55279382D01*
X39584674Y-55512853D01*
X39584678Y-55512865D01*
X39676565Y-55734702D01*
X39802026Y-55939436D01*
X39802028Y-55939439D01*
X39957973Y-56122027D01*
X40140561Y-56277972D01*
X40215109Y-56323655D01*
X40345297Y-56403434D01*
X40442047Y-56443508D01*
X40567137Y-56495323D01*
X40800621Y-56551377D01*
X41040000Y-56570217D01*
X41279379Y-56551377D01*
X41512863Y-56495323D01*
X41734704Y-56403433D01*
X41939439Y-56277972D01*
X42122027Y-56122027D01*
X42277972Y-55939439D01*
X42403433Y-55734704D01*
X42495323Y-55512863D01*
X42551377Y-55279379D01*
X42570217Y-55040000D01*
X42551377Y-54800621D01*
X42495323Y-54567137D01*
X42443508Y-54442047D01*
X42403434Y-54345297D01*
X42295486Y-54169141D01*
X42277972Y-54140561D01*
X42122027Y-53957973D01*
X41939439Y-53802028D01*
X41939436Y-53802026D01*
X41734702Y-53676565D01*
X41512865Y-53584678D01*
X41512867Y-53584678D01*
X41512863Y-53584677D01*
X41512859Y-53584676D01*
X41512853Y-53584674D01*
X41279382Y-53528623D01*
X41040000Y-53509783D01*
X40800617Y-53528623D01*
X40567146Y-53584674D01*
X40567134Y-53584678D01*
X40345297Y-53676565D01*
X40140563Y-53802026D01*
X39957973Y-53957973D01*
X39802026Y-54140563D01*
X39676565Y-54345297D01*
X39584678Y-54567134D01*
X39584674Y-54567146D01*
X39528623Y-54800617D01*
X39509783Y-55040000D01*
X35010500Y-55040000D01*
X35010500Y-48250001D01*
X51904532Y-48250001D01*
X51924364Y-48476686D01*
X51924366Y-48476697D01*
X51983258Y-48696488D01*
X51983261Y-48696497D01*
X52079431Y-48902732D01*
X52079432Y-48902734D01*
X52209954Y-49089141D01*
X52370858Y-49250045D01*
X52370861Y-49250047D01*
X52557266Y-49380568D01*
X52763504Y-49476739D01*
X52763509Y-49476740D01*
X52763511Y-49476741D01*
X52811129Y-49489500D01*
X52983308Y-49535635D01*
X53153216Y-49550500D01*
X54066784Y-49550500D01*
X54236692Y-49535635D01*
X54456496Y-49476739D01*
X54662734Y-49380568D01*
X54849139Y-49250047D01*
X55010047Y-49089139D01*
X55140568Y-48902734D01*
X55236739Y-48696496D01*
X55295635Y-48476692D01*
X55315468Y-48250000D01*
X55295635Y-48023308D01*
X55236739Y-47803504D01*
X55140568Y-47597266D01*
X55010047Y-47410861D01*
X55010045Y-47410858D01*
X54849141Y-47249954D01*
X54662734Y-47119432D01*
X54662732Y-47119431D01*
X54456497Y-47023261D01*
X54456488Y-47023258D01*
X54236697Y-46964366D01*
X54236687Y-46964364D01*
X54066784Y-46949500D01*
X53153216Y-46949500D01*
X52983312Y-46964364D01*
X52983302Y-46964366D01*
X52763511Y-47023258D01*
X52763502Y-47023261D01*
X52557267Y-47119431D01*
X52557265Y-47119432D01*
X52370858Y-47249954D01*
X52209954Y-47410858D01*
X52079432Y-47597265D01*
X52079431Y-47597267D01*
X51983261Y-47803502D01*
X51983258Y-47803511D01*
X51924366Y-48023302D01*
X51924364Y-48023313D01*
X51904532Y-48249998D01*
X51904532Y-48250001D01*
X35010500Y-48250001D01*
X35010500Y-45134500D01*
X35030185Y-45067461D01*
X35082989Y-45021706D01*
X35134500Y-45010500D01*
X77365500Y-45010500D01*
X77432539Y-45030185D01*
G37*
%TD.AperFunction*%
%TD*%
M02*
