%TF.GenerationSoftware,KiCad,Pcbnew,7.0.6-0*%
%TF.CreationDate,2023-12-30T17:34:11-06:00*%
%TF.ProjectId,fpga_adaptor,66706761-5f61-4646-9170-746f722e6b69,rev?*%
%TF.SameCoordinates,Original*%
%TF.FileFunction,Paste,Top*%
%TF.FilePolarity,Positive*%
%FSLAX46Y46*%
G04 Gerber Fmt 4.6, Leading zero omitted, Abs format (unit mm)*
G04 Created by KiCad (PCBNEW 7.0.6-0) date 2023-12-30 17:34:11*
%MOMM*%
%LPD*%
G01*
G04 APERTURE LIST*
G04 Aperture macros list*
%AMRoundRect*
0 Rectangle with rounded corners*
0 $1 Rounding radius*
0 $2 $3 $4 $5 $6 $7 $8 $9 X,Y pos of 4 corners*
0 Add a 4 corners polygon primitive as box body*
4,1,4,$2,$3,$4,$5,$6,$7,$8,$9,$2,$3,0*
0 Add four circle primitives for the rounded corners*
1,1,$1+$1,$2,$3*
1,1,$1+$1,$4,$5*
1,1,$1+$1,$6,$7*
1,1,$1+$1,$8,$9*
0 Add four rect primitives between the rounded corners*
20,1,$1+$1,$2,$3,$4,$5,0*
20,1,$1+$1,$4,$5,$6,$7,0*
20,1,$1+$1,$6,$7,$8,$9,0*
20,1,$1+$1,$8,$9,$2,$3,0*%
G04 Aperture macros list end*
%ADD10RoundRect,0.225000X-0.225000X-0.250000X0.225000X-0.250000X0.225000X0.250000X-0.225000X0.250000X0*%
%ADD11RoundRect,0.200000X0.200000X0.275000X-0.200000X0.275000X-0.200000X-0.275000X0.200000X-0.275000X0*%
%ADD12RoundRect,0.225000X0.225000X0.250000X-0.225000X0.250000X-0.225000X-0.250000X0.225000X-0.250000X0*%
%ADD13RoundRect,0.225000X0.250000X-0.225000X0.250000X0.225000X-0.250000X0.225000X-0.250000X-0.225000X0*%
%ADD14RoundRect,0.225000X-0.250000X0.225000X-0.250000X-0.225000X0.250000X-0.225000X0.250000X0.225000X0*%
%ADD15RoundRect,0.225000X-0.225000X-0.375000X0.225000X-0.375000X0.225000X0.375000X-0.225000X0.375000X0*%
%ADD16RoundRect,0.150000X-0.512500X-0.150000X0.512500X-0.150000X0.512500X0.150000X-0.512500X0.150000X0*%
%ADD17RoundRect,0.150000X0.150000X-0.512500X0.150000X0.512500X-0.150000X0.512500X-0.150000X-0.512500X0*%
%ADD18RoundRect,0.150000X-0.150000X0.825000X-0.150000X-0.825000X0.150000X-0.825000X0.150000X0.825000X0*%
%ADD19RoundRect,0.150000X-0.150000X0.512500X-0.150000X-0.512500X0.150000X-0.512500X0.150000X0.512500X0*%
%ADD20RoundRect,0.150000X0.512500X0.150000X-0.512500X0.150000X-0.512500X-0.150000X0.512500X-0.150000X0*%
%ADD21RoundRect,0.200000X-0.275000X0.200000X-0.275000X-0.200000X0.275000X-0.200000X0.275000X0.200000X0*%
%ADD22RoundRect,0.218750X0.218750X0.256250X-0.218750X0.256250X-0.218750X-0.256250X0.218750X-0.256250X0*%
%ADD23RoundRect,0.200000X-0.200000X-0.275000X0.200000X-0.275000X0.200000X0.275000X-0.200000X0.275000X0*%
G04 APERTURE END LIST*
D10*
%TO.C,C12*%
X55975000Y-89250000D03*
X57525000Y-89250000D03*
%TD*%
D11*
%TO.C,R5*%
X49900000Y-94000000D03*
X48250000Y-94000000D03*
%TD*%
D12*
%TO.C,C16*%
X68500000Y-103000000D03*
X66950000Y-103000000D03*
%TD*%
D13*
%TO.C,C4*%
X46750000Y-130050000D03*
X46750000Y-128500000D03*
%TD*%
D14*
%TO.C,C14*%
X56905000Y-109925000D03*
X56905000Y-111475000D03*
%TD*%
D15*
%TO.C,D1*%
X57200000Y-48250000D03*
X60500000Y-48250000D03*
%TD*%
D16*
%TO.C,U7*%
X52975000Y-85600000D03*
X52975000Y-86550000D03*
X52975000Y-87500000D03*
X55250000Y-87500000D03*
X55250000Y-85600000D03*
%TD*%
D17*
%TO.C,U4*%
X48300000Y-63387500D03*
X49250000Y-63387500D03*
X50200000Y-63387500D03*
X50200000Y-61112500D03*
X48300000Y-61112500D03*
%TD*%
D10*
%TO.C,C10*%
X45200000Y-87500000D03*
X46750000Y-87500000D03*
%TD*%
D11*
%TO.C,R6*%
X50900000Y-87500000D03*
X49250000Y-87500000D03*
%TD*%
D10*
%TO.C,C2*%
X49950000Y-120750000D03*
X51500000Y-120750000D03*
%TD*%
D14*
%TO.C,C3*%
X46750000Y-124450000D03*
X46750000Y-126000000D03*
%TD*%
D13*
%TO.C,C9*%
X56800000Y-68750000D03*
X56800000Y-67200000D03*
%TD*%
D18*
%TO.C,U8*%
X57060000Y-102750000D03*
X55790000Y-102750000D03*
X54520000Y-102750000D03*
X53250000Y-102750000D03*
X53250000Y-107700000D03*
X54520000Y-107700000D03*
X55790000Y-107700000D03*
X57060000Y-107700000D03*
%TD*%
D11*
%TO.C,R2*%
X50075000Y-71250000D03*
X48425000Y-71250000D03*
%TD*%
D14*
%TO.C,C11*%
X52750000Y-93950000D03*
X52750000Y-95500000D03*
%TD*%
D13*
%TO.C,C5*%
X48250000Y-54000000D03*
X48250000Y-52450000D03*
%TD*%
%TO.C,C6*%
X46500000Y-61275000D03*
X46500000Y-59725000D03*
%TD*%
D19*
%TO.C,U5*%
X49900000Y-66250000D03*
X48950000Y-66250000D03*
X48000000Y-66250000D03*
X48000000Y-68525000D03*
X49900000Y-68525000D03*
%TD*%
D20*
%TO.C,U6*%
X59250000Y-65400000D03*
X59250000Y-64450000D03*
X59250000Y-63500000D03*
X56975000Y-63500000D03*
X56975000Y-65400000D03*
%TD*%
D21*
%TO.C,R8*%
X44700000Y-106650000D03*
X44700000Y-108300000D03*
%TD*%
D22*
%TO.C,D5*%
X68075000Y-113000000D03*
X66500000Y-113000000D03*
%TD*%
D13*
%TO.C,C7*%
X44750000Y-112050000D03*
X44750000Y-110500000D03*
%TD*%
D14*
%TO.C,C15*%
X54905000Y-109925000D03*
X54905000Y-111475000D03*
%TD*%
D23*
%TO.C,R3*%
X56925000Y-61750000D03*
X58575000Y-61750000D03*
%TD*%
D14*
%TO.C,C13*%
X53155000Y-109925000D03*
X53155000Y-111475000D03*
%TD*%
D10*
%TO.C,C1*%
X49950000Y-122500000D03*
X51500000Y-122500000D03*
%TD*%
D11*
%TO.C,R4*%
X49790000Y-100750000D03*
X48140000Y-100750000D03*
%TD*%
%TO.C,R1*%
X48150000Y-112000000D03*
X46500000Y-112000000D03*
%TD*%
D21*
%TO.C,R7*%
X51405000Y-105150000D03*
X51405000Y-106800000D03*
%TD*%
D13*
%TO.C,C8*%
X46250000Y-66300000D03*
X46250000Y-64750000D03*
%TD*%
D17*
%TO.C,U3*%
X48350000Y-58250000D03*
X49300000Y-58250000D03*
X50250000Y-58250000D03*
X50250000Y-55975000D03*
X48350000Y-55975000D03*
%TD*%
M02*
