%TF.GenerationSoftware,KiCad,Pcbnew,7.0.6-0*%
%TF.CreationDate,2023-12-30T17:34:11-06:00*%
%TF.ProjectId,fpga_adaptor,66706761-5f61-4646-9170-746f722e6b69,rev?*%
%TF.SameCoordinates,Original*%
%TF.FileFunction,Soldermask,Top*%
%TF.FilePolarity,Negative*%
%FSLAX46Y46*%
G04 Gerber Fmt 4.6, Leading zero omitted, Abs format (unit mm)*
G04 Created by KiCad (PCBNEW 7.0.6-0) date 2023-12-30 17:34:11*
%MOMM*%
%LPD*%
G01*
G04 APERTURE LIST*
G04 Aperture macros list*
%AMRoundRect*
0 Rectangle with rounded corners*
0 $1 Rounding radius*
0 $2 $3 $4 $5 $6 $7 $8 $9 X,Y pos of 4 corners*
0 Add a 4 corners polygon primitive as box body*
4,1,4,$2,$3,$4,$5,$6,$7,$8,$9,$2,$3,0*
0 Add four circle primitives for the rounded corners*
1,1,$1+$1,$2,$3*
1,1,$1+$1,$4,$5*
1,1,$1+$1,$6,$7*
1,1,$1+$1,$8,$9*
0 Add four rect primitives between the rounded corners*
20,1,$1+$1,$2,$3,$4,$5,0*
20,1,$1+$1,$4,$5,$6,$7,0*
20,1,$1+$1,$6,$7,$8,$9,0*
20,1,$1+$1,$8,$9,$2,$3,0*%
G04 Aperture macros list end*
%ADD10RoundRect,0.425000X-0.225000X-0.250000X0.225000X-0.250000X0.225000X0.250000X-0.225000X0.250000X0*%
%ADD11RoundRect,0.400000X0.200000X0.275000X-0.200000X0.275000X-0.200000X-0.275000X0.200000X-0.275000X0*%
%ADD12RoundRect,0.425000X0.225000X0.250000X-0.225000X0.250000X-0.225000X-0.250000X0.225000X-0.250000X0*%
%ADD13RoundRect,0.425000X0.250000X-0.225000X0.250000X0.225000X-0.250000X0.225000X-0.250000X-0.225000X0*%
%ADD14RoundRect,0.425000X-0.250000X0.225000X-0.250000X-0.225000X0.250000X-0.225000X0.250000X0.225000X0*%
%ADD15RoundRect,0.425000X-0.225000X-0.375000X0.225000X-0.375000X0.225000X0.375000X-0.225000X0.375000X0*%
%ADD16RoundRect,0.350000X-0.512500X-0.150000X0.512500X-0.150000X0.512500X0.150000X-0.512500X0.150000X0*%
%ADD17O,3.900000X3.900000*%
%ADD18RoundRect,0.200000X-1.000000X0.952500X-1.000000X-0.952500X1.000000X-0.952500X1.000000X0.952500X0*%
%ADD19O,2.400000X2.305000*%
%ADD20RoundRect,0.350000X0.150000X-0.512500X0.150000X0.512500X-0.150000X0.512500X-0.150000X-0.512500X0*%
%ADD21RoundRect,0.350000X-0.150000X0.825000X-0.150000X-0.825000X0.150000X-0.825000X0.150000X0.825000X0*%
%ADD22RoundRect,0.350000X-0.150000X0.512500X-0.150000X-0.512500X0.150000X-0.512500X0.150000X0.512500X0*%
%ADD23RoundRect,0.350000X0.512500X0.150000X-0.512500X0.150000X-0.512500X-0.150000X0.512500X-0.150000X0*%
%ADD24RoundRect,0.400000X-0.275000X0.200000X-0.275000X-0.200000X0.275000X-0.200000X0.275000X0.200000X0*%
%ADD25RoundRect,0.418750X0.218750X0.256250X-0.218750X0.256250X-0.218750X-0.256250X0.218750X-0.256250X0*%
%ADD26RoundRect,0.400000X-0.200000X-0.275000X0.200000X-0.275000X0.200000X0.275000X-0.200000X0.275000X0*%
%ADD27RoundRect,0.200000X0.900000X0.900000X-0.900000X0.900000X-0.900000X-0.900000X0.900000X-0.900000X0*%
%ADD28C,2.200000*%
%ADD29C,2.450000*%
%ADD30C,2.650000*%
%ADD31RoundRect,0.450000X-0.845000X0.620000X-0.845000X-0.620000X0.845000X-0.620000X0.845000X0.620000X0*%
%ADD32O,2.590000X2.140000*%
%ADD33RoundRect,0.200000X0.850000X-0.850000X0.850000X0.850000X-0.850000X0.850000X-0.850000X-0.850000X0*%
%ADD34O,2.100000X2.100000*%
%ADD35RoundRect,0.200000X0.800000X0.800000X-0.800000X0.800000X-0.800000X-0.800000X0.800000X-0.800000X0*%
%ADD36O,2.000000X2.000000*%
%ADD37RoundRect,0.200000X0.850000X0.850000X-0.850000X0.850000X-0.850000X-0.850000X0.850000X-0.850000X0*%
%ADD38RoundRect,0.200000X1.200000X0.800000X-1.200000X0.800000X-1.200000X-0.800000X1.200000X-0.800000X0*%
%ADD39O,2.800000X2.000000*%
%ADD40RoundRect,0.200000X0.900000X-0.900000X0.900000X0.900000X-0.900000X0.900000X-0.900000X-0.900000X0*%
%ADD41C,1.800000*%
%ADD42O,1.800000X1.800000*%
%ADD43C,1.840000*%
G04 APERTURE END LIST*
D10*
%TO.C,C12*%
X55975000Y-89250000D03*
X57525000Y-89250000D03*
%TD*%
D11*
%TO.C,R5*%
X49900000Y-94000000D03*
X48250000Y-94000000D03*
%TD*%
D12*
%TO.C,C16*%
X68500000Y-103000000D03*
X66950000Y-103000000D03*
%TD*%
D13*
%TO.C,C4*%
X46750000Y-130050000D03*
X46750000Y-128500000D03*
%TD*%
D14*
%TO.C,C14*%
X56905000Y-109925000D03*
X56905000Y-111475000D03*
%TD*%
D15*
%TO.C,D1*%
X57200000Y-48250000D03*
X60500000Y-48250000D03*
%TD*%
D16*
%TO.C,U7*%
X52975000Y-85600000D03*
X52975000Y-86550000D03*
X52975000Y-87500000D03*
X55250000Y-87500000D03*
X55250000Y-85600000D03*
%TD*%
D17*
%TO.C,U2*%
X67250000Y-129750000D03*
D18*
X50590000Y-127210000D03*
D19*
X50590000Y-129750000D03*
X50590000Y-132290000D03*
%TD*%
D20*
%TO.C,U4*%
X48300000Y-63387500D03*
X49250000Y-63387500D03*
X50200000Y-63387500D03*
X50200000Y-61112500D03*
X48300000Y-61112500D03*
%TD*%
D10*
%TO.C,C10*%
X45200000Y-87500000D03*
X46750000Y-87500000D03*
%TD*%
D11*
%TO.C,R6*%
X50900000Y-87500000D03*
X49250000Y-87500000D03*
%TD*%
D10*
%TO.C,C2*%
X49950000Y-120750000D03*
X51500000Y-120750000D03*
%TD*%
D14*
%TO.C,C3*%
X46750000Y-124450000D03*
X46750000Y-126000000D03*
%TD*%
D13*
%TO.C,C9*%
X56800000Y-68750000D03*
X56800000Y-67200000D03*
%TD*%
D21*
%TO.C,U8*%
X57060000Y-102750000D03*
X55790000Y-102750000D03*
X54520000Y-102750000D03*
X53250000Y-102750000D03*
X53250000Y-107700000D03*
X54520000Y-107700000D03*
X55790000Y-107700000D03*
X57060000Y-107700000D03*
%TD*%
D11*
%TO.C,R2*%
X50075000Y-71250000D03*
X48425000Y-71250000D03*
%TD*%
D14*
%TO.C,C11*%
X52750000Y-93950000D03*
X52750000Y-95500000D03*
%TD*%
D13*
%TO.C,C5*%
X48250000Y-54000000D03*
X48250000Y-52450000D03*
%TD*%
%TO.C,C6*%
X46500000Y-61275000D03*
X46500000Y-59725000D03*
%TD*%
D22*
%TO.C,U5*%
X49900000Y-66250000D03*
X48950000Y-66250000D03*
X48000000Y-66250000D03*
X48000000Y-68525000D03*
X49900000Y-68525000D03*
%TD*%
D23*
%TO.C,U6*%
X59250000Y-65400000D03*
X59250000Y-64450000D03*
X59250000Y-63500000D03*
X56975000Y-63500000D03*
X56975000Y-65400000D03*
%TD*%
D24*
%TO.C,R8*%
X44700000Y-106650000D03*
X44700000Y-108300000D03*
%TD*%
D25*
%TO.C,D5*%
X68075000Y-113000000D03*
X66500000Y-113000000D03*
%TD*%
D13*
%TO.C,C7*%
X44750000Y-112050000D03*
X44750000Y-110500000D03*
%TD*%
D14*
%TO.C,C15*%
X54905000Y-109925000D03*
X54905000Y-111475000D03*
%TD*%
D26*
%TO.C,R3*%
X56925000Y-61750000D03*
X58575000Y-61750000D03*
%TD*%
D14*
%TO.C,C13*%
X53155000Y-109925000D03*
X53155000Y-111475000D03*
%TD*%
D10*
%TO.C,C1*%
X49950000Y-122500000D03*
X51500000Y-122500000D03*
%TD*%
D11*
%TO.C,R4*%
X49790000Y-100750000D03*
X48140000Y-100750000D03*
%TD*%
%TO.C,R1*%
X48150000Y-112000000D03*
X46500000Y-112000000D03*
%TD*%
D24*
%TO.C,R7*%
X51405000Y-105150000D03*
X51405000Y-106800000D03*
%TD*%
D13*
%TO.C,C8*%
X46250000Y-66300000D03*
X46250000Y-64750000D03*
%TD*%
D20*
%TO.C,U3*%
X48350000Y-58250000D03*
X49300000Y-58250000D03*
X50250000Y-58250000D03*
X50250000Y-55975000D03*
X48350000Y-55975000D03*
%TD*%
D27*
%TO.C,D3*%
X48290000Y-92000000D03*
D28*
X45750000Y-92000000D03*
%TD*%
D29*
%TO.C,J8*%
X41040000Y-75540000D03*
D30*
X43580000Y-78080000D03*
X43580000Y-73000000D03*
X38500000Y-78080000D03*
X38500000Y-73000000D03*
%TD*%
D31*
%TO.C,J4*%
X40250000Y-136600000D03*
D32*
X40250000Y-139140000D03*
%TD*%
D33*
%TO.C,J11*%
X72410000Y-115500000D03*
D34*
X69870000Y-115500000D03*
X67330000Y-115500000D03*
X64790000Y-115500000D03*
X62250000Y-115500000D03*
%TD*%
D31*
%TO.C,J10*%
X61250000Y-89500000D03*
D32*
X61250000Y-92040000D03*
X61250000Y-94580000D03*
X61250000Y-97120000D03*
%TD*%
D31*
%TO.C,J1*%
X40250000Y-116230000D03*
D32*
X40250000Y-118770000D03*
%TD*%
D35*
%TO.C,U9*%
X72550000Y-102950000D03*
D36*
X72550000Y-105490000D03*
X72550000Y-108030000D03*
X72550000Y-110570000D03*
X64930000Y-110570000D03*
X64930000Y-108030000D03*
X64930000Y-105490000D03*
X64930000Y-102950000D03*
%TD*%
D31*
%TO.C,J9*%
X40250000Y-82500000D03*
D32*
X40250000Y-85040000D03*
X40250000Y-87580000D03*
X40250000Y-90120000D03*
X40250000Y-92660000D03*
X40250000Y-95200000D03*
X40250000Y-97740000D03*
X40250000Y-100280000D03*
%TD*%
D37*
%TO.C,J13*%
X73700000Y-73650000D03*
D34*
X73700000Y-76190000D03*
X73700000Y-78730000D03*
X73700000Y-81270000D03*
%TD*%
D29*
%TO.C,J5*%
X41040000Y-55040000D03*
D30*
X38500000Y-52500000D03*
X38500000Y-57580000D03*
X43580000Y-52500000D03*
X43580000Y-57580000D03*
%TD*%
D27*
%TO.C,D2*%
X48290000Y-98750000D03*
D28*
X45750000Y-98750000D03*
%TD*%
D38*
%TO.C,U1*%
X68850000Y-48250000D03*
D39*
X68850000Y-50790000D03*
X68850000Y-53330000D03*
X68850000Y-55870000D03*
X68850000Y-58410000D03*
X68850000Y-60950000D03*
X68850000Y-63490000D03*
X68850000Y-66030000D03*
X68850000Y-68570000D03*
X68850000Y-71110000D03*
X68850000Y-73650000D03*
X68850000Y-76190000D03*
X68850000Y-78730000D03*
X68850000Y-81270000D03*
X53610000Y-81270000D03*
X53610000Y-78730000D03*
X53610000Y-76190000D03*
X53610000Y-73650000D03*
X53610000Y-71110000D03*
X53610000Y-68570000D03*
X53610000Y-66030000D03*
X53610000Y-63490000D03*
X53610000Y-60950000D03*
X53610000Y-58410000D03*
X53610000Y-55870000D03*
X53610000Y-53330000D03*
X53610000Y-50790000D03*
X53610000Y-48250000D03*
%TD*%
D31*
%TO.C,J3*%
X40250000Y-123000000D03*
D32*
X40250000Y-125540000D03*
%TD*%
D31*
%TO.C,J2*%
X40250000Y-129830000D03*
D32*
X40250000Y-132370000D03*
%TD*%
D40*
%TO.C,D4*%
X46950000Y-106800000D03*
D28*
X46950000Y-104260000D03*
%TD*%
D41*
%TO.C,R9*%
X72750000Y-100250000D03*
D42*
X67670000Y-100250000D03*
%TD*%
D29*
%TO.C,J6*%
X41040000Y-65540000D03*
D30*
X43580000Y-68080000D03*
X43580000Y-63000000D03*
X38500000Y-68080000D03*
X38500000Y-63000000D03*
%TD*%
D37*
%TO.C,J12*%
X73700000Y-50780000D03*
D34*
X73700000Y-53320000D03*
X73700000Y-55860000D03*
X73700000Y-58400000D03*
X73700000Y-60940000D03*
X73700000Y-63480000D03*
X73700000Y-66020000D03*
X73700000Y-68560000D03*
X73700000Y-71100000D03*
%TD*%
D43*
%TO.C,RV1*%
X54750000Y-91170000D03*
X54750000Y-93710000D03*
X54750000Y-96250000D03*
%TD*%
D31*
%TO.C,J7*%
X40250000Y-104460000D03*
D32*
X40250000Y-107000000D03*
X40250000Y-109540000D03*
X40250000Y-112080000D03*
%TD*%
M02*
