M48
; DRILL file {KiCad 7.0.6-0} date 2023 December 30, Saturday 17:34:13
; FORMAT={-:-/ absolute / metric / decimal}
; #@! TF.CreationDate,2023-12-30T17:34:13-06:00
; #@! TF.GenerationSoftware,Kicad,Pcbnew,7.0.6-0
; #@! TF.FileFunction,MixedPlating,1,2
FMAT,2
METRIC
; #@! TA.AperFunction,Plated,PTH,ViaDrill
T1C0.700
; #@! TA.AperFunction,Plated,PTH,ComponentDrill
T2C0.700
; #@! TA.AperFunction,Plated,PTH,ComponentDrill
T3C0.800
; #@! TA.AperFunction,Plated,PTH,ComponentDrill
T4C0.900
; #@! TA.AperFunction,Plated,PTH,ComponentDrill
T5C1.000
; #@! TA.AperFunction,Plated,PTH,ComponentDrill
T6C1.100
; #@! TA.AperFunction,Plated,PTH,ComponentDrill
T7C1.190
; #@! TA.AperFunction,Plated,PTH,ComponentDrill
T8C1.500
; #@! TA.AperFunction,Plated,PTH,ComponentDrill
T9C1.700
; #@! TA.AperFunction,Plated,PTH,ViaDrill
T10C3.000
; #@! TA.AperFunction,NonPlated,NPTH,ComponentDrill
T11C3.500
%
G90
G05
T1
X43.2Y-95.2
X43.2Y-100.4
X43.2Y-104.6
X43.4Y-84.6
X46.25Y-66.3
X46.8Y-124.4
X49.0Y-83.0
X49.5Y-68.5
X49.8Y-122.4
X50.4Y-62.8
X50.6Y-58.0
X51.405Y-105.15
X53.25Y-102.75
X55.0Y-83.25
X56.8Y-67.2
X56.905Y-109.925
X57.75Y-100.0
X60.5Y-67.8
X60.5Y-102.25
X63.5Y-84.2
X64.0Y-139.75
X65.7Y-48.0
X67.0Y-139.75
X70.0Y-105.5
X72.5Y-121.25
X72.5Y-123.5
X72.8Y-113.0
T2
X67.67Y-100.25
X72.75Y-100.25
T3
X53.61Y-48.25
X53.61Y-50.79
X53.61Y-53.33
X53.61Y-55.87
X53.61Y-58.41
X53.61Y-60.95
X53.61Y-63.49
X53.61Y-66.03
X53.61Y-68.57
X53.61Y-71.11
X53.61Y-73.65
X53.61Y-76.19
X53.61Y-78.73
X53.61Y-81.27
X54.75Y-91.17
X54.75Y-93.71
X54.75Y-96.25
X64.93Y-102.95
X64.93Y-105.49
X64.93Y-108.03
X64.93Y-110.57
X68.85Y-48.25
X68.85Y-50.79
X68.85Y-53.33
X68.85Y-55.87
X68.85Y-58.41
X68.85Y-60.95
X68.85Y-63.49
X68.85Y-66.03
X68.85Y-68.57
X68.85Y-71.11
X68.85Y-73.65
X68.85Y-76.19
X68.85Y-78.73
X68.85Y-81.27
X72.55Y-102.95
X72.55Y-105.49
X72.55Y-108.03
X72.55Y-110.57
T4
X45.75Y-92.0
X45.75Y-98.75
X46.95Y-104.26
X46.95Y-106.8
X48.29Y-92.0
X48.29Y-98.75
T5
X62.25Y-115.5
X64.79Y-115.5
X67.33Y-115.5
X69.87Y-115.5
X72.41Y-115.5
X73.7Y-50.78
X73.7Y-53.32
X73.7Y-55.86
X73.7Y-58.4
X73.7Y-60.94
X73.7Y-63.48
X73.7Y-66.02
X73.7Y-68.56
X73.7Y-71.1
X73.7Y-73.65
X73.7Y-76.19
X73.7Y-78.73
X73.7Y-81.27
T6
X50.59Y-127.21
X50.59Y-129.75
X50.59Y-132.29
T7
X40.25Y-82.5
X40.25Y-85.04
X40.25Y-87.58
X40.25Y-90.12
X40.25Y-92.66
X40.25Y-95.2
X40.25Y-97.74
X40.25Y-100.28
X40.25Y-104.46
X40.25Y-107.0
X40.25Y-109.54
X40.25Y-112.08
X40.25Y-116.23
X40.25Y-118.77
X40.25Y-123.0
X40.25Y-125.54
X40.25Y-129.83
X40.25Y-132.37
X40.25Y-136.6
X40.25Y-139.14
X61.25Y-89.5
X61.25Y-92.04
X61.25Y-94.58
X61.25Y-97.12
T8
X41.04Y-55.04
X41.04Y-65.54
X41.04Y-75.54
T9
X38.5Y-52.5
X38.5Y-57.58
X38.5Y-63.0
X38.5Y-68.08
X38.5Y-73.0
X38.5Y-78.08
X43.58Y-52.5
X43.58Y-57.58
X43.58Y-63.0
X43.58Y-68.08
X43.58Y-73.0
X43.58Y-78.08
T10
X37.5Y-47.5
X47.5Y-140.0
X75.0Y-87.5
X75.0Y-140.0
T11
X67.25Y-129.75
T0
M30
