%TF.GenerationSoftware,KiCad,Pcbnew,7.0.6-0*%
%TF.CreationDate,2023-12-30T17:32:03-06:00*%
%TF.ProjectId,LO_PLL,4c4f5f50-4c4c-42e6-9b69-6361645f7063,rev?*%
%TF.SameCoordinates,Original*%
%TF.FileFunction,Legend,Top*%
%TF.FilePolarity,Positive*%
%FSLAX46Y46*%
G04 Gerber Fmt 4.6, Leading zero omitted, Abs format (unit mm)*
G04 Created by KiCad (PCBNEW 7.0.6-0) date 2023-12-30 17:32:03*
%MOMM*%
%LPD*%
G01*
G04 APERTURE LIST*
%ADD10C,0.150000*%
%ADD11C,0.125000*%
%ADD12C,0.120000*%
G04 APERTURE END LIST*
D10*
X38209580Y-56042857D02*
X38257200Y-56090476D01*
X38257200Y-56090476D02*
X38304819Y-56233333D01*
X38304819Y-56233333D02*
X38304819Y-56328571D01*
X38304819Y-56328571D02*
X38257200Y-56471428D01*
X38257200Y-56471428D02*
X38161961Y-56566666D01*
X38161961Y-56566666D02*
X38066723Y-56614285D01*
X38066723Y-56614285D02*
X37876247Y-56661904D01*
X37876247Y-56661904D02*
X37733390Y-56661904D01*
X37733390Y-56661904D02*
X37542914Y-56614285D01*
X37542914Y-56614285D02*
X37447676Y-56566666D01*
X37447676Y-56566666D02*
X37352438Y-56471428D01*
X37352438Y-56471428D02*
X37304819Y-56328571D01*
X37304819Y-56328571D02*
X37304819Y-56233333D01*
X37304819Y-56233333D02*
X37352438Y-56090476D01*
X37352438Y-56090476D02*
X37400057Y-56042857D01*
X38304819Y-55090476D02*
X38304819Y-55661904D01*
X38304819Y-55376190D02*
X37304819Y-55376190D01*
X37304819Y-55376190D02*
X37447676Y-55471428D01*
X37447676Y-55471428D02*
X37542914Y-55566666D01*
X37542914Y-55566666D02*
X37590533Y-55661904D01*
X37304819Y-54185714D02*
X37304819Y-54661904D01*
X37304819Y-54661904D02*
X37781009Y-54709523D01*
X37781009Y-54709523D02*
X37733390Y-54661904D01*
X37733390Y-54661904D02*
X37685771Y-54566666D01*
X37685771Y-54566666D02*
X37685771Y-54328571D01*
X37685771Y-54328571D02*
X37733390Y-54233333D01*
X37733390Y-54233333D02*
X37781009Y-54185714D01*
X37781009Y-54185714D02*
X37876247Y-54138095D01*
X37876247Y-54138095D02*
X38114342Y-54138095D01*
X38114342Y-54138095D02*
X38209580Y-54185714D01*
X38209580Y-54185714D02*
X38257200Y-54233333D01*
X38257200Y-54233333D02*
X38304819Y-54328571D01*
X38304819Y-54328571D02*
X38304819Y-54566666D01*
X38304819Y-54566666D02*
X38257200Y-54661904D01*
X38257200Y-54661904D02*
X38209580Y-54709523D01*
X77369580Y-71386666D02*
X77417200Y-71434285D01*
X77417200Y-71434285D02*
X77464819Y-71577142D01*
X77464819Y-71577142D02*
X77464819Y-71672380D01*
X77464819Y-71672380D02*
X77417200Y-71815237D01*
X77417200Y-71815237D02*
X77321961Y-71910475D01*
X77321961Y-71910475D02*
X77226723Y-71958094D01*
X77226723Y-71958094D02*
X77036247Y-72005713D01*
X77036247Y-72005713D02*
X76893390Y-72005713D01*
X76893390Y-72005713D02*
X76702914Y-71958094D01*
X76702914Y-71958094D02*
X76607676Y-71910475D01*
X76607676Y-71910475D02*
X76512438Y-71815237D01*
X76512438Y-71815237D02*
X76464819Y-71672380D01*
X76464819Y-71672380D02*
X76464819Y-71577142D01*
X76464819Y-71577142D02*
X76512438Y-71434285D01*
X76512438Y-71434285D02*
X76560057Y-71386666D01*
X76464819Y-70529523D02*
X76464819Y-70719999D01*
X76464819Y-70719999D02*
X76512438Y-70815237D01*
X76512438Y-70815237D02*
X76560057Y-70862856D01*
X76560057Y-70862856D02*
X76702914Y-70958094D01*
X76702914Y-70958094D02*
X76893390Y-71005713D01*
X76893390Y-71005713D02*
X77274342Y-71005713D01*
X77274342Y-71005713D02*
X77369580Y-70958094D01*
X77369580Y-70958094D02*
X77417200Y-70910475D01*
X77417200Y-70910475D02*
X77464819Y-70815237D01*
X77464819Y-70815237D02*
X77464819Y-70624761D01*
X77464819Y-70624761D02*
X77417200Y-70529523D01*
X77417200Y-70529523D02*
X77369580Y-70481904D01*
X77369580Y-70481904D02*
X77274342Y-70434285D01*
X77274342Y-70434285D02*
X77036247Y-70434285D01*
X77036247Y-70434285D02*
X76941009Y-70481904D01*
X76941009Y-70481904D02*
X76893390Y-70529523D01*
X76893390Y-70529523D02*
X76845771Y-70624761D01*
X76845771Y-70624761D02*
X76845771Y-70815237D01*
X76845771Y-70815237D02*
X76893390Y-70910475D01*
X76893390Y-70910475D02*
X76941009Y-70958094D01*
X76941009Y-70958094D02*
X77036247Y-71005713D01*
X64404819Y-68916666D02*
X63928628Y-69249999D01*
X64404819Y-69488094D02*
X63404819Y-69488094D01*
X63404819Y-69488094D02*
X63404819Y-69107142D01*
X63404819Y-69107142D02*
X63452438Y-69011904D01*
X63452438Y-69011904D02*
X63500057Y-68964285D01*
X63500057Y-68964285D02*
X63595295Y-68916666D01*
X63595295Y-68916666D02*
X63738152Y-68916666D01*
X63738152Y-68916666D02*
X63833390Y-68964285D01*
X63833390Y-68964285D02*
X63881009Y-69011904D01*
X63881009Y-69011904D02*
X63928628Y-69107142D01*
X63928628Y-69107142D02*
X63928628Y-69488094D01*
X63404819Y-68059523D02*
X63404819Y-68249999D01*
X63404819Y-68249999D02*
X63452438Y-68345237D01*
X63452438Y-68345237D02*
X63500057Y-68392856D01*
X63500057Y-68392856D02*
X63642914Y-68488094D01*
X63642914Y-68488094D02*
X63833390Y-68535713D01*
X63833390Y-68535713D02*
X64214342Y-68535713D01*
X64214342Y-68535713D02*
X64309580Y-68488094D01*
X64309580Y-68488094D02*
X64357200Y-68440475D01*
X64357200Y-68440475D02*
X64404819Y-68345237D01*
X64404819Y-68345237D02*
X64404819Y-68154761D01*
X64404819Y-68154761D02*
X64357200Y-68059523D01*
X64357200Y-68059523D02*
X64309580Y-68011904D01*
X64309580Y-68011904D02*
X64214342Y-67964285D01*
X64214342Y-67964285D02*
X63976247Y-67964285D01*
X63976247Y-67964285D02*
X63881009Y-68011904D01*
X63881009Y-68011904D02*
X63833390Y-68059523D01*
X63833390Y-68059523D02*
X63785771Y-68154761D01*
X63785771Y-68154761D02*
X63785771Y-68345237D01*
X63785771Y-68345237D02*
X63833390Y-68440475D01*
X63833390Y-68440475D02*
X63881009Y-68488094D01*
X63881009Y-68488094D02*
X63976247Y-68535713D01*
X54197142Y-58909580D02*
X54149523Y-58957200D01*
X54149523Y-58957200D02*
X54006666Y-59004819D01*
X54006666Y-59004819D02*
X53911428Y-59004819D01*
X53911428Y-59004819D02*
X53768571Y-58957200D01*
X53768571Y-58957200D02*
X53673333Y-58861961D01*
X53673333Y-58861961D02*
X53625714Y-58766723D01*
X53625714Y-58766723D02*
X53578095Y-58576247D01*
X53578095Y-58576247D02*
X53578095Y-58433390D01*
X53578095Y-58433390D02*
X53625714Y-58242914D01*
X53625714Y-58242914D02*
X53673333Y-58147676D01*
X53673333Y-58147676D02*
X53768571Y-58052438D01*
X53768571Y-58052438D02*
X53911428Y-58004819D01*
X53911428Y-58004819D02*
X54006666Y-58004819D01*
X54006666Y-58004819D02*
X54149523Y-58052438D01*
X54149523Y-58052438D02*
X54197142Y-58100057D01*
X55149523Y-59004819D02*
X54578095Y-59004819D01*
X54863809Y-59004819D02*
X54863809Y-58004819D01*
X54863809Y-58004819D02*
X54768571Y-58147676D01*
X54768571Y-58147676D02*
X54673333Y-58242914D01*
X54673333Y-58242914D02*
X54578095Y-58290533D01*
X55768571Y-58004819D02*
X55863809Y-58004819D01*
X55863809Y-58004819D02*
X55959047Y-58052438D01*
X55959047Y-58052438D02*
X56006666Y-58100057D01*
X56006666Y-58100057D02*
X56054285Y-58195295D01*
X56054285Y-58195295D02*
X56101904Y-58385771D01*
X56101904Y-58385771D02*
X56101904Y-58623866D01*
X56101904Y-58623866D02*
X56054285Y-58814342D01*
X56054285Y-58814342D02*
X56006666Y-58909580D01*
X56006666Y-58909580D02*
X55959047Y-58957200D01*
X55959047Y-58957200D02*
X55863809Y-59004819D01*
X55863809Y-59004819D02*
X55768571Y-59004819D01*
X55768571Y-59004819D02*
X55673333Y-58957200D01*
X55673333Y-58957200D02*
X55625714Y-58909580D01*
X55625714Y-58909580D02*
X55578095Y-58814342D01*
X55578095Y-58814342D02*
X55530476Y-58623866D01*
X55530476Y-58623866D02*
X55530476Y-58385771D01*
X55530476Y-58385771D02*
X55578095Y-58195295D01*
X55578095Y-58195295D02*
X55625714Y-58100057D01*
X55625714Y-58100057D02*
X55673333Y-58052438D01*
X55673333Y-58052438D02*
X55768571Y-58004819D01*
X59713333Y-53217319D02*
X59380000Y-52741128D01*
X59141905Y-53217319D02*
X59141905Y-52217319D01*
X59141905Y-52217319D02*
X59522857Y-52217319D01*
X59522857Y-52217319D02*
X59618095Y-52264938D01*
X59618095Y-52264938D02*
X59665714Y-52312557D01*
X59665714Y-52312557D02*
X59713333Y-52407795D01*
X59713333Y-52407795D02*
X59713333Y-52550652D01*
X59713333Y-52550652D02*
X59665714Y-52645890D01*
X59665714Y-52645890D02*
X59618095Y-52693509D01*
X59618095Y-52693509D02*
X59522857Y-52741128D01*
X59522857Y-52741128D02*
X59141905Y-52741128D01*
X60189524Y-53217319D02*
X60380000Y-53217319D01*
X60380000Y-53217319D02*
X60475238Y-53169700D01*
X60475238Y-53169700D02*
X60522857Y-53122080D01*
X60522857Y-53122080D02*
X60618095Y-52979223D01*
X60618095Y-52979223D02*
X60665714Y-52788747D01*
X60665714Y-52788747D02*
X60665714Y-52407795D01*
X60665714Y-52407795D02*
X60618095Y-52312557D01*
X60618095Y-52312557D02*
X60570476Y-52264938D01*
X60570476Y-52264938D02*
X60475238Y-52217319D01*
X60475238Y-52217319D02*
X60284762Y-52217319D01*
X60284762Y-52217319D02*
X60189524Y-52264938D01*
X60189524Y-52264938D02*
X60141905Y-52312557D01*
X60141905Y-52312557D02*
X60094286Y-52407795D01*
X60094286Y-52407795D02*
X60094286Y-52645890D01*
X60094286Y-52645890D02*
X60141905Y-52741128D01*
X60141905Y-52741128D02*
X60189524Y-52788747D01*
X60189524Y-52788747D02*
X60284762Y-52836366D01*
X60284762Y-52836366D02*
X60475238Y-52836366D01*
X60475238Y-52836366D02*
X60570476Y-52788747D01*
X60570476Y-52788747D02*
X60618095Y-52741128D01*
X60618095Y-52741128D02*
X60665714Y-52645890D01*
X66834819Y-50160357D02*
X66358628Y-50493690D01*
X66834819Y-50731785D02*
X65834819Y-50731785D01*
X65834819Y-50731785D02*
X65834819Y-50350833D01*
X65834819Y-50350833D02*
X65882438Y-50255595D01*
X65882438Y-50255595D02*
X65930057Y-50207976D01*
X65930057Y-50207976D02*
X66025295Y-50160357D01*
X66025295Y-50160357D02*
X66168152Y-50160357D01*
X66168152Y-50160357D02*
X66263390Y-50207976D01*
X66263390Y-50207976D02*
X66311009Y-50255595D01*
X66311009Y-50255595D02*
X66358628Y-50350833D01*
X66358628Y-50350833D02*
X66358628Y-50731785D01*
X66834819Y-49207976D02*
X66834819Y-49779404D01*
X66834819Y-49493690D02*
X65834819Y-49493690D01*
X65834819Y-49493690D02*
X65977676Y-49588928D01*
X65977676Y-49588928D02*
X66072914Y-49684166D01*
X66072914Y-49684166D02*
X66120533Y-49779404D01*
X66834819Y-48255595D02*
X66834819Y-48827023D01*
X66834819Y-48541309D02*
X65834819Y-48541309D01*
X65834819Y-48541309D02*
X65977676Y-48636547D01*
X65977676Y-48636547D02*
X66072914Y-48731785D01*
X66072914Y-48731785D02*
X66120533Y-48827023D01*
X46859580Y-54830357D02*
X46907200Y-54877976D01*
X46907200Y-54877976D02*
X46954819Y-55020833D01*
X46954819Y-55020833D02*
X46954819Y-55116071D01*
X46954819Y-55116071D02*
X46907200Y-55258928D01*
X46907200Y-55258928D02*
X46811961Y-55354166D01*
X46811961Y-55354166D02*
X46716723Y-55401785D01*
X46716723Y-55401785D02*
X46526247Y-55449404D01*
X46526247Y-55449404D02*
X46383390Y-55449404D01*
X46383390Y-55449404D02*
X46192914Y-55401785D01*
X46192914Y-55401785D02*
X46097676Y-55354166D01*
X46097676Y-55354166D02*
X46002438Y-55258928D01*
X46002438Y-55258928D02*
X45954819Y-55116071D01*
X45954819Y-55116071D02*
X45954819Y-55020833D01*
X45954819Y-55020833D02*
X46002438Y-54877976D01*
X46002438Y-54877976D02*
X46050057Y-54830357D01*
X46954819Y-53877976D02*
X46954819Y-54449404D01*
X46954819Y-54163690D02*
X45954819Y-54163690D01*
X45954819Y-54163690D02*
X46097676Y-54258928D01*
X46097676Y-54258928D02*
X46192914Y-54354166D01*
X46192914Y-54354166D02*
X46240533Y-54449404D01*
X45954819Y-53544642D02*
X45954819Y-52925595D01*
X45954819Y-52925595D02*
X46335771Y-53258928D01*
X46335771Y-53258928D02*
X46335771Y-53116071D01*
X46335771Y-53116071D02*
X46383390Y-53020833D01*
X46383390Y-53020833D02*
X46431009Y-52973214D01*
X46431009Y-52973214D02*
X46526247Y-52925595D01*
X46526247Y-52925595D02*
X46764342Y-52925595D01*
X46764342Y-52925595D02*
X46859580Y-52973214D01*
X46859580Y-52973214D02*
X46907200Y-53020833D01*
X46907200Y-53020833D02*
X46954819Y-53116071D01*
X46954819Y-53116071D02*
X46954819Y-53401785D01*
X46954819Y-53401785D02*
X46907200Y-53497023D01*
X46907200Y-53497023D02*
X46859580Y-53544642D01*
X69484819Y-68921904D02*
X70294342Y-68921904D01*
X70294342Y-68921904D02*
X70389580Y-68874285D01*
X70389580Y-68874285D02*
X70437200Y-68826666D01*
X70437200Y-68826666D02*
X70484819Y-68731428D01*
X70484819Y-68731428D02*
X70484819Y-68540952D01*
X70484819Y-68540952D02*
X70437200Y-68445714D01*
X70437200Y-68445714D02*
X70389580Y-68398095D01*
X70389580Y-68398095D02*
X70294342Y-68350476D01*
X70294342Y-68350476D02*
X69484819Y-68350476D01*
X69580057Y-67921904D02*
X69532438Y-67874285D01*
X69532438Y-67874285D02*
X69484819Y-67779047D01*
X69484819Y-67779047D02*
X69484819Y-67540952D01*
X69484819Y-67540952D02*
X69532438Y-67445714D01*
X69532438Y-67445714D02*
X69580057Y-67398095D01*
X69580057Y-67398095D02*
X69675295Y-67350476D01*
X69675295Y-67350476D02*
X69770533Y-67350476D01*
X69770533Y-67350476D02*
X69913390Y-67398095D01*
X69913390Y-67398095D02*
X70484819Y-67969523D01*
X70484819Y-67969523D02*
X70484819Y-67350476D01*
X41893333Y-76319580D02*
X41845714Y-76367200D01*
X41845714Y-76367200D02*
X41702857Y-76414819D01*
X41702857Y-76414819D02*
X41607619Y-76414819D01*
X41607619Y-76414819D02*
X41464762Y-76367200D01*
X41464762Y-76367200D02*
X41369524Y-76271961D01*
X41369524Y-76271961D02*
X41321905Y-76176723D01*
X41321905Y-76176723D02*
X41274286Y-75986247D01*
X41274286Y-75986247D02*
X41274286Y-75843390D01*
X41274286Y-75843390D02*
X41321905Y-75652914D01*
X41321905Y-75652914D02*
X41369524Y-75557676D01*
X41369524Y-75557676D02*
X41464762Y-75462438D01*
X41464762Y-75462438D02*
X41607619Y-75414819D01*
X41607619Y-75414819D02*
X41702857Y-75414819D01*
X41702857Y-75414819D02*
X41845714Y-75462438D01*
X41845714Y-75462438D02*
X41893333Y-75510057D01*
X42845714Y-76414819D02*
X42274286Y-76414819D01*
X42560000Y-76414819D02*
X42560000Y-75414819D01*
X42560000Y-75414819D02*
X42464762Y-75557676D01*
X42464762Y-75557676D02*
X42369524Y-75652914D01*
X42369524Y-75652914D02*
X42274286Y-75700533D01*
X40459580Y-66042857D02*
X40507200Y-66090476D01*
X40507200Y-66090476D02*
X40554819Y-66233333D01*
X40554819Y-66233333D02*
X40554819Y-66328571D01*
X40554819Y-66328571D02*
X40507200Y-66471428D01*
X40507200Y-66471428D02*
X40411961Y-66566666D01*
X40411961Y-66566666D02*
X40316723Y-66614285D01*
X40316723Y-66614285D02*
X40126247Y-66661904D01*
X40126247Y-66661904D02*
X39983390Y-66661904D01*
X39983390Y-66661904D02*
X39792914Y-66614285D01*
X39792914Y-66614285D02*
X39697676Y-66566666D01*
X39697676Y-66566666D02*
X39602438Y-66471428D01*
X39602438Y-66471428D02*
X39554819Y-66328571D01*
X39554819Y-66328571D02*
X39554819Y-66233333D01*
X39554819Y-66233333D02*
X39602438Y-66090476D01*
X39602438Y-66090476D02*
X39650057Y-66042857D01*
X40554819Y-65090476D02*
X40554819Y-65661904D01*
X40554819Y-65376190D02*
X39554819Y-65376190D01*
X39554819Y-65376190D02*
X39697676Y-65471428D01*
X39697676Y-65471428D02*
X39792914Y-65566666D01*
X39792914Y-65566666D02*
X39840533Y-65661904D01*
X39650057Y-64709523D02*
X39602438Y-64661904D01*
X39602438Y-64661904D02*
X39554819Y-64566666D01*
X39554819Y-64566666D02*
X39554819Y-64328571D01*
X39554819Y-64328571D02*
X39602438Y-64233333D01*
X39602438Y-64233333D02*
X39650057Y-64185714D01*
X39650057Y-64185714D02*
X39745295Y-64138095D01*
X39745295Y-64138095D02*
X39840533Y-64138095D01*
X39840533Y-64138095D02*
X39983390Y-64185714D01*
X39983390Y-64185714D02*
X40554819Y-64757142D01*
X40554819Y-64757142D02*
X40554819Y-64138095D01*
X50867142Y-54389580D02*
X50819523Y-54437200D01*
X50819523Y-54437200D02*
X50676666Y-54484819D01*
X50676666Y-54484819D02*
X50581428Y-54484819D01*
X50581428Y-54484819D02*
X50438571Y-54437200D01*
X50438571Y-54437200D02*
X50343333Y-54341961D01*
X50343333Y-54341961D02*
X50295714Y-54246723D01*
X50295714Y-54246723D02*
X50248095Y-54056247D01*
X50248095Y-54056247D02*
X50248095Y-53913390D01*
X50248095Y-53913390D02*
X50295714Y-53722914D01*
X50295714Y-53722914D02*
X50343333Y-53627676D01*
X50343333Y-53627676D02*
X50438571Y-53532438D01*
X50438571Y-53532438D02*
X50581428Y-53484819D01*
X50581428Y-53484819D02*
X50676666Y-53484819D01*
X50676666Y-53484819D02*
X50819523Y-53532438D01*
X50819523Y-53532438D02*
X50867142Y-53580057D01*
X51819523Y-54484819D02*
X51248095Y-54484819D01*
X51533809Y-54484819D02*
X51533809Y-53484819D01*
X51533809Y-53484819D02*
X51438571Y-53627676D01*
X51438571Y-53627676D02*
X51343333Y-53722914D01*
X51343333Y-53722914D02*
X51248095Y-53770533D01*
X52676666Y-53818152D02*
X52676666Y-54484819D01*
X52438571Y-53437200D02*
X52200476Y-54151485D01*
X52200476Y-54151485D02*
X52819523Y-54151485D01*
X33457142Y-60009580D02*
X33409523Y-60057200D01*
X33409523Y-60057200D02*
X33266666Y-60104819D01*
X33266666Y-60104819D02*
X33171428Y-60104819D01*
X33171428Y-60104819D02*
X33028571Y-60057200D01*
X33028571Y-60057200D02*
X32933333Y-59961961D01*
X32933333Y-59961961D02*
X32885714Y-59866723D01*
X32885714Y-59866723D02*
X32838095Y-59676247D01*
X32838095Y-59676247D02*
X32838095Y-59533390D01*
X32838095Y-59533390D02*
X32885714Y-59342914D01*
X32885714Y-59342914D02*
X32933333Y-59247676D01*
X32933333Y-59247676D02*
X33028571Y-59152438D01*
X33028571Y-59152438D02*
X33171428Y-59104819D01*
X33171428Y-59104819D02*
X33266666Y-59104819D01*
X33266666Y-59104819D02*
X33409523Y-59152438D01*
X33409523Y-59152438D02*
X33457142Y-59200057D01*
X34409523Y-60104819D02*
X33838095Y-60104819D01*
X34123809Y-60104819D02*
X34123809Y-59104819D01*
X34123809Y-59104819D02*
X34028571Y-59247676D01*
X34028571Y-59247676D02*
X33933333Y-59342914D01*
X33933333Y-59342914D02*
X33838095Y-59390533D01*
X35266666Y-59104819D02*
X35076190Y-59104819D01*
X35076190Y-59104819D02*
X34980952Y-59152438D01*
X34980952Y-59152438D02*
X34933333Y-59200057D01*
X34933333Y-59200057D02*
X34838095Y-59342914D01*
X34838095Y-59342914D02*
X34790476Y-59533390D01*
X34790476Y-59533390D02*
X34790476Y-59914342D01*
X34790476Y-59914342D02*
X34838095Y-60009580D01*
X34838095Y-60009580D02*
X34885714Y-60057200D01*
X34885714Y-60057200D02*
X34980952Y-60104819D01*
X34980952Y-60104819D02*
X35171428Y-60104819D01*
X35171428Y-60104819D02*
X35266666Y-60057200D01*
X35266666Y-60057200D02*
X35314285Y-60009580D01*
X35314285Y-60009580D02*
X35361904Y-59914342D01*
X35361904Y-59914342D02*
X35361904Y-59676247D01*
X35361904Y-59676247D02*
X35314285Y-59581009D01*
X35314285Y-59581009D02*
X35266666Y-59533390D01*
X35266666Y-59533390D02*
X35171428Y-59485771D01*
X35171428Y-59485771D02*
X34980952Y-59485771D01*
X34980952Y-59485771D02*
X34885714Y-59533390D01*
X34885714Y-59533390D02*
X34838095Y-59581009D01*
X34838095Y-59581009D02*
X34790476Y-59676247D01*
X33529580Y-47155357D02*
X33577200Y-47202976D01*
X33577200Y-47202976D02*
X33624819Y-47345833D01*
X33624819Y-47345833D02*
X33624819Y-47441071D01*
X33624819Y-47441071D02*
X33577200Y-47583928D01*
X33577200Y-47583928D02*
X33481961Y-47679166D01*
X33481961Y-47679166D02*
X33386723Y-47726785D01*
X33386723Y-47726785D02*
X33196247Y-47774404D01*
X33196247Y-47774404D02*
X33053390Y-47774404D01*
X33053390Y-47774404D02*
X32862914Y-47726785D01*
X32862914Y-47726785D02*
X32767676Y-47679166D01*
X32767676Y-47679166D02*
X32672438Y-47583928D01*
X32672438Y-47583928D02*
X32624819Y-47441071D01*
X32624819Y-47441071D02*
X32624819Y-47345833D01*
X32624819Y-47345833D02*
X32672438Y-47202976D01*
X32672438Y-47202976D02*
X32720057Y-47155357D01*
X32720057Y-46774404D02*
X32672438Y-46726785D01*
X32672438Y-46726785D02*
X32624819Y-46631547D01*
X32624819Y-46631547D02*
X32624819Y-46393452D01*
X32624819Y-46393452D02*
X32672438Y-46298214D01*
X32672438Y-46298214D02*
X32720057Y-46250595D01*
X32720057Y-46250595D02*
X32815295Y-46202976D01*
X32815295Y-46202976D02*
X32910533Y-46202976D01*
X32910533Y-46202976D02*
X33053390Y-46250595D01*
X33053390Y-46250595D02*
X33624819Y-46822023D01*
X33624819Y-46822023D02*
X33624819Y-46202976D01*
X32624819Y-45298214D02*
X32624819Y-45774404D01*
X32624819Y-45774404D02*
X33101009Y-45822023D01*
X33101009Y-45822023D02*
X33053390Y-45774404D01*
X33053390Y-45774404D02*
X33005771Y-45679166D01*
X33005771Y-45679166D02*
X33005771Y-45441071D01*
X33005771Y-45441071D02*
X33053390Y-45345833D01*
X33053390Y-45345833D02*
X33101009Y-45298214D01*
X33101009Y-45298214D02*
X33196247Y-45250595D01*
X33196247Y-45250595D02*
X33434342Y-45250595D01*
X33434342Y-45250595D02*
X33529580Y-45298214D01*
X33529580Y-45298214D02*
X33577200Y-45345833D01*
X33577200Y-45345833D02*
X33624819Y-45441071D01*
X33624819Y-45441071D02*
X33624819Y-45679166D01*
X33624819Y-45679166D02*
X33577200Y-45774404D01*
X33577200Y-45774404D02*
X33529580Y-45822023D01*
X36544642Y-53034819D02*
X36211309Y-52558628D01*
X35973214Y-53034819D02*
X35973214Y-52034819D01*
X35973214Y-52034819D02*
X36354166Y-52034819D01*
X36354166Y-52034819D02*
X36449404Y-52082438D01*
X36449404Y-52082438D02*
X36497023Y-52130057D01*
X36497023Y-52130057D02*
X36544642Y-52225295D01*
X36544642Y-52225295D02*
X36544642Y-52368152D01*
X36544642Y-52368152D02*
X36497023Y-52463390D01*
X36497023Y-52463390D02*
X36449404Y-52511009D01*
X36449404Y-52511009D02*
X36354166Y-52558628D01*
X36354166Y-52558628D02*
X35973214Y-52558628D01*
X37497023Y-53034819D02*
X36925595Y-53034819D01*
X37211309Y-53034819D02*
X37211309Y-52034819D01*
X37211309Y-52034819D02*
X37116071Y-52177676D01*
X37116071Y-52177676D02*
X37020833Y-52272914D01*
X37020833Y-52272914D02*
X36925595Y-52320533D01*
X37830357Y-52034819D02*
X38449404Y-52034819D01*
X38449404Y-52034819D02*
X38116071Y-52415771D01*
X38116071Y-52415771D02*
X38258928Y-52415771D01*
X38258928Y-52415771D02*
X38354166Y-52463390D01*
X38354166Y-52463390D02*
X38401785Y-52511009D01*
X38401785Y-52511009D02*
X38449404Y-52606247D01*
X38449404Y-52606247D02*
X38449404Y-52844342D01*
X38449404Y-52844342D02*
X38401785Y-52939580D01*
X38401785Y-52939580D02*
X38354166Y-52987200D01*
X38354166Y-52987200D02*
X38258928Y-53034819D01*
X38258928Y-53034819D02*
X37973214Y-53034819D01*
X37973214Y-53034819D02*
X37877976Y-52987200D01*
X37877976Y-52987200D02*
X37830357Y-52939580D01*
X55207142Y-65004819D02*
X54873809Y-64528628D01*
X54635714Y-65004819D02*
X54635714Y-64004819D01*
X54635714Y-64004819D02*
X55016666Y-64004819D01*
X55016666Y-64004819D02*
X55111904Y-64052438D01*
X55111904Y-64052438D02*
X55159523Y-64100057D01*
X55159523Y-64100057D02*
X55207142Y-64195295D01*
X55207142Y-64195295D02*
X55207142Y-64338152D01*
X55207142Y-64338152D02*
X55159523Y-64433390D01*
X55159523Y-64433390D02*
X55111904Y-64481009D01*
X55111904Y-64481009D02*
X55016666Y-64528628D01*
X55016666Y-64528628D02*
X54635714Y-64528628D01*
X56159523Y-65004819D02*
X55588095Y-65004819D01*
X55873809Y-65004819D02*
X55873809Y-64004819D01*
X55873809Y-64004819D02*
X55778571Y-64147676D01*
X55778571Y-64147676D02*
X55683333Y-64242914D01*
X55683333Y-64242914D02*
X55588095Y-64290533D01*
X57016666Y-64004819D02*
X56826190Y-64004819D01*
X56826190Y-64004819D02*
X56730952Y-64052438D01*
X56730952Y-64052438D02*
X56683333Y-64100057D01*
X56683333Y-64100057D02*
X56588095Y-64242914D01*
X56588095Y-64242914D02*
X56540476Y-64433390D01*
X56540476Y-64433390D02*
X56540476Y-64814342D01*
X56540476Y-64814342D02*
X56588095Y-64909580D01*
X56588095Y-64909580D02*
X56635714Y-64957200D01*
X56635714Y-64957200D02*
X56730952Y-65004819D01*
X56730952Y-65004819D02*
X56921428Y-65004819D01*
X56921428Y-65004819D02*
X57016666Y-64957200D01*
X57016666Y-64957200D02*
X57064285Y-64909580D01*
X57064285Y-64909580D02*
X57111904Y-64814342D01*
X57111904Y-64814342D02*
X57111904Y-64576247D01*
X57111904Y-64576247D02*
X57064285Y-64481009D01*
X57064285Y-64481009D02*
X57016666Y-64433390D01*
X57016666Y-64433390D02*
X56921428Y-64385771D01*
X56921428Y-64385771D02*
X56730952Y-64385771D01*
X56730952Y-64385771D02*
X56635714Y-64433390D01*
X56635714Y-64433390D02*
X56588095Y-64481009D01*
X56588095Y-64481009D02*
X56540476Y-64576247D01*
X69903333Y-74539580D02*
X69855714Y-74587200D01*
X69855714Y-74587200D02*
X69712857Y-74634819D01*
X69712857Y-74634819D02*
X69617619Y-74634819D01*
X69617619Y-74634819D02*
X69474762Y-74587200D01*
X69474762Y-74587200D02*
X69379524Y-74491961D01*
X69379524Y-74491961D02*
X69331905Y-74396723D01*
X69331905Y-74396723D02*
X69284286Y-74206247D01*
X69284286Y-74206247D02*
X69284286Y-74063390D01*
X69284286Y-74063390D02*
X69331905Y-73872914D01*
X69331905Y-73872914D02*
X69379524Y-73777676D01*
X69379524Y-73777676D02*
X69474762Y-73682438D01*
X69474762Y-73682438D02*
X69617619Y-73634819D01*
X69617619Y-73634819D02*
X69712857Y-73634819D01*
X69712857Y-73634819D02*
X69855714Y-73682438D01*
X69855714Y-73682438D02*
X69903333Y-73730057D01*
X70284286Y-73730057D02*
X70331905Y-73682438D01*
X70331905Y-73682438D02*
X70427143Y-73634819D01*
X70427143Y-73634819D02*
X70665238Y-73634819D01*
X70665238Y-73634819D02*
X70760476Y-73682438D01*
X70760476Y-73682438D02*
X70808095Y-73730057D01*
X70808095Y-73730057D02*
X70855714Y-73825295D01*
X70855714Y-73825295D02*
X70855714Y-73920533D01*
X70855714Y-73920533D02*
X70808095Y-74063390D01*
X70808095Y-74063390D02*
X70236667Y-74634819D01*
X70236667Y-74634819D02*
X70855714Y-74634819D01*
X44545833Y-67329580D02*
X44498214Y-67377200D01*
X44498214Y-67377200D02*
X44355357Y-67424819D01*
X44355357Y-67424819D02*
X44260119Y-67424819D01*
X44260119Y-67424819D02*
X44117262Y-67377200D01*
X44117262Y-67377200D02*
X44022024Y-67281961D01*
X44022024Y-67281961D02*
X43974405Y-67186723D01*
X43974405Y-67186723D02*
X43926786Y-66996247D01*
X43926786Y-66996247D02*
X43926786Y-66853390D01*
X43926786Y-66853390D02*
X43974405Y-66662914D01*
X43974405Y-66662914D02*
X44022024Y-66567676D01*
X44022024Y-66567676D02*
X44117262Y-66472438D01*
X44117262Y-66472438D02*
X44260119Y-66424819D01*
X44260119Y-66424819D02*
X44355357Y-66424819D01*
X44355357Y-66424819D02*
X44498214Y-66472438D01*
X44498214Y-66472438D02*
X44545833Y-66520057D01*
X45450595Y-66424819D02*
X44974405Y-66424819D01*
X44974405Y-66424819D02*
X44926786Y-66901009D01*
X44926786Y-66901009D02*
X44974405Y-66853390D01*
X44974405Y-66853390D02*
X45069643Y-66805771D01*
X45069643Y-66805771D02*
X45307738Y-66805771D01*
X45307738Y-66805771D02*
X45402976Y-66853390D01*
X45402976Y-66853390D02*
X45450595Y-66901009D01*
X45450595Y-66901009D02*
X45498214Y-66996247D01*
X45498214Y-66996247D02*
X45498214Y-67234342D01*
X45498214Y-67234342D02*
X45450595Y-67329580D01*
X45450595Y-67329580D02*
X45402976Y-67377200D01*
X45402976Y-67377200D02*
X45307738Y-67424819D01*
X45307738Y-67424819D02*
X45069643Y-67424819D01*
X45069643Y-67424819D02*
X44974405Y-67377200D01*
X44974405Y-67377200D02*
X44926786Y-67329580D01*
X56837142Y-46949580D02*
X56789523Y-46997200D01*
X56789523Y-46997200D02*
X56646666Y-47044819D01*
X56646666Y-47044819D02*
X56551428Y-47044819D01*
X56551428Y-47044819D02*
X56408571Y-46997200D01*
X56408571Y-46997200D02*
X56313333Y-46901961D01*
X56313333Y-46901961D02*
X56265714Y-46806723D01*
X56265714Y-46806723D02*
X56218095Y-46616247D01*
X56218095Y-46616247D02*
X56218095Y-46473390D01*
X56218095Y-46473390D02*
X56265714Y-46282914D01*
X56265714Y-46282914D02*
X56313333Y-46187676D01*
X56313333Y-46187676D02*
X56408571Y-46092438D01*
X56408571Y-46092438D02*
X56551428Y-46044819D01*
X56551428Y-46044819D02*
X56646666Y-46044819D01*
X56646666Y-46044819D02*
X56789523Y-46092438D01*
X56789523Y-46092438D02*
X56837142Y-46140057D01*
X57218095Y-46140057D02*
X57265714Y-46092438D01*
X57265714Y-46092438D02*
X57360952Y-46044819D01*
X57360952Y-46044819D02*
X57599047Y-46044819D01*
X57599047Y-46044819D02*
X57694285Y-46092438D01*
X57694285Y-46092438D02*
X57741904Y-46140057D01*
X57741904Y-46140057D02*
X57789523Y-46235295D01*
X57789523Y-46235295D02*
X57789523Y-46330533D01*
X57789523Y-46330533D02*
X57741904Y-46473390D01*
X57741904Y-46473390D02*
X57170476Y-47044819D01*
X57170476Y-47044819D02*
X57789523Y-47044819D01*
X58408571Y-46044819D02*
X58503809Y-46044819D01*
X58503809Y-46044819D02*
X58599047Y-46092438D01*
X58599047Y-46092438D02*
X58646666Y-46140057D01*
X58646666Y-46140057D02*
X58694285Y-46235295D01*
X58694285Y-46235295D02*
X58741904Y-46425771D01*
X58741904Y-46425771D02*
X58741904Y-46663866D01*
X58741904Y-46663866D02*
X58694285Y-46854342D01*
X58694285Y-46854342D02*
X58646666Y-46949580D01*
X58646666Y-46949580D02*
X58599047Y-46997200D01*
X58599047Y-46997200D02*
X58503809Y-47044819D01*
X58503809Y-47044819D02*
X58408571Y-47044819D01*
X58408571Y-47044819D02*
X58313333Y-46997200D01*
X58313333Y-46997200D02*
X58265714Y-46949580D01*
X58265714Y-46949580D02*
X58218095Y-46854342D01*
X58218095Y-46854342D02*
X58170476Y-46663866D01*
X58170476Y-46663866D02*
X58170476Y-46425771D01*
X58170476Y-46425771D02*
X58218095Y-46235295D01*
X58218095Y-46235295D02*
X58265714Y-46140057D01*
X58265714Y-46140057D02*
X58313333Y-46092438D01*
X58313333Y-46092438D02*
X58408571Y-46044819D01*
X43683333Y-55354819D02*
X43350000Y-54878628D01*
X43111905Y-55354819D02*
X43111905Y-54354819D01*
X43111905Y-54354819D02*
X43492857Y-54354819D01*
X43492857Y-54354819D02*
X43588095Y-54402438D01*
X43588095Y-54402438D02*
X43635714Y-54450057D01*
X43635714Y-54450057D02*
X43683333Y-54545295D01*
X43683333Y-54545295D02*
X43683333Y-54688152D01*
X43683333Y-54688152D02*
X43635714Y-54783390D01*
X43635714Y-54783390D02*
X43588095Y-54831009D01*
X43588095Y-54831009D02*
X43492857Y-54878628D01*
X43492857Y-54878628D02*
X43111905Y-54878628D01*
X44016667Y-54354819D02*
X44683333Y-54354819D01*
X44683333Y-54354819D02*
X44254762Y-55354819D01*
X64404819Y-65504166D02*
X63928628Y-65837499D01*
X64404819Y-66075594D02*
X63404819Y-66075594D01*
X63404819Y-66075594D02*
X63404819Y-65694642D01*
X63404819Y-65694642D02*
X63452438Y-65599404D01*
X63452438Y-65599404D02*
X63500057Y-65551785D01*
X63500057Y-65551785D02*
X63595295Y-65504166D01*
X63595295Y-65504166D02*
X63738152Y-65504166D01*
X63738152Y-65504166D02*
X63833390Y-65551785D01*
X63833390Y-65551785D02*
X63881009Y-65599404D01*
X63881009Y-65599404D02*
X63928628Y-65694642D01*
X63928628Y-65694642D02*
X63928628Y-66075594D01*
X63404819Y-64599404D02*
X63404819Y-65075594D01*
X63404819Y-65075594D02*
X63881009Y-65123213D01*
X63881009Y-65123213D02*
X63833390Y-65075594D01*
X63833390Y-65075594D02*
X63785771Y-64980356D01*
X63785771Y-64980356D02*
X63785771Y-64742261D01*
X63785771Y-64742261D02*
X63833390Y-64647023D01*
X63833390Y-64647023D02*
X63881009Y-64599404D01*
X63881009Y-64599404D02*
X63976247Y-64551785D01*
X63976247Y-64551785D02*
X64214342Y-64551785D01*
X64214342Y-64551785D02*
X64309580Y-64599404D01*
X64309580Y-64599404D02*
X64357200Y-64647023D01*
X64357200Y-64647023D02*
X64404819Y-64742261D01*
X64404819Y-64742261D02*
X64404819Y-64980356D01*
X64404819Y-64980356D02*
X64357200Y-65075594D01*
X64357200Y-65075594D02*
X64309580Y-65123213D01*
X56847142Y-45459580D02*
X56799523Y-45507200D01*
X56799523Y-45507200D02*
X56656666Y-45554819D01*
X56656666Y-45554819D02*
X56561428Y-45554819D01*
X56561428Y-45554819D02*
X56418571Y-45507200D01*
X56418571Y-45507200D02*
X56323333Y-45411961D01*
X56323333Y-45411961D02*
X56275714Y-45316723D01*
X56275714Y-45316723D02*
X56228095Y-45126247D01*
X56228095Y-45126247D02*
X56228095Y-44983390D01*
X56228095Y-44983390D02*
X56275714Y-44792914D01*
X56275714Y-44792914D02*
X56323333Y-44697676D01*
X56323333Y-44697676D02*
X56418571Y-44602438D01*
X56418571Y-44602438D02*
X56561428Y-44554819D01*
X56561428Y-44554819D02*
X56656666Y-44554819D01*
X56656666Y-44554819D02*
X56799523Y-44602438D01*
X56799523Y-44602438D02*
X56847142Y-44650057D01*
X57228095Y-44650057D02*
X57275714Y-44602438D01*
X57275714Y-44602438D02*
X57370952Y-44554819D01*
X57370952Y-44554819D02*
X57609047Y-44554819D01*
X57609047Y-44554819D02*
X57704285Y-44602438D01*
X57704285Y-44602438D02*
X57751904Y-44650057D01*
X57751904Y-44650057D02*
X57799523Y-44745295D01*
X57799523Y-44745295D02*
X57799523Y-44840533D01*
X57799523Y-44840533D02*
X57751904Y-44983390D01*
X57751904Y-44983390D02*
X57180476Y-45554819D01*
X57180476Y-45554819D02*
X57799523Y-45554819D01*
X58751904Y-45554819D02*
X58180476Y-45554819D01*
X58466190Y-45554819D02*
X58466190Y-44554819D01*
X58466190Y-44554819D02*
X58370952Y-44697676D01*
X58370952Y-44697676D02*
X58275714Y-44792914D01*
X58275714Y-44792914D02*
X58180476Y-44840533D01*
X39862142Y-40979580D02*
X39814523Y-41027200D01*
X39814523Y-41027200D02*
X39671666Y-41074819D01*
X39671666Y-41074819D02*
X39576428Y-41074819D01*
X39576428Y-41074819D02*
X39433571Y-41027200D01*
X39433571Y-41027200D02*
X39338333Y-40931961D01*
X39338333Y-40931961D02*
X39290714Y-40836723D01*
X39290714Y-40836723D02*
X39243095Y-40646247D01*
X39243095Y-40646247D02*
X39243095Y-40503390D01*
X39243095Y-40503390D02*
X39290714Y-40312914D01*
X39290714Y-40312914D02*
X39338333Y-40217676D01*
X39338333Y-40217676D02*
X39433571Y-40122438D01*
X39433571Y-40122438D02*
X39576428Y-40074819D01*
X39576428Y-40074819D02*
X39671666Y-40074819D01*
X39671666Y-40074819D02*
X39814523Y-40122438D01*
X39814523Y-40122438D02*
X39862142Y-40170057D01*
X40243095Y-40170057D02*
X40290714Y-40122438D01*
X40290714Y-40122438D02*
X40385952Y-40074819D01*
X40385952Y-40074819D02*
X40624047Y-40074819D01*
X40624047Y-40074819D02*
X40719285Y-40122438D01*
X40719285Y-40122438D02*
X40766904Y-40170057D01*
X40766904Y-40170057D02*
X40814523Y-40265295D01*
X40814523Y-40265295D02*
X40814523Y-40360533D01*
X40814523Y-40360533D02*
X40766904Y-40503390D01*
X40766904Y-40503390D02*
X40195476Y-41074819D01*
X40195476Y-41074819D02*
X40814523Y-41074819D01*
X41147857Y-40074819D02*
X41766904Y-40074819D01*
X41766904Y-40074819D02*
X41433571Y-40455771D01*
X41433571Y-40455771D02*
X41576428Y-40455771D01*
X41576428Y-40455771D02*
X41671666Y-40503390D01*
X41671666Y-40503390D02*
X41719285Y-40551009D01*
X41719285Y-40551009D02*
X41766904Y-40646247D01*
X41766904Y-40646247D02*
X41766904Y-40884342D01*
X41766904Y-40884342D02*
X41719285Y-40979580D01*
X41719285Y-40979580D02*
X41671666Y-41027200D01*
X41671666Y-41027200D02*
X41576428Y-41074819D01*
X41576428Y-41074819D02*
X41290714Y-41074819D01*
X41290714Y-41074819D02*
X41195476Y-41027200D01*
X41195476Y-41027200D02*
X41147857Y-40979580D01*
X49201009Y-71613333D02*
X49201009Y-71946666D01*
X49724819Y-71946666D02*
X48724819Y-71946666D01*
X48724819Y-71946666D02*
X48724819Y-71470476D01*
X49201009Y-70756190D02*
X49248628Y-70613333D01*
X49248628Y-70613333D02*
X49296247Y-70565714D01*
X49296247Y-70565714D02*
X49391485Y-70518095D01*
X49391485Y-70518095D02*
X49534342Y-70518095D01*
X49534342Y-70518095D02*
X49629580Y-70565714D01*
X49629580Y-70565714D02*
X49677200Y-70613333D01*
X49677200Y-70613333D02*
X49724819Y-70708571D01*
X49724819Y-70708571D02*
X49724819Y-71089523D01*
X49724819Y-71089523D02*
X48724819Y-71089523D01*
X48724819Y-71089523D02*
X48724819Y-70756190D01*
X48724819Y-70756190D02*
X48772438Y-70660952D01*
X48772438Y-70660952D02*
X48820057Y-70613333D01*
X48820057Y-70613333D02*
X48915295Y-70565714D01*
X48915295Y-70565714D02*
X49010533Y-70565714D01*
X49010533Y-70565714D02*
X49105771Y-70613333D01*
X49105771Y-70613333D02*
X49153390Y-70660952D01*
X49153390Y-70660952D02*
X49201009Y-70756190D01*
X49201009Y-70756190D02*
X49201009Y-71089523D01*
X49724819Y-69565714D02*
X49724819Y-70137142D01*
X49724819Y-69851428D02*
X48724819Y-69851428D01*
X48724819Y-69851428D02*
X48867676Y-69946666D01*
X48867676Y-69946666D02*
X48962914Y-70041904D01*
X48962914Y-70041904D02*
X49010533Y-70137142D01*
X58362142Y-59584580D02*
X58314523Y-59632200D01*
X58314523Y-59632200D02*
X58171666Y-59679819D01*
X58171666Y-59679819D02*
X58076428Y-59679819D01*
X58076428Y-59679819D02*
X57933571Y-59632200D01*
X57933571Y-59632200D02*
X57838333Y-59536961D01*
X57838333Y-59536961D02*
X57790714Y-59441723D01*
X57790714Y-59441723D02*
X57743095Y-59251247D01*
X57743095Y-59251247D02*
X57743095Y-59108390D01*
X57743095Y-59108390D02*
X57790714Y-58917914D01*
X57790714Y-58917914D02*
X57838333Y-58822676D01*
X57838333Y-58822676D02*
X57933571Y-58727438D01*
X57933571Y-58727438D02*
X58076428Y-58679819D01*
X58076428Y-58679819D02*
X58171666Y-58679819D01*
X58171666Y-58679819D02*
X58314523Y-58727438D01*
X58314523Y-58727438D02*
X58362142Y-58775057D01*
X59314523Y-59679819D02*
X58743095Y-59679819D01*
X59028809Y-59679819D02*
X59028809Y-58679819D01*
X59028809Y-58679819D02*
X58933571Y-58822676D01*
X58933571Y-58822676D02*
X58838333Y-58917914D01*
X58838333Y-58917914D02*
X58743095Y-58965533D01*
X59885952Y-59108390D02*
X59790714Y-59060771D01*
X59790714Y-59060771D02*
X59743095Y-59013152D01*
X59743095Y-59013152D02*
X59695476Y-58917914D01*
X59695476Y-58917914D02*
X59695476Y-58870295D01*
X59695476Y-58870295D02*
X59743095Y-58775057D01*
X59743095Y-58775057D02*
X59790714Y-58727438D01*
X59790714Y-58727438D02*
X59885952Y-58679819D01*
X59885952Y-58679819D02*
X60076428Y-58679819D01*
X60076428Y-58679819D02*
X60171666Y-58727438D01*
X60171666Y-58727438D02*
X60219285Y-58775057D01*
X60219285Y-58775057D02*
X60266904Y-58870295D01*
X60266904Y-58870295D02*
X60266904Y-58917914D01*
X60266904Y-58917914D02*
X60219285Y-59013152D01*
X60219285Y-59013152D02*
X60171666Y-59060771D01*
X60171666Y-59060771D02*
X60076428Y-59108390D01*
X60076428Y-59108390D02*
X59885952Y-59108390D01*
X59885952Y-59108390D02*
X59790714Y-59156009D01*
X59790714Y-59156009D02*
X59743095Y-59203628D01*
X59743095Y-59203628D02*
X59695476Y-59298866D01*
X59695476Y-59298866D02*
X59695476Y-59489342D01*
X59695476Y-59489342D02*
X59743095Y-59584580D01*
X59743095Y-59584580D02*
X59790714Y-59632200D01*
X59790714Y-59632200D02*
X59885952Y-59679819D01*
X59885952Y-59679819D02*
X60076428Y-59679819D01*
X60076428Y-59679819D02*
X60171666Y-59632200D01*
X60171666Y-59632200D02*
X60219285Y-59584580D01*
X60219285Y-59584580D02*
X60266904Y-59489342D01*
X60266904Y-59489342D02*
X60266904Y-59298866D01*
X60266904Y-59298866D02*
X60219285Y-59203628D01*
X60219285Y-59203628D02*
X60171666Y-59156009D01*
X60171666Y-59156009D02*
X60076428Y-59108390D01*
X33624819Y-57292857D02*
X33148628Y-57626190D01*
X33624819Y-57864285D02*
X32624819Y-57864285D01*
X32624819Y-57864285D02*
X32624819Y-57483333D01*
X32624819Y-57483333D02*
X32672438Y-57388095D01*
X32672438Y-57388095D02*
X32720057Y-57340476D01*
X32720057Y-57340476D02*
X32815295Y-57292857D01*
X32815295Y-57292857D02*
X32958152Y-57292857D01*
X32958152Y-57292857D02*
X33053390Y-57340476D01*
X33053390Y-57340476D02*
X33101009Y-57388095D01*
X33101009Y-57388095D02*
X33148628Y-57483333D01*
X33148628Y-57483333D02*
X33148628Y-57864285D01*
X33624819Y-56340476D02*
X33624819Y-56911904D01*
X33624819Y-56626190D02*
X32624819Y-56626190D01*
X32624819Y-56626190D02*
X32767676Y-56721428D01*
X32767676Y-56721428D02*
X32862914Y-56816666D01*
X32862914Y-56816666D02*
X32910533Y-56911904D01*
X32624819Y-55435714D02*
X32624819Y-55911904D01*
X32624819Y-55911904D02*
X33101009Y-55959523D01*
X33101009Y-55959523D02*
X33053390Y-55911904D01*
X33053390Y-55911904D02*
X33005771Y-55816666D01*
X33005771Y-55816666D02*
X33005771Y-55578571D01*
X33005771Y-55578571D02*
X33053390Y-55483333D01*
X33053390Y-55483333D02*
X33101009Y-55435714D01*
X33101009Y-55435714D02*
X33196247Y-55388095D01*
X33196247Y-55388095D02*
X33434342Y-55388095D01*
X33434342Y-55388095D02*
X33529580Y-55435714D01*
X33529580Y-55435714D02*
X33577200Y-55483333D01*
X33577200Y-55483333D02*
X33624819Y-55578571D01*
X33624819Y-55578571D02*
X33624819Y-55816666D01*
X33624819Y-55816666D02*
X33577200Y-55911904D01*
X33577200Y-55911904D02*
X33529580Y-55959523D01*
X63269166Y-45091009D02*
X62935833Y-45091009D01*
X62935833Y-45614819D02*
X62935833Y-44614819D01*
X62935833Y-44614819D02*
X63412023Y-44614819D01*
X64126309Y-45091009D02*
X64269166Y-45138628D01*
X64269166Y-45138628D02*
X64316785Y-45186247D01*
X64316785Y-45186247D02*
X64364404Y-45281485D01*
X64364404Y-45281485D02*
X64364404Y-45424342D01*
X64364404Y-45424342D02*
X64316785Y-45519580D01*
X64316785Y-45519580D02*
X64269166Y-45567200D01*
X64269166Y-45567200D02*
X64173928Y-45614819D01*
X64173928Y-45614819D02*
X63792976Y-45614819D01*
X63792976Y-45614819D02*
X63792976Y-44614819D01*
X63792976Y-44614819D02*
X64126309Y-44614819D01*
X64126309Y-44614819D02*
X64221547Y-44662438D01*
X64221547Y-44662438D02*
X64269166Y-44710057D01*
X64269166Y-44710057D02*
X64316785Y-44805295D01*
X64316785Y-44805295D02*
X64316785Y-44900533D01*
X64316785Y-44900533D02*
X64269166Y-44995771D01*
X64269166Y-44995771D02*
X64221547Y-45043390D01*
X64221547Y-45043390D02*
X64126309Y-45091009D01*
X64126309Y-45091009D02*
X63792976Y-45091009D01*
X65221547Y-44948152D02*
X65221547Y-45614819D01*
X64983452Y-44567200D02*
X64745357Y-45281485D01*
X64745357Y-45281485D02*
X65364404Y-45281485D01*
X33624819Y-50792857D02*
X33148628Y-51126190D01*
X33624819Y-51364285D02*
X32624819Y-51364285D01*
X32624819Y-51364285D02*
X32624819Y-50983333D01*
X32624819Y-50983333D02*
X32672438Y-50888095D01*
X32672438Y-50888095D02*
X32720057Y-50840476D01*
X32720057Y-50840476D02*
X32815295Y-50792857D01*
X32815295Y-50792857D02*
X32958152Y-50792857D01*
X32958152Y-50792857D02*
X33053390Y-50840476D01*
X33053390Y-50840476D02*
X33101009Y-50888095D01*
X33101009Y-50888095D02*
X33148628Y-50983333D01*
X33148628Y-50983333D02*
X33148628Y-51364285D01*
X33624819Y-49840476D02*
X33624819Y-50411904D01*
X33624819Y-50126190D02*
X32624819Y-50126190D01*
X32624819Y-50126190D02*
X32767676Y-50221428D01*
X32767676Y-50221428D02*
X32862914Y-50316666D01*
X32862914Y-50316666D02*
X32910533Y-50411904D01*
X32958152Y-48983333D02*
X33624819Y-48983333D01*
X32577200Y-49221428D02*
X33291485Y-49459523D01*
X33291485Y-49459523D02*
X33291485Y-48840476D01*
X61749642Y-53274819D02*
X61416309Y-52798628D01*
X61178214Y-53274819D02*
X61178214Y-52274819D01*
X61178214Y-52274819D02*
X61559166Y-52274819D01*
X61559166Y-52274819D02*
X61654404Y-52322438D01*
X61654404Y-52322438D02*
X61702023Y-52370057D01*
X61702023Y-52370057D02*
X61749642Y-52465295D01*
X61749642Y-52465295D02*
X61749642Y-52608152D01*
X61749642Y-52608152D02*
X61702023Y-52703390D01*
X61702023Y-52703390D02*
X61654404Y-52751009D01*
X61654404Y-52751009D02*
X61559166Y-52798628D01*
X61559166Y-52798628D02*
X61178214Y-52798628D01*
X62702023Y-53274819D02*
X62130595Y-53274819D01*
X62416309Y-53274819D02*
X62416309Y-52274819D01*
X62416309Y-52274819D02*
X62321071Y-52417676D01*
X62321071Y-52417676D02*
X62225833Y-52512914D01*
X62225833Y-52512914D02*
X62130595Y-52560533D01*
X63321071Y-52274819D02*
X63416309Y-52274819D01*
X63416309Y-52274819D02*
X63511547Y-52322438D01*
X63511547Y-52322438D02*
X63559166Y-52370057D01*
X63559166Y-52370057D02*
X63606785Y-52465295D01*
X63606785Y-52465295D02*
X63654404Y-52655771D01*
X63654404Y-52655771D02*
X63654404Y-52893866D01*
X63654404Y-52893866D02*
X63606785Y-53084342D01*
X63606785Y-53084342D02*
X63559166Y-53179580D01*
X63559166Y-53179580D02*
X63511547Y-53227200D01*
X63511547Y-53227200D02*
X63416309Y-53274819D01*
X63416309Y-53274819D02*
X63321071Y-53274819D01*
X63321071Y-53274819D02*
X63225833Y-53227200D01*
X63225833Y-53227200D02*
X63178214Y-53179580D01*
X63178214Y-53179580D02*
X63130595Y-53084342D01*
X63130595Y-53084342D02*
X63082976Y-52893866D01*
X63082976Y-52893866D02*
X63082976Y-52655771D01*
X63082976Y-52655771D02*
X63130595Y-52465295D01*
X63130595Y-52465295D02*
X63178214Y-52370057D01*
X63178214Y-52370057D02*
X63225833Y-52322438D01*
X63225833Y-52322438D02*
X63321071Y-52274819D01*
X46376666Y-42111009D02*
X46043333Y-42111009D01*
X46043333Y-42634819D02*
X46043333Y-41634819D01*
X46043333Y-41634819D02*
X46519523Y-41634819D01*
X47233809Y-42111009D02*
X47376666Y-42158628D01*
X47376666Y-42158628D02*
X47424285Y-42206247D01*
X47424285Y-42206247D02*
X47471904Y-42301485D01*
X47471904Y-42301485D02*
X47471904Y-42444342D01*
X47471904Y-42444342D02*
X47424285Y-42539580D01*
X47424285Y-42539580D02*
X47376666Y-42587200D01*
X47376666Y-42587200D02*
X47281428Y-42634819D01*
X47281428Y-42634819D02*
X46900476Y-42634819D01*
X46900476Y-42634819D02*
X46900476Y-41634819D01*
X46900476Y-41634819D02*
X47233809Y-41634819D01*
X47233809Y-41634819D02*
X47329047Y-41682438D01*
X47329047Y-41682438D02*
X47376666Y-41730057D01*
X47376666Y-41730057D02*
X47424285Y-41825295D01*
X47424285Y-41825295D02*
X47424285Y-41920533D01*
X47424285Y-41920533D02*
X47376666Y-42015771D01*
X47376666Y-42015771D02*
X47329047Y-42063390D01*
X47329047Y-42063390D02*
X47233809Y-42111009D01*
X47233809Y-42111009D02*
X46900476Y-42111009D01*
X48376666Y-41634819D02*
X47900476Y-41634819D01*
X47900476Y-41634819D02*
X47852857Y-42111009D01*
X47852857Y-42111009D02*
X47900476Y-42063390D01*
X47900476Y-42063390D02*
X47995714Y-42015771D01*
X47995714Y-42015771D02*
X48233809Y-42015771D01*
X48233809Y-42015771D02*
X48329047Y-42063390D01*
X48329047Y-42063390D02*
X48376666Y-42111009D01*
X48376666Y-42111009D02*
X48424285Y-42206247D01*
X48424285Y-42206247D02*
X48424285Y-42444342D01*
X48424285Y-42444342D02*
X48376666Y-42539580D01*
X48376666Y-42539580D02*
X48329047Y-42587200D01*
X48329047Y-42587200D02*
X48233809Y-42634819D01*
X48233809Y-42634819D02*
X47995714Y-42634819D01*
X47995714Y-42634819D02*
X47900476Y-42587200D01*
X47900476Y-42587200D02*
X47852857Y-42539580D01*
X44338095Y-58104819D02*
X44338095Y-58914342D01*
X44338095Y-58914342D02*
X44385714Y-59009580D01*
X44385714Y-59009580D02*
X44433333Y-59057200D01*
X44433333Y-59057200D02*
X44528571Y-59104819D01*
X44528571Y-59104819D02*
X44719047Y-59104819D01*
X44719047Y-59104819D02*
X44814285Y-59057200D01*
X44814285Y-59057200D02*
X44861904Y-59009580D01*
X44861904Y-59009580D02*
X44909523Y-58914342D01*
X44909523Y-58914342D02*
X44909523Y-58104819D01*
X45814285Y-58438152D02*
X45814285Y-59104819D01*
X45576190Y-58057200D02*
X45338095Y-58771485D01*
X45338095Y-58771485D02*
X45957142Y-58771485D01*
D11*
X59379047Y-47724809D02*
X59379047Y-48129571D01*
X59379047Y-48129571D02*
X59402857Y-48177190D01*
X59402857Y-48177190D02*
X59426666Y-48201000D01*
X59426666Y-48201000D02*
X59474285Y-48224809D01*
X59474285Y-48224809D02*
X59569523Y-48224809D01*
X59569523Y-48224809D02*
X59617142Y-48201000D01*
X59617142Y-48201000D02*
X59640952Y-48177190D01*
X59640952Y-48177190D02*
X59664761Y-48129571D01*
X59664761Y-48129571D02*
X59664761Y-47724809D01*
X60140952Y-47724809D02*
X59902857Y-47724809D01*
X59902857Y-47724809D02*
X59879048Y-47962904D01*
X59879048Y-47962904D02*
X59902857Y-47939095D01*
X59902857Y-47939095D02*
X59950476Y-47915285D01*
X59950476Y-47915285D02*
X60069524Y-47915285D01*
X60069524Y-47915285D02*
X60117143Y-47939095D01*
X60117143Y-47939095D02*
X60140952Y-47962904D01*
X60140952Y-47962904D02*
X60164762Y-48010523D01*
X60164762Y-48010523D02*
X60164762Y-48129571D01*
X60164762Y-48129571D02*
X60140952Y-48177190D01*
X60140952Y-48177190D02*
X60117143Y-48201000D01*
X60117143Y-48201000D02*
X60069524Y-48224809D01*
X60069524Y-48224809D02*
X59950476Y-48224809D01*
X59950476Y-48224809D02*
X59902857Y-48201000D01*
X59902857Y-48201000D02*
X59879048Y-48177190D01*
D10*
X44613333Y-66264819D02*
X44280000Y-65788628D01*
X44041905Y-66264819D02*
X44041905Y-65264819D01*
X44041905Y-65264819D02*
X44422857Y-65264819D01*
X44422857Y-65264819D02*
X44518095Y-65312438D01*
X44518095Y-65312438D02*
X44565714Y-65360057D01*
X44565714Y-65360057D02*
X44613333Y-65455295D01*
X44613333Y-65455295D02*
X44613333Y-65598152D01*
X44613333Y-65598152D02*
X44565714Y-65693390D01*
X44565714Y-65693390D02*
X44518095Y-65741009D01*
X44518095Y-65741009D02*
X44422857Y-65788628D01*
X44422857Y-65788628D02*
X44041905Y-65788628D01*
X45470476Y-65598152D02*
X45470476Y-66264819D01*
X45232381Y-65217200D02*
X44994286Y-65931485D01*
X44994286Y-65931485D02*
X45613333Y-65931485D01*
X51303333Y-58899580D02*
X51255714Y-58947200D01*
X51255714Y-58947200D02*
X51112857Y-58994819D01*
X51112857Y-58994819D02*
X51017619Y-58994819D01*
X51017619Y-58994819D02*
X50874762Y-58947200D01*
X50874762Y-58947200D02*
X50779524Y-58851961D01*
X50779524Y-58851961D02*
X50731905Y-58756723D01*
X50731905Y-58756723D02*
X50684286Y-58566247D01*
X50684286Y-58566247D02*
X50684286Y-58423390D01*
X50684286Y-58423390D02*
X50731905Y-58232914D01*
X50731905Y-58232914D02*
X50779524Y-58137676D01*
X50779524Y-58137676D02*
X50874762Y-58042438D01*
X50874762Y-58042438D02*
X51017619Y-57994819D01*
X51017619Y-57994819D02*
X51112857Y-57994819D01*
X51112857Y-57994819D02*
X51255714Y-58042438D01*
X51255714Y-58042438D02*
X51303333Y-58090057D01*
X51779524Y-58994819D02*
X51970000Y-58994819D01*
X51970000Y-58994819D02*
X52065238Y-58947200D01*
X52065238Y-58947200D02*
X52112857Y-58899580D01*
X52112857Y-58899580D02*
X52208095Y-58756723D01*
X52208095Y-58756723D02*
X52255714Y-58566247D01*
X52255714Y-58566247D02*
X52255714Y-58185295D01*
X52255714Y-58185295D02*
X52208095Y-58090057D01*
X52208095Y-58090057D02*
X52160476Y-58042438D01*
X52160476Y-58042438D02*
X52065238Y-57994819D01*
X52065238Y-57994819D02*
X51874762Y-57994819D01*
X51874762Y-57994819D02*
X51779524Y-58042438D01*
X51779524Y-58042438D02*
X51731905Y-58090057D01*
X51731905Y-58090057D02*
X51684286Y-58185295D01*
X51684286Y-58185295D02*
X51684286Y-58423390D01*
X51684286Y-58423390D02*
X51731905Y-58518628D01*
X51731905Y-58518628D02*
X51779524Y-58566247D01*
X51779524Y-58566247D02*
X51874762Y-58613866D01*
X51874762Y-58613866D02*
X52065238Y-58613866D01*
X52065238Y-58613866D02*
X52160476Y-58566247D01*
X52160476Y-58566247D02*
X52208095Y-58518628D01*
X52208095Y-58518628D02*
X52255714Y-58423390D01*
X35933333Y-64854819D02*
X35600000Y-64378628D01*
X35361905Y-64854819D02*
X35361905Y-63854819D01*
X35361905Y-63854819D02*
X35742857Y-63854819D01*
X35742857Y-63854819D02*
X35838095Y-63902438D01*
X35838095Y-63902438D02*
X35885714Y-63950057D01*
X35885714Y-63950057D02*
X35933333Y-64045295D01*
X35933333Y-64045295D02*
X35933333Y-64188152D01*
X35933333Y-64188152D02*
X35885714Y-64283390D01*
X35885714Y-64283390D02*
X35838095Y-64331009D01*
X35838095Y-64331009D02*
X35742857Y-64378628D01*
X35742857Y-64378628D02*
X35361905Y-64378628D01*
X36266667Y-63854819D02*
X36885714Y-63854819D01*
X36885714Y-63854819D02*
X36552381Y-64235771D01*
X36552381Y-64235771D02*
X36695238Y-64235771D01*
X36695238Y-64235771D02*
X36790476Y-64283390D01*
X36790476Y-64283390D02*
X36838095Y-64331009D01*
X36838095Y-64331009D02*
X36885714Y-64426247D01*
X36885714Y-64426247D02*
X36885714Y-64664342D01*
X36885714Y-64664342D02*
X36838095Y-64759580D01*
X36838095Y-64759580D02*
X36790476Y-64807200D01*
X36790476Y-64807200D02*
X36695238Y-64854819D01*
X36695238Y-64854819D02*
X36409524Y-64854819D01*
X36409524Y-64854819D02*
X36314286Y-64807200D01*
X36314286Y-64807200D02*
X36266667Y-64759580D01*
X39887142Y-42559580D02*
X39839523Y-42607200D01*
X39839523Y-42607200D02*
X39696666Y-42654819D01*
X39696666Y-42654819D02*
X39601428Y-42654819D01*
X39601428Y-42654819D02*
X39458571Y-42607200D01*
X39458571Y-42607200D02*
X39363333Y-42511961D01*
X39363333Y-42511961D02*
X39315714Y-42416723D01*
X39315714Y-42416723D02*
X39268095Y-42226247D01*
X39268095Y-42226247D02*
X39268095Y-42083390D01*
X39268095Y-42083390D02*
X39315714Y-41892914D01*
X39315714Y-41892914D02*
X39363333Y-41797676D01*
X39363333Y-41797676D02*
X39458571Y-41702438D01*
X39458571Y-41702438D02*
X39601428Y-41654819D01*
X39601428Y-41654819D02*
X39696666Y-41654819D01*
X39696666Y-41654819D02*
X39839523Y-41702438D01*
X39839523Y-41702438D02*
X39887142Y-41750057D01*
X40268095Y-41750057D02*
X40315714Y-41702438D01*
X40315714Y-41702438D02*
X40410952Y-41654819D01*
X40410952Y-41654819D02*
X40649047Y-41654819D01*
X40649047Y-41654819D02*
X40744285Y-41702438D01*
X40744285Y-41702438D02*
X40791904Y-41750057D01*
X40791904Y-41750057D02*
X40839523Y-41845295D01*
X40839523Y-41845295D02*
X40839523Y-41940533D01*
X40839523Y-41940533D02*
X40791904Y-42083390D01*
X40791904Y-42083390D02*
X40220476Y-42654819D01*
X40220476Y-42654819D02*
X40839523Y-42654819D01*
X41220476Y-41750057D02*
X41268095Y-41702438D01*
X41268095Y-41702438D02*
X41363333Y-41654819D01*
X41363333Y-41654819D02*
X41601428Y-41654819D01*
X41601428Y-41654819D02*
X41696666Y-41702438D01*
X41696666Y-41702438D02*
X41744285Y-41750057D01*
X41744285Y-41750057D02*
X41791904Y-41845295D01*
X41791904Y-41845295D02*
X41791904Y-41940533D01*
X41791904Y-41940533D02*
X41744285Y-42083390D01*
X41744285Y-42083390D02*
X41172857Y-42654819D01*
X41172857Y-42654819D02*
X41791904Y-42654819D01*
X69288095Y-50924819D02*
X69288095Y-51734342D01*
X69288095Y-51734342D02*
X69335714Y-51829580D01*
X69335714Y-51829580D02*
X69383333Y-51877200D01*
X69383333Y-51877200D02*
X69478571Y-51924819D01*
X69478571Y-51924819D02*
X69669047Y-51924819D01*
X69669047Y-51924819D02*
X69764285Y-51877200D01*
X69764285Y-51877200D02*
X69811904Y-51829580D01*
X69811904Y-51829580D02*
X69859523Y-51734342D01*
X69859523Y-51734342D02*
X69859523Y-50924819D01*
X70240476Y-50924819D02*
X70859523Y-50924819D01*
X70859523Y-50924819D02*
X70526190Y-51305771D01*
X70526190Y-51305771D02*
X70669047Y-51305771D01*
X70669047Y-51305771D02*
X70764285Y-51353390D01*
X70764285Y-51353390D02*
X70811904Y-51401009D01*
X70811904Y-51401009D02*
X70859523Y-51496247D01*
X70859523Y-51496247D02*
X70859523Y-51734342D01*
X70859523Y-51734342D02*
X70811904Y-51829580D01*
X70811904Y-51829580D02*
X70764285Y-51877200D01*
X70764285Y-51877200D02*
X70669047Y-51924819D01*
X70669047Y-51924819D02*
X70383333Y-51924819D01*
X70383333Y-51924819D02*
X70288095Y-51877200D01*
X70288095Y-51877200D02*
X70240476Y-51829580D01*
X61747142Y-57569580D02*
X61699523Y-57617200D01*
X61699523Y-57617200D02*
X61556666Y-57664819D01*
X61556666Y-57664819D02*
X61461428Y-57664819D01*
X61461428Y-57664819D02*
X61318571Y-57617200D01*
X61318571Y-57617200D02*
X61223333Y-57521961D01*
X61223333Y-57521961D02*
X61175714Y-57426723D01*
X61175714Y-57426723D02*
X61128095Y-57236247D01*
X61128095Y-57236247D02*
X61128095Y-57093390D01*
X61128095Y-57093390D02*
X61175714Y-56902914D01*
X61175714Y-56902914D02*
X61223333Y-56807676D01*
X61223333Y-56807676D02*
X61318571Y-56712438D01*
X61318571Y-56712438D02*
X61461428Y-56664819D01*
X61461428Y-56664819D02*
X61556666Y-56664819D01*
X61556666Y-56664819D02*
X61699523Y-56712438D01*
X61699523Y-56712438D02*
X61747142Y-56760057D01*
X62699523Y-57664819D02*
X62128095Y-57664819D01*
X62413809Y-57664819D02*
X62413809Y-56664819D01*
X62413809Y-56664819D02*
X62318571Y-56807676D01*
X62318571Y-56807676D02*
X62223333Y-56902914D01*
X62223333Y-56902914D02*
X62128095Y-56950533D01*
X63175714Y-57664819D02*
X63366190Y-57664819D01*
X63366190Y-57664819D02*
X63461428Y-57617200D01*
X63461428Y-57617200D02*
X63509047Y-57569580D01*
X63509047Y-57569580D02*
X63604285Y-57426723D01*
X63604285Y-57426723D02*
X63651904Y-57236247D01*
X63651904Y-57236247D02*
X63651904Y-56855295D01*
X63651904Y-56855295D02*
X63604285Y-56760057D01*
X63604285Y-56760057D02*
X63556666Y-56712438D01*
X63556666Y-56712438D02*
X63461428Y-56664819D01*
X63461428Y-56664819D02*
X63270952Y-56664819D01*
X63270952Y-56664819D02*
X63175714Y-56712438D01*
X63175714Y-56712438D02*
X63128095Y-56760057D01*
X63128095Y-56760057D02*
X63080476Y-56855295D01*
X63080476Y-56855295D02*
X63080476Y-57093390D01*
X63080476Y-57093390D02*
X63128095Y-57188628D01*
X63128095Y-57188628D02*
X63175714Y-57236247D01*
X63175714Y-57236247D02*
X63270952Y-57283866D01*
X63270952Y-57283866D02*
X63461428Y-57283866D01*
X63461428Y-57283866D02*
X63556666Y-57236247D01*
X63556666Y-57236247D02*
X63604285Y-57188628D01*
X63604285Y-57188628D02*
X63651904Y-57093390D01*
X37266666Y-44767319D02*
X37266666Y-45481604D01*
X37266666Y-45481604D02*
X37219047Y-45624461D01*
X37219047Y-45624461D02*
X37123809Y-45719700D01*
X37123809Y-45719700D02*
X36980952Y-45767319D01*
X36980952Y-45767319D02*
X36885714Y-45767319D01*
X37695238Y-44862557D02*
X37742857Y-44814938D01*
X37742857Y-44814938D02*
X37838095Y-44767319D01*
X37838095Y-44767319D02*
X38076190Y-44767319D01*
X38076190Y-44767319D02*
X38171428Y-44814938D01*
X38171428Y-44814938D02*
X38219047Y-44862557D01*
X38219047Y-44862557D02*
X38266666Y-44957795D01*
X38266666Y-44957795D02*
X38266666Y-45053033D01*
X38266666Y-45053033D02*
X38219047Y-45195890D01*
X38219047Y-45195890D02*
X37647619Y-45767319D01*
X37647619Y-45767319D02*
X38266666Y-45767319D01*
X56637142Y-53209580D02*
X56589523Y-53257200D01*
X56589523Y-53257200D02*
X56446666Y-53304819D01*
X56446666Y-53304819D02*
X56351428Y-53304819D01*
X56351428Y-53304819D02*
X56208571Y-53257200D01*
X56208571Y-53257200D02*
X56113333Y-53161961D01*
X56113333Y-53161961D02*
X56065714Y-53066723D01*
X56065714Y-53066723D02*
X56018095Y-52876247D01*
X56018095Y-52876247D02*
X56018095Y-52733390D01*
X56018095Y-52733390D02*
X56065714Y-52542914D01*
X56065714Y-52542914D02*
X56113333Y-52447676D01*
X56113333Y-52447676D02*
X56208571Y-52352438D01*
X56208571Y-52352438D02*
X56351428Y-52304819D01*
X56351428Y-52304819D02*
X56446666Y-52304819D01*
X56446666Y-52304819D02*
X56589523Y-52352438D01*
X56589523Y-52352438D02*
X56637142Y-52400057D01*
X57589523Y-53304819D02*
X57018095Y-53304819D01*
X57303809Y-53304819D02*
X57303809Y-52304819D01*
X57303809Y-52304819D02*
X57208571Y-52447676D01*
X57208571Y-52447676D02*
X57113333Y-52542914D01*
X57113333Y-52542914D02*
X57018095Y-52590533D01*
X57922857Y-52304819D02*
X58589523Y-52304819D01*
X58589523Y-52304819D02*
X58160952Y-53304819D01*
X38459580Y-66042857D02*
X38507200Y-66090476D01*
X38507200Y-66090476D02*
X38554819Y-66233333D01*
X38554819Y-66233333D02*
X38554819Y-66328571D01*
X38554819Y-66328571D02*
X38507200Y-66471428D01*
X38507200Y-66471428D02*
X38411961Y-66566666D01*
X38411961Y-66566666D02*
X38316723Y-66614285D01*
X38316723Y-66614285D02*
X38126247Y-66661904D01*
X38126247Y-66661904D02*
X37983390Y-66661904D01*
X37983390Y-66661904D02*
X37792914Y-66614285D01*
X37792914Y-66614285D02*
X37697676Y-66566666D01*
X37697676Y-66566666D02*
X37602438Y-66471428D01*
X37602438Y-66471428D02*
X37554819Y-66328571D01*
X37554819Y-66328571D02*
X37554819Y-66233333D01*
X37554819Y-66233333D02*
X37602438Y-66090476D01*
X37602438Y-66090476D02*
X37650057Y-66042857D01*
X38554819Y-65090476D02*
X38554819Y-65661904D01*
X38554819Y-65376190D02*
X37554819Y-65376190D01*
X37554819Y-65376190D02*
X37697676Y-65471428D01*
X37697676Y-65471428D02*
X37792914Y-65566666D01*
X37792914Y-65566666D02*
X37840533Y-65661904D01*
X38554819Y-64138095D02*
X38554819Y-64709523D01*
X38554819Y-64423809D02*
X37554819Y-64423809D01*
X37554819Y-64423809D02*
X37697676Y-64519047D01*
X37697676Y-64519047D02*
X37792914Y-64614285D01*
X37792914Y-64614285D02*
X37840533Y-64709523D01*
X74209580Y-53024166D02*
X74257200Y-53071785D01*
X74257200Y-53071785D02*
X74304819Y-53214642D01*
X74304819Y-53214642D02*
X74304819Y-53309880D01*
X74304819Y-53309880D02*
X74257200Y-53452737D01*
X74257200Y-53452737D02*
X74161961Y-53547975D01*
X74161961Y-53547975D02*
X74066723Y-53595594D01*
X74066723Y-53595594D02*
X73876247Y-53643213D01*
X73876247Y-53643213D02*
X73733390Y-53643213D01*
X73733390Y-53643213D02*
X73542914Y-53595594D01*
X73542914Y-53595594D02*
X73447676Y-53547975D01*
X73447676Y-53547975D02*
X73352438Y-53452737D01*
X73352438Y-53452737D02*
X73304819Y-53309880D01*
X73304819Y-53309880D02*
X73304819Y-53214642D01*
X73304819Y-53214642D02*
X73352438Y-53071785D01*
X73352438Y-53071785D02*
X73400057Y-53024166D01*
X73304819Y-52690832D02*
X73304819Y-52024166D01*
X73304819Y-52024166D02*
X74304819Y-52452737D01*
X50413333Y-80184819D02*
X50080000Y-79708628D01*
X49841905Y-80184819D02*
X49841905Y-79184819D01*
X49841905Y-79184819D02*
X50222857Y-79184819D01*
X50222857Y-79184819D02*
X50318095Y-79232438D01*
X50318095Y-79232438D02*
X50365714Y-79280057D01*
X50365714Y-79280057D02*
X50413333Y-79375295D01*
X50413333Y-79375295D02*
X50413333Y-79518152D01*
X50413333Y-79518152D02*
X50365714Y-79613390D01*
X50365714Y-79613390D02*
X50318095Y-79661009D01*
X50318095Y-79661009D02*
X50222857Y-79708628D01*
X50222857Y-79708628D02*
X49841905Y-79708628D01*
X51365714Y-80184819D02*
X50794286Y-80184819D01*
X51080000Y-80184819D02*
X51080000Y-79184819D01*
X51080000Y-79184819D02*
X50984762Y-79327676D01*
X50984762Y-79327676D02*
X50889524Y-79422914D01*
X50889524Y-79422914D02*
X50794286Y-79470533D01*
X41923333Y-66399580D02*
X41875714Y-66447200D01*
X41875714Y-66447200D02*
X41732857Y-66494819D01*
X41732857Y-66494819D02*
X41637619Y-66494819D01*
X41637619Y-66494819D02*
X41494762Y-66447200D01*
X41494762Y-66447200D02*
X41399524Y-66351961D01*
X41399524Y-66351961D02*
X41351905Y-66256723D01*
X41351905Y-66256723D02*
X41304286Y-66066247D01*
X41304286Y-66066247D02*
X41304286Y-65923390D01*
X41304286Y-65923390D02*
X41351905Y-65732914D01*
X41351905Y-65732914D02*
X41399524Y-65637676D01*
X41399524Y-65637676D02*
X41494762Y-65542438D01*
X41494762Y-65542438D02*
X41637619Y-65494819D01*
X41637619Y-65494819D02*
X41732857Y-65494819D01*
X41732857Y-65494819D02*
X41875714Y-65542438D01*
X41875714Y-65542438D02*
X41923333Y-65590057D01*
X42494762Y-65923390D02*
X42399524Y-65875771D01*
X42399524Y-65875771D02*
X42351905Y-65828152D01*
X42351905Y-65828152D02*
X42304286Y-65732914D01*
X42304286Y-65732914D02*
X42304286Y-65685295D01*
X42304286Y-65685295D02*
X42351905Y-65590057D01*
X42351905Y-65590057D02*
X42399524Y-65542438D01*
X42399524Y-65542438D02*
X42494762Y-65494819D01*
X42494762Y-65494819D02*
X42685238Y-65494819D01*
X42685238Y-65494819D02*
X42780476Y-65542438D01*
X42780476Y-65542438D02*
X42828095Y-65590057D01*
X42828095Y-65590057D02*
X42875714Y-65685295D01*
X42875714Y-65685295D02*
X42875714Y-65732914D01*
X42875714Y-65732914D02*
X42828095Y-65828152D01*
X42828095Y-65828152D02*
X42780476Y-65875771D01*
X42780476Y-65875771D02*
X42685238Y-65923390D01*
X42685238Y-65923390D02*
X42494762Y-65923390D01*
X42494762Y-65923390D02*
X42399524Y-65971009D01*
X42399524Y-65971009D02*
X42351905Y-66018628D01*
X42351905Y-66018628D02*
X42304286Y-66113866D01*
X42304286Y-66113866D02*
X42304286Y-66304342D01*
X42304286Y-66304342D02*
X42351905Y-66399580D01*
X42351905Y-66399580D02*
X42399524Y-66447200D01*
X42399524Y-66447200D02*
X42494762Y-66494819D01*
X42494762Y-66494819D02*
X42685238Y-66494819D01*
X42685238Y-66494819D02*
X42780476Y-66447200D01*
X42780476Y-66447200D02*
X42828095Y-66399580D01*
X42828095Y-66399580D02*
X42875714Y-66304342D01*
X42875714Y-66304342D02*
X42875714Y-66113866D01*
X42875714Y-66113866D02*
X42828095Y-66018628D01*
X42828095Y-66018628D02*
X42780476Y-65971009D01*
X42780476Y-65971009D02*
X42685238Y-65923390D01*
X58844819Y-50722857D02*
X58368628Y-51056190D01*
X58844819Y-51294285D02*
X57844819Y-51294285D01*
X57844819Y-51294285D02*
X57844819Y-50913333D01*
X57844819Y-50913333D02*
X57892438Y-50818095D01*
X57892438Y-50818095D02*
X57940057Y-50770476D01*
X57940057Y-50770476D02*
X58035295Y-50722857D01*
X58035295Y-50722857D02*
X58178152Y-50722857D01*
X58178152Y-50722857D02*
X58273390Y-50770476D01*
X58273390Y-50770476D02*
X58321009Y-50818095D01*
X58321009Y-50818095D02*
X58368628Y-50913333D01*
X58368628Y-50913333D02*
X58368628Y-51294285D01*
X58844819Y-49770476D02*
X58844819Y-50341904D01*
X58844819Y-50056190D02*
X57844819Y-50056190D01*
X57844819Y-50056190D02*
X57987676Y-50151428D01*
X57987676Y-50151428D02*
X58082914Y-50246666D01*
X58082914Y-50246666D02*
X58130533Y-50341904D01*
X57940057Y-49389523D02*
X57892438Y-49341904D01*
X57892438Y-49341904D02*
X57844819Y-49246666D01*
X57844819Y-49246666D02*
X57844819Y-49008571D01*
X57844819Y-49008571D02*
X57892438Y-48913333D01*
X57892438Y-48913333D02*
X57940057Y-48865714D01*
X57940057Y-48865714D02*
X58035295Y-48818095D01*
X58035295Y-48818095D02*
X58130533Y-48818095D01*
X58130533Y-48818095D02*
X58273390Y-48865714D01*
X58273390Y-48865714D02*
X58844819Y-49437142D01*
X58844819Y-49437142D02*
X58844819Y-48818095D01*
X69880833Y-62409580D02*
X69833214Y-62457200D01*
X69833214Y-62457200D02*
X69690357Y-62504819D01*
X69690357Y-62504819D02*
X69595119Y-62504819D01*
X69595119Y-62504819D02*
X69452262Y-62457200D01*
X69452262Y-62457200D02*
X69357024Y-62361961D01*
X69357024Y-62361961D02*
X69309405Y-62266723D01*
X69309405Y-62266723D02*
X69261786Y-62076247D01*
X69261786Y-62076247D02*
X69261786Y-61933390D01*
X69261786Y-61933390D02*
X69309405Y-61742914D01*
X69309405Y-61742914D02*
X69357024Y-61647676D01*
X69357024Y-61647676D02*
X69452262Y-61552438D01*
X69452262Y-61552438D02*
X69595119Y-61504819D01*
X69595119Y-61504819D02*
X69690357Y-61504819D01*
X69690357Y-61504819D02*
X69833214Y-61552438D01*
X69833214Y-61552438D02*
X69880833Y-61600057D01*
X70214167Y-61504819D02*
X70833214Y-61504819D01*
X70833214Y-61504819D02*
X70499881Y-61885771D01*
X70499881Y-61885771D02*
X70642738Y-61885771D01*
X70642738Y-61885771D02*
X70737976Y-61933390D01*
X70737976Y-61933390D02*
X70785595Y-61981009D01*
X70785595Y-61981009D02*
X70833214Y-62076247D01*
X70833214Y-62076247D02*
X70833214Y-62314342D01*
X70833214Y-62314342D02*
X70785595Y-62409580D01*
X70785595Y-62409580D02*
X70737976Y-62457200D01*
X70737976Y-62457200D02*
X70642738Y-62504819D01*
X70642738Y-62504819D02*
X70357024Y-62504819D01*
X70357024Y-62504819D02*
X70261786Y-62457200D01*
X70261786Y-62457200D02*
X70214167Y-62409580D01*
X45583333Y-79794819D02*
X45250000Y-79318628D01*
X45011905Y-79794819D02*
X45011905Y-78794819D01*
X45011905Y-78794819D02*
X45392857Y-78794819D01*
X45392857Y-78794819D02*
X45488095Y-78842438D01*
X45488095Y-78842438D02*
X45535714Y-78890057D01*
X45535714Y-78890057D02*
X45583333Y-78985295D01*
X45583333Y-78985295D02*
X45583333Y-79128152D01*
X45583333Y-79128152D02*
X45535714Y-79223390D01*
X45535714Y-79223390D02*
X45488095Y-79271009D01*
X45488095Y-79271009D02*
X45392857Y-79318628D01*
X45392857Y-79318628D02*
X45011905Y-79318628D01*
X45964286Y-78890057D02*
X46011905Y-78842438D01*
X46011905Y-78842438D02*
X46107143Y-78794819D01*
X46107143Y-78794819D02*
X46345238Y-78794819D01*
X46345238Y-78794819D02*
X46440476Y-78842438D01*
X46440476Y-78842438D02*
X46488095Y-78890057D01*
X46488095Y-78890057D02*
X46535714Y-78985295D01*
X46535714Y-78985295D02*
X46535714Y-79080533D01*
X46535714Y-79080533D02*
X46488095Y-79223390D01*
X46488095Y-79223390D02*
X45916667Y-79794819D01*
X45916667Y-79794819D02*
X46535714Y-79794819D01*
X40094642Y-52939580D02*
X40047023Y-52987200D01*
X40047023Y-52987200D02*
X39904166Y-53034819D01*
X39904166Y-53034819D02*
X39808928Y-53034819D01*
X39808928Y-53034819D02*
X39666071Y-52987200D01*
X39666071Y-52987200D02*
X39570833Y-52891961D01*
X39570833Y-52891961D02*
X39523214Y-52796723D01*
X39523214Y-52796723D02*
X39475595Y-52606247D01*
X39475595Y-52606247D02*
X39475595Y-52463390D01*
X39475595Y-52463390D02*
X39523214Y-52272914D01*
X39523214Y-52272914D02*
X39570833Y-52177676D01*
X39570833Y-52177676D02*
X39666071Y-52082438D01*
X39666071Y-52082438D02*
X39808928Y-52034819D01*
X39808928Y-52034819D02*
X39904166Y-52034819D01*
X39904166Y-52034819D02*
X40047023Y-52082438D01*
X40047023Y-52082438D02*
X40094642Y-52130057D01*
X40475595Y-52130057D02*
X40523214Y-52082438D01*
X40523214Y-52082438D02*
X40618452Y-52034819D01*
X40618452Y-52034819D02*
X40856547Y-52034819D01*
X40856547Y-52034819D02*
X40951785Y-52082438D01*
X40951785Y-52082438D02*
X40999404Y-52130057D01*
X40999404Y-52130057D02*
X41047023Y-52225295D01*
X41047023Y-52225295D02*
X41047023Y-52320533D01*
X41047023Y-52320533D02*
X40999404Y-52463390D01*
X40999404Y-52463390D02*
X40427976Y-53034819D01*
X40427976Y-53034819D02*
X41047023Y-53034819D01*
X41904166Y-52368152D02*
X41904166Y-53034819D01*
X41666071Y-51987200D02*
X41427976Y-52701485D01*
X41427976Y-52701485D02*
X42047023Y-52701485D01*
X40838095Y-44104819D02*
X40838095Y-44914342D01*
X40838095Y-44914342D02*
X40885714Y-45009580D01*
X40885714Y-45009580D02*
X40933333Y-45057200D01*
X40933333Y-45057200D02*
X41028571Y-45104819D01*
X41028571Y-45104819D02*
X41219047Y-45104819D01*
X41219047Y-45104819D02*
X41314285Y-45057200D01*
X41314285Y-45057200D02*
X41361904Y-45009580D01*
X41361904Y-45009580D02*
X41409523Y-44914342D01*
X41409523Y-44914342D02*
X41409523Y-44104819D01*
X42314285Y-44104819D02*
X42123809Y-44104819D01*
X42123809Y-44104819D02*
X42028571Y-44152438D01*
X42028571Y-44152438D02*
X41980952Y-44200057D01*
X41980952Y-44200057D02*
X41885714Y-44342914D01*
X41885714Y-44342914D02*
X41838095Y-44533390D01*
X41838095Y-44533390D02*
X41838095Y-44914342D01*
X41838095Y-44914342D02*
X41885714Y-45009580D01*
X41885714Y-45009580D02*
X41933333Y-45057200D01*
X41933333Y-45057200D02*
X42028571Y-45104819D01*
X42028571Y-45104819D02*
X42219047Y-45104819D01*
X42219047Y-45104819D02*
X42314285Y-45057200D01*
X42314285Y-45057200D02*
X42361904Y-45009580D01*
X42361904Y-45009580D02*
X42409523Y-44914342D01*
X42409523Y-44914342D02*
X42409523Y-44676247D01*
X42409523Y-44676247D02*
X42361904Y-44581009D01*
X42361904Y-44581009D02*
X42314285Y-44533390D01*
X42314285Y-44533390D02*
X42219047Y-44485771D01*
X42219047Y-44485771D02*
X42028571Y-44485771D01*
X42028571Y-44485771D02*
X41933333Y-44533390D01*
X41933333Y-44533390D02*
X41885714Y-44581009D01*
X41885714Y-44581009D02*
X41838095Y-44676247D01*
X37054819Y-56066666D02*
X36578628Y-56399999D01*
X37054819Y-56638094D02*
X36054819Y-56638094D01*
X36054819Y-56638094D02*
X36054819Y-56257142D01*
X36054819Y-56257142D02*
X36102438Y-56161904D01*
X36102438Y-56161904D02*
X36150057Y-56114285D01*
X36150057Y-56114285D02*
X36245295Y-56066666D01*
X36245295Y-56066666D02*
X36388152Y-56066666D01*
X36388152Y-56066666D02*
X36483390Y-56114285D01*
X36483390Y-56114285D02*
X36531009Y-56161904D01*
X36531009Y-56161904D02*
X36578628Y-56257142D01*
X36578628Y-56257142D02*
X36578628Y-56638094D01*
X36483390Y-55495237D02*
X36435771Y-55590475D01*
X36435771Y-55590475D02*
X36388152Y-55638094D01*
X36388152Y-55638094D02*
X36292914Y-55685713D01*
X36292914Y-55685713D02*
X36245295Y-55685713D01*
X36245295Y-55685713D02*
X36150057Y-55638094D01*
X36150057Y-55638094D02*
X36102438Y-55590475D01*
X36102438Y-55590475D02*
X36054819Y-55495237D01*
X36054819Y-55495237D02*
X36054819Y-55304761D01*
X36054819Y-55304761D02*
X36102438Y-55209523D01*
X36102438Y-55209523D02*
X36150057Y-55161904D01*
X36150057Y-55161904D02*
X36245295Y-55114285D01*
X36245295Y-55114285D02*
X36292914Y-55114285D01*
X36292914Y-55114285D02*
X36388152Y-55161904D01*
X36388152Y-55161904D02*
X36435771Y-55209523D01*
X36435771Y-55209523D02*
X36483390Y-55304761D01*
X36483390Y-55304761D02*
X36483390Y-55495237D01*
X36483390Y-55495237D02*
X36531009Y-55590475D01*
X36531009Y-55590475D02*
X36578628Y-55638094D01*
X36578628Y-55638094D02*
X36673866Y-55685713D01*
X36673866Y-55685713D02*
X36864342Y-55685713D01*
X36864342Y-55685713D02*
X36959580Y-55638094D01*
X36959580Y-55638094D02*
X37007200Y-55590475D01*
X37007200Y-55590475D02*
X37054819Y-55495237D01*
X37054819Y-55495237D02*
X37054819Y-55304761D01*
X37054819Y-55304761D02*
X37007200Y-55209523D01*
X37007200Y-55209523D02*
X36959580Y-55161904D01*
X36959580Y-55161904D02*
X36864342Y-55114285D01*
X36864342Y-55114285D02*
X36673866Y-55114285D01*
X36673866Y-55114285D02*
X36578628Y-55161904D01*
X36578628Y-55161904D02*
X36531009Y-55209523D01*
X36531009Y-55209523D02*
X36483390Y-55304761D01*
X53756666Y-51591009D02*
X53423333Y-51591009D01*
X53423333Y-52114819D02*
X53423333Y-51114819D01*
X53423333Y-51114819D02*
X53899523Y-51114819D01*
X54613809Y-51591009D02*
X54756666Y-51638628D01*
X54756666Y-51638628D02*
X54804285Y-51686247D01*
X54804285Y-51686247D02*
X54851904Y-51781485D01*
X54851904Y-51781485D02*
X54851904Y-51924342D01*
X54851904Y-51924342D02*
X54804285Y-52019580D01*
X54804285Y-52019580D02*
X54756666Y-52067200D01*
X54756666Y-52067200D02*
X54661428Y-52114819D01*
X54661428Y-52114819D02*
X54280476Y-52114819D01*
X54280476Y-52114819D02*
X54280476Y-51114819D01*
X54280476Y-51114819D02*
X54613809Y-51114819D01*
X54613809Y-51114819D02*
X54709047Y-51162438D01*
X54709047Y-51162438D02*
X54756666Y-51210057D01*
X54756666Y-51210057D02*
X54804285Y-51305295D01*
X54804285Y-51305295D02*
X54804285Y-51400533D01*
X54804285Y-51400533D02*
X54756666Y-51495771D01*
X54756666Y-51495771D02*
X54709047Y-51543390D01*
X54709047Y-51543390D02*
X54613809Y-51591009D01*
X54613809Y-51591009D02*
X54280476Y-51591009D01*
X55185238Y-51114819D02*
X55804285Y-51114819D01*
X55804285Y-51114819D02*
X55470952Y-51495771D01*
X55470952Y-51495771D02*
X55613809Y-51495771D01*
X55613809Y-51495771D02*
X55709047Y-51543390D01*
X55709047Y-51543390D02*
X55756666Y-51591009D01*
X55756666Y-51591009D02*
X55804285Y-51686247D01*
X55804285Y-51686247D02*
X55804285Y-51924342D01*
X55804285Y-51924342D02*
X55756666Y-52019580D01*
X55756666Y-52019580D02*
X55709047Y-52067200D01*
X55709047Y-52067200D02*
X55613809Y-52114819D01*
X55613809Y-52114819D02*
X55328095Y-52114819D01*
X55328095Y-52114819D02*
X55232857Y-52067200D01*
X55232857Y-52067200D02*
X55185238Y-52019580D01*
X47216666Y-62581009D02*
X46883333Y-62581009D01*
X46883333Y-63104819D02*
X46883333Y-62104819D01*
X46883333Y-62104819D02*
X47359523Y-62104819D01*
X48073809Y-62581009D02*
X48216666Y-62628628D01*
X48216666Y-62628628D02*
X48264285Y-62676247D01*
X48264285Y-62676247D02*
X48311904Y-62771485D01*
X48311904Y-62771485D02*
X48311904Y-62914342D01*
X48311904Y-62914342D02*
X48264285Y-63009580D01*
X48264285Y-63009580D02*
X48216666Y-63057200D01*
X48216666Y-63057200D02*
X48121428Y-63104819D01*
X48121428Y-63104819D02*
X47740476Y-63104819D01*
X47740476Y-63104819D02*
X47740476Y-62104819D01*
X47740476Y-62104819D02*
X48073809Y-62104819D01*
X48073809Y-62104819D02*
X48169047Y-62152438D01*
X48169047Y-62152438D02*
X48216666Y-62200057D01*
X48216666Y-62200057D02*
X48264285Y-62295295D01*
X48264285Y-62295295D02*
X48264285Y-62390533D01*
X48264285Y-62390533D02*
X48216666Y-62485771D01*
X48216666Y-62485771D02*
X48169047Y-62533390D01*
X48169047Y-62533390D02*
X48073809Y-62581009D01*
X48073809Y-62581009D02*
X47740476Y-62581009D01*
X48692857Y-62200057D02*
X48740476Y-62152438D01*
X48740476Y-62152438D02*
X48835714Y-62104819D01*
X48835714Y-62104819D02*
X49073809Y-62104819D01*
X49073809Y-62104819D02*
X49169047Y-62152438D01*
X49169047Y-62152438D02*
X49216666Y-62200057D01*
X49216666Y-62200057D02*
X49264285Y-62295295D01*
X49264285Y-62295295D02*
X49264285Y-62390533D01*
X49264285Y-62390533D02*
X49216666Y-62533390D01*
X49216666Y-62533390D02*
X48645238Y-63104819D01*
X48645238Y-63104819D02*
X49264285Y-63104819D01*
X50623333Y-64189580D02*
X50575714Y-64237200D01*
X50575714Y-64237200D02*
X50432857Y-64284819D01*
X50432857Y-64284819D02*
X50337619Y-64284819D01*
X50337619Y-64284819D02*
X50194762Y-64237200D01*
X50194762Y-64237200D02*
X50099524Y-64141961D01*
X50099524Y-64141961D02*
X50051905Y-64046723D01*
X50051905Y-64046723D02*
X50004286Y-63856247D01*
X50004286Y-63856247D02*
X50004286Y-63713390D01*
X50004286Y-63713390D02*
X50051905Y-63522914D01*
X50051905Y-63522914D02*
X50099524Y-63427676D01*
X50099524Y-63427676D02*
X50194762Y-63332438D01*
X50194762Y-63332438D02*
X50337619Y-63284819D01*
X50337619Y-63284819D02*
X50432857Y-63284819D01*
X50432857Y-63284819D02*
X50575714Y-63332438D01*
X50575714Y-63332438D02*
X50623333Y-63380057D01*
X51480476Y-63618152D02*
X51480476Y-64284819D01*
X51242381Y-63237200D02*
X51004286Y-63951485D01*
X51004286Y-63951485D02*
X51623333Y-63951485D01*
D12*
%TO.C,C15*%
X39590000Y-58296267D02*
X39590000Y-58003733D01*
X40610000Y-58296267D02*
X40610000Y-58003733D01*
%TO.C,C6*%
X79260000Y-74870000D02*
X79260000Y-66810000D01*
X79260000Y-66810000D02*
X74740000Y-66810000D01*
X74740000Y-66810000D02*
X74740000Y-74870000D01*
%TO.C,R6*%
X61997500Y-68495276D02*
X61997500Y-69004724D01*
X63042500Y-68495276D02*
X63042500Y-69004724D01*
%TO.C,C10*%
X54706233Y-56640000D02*
X54998767Y-56640000D01*
X54706233Y-57660000D02*
X54998767Y-57660000D01*
%TO.C,R9*%
X60402500Y-55417224D02*
X60402500Y-54907776D01*
X59357500Y-55417224D02*
X59357500Y-54907776D01*
%TO.C,R11*%
X65452500Y-49712224D02*
X65452500Y-49202776D01*
X64407500Y-49712224D02*
X64407500Y-49202776D01*
%TO.C,C13*%
X48472500Y-54333767D02*
X48472500Y-54041233D01*
X47452500Y-54333767D02*
X47452500Y-54041233D01*
%TO.C,U2*%
X71970000Y-64720000D02*
X71970000Y-65980000D01*
X65960000Y-64720000D02*
X71970000Y-64720000D01*
X71970000Y-71540000D02*
X71970000Y-70280000D01*
X68210000Y-71540000D02*
X71970000Y-71540000D01*
%TO.C,C1*%
X46447500Y-78220000D02*
X46447500Y-73700000D01*
X46447500Y-73700000D02*
X38387500Y-73700000D01*
X38387500Y-78220000D02*
X46447500Y-78220000D01*
%TO.C,C12*%
X40610000Y-61866233D02*
X40610000Y-62158767D01*
X39590000Y-61866233D02*
X39590000Y-62158767D01*
%TO.C,C14*%
X51633767Y-55910000D02*
X51341233Y-55910000D01*
X51633767Y-54890000D02*
X51341233Y-54890000D01*
%TO.C,C16*%
X37608767Y-60072500D02*
X37316233Y-60072500D01*
X37608767Y-59052500D02*
X37316233Y-59052500D01*
%TO.C,C25*%
X35110000Y-46658767D02*
X35110000Y-46366233D01*
X34090000Y-46658767D02*
X34090000Y-46366233D01*
%TO.C,R13*%
X37442224Y-50627500D02*
X36932776Y-50627500D01*
X37442224Y-51672500D02*
X36932776Y-51672500D01*
%TO.C,R16*%
X59262776Y-64057500D02*
X59772224Y-64057500D01*
X59262776Y-65102500D02*
X59772224Y-65102500D01*
%TO.C,C2*%
X65660000Y-71940000D02*
X65660000Y-76460000D01*
X65660000Y-76460000D02*
X73720000Y-76460000D01*
X73720000Y-71940000D02*
X65660000Y-71940000D01*
%TO.C,C5*%
X44566233Y-68910000D02*
X44858767Y-68910000D01*
X44566233Y-67890000D02*
X44858767Y-67890000D01*
%TO.C,C20*%
X60401233Y-46100000D02*
X60693767Y-46100000D01*
X60401233Y-47120000D02*
X60693767Y-47120000D01*
%TO.C,R7*%
X41354724Y-55422500D02*
X40845276Y-55422500D01*
X41354724Y-54377500D02*
X40845276Y-54377500D01*
%TO.C,R5*%
X61997500Y-65082776D02*
X61997500Y-65592224D01*
X63042500Y-65082776D02*
X63042500Y-65592224D01*
%TO.C,C21*%
X60396233Y-45580000D02*
X60688767Y-45580000D01*
X60396233Y-44560000D02*
X60688767Y-44560000D01*
%TO.C,C23*%
X43576233Y-40090000D02*
X43868767Y-40090000D01*
X43576233Y-41110000D02*
X43868767Y-41110000D01*
%TO.C,FB1*%
X48280000Y-70380378D02*
X48280000Y-71179622D01*
X47160000Y-70380378D02*
X47160000Y-71179622D01*
%TO.C,C18*%
X58858733Y-57265000D02*
X59151267Y-57265000D01*
X58858733Y-58285000D02*
X59151267Y-58285000D01*
%TO.C,R15*%
X35122500Y-56904724D02*
X35122500Y-56395276D01*
X34077500Y-56904724D02*
X34077500Y-56395276D01*
%TO.C,FB4*%
X64479622Y-46050000D02*
X63680378Y-46050000D01*
X64479622Y-47170000D02*
X63680378Y-47170000D01*
%TO.C,R14*%
X34077500Y-50404724D02*
X34077500Y-49895276D01*
X35122500Y-50404724D02*
X35122500Y-49895276D01*
%TO.C,R10*%
X62137776Y-53727500D02*
X62647224Y-53727500D01*
X62137776Y-54772500D02*
X62647224Y-54772500D01*
%TO.C,FB5*%
X46822878Y-40040000D02*
X47622122Y-40040000D01*
X46822878Y-41160000D02*
X47622122Y-41160000D01*
%TO.C,U4*%
X45100000Y-55915000D02*
X41500000Y-55915000D01*
X45100000Y-55915000D02*
X47300000Y-55915000D01*
X45100000Y-61385000D02*
X47300000Y-61385000D01*
X45100000Y-61385000D02*
X42900000Y-61385000D01*
%TO.C,U5*%
X63910000Y-49682500D02*
X63910000Y-48882500D01*
X60790000Y-49682500D02*
X60790000Y-48882500D01*
X60790000Y-49682500D02*
X60790000Y-51482500D01*
X63910000Y-49682500D02*
X63910000Y-50482500D01*
%TO.C,R4*%
X45017224Y-64922500D02*
X44507776Y-64922500D01*
X45017224Y-63877500D02*
X44507776Y-63877500D01*
%TO.C,C9*%
X51608767Y-57660000D02*
X51316233Y-57660000D01*
X51608767Y-56640000D02*
X51316233Y-56640000D01*
%TO.C,R3*%
X33604724Y-64922500D02*
X33095276Y-64922500D01*
X33604724Y-63877500D02*
X33095276Y-63877500D01*
%TO.C,C22*%
X43866267Y-42690000D02*
X43573733Y-42690000D01*
X43866267Y-41670000D02*
X43573733Y-41670000D01*
%TO.C,U3*%
X71960000Y-52560000D02*
X71960000Y-53820000D01*
X65950000Y-52560000D02*
X71960000Y-52560000D01*
X68200000Y-59380000D02*
X71960000Y-59380000D01*
X71960000Y-59380000D02*
X71960000Y-58120000D01*
%TO.C,C19*%
X62241233Y-56300000D02*
X62533767Y-56300000D01*
X62241233Y-55280000D02*
X62533767Y-55280000D01*
%TO.C,J2*%
X34600000Y-44072500D02*
X34350000Y-44572500D01*
X34850000Y-44572500D02*
X34600000Y-44072500D01*
X36550000Y-39812500D02*
X35440000Y-39812500D01*
X33760000Y-43522500D02*
X32650000Y-43522500D01*
X36550000Y-43522500D02*
X35440000Y-43522500D01*
X33760000Y-39812500D02*
X32650000Y-39812500D01*
X34350000Y-44572500D02*
X34850000Y-44572500D01*
%TO.C,C17*%
X57790000Y-55333767D02*
X57790000Y-55041233D01*
X56770000Y-55333767D02*
X56770000Y-55041233D01*
%TO.C,C11*%
X38610000Y-62158767D02*
X38610000Y-61866233D01*
X37590000Y-62158767D02*
X37590000Y-61866233D01*
%TO.C,C7*%
X74690000Y-57267500D02*
X79210000Y-57267500D01*
X79210000Y-57267500D02*
X79210000Y-49207500D01*
X74690000Y-49207500D02*
X74690000Y-57267500D01*
%TO.C,R1*%
X50834724Y-78822500D02*
X50325276Y-78822500D01*
X50834724Y-77777500D02*
X50325276Y-77777500D01*
%TO.C,C8*%
X42610000Y-63366233D02*
X42610000Y-63658767D01*
X41590000Y-63366233D02*
X41590000Y-63658767D01*
%TO.C,R12*%
X59237500Y-49825276D02*
X59237500Y-50334724D01*
X60282500Y-49825276D02*
X60282500Y-50334724D01*
%TO.C,C3*%
X65637500Y-59780000D02*
X65637500Y-64300000D01*
X65637500Y-64300000D02*
X73697500Y-64300000D01*
X73697500Y-59780000D02*
X65637500Y-59780000D01*
%TO.C,R2*%
X47147500Y-79504724D02*
X47147500Y-78995276D01*
X48192500Y-79504724D02*
X48192500Y-78995276D01*
%TO.C,C24*%
X40883767Y-51660000D02*
X40591233Y-51660000D01*
X40883767Y-50640000D02*
X40591233Y-50640000D01*
%TO.C,U6*%
X43845000Y-51135000D02*
X43210000Y-51135000D01*
X52100000Y-43515000D02*
X52100000Y-44150000D01*
X43210000Y-44150000D02*
X43210000Y-45420000D01*
X43210000Y-51135000D02*
X43210000Y-49865000D01*
X43845000Y-44150000D02*
X43210000Y-44150000D01*
X52100000Y-49865000D02*
X52100000Y-51135000D01*
X52100000Y-51135000D02*
X51465000Y-51135000D01*
X52100000Y-44150000D02*
X52100000Y-46055000D01*
%TO.C,R8*%
X37257776Y-58085000D02*
X37767224Y-58085000D01*
X37257776Y-57040000D02*
X37767224Y-57040000D01*
%TO.C,FB3*%
X53950000Y-54559622D02*
X53950000Y-53760378D01*
X55070000Y-54559622D02*
X55070000Y-53760378D01*
%TO.C,FB2*%
X44477878Y-63230000D02*
X45277122Y-63230000D01*
X44477878Y-62110000D02*
X45277122Y-62110000D01*
%TO.C,C4*%
X50280000Y-66106233D02*
X50280000Y-66398767D01*
X51300000Y-66106233D02*
X51300000Y-66398767D01*
%TD*%
M02*
