%TF.GenerationSoftware,KiCad,Pcbnew,7.0.6-0*%
%TF.CreationDate,2023-12-30T17:32:03-06:00*%
%TF.ProjectId,LO_PLL,4c4f5f50-4c4c-42e6-9b69-6361645f7063,rev?*%
%TF.SameCoordinates,Original*%
%TF.FileFunction,Legend,Bot*%
%TF.FilePolarity,Positive*%
%FSLAX46Y46*%
G04 Gerber Fmt 4.6, Leading zero omitted, Abs format (unit mm)*
G04 Created by KiCad (PCBNEW 7.0.6-0) date 2023-12-30 17:32:03*
%MOMM*%
%LPD*%
G01*
G04 APERTURE LIST*
%ADD10C,0.150000*%
%ADD11C,0.120000*%
G04 APERTURE END LIST*
D10*
X59338094Y-58604819D02*
X59338094Y-57604819D01*
X59338094Y-57604819D02*
X59099999Y-57604819D01*
X59099999Y-57604819D02*
X58957142Y-57652438D01*
X58957142Y-57652438D02*
X58861904Y-57747676D01*
X58861904Y-57747676D02*
X58814285Y-57842914D01*
X58814285Y-57842914D02*
X58766666Y-58033390D01*
X58766666Y-58033390D02*
X58766666Y-58176247D01*
X58766666Y-58176247D02*
X58814285Y-58366723D01*
X58814285Y-58366723D02*
X58861904Y-58461961D01*
X58861904Y-58461961D02*
X58957142Y-58557200D01*
X58957142Y-58557200D02*
X59099999Y-58604819D01*
X59099999Y-58604819D02*
X59338094Y-58604819D01*
X58385713Y-57700057D02*
X58338094Y-57652438D01*
X58338094Y-57652438D02*
X58242856Y-57604819D01*
X58242856Y-57604819D02*
X58004761Y-57604819D01*
X58004761Y-57604819D02*
X57909523Y-57652438D01*
X57909523Y-57652438D02*
X57861904Y-57700057D01*
X57861904Y-57700057D02*
X57814285Y-57795295D01*
X57814285Y-57795295D02*
X57814285Y-57890533D01*
X57814285Y-57890533D02*
X57861904Y-58033390D01*
X57861904Y-58033390D02*
X58433332Y-58604819D01*
X58433332Y-58604819D02*
X57814285Y-58604819D01*
X40909523Y-71604819D02*
X40242857Y-72604819D01*
X40242857Y-71604819D02*
X40909523Y-72604819D01*
X39338095Y-72604819D02*
X39909523Y-72604819D01*
X39623809Y-72604819D02*
X39623809Y-71604819D01*
X39623809Y-71604819D02*
X39719047Y-71747676D01*
X39719047Y-71747676D02*
X39814285Y-71842914D01*
X39814285Y-71842914D02*
X39909523Y-71890533D01*
X69223333Y-82074819D02*
X69223333Y-82789104D01*
X69223333Y-82789104D02*
X69270952Y-82931961D01*
X69270952Y-82931961D02*
X69366190Y-83027200D01*
X69366190Y-83027200D02*
X69509047Y-83074819D01*
X69509047Y-83074819D02*
X69604285Y-83074819D01*
X68223333Y-83074819D02*
X68794761Y-83074819D01*
X68509047Y-83074819D02*
X68509047Y-82074819D01*
X68509047Y-82074819D02*
X68604285Y-82217676D01*
X68604285Y-82217676D02*
X68699523Y-82312914D01*
X68699523Y-82312914D02*
X68794761Y-82360533D01*
X50445238Y-81654819D02*
X50778571Y-81178628D01*
X51016666Y-81654819D02*
X51016666Y-80654819D01*
X51016666Y-80654819D02*
X50635714Y-80654819D01*
X50635714Y-80654819D02*
X50540476Y-80702438D01*
X50540476Y-80702438D02*
X50492857Y-80750057D01*
X50492857Y-80750057D02*
X50445238Y-80845295D01*
X50445238Y-80845295D02*
X50445238Y-80988152D01*
X50445238Y-80988152D02*
X50492857Y-81083390D01*
X50492857Y-81083390D02*
X50540476Y-81131009D01*
X50540476Y-81131009D02*
X50635714Y-81178628D01*
X50635714Y-81178628D02*
X51016666Y-81178628D01*
X50159523Y-80654819D02*
X49826190Y-81654819D01*
X49826190Y-81654819D02*
X49492857Y-80654819D01*
X48635714Y-81654819D02*
X49207142Y-81654819D01*
X48921428Y-81654819D02*
X48921428Y-80654819D01*
X48921428Y-80654819D02*
X49016666Y-80797676D01*
X49016666Y-80797676D02*
X49111904Y-80892914D01*
X49111904Y-80892914D02*
X49207142Y-80940533D01*
X57341904Y-70354819D02*
X57341904Y-71164342D01*
X57341904Y-71164342D02*
X57294285Y-71259580D01*
X57294285Y-71259580D02*
X57246666Y-71307200D01*
X57246666Y-71307200D02*
X57151428Y-71354819D01*
X57151428Y-71354819D02*
X56960952Y-71354819D01*
X56960952Y-71354819D02*
X56865714Y-71307200D01*
X56865714Y-71307200D02*
X56818095Y-71259580D01*
X56818095Y-71259580D02*
X56770476Y-71164342D01*
X56770476Y-71164342D02*
X56770476Y-70354819D01*
X55770476Y-71354819D02*
X56341904Y-71354819D01*
X56056190Y-71354819D02*
X56056190Y-70354819D01*
X56056190Y-70354819D02*
X56151428Y-70497676D01*
X56151428Y-70497676D02*
X56246666Y-70592914D01*
X56246666Y-70592914D02*
X56341904Y-70640533D01*
X78018094Y-58604819D02*
X78018094Y-57604819D01*
X78018094Y-57604819D02*
X77779999Y-57604819D01*
X77779999Y-57604819D02*
X77637142Y-57652438D01*
X77637142Y-57652438D02*
X77541904Y-57747676D01*
X77541904Y-57747676D02*
X77494285Y-57842914D01*
X77494285Y-57842914D02*
X77446666Y-58033390D01*
X77446666Y-58033390D02*
X77446666Y-58176247D01*
X77446666Y-58176247D02*
X77494285Y-58366723D01*
X77494285Y-58366723D02*
X77541904Y-58461961D01*
X77541904Y-58461961D02*
X77637142Y-58557200D01*
X77637142Y-58557200D02*
X77779999Y-58604819D01*
X77779999Y-58604819D02*
X78018094Y-58604819D01*
X76494285Y-58604819D02*
X77065713Y-58604819D01*
X76779999Y-58604819D02*
X76779999Y-57604819D01*
X76779999Y-57604819D02*
X76875237Y-57747676D01*
X76875237Y-57747676D02*
X76970475Y-57842914D01*
X76970475Y-57842914D02*
X77065713Y-57890533D01*
D11*
%TO.C,D2*%
X55740000Y-63665000D02*
X55740000Y-60575000D01*
X61289999Y-62120462D02*
G75*
G03*
X55740001Y-60575170I-2989999J462D01*
G01*
X55740000Y-63664830D02*
G75*
G03*
X61290000Y-62119538I2560000J1544830D01*
G01*
X60800000Y-62120000D02*
G75*
G03*
X60800000Y-62120000I-2500000J0D01*
G01*
%TO.C,X1*%
X29650000Y-77850000D02*
X29650000Y-66450000D01*
X30400000Y-65700000D02*
X49800000Y-65700000D01*
X50550000Y-78600000D02*
X30400000Y-78600000D01*
X50550000Y-66450000D02*
X50550000Y-78600000D01*
X30400000Y-65700000D02*
G75*
G03*
X29650000Y-66450000I0J-750000D01*
G01*
X50550000Y-66450000D02*
G75*
G03*
X49800000Y-65700000I-750000J0D01*
G01*
X29650000Y-77850000D02*
G75*
G03*
X30400000Y-78600000I750000J0D01*
G01*
%TO.C,J1*%
X70960000Y-80930000D02*
X70960000Y-81530000D01*
X65330000Y-75510000D02*
X65330000Y-76510000D01*
X63700000Y-75510000D02*
X74080000Y-75510000D01*
X63700000Y-81530000D02*
X63700000Y-75510000D01*
X73500000Y-80930000D02*
X73500000Y-81530000D01*
X71900000Y-81530000D02*
X71900000Y-80930000D01*
X63410000Y-80500000D02*
X63410000Y-76500000D01*
X65330000Y-77040000D02*
X72450000Y-77040000D01*
X65080000Y-75510000D02*
X65080000Y-76510000D01*
X66820000Y-80930000D02*
X68420000Y-80930000D01*
X74080000Y-75510000D02*
X74080000Y-81530000D01*
X64280000Y-81530000D02*
X64280000Y-80930000D01*
X66820000Y-81530000D02*
X66820000Y-80930000D01*
X68420000Y-80930000D02*
X68420000Y-81530000D01*
X72700000Y-76510000D02*
X72700000Y-75510000D01*
X72450000Y-77040000D02*
X72700000Y-76510000D01*
X74080000Y-81530000D02*
X63700000Y-81530000D01*
X69360000Y-80930000D02*
X70960000Y-80930000D01*
X72450000Y-75510000D02*
X72450000Y-76510000D01*
X65880000Y-80930000D02*
X65880000Y-81530000D01*
X65080000Y-76510000D02*
X72700000Y-76510000D01*
X71900000Y-80930000D02*
X73500000Y-80930000D01*
X65080000Y-76510000D02*
X65330000Y-77040000D01*
X64280000Y-80930000D02*
X65880000Y-80930000D01*
X69360000Y-81530000D02*
X69360000Y-80930000D01*
%TO.C,RV1*%
X51585000Y-76690000D02*
X61355000Y-76690000D01*
X51585000Y-81760000D02*
X51585000Y-76690000D01*
X51585000Y-81760000D02*
X61355000Y-81760000D01*
X61355000Y-81760000D02*
X61355000Y-76690000D01*
%TO.C,U1*%
X53950000Y-76050000D02*
X53950000Y-65770000D01*
X53950000Y-65770000D02*
X55600000Y-65770000D01*
X59250000Y-76050000D02*
X53950000Y-76050000D01*
X57600000Y-65770000D02*
X59250000Y-65770000D01*
X59250000Y-65770000D02*
X59250000Y-76050000D01*
X55600000Y-65770000D02*
G75*
G03*
X57600000Y-65770000I1000000J0D01*
G01*
%TO.C,D1*%
X74720000Y-63665000D02*
X74720000Y-60575000D01*
X74720000Y-63664830D02*
G75*
G03*
X80270000Y-62119538I2560000J1544830D01*
G01*
X80269999Y-62120462D02*
G75*
G03*
X74720001Y-60575170I-2989999J462D01*
G01*
X79780000Y-62120000D02*
G75*
G03*
X79780000Y-62120000I-2500000J0D01*
G01*
%TD*%
M02*
