%TF.GenerationSoftware,KiCad,Pcbnew,7.0.6-0*%
%TF.CreationDate,2023-12-30T17:32:03-06:00*%
%TF.ProjectId,LO_PLL,4c4f5f50-4c4c-42e6-9b69-6361645f7063,rev?*%
%TF.SameCoordinates,Original*%
%TF.FileFunction,Copper,L1,Top*%
%TF.FilePolarity,Positive*%
%FSLAX46Y46*%
G04 Gerber Fmt 4.6, Leading zero omitted, Abs format (unit mm)*
G04 Created by KiCad (PCBNEW 7.0.6-0) date 2023-12-30 17:32:03*
%MOMM*%
%LPD*%
G01*
G04 APERTURE LIST*
G04 Aperture macros list*
%AMRoundRect*
0 Rectangle with rounded corners*
0 $1 Rounding radius*
0 $2 $3 $4 $5 $6 $7 $8 $9 X,Y pos of 4 corners*
0 Add a 4 corners polygon primitive as box body*
4,1,4,$2,$3,$4,$5,$6,$7,$8,$9,$2,$3,0*
0 Add four circle primitives for the rounded corners*
1,1,$1+$1,$2,$3*
1,1,$1+$1,$4,$5*
1,1,$1+$1,$6,$7*
1,1,$1+$1,$8,$9*
0 Add four rect primitives between the rounded corners*
20,1,$1+$1,$2,$3,$4,$5,0*
20,1,$1+$1,$4,$5,$6,$7,0*
20,1,$1+$1,$6,$7,$8,$9,0*
20,1,$1+$1,$8,$9,$2,$3,0*%
G04 Aperture macros list end*
%TA.AperFunction,SMDPad,CuDef*%
%ADD10RoundRect,0.237500X0.237500X-0.300000X0.237500X0.300000X-0.237500X0.300000X-0.237500X-0.300000X0*%
%TD*%
%TA.AperFunction,SMDPad,CuDef*%
%ADD11RoundRect,0.250000X-1.025000X0.787500X-1.025000X-0.787500X1.025000X-0.787500X1.025000X0.787500X0*%
%TD*%
%TA.AperFunction,SMDPad,CuDef*%
%ADD12RoundRect,0.237500X-0.237500X0.250000X-0.237500X-0.250000X0.237500X-0.250000X0.237500X0.250000X0*%
%TD*%
%TA.AperFunction,SMDPad,CuDef*%
%ADD13RoundRect,0.237500X-0.300000X-0.237500X0.300000X-0.237500X0.300000X0.237500X-0.300000X0.237500X0*%
%TD*%
%TA.AperFunction,SMDPad,CuDef*%
%ADD14RoundRect,0.237500X0.237500X-0.250000X0.237500X0.250000X-0.237500X0.250000X-0.237500X-0.250000X0*%
%TD*%
%TA.AperFunction,SMDPad,CuDef*%
%ADD15R,2.000000X1.500000*%
%TD*%
%TA.AperFunction,SMDPad,CuDef*%
%ADD16R,2.000000X3.800000*%
%TD*%
%TA.AperFunction,SMDPad,CuDef*%
%ADD17RoundRect,0.250000X0.787500X1.025000X-0.787500X1.025000X-0.787500X-1.025000X0.787500X-1.025000X0*%
%TD*%
%TA.AperFunction,SMDPad,CuDef*%
%ADD18RoundRect,0.237500X-0.237500X0.300000X-0.237500X-0.300000X0.237500X-0.300000X0.237500X0.300000X0*%
%TD*%
%TA.AperFunction,SMDPad,CuDef*%
%ADD19RoundRect,0.237500X0.300000X0.237500X-0.300000X0.237500X-0.300000X-0.237500X0.300000X-0.237500X0*%
%TD*%
%TA.AperFunction,SMDPad,CuDef*%
%ADD20RoundRect,0.237500X0.250000X0.237500X-0.250000X0.237500X-0.250000X-0.237500X0.250000X-0.237500X0*%
%TD*%
%TA.AperFunction,SMDPad,CuDef*%
%ADD21RoundRect,0.237500X-0.250000X-0.237500X0.250000X-0.237500X0.250000X0.237500X-0.250000X0.237500X0*%
%TD*%
%TA.AperFunction,SMDPad,CuDef*%
%ADD22RoundRect,0.250000X-0.787500X-1.025000X0.787500X-1.025000X0.787500X1.025000X-0.787500X1.025000X0*%
%TD*%
%TA.AperFunction,SMDPad,CuDef*%
%ADD23RoundRect,0.218750X-0.381250X0.218750X-0.381250X-0.218750X0.381250X-0.218750X0.381250X0.218750X0*%
%TD*%
%TA.AperFunction,SMDPad,CuDef*%
%ADD24RoundRect,0.218750X0.218750X0.381250X-0.218750X0.381250X-0.218750X-0.381250X0.218750X-0.381250X0*%
%TD*%
%TA.AperFunction,SMDPad,CuDef*%
%ADD25RoundRect,0.218750X-0.218750X-0.381250X0.218750X-0.381250X0.218750X0.381250X-0.218750X0.381250X0*%
%TD*%
%TA.AperFunction,SMDPad,CuDef*%
%ADD26RoundRect,0.100000X-0.637500X-0.100000X0.637500X-0.100000X0.637500X0.100000X-0.637500X0.100000X0*%
%TD*%
%TA.AperFunction,SMDPad,CuDef*%
%ADD27RoundRect,0.150000X0.150000X-0.512500X0.150000X0.512500X-0.150000X0.512500X-0.150000X-0.512500X0*%
%TD*%
%TA.AperFunction,SMDPad,CuDef*%
%ADD28R,1.270000X3.600000*%
%TD*%
%TA.AperFunction,SMDPad,CuDef*%
%ADD29R,1.350000X4.200000*%
%TD*%
%TA.AperFunction,SMDPad,CuDef*%
%ADD30RoundRect,0.250000X1.025000X-0.787500X1.025000X0.787500X-1.025000X0.787500X-1.025000X-0.787500X0*%
%TD*%
%TA.AperFunction,SMDPad,CuDef*%
%ADD31RoundRect,0.300000X0.300000X0.600000X-0.300000X0.600000X-0.300000X-0.600000X0.300000X-0.600000X0*%
%TD*%
%TA.AperFunction,SMDPad,CuDef*%
%ADD32RoundRect,0.475000X-0.475000X0.525000X-0.475000X-0.525000X0.475000X-0.525000X0.475000X0.525000X0*%
%TD*%
%TA.AperFunction,SMDPad,CuDef*%
%ADD33RoundRect,0.400000X-0.550000X0.400000X-0.550000X-0.400000X0.550000X-0.400000X0.550000X0.400000X0*%
%TD*%
%TA.AperFunction,SMDPad,CuDef*%
%ADD34RoundRect,0.218750X0.381250X-0.218750X0.381250X0.218750X-0.381250X0.218750X-0.381250X-0.218750X0*%
%TD*%
%TA.AperFunction,ComponentPad*%
%ADD35R,1.800000X1.800000*%
%TD*%
%TA.AperFunction,ComponentPad*%
%ADD36C,1.800000*%
%TD*%
%TA.AperFunction,ComponentPad*%
%ADD37R,1.600000X1.600000*%
%TD*%
%TA.AperFunction,ComponentPad*%
%ADD38C,1.600000*%
%TD*%
%TA.AperFunction,ComponentPad*%
%ADD39RoundRect,0.250000X-0.620000X-0.845000X0.620000X-0.845000X0.620000X0.845000X-0.620000X0.845000X0*%
%TD*%
%TA.AperFunction,ComponentPad*%
%ADD40O,1.740000X2.190000*%
%TD*%
%TA.AperFunction,ComponentPad*%
%ADD41C,1.440000*%
%TD*%
%TA.AperFunction,ComponentPad*%
%ADD42O,1.600000X1.600000*%
%TD*%
%TA.AperFunction,ViaPad*%
%ADD43C,1.000000*%
%TD*%
%TA.AperFunction,ViaPad*%
%ADD44C,3.500000*%
%TD*%
%TA.AperFunction,Conductor*%
%ADD45C,0.600000*%
%TD*%
%TA.AperFunction,Conductor*%
%ADD46C,0.400000*%
%TD*%
%TA.AperFunction,Conductor*%
%ADD47C,1.200000*%
%TD*%
%TA.AperFunction,Conductor*%
%ADD48C,0.300000*%
%TD*%
%TA.AperFunction,Conductor*%
%ADD49C,0.250000*%
%TD*%
%TA.AperFunction,Conductor*%
%ADD50C,1.400000*%
%TD*%
G04 APERTURE END LIST*
D10*
%TO.P,C15,1*%
%TO.N,Net-(C15-Pad1)*%
X40100000Y-59012500D03*
%TO.P,C15,2*%
%TO.N,GND*%
X40100000Y-57287500D03*
%TD*%
D11*
%TO.P,C6,1*%
%TO.N,+3.3V*%
X77000000Y-68107500D03*
%TO.P,C6,2*%
%TO.N,GND*%
X77000000Y-74332500D03*
%TD*%
D12*
%TO.P,R6,1*%
%TO.N,+3.3V*%
X62520000Y-67837500D03*
%TO.P,R6,2*%
%TO.N,Net-(U4-Pad14)*%
X62520000Y-69662500D03*
%TD*%
D13*
%TO.P,C10,1*%
%TO.N,Net-(C10-Pad1)*%
X53990000Y-57150000D03*
%TO.P,C10,2*%
%TO.N,GND*%
X55715000Y-57150000D03*
%TD*%
D14*
%TO.P,R9,1*%
%TO.N,Net-(C18-Pad2)*%
X59880000Y-56075000D03*
%TO.P,R9,2*%
%TO.N,Net-(C17-Pad2)*%
X59880000Y-54250000D03*
%TD*%
%TO.P,R11,1*%
%TO.N,GND*%
X64930000Y-50370000D03*
%TO.P,R11,2*%
%TO.N,Net-(R11-Pad2)*%
X64930000Y-48545000D03*
%TD*%
D10*
%TO.P,C13,1*%
%TO.N,Net-(C13-Pad1)*%
X47962500Y-55050000D03*
%TO.P,C13,2*%
%TO.N,GND*%
X47962500Y-53325000D03*
%TD*%
D15*
%TO.P,U2,1,GND*%
%TO.N,GND*%
X66910000Y-65830000D03*
D16*
%TO.P,U2,2,VO*%
%TO.N,+3.3V*%
X73210000Y-68130000D03*
D15*
X66910000Y-68130000D03*
%TO.P,U2,3,VI*%
%TO.N,Net-(C2-Pad1)*%
X66910000Y-70430000D03*
%TD*%
D17*
%TO.P,C1,1*%
%TO.N,Net-(C1-Pad1)*%
X45150000Y-75960000D03*
%TO.P,C1,2*%
%TO.N,GND*%
X38925000Y-75960000D03*
%TD*%
D18*
%TO.P,C12,1*%
%TO.N,Net-(C10-Pad1)*%
X40100000Y-61150000D03*
%TO.P,C12,2*%
%TO.N,GND*%
X40100000Y-62875000D03*
%TD*%
D19*
%TO.P,C14,1*%
%TO.N,GND*%
X52350000Y-55400000D03*
%TO.P,C14,2*%
%TO.N,Net-(C13-Pad1)*%
X50625000Y-55400000D03*
%TD*%
%TO.P,C16,1*%
%TO.N,Net-(C16-Pad1)*%
X38325000Y-59562500D03*
%TO.P,C16,2*%
%TO.N,Net-(C16-Pad2)*%
X36600000Y-59562500D03*
%TD*%
D10*
%TO.P,C25,1*%
%TO.N,Net-(C25-Pad1)*%
X34600000Y-47375000D03*
%TO.P,C25,2*%
%TO.N,Net-(C25-Pad2)*%
X34600000Y-45650000D03*
%TD*%
D20*
%TO.P,R13,1*%
%TO.N,Net-(C24-Pad2)*%
X38100000Y-51150000D03*
%TO.P,R13,2*%
%TO.N,Net-(R13-Pad2)*%
X36275000Y-51150000D03*
%TD*%
D21*
%TO.P,R16,1*%
%TO.N,+3.3V*%
X58605000Y-64580000D03*
%TO.P,R16,2*%
%TO.N,Net-(U1-Pad1)*%
X60430000Y-64580000D03*
%TD*%
D22*
%TO.P,C2,1*%
%TO.N,Net-(C2-Pad1)*%
X66957500Y-74200000D03*
%TO.P,C2,2*%
%TO.N,GND*%
X73182500Y-74200000D03*
%TD*%
D13*
%TO.P,C5,1*%
%TO.N,GND*%
X43850000Y-68400000D03*
%TO.P,C5,2*%
%TO.N,Net-(C5-Pad2)*%
X45575000Y-68400000D03*
%TD*%
%TO.P,C20,1*%
%TO.N,GND*%
X59685000Y-46610000D03*
%TO.P,C20,2*%
%TO.N,Net-(C20-Pad2)*%
X61410000Y-46610000D03*
%TD*%
D20*
%TO.P,R7,1*%
%TO.N,Net-(R7-Pad1)*%
X42012500Y-54900000D03*
%TO.P,R7,2*%
%TO.N,GND*%
X40187500Y-54900000D03*
%TD*%
D12*
%TO.P,R5,1*%
%TO.N,Net-(D2-Pad2)*%
X62520000Y-64425000D03*
%TO.P,R5,2*%
%TO.N,Net-(U4-Pad14)*%
X62520000Y-66250000D03*
%TD*%
D13*
%TO.P,C21,1*%
%TO.N,GND*%
X59680000Y-45070000D03*
%TO.P,C21,2*%
%TO.N,Net-(C20-Pad2)*%
X61405000Y-45070000D03*
%TD*%
%TO.P,C23,1*%
%TO.N,GND*%
X42860000Y-40600000D03*
%TO.P,C23,2*%
%TO.N,Net-(C22-Pad1)*%
X44585000Y-40600000D03*
%TD*%
D23*
%TO.P,FB1,1*%
%TO.N,Net-(C5-Pad2)*%
X47720000Y-69717500D03*
%TO.P,FB1,2*%
%TO.N,+5V*%
X47720000Y-71842500D03*
%TD*%
D13*
%TO.P,C18,1*%
%TO.N,GND*%
X58142500Y-57775000D03*
%TO.P,C18,2*%
%TO.N,Net-(C18-Pad2)*%
X59867500Y-57775000D03*
%TD*%
D14*
%TO.P,R15,1*%
%TO.N,Net-(C16-Pad2)*%
X34600000Y-57562500D03*
%TO.P,R15,2*%
%TO.N,Net-(R13-Pad2)*%
X34600000Y-55737500D03*
%TD*%
D24*
%TO.P,FB4,1*%
%TO.N,+5V*%
X65142500Y-46610000D03*
%TO.P,FB4,2*%
%TO.N,Net-(C20-Pad2)*%
X63017500Y-46610000D03*
%TD*%
D14*
%TO.P,R14,1*%
%TO.N,Net-(R13-Pad2)*%
X34600000Y-51062500D03*
%TO.P,R14,2*%
%TO.N,Net-(C25-Pad1)*%
X34600000Y-49237500D03*
%TD*%
D21*
%TO.P,R10,1*%
%TO.N,Net-(C17-Pad2)*%
X61480000Y-54250000D03*
%TO.P,R10,2*%
%TO.N,Net-(C19-Pad2)*%
X63305000Y-54250000D03*
%TD*%
D25*
%TO.P,FB5,1*%
%TO.N,Net-(C22-Pad1)*%
X46160000Y-40600000D03*
%TO.P,FB5,2*%
%TO.N,+5V*%
X48285000Y-40600000D03*
%TD*%
D26*
%TO.P,U4,1,R_{SET}*%
%TO.N,Net-(R7-Pad1)*%
X42237500Y-56375000D03*
%TO.P,U4,2,CP*%
%TO.N,Net-(C17-Pad2)*%
X42237500Y-57025000D03*
%TO.P,U4,3,CPGND*%
%TO.N,GND*%
X42237500Y-57675000D03*
%TO.P,U4,4,AGND*%
X42237500Y-58325000D03*
%TO.P,U4,5,RF_{IN}B*%
%TO.N,Net-(C15-Pad1)*%
X42237500Y-58975000D03*
%TO.P,U4,6,RF_{IN}A*%
%TO.N,Net-(C16-Pad1)*%
X42237500Y-59625000D03*
%TO.P,U4,7,AV_{DD}*%
%TO.N,Net-(C10-Pad1)*%
X42237500Y-60275000D03*
%TO.P,U4,8,REF_{IN}*%
%TO.N,Net-(C8-Pad1)*%
X42237500Y-60925000D03*
%TO.P,U4,9,DGND*%
%TO.N,GND*%
X47962500Y-60925000D03*
%TO.P,U4,10,CE*%
%TO.N,Net-(U4-Pad10)*%
X47962500Y-60275000D03*
%TO.P,U4,11,CLK*%
%TO.N,Net-(U4-Pad11)*%
X47962500Y-59625000D03*
%TO.P,U4,12,DATA*%
%TO.N,Net-(U4-Pad12)*%
X47962500Y-58975000D03*
%TO.P,U4,13,LE*%
%TO.N,Net-(U4-Pad13)*%
X47962500Y-58325000D03*
%TO.P,U4,14,MUX_OUT*%
%TO.N,Net-(U4-Pad14)*%
X47962500Y-57675000D03*
%TO.P,U4,15,DV_{DD}*%
%TO.N,Net-(C10-Pad1)*%
X47962500Y-57025000D03*
%TO.P,U4,16,VP*%
%TO.N,Net-(C13-Pad1)*%
X47962500Y-56375000D03*
%TD*%
D27*
%TO.P,U5,1*%
%TO.N,Net-(R12-Pad2)*%
X61400000Y-50820000D03*
%TO.P,U5,2,V-*%
%TO.N,GND*%
X62350000Y-50820000D03*
%TO.P,U5,3,+*%
%TO.N,Net-(C19-Pad2)*%
X63300000Y-50820000D03*
%TO.P,U5,4,-*%
%TO.N,Net-(R11-Pad2)*%
X63300000Y-48545000D03*
%TO.P,U5,5,~{PD}*%
%TO.N,Net-(C20-Pad2)*%
X62350000Y-48545000D03*
%TO.P,U5,6,V+*%
X61400000Y-48545000D03*
%TD*%
D20*
%TO.P,R4,1*%
%TO.N,GND*%
X45675000Y-64400000D03*
%TO.P,R4,2*%
%TO.N,Net-(C8-Pad2)*%
X43850000Y-64400000D03*
%TD*%
D19*
%TO.P,C9,1*%
%TO.N,GND*%
X52325000Y-57150000D03*
%TO.P,C9,2*%
%TO.N,Net-(C10-Pad1)*%
X50600000Y-57150000D03*
%TD*%
D20*
%TO.P,R3,1*%
%TO.N,Net-(C8-Pad2)*%
X34262500Y-64400000D03*
%TO.P,R3,2*%
%TO.N,Net-(R3-Pad2)*%
X32437500Y-64400000D03*
%TD*%
D19*
%TO.P,C22,1*%
%TO.N,Net-(C22-Pad1)*%
X44582500Y-42180000D03*
%TO.P,C22,2*%
%TO.N,GND*%
X42857500Y-42180000D03*
%TD*%
D15*
%TO.P,U3,1,GND*%
%TO.N,Net-(D1-Pad2)*%
X66900000Y-53670000D03*
%TO.P,U3,2,VO*%
%TO.N,+5V*%
X66900000Y-55970000D03*
D16*
X73200000Y-55970000D03*
D15*
%TO.P,U3,3,VI*%
%TO.N,Net-(C2-Pad1)*%
X66900000Y-58270000D03*
%TD*%
D13*
%TO.P,C19,1*%
%TO.N,GND*%
X61525000Y-55790000D03*
%TO.P,C19,2*%
%TO.N,Net-(C19-Pad2)*%
X63250000Y-55790000D03*
%TD*%
D28*
%TO.P,J2,1,In*%
%TO.N,Net-(C25-Pad2)*%
X34600000Y-41612500D03*
D29*
%TO.P,J2,2,Ext*%
%TO.N,GND*%
X37425000Y-41812500D03*
X31775000Y-41812500D03*
%TD*%
D10*
%TO.P,C17,1*%
%TO.N,GND*%
X57280000Y-56050000D03*
%TO.P,C17,2*%
%TO.N,Net-(C17-Pad2)*%
X57280000Y-54325000D03*
%TD*%
%TO.P,C11,1*%
%TO.N,GND*%
X38100000Y-62875000D03*
%TO.P,C11,2*%
%TO.N,Net-(C10-Pad1)*%
X38100000Y-61150000D03*
%TD*%
D30*
%TO.P,C7,1*%
%TO.N,+5V*%
X76950000Y-55970000D03*
%TO.P,C7,2*%
%TO.N,GND*%
X76950000Y-49745000D03*
%TD*%
D20*
%TO.P,R1,1*%
%TO.N,Net-(R1-Pad1)*%
X51492500Y-78300000D03*
%TO.P,R1,2*%
%TO.N,Net-(C1-Pad1)*%
X49667500Y-78300000D03*
%TD*%
D18*
%TO.P,C8,1*%
%TO.N,Net-(C8-Pad1)*%
X42100000Y-62650000D03*
%TO.P,C8,2*%
%TO.N,Net-(C8-Pad2)*%
X42100000Y-64375000D03*
%TD*%
D12*
%TO.P,R12,1*%
%TO.N,Net-(R11-Pad2)*%
X59760000Y-49167500D03*
%TO.P,R12,2*%
%TO.N,Net-(R12-Pad2)*%
X59760000Y-50992500D03*
%TD*%
D22*
%TO.P,C3,1*%
%TO.N,Net-(C2-Pad1)*%
X66935000Y-62040000D03*
%TO.P,C3,2*%
%TO.N,GND*%
X73160000Y-62040000D03*
%TD*%
D14*
%TO.P,R2,1*%
%TO.N,/Vtune*%
X47670000Y-80162500D03*
%TO.P,R2,2*%
%TO.N,Net-(C1-Pad1)*%
X47670000Y-78337500D03*
%TD*%
D19*
%TO.P,C24,1*%
%TO.N,Net-(C24-Pad1)*%
X41600000Y-51150000D03*
%TO.P,C24,2*%
%TO.N,Net-(C24-Pad2)*%
X39875000Y-51150000D03*
%TD*%
D31*
%TO.P,U6,1,VT*%
%TO.N,Net-(R12-Pad2)*%
X50600000Y-44150000D03*
D32*
%TO.P,U6,2,GND*%
%TO.N,GND*%
X47600000Y-44150000D03*
D31*
%TO.P,U6,3,VCC*%
%TO.N,Net-(C22-Pad1)*%
X44600000Y-44150000D03*
D33*
%TO.P,U6,4,GND*%
%TO.N,GND*%
X43100000Y-47650000D03*
D31*
%TO.P,U6,5,RF_{OUT}*%
%TO.N,Net-(C24-Pad1)*%
X44600000Y-51150000D03*
D32*
%TO.P,U6,6,GND*%
%TO.N,GND*%
X47600000Y-51150000D03*
D31*
%TO.P,U6,7,GND*%
X50600000Y-51150000D03*
D33*
%TO.P,U6,8,GND*%
X52100000Y-47650000D03*
%TD*%
D21*
%TO.P,R8,1*%
%TO.N,Net-(C16-Pad2)*%
X36600000Y-57562500D03*
%TO.P,R8,2*%
%TO.N,GND*%
X38425000Y-57562500D03*
%TD*%
D34*
%TO.P,FB3,1*%
%TO.N,Net-(C13-Pad1)*%
X54510000Y-55222500D03*
%TO.P,FB3,2*%
%TO.N,+5V*%
X54510000Y-53097500D03*
%TD*%
D25*
%TO.P,FB2,1*%
%TO.N,Net-(C10-Pad1)*%
X43815000Y-62670000D03*
%TO.P,FB2,2*%
%TO.N,+3.3V*%
X45940000Y-62670000D03*
%TD*%
D18*
%TO.P,C4,1*%
%TO.N,GND*%
X50790000Y-65390000D03*
%TO.P,C4,2*%
%TO.N,+3.3V*%
X50790000Y-67115000D03*
%TD*%
D35*
%TO.P,D2,1,K*%
%TO.N,GND*%
X57030000Y-62120000D03*
D36*
%TO.P,D2,2,A*%
%TO.N,Net-(D2-Pad2)*%
X59570000Y-62120000D03*
%TD*%
D37*
%TO.P,X1,1,Vcontrol*%
%TO.N,Net-(C1-Pad1)*%
X47720000Y-75960000D03*
D38*
%TO.P,X1,7,GND*%
%TO.N,GND*%
X32480000Y-75960000D03*
%TO.P,X1,8,OUT*%
%TO.N,Net-(R3-Pad2)*%
X32480000Y-68340000D03*
%TO.P,X1,14,Vcc*%
%TO.N,Net-(C5-Pad2)*%
X47720000Y-68340000D03*
%TD*%
D39*
%TO.P,J1,1,Pin_1*%
%TO.N,GND*%
X65080000Y-78500000D03*
D40*
%TO.P,J1,2,Pin_2*%
%TO.N,Net-(C2-Pad1)*%
X67620000Y-78500000D03*
%TO.P,J1,3,Pin_3*%
%TO.N,GND*%
X70160000Y-78500000D03*
%TO.P,J1,4,Pin_4*%
%TO.N,/Vtune*%
X72700000Y-78500000D03*
%TD*%
D41*
%TO.P,RV1,1,1*%
%TO.N,+5V*%
X59010000Y-79230000D03*
%TO.P,RV1,2,2*%
%TO.N,Net-(R1-Pad1)*%
X56470000Y-79230000D03*
%TO.P,RV1,3,3*%
%TO.N,GND*%
X53930000Y-79230000D03*
%TD*%
D37*
%TO.P,U1,1,~{RESET}/PB5*%
%TO.N,Net-(U1-Pad1)*%
X60410000Y-67100000D03*
D42*
%TO.P,U1,2,XTAL1/PB3*%
%TO.N,Net-(U4-Pad14)*%
X60410000Y-69640000D03*
%TO.P,U1,3,XTAL2/PB4*%
%TO.N,Net-(U4-Pad13)*%
X60410000Y-72180000D03*
%TO.P,U1,4,GND*%
%TO.N,GND*%
X60410000Y-74720000D03*
%TO.P,U1,5,AREF/PB0*%
%TO.N,Net-(U4-Pad12)*%
X52790000Y-74720000D03*
%TO.P,U1,6,PB1*%
%TO.N,Net-(U4-Pad11)*%
X52790000Y-72180000D03*
%TO.P,U1,7,PB2*%
%TO.N,Net-(U4-Pad10)*%
X52790000Y-69640000D03*
%TO.P,U1,8,VCC*%
%TO.N,+3.3V*%
X52790000Y-67100000D03*
%TD*%
D35*
%TO.P,D1,1,K*%
%TO.N,GND*%
X76010000Y-62120000D03*
D36*
%TO.P,D1,2,A*%
%TO.N,Net-(D1-Pad2)*%
X78550000Y-62120000D03*
%TD*%
D43*
%TO.N,GND*%
X32100000Y-49150000D03*
X77100000Y-74150000D03*
X32100000Y-56650000D03*
X36600000Y-49150000D03*
D44*
X27100000Y-82150000D03*
D43*
X73100000Y-74150000D03*
X63600000Y-41650000D03*
D44*
X27100000Y-42150000D03*
D43*
X36600000Y-53150000D03*
X56600000Y-58150000D03*
X37600000Y-41650000D03*
X64600000Y-74650000D03*
X41600000Y-44650000D03*
X59600000Y-43650000D03*
X34600000Y-59650000D03*
D44*
X79600000Y-82150000D03*
D43*
X73100000Y-62150000D03*
X32100000Y-46150000D03*
X32100000Y-53150000D03*
D44*
X79600000Y-42150000D03*
D43*
X54100000Y-47150000D03*
X57600000Y-82650000D03*
X48100000Y-48150000D03*
X52350000Y-57100000D03*
X63100000Y-82650000D03*
X36600000Y-46150000D03*
X52100000Y-52650000D03*
X77100000Y-49650000D03*
X62600000Y-59150000D03*
X39100000Y-56150000D03*
X47100000Y-65650000D03*
X31600000Y-41650000D03*
X36600000Y-62650000D03*
X45100000Y-61150000D03*
X61600000Y-52650000D03*
X39100000Y-76150000D03*
X40600000Y-53150000D03*
X47100000Y-42150000D03*
X48100000Y-62150000D03*
X52600000Y-42650000D03*
X56100000Y-73150000D03*
X62100000Y-76650000D03*
X49600000Y-52650000D03*
X40600000Y-49150000D03*
X50600000Y-73150000D03*
X61600000Y-57150000D03*
X44100000Y-55650000D03*
X58600000Y-76150000D03*
X34600000Y-66150000D03*
X58100000Y-52650000D03*
X54600000Y-61150000D03*
X36600000Y-55650000D03*
X50600000Y-79650000D03*
X62600000Y-71650000D03*
X54100000Y-50150000D03*
X51600000Y-82650000D03*
X30600000Y-66150000D03*
X52600000Y-59150000D03*
X57100000Y-50150000D03*
X69100000Y-82650000D03*
X61600000Y-78650000D03*
X39100000Y-62650000D03*
X52600000Y-45650000D03*
X62600000Y-62650000D03*
X44600000Y-53150000D03*
X58100000Y-47650000D03*
X52300000Y-55350000D03*
X44600000Y-49150000D03*
%TO.N,+3.3V*%
X66910000Y-68130000D03*
X52780000Y-65690000D03*
X62495500Y-67880000D03*
X57370000Y-65710000D03*
%TD*%
D45*
%TO.N,Net-(C1-Pad1)*%
X47720000Y-78287500D02*
X47670000Y-78337500D01*
X47720000Y-75960000D02*
X47720000Y-78287500D01*
D46*
X47707500Y-78300000D02*
X47670000Y-78337500D01*
X49667500Y-78300000D02*
X47707500Y-78300000D01*
D45*
X47720000Y-75960000D02*
X45150000Y-75960000D01*
D47*
%TO.N,Net-(C2-Pad1)*%
X66910000Y-74152500D02*
X66957500Y-74200000D01*
X66935000Y-62040000D02*
X68660000Y-62040000D01*
X66910000Y-70430000D02*
X66910000Y-74152500D01*
X67960000Y-70430000D02*
X66910000Y-70430000D01*
X68660000Y-62040000D02*
X68710000Y-62090000D01*
X67620000Y-78500000D02*
X67620000Y-74862500D01*
X68710000Y-60080000D02*
X68710000Y-62090000D01*
X68710000Y-62090000D02*
X68710000Y-69680000D01*
X67620000Y-74862500D02*
X66957500Y-74200000D01*
X68710000Y-69680000D02*
X67960000Y-70430000D01*
X66900000Y-58270000D02*
X68710000Y-60080000D01*
D46*
%TO.N,+3.3V*%
X57475000Y-65710000D02*
X58605000Y-64580000D01*
D48*
X46345000Y-62670000D02*
X50790000Y-67115000D01*
X59280000Y-68370000D02*
X61987500Y-68370000D01*
X58605000Y-64580000D02*
X58605000Y-67695000D01*
D46*
X52790000Y-67100000D02*
X52790000Y-65700000D01*
X50805000Y-67100000D02*
X50790000Y-67115000D01*
D48*
X58605000Y-67695000D02*
X59280000Y-68370000D01*
X61987500Y-68370000D02*
X62520000Y-67837500D01*
D47*
X73232500Y-68107500D02*
X73210000Y-68130000D01*
D46*
X52790000Y-65700000D02*
X52780000Y-65690000D01*
D47*
X77000000Y-68107500D02*
X73232500Y-68107500D01*
D46*
X52790000Y-67100000D02*
X50805000Y-67100000D01*
D48*
X62520000Y-67837500D02*
X62520000Y-67855500D01*
X45940000Y-62670000D02*
X46345000Y-62670000D01*
X62520000Y-67855500D02*
X62495500Y-67880000D01*
D46*
X57370000Y-65710000D02*
X57475000Y-65710000D01*
D45*
%TO.N,Net-(C5-Pad2)*%
X47720000Y-68340000D02*
X47720000Y-69717500D01*
X45635000Y-68340000D02*
X45575000Y-68400000D01*
X47720000Y-68340000D02*
X45635000Y-68340000D01*
%TO.N,+5V*%
X64340000Y-72830000D02*
X59010000Y-78160000D01*
D46*
X47720000Y-72210000D02*
X47720000Y-71842500D01*
X48285000Y-40600000D02*
X49270000Y-41585000D01*
X54510000Y-52420000D02*
X54510000Y-53097500D01*
D45*
X64340000Y-58280000D02*
X64340000Y-72830000D01*
X66650000Y-55970000D02*
X64340000Y-58280000D01*
D46*
X73200000Y-54667500D02*
X73200000Y-55970000D01*
X49270000Y-41585000D02*
X49270000Y-47180000D01*
D45*
X66900000Y-55970000D02*
X66650000Y-55970000D01*
D46*
X60117500Y-41585000D02*
X65142500Y-46610000D01*
X65142500Y-46610000D02*
X73200000Y-54667500D01*
D47*
X76950000Y-55970000D02*
X73200000Y-55970000D01*
D46*
X59010000Y-79230000D02*
X55880000Y-76100000D01*
X51610000Y-76100000D02*
X47720000Y-72210000D01*
X49270000Y-47180000D02*
X54510000Y-52420000D01*
X49270000Y-41585000D02*
X60117500Y-41585000D01*
X55880000Y-76100000D02*
X51610000Y-76100000D01*
D45*
X59010000Y-78160000D02*
X59010000Y-79230000D01*
D48*
%TO.N,Net-(C8-Pad1)*%
X42237500Y-62512500D02*
X42100000Y-62650000D01*
X42237500Y-60925000D02*
X42237500Y-62512500D01*
D45*
%TO.N,Net-(C8-Pad2)*%
X42100000Y-64375000D02*
X43825000Y-64375000D01*
X34287500Y-64375000D02*
X34262500Y-64400000D01*
X43825000Y-64375000D02*
X43850000Y-64400000D01*
X42100000Y-64375000D02*
X34287500Y-64375000D01*
D48*
%TO.N,Net-(C10-Pad1)*%
X46475000Y-57025000D02*
X43225000Y-60275000D01*
X40100000Y-61150000D02*
X38100000Y-61150000D01*
X50475000Y-57025000D02*
X50600000Y-57150000D01*
X40975000Y-60275000D02*
X40100000Y-61150000D01*
X53165000Y-57975000D02*
X53990000Y-57150000D01*
X50600000Y-57150000D02*
X51425000Y-57975000D01*
X43225000Y-60275000D02*
X42237500Y-60275000D01*
X47962500Y-57025000D02*
X50475000Y-57025000D01*
X47962500Y-57025000D02*
X46475000Y-57025000D01*
D49*
X43300000Y-62155000D02*
X43300000Y-60350000D01*
D48*
X51425000Y-57975000D02*
X53165000Y-57975000D01*
D49*
X43815000Y-62670000D02*
X43300000Y-62155000D01*
D48*
X42237500Y-60275000D02*
X40975000Y-60275000D01*
D49*
X43300000Y-60350000D02*
X43225000Y-60275000D01*
D48*
%TO.N,Net-(C13-Pad1)*%
X53507500Y-56225000D02*
X54510000Y-55222500D01*
X51450000Y-56225000D02*
X53507500Y-56225000D01*
X47962500Y-56375000D02*
X49650000Y-56375000D01*
X49650000Y-56375000D02*
X50625000Y-55400000D01*
X47962500Y-56375000D02*
X47962500Y-55050000D01*
X50625000Y-55400000D02*
X51450000Y-56225000D01*
%TO.N,Net-(C15-Pad1)*%
X40137500Y-58975000D02*
X40100000Y-59012500D01*
X42237500Y-58975000D02*
X40137500Y-58975000D01*
%TO.N,Net-(C16-Pad1)*%
X40580850Y-59900000D02*
X38662500Y-59900000D01*
X38662500Y-59900000D02*
X38325000Y-59562500D01*
X40855850Y-59625000D02*
X40580850Y-59900000D01*
X42237500Y-59625000D02*
X40855850Y-59625000D01*
D50*
%TO.N,Net-(C16-Pad2)*%
X34600000Y-57562500D02*
X36600000Y-57562500D01*
X36600000Y-59562500D02*
X36600000Y-57562500D01*
D49*
%TO.N,Net-(C17-Pad2)*%
X59805000Y-54325000D02*
X59880000Y-54250000D01*
X59880000Y-54250000D02*
X61480000Y-54250000D01*
X57142500Y-54187500D02*
X57280000Y-54325000D01*
X44654505Y-57025000D02*
X47492005Y-54187500D01*
X47492005Y-54187500D02*
X57142500Y-54187500D01*
X42237500Y-57025000D02*
X44654505Y-57025000D01*
X57280000Y-54325000D02*
X59805000Y-54325000D01*
%TO.N,Net-(C18-Pad2)*%
X59880000Y-56075000D02*
X59880000Y-57762500D01*
X59880000Y-57762500D02*
X59867500Y-57775000D01*
%TO.N,Net-(C19-Pad2)*%
X63305000Y-54250000D02*
X63305000Y-55735000D01*
X63305000Y-55735000D02*
X63250000Y-55790000D01*
D48*
X63305000Y-54250000D02*
X63305000Y-50825000D01*
X63305000Y-50825000D02*
X63300000Y-50820000D01*
D46*
%TO.N,Net-(C20-Pad2)*%
X62350000Y-48545000D02*
X61400000Y-48545000D01*
D48*
X61410000Y-46610000D02*
X61410000Y-45075000D01*
X61400000Y-46620000D02*
X61410000Y-46610000D01*
D46*
X63017500Y-46610000D02*
X61410000Y-46610000D01*
D48*
X61410000Y-45075000D02*
X61405000Y-45070000D01*
X61400000Y-48545000D02*
X61400000Y-46620000D01*
D46*
%TO.N,Net-(C22-Pad1)*%
X44582500Y-42180000D02*
X44582500Y-40602500D01*
X44600000Y-42197500D02*
X44582500Y-42180000D01*
X44585000Y-40600000D02*
X46160000Y-40600000D01*
X44600000Y-44150000D02*
X44600000Y-42197500D01*
X44582500Y-40602500D02*
X44585000Y-40600000D01*
D50*
%TO.N,Net-(C24-Pad1)*%
X41600000Y-51150000D02*
X44600000Y-51150000D01*
%TO.N,Net-(C24-Pad2)*%
X38100000Y-51150000D02*
X39875000Y-51150000D01*
%TO.N,Net-(C25-Pad1)*%
X34600000Y-47375000D02*
X34600000Y-49237500D01*
%TO.N,Net-(C25-Pad2)*%
X34600000Y-41612500D02*
X34600000Y-45650000D01*
D46*
%TO.N,Net-(D1-Pad2)*%
X68620000Y-53670000D02*
X70100000Y-55150000D01*
X70100000Y-57650000D02*
X72370000Y-59920000D01*
X66900000Y-53670000D02*
X68620000Y-53670000D01*
X76350000Y-59920000D02*
X78550000Y-62120000D01*
X70100000Y-55150000D02*
X70100000Y-57650000D01*
X72370000Y-59920000D02*
X76350000Y-59920000D01*
D48*
%TO.N,Net-(D2-Pad2)*%
X61875000Y-64425000D02*
X59570000Y-62120000D01*
X62520000Y-64425000D02*
X61875000Y-64425000D01*
D46*
%TO.N,/Vtune*%
X72700000Y-78500000D02*
X70379267Y-80820733D01*
X48328233Y-80820733D02*
X47670000Y-80162500D01*
X70379267Y-80820733D02*
X48328233Y-80820733D01*
%TO.N,Net-(R1-Pad1)*%
X55350000Y-78110000D02*
X56470000Y-79230000D01*
X51492500Y-78300000D02*
X51682500Y-78110000D01*
X51682500Y-78110000D02*
X55350000Y-78110000D01*
D45*
%TO.N,Net-(R3-Pad2)*%
X32437500Y-68297500D02*
X32480000Y-68340000D01*
X32437500Y-64400000D02*
X32437500Y-68297500D01*
D48*
%TO.N,Net-(R7-Pad1)*%
X42237500Y-56375000D02*
X42237500Y-55125000D01*
X42237500Y-55125000D02*
X42012500Y-54900000D01*
%TO.N,Net-(R11-Pad2)*%
X60152500Y-49560000D02*
X59760000Y-49167500D01*
X62704607Y-49560000D02*
X60152500Y-49560000D01*
X63300000Y-48545000D02*
X63300000Y-48964607D01*
X63300000Y-48964607D02*
X62704607Y-49560000D01*
X64930000Y-48545000D02*
X63300000Y-48545000D01*
%TO.N,Net-(R12-Pad2)*%
X52917500Y-44150000D02*
X59760000Y-50992500D01*
X59760000Y-50992500D02*
X61227500Y-50992500D01*
X61227500Y-50992500D02*
X61400000Y-50820000D01*
X50600000Y-44150000D02*
X52917500Y-44150000D01*
D50*
%TO.N,Net-(R13-Pad2)*%
X34600000Y-55737500D02*
X34600000Y-51062500D01*
X36275000Y-51150000D02*
X34687500Y-51150000D01*
X34687500Y-51150000D02*
X34600000Y-51062500D01*
D48*
%TO.N,Net-(U1-Pad1)*%
X60410000Y-64600000D02*
X60430000Y-64580000D01*
X60410000Y-67100000D02*
X60410000Y-64600000D01*
%TO.N,Net-(U4-Pad14)*%
X56440000Y-65200179D02*
X56440000Y-69000000D01*
X57080000Y-69640000D02*
X60410000Y-69640000D01*
X47962500Y-57675000D02*
X48914820Y-57675000D01*
X63345000Y-67075000D02*
X63345000Y-68837500D01*
X56440000Y-69000000D02*
X57080000Y-69640000D01*
X62497500Y-69640000D02*
X62520000Y-69662500D01*
X63345000Y-68837500D02*
X62520000Y-69662500D01*
X48914820Y-57675000D02*
X56440000Y-65200179D01*
X60410000Y-69640000D02*
X62497500Y-69640000D01*
X62520000Y-66250000D02*
X63345000Y-67075000D01*
%TO.N,Net-(U4-Pad13)*%
X55940000Y-65407286D02*
X55940000Y-70990000D01*
X55940000Y-70990000D02*
X57130000Y-72180000D01*
X57130000Y-72180000D02*
X60410000Y-72180000D01*
X48857714Y-58325000D02*
X55940000Y-65407286D01*
X47962500Y-58325000D02*
X48857714Y-58325000D01*
%TO.N,Net-(U4-Pad12)*%
X55440000Y-65614392D02*
X55440000Y-72070000D01*
X48800608Y-58975000D02*
X55440000Y-65614392D01*
X55440000Y-72070000D02*
X52790000Y-74720000D01*
X47962500Y-58975000D02*
X48800608Y-58975000D01*
%TO.N,Net-(U4-Pad11)*%
X48743502Y-59625000D02*
X54940000Y-65821498D01*
X54940000Y-65821498D02*
X54940000Y-70030000D01*
X47962500Y-59625000D02*
X48743502Y-59625000D01*
X54940000Y-70030000D02*
X52790000Y-72180000D01*
%TO.N,Net-(U4-Pad10)*%
X54350000Y-65938604D02*
X54350000Y-68080000D01*
X48686396Y-60275000D02*
X54350000Y-65938604D01*
X47962500Y-60275000D02*
X48686396Y-60275000D01*
X54350000Y-68080000D02*
X52790000Y-69640000D01*
%TD*%
%TA.AperFunction,Conductor*%
%TO.N,GND*%
G36*
X33398621Y-39680502D02*
G01*
X33445114Y-39734158D01*
X33456500Y-39786500D01*
X33456499Y-41197132D01*
X33448466Y-41241403D01*
X33430340Y-41289700D01*
X33391499Y-41503729D01*
X33391499Y-45704269D01*
X33406115Y-45866659D01*
X33406117Y-45866670D01*
X33463984Y-46076344D01*
X33463989Y-46076358D01*
X33558368Y-46272339D01*
X33558372Y-46272345D01*
X33681024Y-46441163D01*
X33704882Y-46508031D01*
X33688801Y-46577182D01*
X33673975Y-46598123D01*
X33618347Y-46661794D01*
X33506784Y-46848519D01*
X33506779Y-46848529D01*
X33430340Y-47052199D01*
X33391499Y-47266229D01*
X33391500Y-49291769D01*
X33391499Y-49291769D01*
X33406115Y-49454159D01*
X33406117Y-49454170D01*
X33463984Y-49663844D01*
X33463989Y-49663858D01*
X33558368Y-49859839D01*
X33558373Y-49859847D01*
X33686234Y-50035833D01*
X33708920Y-50057523D01*
X33744335Y-50119056D01*
X33740861Y-50189967D01*
X33708147Y-50239646D01*
X33708195Y-50239690D01*
X33707923Y-50239986D01*
X33706872Y-50241584D01*
X33704387Y-50243856D01*
X33704372Y-50243871D01*
X33664422Y-50296337D01*
X33661743Y-50299620D01*
X33618352Y-50349288D01*
X33618345Y-50349297D01*
X33599185Y-50381364D01*
X33595227Y-50387217D01*
X33572597Y-50416941D01*
X33572595Y-50416943D01*
X33542653Y-50475707D01*
X33540602Y-50479417D01*
X33506778Y-50536031D01*
X33506776Y-50536035D01*
X33493651Y-50571006D01*
X33490801Y-50577474D01*
X33473838Y-50610766D01*
X33454869Y-50673933D01*
X33453514Y-50677951D01*
X33430342Y-50739692D01*
X33430340Y-50739700D01*
X33423672Y-50776445D01*
X33422022Y-50783317D01*
X33411276Y-50819104D01*
X33411276Y-50819106D01*
X33403889Y-50884661D01*
X33403273Y-50888856D01*
X33391500Y-50953730D01*
X33391500Y-50991090D01*
X33391104Y-50998148D01*
X33386921Y-51035272D01*
X33391357Y-51101080D01*
X33391500Y-51105319D01*
X33391500Y-55791776D01*
X33400826Y-55895393D01*
X33406115Y-55954159D01*
X33406117Y-55954170D01*
X33463984Y-56163844D01*
X33463989Y-56163858D01*
X33558368Y-56359839D01*
X33558373Y-56359847D01*
X33686234Y-56535833D01*
X33686234Y-56535834D01*
X33711860Y-56560334D01*
X33747275Y-56621867D01*
X33743801Y-56692779D01*
X33715860Y-56738480D01*
X33651338Y-56805964D01*
X33531501Y-56987510D01*
X33531499Y-56987515D01*
X33446000Y-57187546D01*
X33397596Y-57399621D01*
X33397596Y-57399623D01*
X33388793Y-57595659D01*
X33387837Y-57616938D01*
X33393888Y-57661610D01*
X33417037Y-57832507D01*
X33461749Y-57970112D01*
X33478732Y-58022382D01*
X33484261Y-58039396D01*
X33587337Y-58230944D01*
X33587341Y-58230951D01*
X33666267Y-58329920D01*
X33720623Y-58398080D01*
X33722973Y-58401026D01*
X33886790Y-58544150D01*
X34073519Y-58655715D01*
X34073526Y-58655718D01*
X34073532Y-58655722D01*
X34277195Y-58732158D01*
X34277197Y-58732158D01*
X34277199Y-58732159D01*
X34491230Y-58771000D01*
X34491233Y-58771000D01*
X35265500Y-58771000D01*
X35333621Y-58791002D01*
X35380114Y-58844658D01*
X35391500Y-58896999D01*
X35391500Y-59616776D01*
X35399381Y-59704336D01*
X35406115Y-59779159D01*
X35406117Y-59779170D01*
X35463984Y-59988844D01*
X35463989Y-59988858D01*
X35558368Y-60184839D01*
X35558373Y-60184847D01*
X35686234Y-60360833D01*
X35686235Y-60360834D01*
X35843464Y-60511161D01*
X36009489Y-60620753D01*
X36025015Y-60631001D01*
X36225043Y-60716498D01*
X36225044Y-60716498D01*
X36225046Y-60716499D01*
X36286554Y-60730537D01*
X36437123Y-60764904D01*
X36654438Y-60774663D01*
X36870004Y-60745463D01*
X36951565Y-60718961D01*
X37022530Y-60716934D01*
X37083328Y-60753596D01*
X37114654Y-60817308D01*
X37116500Y-60838795D01*
X37116500Y-61499712D01*
X37126937Y-61601880D01*
X37181791Y-61767420D01*
X37273342Y-61915846D01*
X37273347Y-61915852D01*
X37396647Y-62039152D01*
X37396653Y-62039157D01*
X37396654Y-62039158D01*
X37545080Y-62130709D01*
X37710619Y-62185562D01*
X37812787Y-62196000D01*
X38387212Y-62195999D01*
X38489381Y-62185562D01*
X38654920Y-62130709D01*
X38803346Y-62039158D01*
X38926658Y-61915846D01*
X38944220Y-61887374D01*
X38955953Y-61868353D01*
X39008739Y-61820875D01*
X39063193Y-61808500D01*
X39136807Y-61808500D01*
X39204928Y-61828502D01*
X39244047Y-61868353D01*
X39255780Y-61887374D01*
X39273342Y-61915846D01*
X39273344Y-61915848D01*
X39273347Y-61915852D01*
X39396647Y-62039152D01*
X39396653Y-62039157D01*
X39396654Y-62039158D01*
X39545080Y-62130709D01*
X39710619Y-62185562D01*
X39812787Y-62196000D01*
X40387212Y-62195999D01*
X40489381Y-62185562D01*
X40654920Y-62130709D01*
X40803346Y-62039158D01*
X40926658Y-61915846D01*
X41018209Y-61767420D01*
X41073062Y-61601881D01*
X41073062Y-61601874D01*
X41073920Y-61599287D01*
X41114333Y-61540916D01*
X41179889Y-61513659D01*
X41249775Y-61526172D01*
X41270230Y-61538957D01*
X41293122Y-61556523D01*
X41293123Y-61556523D01*
X41293124Y-61556524D01*
X41336587Y-61574526D01*
X41391868Y-61619074D01*
X41414289Y-61686437D01*
X41396731Y-61755228D01*
X41377465Y-61780030D01*
X41273342Y-61884153D01*
X41181791Y-62032580D01*
X41126937Y-62198122D01*
X41116500Y-62300278D01*
X41116500Y-62999712D01*
X41126937Y-63101880D01*
X41154916Y-63186315D01*
X41181791Y-63267420D01*
X41239322Y-63360692D01*
X41247749Y-63374353D01*
X41266486Y-63442832D01*
X41245227Y-63510571D01*
X41190720Y-63556063D01*
X41140508Y-63566500D01*
X35002986Y-63566500D01*
X34936839Y-63547740D01*
X34829920Y-63481791D01*
X34664381Y-63426938D01*
X34664379Y-63426937D01*
X34664377Y-63426937D01*
X34562221Y-63416500D01*
X33962787Y-63416500D01*
X33860619Y-63426937D01*
X33695079Y-63481791D01*
X33546653Y-63573342D01*
X33546647Y-63573347D01*
X33439095Y-63680900D01*
X33376783Y-63714926D01*
X33305968Y-63709861D01*
X33260905Y-63680900D01*
X33153352Y-63573347D01*
X33153346Y-63573342D01*
X33137450Y-63563537D01*
X33004920Y-63481791D01*
X32839381Y-63426938D01*
X32839379Y-63426937D01*
X32839377Y-63426937D01*
X32737221Y-63416500D01*
X32137787Y-63416500D01*
X32035619Y-63426937D01*
X31870079Y-63481791D01*
X31721653Y-63573342D01*
X31721647Y-63573347D01*
X31598347Y-63696647D01*
X31598342Y-63696653D01*
X31506791Y-63845080D01*
X31451937Y-64010622D01*
X31441500Y-64112778D01*
X31441500Y-64687212D01*
X31451937Y-64789380D01*
X31483877Y-64885768D01*
X31506791Y-64954920D01*
X31598342Y-65103346D01*
X31598343Y-65103347D01*
X31598345Y-65103350D01*
X31601837Y-65107767D01*
X31628396Y-65173609D01*
X31628998Y-65185913D01*
X31628999Y-67288311D01*
X31608997Y-67356432D01*
X31592095Y-67377406D01*
X31473801Y-67495700D01*
X31342477Y-67683250D01*
X31245717Y-67890753D01*
X31245715Y-67890759D01*
X31212490Y-68014756D01*
X31186457Y-68111913D01*
X31166502Y-68340000D01*
X31186457Y-68568087D01*
X31204066Y-68633804D01*
X31245715Y-68789240D01*
X31245717Y-68789246D01*
X31342477Y-68996749D01*
X31433122Y-69126204D01*
X31473802Y-69184300D01*
X31635700Y-69346198D01*
X31823251Y-69477523D01*
X32030757Y-69574284D01*
X32251913Y-69633543D01*
X32480000Y-69653498D01*
X32708087Y-69633543D01*
X32929243Y-69574284D01*
X33136749Y-69477523D01*
X33324300Y-69346198D01*
X33486198Y-69184300D01*
X33617523Y-68996749D01*
X33714284Y-68789243D01*
X33773543Y-68568087D01*
X33793498Y-68340000D01*
X33773543Y-68111913D01*
X33714284Y-67890757D01*
X33617523Y-67683251D01*
X33486198Y-67495700D01*
X33324300Y-67333802D01*
X33299726Y-67316595D01*
X33255399Y-67261138D01*
X33245999Y-67213383D01*
X33245999Y-66217493D01*
X33245999Y-65230190D01*
X33266001Y-65162073D01*
X33319657Y-65115580D01*
X33389931Y-65105476D01*
X33454511Y-65134970D01*
X33461094Y-65141099D01*
X33546647Y-65226652D01*
X33546653Y-65226657D01*
X33546654Y-65226658D01*
X33695080Y-65318209D01*
X33860619Y-65373062D01*
X33962787Y-65383500D01*
X34562212Y-65383499D01*
X34664381Y-65373062D01*
X34829920Y-65318209D01*
X34978346Y-65226658D01*
X34978352Y-65226652D01*
X34984600Y-65220405D01*
X35046912Y-65186379D01*
X35073695Y-65183500D01*
X41263806Y-65183500D01*
X41331927Y-65203502D01*
X41352896Y-65220400D01*
X41396654Y-65264158D01*
X41545080Y-65355709D01*
X41710619Y-65410562D01*
X41812787Y-65421000D01*
X42387212Y-65420999D01*
X42489381Y-65410562D01*
X42654920Y-65355709D01*
X42803346Y-65264158D01*
X42847100Y-65220403D01*
X42909410Y-65186380D01*
X42936194Y-65183500D01*
X43038805Y-65183500D01*
X43106926Y-65203502D01*
X43127900Y-65220405D01*
X43134147Y-65226652D01*
X43134153Y-65226657D01*
X43134154Y-65226658D01*
X43282580Y-65318209D01*
X43448119Y-65373062D01*
X43550287Y-65383500D01*
X44149712Y-65383499D01*
X44251881Y-65373062D01*
X44417420Y-65318209D01*
X44565846Y-65226658D01*
X44689158Y-65103346D01*
X44780709Y-64954920D01*
X44835562Y-64789381D01*
X44846000Y-64687213D01*
X44845999Y-64112788D01*
X44835562Y-64010619D01*
X44780709Y-63845080D01*
X44689158Y-63696654D01*
X44689157Y-63696653D01*
X44689152Y-63696647D01*
X44636503Y-63643998D01*
X44602477Y-63581686D01*
X44607542Y-63510871D01*
X44618352Y-63488764D01*
X44697349Y-63360692D01*
X44750824Y-63199314D01*
X44752152Y-63186311D01*
X44778971Y-63120579D01*
X44837073Y-63079778D01*
X44908010Y-63076867D01*
X44969260Y-63112769D01*
X45001376Y-63176086D01*
X45002846Y-63186308D01*
X45004174Y-63199305D01*
X45004174Y-63199307D01*
X45004175Y-63199312D01*
X45004176Y-63199314D01*
X45015846Y-63234531D01*
X45057651Y-63360692D01*
X45146900Y-63505387D01*
X45146905Y-63505393D01*
X45267106Y-63625594D01*
X45267112Y-63625599D01*
X45267113Y-63625600D01*
X45411808Y-63714849D01*
X45573186Y-63768324D01*
X45672789Y-63778500D01*
X46207210Y-63778499D01*
X46306814Y-63768324D01*
X46387205Y-63741685D01*
X46458161Y-63739244D01*
X46515934Y-63772194D01*
X49769595Y-67025854D01*
X49803621Y-67088166D01*
X49806500Y-67114949D01*
X49806500Y-67464712D01*
X49816937Y-67566880D01*
X49871791Y-67732420D01*
X49963342Y-67880846D01*
X49963347Y-67880852D01*
X50086647Y-68004152D01*
X50086653Y-68004157D01*
X50086654Y-68004158D01*
X50235080Y-68095709D01*
X50400619Y-68150562D01*
X50502787Y-68161000D01*
X51077212Y-68160999D01*
X51179381Y-68150562D01*
X51344920Y-68095709D01*
X51493346Y-68004158D01*
X51582654Y-67914849D01*
X51644964Y-67880826D01*
X51715780Y-67885890D01*
X51772616Y-67928436D01*
X51774959Y-67931672D01*
X51783798Y-67944295D01*
X51783802Y-67944300D01*
X51945700Y-68106198D01*
X52133251Y-68237523D01*
X52168359Y-68253894D01*
X52172457Y-68255805D01*
X52225742Y-68302722D01*
X52245203Y-68370999D01*
X52224661Y-68438959D01*
X52172457Y-68484195D01*
X52133250Y-68502477D01*
X51945703Y-68633799D01*
X51945697Y-68633804D01*
X51783804Y-68795697D01*
X51783799Y-68795703D01*
X51652477Y-68983250D01*
X51555717Y-69190753D01*
X51555715Y-69190759D01*
X51508049Y-69368652D01*
X51496457Y-69411913D01*
X51476502Y-69640000D01*
X51496457Y-69868087D01*
X51520633Y-69958311D01*
X51555715Y-70089240D01*
X51555717Y-70089246D01*
X51652477Y-70296749D01*
X51781413Y-70480889D01*
X51783802Y-70484300D01*
X51945700Y-70646198D01*
X52133251Y-70777523D01*
X52168359Y-70793894D01*
X52172457Y-70795805D01*
X52225742Y-70842722D01*
X52245203Y-70910999D01*
X52224661Y-70978959D01*
X52172457Y-71024195D01*
X52133250Y-71042477D01*
X51945703Y-71173799D01*
X51945697Y-71173804D01*
X51783804Y-71335697D01*
X51783799Y-71335703D01*
X51652477Y-71523250D01*
X51555717Y-71730753D01*
X51555715Y-71730759D01*
X51524816Y-71846076D01*
X51496457Y-71951913D01*
X51476502Y-72180000D01*
X51485597Y-72283962D01*
X51496457Y-72408086D01*
X51555715Y-72629240D01*
X51555717Y-72629246D01*
X51652477Y-72836749D01*
X51781196Y-73020579D01*
X51783802Y-73024300D01*
X51945700Y-73186198D01*
X52133251Y-73317523D01*
X52151411Y-73325991D01*
X52172457Y-73335805D01*
X52225742Y-73382722D01*
X52245203Y-73450999D01*
X52224661Y-73518959D01*
X52172457Y-73564195D01*
X52133250Y-73582477D01*
X51945703Y-73713799D01*
X51945697Y-73713804D01*
X51783804Y-73875697D01*
X51783799Y-73875703D01*
X51652477Y-74063250D01*
X51555717Y-74270753D01*
X51555715Y-74270759D01*
X51538242Y-74335970D01*
X51497816Y-74486844D01*
X51496456Y-74491918D01*
X51480378Y-74675680D01*
X51454515Y-74741798D01*
X51397011Y-74783438D01*
X51326124Y-74787378D01*
X51265763Y-74753793D01*
X48849126Y-72337156D01*
X48815100Y-72274844D01*
X48818203Y-72216326D01*
X48816883Y-72216044D01*
X48818320Y-72209323D01*
X48818324Y-72209314D01*
X48828500Y-72109711D01*
X48828499Y-71575290D01*
X48818324Y-71475686D01*
X48764849Y-71314308D01*
X48675600Y-71169613D01*
X48675599Y-71169612D01*
X48675594Y-71169606D01*
X48555393Y-71049405D01*
X48555387Y-71049400D01*
X48410692Y-70960151D01*
X48249314Y-70906676D01*
X48249311Y-70906675D01*
X48249309Y-70906675D01*
X48236309Y-70905347D01*
X48170574Y-70878524D01*
X48129776Y-70820420D01*
X48126868Y-70749483D01*
X48162773Y-70688235D01*
X48226092Y-70656122D01*
X48236314Y-70654652D01*
X48236324Y-70654651D01*
X48249314Y-70653324D01*
X48410692Y-70599849D01*
X48555387Y-70510600D01*
X48675600Y-70390387D01*
X48764849Y-70245692D01*
X48818324Y-70084314D01*
X48828500Y-69984711D01*
X48828499Y-69450290D01*
X48818324Y-69350686D01*
X48771210Y-69208507D01*
X48768770Y-69137555D01*
X48787600Y-69096608D01*
X48857523Y-68996749D01*
X48954284Y-68789243D01*
X49013543Y-68568087D01*
X49033498Y-68340000D01*
X49013543Y-68111913D01*
X48954284Y-67890757D01*
X48857523Y-67683251D01*
X48726198Y-67495700D01*
X48564300Y-67333802D01*
X48560815Y-67331362D01*
X48376749Y-67202477D01*
X48169246Y-67105717D01*
X48169240Y-67105715D01*
X48008926Y-67062759D01*
X47948087Y-67046457D01*
X47720000Y-67026502D01*
X47491913Y-67046457D01*
X47270759Y-67105715D01*
X47270753Y-67105717D01*
X47063250Y-67202477D01*
X46875703Y-67333799D01*
X46714906Y-67494596D01*
X46652594Y-67528621D01*
X46625811Y-67531500D01*
X46308743Y-67531500D01*
X46242596Y-67512740D01*
X46192420Y-67481791D01*
X46026881Y-67426938D01*
X46026879Y-67426937D01*
X46026877Y-67426937D01*
X45924721Y-67416500D01*
X45225287Y-67416500D01*
X45123119Y-67426937D01*
X44957579Y-67481791D01*
X44809153Y-67573342D01*
X44809147Y-67573347D01*
X44685847Y-67696647D01*
X44685842Y-67696653D01*
X44594291Y-67845080D01*
X44539437Y-68010622D01*
X44529000Y-68112778D01*
X44529000Y-68687212D01*
X44539437Y-68789380D01*
X44594291Y-68954920D01*
X44685842Y-69103346D01*
X44685847Y-69103352D01*
X44809147Y-69226652D01*
X44809153Y-69226657D01*
X44809154Y-69226658D01*
X44957580Y-69318209D01*
X45123119Y-69373062D01*
X45225287Y-69383500D01*
X45924712Y-69383499D01*
X46026881Y-69373062D01*
X46192420Y-69318209D01*
X46340846Y-69226658D01*
X46382097Y-69185405D01*
X46444409Y-69151380D01*
X46471194Y-69148500D01*
X46514184Y-69148500D01*
X46582305Y-69168502D01*
X46628798Y-69222158D01*
X46638902Y-69292432D01*
X46633789Y-69314132D01*
X46621675Y-69350688D01*
X46611500Y-69450280D01*
X46611500Y-69984710D01*
X46621096Y-70078638D01*
X46621676Y-70084314D01*
X46668742Y-70226350D01*
X46675151Y-70245692D01*
X46764400Y-70390387D01*
X46764405Y-70390393D01*
X46884606Y-70510594D01*
X46884612Y-70510599D01*
X46884613Y-70510600D01*
X47029308Y-70599849D01*
X47190686Y-70653324D01*
X47203688Y-70654652D01*
X47269420Y-70681471D01*
X47310221Y-70739573D01*
X47313132Y-70810510D01*
X47277230Y-70871760D01*
X47213913Y-70903876D01*
X47203691Y-70905346D01*
X47190694Y-70906674D01*
X47190692Y-70906674D01*
X47029307Y-70960151D01*
X46884612Y-71049400D01*
X46884606Y-71049405D01*
X46764405Y-71169606D01*
X46764400Y-71169612D01*
X46675151Y-71314307D01*
X46652293Y-71383290D01*
X46621906Y-71474994D01*
X46621675Y-71475690D01*
X46611500Y-71575280D01*
X46611500Y-72109710D01*
X46612738Y-72121824D01*
X46621676Y-72209314D01*
X46656477Y-72314337D01*
X46675151Y-72370692D01*
X46764400Y-72515387D01*
X46764405Y-72515393D01*
X46884606Y-72635594D01*
X46884612Y-72635599D01*
X46884613Y-72635600D01*
X47029308Y-72724849D01*
X47190686Y-72778324D01*
X47252649Y-72784654D01*
X47318382Y-72811475D01*
X47328936Y-72820906D01*
X51092533Y-76584503D01*
X51095119Y-76587249D01*
X51136727Y-76634215D01*
X51188348Y-76669846D01*
X51191395Y-76672088D01*
X51240774Y-76710775D01*
X51250070Y-76714958D01*
X51269935Y-76726163D01*
X51278320Y-76731951D01*
X51278322Y-76731952D01*
X51278325Y-76731954D01*
X51278329Y-76731955D01*
X51278332Y-76731957D01*
X51304459Y-76741865D01*
X51336968Y-76754194D01*
X51340473Y-76755646D01*
X51397671Y-76781389D01*
X51407704Y-76783227D01*
X51429668Y-76789351D01*
X51439196Y-76792964D01*
X51439199Y-76792965D01*
X51501470Y-76800525D01*
X51505193Y-76801092D01*
X51566908Y-76812402D01*
X51629519Y-76808614D01*
X51633319Y-76808500D01*
X55534340Y-76808500D01*
X55602461Y-76828502D01*
X55623430Y-76845400D01*
X56559742Y-77781713D01*
X56593767Y-77844024D01*
X56588702Y-77914840D01*
X56546155Y-77971675D01*
X56479635Y-77996486D01*
X56470646Y-77996807D01*
X56470003Y-77996807D01*
X56470001Y-77996807D01*
X56470000Y-77996807D01*
X56429770Y-78000326D01*
X56315906Y-78010287D01*
X56246302Y-77996297D01*
X56215831Y-77973861D01*
X56056076Y-77814106D01*
X55867464Y-77625494D01*
X55864880Y-77622750D01*
X55823273Y-77575785D01*
X55823270Y-77575783D01*
X55823271Y-77575783D01*
X55771655Y-77540154D01*
X55768590Y-77537899D01*
X55750146Y-77523449D01*
X55719226Y-77499225D01*
X55719222Y-77499223D01*
X55709919Y-77495035D01*
X55690069Y-77483840D01*
X55681675Y-77478046D01*
X55658705Y-77469334D01*
X55623043Y-77455809D01*
X55619528Y-77454353D01*
X55562332Y-77428612D01*
X55562330Y-77428611D01*
X55562329Y-77428611D01*
X55552286Y-77426770D01*
X55530336Y-77420650D01*
X55520801Y-77417035D01*
X55520800Y-77417034D01*
X55520798Y-77417034D01*
X55520794Y-77417033D01*
X55468362Y-77410667D01*
X55458537Y-77409473D01*
X55454786Y-77408902D01*
X55413760Y-77401385D01*
X55393094Y-77397598D01*
X55393093Y-77397598D01*
X55330488Y-77401385D01*
X55326685Y-77401500D01*
X52127606Y-77401500D01*
X52066859Y-77384271D01*
X52066570Y-77384892D01*
X52062726Y-77383099D01*
X52061459Y-77382740D01*
X52059920Y-77381791D01*
X51894381Y-77326938D01*
X51894379Y-77326937D01*
X51894377Y-77326937D01*
X51792221Y-77316500D01*
X51192787Y-77316500D01*
X51090619Y-77326937D01*
X50925079Y-77381791D01*
X50776653Y-77473342D01*
X50776647Y-77473347D01*
X50669095Y-77580900D01*
X50606783Y-77614926D01*
X50535968Y-77609861D01*
X50490905Y-77580900D01*
X50383352Y-77473347D01*
X50383346Y-77473342D01*
X50307843Y-77426771D01*
X50234920Y-77381791D01*
X50069381Y-77326938D01*
X50069379Y-77326937D01*
X50069377Y-77326937D01*
X49967221Y-77316500D01*
X49367787Y-77316500D01*
X49265619Y-77326937D01*
X49100079Y-77381791D01*
X48951653Y-77473342D01*
X48951652Y-77473343D01*
X48929961Y-77495035D01*
X48870399Y-77554596D01*
X48808090Y-77588620D01*
X48781306Y-77591500D01*
X48654500Y-77591500D01*
X48586379Y-77571498D01*
X48539886Y-77517842D01*
X48528500Y-77465500D01*
X48528500Y-77385481D01*
X48548502Y-77317360D01*
X48602158Y-77270867D01*
X48625522Y-77262859D01*
X48629199Y-77261989D01*
X48629201Y-77261989D01*
X48766204Y-77210889D01*
X48861669Y-77139425D01*
X48883261Y-77123261D01*
X48970887Y-77006207D01*
X48970887Y-77006206D01*
X48970889Y-77006204D01*
X49021989Y-76869201D01*
X49024548Y-76845405D01*
X49028499Y-76808649D01*
X49028500Y-76808632D01*
X49028500Y-75111367D01*
X49028499Y-75111350D01*
X49021990Y-75050803D01*
X49021988Y-75050795D01*
X48983679Y-74948087D01*
X48970889Y-74913796D01*
X48970888Y-74913794D01*
X48970887Y-74913792D01*
X48883261Y-74796738D01*
X48766207Y-74709112D01*
X48766202Y-74709110D01*
X48629204Y-74658011D01*
X48629196Y-74658009D01*
X48568649Y-74651500D01*
X48568638Y-74651500D01*
X46871362Y-74651500D01*
X46871350Y-74651500D01*
X46810803Y-74658009D01*
X46810796Y-74658011D01*
X46783391Y-74668233D01*
X46712576Y-74673297D01*
X46650264Y-74639272D01*
X46632119Y-74616323D01*
X46629615Y-74612264D01*
X46629615Y-74612262D01*
X46536530Y-74461348D01*
X46536527Y-74461345D01*
X46536524Y-74461341D01*
X46411158Y-74335975D01*
X46411152Y-74335970D01*
X46399581Y-74328833D01*
X46260238Y-74242885D01*
X46156149Y-74208394D01*
X46091927Y-74187113D01*
X46091920Y-74187112D01*
X45988053Y-74176500D01*
X44311955Y-74176500D01*
X44208074Y-74187112D01*
X44039761Y-74242885D01*
X43888847Y-74335970D01*
X43888841Y-74335975D01*
X43763475Y-74461341D01*
X43763470Y-74461347D01*
X43670385Y-74612262D01*
X43614613Y-74780572D01*
X43614612Y-74780579D01*
X43604000Y-74884446D01*
X43604000Y-77035544D01*
X43614612Y-77139425D01*
X43670385Y-77307738D01*
X43763470Y-77458652D01*
X43763475Y-77458658D01*
X43888841Y-77584024D01*
X43888847Y-77584029D01*
X43888848Y-77584030D01*
X44039762Y-77677115D01*
X44208074Y-77732887D01*
X44311955Y-77743500D01*
X45988044Y-77743499D01*
X46091926Y-77732887D01*
X46260238Y-77677115D01*
X46411152Y-77584030D01*
X46536530Y-77458652D01*
X46629615Y-77307738D01*
X46629615Y-77307736D01*
X46632120Y-77303676D01*
X46684906Y-77256198D01*
X46754981Y-77244795D01*
X46783393Y-77251767D01*
X46810799Y-77261989D01*
X46810800Y-77261989D01*
X46810803Y-77261990D01*
X46814478Y-77262859D01*
X46817033Y-77264314D01*
X46818183Y-77264743D01*
X46818113Y-77264929D01*
X46876173Y-77297991D01*
X46909079Y-77360901D01*
X46911500Y-77385481D01*
X46911500Y-77501305D01*
X46891498Y-77569426D01*
X46874595Y-77590400D01*
X46843347Y-77621647D01*
X46843342Y-77621653D01*
X46751791Y-77770080D01*
X46696937Y-77935622D01*
X46686500Y-78037778D01*
X46686500Y-78637212D01*
X46696937Y-78739380D01*
X46751791Y-78904920D01*
X46843342Y-79053346D01*
X46843347Y-79053352D01*
X46950900Y-79160905D01*
X46984926Y-79223217D01*
X46979861Y-79294032D01*
X46950900Y-79339095D01*
X46843347Y-79446647D01*
X46843342Y-79446653D01*
X46751791Y-79595080D01*
X46696937Y-79760622D01*
X46686500Y-79862778D01*
X46686500Y-80462212D01*
X46696937Y-80564380D01*
X46751791Y-80729920D01*
X46843342Y-80878346D01*
X46843347Y-80878352D01*
X46966647Y-81001652D01*
X46966653Y-81001657D01*
X46966654Y-81001658D01*
X47115080Y-81093209D01*
X47280619Y-81148062D01*
X47382787Y-81158500D01*
X47611838Y-81158499D01*
X47679959Y-81178501D01*
X47700934Y-81195404D01*
X47810766Y-81305236D01*
X47813352Y-81307982D01*
X47854960Y-81354948D01*
X47906581Y-81390579D01*
X47909628Y-81392821D01*
X47959007Y-81431508D01*
X47968303Y-81435691D01*
X47988168Y-81446896D01*
X47996553Y-81452684D01*
X47996555Y-81452685D01*
X47996558Y-81452687D01*
X47996562Y-81452688D01*
X47996565Y-81452690D01*
X48022692Y-81462598D01*
X48055196Y-81474925D01*
X48058706Y-81476379D01*
X48115904Y-81502122D01*
X48125937Y-81503960D01*
X48147901Y-81510084D01*
X48157429Y-81513697D01*
X48157432Y-81513698D01*
X48219711Y-81521260D01*
X48223415Y-81521823D01*
X48285140Y-81533135D01*
X48347744Y-81529347D01*
X48351548Y-81529233D01*
X70355952Y-81529233D01*
X70359755Y-81529347D01*
X70422360Y-81533135D01*
X70484079Y-81521824D01*
X70487792Y-81521259D01*
X70550068Y-81513698D01*
X70559597Y-81510083D01*
X70581571Y-81503959D01*
X70591596Y-81502122D01*
X70648819Y-81476367D01*
X70652276Y-81474935D01*
X70710942Y-81452687D01*
X70719333Y-81446894D01*
X70739189Y-81435694D01*
X70748493Y-81431508D01*
X70797903Y-81392796D01*
X70800888Y-81390600D01*
X70852540Y-81354948D01*
X70894163Y-81307964D01*
X70896716Y-81305252D01*
X72137557Y-80064411D01*
X72199867Y-80030387D01*
X72263543Y-80033030D01*
X72408529Y-80077432D01*
X72641283Y-80107237D01*
X72875727Y-80097278D01*
X73105116Y-80047841D01*
X73322850Y-79960349D01*
X73481298Y-79862788D01*
X73522662Y-79837319D01*
X73522662Y-79837318D01*
X73522665Y-79837317D01*
X73698815Y-79682286D01*
X73846230Y-79499716D01*
X73960670Y-79294859D01*
X74038843Y-79073608D01*
X74078500Y-78842328D01*
X74078500Y-78216442D01*
X74063584Y-78041190D01*
X74056871Y-78015408D01*
X74004459Y-77814115D01*
X74004457Y-77814111D01*
X74004456Y-77814106D01*
X73907801Y-77600282D01*
X73776400Y-77405868D01*
X73776396Y-77405864D01*
X73776394Y-77405861D01*
X73614035Y-77236459D01*
X73614034Y-77236458D01*
X73614033Y-77236457D01*
X73425371Y-77096923D01*
X73215841Y-76991280D01*
X73215835Y-76991278D01*
X73215830Y-76991276D01*
X72991471Y-76922568D01*
X72758717Y-76892763D01*
X72758713Y-76892763D01*
X72758705Y-76892762D01*
X72524272Y-76902721D01*
X72294881Y-76952159D01*
X72077147Y-77039652D01*
X72077143Y-77039654D01*
X71877337Y-77162680D01*
X71701188Y-77317710D01*
X71630011Y-77405861D01*
X71553770Y-77500284D01*
X71497908Y-77600281D01*
X71439329Y-77705142D01*
X71361158Y-77926385D01*
X71321500Y-78157674D01*
X71321500Y-78783560D01*
X71323824Y-78810878D01*
X71309669Y-78880449D01*
X71287373Y-78910655D01*
X70122700Y-80075329D01*
X70060390Y-80109353D01*
X70033607Y-80112233D01*
X68441128Y-80112233D01*
X68373007Y-80092231D01*
X68326514Y-80038575D01*
X68316410Y-79968301D01*
X68345904Y-79903721D01*
X68375065Y-79878941D01*
X68442662Y-79837319D01*
X68442662Y-79837318D01*
X68442665Y-79837317D01*
X68618815Y-79682286D01*
X68766230Y-79499716D01*
X68880670Y-79294859D01*
X68958843Y-79073608D01*
X68998500Y-78842328D01*
X68998500Y-78216442D01*
X68983584Y-78041190D01*
X68976871Y-78015408D01*
X68924459Y-77814115D01*
X68924457Y-77814111D01*
X68924456Y-77814106D01*
X68827801Y-77600282D01*
X68750106Y-77485329D01*
X68728534Y-77417691D01*
X68728500Y-77414774D01*
X68728500Y-74965571D01*
X68730246Y-74944671D01*
X68730705Y-74941941D01*
X68730705Y-74941940D01*
X68728500Y-74849329D01*
X68728500Y-74809699D01*
X68728500Y-74809697D01*
X68727453Y-74798747D01*
X68727188Y-74794302D01*
X68725666Y-74730301D01*
X68718003Y-74695078D01*
X68716848Y-74687670D01*
X68714016Y-74658011D01*
X68713419Y-74651761D01*
X68695377Y-74590318D01*
X68694274Y-74585996D01*
X68680667Y-74523441D01*
X68667166Y-74491913D01*
X68666470Y-74490287D01*
X68663934Y-74483231D01*
X68657509Y-74461348D01*
X68653777Y-74448638D01*
X68624431Y-74391717D01*
X68622527Y-74387672D01*
X68618533Y-74378346D01*
X68597332Y-74328836D01*
X68577122Y-74298976D01*
X68573298Y-74292531D01*
X68556770Y-74260473D01*
X68530455Y-74227010D01*
X68504069Y-74161098D01*
X68503499Y-74149123D01*
X68503499Y-73124455D01*
X68492887Y-73020574D01*
X68450358Y-72892229D01*
X68437115Y-72852262D01*
X68344030Y-72701348D01*
X68344029Y-72701347D01*
X68344024Y-72701341D01*
X68218658Y-72575975D01*
X68218654Y-72575972D01*
X68218652Y-72575970D01*
X68218646Y-72575966D01*
X68078353Y-72489431D01*
X68030875Y-72436645D01*
X68018500Y-72382191D01*
X68018500Y-71769733D01*
X68038502Y-71701612D01*
X68092158Y-71655119D01*
X68100441Y-71651687D01*
X68156204Y-71630889D01*
X68273261Y-71543261D01*
X68296050Y-71512817D01*
X68352886Y-71470271D01*
X68361425Y-71467429D01*
X68373856Y-71463779D01*
X68373857Y-71463778D01*
X68373862Y-71463777D01*
X68430769Y-71434438D01*
X68434791Y-71432542D01*
X68493664Y-71407333D01*
X68523529Y-71387119D01*
X68529982Y-71383290D01*
X68562026Y-71366771D01*
X68612341Y-71327201D01*
X68615969Y-71324552D01*
X68668981Y-71288674D01*
X68694486Y-71263167D01*
X68700075Y-71258206D01*
X68728432Y-71235908D01*
X68770372Y-71187506D01*
X68773394Y-71184260D01*
X69420947Y-70536707D01*
X69436950Y-70523171D01*
X69439215Y-70521559D01*
X69503145Y-70454510D01*
X69531165Y-70426491D01*
X69538156Y-70418022D01*
X69541131Y-70414672D01*
X69564281Y-70390393D01*
X69585303Y-70368346D01*
X69604802Y-70338002D01*
X69609205Y-70331971D01*
X69632179Y-70304149D01*
X69662864Y-70247951D01*
X69665141Y-70244113D01*
X69699756Y-70190254D01*
X69713164Y-70156759D01*
X69716354Y-70149992D01*
X69722250Y-70139196D01*
X69733635Y-70118346D01*
X69746324Y-70078649D01*
X71701500Y-70078649D01*
X71708009Y-70139196D01*
X71708011Y-70139204D01*
X71759110Y-70276202D01*
X71759112Y-70276207D01*
X71846738Y-70393261D01*
X71963792Y-70480887D01*
X71963794Y-70480888D01*
X71963796Y-70480889D01*
X72008854Y-70497695D01*
X72100795Y-70531988D01*
X72100803Y-70531990D01*
X72161350Y-70538499D01*
X72161355Y-70538499D01*
X72161362Y-70538500D01*
X72161368Y-70538500D01*
X74258632Y-70538500D01*
X74258638Y-70538500D01*
X74258645Y-70538499D01*
X74258649Y-70538499D01*
X74319196Y-70531990D01*
X74319199Y-70531989D01*
X74319201Y-70531989D01*
X74456204Y-70480889D01*
X74573261Y-70393261D01*
X74612410Y-70340964D01*
X74660887Y-70276207D01*
X74660887Y-70276206D01*
X74660889Y-70276204D01*
X74711989Y-70139201D01*
X74712449Y-70134927D01*
X74718499Y-70078649D01*
X74718500Y-70078632D01*
X74718500Y-69342000D01*
X74738502Y-69273879D01*
X74792158Y-69227386D01*
X74844500Y-69216000D01*
X75211490Y-69216000D01*
X75279611Y-69236002D01*
X75318731Y-69275853D01*
X75375970Y-69368652D01*
X75375975Y-69368658D01*
X75501341Y-69494024D01*
X75501347Y-69494029D01*
X75501348Y-69494030D01*
X75652262Y-69587115D01*
X75820574Y-69642887D01*
X75924455Y-69653500D01*
X78075544Y-69653499D01*
X78179426Y-69642887D01*
X78347738Y-69587115D01*
X78498652Y-69494030D01*
X78624030Y-69368652D01*
X78717115Y-69217738D01*
X78772887Y-69049426D01*
X78783500Y-68945545D01*
X78783499Y-67269456D01*
X78772887Y-67165574D01*
X78717115Y-66997262D01*
X78624030Y-66846348D01*
X78624029Y-66846347D01*
X78624024Y-66846341D01*
X78498658Y-66720975D01*
X78498652Y-66720970D01*
X78498652Y-66720969D01*
X78347738Y-66627885D01*
X78263581Y-66599998D01*
X78179427Y-66572113D01*
X78179420Y-66572112D01*
X78075553Y-66561500D01*
X75924455Y-66561500D01*
X75820574Y-66572112D01*
X75652261Y-66627885D01*
X75501347Y-66720970D01*
X75501341Y-66720975D01*
X75375975Y-66846341D01*
X75375970Y-66846347D01*
X75356441Y-66878009D01*
X75324921Y-66929112D01*
X75318731Y-66939147D01*
X75265945Y-66986625D01*
X75211490Y-66999000D01*
X74844500Y-66999000D01*
X74776379Y-66978998D01*
X74729886Y-66925342D01*
X74718500Y-66873000D01*
X74718500Y-66181367D01*
X74718499Y-66181350D01*
X74711990Y-66120803D01*
X74711988Y-66120795D01*
X74660889Y-65983797D01*
X74660887Y-65983792D01*
X74573261Y-65866738D01*
X74456207Y-65779112D01*
X74456202Y-65779110D01*
X74319204Y-65728011D01*
X74319196Y-65728009D01*
X74258649Y-65721500D01*
X74258638Y-65721500D01*
X72161362Y-65721500D01*
X72161350Y-65721500D01*
X72100803Y-65728009D01*
X72100795Y-65728011D01*
X71963797Y-65779110D01*
X71963792Y-65779112D01*
X71846738Y-65866738D01*
X71759112Y-65983792D01*
X71759110Y-65983797D01*
X71708011Y-66120795D01*
X71708009Y-66120803D01*
X71701500Y-66181350D01*
X71701500Y-70078649D01*
X69746324Y-70078649D01*
X69753133Y-70057346D01*
X69754638Y-70053162D01*
X69778436Y-69993721D01*
X69785264Y-69958291D01*
X69787110Y-69951058D01*
X69798094Y-69916701D01*
X69805693Y-69853133D01*
X69806385Y-69848705D01*
X69818500Y-69785849D01*
X69818500Y-69749784D01*
X69818946Y-69742299D01*
X69819702Y-69735972D01*
X69823226Y-69706500D01*
X69818677Y-69642886D01*
X69818661Y-69642659D01*
X69818500Y-69638164D01*
X69818500Y-62193071D01*
X69820246Y-62172171D01*
X69820705Y-62169441D01*
X69820705Y-62169440D01*
X69818500Y-62076811D01*
X69818500Y-60183072D01*
X69820246Y-60162172D01*
X69820705Y-60159442D01*
X69820705Y-60159441D01*
X69818500Y-60066811D01*
X69818500Y-60027201D01*
X69818500Y-60027197D01*
X69817454Y-60016252D01*
X69817190Y-60011817D01*
X69815667Y-59947802D01*
X69807999Y-59912557D01*
X69806846Y-59905159D01*
X69806524Y-59901784D01*
X69803419Y-59869261D01*
X69785385Y-59807842D01*
X69784277Y-59803499D01*
X69775876Y-59764883D01*
X69770668Y-59740941D01*
X69756467Y-59707779D01*
X69753934Y-59700731D01*
X69743777Y-59666138D01*
X69718329Y-59616776D01*
X69714451Y-59609253D01*
X69712533Y-59605183D01*
X69687333Y-59546336D01*
X69667115Y-59516464D01*
X69663288Y-59510014D01*
X69646773Y-59477977D01*
X69641199Y-59470889D01*
X69607204Y-59427660D01*
X69604557Y-59424035D01*
X69568675Y-59371019D01*
X69543170Y-59345514D01*
X69538199Y-59339913D01*
X69515908Y-59311567D01*
X69515906Y-59311565D01*
X69467530Y-59269647D01*
X69464251Y-59266595D01*
X68445405Y-58247749D01*
X68411379Y-58185437D01*
X68408500Y-58158654D01*
X68408500Y-57471367D01*
X68408499Y-57471350D01*
X68401990Y-57410803D01*
X68401988Y-57410795D01*
X68354639Y-57283850D01*
X68350889Y-57273796D01*
X68292283Y-57195508D01*
X68267473Y-57128989D01*
X68282564Y-57059615D01*
X68292279Y-57044496D01*
X68350889Y-56966204D01*
X68401989Y-56829201D01*
X68402004Y-56829069D01*
X68408499Y-56768649D01*
X68408500Y-56768632D01*
X68408500Y-55171367D01*
X68408499Y-55171350D01*
X68401990Y-55110803D01*
X68401988Y-55110795D01*
X68367508Y-55018353D01*
X68350889Y-54973796D01*
X68292283Y-54895508D01*
X68267473Y-54828989D01*
X68282564Y-54759615D01*
X68292279Y-54744496D01*
X68350889Y-54666204D01*
X68353913Y-54658096D01*
X68396456Y-54601262D01*
X68462975Y-54576449D01*
X68532350Y-54591539D01*
X68561059Y-54613029D01*
X69354596Y-55406565D01*
X69388620Y-55468876D01*
X69391500Y-55495659D01*
X69391500Y-57626685D01*
X69391385Y-57630488D01*
X69390574Y-57643889D01*
X69387598Y-57693092D01*
X69398902Y-57754782D01*
X69399475Y-57758544D01*
X69407033Y-57820794D01*
X69407034Y-57820798D01*
X69410650Y-57830333D01*
X69416770Y-57852286D01*
X69416964Y-57853346D01*
X69418612Y-57862332D01*
X69444353Y-57919528D01*
X69445809Y-57923043D01*
X69449908Y-57933850D01*
X69468046Y-57981675D01*
X69473840Y-57990069D01*
X69485035Y-58009919D01*
X69489223Y-58019222D01*
X69489225Y-58019226D01*
X69505528Y-58040035D01*
X69527899Y-58068590D01*
X69530154Y-58071655D01*
X69565783Y-58123271D01*
X69565784Y-58123272D01*
X69565785Y-58123273D01*
X69612750Y-58164880D01*
X69615494Y-58167464D01*
X71852533Y-60404503D01*
X71855119Y-60407249D01*
X71896727Y-60454215D01*
X71948348Y-60489846D01*
X71951395Y-60492088D01*
X72000774Y-60530775D01*
X72010070Y-60534958D01*
X72029935Y-60546163D01*
X72038320Y-60551951D01*
X72038322Y-60551952D01*
X72038325Y-60551954D01*
X72038329Y-60551955D01*
X72038332Y-60551957D01*
X72064459Y-60561865D01*
X72096968Y-60574194D01*
X72100473Y-60575646D01*
X72157671Y-60601389D01*
X72167704Y-60603227D01*
X72189668Y-60609351D01*
X72199196Y-60612964D01*
X72199199Y-60612965D01*
X72261470Y-60620525D01*
X72265193Y-60621092D01*
X72326908Y-60632402D01*
X72389519Y-60628614D01*
X72393319Y-60628500D01*
X76004340Y-60628500D01*
X76072461Y-60648502D01*
X76093435Y-60665405D01*
X77137544Y-61709514D01*
X77171570Y-61771826D01*
X77170594Y-61829539D01*
X77155949Y-61887370D01*
X77153589Y-61915852D01*
X77136673Y-62120000D01*
X77151611Y-62300278D01*
X77155950Y-62352633D01*
X77213249Y-62578903D01*
X77213252Y-62578910D01*
X77307015Y-62792668D01*
X77434685Y-62988083D01*
X77592774Y-63159813D01*
X77592778Y-63159817D01*
X77643515Y-63199307D01*
X77776983Y-63303190D01*
X77982273Y-63414287D01*
X78203049Y-63490080D01*
X78433288Y-63528500D01*
X78433292Y-63528500D01*
X78666708Y-63528500D01*
X78666712Y-63528500D01*
X78896951Y-63490080D01*
X79117727Y-63414287D01*
X79323017Y-63303190D01*
X79507220Y-63159818D01*
X79543343Y-63120579D01*
X79665314Y-62988083D01*
X79665313Y-62988082D01*
X79792984Y-62792669D01*
X79886749Y-62578907D01*
X79944051Y-62352626D01*
X79963327Y-62120000D01*
X79944051Y-61887374D01*
X79927211Y-61820875D01*
X79886750Y-61661096D01*
X79886747Y-61661089D01*
X79885414Y-61658051D01*
X79792984Y-61447331D01*
X79785254Y-61435500D01*
X79665314Y-61251916D01*
X79507225Y-61080186D01*
X79507221Y-61080182D01*
X79383004Y-60983500D01*
X79323017Y-60936810D01*
X79117727Y-60825713D01*
X79117724Y-60825712D01*
X79117723Y-60825711D01*
X78896955Y-60749921D01*
X78896948Y-60749919D01*
X78798411Y-60733476D01*
X78666712Y-60711500D01*
X78433288Y-60711500D01*
X78248887Y-60742270D01*
X78178404Y-60733753D01*
X78139054Y-60707084D01*
X77535687Y-60103717D01*
X76867464Y-59435494D01*
X76864880Y-59432750D01*
X76823273Y-59385785D01*
X76823270Y-59385783D01*
X76823271Y-59385783D01*
X76771655Y-59350154D01*
X76768590Y-59347899D01*
X76750146Y-59333449D01*
X76719226Y-59309225D01*
X76719222Y-59309223D01*
X76709919Y-59305035D01*
X76690069Y-59293840D01*
X76681675Y-59288046D01*
X76658705Y-59279334D01*
X76623043Y-59265809D01*
X76619528Y-59264353D01*
X76562332Y-59238612D01*
X76562330Y-59238611D01*
X76562329Y-59238611D01*
X76552286Y-59236770D01*
X76530336Y-59230650D01*
X76520801Y-59227035D01*
X76520800Y-59227034D01*
X76520798Y-59227034D01*
X76520794Y-59227033D01*
X76468362Y-59220667D01*
X76458537Y-59219473D01*
X76454786Y-59218902D01*
X76413760Y-59211385D01*
X76393094Y-59207598D01*
X76393093Y-59207598D01*
X76330488Y-59211385D01*
X76326685Y-59211500D01*
X72715660Y-59211500D01*
X72647539Y-59191498D01*
X72626565Y-59174595D01*
X72044366Y-58592396D01*
X72010340Y-58530084D01*
X72015405Y-58459269D01*
X72057952Y-58402433D01*
X72124472Y-58377622D01*
X72146933Y-58378023D01*
X72151362Y-58378500D01*
X72151368Y-58378500D01*
X74248632Y-58378500D01*
X74248638Y-58378500D01*
X74248645Y-58378499D01*
X74248649Y-58378499D01*
X74309196Y-58371990D01*
X74309199Y-58371989D01*
X74309201Y-58371989D01*
X74446204Y-58320889D01*
X74478787Y-58296498D01*
X74563261Y-58233261D01*
X74650887Y-58116207D01*
X74650887Y-58116206D01*
X74650889Y-58116204D01*
X74701989Y-57979201D01*
X74702233Y-57976938D01*
X74708499Y-57918649D01*
X74708500Y-57918632D01*
X74708500Y-57204500D01*
X74728502Y-57136379D01*
X74782158Y-57089886D01*
X74834500Y-57078500D01*
X75161490Y-57078500D01*
X75229611Y-57098502D01*
X75268730Y-57138352D01*
X75300896Y-57190500D01*
X75325970Y-57231152D01*
X75325975Y-57231158D01*
X75451341Y-57356524D01*
X75451347Y-57356529D01*
X75451348Y-57356530D01*
X75602262Y-57449615D01*
X75770574Y-57505387D01*
X75874455Y-57516000D01*
X78025544Y-57515999D01*
X78129426Y-57505387D01*
X78297738Y-57449615D01*
X78448652Y-57356530D01*
X78574030Y-57231152D01*
X78667115Y-57080238D01*
X78722887Y-56911926D01*
X78733500Y-56808045D01*
X78733499Y-55131956D01*
X78722887Y-55028074D01*
X78667115Y-54859762D01*
X78574030Y-54708848D01*
X78574029Y-54708847D01*
X78574024Y-54708841D01*
X78448658Y-54583475D01*
X78448652Y-54583470D01*
X78437269Y-54576449D01*
X78297738Y-54490385D01*
X78207459Y-54460470D01*
X78129427Y-54434613D01*
X78129420Y-54434612D01*
X78025553Y-54424000D01*
X75874455Y-54424000D01*
X75770574Y-54434612D01*
X75602261Y-54490385D01*
X75451347Y-54583470D01*
X75451341Y-54583475D01*
X75325975Y-54708841D01*
X75325970Y-54708847D01*
X75268731Y-54801647D01*
X75215945Y-54849125D01*
X75161490Y-54861500D01*
X74834500Y-54861500D01*
X74766379Y-54841498D01*
X74719886Y-54787842D01*
X74708500Y-54735500D01*
X74708500Y-54021367D01*
X74708499Y-54021350D01*
X74701990Y-53960803D01*
X74701988Y-53960795D01*
X74650889Y-53823797D01*
X74650887Y-53823792D01*
X74563261Y-53706738D01*
X74446207Y-53619112D01*
X74446202Y-53619110D01*
X74309204Y-53568011D01*
X74309196Y-53568009D01*
X74248649Y-53561500D01*
X74248638Y-53561500D01*
X73148160Y-53561500D01*
X73080039Y-53541498D01*
X73059065Y-53524595D01*
X66125404Y-46590934D01*
X66091378Y-46528622D01*
X66088499Y-46501839D01*
X66088499Y-46180289D01*
X66078324Y-46080690D01*
X66078324Y-46080686D01*
X66024849Y-45919308D01*
X65935600Y-45774613D01*
X65935599Y-45774612D01*
X65935594Y-45774606D01*
X65815393Y-45654405D01*
X65815387Y-45654400D01*
X65670692Y-45565151D01*
X65636349Y-45553771D01*
X65509314Y-45511676D01*
X65509311Y-45511675D01*
X65509309Y-45511675D01*
X65409719Y-45501500D01*
X65409711Y-45501500D01*
X65088160Y-45501500D01*
X65020039Y-45481498D01*
X64999065Y-45464595D01*
X62903419Y-43368949D01*
X60634964Y-41100494D01*
X60632380Y-41097750D01*
X60590773Y-41050785D01*
X60590770Y-41050783D01*
X60590771Y-41050783D01*
X60539155Y-41015154D01*
X60536090Y-41012899D01*
X60506071Y-40989381D01*
X60486726Y-40974225D01*
X60486722Y-40974223D01*
X60477419Y-40970035D01*
X60457569Y-40958840D01*
X60449175Y-40953046D01*
X60426205Y-40944334D01*
X60390543Y-40930809D01*
X60387028Y-40929353D01*
X60329832Y-40903612D01*
X60329830Y-40903611D01*
X60329829Y-40903611D01*
X60319786Y-40901770D01*
X60297836Y-40895650D01*
X60288301Y-40892035D01*
X60288300Y-40892034D01*
X60288298Y-40892034D01*
X60288294Y-40892033D01*
X60235862Y-40885667D01*
X60226037Y-40884473D01*
X60222286Y-40883902D01*
X60181260Y-40876385D01*
X60160594Y-40872598D01*
X60160593Y-40872598D01*
X60097988Y-40876385D01*
X60094185Y-40876500D01*
X49615661Y-40876500D01*
X49547540Y-40856498D01*
X49526566Y-40839595D01*
X49267904Y-40580933D01*
X49233878Y-40518621D01*
X49230999Y-40491838D01*
X49230999Y-40170289D01*
X49223196Y-40093906D01*
X49220824Y-40070686D01*
X49167349Y-39909308D01*
X49142494Y-39869012D01*
X49132400Y-39852646D01*
X49113663Y-39784167D01*
X49134923Y-39716428D01*
X49189430Y-39670937D01*
X49239641Y-39660500D01*
X81963500Y-39660500D01*
X82031621Y-39680502D01*
X82078114Y-39734158D01*
X82089500Y-39786500D01*
X82089500Y-84513500D01*
X82069498Y-84581621D01*
X82015842Y-84628114D01*
X81963500Y-84639500D01*
X24736500Y-84639500D01*
X24668379Y-84619498D01*
X24621886Y-84565842D01*
X24610500Y-84513500D01*
X24610500Y-39786500D01*
X24630502Y-39718379D01*
X24684158Y-39671886D01*
X24736500Y-39660500D01*
X33330500Y-39660500D01*
X33398621Y-39680502D01*
G37*
%TD.AperFunction*%
%TA.AperFunction,Conductor*%
G36*
X55072461Y-78838502D02*
G01*
X55093435Y-78855405D01*
X55213861Y-78975831D01*
X55247887Y-79038143D01*
X55250287Y-79075906D01*
X55237400Y-79223217D01*
X55236807Y-79230000D01*
X55255542Y-79444141D01*
X55311177Y-79651774D01*
X55311179Y-79651780D01*
X55402025Y-79846600D01*
X55449193Y-79913963D01*
X55471881Y-79981237D01*
X55454596Y-80050097D01*
X55402826Y-80098681D01*
X55345980Y-80112233D01*
X48779499Y-80112233D01*
X48711378Y-80092231D01*
X48664885Y-80038575D01*
X48653499Y-79986233D01*
X48653499Y-79862787D01*
X48643062Y-79760619D01*
X48643062Y-79760618D01*
X48588209Y-79595080D01*
X48496658Y-79446654D01*
X48496657Y-79446653D01*
X48496652Y-79446647D01*
X48389099Y-79339094D01*
X48355073Y-79276782D01*
X48360138Y-79205967D01*
X48389095Y-79160908D01*
X48496658Y-79053346D01*
X48496659Y-79053343D01*
X48501847Y-79048156D01*
X48503507Y-79049816D01*
X48552222Y-79015321D01*
X48593118Y-79008500D01*
X48781306Y-79008500D01*
X48849427Y-79028502D01*
X48870396Y-79045400D01*
X48951654Y-79126658D01*
X49100080Y-79218209D01*
X49265619Y-79273062D01*
X49367787Y-79283500D01*
X49967212Y-79283499D01*
X50069381Y-79273062D01*
X50234920Y-79218209D01*
X50383346Y-79126658D01*
X50436396Y-79073608D01*
X50490905Y-79019100D01*
X50553217Y-78985074D01*
X50624032Y-78990139D01*
X50669095Y-79019100D01*
X50776647Y-79126652D01*
X50776652Y-79126656D01*
X50776654Y-79126658D01*
X50925080Y-79218209D01*
X51090619Y-79273062D01*
X51192787Y-79283500D01*
X51792212Y-79283499D01*
X51894381Y-79273062D01*
X52059920Y-79218209D01*
X52208346Y-79126658D01*
X52331658Y-79003346D01*
X52388831Y-78910655D01*
X52408756Y-78878353D01*
X52461542Y-78830875D01*
X52515996Y-78818500D01*
X55004340Y-78818500D01*
X55072461Y-78838502D01*
G37*
%TD.AperFunction*%
%TA.AperFunction,Conductor*%
G36*
X65357011Y-63139307D02*
G01*
X65395395Y-63199033D01*
X65398081Y-63212719D01*
X65398173Y-63212700D01*
X65399612Y-63219422D01*
X65399612Y-63219424D01*
X65399613Y-63219426D01*
X65427369Y-63303189D01*
X65455385Y-63387738D01*
X65548470Y-63538652D01*
X65548475Y-63538658D01*
X65673841Y-63664024D01*
X65673847Y-63664029D01*
X65673848Y-63664030D01*
X65824762Y-63757115D01*
X65993074Y-63812887D01*
X66096955Y-63823500D01*
X67475500Y-63823499D01*
X67543621Y-63843501D01*
X67590114Y-63897157D01*
X67601500Y-63949499D01*
X67601500Y-66745500D01*
X67581498Y-66813621D01*
X67527842Y-66860114D01*
X67475500Y-66871500D01*
X65861350Y-66871500D01*
X65800803Y-66878009D01*
X65800795Y-66878011D01*
X65663797Y-66929110D01*
X65663792Y-66929112D01*
X65546738Y-67016738D01*
X65459112Y-67133792D01*
X65459110Y-67133797D01*
X65408011Y-67270795D01*
X65408009Y-67270803D01*
X65401500Y-67331350D01*
X65401500Y-68928649D01*
X65408009Y-68989196D01*
X65408011Y-68989204D01*
X65459110Y-69126202D01*
X65459113Y-69126207D01*
X65517715Y-69204491D01*
X65542526Y-69271011D01*
X65527434Y-69340386D01*
X65517715Y-69355509D01*
X65459113Y-69433792D01*
X65459110Y-69433797D01*
X65408011Y-69570795D01*
X65408009Y-69570803D01*
X65401500Y-69631350D01*
X65401500Y-71228649D01*
X65408009Y-71289196D01*
X65408011Y-71289204D01*
X65459110Y-71426202D01*
X65459112Y-71426207D01*
X65546738Y-71543261D01*
X65663792Y-71630887D01*
X65663794Y-71630888D01*
X65663796Y-71630889D01*
X65693198Y-71641855D01*
X65719532Y-71651678D01*
X65776368Y-71694225D01*
X65801178Y-71760745D01*
X65801499Y-71769733D01*
X65801499Y-72440788D01*
X65781497Y-72508909D01*
X65741647Y-72548028D01*
X65696347Y-72575969D01*
X65570975Y-72701341D01*
X65570970Y-72701347D01*
X65477885Y-72852262D01*
X65422113Y-73020572D01*
X65422112Y-73020579D01*
X65411500Y-73124446D01*
X65411500Y-75275544D01*
X65422112Y-75379425D01*
X65477885Y-75547738D01*
X65570970Y-75698652D01*
X65570975Y-75698658D01*
X65696341Y-75824024D01*
X65696347Y-75824029D01*
X65696348Y-75824030D01*
X65847262Y-75917115D01*
X66015574Y-75972887D01*
X66119455Y-75983500D01*
X66385501Y-75983499D01*
X66453620Y-76003501D01*
X66500113Y-76057156D01*
X66511500Y-76109499D01*
X66511499Y-77409037D01*
X66491497Y-77477158D01*
X66483537Y-77488186D01*
X66473773Y-77500279D01*
X66473770Y-77500283D01*
X66473770Y-77500284D01*
X66455370Y-77533222D01*
X66359329Y-77705142D01*
X66281158Y-77926385D01*
X66241500Y-78157674D01*
X66241500Y-78783558D01*
X66256415Y-78958805D01*
X66256417Y-78958818D01*
X66315540Y-79185884D01*
X66315543Y-79185891D01*
X66315544Y-79185894D01*
X66412199Y-79399718D01*
X66543600Y-79594132D01*
X66543602Y-79594134D01*
X66543605Y-79594138D01*
X66703167Y-79760622D01*
X66705967Y-79763543D01*
X66870092Y-79884930D01*
X66912967Y-79941518D01*
X66918441Y-80012303D01*
X66884778Y-80074811D01*
X66822663Y-80109196D01*
X66795168Y-80112233D01*
X60134020Y-80112233D01*
X60065899Y-80092231D01*
X60019406Y-80038575D01*
X60009302Y-79968301D01*
X60030807Y-79913963D01*
X60077974Y-79846600D01*
X60077974Y-79846599D01*
X60077976Y-79846597D01*
X60168822Y-79651777D01*
X60224458Y-79444142D01*
X60243193Y-79230000D01*
X60224458Y-79015858D01*
X60168822Y-78808223D01*
X60077976Y-78613404D01*
X60077975Y-78613403D01*
X60077974Y-78613400D01*
X59982949Y-78477689D01*
X59960261Y-78410415D01*
X59977546Y-78341555D01*
X59997063Y-78316328D01*
X64943803Y-73369589D01*
X64980547Y-73332845D01*
X64983202Y-73325994D01*
X64998540Y-73301584D01*
X65002615Y-73295838D01*
X65028908Y-73262870D01*
X65047196Y-73224890D01*
X65050605Y-73218721D01*
X65073043Y-73183015D01*
X65086969Y-73143214D01*
X65089664Y-73136708D01*
X65107959Y-73098721D01*
X65117338Y-73057620D01*
X65119293Y-73050835D01*
X65133217Y-73011047D01*
X65137935Y-72969163D01*
X65139119Y-72962193D01*
X65148500Y-72921097D01*
X65148500Y-72738904D01*
X65148500Y-63234527D01*
X65168501Y-63166410D01*
X65222157Y-63119917D01*
X65292431Y-63109813D01*
X65357011Y-63139307D01*
G37*
%TD.AperFunction*%
%TA.AperFunction,Conductor*%
G36*
X61678065Y-70361249D02*
G01*
X61690679Y-70374978D01*
X61693345Y-70378350D01*
X61816647Y-70501652D01*
X61816653Y-70501657D01*
X61816654Y-70501658D01*
X61965080Y-70593209D01*
X62130619Y-70648062D01*
X62232787Y-70658500D01*
X62807212Y-70658499D01*
X62909381Y-70648062D01*
X63074920Y-70593209D01*
X63223346Y-70501658D01*
X63244117Y-70480887D01*
X63316405Y-70408600D01*
X63378717Y-70374574D01*
X63449532Y-70379639D01*
X63506368Y-70422186D01*
X63531179Y-70488706D01*
X63531500Y-70497695D01*
X63531500Y-72442917D01*
X63511498Y-72511038D01*
X63494595Y-72532012D01*
X58493383Y-77533222D01*
X58431071Y-77567248D01*
X58360255Y-77562183D01*
X58315193Y-77533222D01*
X57878894Y-77096923D01*
X56397464Y-75615494D01*
X56394880Y-75612750D01*
X56353273Y-75565785D01*
X56353270Y-75565783D01*
X56353271Y-75565783D01*
X56301655Y-75530154D01*
X56298590Y-75527899D01*
X56280146Y-75513449D01*
X56249226Y-75489225D01*
X56249222Y-75489223D01*
X56239919Y-75485035D01*
X56220069Y-75473840D01*
X56211675Y-75468046D01*
X56188705Y-75459334D01*
X56153043Y-75445809D01*
X56149528Y-75444353D01*
X56092332Y-75418612D01*
X56092330Y-75418611D01*
X56092329Y-75418611D01*
X56082286Y-75416770D01*
X56060336Y-75410650D01*
X56050801Y-75407035D01*
X56050800Y-75407034D01*
X56050798Y-75407034D01*
X56050794Y-75407033D01*
X55998362Y-75400667D01*
X55988537Y-75399473D01*
X55984786Y-75398902D01*
X55943760Y-75391385D01*
X55923094Y-75387598D01*
X55923093Y-75387598D01*
X55860488Y-75391385D01*
X55856685Y-75391500D01*
X54118425Y-75391500D01*
X54050304Y-75371498D01*
X54003811Y-75317842D01*
X53993707Y-75247568D01*
X54004230Y-75212251D01*
X54024280Y-75169251D01*
X54024284Y-75169243D01*
X54083543Y-74948087D01*
X54103498Y-74720000D01*
X54083543Y-74491913D01*
X54074011Y-74456340D01*
X54075699Y-74385369D01*
X54106620Y-74334638D01*
X55844386Y-72596872D01*
X55857129Y-72586665D01*
X55856969Y-72586471D01*
X55863074Y-72581419D01*
X55863080Y-72581416D01*
X55912945Y-72528314D01*
X55934927Y-72506333D01*
X55939470Y-72500475D01*
X55943308Y-72495980D01*
X55976972Y-72460133D01*
X55987310Y-72441327D01*
X55998152Y-72424823D01*
X56011304Y-72407868D01*
X56030832Y-72362737D01*
X56033441Y-72357414D01*
X56057124Y-72314337D01*
X56058562Y-72308735D01*
X56094867Y-72247726D01*
X56158396Y-72216029D01*
X56228975Y-72223710D01*
X56269701Y-72250961D01*
X56603125Y-72584385D01*
X56613338Y-72597131D01*
X56613531Y-72596972D01*
X56618583Y-72603079D01*
X56618584Y-72603080D01*
X56671685Y-72652945D01*
X56693667Y-72674927D01*
X56693675Y-72674933D01*
X56699517Y-72679465D01*
X56704033Y-72683322D01*
X56739867Y-72716972D01*
X56758669Y-72727308D01*
X56775175Y-72738151D01*
X56792132Y-72751304D01*
X56837269Y-72770837D01*
X56842569Y-72773433D01*
X56885663Y-72797124D01*
X56899950Y-72800792D01*
X56906429Y-72802456D01*
X56925132Y-72808859D01*
X56929886Y-72810916D01*
X56944823Y-72817380D01*
X56993399Y-72825073D01*
X56999191Y-72826273D01*
X57017922Y-72831082D01*
X57046811Y-72838500D01*
X57046812Y-72838500D01*
X57068258Y-72838500D01*
X57087967Y-72840051D01*
X57092507Y-72840769D01*
X57109152Y-72843406D01*
X57146880Y-72839839D01*
X57158094Y-72838780D01*
X57164027Y-72838500D01*
X59208112Y-72838500D01*
X59276233Y-72858502D01*
X59311323Y-72892227D01*
X59360314Y-72962193D01*
X59401196Y-73020579D01*
X59403802Y-73024300D01*
X59565700Y-73186198D01*
X59753251Y-73317523D01*
X59960757Y-73414284D01*
X60181913Y-73473543D01*
X60410000Y-73493498D01*
X60638087Y-73473543D01*
X60859243Y-73414284D01*
X61066749Y-73317523D01*
X61254300Y-73186198D01*
X61416198Y-73024300D01*
X61547523Y-72836749D01*
X61644284Y-72629243D01*
X61703543Y-72408087D01*
X61723498Y-72180000D01*
X61703543Y-71951913D01*
X61644284Y-71730757D01*
X61547523Y-71523251D01*
X61416198Y-71335700D01*
X61254300Y-71173802D01*
X61066749Y-71042477D01*
X61027543Y-71024195D01*
X60974258Y-70977279D01*
X60954796Y-70909002D01*
X60975337Y-70841042D01*
X61027543Y-70795805D01*
X61029997Y-70794660D01*
X61066749Y-70777523D01*
X61254300Y-70646198D01*
X61416198Y-70484300D01*
X61488632Y-70380853D01*
X61544085Y-70336528D01*
X61614704Y-70329219D01*
X61678065Y-70361249D01*
G37*
%TD.AperFunction*%
%TA.AperFunction,Conductor*%
G36*
X46663191Y-57872233D02*
G01*
X46720027Y-57914780D01*
X46735569Y-57942077D01*
X46737830Y-57947535D01*
X46739593Y-57951791D01*
X46747176Y-58022382D01*
X46739591Y-58048211D01*
X46732162Y-58066148D01*
X46716500Y-58185113D01*
X46716500Y-58464883D01*
X46716501Y-58464892D01*
X46726936Y-58544150D01*
X46732162Y-58583850D01*
X46734476Y-58589437D01*
X46739591Y-58601786D01*
X46747177Y-58672376D01*
X46739591Y-58698214D01*
X46732161Y-58716151D01*
X46716500Y-58835113D01*
X46716500Y-59114883D01*
X46716501Y-59114892D01*
X46728706Y-59207598D01*
X46732162Y-59233850D01*
X46736640Y-59244662D01*
X46739591Y-59251786D01*
X46747177Y-59322376D01*
X46739591Y-59348214D01*
X46732161Y-59366151D01*
X46716500Y-59485113D01*
X46716500Y-59764883D01*
X46716501Y-59764892D01*
X46722158Y-59807858D01*
X46732162Y-59883850D01*
X46732163Y-59883852D01*
X46739590Y-59901784D01*
X46747177Y-59972374D01*
X46739591Y-59998211D01*
X46732162Y-60016148D01*
X46716500Y-60135113D01*
X46716500Y-60414883D01*
X46716501Y-60414892D01*
X46726368Y-60489837D01*
X46732162Y-60533850D01*
X46793476Y-60681876D01*
X46793477Y-60681878D01*
X46820377Y-60716934D01*
X46891013Y-60808987D01*
X47018124Y-60906524D01*
X47166150Y-60967838D01*
X47285115Y-60983500D01*
X48411445Y-60983499D01*
X48479566Y-61003501D01*
X48500540Y-61020404D01*
X52179410Y-64699274D01*
X52213436Y-64761586D01*
X52208371Y-64832401D01*
X52170249Y-64885768D01*
X52063432Y-64973431D01*
X51937405Y-65126995D01*
X51843759Y-65302195D01*
X51786090Y-65492305D01*
X51766620Y-65689996D01*
X51766620Y-65690003D01*
X51786090Y-65887694D01*
X51843760Y-66077809D01*
X51846083Y-66083416D01*
X51853673Y-66154005D01*
X51821895Y-66217493D01*
X51818772Y-66220729D01*
X51783799Y-66255702D01*
X51762605Y-66285971D01*
X51707148Y-66330299D01*
X51636528Y-66337607D01*
X51573168Y-66305575D01*
X51570328Y-66302824D01*
X51493346Y-66225842D01*
X51344920Y-66134291D01*
X51179381Y-66079438D01*
X51179379Y-66079437D01*
X51179377Y-66079437D01*
X51077221Y-66069000D01*
X51077213Y-66069000D01*
X50727449Y-66069000D01*
X50659328Y-66048998D01*
X50638354Y-66032095D01*
X46922185Y-62315925D01*
X46888159Y-62253613D01*
X46885932Y-62239635D01*
X46884664Y-62227225D01*
X46875824Y-62140686D01*
X46822349Y-61979308D01*
X46733100Y-61834613D01*
X46733099Y-61834612D01*
X46733094Y-61834606D01*
X46612893Y-61714405D01*
X46612887Y-61714400D01*
X46468192Y-61625151D01*
X46306814Y-61571676D01*
X46306811Y-61571675D01*
X46306809Y-61571675D01*
X46207219Y-61561500D01*
X45672789Y-61561500D01*
X45573190Y-61571675D01*
X45573187Y-61571675D01*
X45573186Y-61571676D01*
X45493223Y-61598172D01*
X45411807Y-61625151D01*
X45267112Y-61714400D01*
X45267106Y-61714405D01*
X45146905Y-61834606D01*
X45146900Y-61834612D01*
X45057651Y-61979307D01*
X45004175Y-62140689D01*
X45002847Y-62153691D01*
X44976024Y-62219425D01*
X44917920Y-62260223D01*
X44846983Y-62263131D01*
X44785735Y-62227225D01*
X44753622Y-62163906D01*
X44752152Y-62153685D01*
X44750824Y-62140690D01*
X44750824Y-62140689D01*
X44750824Y-62140686D01*
X44697349Y-61979308D01*
X44608100Y-61834613D01*
X44608099Y-61834612D01*
X44608094Y-61834606D01*
X44487893Y-61714405D01*
X44487887Y-61714400D01*
X44343192Y-61625151D01*
X44343191Y-61625151D01*
X44181814Y-61571676D01*
X44181811Y-61571675D01*
X44181809Y-61571675D01*
X44082219Y-61561500D01*
X44082211Y-61561500D01*
X44059500Y-61561500D01*
X43991379Y-61541498D01*
X43944886Y-61487842D01*
X43933500Y-61435500D01*
X43933500Y-60549948D01*
X43953502Y-60481827D01*
X43970400Y-60460858D01*
X46530066Y-57901192D01*
X46592376Y-57867168D01*
X46663191Y-57872233D01*
G37*
%TD.AperFunction*%
%TA.AperFunction,Conductor*%
G36*
X66122011Y-48591934D02*
G01*
X66128594Y-48598064D01*
X71654595Y-54124065D01*
X71688621Y-54186377D01*
X71691500Y-54213160D01*
X71691500Y-57918632D01*
X71691501Y-57918654D01*
X71691976Y-57923072D01*
X71679369Y-57992940D01*
X71630989Y-58044901D01*
X71562198Y-58062458D01*
X71494835Y-58040035D01*
X71477603Y-58025633D01*
X70845405Y-57393435D01*
X70811379Y-57331123D01*
X70808500Y-57304340D01*
X70808500Y-55173313D01*
X70808615Y-55169508D01*
X70809280Y-55158517D01*
X70812402Y-55106907D01*
X70801090Y-55045182D01*
X70800527Y-55041478D01*
X70792965Y-54979199D01*
X70792701Y-54978502D01*
X70789351Y-54969668D01*
X70783227Y-54947702D01*
X70781389Y-54937671D01*
X70755646Y-54880473D01*
X70754189Y-54876956D01*
X70731957Y-54818332D01*
X70731955Y-54818329D01*
X70731954Y-54818325D01*
X70726163Y-54809935D01*
X70714958Y-54790070D01*
X70710775Y-54780774D01*
X70672088Y-54731395D01*
X70669846Y-54728348D01*
X70634215Y-54676727D01*
X70622340Y-54666207D01*
X70592060Y-54639381D01*
X70587249Y-54635119D01*
X70584503Y-54632533D01*
X69137464Y-53185494D01*
X69134880Y-53182750D01*
X69093273Y-53135785D01*
X69093270Y-53135783D01*
X69093271Y-53135783D01*
X69041655Y-53100154D01*
X69038590Y-53097899D01*
X69020146Y-53083449D01*
X68989226Y-53059225D01*
X68989222Y-53059223D01*
X68979919Y-53055035D01*
X68960069Y-53043840D01*
X68951675Y-53038046D01*
X68928705Y-53029334D01*
X68893043Y-53015809D01*
X68889528Y-53014353D01*
X68832332Y-52988612D01*
X68832330Y-52988611D01*
X68832329Y-52988611D01*
X68822286Y-52986770D01*
X68800336Y-52980650D01*
X68790801Y-52977035D01*
X68790800Y-52977034D01*
X68790798Y-52977034D01*
X68790794Y-52977033D01*
X68738362Y-52970667D01*
X68728537Y-52969473D01*
X68724786Y-52968902D01*
X68683760Y-52961385D01*
X68663094Y-52957598D01*
X68663093Y-52957598D01*
X68600488Y-52961385D01*
X68596685Y-52961500D01*
X68531371Y-52961500D01*
X68463250Y-52941498D01*
X68416757Y-52887842D01*
X68406093Y-52848968D01*
X68401990Y-52810803D01*
X68401988Y-52810795D01*
X68350889Y-52673797D01*
X68350887Y-52673792D01*
X68263261Y-52556738D01*
X68146207Y-52469112D01*
X68146202Y-52469110D01*
X68009204Y-52418011D01*
X68009196Y-52418009D01*
X67948649Y-52411500D01*
X67948638Y-52411500D01*
X65851362Y-52411500D01*
X65851350Y-52411500D01*
X65790803Y-52418009D01*
X65790795Y-52418011D01*
X65653797Y-52469110D01*
X65653792Y-52469112D01*
X65536738Y-52556738D01*
X65449112Y-52673792D01*
X65449110Y-52673797D01*
X65398011Y-52810795D01*
X65398009Y-52810803D01*
X65391500Y-52871350D01*
X65391500Y-54468649D01*
X65398009Y-54529196D01*
X65398011Y-54529204D01*
X65449110Y-54666202D01*
X65449113Y-54666207D01*
X65507715Y-54744491D01*
X65532526Y-54811011D01*
X65517434Y-54880386D01*
X65507715Y-54895509D01*
X65449113Y-54973792D01*
X65449110Y-54973797D01*
X65398011Y-55110795D01*
X65398009Y-55110803D01*
X65391500Y-55171350D01*
X65391500Y-56032917D01*
X65371498Y-56101038D01*
X65354595Y-56122012D01*
X63814996Y-57661610D01*
X63814994Y-57661613D01*
X63703892Y-57772714D01*
X63703889Y-57772717D01*
X63681466Y-57808404D01*
X63677376Y-57814169D01*
X63651090Y-57847129D01*
X63632802Y-57885105D01*
X63629383Y-57891292D01*
X63606957Y-57926983D01*
X63593035Y-57966769D01*
X63590331Y-57973298D01*
X63572040Y-58011282D01*
X63572039Y-58011283D01*
X63562660Y-58052375D01*
X63560704Y-58059165D01*
X63546782Y-58098953D01*
X63542063Y-58140842D01*
X63540878Y-58147811D01*
X63531499Y-58188901D01*
X63531500Y-58234594D01*
X63531499Y-63589804D01*
X63511497Y-63657925D01*
X63457841Y-63704418D01*
X63387567Y-63714521D01*
X63322987Y-63685028D01*
X63316404Y-63678899D01*
X63223352Y-63585847D01*
X63223346Y-63585842D01*
X63216608Y-63581686D01*
X63074920Y-63494291D01*
X62909381Y-63439438D01*
X62909379Y-63439437D01*
X62909377Y-63439437D01*
X62807221Y-63429000D01*
X62232787Y-63429000D01*
X62130618Y-63439438D01*
X62014875Y-63477790D01*
X61977789Y-63490080D01*
X61971605Y-63492129D01*
X61900651Y-63494569D01*
X61842878Y-63461619D01*
X60968166Y-62586907D01*
X60934140Y-62524595D01*
X60935116Y-62466882D01*
X60964051Y-62352626D01*
X60983327Y-62120000D01*
X60964051Y-61887374D01*
X60947211Y-61820875D01*
X60906750Y-61661096D01*
X60906747Y-61661089D01*
X60905414Y-61658051D01*
X60812984Y-61447331D01*
X60805254Y-61435500D01*
X60685314Y-61251916D01*
X60527225Y-61080186D01*
X60527221Y-61080182D01*
X60403004Y-60983500D01*
X60343017Y-60936810D01*
X60137727Y-60825713D01*
X60137724Y-60825712D01*
X60137723Y-60825711D01*
X59916955Y-60749921D01*
X59916948Y-60749919D01*
X59818411Y-60733476D01*
X59686712Y-60711500D01*
X59453288Y-60711500D01*
X59338066Y-60730727D01*
X59223051Y-60749919D01*
X59223044Y-60749921D01*
X59002276Y-60825711D01*
X59002273Y-60825713D01*
X58978100Y-60838795D01*
X58796985Y-60936809D01*
X58796983Y-60936810D01*
X58612778Y-61080182D01*
X58612774Y-61080186D01*
X58454685Y-61251916D01*
X58327015Y-61447331D01*
X58233252Y-61661089D01*
X58233249Y-61661096D01*
X58175950Y-61887366D01*
X58175950Y-61887370D01*
X58175949Y-61887374D01*
X58156673Y-62120000D01*
X58171611Y-62300278D01*
X58175950Y-62352633D01*
X58233249Y-62578903D01*
X58233252Y-62578910D01*
X58327015Y-62792668D01*
X58454685Y-62988083D01*
X58612774Y-63159813D01*
X58612778Y-63159817D01*
X58663515Y-63199307D01*
X58796983Y-63303190D01*
X58901379Y-63359686D01*
X58951770Y-63409699D01*
X58967122Y-63479016D01*
X58942561Y-63545629D01*
X58885886Y-63588389D01*
X58841410Y-63596500D01*
X58305287Y-63596500D01*
X58203119Y-63606937D01*
X58037579Y-63661791D01*
X57889153Y-63753342D01*
X57889147Y-63753347D01*
X57765847Y-63876647D01*
X57765842Y-63876653D01*
X57674291Y-64025080D01*
X57619437Y-64190622D01*
X57609000Y-64292778D01*
X57609000Y-64521838D01*
X57588998Y-64589959D01*
X57572095Y-64610933D01*
X57518111Y-64664917D01*
X57455799Y-64698943D01*
X57416668Y-64701215D01*
X57370006Y-64696620D01*
X57369997Y-64696620D01*
X57172305Y-64716090D01*
X57028959Y-64759573D01*
X56957965Y-64760206D01*
X56912067Y-64736081D01*
X56885953Y-64714477D01*
X56881572Y-64710491D01*
X50879497Y-58708417D01*
X50845472Y-58646105D01*
X50850537Y-58575290D01*
X50893084Y-58518454D01*
X50959604Y-58493643D01*
X51028978Y-58508734D01*
X51029295Y-58508908D01*
X51034865Y-58511970D01*
X51034867Y-58511972D01*
X51053666Y-58522307D01*
X51070175Y-58533151D01*
X51087132Y-58546304D01*
X51132269Y-58565837D01*
X51137569Y-58568433D01*
X51180663Y-58592124D01*
X51194950Y-58595792D01*
X51201429Y-58597456D01*
X51220132Y-58603859D01*
X51224886Y-58605916D01*
X51239823Y-58612380D01*
X51288399Y-58620073D01*
X51294191Y-58621273D01*
X51312922Y-58626082D01*
X51341811Y-58633500D01*
X51341812Y-58633500D01*
X51363258Y-58633500D01*
X51382967Y-58635051D01*
X51387507Y-58635769D01*
X51404152Y-58638406D01*
X51441880Y-58634839D01*
X51453094Y-58633780D01*
X51459027Y-58633500D01*
X53078389Y-58633500D01*
X53094620Y-58635291D01*
X53094644Y-58635042D01*
X53102536Y-58635788D01*
X53102536Y-58635787D01*
X53102537Y-58635788D01*
X53175342Y-58633500D01*
X53206432Y-58633500D01*
X53213779Y-58632571D01*
X53219682Y-58632106D01*
X53268831Y-58630562D01*
X53289421Y-58624579D01*
X53308776Y-58620571D01*
X53330064Y-58617882D01*
X53375796Y-58599775D01*
X53381380Y-58597863D01*
X53428600Y-58584145D01*
X53432715Y-58581711D01*
X53447052Y-58573232D01*
X53464813Y-58564530D01*
X53484756Y-58556635D01*
X53524537Y-58527730D01*
X53529487Y-58524480D01*
X53550637Y-58511972D01*
X53571807Y-58499453D01*
X53586977Y-58484281D01*
X53602005Y-58471447D01*
X53619357Y-58458841D01*
X53650702Y-58420950D01*
X53654670Y-58416588D01*
X53900857Y-58170401D01*
X53963167Y-58136378D01*
X53989950Y-58133499D01*
X54339712Y-58133499D01*
X54441881Y-58123062D01*
X54607420Y-58068209D01*
X54755846Y-57976658D01*
X54879158Y-57853346D01*
X54970709Y-57704920D01*
X55025562Y-57539381D01*
X55036000Y-57437213D01*
X55035999Y-56862788D01*
X55032567Y-56829196D01*
X55025562Y-56760619D01*
X55018226Y-56738480D01*
X54970709Y-56595080D01*
X54879158Y-56446654D01*
X54879157Y-56446653D01*
X54879152Y-56446647D01*
X54816099Y-56383594D01*
X54782073Y-56321282D01*
X54787138Y-56250467D01*
X54829685Y-56193631D01*
X54896205Y-56168820D01*
X54905194Y-56168499D01*
X54939710Y-56168499D01*
X55039314Y-56158324D01*
X55200692Y-56104849D01*
X55345387Y-56015600D01*
X55465600Y-55895387D01*
X55554849Y-55750692D01*
X55608324Y-55589314D01*
X55618500Y-55489711D01*
X55618499Y-54955290D01*
X55618498Y-54955284D01*
X55618403Y-54953413D01*
X55618499Y-54953011D01*
X55618499Y-54952082D01*
X55618721Y-54952082D01*
X55634912Y-54884363D01*
X55686132Y-54835199D01*
X55744240Y-54821000D01*
X56230571Y-54821000D01*
X56298692Y-54841002D01*
X56345185Y-54894658D01*
X56350175Y-54907366D01*
X56361791Y-54942420D01*
X56450756Y-55086654D01*
X56453342Y-55090846D01*
X56453347Y-55090852D01*
X56576647Y-55214152D01*
X56576653Y-55214157D01*
X56576654Y-55214158D01*
X56725080Y-55305709D01*
X56890619Y-55360562D01*
X56992787Y-55371000D01*
X57567212Y-55370999D01*
X57669381Y-55360562D01*
X57834920Y-55305709D01*
X57983346Y-55214158D01*
X58106658Y-55090846D01*
X58151373Y-55018351D01*
X58204158Y-54970875D01*
X58258613Y-54958500D01*
X58993805Y-54958500D01*
X59061926Y-54978502D01*
X59082900Y-54995404D01*
X59160901Y-55073405D01*
X59194925Y-55135715D01*
X59189861Y-55206531D01*
X59160901Y-55251594D01*
X59053342Y-55359153D01*
X58961791Y-55507580D01*
X58906937Y-55673122D01*
X58896500Y-55775278D01*
X58896500Y-56374712D01*
X58906937Y-56476880D01*
X58961791Y-56642420D01*
X59053342Y-56790846D01*
X59053347Y-56790852D01*
X59067150Y-56804655D01*
X59101176Y-56866967D01*
X59096111Y-56937782D01*
X59067150Y-56982845D01*
X58978347Y-57071647D01*
X58978342Y-57071653D01*
X58886791Y-57220080D01*
X58831937Y-57385622D01*
X58821500Y-57487778D01*
X58821500Y-58062212D01*
X58831937Y-58164380D01*
X58886791Y-58329920D01*
X58978342Y-58478346D01*
X58978347Y-58478352D01*
X59101647Y-58601652D01*
X59101653Y-58601657D01*
X59101654Y-58601658D01*
X59250080Y-58693209D01*
X59415619Y-58748062D01*
X59517787Y-58758500D01*
X60217212Y-58758499D01*
X60319381Y-58748062D01*
X60484920Y-58693209D01*
X60633346Y-58601658D01*
X60756658Y-58478346D01*
X60848209Y-58329920D01*
X60903062Y-58164381D01*
X60913500Y-58062213D01*
X60913499Y-57487788D01*
X60909599Y-57449615D01*
X60903062Y-57385619D01*
X60885004Y-57331123D01*
X60848209Y-57220080D01*
X60756658Y-57071654D01*
X60756657Y-57071653D01*
X60756652Y-57071647D01*
X60680350Y-56995345D01*
X60646324Y-56933033D01*
X60651389Y-56862218D01*
X60680350Y-56817155D01*
X60706652Y-56790852D01*
X60706658Y-56790846D01*
X60798209Y-56642420D01*
X60853062Y-56476881D01*
X60863500Y-56374713D01*
X60863499Y-55775288D01*
X60853062Y-55673119D01*
X60798209Y-55507580D01*
X60706658Y-55359154D01*
X60706657Y-55359153D01*
X60706652Y-55359147D01*
X60639149Y-55291644D01*
X60605123Y-55229332D01*
X60610188Y-55158517D01*
X60652735Y-55101681D01*
X60719255Y-55076870D01*
X60788629Y-55091961D01*
X60794375Y-55095298D01*
X60912580Y-55168209D01*
X61078119Y-55223062D01*
X61180287Y-55233500D01*
X61779712Y-55233499D01*
X61881881Y-55223062D01*
X62047420Y-55168209D01*
X62059497Y-55160759D01*
X62127973Y-55142019D01*
X62195713Y-55163276D01*
X62241207Y-55217782D01*
X62250011Y-55288230D01*
X62245251Y-55307630D01*
X62214437Y-55400622D01*
X62204000Y-55502778D01*
X62204000Y-56077212D01*
X62214437Y-56179380D01*
X62269291Y-56344920D01*
X62360842Y-56493346D01*
X62360847Y-56493352D01*
X62484147Y-56616652D01*
X62484153Y-56616657D01*
X62484154Y-56616658D01*
X62632580Y-56708209D01*
X62798119Y-56763062D01*
X62900287Y-56773500D01*
X63599712Y-56773499D01*
X63701881Y-56763062D01*
X63867420Y-56708209D01*
X64015846Y-56616658D01*
X64139158Y-56493346D01*
X64230709Y-56344920D01*
X64285562Y-56179381D01*
X64296000Y-56077213D01*
X64295999Y-55502788D01*
X64285562Y-55400619D01*
X64230709Y-55235080D01*
X64141344Y-55090198D01*
X64122607Y-55021721D01*
X64141345Y-54957905D01*
X64144155Y-54953348D01*
X64144158Y-54953346D01*
X64235709Y-54804920D01*
X64290562Y-54639381D01*
X64301000Y-54537213D01*
X64300999Y-53962788D01*
X64300795Y-53960795D01*
X64290562Y-53860619D01*
X64258143Y-53762783D01*
X64235709Y-53695080D01*
X64144158Y-53546654D01*
X64144157Y-53546653D01*
X64144152Y-53546647D01*
X64020846Y-53423341D01*
X64015088Y-53418788D01*
X64016387Y-53417144D01*
X63975873Y-53372099D01*
X63963500Y-53317647D01*
X63963500Y-51792296D01*
X63981046Y-51728158D01*
X64059145Y-51596101D01*
X64105562Y-51436331D01*
X64108500Y-51399002D01*
X64108500Y-50240998D01*
X64108420Y-50239986D01*
X64105562Y-50203670D01*
X64095301Y-50168351D01*
X64059145Y-50043899D01*
X64059143Y-50043897D01*
X64059143Y-50043894D01*
X63974455Y-49900696D01*
X63974450Y-49900689D01*
X63856810Y-49783049D01*
X63855536Y-49782061D01*
X63854792Y-49781031D01*
X63851202Y-49777441D01*
X63851781Y-49776861D01*
X63813968Y-49724506D01*
X63810116Y-49653614D01*
X63845202Y-49591893D01*
X63855536Y-49582939D01*
X63856803Y-49581955D01*
X63856807Y-49581953D01*
X63974453Y-49464307D01*
X64015274Y-49395281D01*
X64067166Y-49346830D01*
X64137016Y-49334125D01*
X64202648Y-49361200D01*
X64212822Y-49370327D01*
X64226647Y-49384152D01*
X64226653Y-49384157D01*
X64226654Y-49384158D01*
X64375080Y-49475709D01*
X64540619Y-49530562D01*
X64642787Y-49541000D01*
X65217212Y-49540999D01*
X65319381Y-49530562D01*
X65484920Y-49475709D01*
X65633346Y-49384158D01*
X65756658Y-49260846D01*
X65848209Y-49112420D01*
X65903062Y-48946881D01*
X65913500Y-48844713D01*
X65913499Y-48687157D01*
X65933501Y-48619039D01*
X65987156Y-48572546D01*
X66057430Y-48562441D01*
X66122011Y-48591934D01*
G37*
%TD.AperFunction*%
%TA.AperFunction,Conductor*%
G36*
X43695926Y-39680502D02*
G01*
X43742419Y-39734158D01*
X43752523Y-39804432D01*
X43723029Y-39869012D01*
X43716900Y-39875595D01*
X43695847Y-39896647D01*
X43695842Y-39896653D01*
X43604291Y-40045080D01*
X43549437Y-40210622D01*
X43539000Y-40312778D01*
X43539000Y-40887212D01*
X43549437Y-40989380D01*
X43604291Y-41154920D01*
X43695842Y-41303346D01*
X43700395Y-41309104D01*
X43698240Y-41310807D01*
X43726176Y-41361967D01*
X43721111Y-41432782D01*
X43697046Y-41470225D01*
X43697895Y-41470896D01*
X43693342Y-41476653D01*
X43601791Y-41625080D01*
X43546937Y-41790622D01*
X43536500Y-41892778D01*
X43536500Y-42467212D01*
X43546937Y-42569380D01*
X43567559Y-42631613D01*
X43601791Y-42734920D01*
X43690604Y-42878907D01*
X43709341Y-42947385D01*
X43688082Y-43015124D01*
X43672462Y-43034145D01*
X43663888Y-43042719D01*
X43566958Y-43196982D01*
X43566957Y-43196984D01*
X43566957Y-43196985D01*
X43506783Y-43368953D01*
X43491500Y-43504594D01*
X43491500Y-44795406D01*
X43506783Y-44931047D01*
X43506784Y-44931049D01*
X43566957Y-45103015D01*
X43566958Y-45103018D01*
X43663887Y-45257279D01*
X43663888Y-45257281D01*
X43792718Y-45386111D01*
X43792720Y-45386112D01*
X43946981Y-45483041D01*
X43946982Y-45483041D01*
X43946985Y-45483043D01*
X44118953Y-45543217D01*
X44254594Y-45558500D01*
X44945406Y-45558500D01*
X45081047Y-45543217D01*
X45253015Y-45483043D01*
X45407281Y-45386111D01*
X45536111Y-45257281D01*
X45633043Y-45103015D01*
X45693217Y-44931047D01*
X45708500Y-44795406D01*
X45708500Y-43504594D01*
X45693217Y-43368953D01*
X45633043Y-43196985D01*
X45633041Y-43196982D01*
X45633041Y-43196981D01*
X45536112Y-43042720D01*
X45536111Y-43042718D01*
X45505894Y-43012501D01*
X45471868Y-42950189D01*
X45476933Y-42879374D01*
X45487749Y-42857259D01*
X45512607Y-42816958D01*
X45563209Y-42734920D01*
X45618062Y-42569381D01*
X45628500Y-42467213D01*
X45628499Y-41892788D01*
X45621947Y-41828659D01*
X45634924Y-41758858D01*
X45683577Y-41707153D01*
X45752460Y-41689960D01*
X45786929Y-41696250D01*
X45793186Y-41698324D01*
X45892789Y-41708500D01*
X46427210Y-41708499D01*
X46526814Y-41698324D01*
X46688192Y-41644849D01*
X46832887Y-41555600D01*
X46953100Y-41435387D01*
X47042349Y-41290692D01*
X47095824Y-41129314D01*
X47097152Y-41116311D01*
X47123971Y-41050579D01*
X47182073Y-41009778D01*
X47253010Y-41006867D01*
X47314260Y-41042769D01*
X47346376Y-41106086D01*
X47347846Y-41116308D01*
X47349174Y-41129305D01*
X47349174Y-41129307D01*
X47349175Y-41129312D01*
X47349176Y-41129314D01*
X47371649Y-41197132D01*
X47402651Y-41290692D01*
X47491900Y-41435387D01*
X47491905Y-41435393D01*
X47612106Y-41555594D01*
X47612112Y-41555599D01*
X47612113Y-41555600D01*
X47756808Y-41644849D01*
X47918186Y-41698324D01*
X48017789Y-41708500D01*
X48339337Y-41708499D01*
X48407457Y-41728501D01*
X48428432Y-41745403D01*
X48524595Y-41841565D01*
X48558620Y-41903877D01*
X48561500Y-41930661D01*
X48561500Y-47156685D01*
X48561385Y-47160490D01*
X48557598Y-47223092D01*
X48568902Y-47284782D01*
X48569475Y-47288544D01*
X48577033Y-47350794D01*
X48577034Y-47350798D01*
X48580650Y-47360333D01*
X48586771Y-47382289D01*
X48588612Y-47392332D01*
X48614353Y-47449528D01*
X48615809Y-47453043D01*
X48621326Y-47467589D01*
X48638046Y-47511675D01*
X48643840Y-47520069D01*
X48655035Y-47539919D01*
X48659223Y-47549222D01*
X48659225Y-47549226D01*
X48680904Y-47576897D01*
X48697899Y-47598590D01*
X48700154Y-47601655D01*
X48735783Y-47653271D01*
X48735784Y-47653272D01*
X48735785Y-47653273D01*
X48782750Y-47694880D01*
X48785494Y-47697464D01*
X51130748Y-50042718D01*
X53468022Y-52379992D01*
X53502048Y-52442304D01*
X53496983Y-52513119D01*
X53486168Y-52535233D01*
X53465153Y-52569303D01*
X53465151Y-52569306D01*
X53465151Y-52569308D01*
X53430527Y-52673797D01*
X53411675Y-52730690D01*
X53401500Y-52830280D01*
X53401500Y-53364711D01*
X53406658Y-53415196D01*
X53393682Y-53484996D01*
X53345028Y-53536701D01*
X53281310Y-53554000D01*
X47575858Y-53554000D01*
X47560016Y-53552250D01*
X47559989Y-53552544D01*
X47552097Y-53551798D01*
X47552096Y-53551798D01*
X47482047Y-53554000D01*
X47452149Y-53554000D01*
X47452145Y-53554000D01*
X47452135Y-53554001D01*
X47445184Y-53554879D01*
X47439272Y-53555344D01*
X47392118Y-53556826D01*
X47392116Y-53556827D01*
X47372661Y-53562478D01*
X47353308Y-53566486D01*
X47333216Y-53569024D01*
X47333209Y-53569025D01*
X47333208Y-53569026D01*
X47333206Y-53569026D01*
X47333205Y-53569027D01*
X47289344Y-53586392D01*
X47283729Y-53588315D01*
X47238412Y-53601482D01*
X47220969Y-53611797D01*
X47203223Y-53620490D01*
X47184387Y-53627948D01*
X47146214Y-53655681D01*
X47141253Y-53658940D01*
X47100643Y-53682958D01*
X47086316Y-53697284D01*
X47071290Y-53710117D01*
X47054900Y-53722025D01*
X47054898Y-53722027D01*
X47024813Y-53758392D01*
X47020817Y-53762783D01*
X44429005Y-56354595D01*
X44366693Y-56388620D01*
X44339910Y-56391500D01*
X43609499Y-56391500D01*
X43541378Y-56371498D01*
X43494885Y-56317842D01*
X43483499Y-56265500D01*
X43483499Y-56235116D01*
X43483498Y-56235107D01*
X43478038Y-56193631D01*
X43467838Y-56116150D01*
X43406524Y-55968124D01*
X43395807Y-55954158D01*
X43383897Y-55938637D01*
X43308987Y-55841013D01*
X43211458Y-55766175D01*
X43181878Y-55743477D01*
X43181876Y-55743476D01*
X43033850Y-55682162D01*
X43026997Y-55681259D01*
X43013351Y-55679463D01*
X42948425Y-55650738D01*
X42909335Y-55591472D01*
X42908492Y-55520480D01*
X42922560Y-55488394D01*
X42943209Y-55454920D01*
X42998062Y-55289381D01*
X43008500Y-55187213D01*
X43008499Y-54612788D01*
X42998062Y-54510619D01*
X42943209Y-54345080D01*
X42851658Y-54196654D01*
X42851657Y-54196653D01*
X42851652Y-54196647D01*
X42728352Y-54073347D01*
X42728346Y-54073342D01*
X42644082Y-54021367D01*
X42579920Y-53981791D01*
X42414381Y-53926938D01*
X42414379Y-53926937D01*
X42414377Y-53926937D01*
X42312221Y-53916500D01*
X41712787Y-53916500D01*
X41610619Y-53926937D01*
X41445079Y-53981791D01*
X41296653Y-54073342D01*
X41296647Y-54073347D01*
X41173347Y-54196647D01*
X41173342Y-54196653D01*
X41081791Y-54345080D01*
X41026937Y-54510622D01*
X41016500Y-54612778D01*
X41016500Y-55187212D01*
X41026937Y-55289380D01*
X41081791Y-55454920D01*
X41173342Y-55603346D01*
X41173347Y-55603352D01*
X41203043Y-55633048D01*
X41237069Y-55695360D01*
X41232004Y-55766175D01*
X41190655Y-55822104D01*
X41166012Y-55841013D01*
X41068477Y-55968121D01*
X41007161Y-56116151D01*
X40991500Y-56235113D01*
X40991500Y-56514883D01*
X40991501Y-56514892D01*
X41007162Y-56633848D01*
X41007162Y-56633849D01*
X41014591Y-56651786D01*
X41022177Y-56722376D01*
X41014591Y-56748214D01*
X41007161Y-56766151D01*
X40991500Y-56885113D01*
X40991500Y-57164883D01*
X40991501Y-57164892D01*
X41003841Y-57258621D01*
X41007162Y-57283850D01*
X41065934Y-57425739D01*
X41068477Y-57431878D01*
X41098766Y-57471350D01*
X41166013Y-57558987D01*
X41252055Y-57625010D01*
X41281044Y-57647255D01*
X41293124Y-57656524D01*
X41441150Y-57717838D01*
X41560115Y-57733500D01*
X42914884Y-57733499D01*
X43033850Y-57717838D01*
X43153950Y-57668090D01*
X43202168Y-57658500D01*
X44570652Y-57658500D01*
X44586493Y-57660249D01*
X44586521Y-57659956D01*
X44594408Y-57660700D01*
X44594414Y-57660702D01*
X44600128Y-57660522D01*
X44668843Y-57678373D01*
X44716999Y-57730540D01*
X44729308Y-57800462D01*
X44701859Y-57865938D01*
X44693183Y-57875555D01*
X43693265Y-58875473D01*
X43630953Y-58909499D01*
X43560138Y-58904434D01*
X43503302Y-58861887D01*
X43479248Y-58802823D01*
X43467838Y-58716152D01*
X43467838Y-58716151D01*
X43467838Y-58716150D01*
X43406524Y-58568124D01*
X43404765Y-58565832D01*
X43371364Y-58522303D01*
X43308987Y-58441013D01*
X43219036Y-58371990D01*
X43181878Y-58343477D01*
X43149148Y-58329920D01*
X43093595Y-58306909D01*
X43033848Y-58282161D01*
X42956402Y-58271965D01*
X42914885Y-58266500D01*
X42914882Y-58266500D01*
X41560116Y-58266500D01*
X41560107Y-58266501D01*
X41453046Y-58280595D01*
X41441150Y-58282162D01*
X41441148Y-58282162D01*
X41441147Y-58282163D01*
X41381404Y-58306909D01*
X41333187Y-58316500D01*
X41040062Y-58316500D01*
X40971941Y-58296498D01*
X40932821Y-58256646D01*
X40926658Y-58246654D01*
X40926657Y-58246653D01*
X40926652Y-58246647D01*
X40803352Y-58123347D01*
X40803346Y-58123342D01*
X40791770Y-58116202D01*
X40654920Y-58031791D01*
X40489381Y-57976938D01*
X40489379Y-57976937D01*
X40489377Y-57976937D01*
X40387221Y-57966500D01*
X39812787Y-57966500D01*
X39710619Y-57976937D01*
X39545079Y-58031791D01*
X39396653Y-58123342D01*
X39396647Y-58123347D01*
X39273347Y-58246647D01*
X39273342Y-58246653D01*
X39236176Y-58306909D01*
X39181791Y-58395080D01*
X39126938Y-58560619D01*
X39126937Y-58560622D01*
X39124775Y-58567149D01*
X39123567Y-58566748D01*
X39093146Y-58622894D01*
X39030944Y-58657120D01*
X38960112Y-58652284D01*
X38949254Y-58646997D01*
X38949070Y-58647392D01*
X38942423Y-58644292D01*
X38909851Y-58633499D01*
X38776881Y-58589438D01*
X38776879Y-58589437D01*
X38776877Y-58589437D01*
X38674721Y-58579000D01*
X37975285Y-58579000D01*
X37947303Y-58581859D01*
X37877502Y-58568882D01*
X37825798Y-58520228D01*
X37808500Y-58456511D01*
X37808500Y-58025633D01*
X37808500Y-57590996D01*
X37808560Y-57588285D01*
X37812163Y-57508062D01*
X37801391Y-57428544D01*
X37801076Y-57425739D01*
X37793885Y-57345846D01*
X37793885Y-57345842D01*
X37787756Y-57323635D01*
X37786055Y-57315325D01*
X37783505Y-57296498D01*
X37782963Y-57292496D01*
X37758152Y-57216137D01*
X37757368Y-57213529D01*
X37736013Y-57136147D01*
X37726011Y-57115377D01*
X37722862Y-57107527D01*
X37715741Y-57085609D01*
X37677710Y-57014938D01*
X37676436Y-57012436D01*
X37641629Y-56940156D01*
X37628083Y-56921511D01*
X37623582Y-56914350D01*
X37612659Y-56894050D01*
X37591061Y-56866967D01*
X37562633Y-56831318D01*
X37560920Y-56829069D01*
X37513766Y-56764167D01*
X37510055Y-56760619D01*
X37497107Y-56748239D01*
X37491388Y-56741982D01*
X37477027Y-56723974D01*
X37441321Y-56692779D01*
X37416600Y-56671181D01*
X37414530Y-56669288D01*
X37356533Y-56613837D01*
X37337304Y-56601144D01*
X37330563Y-56596011D01*
X37325297Y-56591410D01*
X37313210Y-56580851D01*
X37313205Y-56580848D01*
X37313203Y-56580846D01*
X37244337Y-56539701D01*
X37241943Y-56538197D01*
X37174982Y-56493997D01*
X37174979Y-56493995D01*
X37153798Y-56484942D01*
X37146241Y-56481091D01*
X37126475Y-56469282D01*
X37126462Y-56469275D01*
X37051348Y-56441084D01*
X37048724Y-56440032D01*
X36974958Y-56408502D01*
X36974953Y-56408500D01*
X36952492Y-56403373D01*
X36944370Y-56400934D01*
X36922807Y-56392842D01*
X36922802Y-56392841D01*
X36859315Y-56381320D01*
X36843869Y-56378517D01*
X36841113Y-56377952D01*
X36762877Y-56360096D01*
X36762873Y-56360095D01*
X36741357Y-56359129D01*
X36739860Y-56359061D01*
X36731433Y-56358112D01*
X36708769Y-56354000D01*
X36708767Y-56354000D01*
X36628541Y-56354000D01*
X36625740Y-56353937D01*
X36556172Y-56350813D01*
X36545564Y-56350337D01*
X36545561Y-56350337D01*
X36522731Y-56353429D01*
X36514266Y-56354000D01*
X35841302Y-56354000D01*
X35773181Y-56333998D01*
X35726688Y-56280342D01*
X35716584Y-56210068D01*
X35723337Y-56183726D01*
X35724968Y-56179380D01*
X35769658Y-56060305D01*
X35799586Y-55895387D01*
X35808500Y-55846270D01*
X35808500Y-52484500D01*
X35828502Y-52416379D01*
X35882158Y-52369886D01*
X35934500Y-52358500D01*
X36329269Y-52358500D01*
X36329276Y-52358500D01*
X36491658Y-52343885D01*
X36491666Y-52343882D01*
X36491670Y-52343882D01*
X36579443Y-52319658D01*
X36701353Y-52286013D01*
X36897344Y-52191629D01*
X37073333Y-52063766D01*
X37097382Y-52038611D01*
X37158915Y-52003196D01*
X37229826Y-52006669D01*
X37271354Y-52030795D01*
X37386790Y-52131649D01*
X37386791Y-52131650D01*
X37386794Y-52131652D01*
X37573519Y-52243215D01*
X37573526Y-52243218D01*
X37573532Y-52243222D01*
X37777195Y-52319658D01*
X37777197Y-52319658D01*
X37777199Y-52319659D01*
X37991230Y-52358500D01*
X37991233Y-52358500D01*
X39929269Y-52358500D01*
X39929276Y-52358500D01*
X40091658Y-52343885D01*
X40091666Y-52343882D01*
X40091670Y-52343882D01*
X40179443Y-52319658D01*
X40301353Y-52286013D01*
X40497344Y-52191629D01*
X40666162Y-52068975D01*
X40733030Y-52045117D01*
X40802182Y-52061198D01*
X40823123Y-52076025D01*
X40886790Y-52131650D01*
X41073519Y-52243215D01*
X41073526Y-52243218D01*
X41073532Y-52243222D01*
X41277195Y-52319658D01*
X41277197Y-52319658D01*
X41277199Y-52319659D01*
X41491230Y-52358500D01*
X41491233Y-52358500D01*
X43714006Y-52358500D01*
X43782127Y-52378502D01*
X43792570Y-52385992D01*
X43792725Y-52386116D01*
X43946981Y-52483041D01*
X43946982Y-52483041D01*
X43946985Y-52483043D01*
X44118953Y-52543217D01*
X44254594Y-52558500D01*
X44945406Y-52558500D01*
X45081047Y-52543217D01*
X45253015Y-52483043D01*
X45407281Y-52386111D01*
X45536111Y-52257281D01*
X45633043Y-52103015D01*
X45693217Y-51931047D01*
X45708500Y-51795406D01*
X45708500Y-51657200D01*
X45718640Y-51607679D01*
X45723589Y-51596101D01*
X45753998Y-51524957D01*
X45802404Y-51312877D01*
X45812163Y-51095562D01*
X45782963Y-50879996D01*
X45751550Y-50783317D01*
X45714667Y-50669802D01*
X45708500Y-50630866D01*
X45708500Y-50504593D01*
X45705245Y-50475707D01*
X45693217Y-50368953D01*
X45633043Y-50196985D01*
X45633041Y-50196982D01*
X45633041Y-50196981D01*
X45536112Y-50042720D01*
X45536111Y-50042718D01*
X45407281Y-49913888D01*
X45407279Y-49913887D01*
X45253018Y-49816958D01*
X45253015Y-49816957D01*
X45156105Y-49783047D01*
X45081047Y-49756783D01*
X44945406Y-49741500D01*
X44254594Y-49741500D01*
X44118953Y-49756783D01*
X44118950Y-49756783D01*
X44118950Y-49756784D01*
X43946984Y-49816957D01*
X43946981Y-49816958D01*
X43792725Y-49913883D01*
X43792570Y-49914008D01*
X43792450Y-49914056D01*
X43786727Y-49917653D01*
X43786097Y-49916650D01*
X43726841Y-49940845D01*
X43714006Y-49941500D01*
X41545724Y-49941500D01*
X41423937Y-49952461D01*
X41383340Y-49956115D01*
X41383329Y-49956117D01*
X41173655Y-50013984D01*
X41173641Y-50013989D01*
X40977660Y-50108368D01*
X40977654Y-50108372D01*
X40808836Y-50231024D01*
X40741968Y-50254882D01*
X40672817Y-50238800D01*
X40651876Y-50223974D01*
X40588209Y-50168349D01*
X40401480Y-50056784D01*
X40401470Y-50056779D01*
X40401469Y-50056778D01*
X40401468Y-50056778D01*
X40197805Y-49980342D01*
X40197800Y-49980340D01*
X39983770Y-49941500D01*
X39983767Y-49941500D01*
X38045724Y-49941500D01*
X37923937Y-49952461D01*
X37883340Y-49956115D01*
X37883329Y-49956117D01*
X37673655Y-50013984D01*
X37673641Y-50013989D01*
X37477660Y-50108368D01*
X37477652Y-50108373D01*
X37301671Y-50236230D01*
X37301666Y-50236234D01*
X37277615Y-50261390D01*
X37216081Y-50296804D01*
X37145170Y-50293328D01*
X37103644Y-50269202D01*
X36988209Y-50168349D01*
X36801480Y-50056784D01*
X36801470Y-50056779D01*
X36801469Y-50056778D01*
X36801468Y-50056778D01*
X36597805Y-49980342D01*
X36597800Y-49980340D01*
X36383770Y-49941500D01*
X36383767Y-49941500D01*
X35808255Y-49941500D01*
X35740134Y-49921498D01*
X35693641Y-49867842D01*
X35683537Y-49797568D01*
X35692065Y-49769578D01*
X35691233Y-49769266D01*
X35693220Y-49763970D01*
X35693222Y-49763968D01*
X35769658Y-49560305D01*
X35804134Y-49370327D01*
X35808500Y-49346270D01*
X35808500Y-47320730D01*
X35808500Y-47320729D01*
X35808500Y-47320724D01*
X35793885Y-47158342D01*
X35793883Y-47158335D01*
X35793882Y-47158329D01*
X35736015Y-46948655D01*
X35736013Y-46948647D01*
X35641629Y-46752656D01*
X35518974Y-46583836D01*
X35495116Y-46516969D01*
X35511197Y-46447818D01*
X35526017Y-46426884D01*
X35581649Y-46363210D01*
X35676856Y-46203860D01*
X35693215Y-46176480D01*
X35693215Y-46176478D01*
X35693222Y-46176468D01*
X35769658Y-45972805D01*
X35779366Y-45919308D01*
X35808500Y-45758770D01*
X35808500Y-41558230D01*
X35808500Y-41558224D01*
X35793885Y-41395842D01*
X35793883Y-41395835D01*
X35793882Y-41395829D01*
X35748041Y-41229729D01*
X35743500Y-41196208D01*
X35743500Y-39786500D01*
X35763502Y-39718379D01*
X35817158Y-39671886D01*
X35869500Y-39660500D01*
X43627805Y-39660500D01*
X43695926Y-39680502D01*
G37*
%TD.AperFunction*%
%TA.AperFunction,Conductor*%
G36*
X52886121Y-56903502D02*
G01*
X52932614Y-56957158D01*
X52944000Y-57009500D01*
X52944000Y-57190500D01*
X52923998Y-57258621D01*
X52870342Y-57305114D01*
X52818000Y-57316500D01*
X51771999Y-57316500D01*
X51703878Y-57296498D01*
X51657385Y-57242842D01*
X51645999Y-57190500D01*
X51645999Y-57009500D01*
X51666001Y-56941379D01*
X51719657Y-56894886D01*
X51771999Y-56883500D01*
X52818000Y-56883500D01*
X52886121Y-56903502D01*
G37*
%TD.AperFunction*%
%TA.AperFunction,Conductor*%
G36*
X53343880Y-54841002D02*
G01*
X53390373Y-54894658D01*
X53401341Y-54952081D01*
X53401500Y-54952081D01*
X53401500Y-54952911D01*
X53401596Y-54953414D01*
X53401500Y-54955297D01*
X53401500Y-55347548D01*
X53381498Y-55415669D01*
X53364596Y-55436643D01*
X53271645Y-55529595D01*
X53209333Y-55563620D01*
X53182549Y-55566500D01*
X51796999Y-55566500D01*
X51728878Y-55546498D01*
X51682385Y-55492842D01*
X51670999Y-55440500D01*
X51670999Y-55112787D01*
X51668758Y-55090852D01*
X51660562Y-55010619D01*
X51655250Y-54994588D01*
X51652614Y-54986632D01*
X51650174Y-54915677D01*
X51686483Y-54854667D01*
X51750012Y-54822972D01*
X51772219Y-54821000D01*
X53275759Y-54821000D01*
X53343880Y-54841002D01*
G37*
%TD.AperFunction*%
%TA.AperFunction,Conductor*%
G36*
X52660671Y-44828502D02*
G01*
X52681645Y-44845405D01*
X58739595Y-50903354D01*
X58773621Y-50965666D01*
X58776500Y-50992449D01*
X58776500Y-51292212D01*
X58786937Y-51394380D01*
X58841791Y-51559920D01*
X58933342Y-51708346D01*
X58933347Y-51708352D01*
X59056647Y-51831652D01*
X59056653Y-51831657D01*
X59056654Y-51831658D01*
X59205080Y-51923209D01*
X59370619Y-51978062D01*
X59472787Y-51988500D01*
X60047212Y-51988499D01*
X60149381Y-51978062D01*
X60314920Y-51923209D01*
X60463346Y-51831658D01*
X60502708Y-51792296D01*
X60551527Y-51743478D01*
X60613839Y-51709452D01*
X60684654Y-51714517D01*
X60729717Y-51743478D01*
X60843189Y-51856950D01*
X60843196Y-51856955D01*
X60986394Y-51941643D01*
X60986397Y-51941643D01*
X60986399Y-51941645D01*
X61146169Y-51988062D01*
X61151734Y-51988500D01*
X61183494Y-51991000D01*
X61183498Y-51991000D01*
X61616506Y-51991000D01*
X61641388Y-51989041D01*
X61653831Y-51988062D01*
X61813601Y-51941645D01*
X61813603Y-51941643D01*
X61813605Y-51941643D01*
X61885203Y-51899298D01*
X61956807Y-51856953D01*
X62074453Y-51739307D01*
X62116799Y-51667704D01*
X62159143Y-51596105D01*
X62159143Y-51596103D01*
X62159145Y-51596101D01*
X62205562Y-51436331D01*
X62208500Y-51399002D01*
X62208500Y-50344499D01*
X62228502Y-50276379D01*
X62282158Y-50229886D01*
X62334500Y-50218500D01*
X62365500Y-50218500D01*
X62433621Y-50238502D01*
X62480114Y-50292158D01*
X62491500Y-50344500D01*
X62491500Y-51399006D01*
X62494437Y-51436329D01*
X62540856Y-51596103D01*
X62628953Y-51745066D01*
X62646500Y-51809206D01*
X62646499Y-53317647D01*
X62626497Y-53385768D01*
X62594017Y-53417656D01*
X62594912Y-53418788D01*
X62589158Y-53423337D01*
X62481595Y-53530900D01*
X62419283Y-53564925D01*
X62348467Y-53559859D01*
X62303405Y-53530900D01*
X62195847Y-53423343D01*
X62195846Y-53423342D01*
X62186628Y-53417656D01*
X62047420Y-53331791D01*
X61881881Y-53276938D01*
X61881879Y-53276937D01*
X61881877Y-53276937D01*
X61779721Y-53266500D01*
X61180287Y-53266500D01*
X61078119Y-53276937D01*
X60912579Y-53331791D01*
X60764153Y-53423342D01*
X60758396Y-53427895D01*
X60756405Y-53425377D01*
X60706534Y-53452479D01*
X60635729Y-53447272D01*
X60590902Y-53418398D01*
X60583346Y-53410842D01*
X60434920Y-53319291D01*
X60269381Y-53264438D01*
X60269379Y-53264437D01*
X60269377Y-53264437D01*
X60167221Y-53254000D01*
X59592787Y-53254000D01*
X59490619Y-53264437D01*
X59325079Y-53319291D01*
X59176653Y-53410842D01*
X59176647Y-53410847D01*
X59053347Y-53534147D01*
X59053340Y-53534155D01*
X58993206Y-53631648D01*
X58940420Y-53679125D01*
X58885966Y-53691500D01*
X58258613Y-53691500D01*
X58190492Y-53671498D01*
X58151373Y-53631648D01*
X58106658Y-53559154D01*
X58106657Y-53559153D01*
X58106652Y-53559147D01*
X57983352Y-53435847D01*
X57983346Y-53435842D01*
X57963082Y-53423343D01*
X57834920Y-53344291D01*
X57669381Y-53289438D01*
X57669379Y-53289437D01*
X57669377Y-53289437D01*
X57567221Y-53279000D01*
X56992787Y-53279000D01*
X56890619Y-53289437D01*
X56725079Y-53344291D01*
X56576653Y-53435842D01*
X56576652Y-53435843D01*
X56548182Y-53464314D01*
X56495399Y-53517096D01*
X56433090Y-53551120D01*
X56406306Y-53554000D01*
X55738690Y-53554000D01*
X55670569Y-53533998D01*
X55624076Y-53480342D01*
X55613343Y-53415193D01*
X55618499Y-53364719D01*
X55618500Y-53364711D01*
X55618499Y-52830290D01*
X55608324Y-52730686D01*
X55554849Y-52569308D01*
X55465600Y-52424613D01*
X55465599Y-52424612D01*
X55465594Y-52424606D01*
X55345393Y-52304405D01*
X55345385Y-52304398D01*
X55225364Y-52230368D01*
X55177887Y-52177582D01*
X55176613Y-52174840D01*
X55165646Y-52150474D01*
X55164198Y-52146980D01*
X55141954Y-52088325D01*
X55136163Y-52079935D01*
X55124958Y-52060070D01*
X55120775Y-52050774D01*
X55082088Y-52001395D01*
X55079846Y-51998348D01*
X55044215Y-51946727D01*
X55041378Y-51944214D01*
X54997257Y-51905126D01*
X54994503Y-51902533D01*
X50015405Y-46923435D01*
X49981379Y-46861123D01*
X49978500Y-46834340D01*
X49978500Y-45668385D01*
X49998502Y-45600264D01*
X50052158Y-45553771D01*
X50118609Y-45543177D01*
X50118947Y-45543215D01*
X50118953Y-45543217D01*
X50254594Y-45558500D01*
X50254595Y-45558500D01*
X50945406Y-45558500D01*
X51081047Y-45543217D01*
X51253015Y-45483043D01*
X51407281Y-45386111D01*
X51536111Y-45257281D01*
X51633043Y-45103015D01*
X51693217Y-44931047D01*
X51694417Y-44920388D01*
X51721922Y-44854938D01*
X51780446Y-44814746D01*
X51819625Y-44808500D01*
X52592550Y-44808500D01*
X52660671Y-44828502D01*
G37*
%TD.AperFunction*%
%TA.AperFunction,Conductor*%
G36*
X59839961Y-42313502D02*
G01*
X59860935Y-42330405D01*
X61401935Y-43871405D01*
X61435961Y-43933717D01*
X61430896Y-44004532D01*
X61388349Y-44061368D01*
X61321829Y-44086179D01*
X61312840Y-44086500D01*
X61055287Y-44086500D01*
X60953119Y-44096937D01*
X60787579Y-44151791D01*
X60639153Y-44243342D01*
X60639147Y-44243347D01*
X60515847Y-44366647D01*
X60515842Y-44366653D01*
X60424291Y-44515080D01*
X60369437Y-44680622D01*
X60359000Y-44782778D01*
X60359000Y-45357212D01*
X60369437Y-45459380D01*
X60397217Y-45543215D01*
X60424291Y-45624920D01*
X60506851Y-45758770D01*
X60518655Y-45777906D01*
X60537392Y-45846385D01*
X60518655Y-45910199D01*
X60513037Y-45919308D01*
X60429291Y-46055080D01*
X60374437Y-46220622D01*
X60364000Y-46322778D01*
X60364000Y-46897212D01*
X60374437Y-46999380D01*
X60429291Y-47164920D01*
X60520842Y-47313346D01*
X60520847Y-47313352D01*
X60644147Y-47436652D01*
X60644153Y-47436657D01*
X60644154Y-47436658D01*
X60680443Y-47459041D01*
X60727921Y-47511827D01*
X60739324Y-47581902D01*
X60722750Y-47630421D01*
X60640855Y-47768897D01*
X60594437Y-47928670D01*
X60591500Y-47965994D01*
X60591499Y-48181630D01*
X60571497Y-48249750D01*
X60517841Y-48296243D01*
X60447567Y-48306346D01*
X60399352Y-48288870D01*
X60314920Y-48236791D01*
X60149381Y-48181938D01*
X60149379Y-48181937D01*
X60149377Y-48181937D01*
X60047221Y-48171500D01*
X59472787Y-48171500D01*
X59370619Y-48181937D01*
X59205079Y-48236791D01*
X59056653Y-48328342D01*
X59056647Y-48328347D01*
X58933347Y-48451647D01*
X58933342Y-48451653D01*
X58841791Y-48600080D01*
X58786937Y-48765622D01*
X58783987Y-48794499D01*
X58757164Y-48860234D01*
X58699061Y-48901032D01*
X58628123Y-48903940D01*
X58569545Y-48870786D01*
X56061969Y-46363210D01*
X53444375Y-43745615D01*
X53434164Y-43732869D01*
X53433971Y-43733030D01*
X53428917Y-43726921D01*
X53375814Y-43677054D01*
X53353843Y-43655082D01*
X53353825Y-43655066D01*
X53347982Y-43650534D01*
X53343467Y-43646678D01*
X53340839Y-43644210D01*
X53307633Y-43613028D01*
X53307630Y-43613026D01*
X53307625Y-43613023D01*
X53288838Y-43602694D01*
X53272318Y-43591843D01*
X53255367Y-43578695D01*
X53210239Y-43559166D01*
X53204921Y-43556561D01*
X53177735Y-43541616D01*
X53161838Y-43532876D01*
X53161835Y-43532875D01*
X53141068Y-43527543D01*
X53122365Y-43521140D01*
X53112203Y-43516743D01*
X53102676Y-43512620D01*
X53102674Y-43512619D01*
X53102675Y-43512619D01*
X53054119Y-43504929D01*
X53048304Y-43503725D01*
X53000688Y-43491500D01*
X52979241Y-43491500D01*
X52959532Y-43489949D01*
X52938348Y-43486594D01*
X52938347Y-43486594D01*
X52889406Y-43491220D01*
X52883473Y-43491500D01*
X51819625Y-43491500D01*
X51751504Y-43471498D01*
X51705011Y-43417842D01*
X51694418Y-43379613D01*
X51693217Y-43368953D01*
X51633043Y-43196985D01*
X51633041Y-43196982D01*
X51633041Y-43196981D01*
X51536112Y-43042720D01*
X51536111Y-43042718D01*
X51407281Y-42913888D01*
X51407279Y-42913887D01*
X51253018Y-42816958D01*
X51253015Y-42816957D01*
X51221499Y-42805929D01*
X51081047Y-42756783D01*
X50945406Y-42741500D01*
X50254594Y-42741500D01*
X50254592Y-42741500D01*
X50118607Y-42756821D01*
X50048675Y-42744571D01*
X49996467Y-42696458D01*
X49978500Y-42631613D01*
X49978500Y-42419500D01*
X49998502Y-42351379D01*
X50052158Y-42304886D01*
X50104500Y-42293500D01*
X59771840Y-42293500D01*
X59839961Y-42313502D01*
G37*
%TD.AperFunction*%
%TD*%
M02*
