M48
; DRILL file {KiCad 7.0.6-0} date 2023 December 30, Saturday 17:32:07
; FORMAT={-:-/ absolute / metric / decimal}
; #@! TF.CreationDate,2023-12-30T17:32:07-06:00
; #@! TF.GenerationSoftware,Kicad,Pcbnew,7.0.6-0
; #@! TF.FileFunction,MixedPlating,1,2
FMAT,2
METRIC
; #@! TA.AperFunction,Plated,PTH,ViaDrill
T1C0.700
; #@! TA.AperFunction,Plated,PTH,ComponentDrill
T2C0.800
; #@! TA.AperFunction,Plated,PTH,ComponentDrill
T3C0.900
; #@! TA.AperFunction,Plated,PTH,ComponentDrill
T4C1.190
; #@! TA.AperFunction,Plated,PTH,ViaDrill
T5C3.000
%
G90
G05
T1
X30.6Y-66.15
X31.6Y-41.65
X32.1Y-46.15
X32.1Y-49.15
X32.1Y-53.15
X32.1Y-56.65
X34.6Y-59.65
X34.6Y-66.15
X36.6Y-46.15
X36.6Y-49.15
X36.6Y-53.15
X36.6Y-55.65
X36.6Y-62.65
X37.6Y-41.65
X39.1Y-56.15
X39.1Y-62.65
X39.1Y-76.15
X40.6Y-49.15
X40.6Y-53.15
X41.6Y-44.65
X44.1Y-55.65
X44.6Y-49.15
X44.6Y-53.15
X45.1Y-61.15
X47.1Y-42.15
X47.1Y-65.65
X48.1Y-48.15
X48.1Y-62.15
X49.6Y-52.65
X50.6Y-73.15
X50.6Y-79.65
X51.6Y-82.65
X52.1Y-52.65
X52.3Y-55.35
X52.35Y-57.1
X52.6Y-42.65
X52.6Y-45.65
X52.6Y-59.15
X52.78Y-65.69
X54.1Y-47.15
X54.1Y-50.15
X54.6Y-61.15
X56.1Y-73.15
X56.6Y-58.15
X57.1Y-50.15
X57.37Y-65.71
X57.6Y-82.65
X58.1Y-47.65
X58.1Y-52.65
X58.6Y-76.15
X59.6Y-43.65
X61.6Y-52.65
X61.6Y-57.15
X61.6Y-78.65
X62.1Y-76.65
X62.495Y-67.88
X62.6Y-59.15
X62.6Y-62.65
X62.6Y-71.65
X63.1Y-82.65
X63.6Y-41.65
X64.6Y-74.65
X66.91Y-68.13
X69.1Y-82.65
X73.1Y-62.15
X73.1Y-74.15
X77.1Y-49.65
X77.1Y-74.15
T2
X32.48Y-68.34
X32.48Y-75.96
X47.72Y-68.34
X47.72Y-75.96
X52.79Y-67.1
X52.79Y-69.64
X52.79Y-72.18
X52.79Y-74.72
X53.93Y-79.23
X56.47Y-79.23
X59.01Y-79.23
X60.41Y-67.1
X60.41Y-69.64
X60.41Y-72.18
X60.41Y-74.72
T3
X57.03Y-62.12
X59.57Y-62.12
X76.01Y-62.12
X78.55Y-62.12
T4
X65.08Y-78.5
X67.62Y-78.5
X70.16Y-78.5
X72.7Y-78.5
T5
X27.1Y-42.15
X27.1Y-82.15
X79.6Y-42.15
X79.6Y-82.15
T0
M30
