%TF.GenerationSoftware,KiCad,Pcbnew,7.0.6-0*%
%TF.CreationDate,2023-12-30T17:19:21-06:00*%
%TF.ProjectId,MIXER_CORRELATOR,4d495845-525f-4434-9f52-52454c41544f,rev?*%
%TF.SameCoordinates,Original*%
%TF.FileFunction,Copper,L1,Top*%
%TF.FilePolarity,Positive*%
%FSLAX46Y46*%
G04 Gerber Fmt 4.6, Leading zero omitted, Abs format (unit mm)*
G04 Created by KiCad (PCBNEW 7.0.6-0) date 2023-12-30 17:19:21*
%MOMM*%
%LPD*%
G01*
G04 APERTURE LIST*
G04 Aperture macros list*
%AMRoundRect*
0 Rectangle with rounded corners*
0 $1 Rounding radius*
0 $2 $3 $4 $5 $6 $7 $8 $9 X,Y pos of 4 corners*
0 Add a 4 corners polygon primitive as box body*
4,1,4,$2,$3,$4,$5,$6,$7,$8,$9,$2,$3,0*
0 Add four circle primitives for the rounded corners*
1,1,$1+$1,$2,$3*
1,1,$1+$1,$4,$5*
1,1,$1+$1,$6,$7*
1,1,$1+$1,$8,$9*
0 Add four rect primitives between the rounded corners*
20,1,$1+$1,$2,$3,$4,$5,0*
20,1,$1+$1,$4,$5,$6,$7,0*
20,1,$1+$1,$6,$7,$8,$9,0*
20,1,$1+$1,$8,$9,$2,$3,0*%
G04 Aperture macros list end*
%TA.AperFunction,SMDPad,CuDef*%
%ADD10RoundRect,0.150000X0.512500X0.150000X-0.512500X0.150000X-0.512500X-0.150000X0.512500X-0.150000X0*%
%TD*%
%TA.AperFunction,SMDPad,CuDef*%
%ADD11RoundRect,0.225000X-0.225000X-0.250000X0.225000X-0.250000X0.225000X0.250000X-0.225000X0.250000X0*%
%TD*%
%TA.AperFunction,SMDPad,CuDef*%
%ADD12RoundRect,0.225000X-0.250000X0.225000X-0.250000X-0.225000X0.250000X-0.225000X0.250000X0.225000X0*%
%TD*%
%TA.AperFunction,SMDPad,CuDef*%
%ADD13RoundRect,0.225000X0.250000X-0.225000X0.250000X0.225000X-0.250000X0.225000X-0.250000X-0.225000X0*%
%TD*%
%TA.AperFunction,SMDPad,CuDef*%
%ADD14R,3.600000X1.270000*%
%TD*%
%TA.AperFunction,SMDPad,CuDef*%
%ADD15R,4.200000X1.350000*%
%TD*%
%TA.AperFunction,SMDPad,CuDef*%
%ADD16RoundRect,0.237500X-0.237500X0.287500X-0.237500X-0.287500X0.237500X-0.287500X0.237500X0.287500X0*%
%TD*%
%TA.AperFunction,SMDPad,CuDef*%
%ADD17R,1.270000X3.600000*%
%TD*%
%TA.AperFunction,SMDPad,CuDef*%
%ADD18R,1.350000X4.200000*%
%TD*%
%TA.AperFunction,SMDPad,CuDef*%
%ADD19RoundRect,0.225000X0.225000X0.250000X-0.225000X0.250000X-0.225000X-0.250000X0.225000X-0.250000X0*%
%TD*%
%TA.AperFunction,SMDPad,CuDef*%
%ADD20RoundRect,0.200000X0.200000X0.275000X-0.200000X0.275000X-0.200000X-0.275000X0.200000X-0.275000X0*%
%TD*%
%TA.AperFunction,SMDPad,CuDef*%
%ADD21RoundRect,0.200000X-0.275000X0.200000X-0.275000X-0.200000X0.275000X-0.200000X0.275000X0.200000X0*%
%TD*%
%TA.AperFunction,SMDPad,CuDef*%
%ADD22RoundRect,0.200000X0.275000X-0.200000X0.275000X0.200000X-0.275000X0.200000X-0.275000X-0.200000X0*%
%TD*%
%TA.AperFunction,SMDPad,CuDef*%
%ADD23RoundRect,0.237500X-0.287500X-0.237500X0.287500X-0.237500X0.287500X0.237500X-0.287500X0.237500X0*%
%TD*%
%TA.AperFunction,SMDPad,CuDef*%
%ADD24RoundRect,0.250000X1.025000X-0.787500X1.025000X0.787500X-1.025000X0.787500X-1.025000X-0.787500X0*%
%TD*%
%TA.AperFunction,SMDPad,CuDef*%
%ADD25RoundRect,0.237500X0.237500X-0.287500X0.237500X0.287500X-0.237500X0.287500X-0.237500X-0.287500X0*%
%TD*%
%TA.AperFunction,SMDPad,CuDef*%
%ADD26R,0.650000X0.400000*%
%TD*%
%TA.AperFunction,SMDPad,CuDef*%
%ADD27RoundRect,0.200000X-0.200000X-0.275000X0.200000X-0.275000X0.200000X0.275000X-0.200000X0.275000X0*%
%TD*%
%TA.AperFunction,SMDPad,CuDef*%
%ADD28RoundRect,0.237500X0.287500X0.237500X-0.287500X0.237500X-0.287500X-0.237500X0.287500X-0.237500X0*%
%TD*%
%TA.AperFunction,SMDPad,CuDef*%
%ADD29RoundRect,0.197500X-0.197500X0.642500X-0.197500X-0.642500X0.197500X-0.642500X0.197500X0.642500X0*%
%TD*%
%TA.AperFunction,SMDPad,CuDef*%
%ADD30R,2.000000X1.800000*%
%TD*%
%TA.AperFunction,SMDPad,CuDef*%
%ADD31RoundRect,0.150000X-0.150000X0.587500X-0.150000X-0.587500X0.150000X-0.587500X0.150000X0.587500X0*%
%TD*%
%TA.AperFunction,SMDPad,CuDef*%
%ADD32RoundRect,0.150000X-0.512500X-0.150000X0.512500X-0.150000X0.512500X0.150000X-0.512500X0.150000X0*%
%TD*%
%TA.AperFunction,SMDPad,CuDef*%
%ADD33RoundRect,0.150000X-0.150000X0.512500X-0.150000X-0.512500X0.150000X-0.512500X0.150000X0.512500X0*%
%TD*%
%TA.AperFunction,SMDPad,CuDef*%
%ADD34R,1.500000X2.000000*%
%TD*%
%TA.AperFunction,SMDPad,CuDef*%
%ADD35R,3.800000X2.000000*%
%TD*%
%TA.AperFunction,SMDPad,CuDef*%
%ADD36R,2.000000X1.500000*%
%TD*%
%TA.AperFunction,SMDPad,CuDef*%
%ADD37R,2.000000X3.800000*%
%TD*%
%TA.AperFunction,ComponentPad*%
%ADD38C,1.500000*%
%TD*%
%TA.AperFunction,ComponentPad*%
%ADD39RoundRect,0.250000X-0.620000X-0.845000X0.620000X-0.845000X0.620000X0.845000X-0.620000X0.845000X0*%
%TD*%
%TA.AperFunction,ComponentPad*%
%ADD40O,1.740000X2.190000*%
%TD*%
%TA.AperFunction,ComponentPad*%
%ADD41C,2.500000*%
%TD*%
%TA.AperFunction,ComponentPad*%
%ADD42C,2.050000*%
%TD*%
%TA.AperFunction,ComponentPad*%
%ADD43C,2.250000*%
%TD*%
%TA.AperFunction,ComponentPad*%
%ADD44R,1.800000X1.800000*%
%TD*%
%TA.AperFunction,ComponentPad*%
%ADD45C,1.800000*%
%TD*%
%TA.AperFunction,ViaPad*%
%ADD46C,3.500000*%
%TD*%
%TA.AperFunction,ViaPad*%
%ADD47C,1.000000*%
%TD*%
%TA.AperFunction,Conductor*%
%ADD48C,0.250000*%
%TD*%
%TA.AperFunction,Conductor*%
%ADD49C,0.600000*%
%TD*%
%TA.AperFunction,Conductor*%
%ADD50C,0.400000*%
%TD*%
%TA.AperFunction,Conductor*%
%ADD51C,1.200000*%
%TD*%
%TA.AperFunction,Conductor*%
%ADD52C,1.400000*%
%TD*%
G04 APERTURE END LIST*
D10*
%TO.P,Q2,1,S*%
%TO.N,Net-(J11-In)*%
X206329000Y-79545000D03*
%TO.P,Q2,2,D*%
%TO.N,+5V*%
X206329000Y-77645000D03*
%TO.P,Q2,3,G*%
%TO.N,Net-(Q2-G)*%
X204054000Y-78595000D03*
%TD*%
D11*
%TO.P,C34,1*%
%TO.N,GND*%
X204803000Y-75801000D03*
%TO.P,C34,2*%
%TO.N,+5V*%
X206353000Y-75801000D03*
%TD*%
D12*
%TO.P,C11,1*%
%TO.N,GND*%
X77500000Y-58200000D03*
%TO.P,C11,2*%
%TO.N,+5V*%
X77500000Y-59750000D03*
%TD*%
D13*
%TO.P,C36,1*%
%TO.N,Net-(C36-Pad1)*%
X190592000Y-70975000D03*
%TO.P,C36,2*%
%TO.N,Net-(C36-Pad2)*%
X190592000Y-69425000D03*
%TD*%
D14*
%TO.P,J14,1,In*%
%TO.N,Net-(J14-In)*%
X217371500Y-73515000D03*
D15*
%TO.P,J14,2,Ext*%
%TO.N,GND*%
X217171500Y-76340000D03*
X217171500Y-70690000D03*
%TD*%
D12*
%TO.P,C3,1*%
%TO.N,GND*%
X51000000Y-56700000D03*
%TO.P,C3,2*%
%TO.N,+5V*%
X51000000Y-58250000D03*
%TD*%
D13*
%TO.P,C38,1*%
%TO.N,Net-(Q4-G)*%
X211166000Y-65146000D03*
%TO.P,C38,2*%
%TO.N,Net-(C38-Pad2)*%
X211166000Y-63596000D03*
%TD*%
D16*
%TO.P,L7,1*%
%TO.N,Net-(C38-Pad2)*%
X209134000Y-63496000D03*
%TO.P,L7,2*%
%TO.N,GND*%
X209134000Y-65246000D03*
%TD*%
D11*
%TO.P,C49,1*%
%TO.N,Net-(U12-lo)*%
X185232000Y-82405000D03*
%TO.P,C49,2*%
%TO.N,Net-(U11-IN)*%
X186782000Y-82405000D03*
%TD*%
D17*
%TO.P,J2,1,In*%
%TO.N,Net-(J2-In)*%
X63000000Y-52500000D03*
D18*
%TO.P,J2,2,Ext*%
%TO.N,GND*%
X65825000Y-52700000D03*
X60175000Y-52700000D03*
%TD*%
D19*
%TO.P,C42,1*%
%TO.N,GND*%
X216500000Y-66657000D03*
%TO.P,C42,2*%
%TO.N,+5V*%
X214950000Y-66657000D03*
%TD*%
D20*
%TO.P,R4,1*%
%TO.N,GND*%
X188178000Y-97899000D03*
%TO.P,R4,2*%
%TO.N,Net-(J10-In)*%
X186528000Y-97899000D03*
%TD*%
D21*
%TO.P,R5,1*%
%TO.N,GND*%
X208118000Y-77961000D03*
%TO.P,R5,2*%
%TO.N,Net-(J11-In)*%
X208118000Y-79611000D03*
%TD*%
D13*
%TO.P,C46,1*%
%TO.N,+5V*%
X209134000Y-95639000D03*
%TO.P,C46,2*%
%TO.N,GND*%
X209134000Y-94089000D03*
%TD*%
%TO.P,C43,1*%
%TO.N,GND*%
X218024000Y-64397000D03*
%TO.P,C43,2*%
%TO.N,+5V*%
X218024000Y-62847000D03*
%TD*%
D22*
%TO.P,R3,1*%
%TO.N,Net-(C32-Pad2)*%
X195418000Y-94469000D03*
%TO.P,R3,2*%
%TO.N,Net-(R3-Pad2)*%
X195418000Y-92819000D03*
%TD*%
D23*
%TO.P,L5,1*%
%TO.N,Net-(C28-Pad2)*%
X180206000Y-73515000D03*
%TO.P,L5,2*%
%TO.N,Net-(Q3-G)*%
X181956000Y-73515000D03*
%TD*%
D19*
%TO.P,C2,1*%
%TO.N,+5V*%
X45550000Y-70000000D03*
%TO.P,C2,2*%
%TO.N,GND*%
X44000000Y-70000000D03*
%TD*%
D24*
%TO.P,C15,1*%
%TO.N,Net-(J4-Pin_2)*%
X72750000Y-73862500D03*
%TO.P,C15,2*%
%TO.N,GND*%
X72750000Y-67637500D03*
%TD*%
%TO.P,C48,1*%
%TO.N,+5V*%
X175352000Y-89392000D03*
%TO.P,C48,2*%
%TO.N,GND*%
X175352000Y-83167000D03*
%TD*%
D14*
%TO.P,J1,1,In*%
%TO.N,Net-(J1-In)*%
X39462500Y-60000000D03*
D15*
%TO.P,J1,2,Ext*%
%TO.N,GND*%
X39662500Y-57175000D03*
X39662500Y-62825000D03*
%TD*%
D25*
%TO.P,L6,1*%
%TO.N,Net-(C36-Pad2)*%
X190592000Y-67137000D03*
%TO.P,L6,2*%
%TO.N,GND*%
X190592000Y-65387000D03*
%TD*%
D12*
%TO.P,C8,1*%
%TO.N,+5V*%
X69500000Y-59975000D03*
%TO.P,C8,2*%
%TO.N,Net-(U3-IF_{OUT})*%
X69500000Y-61525000D03*
%TD*%
D23*
%TO.P,L2,1*%
%TO.N,Net-(C5-Pad1)*%
X56000000Y-61500000D03*
%TO.P,L2,2*%
%TO.N,Net-(C6-Pad2)*%
X57750000Y-61500000D03*
%TD*%
D26*
%TO.P,U4,1,IN*%
%TO.N,Net-(U4-IN)*%
X75600000Y-61450000D03*
%TO.P,U4,2,GND*%
%TO.N,GND*%
X75600000Y-62750000D03*
%TO.P,U4,3,OUT*%
%TO.N,Net-(U4-OUT)*%
X77500000Y-62750000D03*
%TO.P,U4,4,VD*%
%TO.N,+5V*%
X77500000Y-61450000D03*
%TD*%
D12*
%TO.P,C10,1*%
%TO.N,GND*%
X79250000Y-58200000D03*
%TO.P,C10,2*%
%TO.N,+5V*%
X79250000Y-59750000D03*
%TD*%
D16*
%TO.P,L4,1*%
%TO.N,Net-(J9-In)*%
X173955000Y-73543000D03*
%TO.P,L4,2*%
%TO.N,GND*%
X173955000Y-75293000D03*
%TD*%
D12*
%TO.P,C14,1*%
%TO.N,GND*%
X67000000Y-56450000D03*
%TO.P,C14,2*%
%TO.N,+5V*%
X67000000Y-58000000D03*
%TD*%
D19*
%TO.P,C41,1*%
%TO.N,GND*%
X216526000Y-68181000D03*
%TO.P,C41,2*%
%TO.N,+5V*%
X214976000Y-68181000D03*
%TD*%
D21*
%TO.P,R8,1*%
%TO.N,GND*%
X202784000Y-88883000D03*
%TO.P,R8,2*%
%TO.N,Net-(U12-rf)*%
X202784000Y-90533000D03*
%TD*%
D20*
%TO.P,R9,1*%
%TO.N,Net-(C45-Pad1)*%
X206149000Y-90533000D03*
%TO.P,R9,2*%
%TO.N,Net-(U12-rf)*%
X204499000Y-90533000D03*
%TD*%
D27*
%TO.P,R7,1*%
%TO.N,GND*%
X210786000Y-57767000D03*
%TO.P,R7,2*%
%TO.N,Net-(J13-In)*%
X212436000Y-57767000D03*
%TD*%
D24*
%TO.P,C47,1*%
%TO.N,Net-(J15-Pin_2)*%
X175352000Y-98471500D03*
%TO.P,C47,2*%
%TO.N,GND*%
X175352000Y-92246500D03*
%TD*%
D14*
%TO.P,J3,1,In*%
%TO.N,Net-(J3-In)*%
X86037500Y-62750000D03*
D15*
%TO.P,J3,2,Ext*%
%TO.N,GND*%
X85837500Y-65575000D03*
X85837500Y-59925000D03*
%TD*%
D28*
%TO.P,L1,1*%
%TO.N,Net-(C5-Pad1)*%
X54250000Y-63250000D03*
%TO.P,L1,2*%
%TO.N,GND*%
X52500000Y-63250000D03*
%TD*%
D26*
%TO.P,U11,1,IN*%
%TO.N,Net-(U11-IN)*%
X193518000Y-81613000D03*
%TO.P,U11,2,GND*%
%TO.N,GND*%
X193518000Y-82913000D03*
%TO.P,U11,3,OUT*%
%TO.N,Net-(U11-OUT)*%
X195418000Y-82913000D03*
%TO.P,U11,4,VD*%
%TO.N,+5V*%
X195418000Y-81613000D03*
%TD*%
D13*
%TO.P,C44,1*%
%TO.N,Net-(J14-In)*%
X213198000Y-71750000D03*
%TO.P,C44,2*%
%TO.N,Net-(U14-OUT)*%
X213198000Y-70200000D03*
%TD*%
D29*
%TO.P,U1,1,RF*%
%TO.N,Net-(U1-RF)*%
X46500000Y-60030000D03*
%TO.P,U1,2,RF&DC*%
%TO.N,Net-(J1-In)*%
X43960000Y-60030000D03*
%TO.P,U1,3*%
%TO.N,N/C*%
X43960000Y-63250000D03*
%TO.P,U1,4,DC*%
%TO.N,Net-(Q1-E)*%
X46500000Y-63250000D03*
%TD*%
D12*
%TO.P,C40,1*%
%TO.N,Net-(C40-Pad1)*%
X200752000Y-69171000D03*
%TO.P,C40,2*%
%TO.N,GND*%
X200752000Y-70721000D03*
%TD*%
D30*
%TO.P,X1,1,EN*%
%TO.N,unconnected-(X1-EN-Pad1)*%
X215484000Y-95613000D03*
%TO.P,X1,2,GND*%
%TO.N,GND*%
X215484000Y-90533000D03*
%TO.P,X1,3,OUT*%
%TO.N,Net-(X1-OUT)*%
X211484000Y-90533000D03*
%TO.P,X1,4,Vdd*%
%TO.N,+5V*%
X211484000Y-95613000D03*
%TD*%
D20*
%TO.P,R6,1*%
%TO.N,GND*%
X186337000Y-68943000D03*
%TO.P,R6,2*%
%TO.N,Net-(J12-In)*%
X184687000Y-68943000D03*
%TD*%
D11*
%TO.P,C32,1*%
%TO.N,Net-(C32-Pad1)*%
X193868000Y-96121000D03*
%TO.P,C32,2*%
%TO.N,Net-(C32-Pad2)*%
X195418000Y-96121000D03*
%TD*%
D31*
%TO.P,Q1,1,B*%
%TO.N,Net-(Q1-B)*%
X48400000Y-66000000D03*
%TO.P,Q1,2,E*%
%TO.N,Net-(Q1-E)*%
X46500000Y-66000000D03*
%TO.P,Q1,3,C*%
%TO.N,+5V*%
X47450000Y-67875000D03*
%TD*%
D19*
%TO.P,C12,1*%
%TO.N,Net-(J3-In)*%
X81775000Y-62750000D03*
%TO.P,C12,2*%
%TO.N,Net-(U4-OUT)*%
X80225000Y-62750000D03*
%TD*%
D11*
%TO.P,C28,1*%
%TO.N,Net-(J9-In)*%
X176863000Y-73515000D03*
%TO.P,C28,2*%
%TO.N,Net-(C28-Pad2)*%
X178413000Y-73515000D03*
%TD*%
D19*
%TO.P,C31,1*%
%TO.N,GND*%
X198720000Y-81389000D03*
%TO.P,C31,2*%
%TO.N,+5V*%
X197170000Y-81389000D03*
%TD*%
%TO.P,C39,1*%
%TO.N,Net-(C38-Pad2)*%
X209147000Y-61323000D03*
%TO.P,C39,2*%
%TO.N,Net-(C39-Pad2)*%
X207597000Y-61323000D03*
%TD*%
D25*
%TO.P,L3,1*%
%TO.N,Net-(U3-IF_{OUT})*%
X67750000Y-61500000D03*
%TO.P,L3,2*%
%TO.N,+5V*%
X67750000Y-59750000D03*
%TD*%
D11*
%TO.P,C45,1*%
%TO.N,Net-(C45-Pad1)*%
X207584000Y-90533000D03*
%TO.P,C45,2*%
%TO.N,Net-(X1-OUT)*%
X209134000Y-90533000D03*
%TD*%
D13*
%TO.P,C7,1*%
%TO.N,Net-(U3-LO)*%
X63000000Y-57775000D03*
%TO.P,C7,2*%
%TO.N,Net-(J2-In)*%
X63000000Y-56225000D03*
%TD*%
D10*
%TO.P,Q4,1,S*%
%TO.N,Net-(J13-In)*%
X215992000Y-64813000D03*
%TO.P,Q4,2,D*%
%TO.N,+5V*%
X215992000Y-62913000D03*
%TO.P,Q4,3,G*%
%TO.N,Net-(Q4-G)*%
X213717000Y-63863000D03*
%TD*%
D32*
%TO.P,U13,1*%
%TO.N,N/C*%
X189576000Y-94155000D03*
%TO.P,U13,2*%
%TO.N,Net-(J10-In)*%
X189576000Y-95105000D03*
%TO.P,U13,3*%
%TO.N,GND*%
X189576000Y-96055000D03*
%TO.P,U13,4*%
%TO.N,Net-(C32-Pad1)*%
X191851000Y-96055000D03*
%TO.P,U13,5*%
%TO.N,+5V*%
X191851000Y-94155000D03*
%TD*%
D12*
%TO.P,C27,1*%
%TO.N,Net-(J9-In)*%
X171796000Y-73489000D03*
%TO.P,C27,2*%
%TO.N,GND*%
X171796000Y-75039000D03*
%TD*%
D26*
%TO.P,U2,1,IN*%
%TO.N,Net-(U1-RF)*%
X49250000Y-60000000D03*
%TO.P,U2,2,GND*%
%TO.N,GND*%
X49250000Y-61300000D03*
%TO.P,U2,3,OUT*%
%TO.N,Net-(U2-OUT)*%
X51150000Y-61300000D03*
%TO.P,U2,4,VD*%
%TO.N,+5V*%
X51150000Y-60000000D03*
%TD*%
D27*
%TO.P,R1,1*%
%TO.N,+5V*%
X47350000Y-70000000D03*
%TO.P,R1,2*%
%TO.N,Net-(Q1-B)*%
X49000000Y-70000000D03*
%TD*%
D33*
%TO.P,Q3,1,S*%
%TO.N,Net-(J12-In)*%
X182906000Y-68954000D03*
%TO.P,Q3,2,D*%
%TO.N,+5V*%
X181006000Y-68954000D03*
%TO.P,Q3,3,G*%
%TO.N,Net-(Q3-G)*%
X181956000Y-71229000D03*
%TD*%
D19*
%TO.P,C5,1*%
%TO.N,Net-(C5-Pad1)*%
X54275000Y-61500000D03*
%TO.P,C5,2*%
%TO.N,Net-(U2-OUT)*%
X52725000Y-61500000D03*
%TD*%
%TO.P,C6,1*%
%TO.N,Net-(U3-RF_{IN})*%
X61050000Y-61500000D03*
%TO.P,C6,2*%
%TO.N,Net-(C6-Pad2)*%
X59500000Y-61500000D03*
%TD*%
D14*
%TO.P,J9,1,In*%
%TO.N,Net-(J9-In)*%
X166970000Y-73515000D03*
D15*
%TO.P,J9,2,Ext*%
%TO.N,GND*%
X167170000Y-70690000D03*
X167170000Y-76340000D03*
%TD*%
D11*
%TO.P,C37,1*%
%TO.N,Net-(C36-Pad2)*%
X192344000Y-67165000D03*
%TO.P,C37,2*%
%TO.N,Net-(C37-Pad2)*%
X193894000Y-67165000D03*
%TD*%
D12*
%TO.P,C33,1*%
%TO.N,GND*%
X193640000Y-92806000D03*
%TO.P,C33,2*%
%TO.N,+5V*%
X193640000Y-94356000D03*
%TD*%
D19*
%TO.P,C9,1*%
%TO.N,Net-(U4-IN)*%
X73050000Y-61500000D03*
%TO.P,C9,2*%
%TO.N,Net-(U3-IF_{OUT})*%
X71500000Y-61500000D03*
%TD*%
D11*
%TO.P,C30,1*%
%TO.N,GND*%
X188039000Y-80881000D03*
%TO.P,C30,2*%
%TO.N,+5V*%
X189589000Y-80881000D03*
%TD*%
D24*
%TO.P,C16,1*%
%TO.N,+5V*%
X56750000Y-73862500D03*
%TO.P,C16,2*%
%TO.N,GND*%
X56750000Y-67637500D03*
%TD*%
D13*
%TO.P,C1,1*%
%TO.N,GND*%
X50250000Y-67550000D03*
%TO.P,C1,2*%
%TO.N,Net-(Q1-B)*%
X50250000Y-66000000D03*
%TD*%
D34*
%TO.P,U15,1,GND*%
%TO.N,Net-(D3-A)*%
X171556000Y-86875000D03*
%TO.P,U15,2,VO*%
%TO.N,+5V*%
X169256000Y-86875000D03*
D35*
X169256000Y-93175000D03*
D34*
%TO.P,U15,3,VI*%
%TO.N,Net-(J15-Pin_2)*%
X166956000Y-86875000D03*
%TD*%
D13*
%TO.P,C29,1*%
%TO.N,Net-(U11-OUT)*%
X200752000Y-82913000D03*
%TO.P,C29,2*%
%TO.N,Net-(Q2-G)*%
X200752000Y-81363000D03*
%TD*%
D12*
%TO.P,C13,1*%
%TO.N,GND*%
X65250000Y-56475000D03*
%TO.P,C13,2*%
%TO.N,+5V*%
X65250000Y-58025000D03*
%TD*%
D11*
%TO.P,C35,1*%
%TO.N,GND*%
X177612000Y-68943000D03*
%TO.P,C35,2*%
%TO.N,+5V*%
X179162000Y-68943000D03*
%TD*%
D26*
%TO.P,U14,1,IN*%
%TO.N,Net-(Q4-G)*%
X211232000Y-67023000D03*
%TO.P,U14,2,GND*%
%TO.N,GND*%
X211232000Y-68323000D03*
%TO.P,U14,3,OUT*%
%TO.N,Net-(U14-OUT)*%
X213132000Y-68323000D03*
%TO.P,U14,4,VD*%
%TO.N,+5V*%
X213132000Y-67023000D03*
%TD*%
D36*
%TO.P,U5,1,GND*%
%TO.N,Net-(D1-A)*%
X67650000Y-73800000D03*
%TO.P,U5,2,VO*%
%TO.N,+5V*%
X67650000Y-71500000D03*
D37*
X61350000Y-71500000D03*
D36*
%TO.P,U5,3,VI*%
%TO.N,Net-(J4-Pin_2)*%
X67650000Y-69200000D03*
%TD*%
D32*
%TO.P,U3,1,LO*%
%TO.N,Net-(U3-LO)*%
X63000000Y-59600000D03*
%TO.P,U3,2,GND*%
%TO.N,GND*%
X63000000Y-60550000D03*
%TO.P,U3,3,RF_{IN}*%
%TO.N,Net-(U3-RF_{IN})*%
X63000000Y-61500000D03*
%TO.P,U3,4,IF_{OUT}*%
%TO.N,Net-(U3-IF_{OUT})*%
X65275000Y-61500000D03*
%TO.P,U3,5,V_{CC}*%
%TO.N,+5V*%
X65275000Y-60550000D03*
%TO.P,U3,6,~{SHDN}*%
X65275000Y-59600000D03*
%TD*%
D12*
%TO.P,C4,1*%
%TO.N,GND*%
X52750000Y-56700000D03*
%TO.P,C4,2*%
%TO.N,+5V*%
X52750000Y-58250000D03*
%TD*%
D38*
%TO.P,Y3,1,1*%
%TO.N,Net-(C37-Pad2)*%
X195872000Y-67165000D03*
%TO.P,Y3,2,2*%
%TO.N,Net-(C40-Pad1)*%
X200752000Y-67165000D03*
%TD*%
D39*
%TO.P,J15,1,Pin_1*%
%TO.N,GND*%
X167986000Y-98407000D03*
D40*
%TO.P,J15,2,Pin_2*%
%TO.N,Net-(J15-Pin_2)*%
X170526000Y-98407000D03*
%TD*%
D41*
%TO.P,U12,1,rf*%
%TO.N,Net-(U12-rf)*%
X200498000Y-90533000D03*
%TO.P,U12,2,gnd*%
%TO.N,GND*%
X200498000Y-85453000D03*
%TO.P,U12,3,if*%
%TO.N,Net-(R3-Pad2)*%
X195418000Y-90533000D03*
%TO.P,U12,4,if*%
X195418000Y-85453000D03*
%TO.P,U12,5,gnd*%
%TO.N,GND*%
X190338000Y-90533000D03*
%TO.P,U12,6,gnd*%
X190338000Y-85453000D03*
%TO.P,U12,7,gnd*%
X185258000Y-90533000D03*
%TO.P,U12,8,lo*%
%TO.N,Net-(U12-lo)*%
X185258000Y-85453000D03*
%TD*%
D42*
%TO.P,J10,1,In*%
%TO.N,Net-(J10-In)*%
X182972000Y-97899000D03*
D43*
%TO.P,J10,2,Ext*%
%TO.N,GND*%
X185512000Y-100439000D03*
X185512000Y-95359000D03*
X180432000Y-100439000D03*
X180432000Y-95359000D03*
%TD*%
D41*
%TO.P,U10,1,rf*%
%TO.N,Net-(Q3-G)*%
X185512000Y-73515000D03*
%TO.P,U10,2,gnd*%
%TO.N,GND*%
X185512000Y-78595000D03*
%TO.P,U10,3,if*%
%TO.N,Net-(C36-Pad1)*%
X190592000Y-73515000D03*
%TO.P,U10,4,if*%
X190592000Y-78595000D03*
%TO.P,U10,5,gnd*%
%TO.N,GND*%
X195672000Y-73515000D03*
%TO.P,U10,6,gnd*%
X195672000Y-78595000D03*
%TO.P,U10,7,gnd*%
X200752000Y-73515000D03*
%TO.P,U10,8,lo*%
%TO.N,Net-(Q2-G)*%
X200752000Y-78595000D03*
%TD*%
D44*
%TO.P,D3,1,K*%
%TO.N,GND*%
X171542000Y-80373000D03*
D45*
%TO.P,D3,2,A*%
%TO.N,Net-(D3-A)*%
X171542000Y-82913000D03*
%TD*%
D42*
%TO.P,J13,1,In*%
%TO.N,Net-(J13-In)*%
X214468000Y-57767000D03*
D43*
%TO.P,J13,2,Ext*%
%TO.N,GND*%
X217008000Y-60307000D03*
X217008000Y-55227000D03*
X211928000Y-60307000D03*
X211928000Y-55227000D03*
%TD*%
D44*
%TO.P,D1,1,K*%
%TO.N,GND*%
X51000000Y-70725000D03*
D45*
%TO.P,D1,2,A*%
%TO.N,Net-(D1-A)*%
X51000000Y-73265000D03*
%TD*%
D38*
%TO.P,Y4,1,1*%
%TO.N,Net-(C39-Pad2)*%
X205632000Y-61323000D03*
%TO.P,Y4,2,2*%
%TO.N,Net-(C40-Pad1)*%
X200752000Y-61323000D03*
%TD*%
D42*
%TO.P,J11,1,In*%
%TO.N,Net-(J11-In)*%
X214468000Y-82913000D03*
D43*
%TO.P,J11,2,Ext*%
%TO.N,GND*%
X217008000Y-85453000D03*
X217008000Y-80373000D03*
X211928000Y-85453000D03*
X211928000Y-80373000D03*
%TD*%
D42*
%TO.P,J12,1,In*%
%TO.N,Net-(J12-In)*%
X182972000Y-57767000D03*
D43*
%TO.P,J12,2,Ext*%
%TO.N,GND*%
X185512000Y-60307000D03*
X185512000Y-55227000D03*
X180432000Y-60307000D03*
X180432000Y-55227000D03*
%TD*%
D39*
%TO.P,J4,1,Pin_1*%
%TO.N,GND*%
X78250000Y-71750000D03*
D40*
%TO.P,J4,2,Pin_2*%
%TO.N,Net-(J4-Pin_2)*%
X80790000Y-71750000D03*
%TD*%
D46*
%TO.N,*%
X205070000Y-99060000D03*
D47*
%TO.N,GND*%
X77900000Y-58025000D03*
X203292000Y-56243000D03*
X86900000Y-60775000D03*
X182972000Y-91295000D03*
X85400000Y-64525000D03*
X86900000Y-64525000D03*
X208880000Y-85199000D03*
X199228000Y-81389000D03*
X205578000Y-82151000D03*
X85400000Y-60775000D03*
D46*
X39900000Y-52775000D03*
D47*
X182972000Y-78595000D03*
X203292000Y-82151000D03*
X40400000Y-58025000D03*
X189068000Y-97899000D03*
X60650000Y-51275000D03*
X187798000Y-70866000D03*
X206340000Y-72499000D03*
X40400000Y-62025000D03*
X189068000Y-100693000D03*
X72150000Y-63025000D03*
X50150000Y-75275000D03*
X208118000Y-77071000D03*
X65400000Y-53775000D03*
X200752000Y-96375000D03*
X49400000Y-58025000D03*
X56650000Y-67525000D03*
X61150000Y-57025000D03*
X198212000Y-92710000D03*
X192624000Y-83566000D03*
X171796000Y-75547000D03*
X42400000Y-62025000D03*
X48150000Y-73025000D03*
X61900000Y-63025000D03*
X175352000Y-82151000D03*
X73150000Y-60025000D03*
X42400000Y-58025000D03*
X48150000Y-61775000D03*
X179416000Y-82151000D03*
X75650000Y-63275000D03*
X169764000Y-70467000D03*
X83900000Y-60775000D03*
X47400000Y-58025000D03*
D46*
X85400000Y-52775000D03*
D47*
X199736000Y-56243000D03*
X83900000Y-64525000D03*
X200752000Y-70975000D03*
X175352000Y-91295000D03*
X45150000Y-64775000D03*
D46*
X85400000Y-74275000D03*
D47*
X205578000Y-85199000D03*
X81150000Y-61275000D03*
D46*
X39900000Y-74275000D03*
D47*
X193640000Y-92311000D03*
X78150000Y-64275000D03*
X169764000Y-76563000D03*
X214468000Y-70721000D03*
X81150000Y-64275000D03*
X200752000Y-93581000D03*
X55150000Y-59775000D03*
X203800000Y-75692000D03*
X177130000Y-69070000D03*
X179670000Y-91295000D03*
X58650000Y-59775000D03*
X218024000Y-65895000D03*
X79650000Y-58025000D03*
X60650000Y-53775000D03*
X67150000Y-56275000D03*
X211166000Y-77071000D03*
X75900000Y-60025000D03*
X58650000Y-63025000D03*
X79150000Y-61025000D03*
X214468000Y-76309000D03*
X50150000Y-62525000D03*
X215484000Y-89263000D03*
X206340000Y-69705000D03*
D46*
X168240000Y-57150000D03*
D47*
X173066000Y-101092000D03*
X209134000Y-93327000D03*
X195672000Y-70866000D03*
X217770000Y-68181000D03*
X65400000Y-51275000D03*
X165954000Y-100838000D03*
X65400000Y-56275000D03*
X190592000Y-64879000D03*
X187544000Y-80881000D03*
X173828000Y-70467000D03*
X193132000Y-70866000D03*
X70900000Y-60025000D03*
X173955000Y-76055000D03*
X187036000Y-68943000D03*
D46*
X192370000Y-57150000D03*
D47*
X55900000Y-63025000D03*
X202784000Y-88501000D03*
X45150000Y-58525000D03*
X38400000Y-62025000D03*
X72650000Y-67525000D03*
X179416000Y-76055000D03*
X64150000Y-63025000D03*
X52900000Y-63275000D03*
X52900000Y-59775000D03*
X68650000Y-63025000D03*
X182972000Y-75438000D03*
X38400000Y-58025000D03*
X61150000Y-59775000D03*
%TO.N,+5V*%
X51887500Y-69000000D03*
X78250000Y-59750000D03*
X66000000Y-58000000D03*
X51750000Y-58250000D03*
%TD*%
D48*
%TO.N,GND*%
X203909000Y-75801000D02*
X203800000Y-75692000D01*
X193518000Y-82913000D02*
X193277000Y-82913000D01*
X204803000Y-75801000D02*
X203909000Y-75801000D01*
X193277000Y-82913000D02*
X192624000Y-83566000D01*
%TO.N,Net-(Q1-B)*%
X45322183Y-71025000D02*
X47975000Y-71025000D01*
X44775000Y-70477817D02*
X45322183Y-71025000D01*
X44775000Y-69134251D02*
X44775000Y-70477817D01*
X47975000Y-71025000D02*
X49000000Y-70000000D01*
D49*
X48400000Y-66000000D02*
X50250000Y-66000000D01*
D48*
X47909251Y-66000000D02*
X44775000Y-69134251D01*
X48400000Y-66000000D02*
X47909251Y-66000000D01*
D49*
%TO.N,+5V*%
X65275000Y-58000000D02*
X65250000Y-58025000D01*
D48*
X195085000Y-81613000D02*
X195418000Y-81613000D01*
X182156000Y-70104000D02*
X181006000Y-68954000D01*
D49*
X47450000Y-69000000D02*
X47450000Y-69900000D01*
X211484000Y-95613000D02*
X209160000Y-95613000D01*
X209160000Y-95613000D02*
X209134000Y-95639000D01*
X51150000Y-60000000D02*
X51150000Y-58400000D01*
D48*
X211882000Y-68273000D02*
X213132000Y-67023000D01*
D49*
X77500000Y-61450000D02*
X77500000Y-59750000D01*
X206329000Y-77645000D02*
X206329000Y-76200000D01*
D48*
X197170000Y-81389000D02*
X197247000Y-81312000D01*
D50*
X194686000Y-80881000D02*
X195418000Y-81613000D01*
D48*
X188052000Y-79344000D02*
X188052000Y-73827613D01*
D49*
X215992000Y-62913000D02*
X217958000Y-62913000D01*
X79250000Y-59750000D02*
X78250000Y-59750000D01*
X67975000Y-59975000D02*
X67750000Y-59750000D01*
D50*
X196886000Y-81105000D02*
X197170000Y-81389000D01*
D48*
X191875000Y-80881000D02*
X189589000Y-80881000D01*
X197247000Y-78181000D02*
X198827000Y-76601000D01*
X206353000Y-75801000D02*
X211882000Y-70272000D01*
X199500000Y-93744000D02*
X201395000Y-95639000D01*
X184328387Y-70104000D02*
X182156000Y-70104000D01*
D49*
X180995000Y-68943000D02*
X181006000Y-68954000D01*
D48*
X194493000Y-82205000D02*
X195085000Y-81613000D01*
D49*
X51150000Y-58400000D02*
X51000000Y-58250000D01*
D48*
X215966000Y-65641000D02*
X214950000Y-66657000D01*
D49*
X65275000Y-58050000D02*
X65250000Y-58025000D01*
D50*
X195418000Y-81613000D02*
X195926000Y-81105000D01*
D49*
X217958000Y-62913000D02*
X218024000Y-62847000D01*
D48*
X194493000Y-83113000D02*
X194493000Y-82205000D01*
D49*
X206329000Y-75825000D02*
X206353000Y-75801000D01*
X193439000Y-94155000D02*
X193640000Y-94356000D01*
X65275000Y-59600000D02*
X65275000Y-58050000D01*
X213132000Y-67023000D02*
X214584000Y-67023000D01*
D48*
X188052000Y-73827613D02*
X184328387Y-70104000D01*
X178933727Y-89392000D02*
X182251727Y-92710000D01*
D49*
X47450000Y-67875000D02*
X47450000Y-69000000D01*
D50*
X191875000Y-80881000D02*
X194686000Y-80881000D01*
D48*
X201395000Y-95639000D02*
X209134000Y-95639000D01*
D49*
X214584000Y-67023000D02*
X214950000Y-66657000D01*
X78250000Y-59750000D02*
X77500000Y-59750000D01*
X45550000Y-70000000D02*
X47350000Y-70000000D01*
X66000000Y-58000000D02*
X65275000Y-58000000D01*
D48*
X192624000Y-94155000D02*
X192624000Y-84982000D01*
X216979500Y-63891500D02*
X216979500Y-65159751D01*
X211882000Y-70272000D02*
X211882000Y-68273000D01*
X197247000Y-81312000D02*
X197247000Y-78181000D01*
X192624000Y-84982000D02*
X194493000Y-83113000D01*
X205928000Y-76601000D02*
X206329000Y-76200000D01*
X193640000Y-94356000D02*
X194252000Y-93744000D01*
D51*
X169573000Y-89392000D02*
X169256000Y-89075000D01*
D48*
X218024000Y-62847000D02*
X216979500Y-63891500D01*
D49*
X69500000Y-59975000D02*
X67975000Y-59975000D01*
X191851000Y-94155000D02*
X192624000Y-94155000D01*
D48*
X216498251Y-65641000D02*
X215966000Y-65641000D01*
D51*
X169256000Y-89075000D02*
X169256000Y-86875000D01*
D49*
X206329000Y-76200000D02*
X206329000Y-75825000D01*
D48*
X175352000Y-89392000D02*
X178933727Y-89392000D01*
D49*
X214976000Y-67415000D02*
X214584000Y-67023000D01*
X52750000Y-58250000D02*
X51000000Y-58250000D01*
D48*
X216979500Y-65159751D02*
X216498251Y-65641000D01*
D49*
X214976000Y-68181000D02*
X214976000Y-67415000D01*
D48*
X189589000Y-80881000D02*
X188052000Y-79344000D01*
D49*
X67000000Y-58000000D02*
X66000000Y-58000000D01*
X192624000Y-94155000D02*
X193439000Y-94155000D01*
X51887500Y-69000000D02*
X47450000Y-69000000D01*
X61350000Y-71500000D02*
X59112500Y-71500000D01*
D48*
X198827000Y-76601000D02*
X205928000Y-76601000D01*
D49*
X65275000Y-59600000D02*
X67600000Y-59600000D01*
X56750000Y-73862500D02*
X51887500Y-69000000D01*
X179162000Y-68943000D02*
X180995000Y-68943000D01*
X67600000Y-59600000D02*
X67750000Y-59750000D01*
D50*
X195926000Y-81105000D02*
X196886000Y-81105000D01*
D48*
X182251727Y-92710000D02*
X190406000Y-92710000D01*
D49*
X59112500Y-71500000D02*
X56750000Y-73862500D01*
D51*
X175352000Y-89392000D02*
X169573000Y-89392000D01*
D48*
X194252000Y-93744000D02*
X199500000Y-93744000D01*
X190406000Y-92710000D02*
X191851000Y-94155000D01*
D49*
X65275000Y-59600000D02*
X65275000Y-60550000D01*
X47450000Y-69900000D02*
X47350000Y-70000000D01*
%TO.N,Net-(C5-Pad1)*%
X54275000Y-63225000D02*
X54250000Y-63250000D01*
X56000000Y-61500000D02*
X54275000Y-61500000D01*
X54275000Y-61500000D02*
X54275000Y-63225000D01*
%TO.N,Net-(U2-OUT)*%
X52725000Y-61500000D02*
X51350000Y-61500000D01*
X51350000Y-61500000D02*
X51150000Y-61300000D01*
%TO.N,Net-(U3-RF_{IN})*%
X63000000Y-61500000D02*
X61050000Y-61500000D01*
%TO.N,Net-(C6-Pad2)*%
X59500000Y-61500000D02*
X57750000Y-61500000D01*
%TO.N,Net-(U3-LO)*%
X63000000Y-59600000D02*
X63000000Y-57775000D01*
D52*
%TO.N,Net-(J2-In)*%
X63000000Y-52500000D02*
X63000000Y-56225000D01*
D49*
%TO.N,Net-(U3-IF_{OUT})*%
X67750000Y-61500000D02*
X71500000Y-61500000D01*
X65275000Y-61500000D02*
X67750000Y-61500000D01*
D52*
%TO.N,Net-(U4-IN)*%
X75600000Y-61450000D02*
X73100000Y-61450000D01*
%TO.N,Net-(J3-In)*%
X86037500Y-62750000D02*
X81825000Y-62750000D01*
%TO.N,Net-(U4-OUT)*%
X77500000Y-62750000D02*
X80225000Y-62750000D01*
D49*
%TO.N,Net-(J4-Pin_2)*%
X67650000Y-69200000D02*
X68087500Y-69200000D01*
X78677500Y-73862500D02*
X72750000Y-73862500D01*
X80790000Y-71750000D02*
X78677500Y-73862500D01*
X68087500Y-69200000D02*
X72750000Y-73862500D01*
%TO.N,Net-(D1-A)*%
X53135000Y-75400000D02*
X51000000Y-73265000D01*
X66050000Y-75400000D02*
X53135000Y-75400000D01*
X67650000Y-73800000D02*
X66050000Y-75400000D01*
D52*
%TO.N,Net-(J1-In)*%
X39462500Y-60000000D02*
X43930000Y-60000000D01*
X43930000Y-60000000D02*
X43960000Y-60030000D01*
D49*
%TO.N,Net-(Q1-E)*%
X46500000Y-63250000D02*
X46500000Y-66000000D01*
D52*
%TO.N,Net-(U1-RF)*%
X49250000Y-60000000D02*
X46530000Y-60000000D01*
X46530000Y-60000000D02*
X46500000Y-60030000D01*
%TO.N,Net-(J9-In)*%
X176863000Y-73515000D02*
X166970000Y-73515000D01*
%TO.N,Net-(C28-Pad2)*%
X180206000Y-73515000D02*
X178463000Y-73515000D01*
D50*
%TO.N,Net-(Q2-G)*%
X200752000Y-78595000D02*
X204054000Y-78595000D01*
D51*
X200752000Y-78595000D02*
X200752000Y-81363000D01*
D49*
%TO.N,Net-(C32-Pad1)*%
X193802000Y-96055000D02*
X193868000Y-96121000D01*
X191851000Y-96055000D02*
X193802000Y-96055000D01*
%TO.N,Net-(C32-Pad2)*%
X195418000Y-96121000D02*
X195418000Y-94469000D01*
D51*
%TO.N,Net-(C36-Pad2)*%
X190620000Y-67165000D02*
X190592000Y-67137000D01*
X190592000Y-69425000D02*
X190592000Y-67137000D01*
X192344000Y-67165000D02*
X190620000Y-67165000D01*
%TO.N,Net-(C37-Pad2)*%
X193894000Y-67165000D02*
X195872000Y-67165000D01*
D48*
%TO.N,Net-(Q4-G)*%
X212449000Y-63863000D02*
X213717000Y-63863000D01*
X211166000Y-65146000D02*
X212449000Y-63863000D01*
D49*
X211232000Y-65212000D02*
X211166000Y-65146000D01*
X211232000Y-67023000D02*
X211232000Y-65212000D01*
D51*
%TO.N,Net-(C38-Pad2)*%
X211166000Y-63596000D02*
X209234000Y-63596000D01*
X209147000Y-61323000D02*
X209147000Y-63483000D01*
X209147000Y-63483000D02*
X209134000Y-63496000D01*
X209234000Y-63596000D02*
X209134000Y-63496000D01*
%TO.N,Net-(C39-Pad2)*%
X205632000Y-61323000D02*
X207597000Y-61323000D01*
%TO.N,Net-(C40-Pad1)*%
X200752000Y-67165000D02*
X200752000Y-69171000D01*
X200752000Y-67165000D02*
X200752000Y-61323000D01*
%TO.N,Net-(J14-In)*%
X214963000Y-73515000D02*
X213198000Y-71750000D01*
X217371500Y-73515000D02*
X214963000Y-73515000D01*
D49*
%TO.N,Net-(U14-OUT)*%
X213132000Y-68323000D02*
X213132000Y-70134000D01*
X213132000Y-70134000D02*
X213198000Y-70200000D01*
D51*
%TO.N,Net-(C45-Pad1)*%
X207584000Y-90533000D02*
X206149000Y-90533000D01*
%TO.N,Net-(X1-OUT)*%
X211484000Y-90533000D02*
X209134000Y-90533000D01*
%TO.N,Net-(J15-Pin_2)*%
X166956000Y-86875000D02*
X166956000Y-89075000D01*
X170590500Y-98471500D02*
X170526000Y-98407000D01*
X170526000Y-98407000D02*
X170526000Y-97997076D01*
X169256000Y-91375000D02*
X171956000Y-91375000D01*
X175352000Y-98471500D02*
X170590500Y-98471500D01*
X171956000Y-91375000D02*
X173066000Y-92485000D01*
X173066000Y-92485000D02*
X173066000Y-96185500D01*
X166956000Y-89075000D02*
X169256000Y-91375000D01*
X173066000Y-96185500D02*
X175352000Y-98471500D01*
%TO.N,Net-(D3-A)*%
X171556000Y-82927000D02*
X171542000Y-82913000D01*
X171556000Y-86875000D02*
X171556000Y-82927000D01*
D49*
%TO.N,Net-(J10-In)*%
X185270098Y-97899000D02*
X188064098Y-95105000D01*
X182972000Y-97899000D02*
X185270098Y-97899000D01*
X188064098Y-95105000D02*
X189576000Y-95105000D01*
X186528000Y-97899000D02*
X185270098Y-97899000D01*
%TO.N,Net-(J11-In)*%
X206329000Y-79545000D02*
X209697000Y-82913000D01*
X206395000Y-79611000D02*
X206329000Y-79545000D01*
X209697000Y-82913000D02*
X214468000Y-82913000D01*
X208118000Y-79611000D02*
X206395000Y-79611000D01*
D50*
%TO.N,Net-(J12-In)*%
X182972000Y-68888000D02*
X182972000Y-57767000D01*
D49*
X184676000Y-68954000D02*
X184687000Y-68943000D01*
D50*
X182906000Y-68954000D02*
X182972000Y-68888000D01*
D49*
X182906000Y-68954000D02*
X184676000Y-68954000D01*
%TO.N,Net-(J13-In)*%
X214468000Y-57767000D02*
X214729500Y-58028500D01*
X212436000Y-57767000D02*
X214468000Y-57767000D01*
X215992000Y-64556261D02*
X215992000Y-64813000D01*
X214729500Y-63293761D02*
X215992000Y-64556261D01*
X214729500Y-58028500D02*
X214729500Y-63293761D01*
D51*
%TO.N,Net-(Q3-G)*%
X181956000Y-73515000D02*
X185512000Y-73515000D01*
D48*
X181956000Y-71229000D02*
X181956000Y-73515000D01*
D51*
%TO.N,Net-(U12-rf)*%
X204499000Y-90533000D02*
X200498000Y-90533000D01*
D49*
%TO.N,Net-(U11-IN)*%
X186782000Y-82405000D02*
X192726000Y-82405000D01*
X192726000Y-82405000D02*
X193518000Y-81613000D01*
D51*
%TO.N,Net-(C36-Pad1)*%
X190592000Y-73515000D02*
X190592000Y-70975000D01*
D49*
X190592000Y-73515000D02*
X190592000Y-78595000D01*
%TO.N,Net-(R3-Pad2)*%
X195418000Y-92819000D02*
X195418000Y-90533000D01*
X195418000Y-85453000D02*
X195418000Y-90533000D01*
D51*
%TO.N,Net-(U11-OUT)*%
X200752000Y-82913000D02*
X195418000Y-82913000D01*
D49*
%TO.N,Net-(U12-lo)*%
X185232000Y-82405000D02*
X185232000Y-85427000D01*
X185232000Y-85427000D02*
X185258000Y-85453000D01*
%TD*%
%TA.AperFunction,Conductor*%
%TO.N,GND*%
G36*
X45275276Y-60299942D02*
G01*
X45330499Y-60342745D01*
X45350705Y-60386988D01*
X45356856Y-60413139D01*
X45356860Y-60413151D01*
X45446721Y-60616668D01*
X45572457Y-60800220D01*
X45572462Y-60800226D01*
X45607118Y-60834882D01*
X45637822Y-60885671D01*
X45661318Y-60961069D01*
X45661319Y-60961073D01*
X45749007Y-61106128D01*
X45749010Y-61106132D01*
X45868868Y-61225990D01*
X46013928Y-61313681D01*
X46175758Y-61364110D01*
X46246079Y-61370500D01*
X46753920Y-61370499D01*
X46753927Y-61370499D01*
X46824235Y-61364111D01*
X46824236Y-61364110D01*
X46824242Y-61364110D01*
X46986072Y-61313681D01*
X47131129Y-61225992D01*
X47137551Y-61222110D01*
X47138411Y-61223533D01*
X47194894Y-61201040D01*
X47206457Y-61200500D01*
X49305499Y-61200500D01*
X49305503Y-61200500D01*
X49471536Y-61185115D01*
X49685528Y-61124229D01*
X49884689Y-61025058D01*
X50062236Y-60890981D01*
X50149236Y-60795546D01*
X50208943Y-60759268D01*
X50278791Y-60761028D01*
X50336599Y-60800271D01*
X50364013Y-60864537D01*
X50357053Y-60922418D01*
X50330910Y-60992513D01*
X50330909Y-60992517D01*
X50324500Y-61052127D01*
X50324500Y-61052134D01*
X50324500Y-61052135D01*
X50324500Y-61547870D01*
X50324501Y-61547876D01*
X50330908Y-61607483D01*
X50381202Y-61742328D01*
X50381206Y-61742335D01*
X50467452Y-61857544D01*
X50467455Y-61857547D01*
X50582664Y-61943793D01*
X50582673Y-61943798D01*
X50683464Y-61981390D01*
X50727813Y-62009891D01*
X50847738Y-62129816D01*
X50883103Y-62152037D01*
X50888768Y-62156057D01*
X50921414Y-62182092D01*
X50959038Y-62200210D01*
X50965123Y-62203574D01*
X51000478Y-62225789D01*
X51039899Y-62239583D01*
X51046307Y-62242238D01*
X51083939Y-62260360D01*
X51124641Y-62269650D01*
X51131328Y-62271576D01*
X51156001Y-62280209D01*
X51170745Y-62285368D01*
X51212241Y-62290043D01*
X51219093Y-62291207D01*
X51259806Y-62300500D01*
X51305046Y-62300500D01*
X51975440Y-62300500D01*
X52040538Y-62319615D01*
X52040809Y-62319177D01*
X52042410Y-62320164D01*
X52042479Y-62320185D01*
X52042706Y-62320347D01*
X52191294Y-62411998D01*
X52191297Y-62411999D01*
X52191303Y-62412003D01*
X52352292Y-62465349D01*
X52451655Y-62475500D01*
X52998344Y-62475499D01*
X52998352Y-62475498D01*
X52998355Y-62475498D01*
X53052760Y-62469940D01*
X53097708Y-62465349D01*
X53195606Y-62432908D01*
X53265430Y-62430507D01*
X53325473Y-62466238D01*
X53356666Y-62528758D01*
X53349106Y-62598218D01*
X53340146Y-62615711D01*
X53289095Y-62698477D01*
X53289091Y-62698484D01*
X53289092Y-62698484D01*
X53234826Y-62862247D01*
X53234826Y-62862248D01*
X53234825Y-62862248D01*
X53224500Y-62963315D01*
X53224500Y-63536669D01*
X53224501Y-63536687D01*
X53234825Y-63637752D01*
X53254301Y-63696525D01*
X53289092Y-63801516D01*
X53379660Y-63948350D01*
X53501650Y-64070340D01*
X53648484Y-64160908D01*
X53812247Y-64215174D01*
X53913323Y-64225500D01*
X54586676Y-64225499D01*
X54586684Y-64225498D01*
X54586687Y-64225498D01*
X54642030Y-64219844D01*
X54687753Y-64215174D01*
X54851516Y-64160908D01*
X54998350Y-64070340D01*
X55120340Y-63948350D01*
X55210908Y-63801516D01*
X55265174Y-63637753D01*
X55275500Y-63536677D01*
X55275499Y-62963324D01*
X55265174Y-62862247D01*
X55210908Y-62698484D01*
X55120340Y-62551650D01*
X55111818Y-62543128D01*
X55078333Y-62481805D01*
X55075499Y-62455447D01*
X55075499Y-62433863D01*
X55095184Y-62366824D01*
X55147988Y-62321069D01*
X55217146Y-62311125D01*
X55264596Y-62328325D01*
X55398475Y-62410903D01*
X55398478Y-62410904D01*
X55398484Y-62410908D01*
X55562247Y-62465174D01*
X55663323Y-62475500D01*
X56336676Y-62475499D01*
X56336684Y-62475498D01*
X56336687Y-62475498D01*
X56392030Y-62469844D01*
X56437753Y-62465174D01*
X56601516Y-62410908D01*
X56748350Y-62320340D01*
X56787319Y-62281370D01*
X56848642Y-62247886D01*
X56918334Y-62252870D01*
X56962681Y-62281370D01*
X57001650Y-62320340D01*
X57148484Y-62410908D01*
X57312247Y-62465174D01*
X57413323Y-62475500D01*
X58086676Y-62475499D01*
X58086684Y-62475498D01*
X58086687Y-62475498D01*
X58142030Y-62469844D01*
X58187753Y-62465174D01*
X58351516Y-62410908D01*
X58498350Y-62320340D01*
X58498351Y-62320338D01*
X58500585Y-62318961D01*
X58565682Y-62300500D01*
X58750440Y-62300500D01*
X58815538Y-62319615D01*
X58815809Y-62319177D01*
X58817410Y-62320164D01*
X58817479Y-62320185D01*
X58817706Y-62320347D01*
X58966294Y-62411998D01*
X58966297Y-62411999D01*
X58966303Y-62412003D01*
X59127292Y-62465349D01*
X59226655Y-62475500D01*
X59773344Y-62475499D01*
X59773352Y-62475498D01*
X59773355Y-62475498D01*
X59827760Y-62469940D01*
X59872708Y-62465349D01*
X60033697Y-62412003D01*
X60178044Y-62322968D01*
X60187315Y-62313696D01*
X60248638Y-62280209D01*
X60318330Y-62285191D01*
X60362684Y-62313696D01*
X60371956Y-62322968D01*
X60516294Y-62411998D01*
X60516297Y-62411999D01*
X60516303Y-62412003D01*
X60677292Y-62465349D01*
X60776655Y-62475500D01*
X61323344Y-62475499D01*
X61323352Y-62475498D01*
X61323355Y-62475498D01*
X61377760Y-62469940D01*
X61422708Y-62465349D01*
X61583697Y-62412003D01*
X61599851Y-62402038D01*
X61734191Y-62319177D01*
X61735868Y-62321896D01*
X61787466Y-62301091D01*
X61799560Y-62300500D01*
X63578196Y-62300500D01*
X63596631Y-62299049D01*
X63615069Y-62297598D01*
X63615071Y-62297597D01*
X63615073Y-62297597D01*
X63674922Y-62280209D01*
X63772898Y-62251744D01*
X63914365Y-62168081D01*
X64030581Y-62051865D01*
X64030767Y-62051549D01*
X64030977Y-62051353D01*
X64035361Y-62045702D01*
X64036272Y-62046409D01*
X64081836Y-62003866D01*
X64150577Y-61991362D01*
X64215167Y-62018006D01*
X64239355Y-62045921D01*
X64239639Y-62045702D01*
X64243679Y-62050911D01*
X64244232Y-62051548D01*
X64244419Y-62051865D01*
X64244421Y-62051867D01*
X64244423Y-62051870D01*
X64360629Y-62168076D01*
X64360633Y-62168079D01*
X64360635Y-62168081D01*
X64502102Y-62251744D01*
X64505978Y-62252870D01*
X64659926Y-62297597D01*
X64659929Y-62297597D01*
X64659931Y-62297598D01*
X64672222Y-62298565D01*
X64696804Y-62300500D01*
X64696806Y-62300500D01*
X65230046Y-62300500D01*
X66930448Y-62300500D01*
X66997487Y-62320185D01*
X67018129Y-62336819D01*
X67051650Y-62370340D01*
X67198484Y-62460908D01*
X67362247Y-62515174D01*
X67463323Y-62525500D01*
X68036676Y-62525499D01*
X68036684Y-62525498D01*
X68036687Y-62525498D01*
X68092555Y-62519791D01*
X68137753Y-62515174D01*
X68301516Y-62460908D01*
X68448350Y-62370340D01*
X68481871Y-62336819D01*
X68543194Y-62303334D01*
X68569552Y-62300500D01*
X68725440Y-62300500D01*
X68790538Y-62319615D01*
X68790809Y-62319177D01*
X68792410Y-62320164D01*
X68792479Y-62320185D01*
X68792706Y-62320347D01*
X68941294Y-62411998D01*
X68941297Y-62411999D01*
X68941303Y-62412003D01*
X69102292Y-62465349D01*
X69201655Y-62475500D01*
X69798344Y-62475499D01*
X69798352Y-62475498D01*
X69798355Y-62475498D01*
X69852760Y-62469940D01*
X69897708Y-62465349D01*
X70058697Y-62412003D01*
X70074851Y-62402038D01*
X70209191Y-62319177D01*
X70210868Y-62321896D01*
X70262466Y-62301091D01*
X70274560Y-62300500D01*
X70750440Y-62300500D01*
X70815538Y-62319615D01*
X70815809Y-62319177D01*
X70817410Y-62320164D01*
X70817479Y-62320185D01*
X70817706Y-62320347D01*
X70966294Y-62411998D01*
X70966297Y-62411999D01*
X70966303Y-62412003D01*
X71127292Y-62465349D01*
X71226655Y-62475500D01*
X71773344Y-62475499D01*
X71773352Y-62475498D01*
X71773355Y-62475498D01*
X71827760Y-62469940D01*
X71872708Y-62465349D01*
X72033697Y-62412003D01*
X72153146Y-62338325D01*
X72220535Y-62319885D01*
X72287199Y-62340807D01*
X72292948Y-62344895D01*
X72381806Y-62411998D01*
X72465308Y-62475056D01*
X72465316Y-62475061D01*
X72664461Y-62574224D01*
X72664465Y-62574225D01*
X72664472Y-62574229D01*
X72878464Y-62635115D01*
X73044497Y-62650500D01*
X73044501Y-62650500D01*
X75655499Y-62650500D01*
X75655503Y-62650500D01*
X75821536Y-62635115D01*
X76035528Y-62574229D01*
X76120229Y-62532052D01*
X76189013Y-62519791D01*
X76253508Y-62546664D01*
X76293236Y-62604140D01*
X76299500Y-62643053D01*
X76299500Y-62861243D01*
X76340382Y-63079940D01*
X76420752Y-63287398D01*
X76420754Y-63287404D01*
X76537874Y-63476560D01*
X76537876Y-63476562D01*
X76687761Y-63640979D01*
X76865308Y-63775056D01*
X76865316Y-63775061D01*
X77064461Y-63874224D01*
X77064465Y-63874225D01*
X77064472Y-63874229D01*
X77278464Y-63935115D01*
X77444497Y-63950500D01*
X77444501Y-63950500D01*
X80280499Y-63950500D01*
X80280503Y-63950500D01*
X80446536Y-63935115D01*
X80660528Y-63874229D01*
X80806550Y-63801518D01*
X80859683Y-63775061D01*
X80859683Y-63775060D01*
X80859689Y-63775058D01*
X80950274Y-63706651D01*
X81015633Y-63681960D01*
X81083968Y-63696525D01*
X81099725Y-63706652D01*
X81190302Y-63775052D01*
X81190316Y-63775061D01*
X81389461Y-63874224D01*
X81389465Y-63874225D01*
X81389472Y-63874229D01*
X81603464Y-63935115D01*
X81769497Y-63950500D01*
X81769501Y-63950500D01*
X86092999Y-63950500D01*
X86093003Y-63950500D01*
X86259036Y-63935115D01*
X86369420Y-63903707D01*
X86416779Y-63890233D01*
X86450713Y-63885499D01*
X87275500Y-63885499D01*
X87342539Y-63905184D01*
X87388294Y-63957988D01*
X87399500Y-64009499D01*
X87399500Y-75900500D01*
X87379815Y-75967539D01*
X87327011Y-76013294D01*
X87275500Y-76024500D01*
X66856939Y-76024500D01*
X66789900Y-76004815D01*
X66744145Y-75952011D01*
X66734201Y-75882853D01*
X66763226Y-75819297D01*
X66769258Y-75812819D01*
X67495258Y-75086818D01*
X67556581Y-75053333D01*
X67582939Y-75050499D01*
X68697871Y-75050499D01*
X68697872Y-75050499D01*
X68757483Y-75044091D01*
X68892331Y-74993796D01*
X69007546Y-74907546D01*
X69093796Y-74792331D01*
X69144091Y-74657483D01*
X69150500Y-74597873D01*
X69150499Y-73002128D01*
X69144091Y-72942517D01*
X69138203Y-72926731D01*
X69093797Y-72807671D01*
X69093796Y-72807669D01*
X69054868Y-72755668D01*
X69031393Y-72724310D01*
X69006977Y-72658847D01*
X69021828Y-72590574D01*
X69031394Y-72575689D01*
X69093796Y-72492331D01*
X69144091Y-72357483D01*
X69150500Y-72297873D01*
X69150499Y-71694437D01*
X69170183Y-71627400D01*
X69222987Y-71581645D01*
X69292146Y-71571701D01*
X69355702Y-71600726D01*
X69362180Y-71606758D01*
X70938181Y-73182759D01*
X70971666Y-73244082D01*
X70974500Y-73270440D01*
X70974500Y-74700001D01*
X70974501Y-74700018D01*
X70985000Y-74802796D01*
X70985001Y-74802799D01*
X71011782Y-74883617D01*
X71040186Y-74969334D01*
X71132288Y-75118656D01*
X71256344Y-75242712D01*
X71405666Y-75334814D01*
X71572203Y-75389999D01*
X71674991Y-75400500D01*
X73825008Y-75400499D01*
X73927797Y-75389999D01*
X74094334Y-75334814D01*
X74243656Y-75242712D01*
X74367712Y-75118656D01*
X74459814Y-74969334D01*
X74514999Y-74802797D01*
X74517900Y-74774398D01*
X74544295Y-74709707D01*
X74601476Y-74669555D01*
X74641258Y-74663000D01*
X78767694Y-74663000D01*
X78801749Y-74655226D01*
X78808405Y-74653708D01*
X78815260Y-74652543D01*
X78856755Y-74647868D01*
X78896180Y-74634071D01*
X78902821Y-74632158D01*
X78943561Y-74622860D01*
X78981193Y-74604736D01*
X78987605Y-74602080D01*
X79027022Y-74588289D01*
X79062389Y-74566065D01*
X79068461Y-74562709D01*
X79106087Y-74544591D01*
X79138736Y-74518552D01*
X79144395Y-74514537D01*
X79179762Y-74492316D01*
X79307316Y-74364762D01*
X79307316Y-74364761D01*
X80334417Y-73337659D01*
X80395738Y-73304176D01*
X80458407Y-73306778D01*
X80500215Y-73319582D01*
X80500220Y-73319583D01*
X80731624Y-73349216D01*
X80964707Y-73339314D01*
X81192765Y-73290164D01*
X81409235Y-73203179D01*
X81607891Y-73080862D01*
X81783018Y-72926731D01*
X81929578Y-72745220D01*
X81929578Y-72745219D01*
X82043353Y-72541554D01*
X82043354Y-72541552D01*
X82121073Y-72321584D01*
X82160500Y-72091647D01*
X82160500Y-71466784D01*
X82158960Y-71448689D01*
X82145671Y-71292553D01*
X82145670Y-71292551D01*
X82145670Y-71292547D01*
X82086885Y-71066781D01*
X81990792Y-70854198D01*
X81860153Y-70660912D01*
X81698728Y-70492484D01*
X81698727Y-70492483D01*
X81698726Y-70492482D01*
X81511165Y-70353762D01*
X81503704Y-70350000D01*
X81302847Y-70248730D01*
X81079780Y-70180417D01*
X81079778Y-70180416D01*
X81079776Y-70180416D01*
X80848370Y-70150783D01*
X80615299Y-70160685D01*
X80615290Y-70160686D01*
X80387233Y-70209836D01*
X80387230Y-70209837D01*
X80170768Y-70296819D01*
X79972110Y-70419137D01*
X79796980Y-70573270D01*
X79796977Y-70573273D01*
X79650426Y-70754773D01*
X79650421Y-70754779D01*
X79536646Y-70958445D01*
X79458929Y-71178408D01*
X79458926Y-71178420D01*
X79419500Y-71408344D01*
X79419499Y-71408353D01*
X79419500Y-71937060D01*
X79399815Y-72004099D01*
X79383181Y-72024741D01*
X78382241Y-73025681D01*
X78320918Y-73059166D01*
X78294560Y-73062000D01*
X74641258Y-73062000D01*
X74574219Y-73042315D01*
X74528464Y-72989511D01*
X74517900Y-72950602D01*
X74517074Y-72942516D01*
X74514999Y-72922203D01*
X74459814Y-72755666D01*
X74367712Y-72606344D01*
X74243656Y-72482288D01*
X74094334Y-72390186D01*
X73927797Y-72335001D01*
X73927795Y-72335000D01*
X73825016Y-72324500D01*
X73825009Y-72324500D01*
X72395440Y-72324500D01*
X72328401Y-72304815D01*
X72307759Y-72288181D01*
X69186818Y-69167240D01*
X69153333Y-69105917D01*
X69150499Y-69079559D01*
X69150499Y-68402129D01*
X69150498Y-68402123D01*
X69150497Y-68402116D01*
X69144091Y-68342517D01*
X69093796Y-68207669D01*
X69093795Y-68207668D01*
X69093793Y-68207664D01*
X69007547Y-68092455D01*
X69007544Y-68092452D01*
X68892335Y-68006206D01*
X68892328Y-68006202D01*
X68757482Y-67955908D01*
X68757483Y-67955908D01*
X68697883Y-67949501D01*
X68697881Y-67949500D01*
X68697873Y-67949500D01*
X68697864Y-67949500D01*
X66602129Y-67949500D01*
X66602123Y-67949501D01*
X66542516Y-67955908D01*
X66407671Y-68006202D01*
X66407664Y-68006206D01*
X66292455Y-68092452D01*
X66292452Y-68092455D01*
X66206206Y-68207664D01*
X66206202Y-68207671D01*
X66155908Y-68342517D01*
X66153019Y-68369393D01*
X66149501Y-68402123D01*
X66149500Y-68402135D01*
X66149500Y-69997870D01*
X66149501Y-69997876D01*
X66155908Y-70057483D01*
X66206202Y-70192328D01*
X66206203Y-70192330D01*
X66268606Y-70275689D01*
X66293023Y-70341153D01*
X66278172Y-70409426D01*
X66268606Y-70424311D01*
X66206203Y-70507669D01*
X66206202Y-70507671D01*
X66155908Y-70642517D01*
X66149501Y-70702116D01*
X66149500Y-70702135D01*
X66149500Y-72297870D01*
X66149501Y-72297876D01*
X66155908Y-72357483D01*
X66206202Y-72492328D01*
X66206203Y-72492330D01*
X66268606Y-72575689D01*
X66293023Y-72641153D01*
X66278172Y-72709426D01*
X66268606Y-72724311D01*
X66206203Y-72807669D01*
X66206202Y-72807671D01*
X66155908Y-72942517D01*
X66150856Y-72989511D01*
X66149501Y-73002123D01*
X66149500Y-73002135D01*
X66149500Y-74117059D01*
X66129815Y-74184098D01*
X66113181Y-74204740D01*
X65754741Y-74563181D01*
X65693418Y-74596666D01*
X65667060Y-74599500D01*
X58649500Y-74599500D01*
X58582461Y-74579815D01*
X58536706Y-74527011D01*
X58525500Y-74475500D01*
X58525499Y-73270440D01*
X58545184Y-73203401D01*
X58561818Y-73182759D01*
X59407759Y-72336819D01*
X59469082Y-72303334D01*
X59495440Y-72300500D01*
X59725501Y-72300500D01*
X59792540Y-72320185D01*
X59838295Y-72372989D01*
X59849501Y-72424500D01*
X59849501Y-73447876D01*
X59855908Y-73507483D01*
X59906202Y-73642328D01*
X59906206Y-73642335D01*
X59992452Y-73757544D01*
X59992455Y-73757547D01*
X60107664Y-73843793D01*
X60107671Y-73843797D01*
X60242517Y-73894091D01*
X60242516Y-73894091D01*
X60249444Y-73894835D01*
X60302127Y-73900500D01*
X62397872Y-73900499D01*
X62457483Y-73894091D01*
X62592331Y-73843796D01*
X62707546Y-73757546D01*
X62793796Y-73642331D01*
X62844091Y-73507483D01*
X62850500Y-73447873D01*
X62850499Y-69552128D01*
X62844091Y-69492517D01*
X62793796Y-69357669D01*
X62793795Y-69357668D01*
X62793793Y-69357664D01*
X62707547Y-69242455D01*
X62707544Y-69242452D01*
X62592335Y-69156206D01*
X62592328Y-69156202D01*
X62457482Y-69105908D01*
X62457483Y-69105908D01*
X62397883Y-69099501D01*
X62397881Y-69099500D01*
X62397873Y-69099500D01*
X62397864Y-69099500D01*
X60302129Y-69099500D01*
X60302123Y-69099501D01*
X60242516Y-69105908D01*
X60107671Y-69156202D01*
X60107664Y-69156206D01*
X59992455Y-69242452D01*
X59992452Y-69242455D01*
X59906206Y-69357664D01*
X59906202Y-69357671D01*
X59855908Y-69492517D01*
X59849501Y-69552116D01*
X59849501Y-69552123D01*
X59849500Y-69552135D01*
X59849500Y-70575500D01*
X59829815Y-70642539D01*
X59777011Y-70688294D01*
X59725500Y-70699500D01*
X59202695Y-70699500D01*
X59022306Y-70699500D01*
X59016388Y-70700850D01*
X58981589Y-70708791D01*
X58974735Y-70709955D01*
X58933243Y-70714632D01*
X58893839Y-70728419D01*
X58887158Y-70730344D01*
X58846435Y-70739641D01*
X58808808Y-70757759D01*
X58802385Y-70760420D01*
X58762981Y-70774210D01*
X58762975Y-70774212D01*
X58727622Y-70796425D01*
X58721536Y-70799789D01*
X58683917Y-70817905D01*
X58651263Y-70843945D01*
X58645591Y-70847969D01*
X58610243Y-70870180D01*
X58610240Y-70870182D01*
X58519665Y-70960754D01*
X58519661Y-70960760D01*
X57192240Y-72288181D01*
X57130917Y-72321666D01*
X57104559Y-72324500D01*
X56395440Y-72324500D01*
X56328401Y-72304815D01*
X56307759Y-72288181D01*
X52910368Y-68890790D01*
X52876883Y-68829467D01*
X52874646Y-68815261D01*
X52873524Y-68803871D01*
X52873524Y-68803868D01*
X52816314Y-68615273D01*
X52816311Y-68615269D01*
X52816311Y-68615266D01*
X52723413Y-68441467D01*
X52723409Y-68441460D01*
X52598383Y-68289116D01*
X52446039Y-68164090D01*
X52446032Y-68164086D01*
X52272233Y-68071188D01*
X52272227Y-68071186D01*
X52083632Y-68013976D01*
X52083629Y-68013975D01*
X51887500Y-67994659D01*
X51691370Y-68013975D01*
X51502766Y-68071188D01*
X51328967Y-68164086D01*
X51328965Y-68164087D01*
X51324776Y-68167525D01*
X51320112Y-68171352D01*
X51255804Y-68198666D01*
X51241447Y-68199500D01*
X48374500Y-68199500D01*
X48307461Y-68179815D01*
X48261706Y-68127011D01*
X48250500Y-68075500D01*
X48250500Y-67362000D01*
X48270185Y-67294961D01*
X48322989Y-67249206D01*
X48374500Y-67238000D01*
X48615696Y-67238000D01*
X48634131Y-67236549D01*
X48652569Y-67235098D01*
X48652571Y-67235097D01*
X48652573Y-67235097D01*
X48694191Y-67223005D01*
X48810398Y-67189244D01*
X48951865Y-67105581D01*
X49068081Y-66989365D01*
X49143771Y-66861378D01*
X49194840Y-66813696D01*
X49250503Y-66800500D01*
X49515895Y-66800500D01*
X49580991Y-66818961D01*
X49691303Y-66887003D01*
X49852292Y-66940349D01*
X49951655Y-66950500D01*
X50548344Y-66950499D01*
X50548352Y-66950498D01*
X50548355Y-66950498D01*
X50602760Y-66944940D01*
X50647708Y-66940349D01*
X50808697Y-66887003D01*
X50953044Y-66797968D01*
X51072968Y-66678044D01*
X51162003Y-66533697D01*
X51215349Y-66372708D01*
X51225500Y-66273345D01*
X51225499Y-65726656D01*
X51215349Y-65627292D01*
X51162003Y-65466303D01*
X51161999Y-65466297D01*
X51161998Y-65466294D01*
X51072970Y-65321959D01*
X51072967Y-65321955D01*
X50953044Y-65202032D01*
X50953040Y-65202029D01*
X50808705Y-65113001D01*
X50808699Y-65112998D01*
X50808697Y-65112997D01*
X50808694Y-65112996D01*
X50647709Y-65059651D01*
X50548346Y-65049500D01*
X49951662Y-65049500D01*
X49951644Y-65049501D01*
X49852292Y-65059650D01*
X49852289Y-65059651D01*
X49691305Y-65112996D01*
X49691298Y-65112999D01*
X49627898Y-65152106D01*
X49580991Y-65181038D01*
X49515895Y-65199500D01*
X49250503Y-65199500D01*
X49183464Y-65179815D01*
X49143771Y-65138621D01*
X49128619Y-65113001D01*
X49068081Y-65010635D01*
X49068079Y-65010633D01*
X49068076Y-65010629D01*
X48951870Y-64894423D01*
X48951862Y-64894417D01*
X48810396Y-64810755D01*
X48810393Y-64810754D01*
X48652573Y-64764902D01*
X48652567Y-64764901D01*
X48615696Y-64762000D01*
X48615694Y-64762000D01*
X48184306Y-64762000D01*
X48184304Y-64762000D01*
X48147432Y-64764901D01*
X48147426Y-64764902D01*
X47989606Y-64810754D01*
X47989603Y-64810755D01*
X47848137Y-64894417D01*
X47848129Y-64894423D01*
X47731923Y-65010629D01*
X47731917Y-65010637D01*
X47648255Y-65152103D01*
X47648254Y-65152106D01*
X47602402Y-65309926D01*
X47602401Y-65309932D01*
X47599500Y-65346804D01*
X47599500Y-65385758D01*
X47579815Y-65452797D01*
X47538625Y-65492488D01*
X47522832Y-65501828D01*
X47522830Y-65501830D01*
X47512177Y-65512481D01*
X47450854Y-65545964D01*
X47381163Y-65540977D01*
X47325231Y-65499104D01*
X47300816Y-65433639D01*
X47300500Y-65424797D01*
X47300500Y-65346806D01*
X47300500Y-64894417D01*
X47300499Y-64278798D01*
X47318384Y-64214647D01*
X47338680Y-64181073D01*
X47338681Y-64181072D01*
X47344965Y-64160906D01*
X47389110Y-64019242D01*
X47395500Y-63948921D01*
X47395499Y-62551080D01*
X47395499Y-62551079D01*
X47395499Y-62551071D01*
X47389111Y-62480764D01*
X47389110Y-62480761D01*
X47389110Y-62480758D01*
X47339121Y-62320340D01*
X47338683Y-62318934D01*
X47338680Y-62318926D01*
X47250992Y-62173871D01*
X47250989Y-62173867D01*
X47131132Y-62054010D01*
X47131128Y-62054007D01*
X46986073Y-61966319D01*
X46986068Y-61966317D01*
X46824246Y-61915891D01*
X46824238Y-61915889D01*
X46775003Y-61911415D01*
X46753921Y-61909500D01*
X46753918Y-61909500D01*
X46246071Y-61909500D01*
X46175764Y-61915888D01*
X46175757Y-61915890D01*
X46013934Y-61966316D01*
X46013926Y-61966319D01*
X45868871Y-62054007D01*
X45868867Y-62054010D01*
X45749010Y-62173867D01*
X45749007Y-62173871D01*
X45661319Y-62318926D01*
X45661317Y-62318931D01*
X45610891Y-62480753D01*
X45610889Y-62480761D01*
X45606824Y-62525499D01*
X45605223Y-62543128D01*
X45604500Y-62551081D01*
X45604500Y-63948928D01*
X45610888Y-64019235D01*
X45610890Y-64019242D01*
X45661316Y-64181065D01*
X45661318Y-64181069D01*
X45661319Y-64181072D01*
X45661320Y-64181073D01*
X45681617Y-64214650D01*
X45699499Y-64278798D01*
X45699499Y-65398159D01*
X45699500Y-65398169D01*
X45699500Y-66653196D01*
X45702401Y-66690067D01*
X45702402Y-66690073D01*
X45748254Y-66847893D01*
X45748255Y-66847896D01*
X45802930Y-66940348D01*
X45831919Y-66989365D01*
X45831922Y-66989368D01*
X45845925Y-67003371D01*
X45879410Y-67064694D01*
X45874426Y-67134386D01*
X45845925Y-67178733D01*
X44391208Y-68633450D01*
X44378951Y-68643271D01*
X44379134Y-68643492D01*
X44373123Y-68648464D01*
X44325772Y-68698887D01*
X44304889Y-68719770D01*
X44304877Y-68719783D01*
X44300621Y-68725268D01*
X44296837Y-68729698D01*
X44264937Y-68763669D01*
X44264936Y-68763671D01*
X44255284Y-68781227D01*
X44244610Y-68797477D01*
X44232329Y-68813312D01*
X44232324Y-68813319D01*
X44213815Y-68856089D01*
X44211245Y-68861335D01*
X44188803Y-68902157D01*
X44183822Y-68921558D01*
X44177521Y-68939961D01*
X44169562Y-68958353D01*
X44169561Y-68958356D01*
X44162271Y-69004378D01*
X44161087Y-69010097D01*
X44149501Y-69055223D01*
X44149500Y-69055233D01*
X44149500Y-69075267D01*
X44147973Y-69094666D01*
X44144840Y-69114445D01*
X44144840Y-69114446D01*
X44149225Y-69160834D01*
X44149500Y-69166672D01*
X44149500Y-70395072D01*
X44147775Y-70410689D01*
X44148061Y-70410716D01*
X44147326Y-70418482D01*
X44149500Y-70487631D01*
X44149500Y-70517160D01*
X44149501Y-70517177D01*
X44150368Y-70524048D01*
X44150826Y-70529867D01*
X44152290Y-70576441D01*
X44152291Y-70576444D01*
X44157880Y-70595684D01*
X44161824Y-70614728D01*
X44164336Y-70634609D01*
X44174750Y-70660912D01*
X44181490Y-70677936D01*
X44183382Y-70683464D01*
X44191146Y-70710188D01*
X44196382Y-70728207D01*
X44196507Y-70728419D01*
X44206580Y-70745451D01*
X44215136Y-70762917D01*
X44219609Y-70774212D01*
X44222514Y-70781549D01*
X44249898Y-70819240D01*
X44253106Y-70824124D01*
X44276827Y-70864233D01*
X44276833Y-70864241D01*
X44290990Y-70878397D01*
X44303628Y-70893193D01*
X44315405Y-70909403D01*
X44315406Y-70909404D01*
X44351309Y-70939105D01*
X44355620Y-70943027D01*
X44591001Y-71178408D01*
X44821377Y-71408784D01*
X44831202Y-71421048D01*
X44831423Y-71420866D01*
X44836393Y-71426873D01*
X44836396Y-71426876D01*
X44836397Y-71426877D01*
X44886834Y-71474241D01*
X44907713Y-71495120D01*
X44913187Y-71499366D01*
X44917625Y-71503156D01*
X44951601Y-71535062D01*
X44951605Y-71535064D01*
X44969156Y-71544713D01*
X44985414Y-71555392D01*
X45001247Y-71567674D01*
X45023198Y-71577172D01*
X45044020Y-71586183D01*
X45049264Y-71588752D01*
X45090091Y-71611197D01*
X45109495Y-71616179D01*
X45127893Y-71622478D01*
X45146288Y-71630438D01*
X45192312Y-71637726D01*
X45198015Y-71638907D01*
X45243164Y-71650500D01*
X45263199Y-71650500D01*
X45282596Y-71652026D01*
X45302379Y-71655160D01*
X45348766Y-71650775D01*
X45354605Y-71650500D01*
X47892257Y-71650500D01*
X47907877Y-71652224D01*
X47907904Y-71651939D01*
X47915660Y-71652671D01*
X47915667Y-71652673D01*
X47984814Y-71650500D01*
X48014350Y-71650500D01*
X48021228Y-71649630D01*
X48027041Y-71649172D01*
X48073627Y-71647709D01*
X48092869Y-71642117D01*
X48111912Y-71638174D01*
X48131792Y-71635664D01*
X48175122Y-71618507D01*
X48180646Y-71616617D01*
X48184396Y-71615527D01*
X48225390Y-71603618D01*
X48242629Y-71593422D01*
X48260103Y-71584862D01*
X48278727Y-71577488D01*
X48278727Y-71577487D01*
X48278732Y-71577486D01*
X48316449Y-71550082D01*
X48321305Y-71546892D01*
X48361420Y-71523170D01*
X48375589Y-71508999D01*
X48390379Y-71496368D01*
X48406587Y-71484594D01*
X48436299Y-71448676D01*
X48440212Y-71444376D01*
X48872770Y-71011819D01*
X48934094Y-70978334D01*
X48960452Y-70975500D01*
X49256613Y-70975500D01*
X49256616Y-70975500D01*
X49327196Y-70969086D01*
X49489606Y-70918478D01*
X49635185Y-70830472D01*
X49755472Y-70710185D01*
X49843478Y-70564606D01*
X49894086Y-70402196D01*
X49900500Y-70331616D01*
X49900500Y-69924499D01*
X49920185Y-69857461D01*
X49972989Y-69811706D01*
X50024500Y-69800500D01*
X51241447Y-69800500D01*
X51308486Y-69820185D01*
X51320107Y-69828643D01*
X51328962Y-69835910D01*
X51328963Y-69835910D01*
X51328965Y-69835912D01*
X51328967Y-69835913D01*
X51502766Y-69928811D01*
X51502769Y-69928811D01*
X51502773Y-69928814D01*
X51691368Y-69986024D01*
X51702761Y-69987146D01*
X51767548Y-70013305D01*
X51778290Y-70022868D01*
X54938181Y-73182759D01*
X54971666Y-73244082D01*
X54974500Y-73270440D01*
X54974500Y-73900500D01*
X54974501Y-74475500D01*
X54954816Y-74542539D01*
X54902013Y-74588294D01*
X54850501Y-74599500D01*
X53517940Y-74599500D01*
X53450901Y-74579815D01*
X53430259Y-74563181D01*
X52425034Y-73557956D01*
X52391549Y-73496633D01*
X52389139Y-73460035D01*
X52405300Y-73265005D01*
X52405300Y-73264993D01*
X52386135Y-73033702D01*
X52386133Y-73033691D01*
X52329157Y-72808699D01*
X52235924Y-72596151D01*
X52108983Y-72401852D01*
X52108980Y-72401849D01*
X52108979Y-72401847D01*
X51951784Y-72231087D01*
X51951779Y-72231083D01*
X51951777Y-72231081D01*
X51768634Y-72088535D01*
X51768628Y-72088531D01*
X51564504Y-71978064D01*
X51564495Y-71978061D01*
X51344984Y-71902702D01*
X51173281Y-71874050D01*
X51116049Y-71864500D01*
X50883951Y-71864500D01*
X50838164Y-71872140D01*
X50655015Y-71902702D01*
X50435504Y-71978061D01*
X50435495Y-71978064D01*
X50231371Y-72088531D01*
X50231365Y-72088535D01*
X50048222Y-72231081D01*
X50048219Y-72231084D01*
X50048216Y-72231086D01*
X50048216Y-72231087D01*
X49989267Y-72295121D01*
X49891016Y-72401852D01*
X49764075Y-72596151D01*
X49670842Y-72808699D01*
X49613866Y-73033691D01*
X49613864Y-73033702D01*
X49594700Y-73264993D01*
X49594700Y-73265006D01*
X49613864Y-73496297D01*
X49613866Y-73496308D01*
X49670842Y-73721300D01*
X49764075Y-73933848D01*
X49891016Y-74128147D01*
X49891019Y-74128151D01*
X49891021Y-74128153D01*
X50048216Y-74298913D01*
X50048219Y-74298915D01*
X50048222Y-74298918D01*
X50231365Y-74441464D01*
X50231371Y-74441468D01*
X50231374Y-74441470D01*
X50435497Y-74551936D01*
X50476680Y-74566074D01*
X50655015Y-74627297D01*
X50655017Y-74627297D01*
X50655019Y-74627298D01*
X50883951Y-74665500D01*
X50883952Y-74665500D01*
X51116051Y-74665500D01*
X51142732Y-74661047D01*
X51183672Y-74654215D01*
X51253036Y-74662595D01*
X51291764Y-74688842D01*
X52415740Y-75812819D01*
X52449225Y-75874142D01*
X52444241Y-75943834D01*
X52402369Y-75999767D01*
X52336905Y-76024184D01*
X52328059Y-76024500D01*
X38024500Y-76024500D01*
X37957461Y-76004815D01*
X37911706Y-75952011D01*
X37900500Y-75900500D01*
X37900500Y-63948928D01*
X43064500Y-63948928D01*
X43070888Y-64019235D01*
X43070890Y-64019242D01*
X43121316Y-64181065D01*
X43121319Y-64181073D01*
X43209007Y-64326128D01*
X43209010Y-64326132D01*
X43328868Y-64445990D01*
X43473928Y-64533681D01*
X43635758Y-64584110D01*
X43706079Y-64590500D01*
X44213920Y-64590499D01*
X44213927Y-64590499D01*
X44284235Y-64584111D01*
X44284236Y-64584110D01*
X44284242Y-64584110D01*
X44446072Y-64533681D01*
X44591132Y-64445990D01*
X44710990Y-64326132D01*
X44798681Y-64181072D01*
X44849110Y-64019242D01*
X44855500Y-63948921D01*
X44855499Y-62551080D01*
X44855499Y-62551079D01*
X44855499Y-62551071D01*
X44849111Y-62480764D01*
X44849110Y-62480761D01*
X44849110Y-62480758D01*
X44799121Y-62320340D01*
X44798683Y-62318934D01*
X44798680Y-62318926D01*
X44710992Y-62173871D01*
X44710989Y-62173867D01*
X44591132Y-62054010D01*
X44591128Y-62054007D01*
X44446073Y-61966319D01*
X44446068Y-61966317D01*
X44284246Y-61915891D01*
X44284238Y-61915889D01*
X44235003Y-61911415D01*
X44213921Y-61909500D01*
X44213918Y-61909500D01*
X43706071Y-61909500D01*
X43635764Y-61915888D01*
X43635757Y-61915890D01*
X43473934Y-61966316D01*
X43473926Y-61966319D01*
X43328871Y-62054007D01*
X43328867Y-62054010D01*
X43209010Y-62173867D01*
X43209007Y-62173871D01*
X43121319Y-62318926D01*
X43121317Y-62318931D01*
X43070891Y-62480753D01*
X43070889Y-62480761D01*
X43066824Y-62525499D01*
X43065223Y-62543128D01*
X43064500Y-62551081D01*
X43064500Y-63948928D01*
X37900500Y-63948928D01*
X37900500Y-61259499D01*
X37920185Y-61192460D01*
X37972989Y-61146705D01*
X38024500Y-61135499D01*
X39049287Y-61135499D01*
X39083221Y-61140233D01*
X39148839Y-61158903D01*
X39240964Y-61185115D01*
X39406997Y-61200500D01*
X43253543Y-61200500D01*
X43320582Y-61220185D01*
X43328083Y-61225515D01*
X43328866Y-61225988D01*
X43328868Y-61225990D01*
X43473928Y-61313681D01*
X43635758Y-61364110D01*
X43706079Y-61370500D01*
X44213920Y-61370499D01*
X44213927Y-61370499D01*
X44284235Y-61364111D01*
X44284236Y-61364110D01*
X44284242Y-61364110D01*
X44446072Y-61313681D01*
X44591132Y-61225990D01*
X44710990Y-61106132D01*
X44798681Y-60961072D01*
X44822176Y-60885671D01*
X44852881Y-60834881D01*
X44855843Y-60831919D01*
X44887542Y-60800221D01*
X45013276Y-60616671D01*
X45103142Y-60413143D01*
X45109292Y-60386991D01*
X45143801Y-60326240D01*
X45205677Y-60293789D01*
X45275276Y-60299942D01*
G37*
%TD.AperFunction*%
%TA.AperFunction,Conductor*%
G36*
X87342539Y-51045185D02*
G01*
X87388294Y-51097989D01*
X87399500Y-51149500D01*
X87399500Y-61490500D01*
X87379815Y-61557539D01*
X87327011Y-61603294D01*
X87275500Y-61614500D01*
X86450711Y-61614500D01*
X86416777Y-61609766D01*
X86259037Y-61564885D01*
X86259035Y-61564884D01*
X86141153Y-61553961D01*
X86093003Y-61549500D01*
X81769497Y-61549500D01*
X81724601Y-61553660D01*
X81603464Y-61564884D01*
X81603462Y-61564885D01*
X81389476Y-61625769D01*
X81389461Y-61625775D01*
X81190311Y-61724941D01*
X81099726Y-61793348D01*
X81034365Y-61818039D01*
X80966030Y-61803474D01*
X80950274Y-61793348D01*
X80859688Y-61724941D01*
X80660538Y-61625775D01*
X80660523Y-61625769D01*
X80446537Y-61564885D01*
X80446535Y-61564884D01*
X80328653Y-61553961D01*
X80280503Y-61549500D01*
X80280499Y-61549500D01*
X78449500Y-61549500D01*
X78382461Y-61529815D01*
X78336706Y-61477011D01*
X78325500Y-61425501D01*
X78325499Y-61202130D01*
X78325498Y-61202123D01*
X78324459Y-61192460D01*
X78319091Y-61142517D01*
X78308317Y-61113632D01*
X78300500Y-61070300D01*
X78300500Y-60862754D01*
X78320185Y-60795715D01*
X78372989Y-60749960D01*
X78412346Y-60739351D01*
X78446132Y-60736024D01*
X78634727Y-60678814D01*
X78657726Y-60666520D01*
X78726124Y-60652275D01*
X78755179Y-60658168D01*
X78852292Y-60690349D01*
X78951655Y-60700500D01*
X79548344Y-60700499D01*
X79548352Y-60700498D01*
X79548355Y-60700498D01*
X79602760Y-60694940D01*
X79647708Y-60690349D01*
X79808697Y-60637003D01*
X79953044Y-60547968D01*
X80072968Y-60428044D01*
X80162003Y-60283697D01*
X80215349Y-60122708D01*
X80225500Y-60023345D01*
X80225499Y-59476656D01*
X80215349Y-59377292D01*
X80162003Y-59216303D01*
X80161999Y-59216297D01*
X80161998Y-59216294D01*
X80072970Y-59071959D01*
X80072967Y-59071955D01*
X79953044Y-58952032D01*
X79953040Y-58952029D01*
X79808705Y-58863001D01*
X79808699Y-58862998D01*
X79808697Y-58862997D01*
X79753827Y-58844815D01*
X79647709Y-58809651D01*
X79548346Y-58799500D01*
X78951662Y-58799500D01*
X78951644Y-58799501D01*
X78852292Y-58809650D01*
X78852285Y-58809652D01*
X78755184Y-58841828D01*
X78685356Y-58844229D01*
X78657727Y-58833480D01*
X78634730Y-58821187D01*
X78613955Y-58814885D01*
X78528925Y-58789091D01*
X78446129Y-58763975D01*
X78250000Y-58744659D01*
X78053867Y-58763976D01*
X77925714Y-58802850D01*
X77877118Y-58807547D01*
X77798347Y-58799500D01*
X77201662Y-58799500D01*
X77201644Y-58799501D01*
X77102292Y-58809650D01*
X77102289Y-58809651D01*
X76941305Y-58862996D01*
X76941294Y-58863001D01*
X76796959Y-58952029D01*
X76796955Y-58952032D01*
X76677032Y-59071955D01*
X76677029Y-59071959D01*
X76588001Y-59216294D01*
X76587996Y-59216305D01*
X76534651Y-59377290D01*
X76524500Y-59476647D01*
X76524500Y-60023337D01*
X76524501Y-60023355D01*
X76534650Y-60122707D01*
X76534651Y-60122710D01*
X76587996Y-60283694D01*
X76588001Y-60283705D01*
X76680823Y-60434191D01*
X76678071Y-60435887D01*
X76698887Y-60487244D01*
X76699500Y-60499559D01*
X76699500Y-60554051D01*
X76679815Y-60621090D01*
X76627011Y-60666845D01*
X76557853Y-60676789D01*
X76494297Y-60647764D01*
X76483863Y-60637590D01*
X76412235Y-60559018D01*
X76234691Y-60424943D01*
X76234683Y-60424938D01*
X76035538Y-60325775D01*
X76035523Y-60325769D01*
X75821537Y-60264885D01*
X75821535Y-60264884D01*
X75703653Y-60253961D01*
X75655503Y-60249500D01*
X73044497Y-60249500D01*
X72999601Y-60253660D01*
X72878464Y-60264884D01*
X72878462Y-60264885D01*
X72664476Y-60325769D01*
X72664461Y-60325775D01*
X72465316Y-60424938D01*
X72465308Y-60424943D01*
X72287768Y-60559015D01*
X72287765Y-60559018D01*
X72287764Y-60559019D01*
X72260349Y-60589092D01*
X72248659Y-60601915D01*
X72188947Y-60638195D01*
X72119099Y-60636433D01*
X72091926Y-60623913D01*
X72033705Y-60588001D01*
X72033699Y-60587998D01*
X72033697Y-60587997D01*
X71995983Y-60575500D01*
X71872709Y-60534651D01*
X71773346Y-60524500D01*
X71226662Y-60524500D01*
X71226644Y-60524501D01*
X71127292Y-60534650D01*
X71127289Y-60534651D01*
X70966305Y-60587996D01*
X70966294Y-60588001D01*
X70815809Y-60680823D01*
X70814131Y-60678103D01*
X70762534Y-60698909D01*
X70750440Y-60699500D01*
X70516489Y-60699500D01*
X70449450Y-60679815D01*
X70403695Y-60627011D01*
X70393751Y-60557853D01*
X70409160Y-60515343D01*
X70408949Y-60515245D01*
X70410059Y-60512864D01*
X70410952Y-60510401D01*
X70411999Y-60508703D01*
X70412003Y-60508697D01*
X70465349Y-60347708D01*
X70475500Y-60248345D01*
X70475499Y-59701656D01*
X70474565Y-59692517D01*
X70465349Y-59602292D01*
X70465348Y-59602289D01*
X70412003Y-59441303D01*
X70411999Y-59441297D01*
X70411998Y-59441294D01*
X70322970Y-59296959D01*
X70322967Y-59296955D01*
X70203044Y-59177032D01*
X70203040Y-59177029D01*
X70058705Y-59088001D01*
X70058699Y-59087998D01*
X70058697Y-59087997D01*
X69958098Y-59054662D01*
X69897709Y-59034651D01*
X69798346Y-59024500D01*
X69201662Y-59024500D01*
X69201644Y-59024501D01*
X69102292Y-59034650D01*
X69102289Y-59034651D01*
X68941305Y-59087996D01*
X68941298Y-59087999D01*
X68862203Y-59136786D01*
X68830991Y-59156038D01*
X68765895Y-59174500D01*
X68746162Y-59174500D01*
X68679123Y-59154815D01*
X68640624Y-59115597D01*
X68570342Y-59001653D01*
X68570339Y-59001649D01*
X68448351Y-58879661D01*
X68448350Y-58879660D01*
X68343333Y-58814885D01*
X68301518Y-58789093D01*
X68301513Y-58789091D01*
X68278958Y-58781617D01*
X68137753Y-58734826D01*
X68137751Y-58734825D01*
X68036684Y-58724500D01*
X68036677Y-58724500D01*
X68016489Y-58724500D01*
X67949450Y-58704815D01*
X67903695Y-58652011D01*
X67893751Y-58582853D01*
X67909160Y-58540343D01*
X67908949Y-58540245D01*
X67910059Y-58537864D01*
X67910952Y-58535401D01*
X67911999Y-58533703D01*
X67912003Y-58533697D01*
X67965349Y-58372708D01*
X67975500Y-58273345D01*
X67975499Y-57726656D01*
X67974441Y-57716303D01*
X67965349Y-57627292D01*
X67965348Y-57627289D01*
X67912003Y-57466303D01*
X67911999Y-57466297D01*
X67911998Y-57466294D01*
X67822970Y-57321959D01*
X67822967Y-57321955D01*
X67703044Y-57202032D01*
X67703040Y-57202029D01*
X67558705Y-57113001D01*
X67558699Y-57112998D01*
X67558697Y-57112997D01*
X67545334Y-57108569D01*
X67397709Y-57059651D01*
X67298346Y-57049500D01*
X66701662Y-57049500D01*
X66701644Y-57049501D01*
X66602292Y-57059650D01*
X66602285Y-57059652D01*
X66505184Y-57091828D01*
X66435356Y-57094229D01*
X66407727Y-57083480D01*
X66384730Y-57071187D01*
X66313241Y-57049501D01*
X66280128Y-57039456D01*
X66196129Y-57013975D01*
X66000000Y-56994659D01*
X65803869Y-57013975D01*
X65614065Y-57071552D01*
X65565469Y-57076249D01*
X65548347Y-57074500D01*
X64951662Y-57074500D01*
X64951644Y-57074501D01*
X64852292Y-57084650D01*
X64852289Y-57084651D01*
X64691305Y-57137996D01*
X64691294Y-57138001D01*
X64546959Y-57227029D01*
X64546955Y-57227032D01*
X64427032Y-57346955D01*
X64427029Y-57346959D01*
X64338001Y-57491294D01*
X64337996Y-57491305D01*
X64284651Y-57652290D01*
X64274500Y-57751647D01*
X64274500Y-58298337D01*
X64274501Y-58298355D01*
X64284650Y-58397707D01*
X64284651Y-58397710D01*
X64337996Y-58558694D01*
X64338001Y-58558705D01*
X64427029Y-58703040D01*
X64427032Y-58703044D01*
X64433139Y-58709151D01*
X64466624Y-58770474D01*
X64461640Y-58840166D01*
X64419768Y-58896099D01*
X64408580Y-58903563D01*
X64360640Y-58931914D01*
X64360629Y-58931923D01*
X64244423Y-59048129D01*
X64244414Y-59048140D01*
X64244229Y-59048455D01*
X64244019Y-59048650D01*
X64239639Y-59054298D01*
X64238727Y-59053591D01*
X64193157Y-59096136D01*
X64124415Y-59108637D01*
X64059827Y-59081988D01*
X64035643Y-59054078D01*
X64035361Y-59054298D01*
X64031323Y-59049092D01*
X64030771Y-59048455D01*
X64030585Y-59048140D01*
X64030576Y-59048129D01*
X63914370Y-58931923D01*
X63914367Y-58931921D01*
X63914365Y-58931919D01*
X63861376Y-58900581D01*
X63813694Y-58849512D01*
X63800499Y-58793853D01*
X63800499Y-58524560D01*
X63819614Y-58459462D01*
X63819176Y-58459192D01*
X63820163Y-58457590D01*
X63820184Y-58457522D01*
X63820343Y-58457298D01*
X63822965Y-58453046D01*
X63822968Y-58453044D01*
X63912003Y-58308697D01*
X63965349Y-58147708D01*
X63975500Y-58048345D01*
X63975499Y-57501656D01*
X63974441Y-57491303D01*
X63965349Y-57402292D01*
X63965348Y-57402289D01*
X63950861Y-57358569D01*
X63912003Y-57241303D01*
X63877515Y-57185389D01*
X63859075Y-57118001D01*
X63879996Y-57051337D01*
X63889303Y-57039456D01*
X63890976Y-57037240D01*
X63890981Y-57037236D01*
X64025058Y-56859689D01*
X64124229Y-56660528D01*
X64185115Y-56446536D01*
X64200500Y-56280503D01*
X64200500Y-52444497D01*
X64185115Y-52278464D01*
X64140230Y-52120713D01*
X64135499Y-52086794D01*
X64135499Y-51149499D01*
X64155184Y-51082460D01*
X64207988Y-51036706D01*
X64259499Y-51025500D01*
X87275500Y-51025500D01*
X87342539Y-51045185D01*
G37*
%TD.AperFunction*%
%TA.AperFunction,Conductor*%
G36*
X61807539Y-51045185D02*
G01*
X61853294Y-51097989D01*
X61864500Y-51149500D01*
X61864500Y-52086788D01*
X61859766Y-52120722D01*
X61814885Y-52278461D01*
X61814884Y-52278464D01*
X61799500Y-52444500D01*
X61799500Y-56280499D01*
X61814884Y-56446535D01*
X61814885Y-56446537D01*
X61875769Y-56660523D01*
X61875775Y-56660538D01*
X61974938Y-56859683D01*
X61974943Y-56859691D01*
X62112474Y-57041811D01*
X62111430Y-57042599D01*
X62139198Y-57099561D01*
X62131000Y-57168948D01*
X62122484Y-57185389D01*
X62087999Y-57241298D01*
X62087996Y-57241305D01*
X62034651Y-57402290D01*
X62024500Y-57501647D01*
X62024500Y-58048337D01*
X62024501Y-58048355D01*
X62034650Y-58147707D01*
X62034651Y-58147710D01*
X62087996Y-58308694D01*
X62088001Y-58308705D01*
X62180823Y-58459191D01*
X62178071Y-58460887D01*
X62198887Y-58512244D01*
X62199500Y-58524559D01*
X62199500Y-58793850D01*
X62179815Y-58860889D01*
X62138622Y-58900581D01*
X62085640Y-58931914D01*
X62085629Y-58931923D01*
X61969423Y-59048129D01*
X61969417Y-59048137D01*
X61885755Y-59189603D01*
X61885754Y-59189606D01*
X61839902Y-59347426D01*
X61839901Y-59347432D01*
X61837000Y-59384304D01*
X61837000Y-59815696D01*
X61839901Y-59852567D01*
X61839902Y-59852573D01*
X61885754Y-60010393D01*
X61885755Y-60010396D01*
X61969417Y-60151862D01*
X61969423Y-60151870D01*
X62085629Y-60268076D01*
X62085633Y-60268079D01*
X62085635Y-60268081D01*
X62227102Y-60351744D01*
X62268724Y-60363836D01*
X62384926Y-60397597D01*
X62384929Y-60397597D01*
X62384931Y-60397598D01*
X62397222Y-60398565D01*
X62421804Y-60400500D01*
X62421806Y-60400500D01*
X62951564Y-60400500D01*
X62958502Y-60400889D01*
X62987400Y-60404145D01*
X62999998Y-60405565D01*
X63000000Y-60405565D01*
X63000002Y-60405565D01*
X63012599Y-60404145D01*
X63041497Y-60400889D01*
X63048436Y-60400500D01*
X63578196Y-60400500D01*
X63596631Y-60399049D01*
X63615069Y-60397598D01*
X63615071Y-60397597D01*
X63615073Y-60397597D01*
X63717306Y-60367895D01*
X63772898Y-60351744D01*
X63897548Y-60278026D01*
X63921080Y-60264110D01*
X63922155Y-60265928D01*
X63977032Y-60244381D01*
X64045550Y-60258059D01*
X64095796Y-60306609D01*
X64112000Y-60367895D01*
X64112000Y-60732104D01*
X64092315Y-60799143D01*
X64039511Y-60844898D01*
X63970353Y-60854842D01*
X63922002Y-60834330D01*
X63921080Y-60835890D01*
X63791518Y-60759268D01*
X63772898Y-60748256D01*
X63772897Y-60748255D01*
X63772896Y-60748255D01*
X63772893Y-60748254D01*
X63615073Y-60702402D01*
X63615067Y-60702401D01*
X63578196Y-60699500D01*
X63578194Y-60699500D01*
X63044954Y-60699500D01*
X61799560Y-60699500D01*
X61734461Y-60680384D01*
X61734191Y-60680823D01*
X61732589Y-60679835D01*
X61732521Y-60679815D01*
X61732293Y-60679652D01*
X61583705Y-60588001D01*
X61583699Y-60587998D01*
X61583697Y-60587997D01*
X61545983Y-60575500D01*
X61422709Y-60534651D01*
X61323346Y-60524500D01*
X60776662Y-60524500D01*
X60776644Y-60524501D01*
X60677292Y-60534650D01*
X60677289Y-60534651D01*
X60516305Y-60587996D01*
X60516294Y-60588001D01*
X60371959Y-60677029D01*
X60371955Y-60677032D01*
X60362681Y-60686307D01*
X60301358Y-60719792D01*
X60231666Y-60714808D01*
X60187319Y-60686307D01*
X60178044Y-60677032D01*
X60178040Y-60677029D01*
X60033705Y-60588001D01*
X60033699Y-60587998D01*
X60033697Y-60587997D01*
X59995983Y-60575500D01*
X59872709Y-60534651D01*
X59773346Y-60524500D01*
X59226662Y-60524500D01*
X59226644Y-60524501D01*
X59127292Y-60534650D01*
X59127289Y-60534651D01*
X58966305Y-60587996D01*
X58966294Y-60588001D01*
X58815809Y-60680823D01*
X58814131Y-60678103D01*
X58762534Y-60698909D01*
X58750440Y-60699500D01*
X58565682Y-60699500D01*
X58500585Y-60681039D01*
X58498351Y-60679661D01*
X58498350Y-60679660D01*
X58396224Y-60616668D01*
X58351518Y-60589093D01*
X58351513Y-60589091D01*
X58348212Y-60587997D01*
X58187753Y-60534826D01*
X58187751Y-60534825D01*
X58086678Y-60524500D01*
X57413330Y-60524500D01*
X57413312Y-60524501D01*
X57312247Y-60534825D01*
X57148484Y-60589092D01*
X57148481Y-60589093D01*
X57001648Y-60679661D01*
X56962681Y-60718629D01*
X56901358Y-60752114D01*
X56831666Y-60747130D01*
X56787319Y-60718629D01*
X56748351Y-60679661D01*
X56748350Y-60679660D01*
X56646224Y-60616668D01*
X56601518Y-60589093D01*
X56601513Y-60589091D01*
X56598212Y-60587997D01*
X56437753Y-60534826D01*
X56437751Y-60534825D01*
X56336678Y-60524500D01*
X55663330Y-60524500D01*
X55663312Y-60524501D01*
X55562247Y-60534825D01*
X55398484Y-60589092D01*
X55398481Y-60589093D01*
X55309795Y-60643796D01*
X55251650Y-60679660D01*
X55251648Y-60679661D01*
X55249415Y-60681039D01*
X55184318Y-60699500D01*
X55024560Y-60699500D01*
X54959461Y-60680384D01*
X54959191Y-60680823D01*
X54957589Y-60679835D01*
X54957521Y-60679815D01*
X54957293Y-60679652D01*
X54808705Y-60588001D01*
X54808699Y-60587998D01*
X54808697Y-60587997D01*
X54770983Y-60575500D01*
X54647709Y-60534651D01*
X54548346Y-60524500D01*
X54001662Y-60524500D01*
X54001644Y-60524501D01*
X53902292Y-60534650D01*
X53902289Y-60534651D01*
X53741305Y-60587996D01*
X53741294Y-60588001D01*
X53596959Y-60677029D01*
X53596953Y-60677033D01*
X53587678Y-60686309D01*
X53526354Y-60719792D01*
X53456662Y-60714805D01*
X53412322Y-60686309D01*
X53403046Y-60677033D01*
X53403040Y-60677029D01*
X53258705Y-60588001D01*
X53258699Y-60587998D01*
X53258697Y-60587997D01*
X53220983Y-60575500D01*
X53097709Y-60534651D01*
X52998346Y-60524500D01*
X52451662Y-60524500D01*
X52451644Y-60524501D01*
X52352292Y-60534650D01*
X52352289Y-60534651D01*
X52191305Y-60587996D01*
X52191294Y-60588001D01*
X52040809Y-60680823D01*
X52039131Y-60678103D01*
X51987534Y-60698909D01*
X51975440Y-60699500D01*
X51974001Y-60699500D01*
X51906962Y-60679815D01*
X51861207Y-60627011D01*
X51851263Y-60557853D01*
X51874734Y-60501189D01*
X51918796Y-60442331D01*
X51969091Y-60307483D01*
X51975500Y-60247873D01*
X51975499Y-59752128D01*
X51969091Y-59692517D01*
X51958317Y-59663632D01*
X51950500Y-59620300D01*
X51950500Y-59326663D01*
X51970185Y-59259624D01*
X52022989Y-59213869D01*
X52038501Y-59208003D01*
X52134727Y-59178814D01*
X52157726Y-59166520D01*
X52226124Y-59152275D01*
X52255179Y-59158168D01*
X52352292Y-59190349D01*
X52451655Y-59200500D01*
X53048344Y-59200499D01*
X53048352Y-59200498D01*
X53048355Y-59200498D01*
X53102760Y-59194940D01*
X53147708Y-59190349D01*
X53308697Y-59137003D01*
X53453044Y-59047968D01*
X53572968Y-58928044D01*
X53662003Y-58783697D01*
X53715349Y-58622708D01*
X53725500Y-58523345D01*
X53725499Y-57976656D01*
X53715349Y-57877292D01*
X53662003Y-57716303D01*
X53661999Y-57716297D01*
X53661998Y-57716294D01*
X53572970Y-57571959D01*
X53572967Y-57571955D01*
X53453044Y-57452032D01*
X53453040Y-57452029D01*
X53308705Y-57363001D01*
X53308699Y-57362998D01*
X53308697Y-57362997D01*
X53260285Y-57346955D01*
X53147709Y-57309651D01*
X53048346Y-57299500D01*
X52451662Y-57299500D01*
X52451644Y-57299501D01*
X52352292Y-57309650D01*
X52352285Y-57309652D01*
X52255184Y-57341828D01*
X52185356Y-57344229D01*
X52157727Y-57333480D01*
X52134730Y-57321187D01*
X52089765Y-57307547D01*
X51946132Y-57263976D01*
X51946129Y-57263975D01*
X51750000Y-57244659D01*
X51553867Y-57263976D01*
X51425714Y-57302850D01*
X51377118Y-57307547D01*
X51298347Y-57299500D01*
X50701662Y-57299500D01*
X50701644Y-57299501D01*
X50602292Y-57309650D01*
X50602289Y-57309651D01*
X50441305Y-57362996D01*
X50441294Y-57363001D01*
X50296959Y-57452029D01*
X50296955Y-57452032D01*
X50177032Y-57571955D01*
X50177029Y-57571959D01*
X50088001Y-57716294D01*
X50087996Y-57716305D01*
X50034651Y-57877290D01*
X50024500Y-57976647D01*
X50024500Y-58523337D01*
X50024501Y-58523355D01*
X50034650Y-58622707D01*
X50034651Y-58622710D01*
X50087996Y-58783694D01*
X50087999Y-58783701D01*
X50107234Y-58814885D01*
X50137837Y-58864500D01*
X50139487Y-58867174D01*
X50157928Y-58934567D01*
X50137006Y-59001230D01*
X50083364Y-59046000D01*
X50014034Y-59054662D01*
X49959223Y-59031226D01*
X49884697Y-58974947D01*
X49884683Y-58974938D01*
X49685538Y-58875775D01*
X49685523Y-58875769D01*
X49471537Y-58814885D01*
X49471535Y-58814884D01*
X49353653Y-58803961D01*
X49305503Y-58799500D01*
X49305499Y-58799500D01*
X47108612Y-58799500D01*
X47044463Y-58781617D01*
X46986073Y-58746319D01*
X46986068Y-58746317D01*
X46824246Y-58695891D01*
X46824238Y-58695889D01*
X46775003Y-58691415D01*
X46753921Y-58689500D01*
X46753918Y-58689500D01*
X46246071Y-58689500D01*
X46175764Y-58695888D01*
X46175757Y-58695890D01*
X46013934Y-58746316D01*
X46013926Y-58746319D01*
X45868871Y-58834007D01*
X45868867Y-58834010D01*
X45749010Y-58953867D01*
X45749007Y-58953871D01*
X45661319Y-59098926D01*
X45661318Y-59098928D01*
X45637696Y-59174732D01*
X45613097Y-59217660D01*
X45613701Y-59218162D01*
X45505354Y-59348637D01*
X45505346Y-59348650D01*
X45397086Y-59543010D01*
X45397085Y-59543014D01*
X45347571Y-59690744D01*
X45307602Y-59748053D01*
X45242995Y-59774655D01*
X45174262Y-59762105D01*
X45123224Y-59714387D01*
X45112429Y-59690750D01*
X45062914Y-59543015D01*
X45062913Y-59543013D01*
X45062912Y-59543010D01*
X44954655Y-59348650D01*
X44954653Y-59348647D01*
X44911728Y-59296955D01*
X44848128Y-59220365D01*
X44848124Y-59220361D01*
X44846298Y-59218162D01*
X44846911Y-59217652D01*
X44822302Y-59174731D01*
X44798681Y-59098928D01*
X44710990Y-58953868D01*
X44591132Y-58834010D01*
X44591128Y-58834007D01*
X44446073Y-58746319D01*
X44446068Y-58746317D01*
X44284246Y-58695891D01*
X44284238Y-58695889D01*
X44235003Y-58691415D01*
X44213921Y-58689500D01*
X44213918Y-58689500D01*
X43706071Y-58689500D01*
X43635764Y-58695888D01*
X43635757Y-58695890D01*
X43473934Y-58746316D01*
X43473926Y-58746319D01*
X43415537Y-58781617D01*
X43351388Y-58799500D01*
X39406997Y-58799500D01*
X39355082Y-58804310D01*
X39240966Y-58814884D01*
X39083217Y-58859767D01*
X39049284Y-58864500D01*
X38024500Y-58864500D01*
X37957461Y-58844815D01*
X37911706Y-58792011D01*
X37900500Y-58740500D01*
X37900500Y-51149500D01*
X37920185Y-51082461D01*
X37972989Y-51036706D01*
X38024500Y-51025500D01*
X61740500Y-51025500D01*
X61807539Y-51045185D01*
G37*
%TD.AperFunction*%
%TD*%
%TA.AperFunction,Conductor*%
%TO.N,GND*%
G36*
X212313329Y-70827773D02*
G01*
X212369262Y-70869645D01*
X212375537Y-70878864D01*
X212377925Y-70882736D01*
X212396362Y-70950129D01*
X212375436Y-71016791D01*
X212364138Y-71031236D01*
X212312995Y-71087496D01*
X212203611Y-71266951D01*
X212203608Y-71266959D01*
X212130163Y-71463872D01*
X212130161Y-71463881D01*
X212095312Y-71671124D01*
X212095311Y-71671132D01*
X212100313Y-71881245D01*
X212100314Y-71881253D01*
X212144984Y-72086602D01*
X212144987Y-72086613D01*
X212227719Y-72279809D01*
X212345517Y-72453858D01*
X212345525Y-72453867D01*
X214112533Y-74220875D01*
X214125858Y-74236627D01*
X214127514Y-74238952D01*
X214160016Y-74269942D01*
X214194084Y-74302427D01*
X214207993Y-74316336D01*
X214221899Y-74330241D01*
X214221904Y-74330245D01*
X214230322Y-74337196D01*
X214233629Y-74340132D01*
X214279622Y-74383986D01*
X214309770Y-74403361D01*
X214315712Y-74407701D01*
X214343355Y-74430524D01*
X214399156Y-74460993D01*
X214402950Y-74463245D01*
X214456426Y-74497612D01*
X214456425Y-74497612D01*
X214460549Y-74499263D01*
X214489708Y-74510936D01*
X214496362Y-74514072D01*
X214527818Y-74531248D01*
X214588391Y-74550611D01*
X214592525Y-74552098D01*
X214651543Y-74575725D01*
X214686736Y-74582508D01*
X214693865Y-74584327D01*
X214728008Y-74595242D01*
X214772912Y-74600610D01*
X214791123Y-74602788D01*
X214795497Y-74603469D01*
X214857915Y-74615500D01*
X214893752Y-74615500D01*
X214901118Y-74615939D01*
X214905118Y-74616417D01*
X214936691Y-74620192D01*
X215000092Y-74615657D01*
X215004513Y-74615500D01*
X215364988Y-74615500D01*
X215408321Y-74623318D01*
X215464017Y-74644091D01*
X215464016Y-74644091D01*
X215470944Y-74644835D01*
X215523627Y-74650500D01*
X218542500Y-74650499D01*
X218609539Y-74670184D01*
X218655294Y-74722988D01*
X218666500Y-74774499D01*
X218666500Y-101338500D01*
X218646815Y-101405539D01*
X218594011Y-101451294D01*
X218542500Y-101462500D01*
X205744840Y-101462500D01*
X205677801Y-101442815D01*
X205632046Y-101390011D01*
X205622102Y-101320853D01*
X205651127Y-101257297D01*
X205704981Y-101221081D01*
X205747435Y-101206669D01*
X205933077Y-101143652D01*
X206197665Y-101013172D01*
X206442957Y-100849273D01*
X206664758Y-100654758D01*
X206859273Y-100432957D01*
X207023172Y-100187665D01*
X207153652Y-99923077D01*
X207248481Y-99643722D01*
X207306034Y-99354380D01*
X207320284Y-99136972D01*
X207325329Y-99060007D01*
X207325329Y-99059992D01*
X207306035Y-98765636D01*
X207306034Y-98765620D01*
X207248481Y-98476278D01*
X207153652Y-98196923D01*
X207023172Y-97932336D01*
X206859273Y-97687043D01*
X206796483Y-97615445D01*
X206664758Y-97465241D01*
X206442955Y-97270725D01*
X206197667Y-97106829D01*
X206197660Y-97106825D01*
X205933080Y-96976349D01*
X205653730Y-96881521D01*
X205653724Y-96881519D01*
X205653722Y-96881519D01*
X205364380Y-96823966D01*
X205364373Y-96823965D01*
X205364363Y-96823964D01*
X205070007Y-96804671D01*
X205069993Y-96804671D01*
X204775636Y-96823964D01*
X204775624Y-96823965D01*
X204775620Y-96823966D01*
X204775612Y-96823967D01*
X204775609Y-96823968D01*
X204486283Y-96881518D01*
X204486269Y-96881521D01*
X204206919Y-96976349D01*
X203942334Y-97106828D01*
X203697041Y-97270728D01*
X203475241Y-97465241D01*
X203280728Y-97687041D01*
X203116828Y-97932334D01*
X202986349Y-98196919D01*
X202891521Y-98476269D01*
X202891518Y-98476283D01*
X202833968Y-98765609D01*
X202833964Y-98765636D01*
X202814671Y-99059992D01*
X202814671Y-99060007D01*
X202833964Y-99354363D01*
X202833965Y-99354373D01*
X202833966Y-99354380D01*
X202833968Y-99354390D01*
X202891518Y-99643716D01*
X202891521Y-99643730D01*
X202986349Y-99923080D01*
X203116825Y-100187660D01*
X203116829Y-100187667D01*
X203280725Y-100432955D01*
X203475241Y-100654758D01*
X203697043Y-100849273D01*
X203942335Y-101013172D01*
X204206923Y-101143652D01*
X204375935Y-101201024D01*
X204435019Y-101221081D01*
X204492173Y-101261270D01*
X204518526Y-101325979D01*
X204505712Y-101394664D01*
X204457797Y-101445517D01*
X204395160Y-101462500D01*
X165562500Y-101462500D01*
X165495461Y-101442815D01*
X165449706Y-101390011D01*
X165438500Y-101338500D01*
X165438500Y-74774499D01*
X165458185Y-74707460D01*
X165510989Y-74661705D01*
X165562500Y-74650499D01*
X166556787Y-74650499D01*
X166590721Y-74655233D01*
X166643269Y-74670184D01*
X166748464Y-74700115D01*
X166914497Y-74715500D01*
X166914501Y-74715500D01*
X176918499Y-74715500D01*
X176918503Y-74715500D01*
X177084536Y-74700115D01*
X177298528Y-74639229D01*
X177497689Y-74540058D01*
X177588273Y-74471651D01*
X177653634Y-74446960D01*
X177721969Y-74461525D01*
X177737727Y-74471652D01*
X177828308Y-74540056D01*
X177828316Y-74540061D01*
X178027461Y-74639224D01*
X178027465Y-74639225D01*
X178027472Y-74639229D01*
X178241464Y-74700115D01*
X178407497Y-74715500D01*
X178407501Y-74715500D01*
X180261499Y-74715500D01*
X180261503Y-74715500D01*
X180427536Y-74700115D01*
X180641528Y-74639229D01*
X180840689Y-74540058D01*
X181018236Y-74405981D01*
X181058382Y-74361942D01*
X181118089Y-74325663D01*
X181187937Y-74327422D01*
X181215112Y-74339943D01*
X181230718Y-74349568D01*
X181236106Y-74352892D01*
X181256576Y-74368686D01*
X181272623Y-74383987D01*
X181306848Y-74405982D01*
X181449428Y-74497613D01*
X181644543Y-74575725D01*
X181679716Y-74582504D01*
X181850914Y-74615500D01*
X181850915Y-74615500D01*
X184090931Y-74615500D01*
X184157970Y-74635185D01*
X184187878Y-74662187D01*
X184218124Y-74700115D01*
X184225195Y-74708981D01*
X184417521Y-74887433D01*
X184634296Y-75035228D01*
X184634301Y-75035230D01*
X184634302Y-75035231D01*
X184634303Y-75035232D01*
X184711499Y-75072407D01*
X184870673Y-75149061D01*
X184870674Y-75149061D01*
X184870677Y-75149063D01*
X185121385Y-75226396D01*
X185380818Y-75265500D01*
X185643182Y-75265500D01*
X185902615Y-75226396D01*
X186153323Y-75149063D01*
X186389704Y-75035228D01*
X186606479Y-74887433D01*
X186798805Y-74708981D01*
X186962386Y-74503857D01*
X187093568Y-74276643D01*
X187171749Y-74077438D01*
X187214565Y-74022226D01*
X187280434Y-73998925D01*
X187348445Y-74014936D01*
X187374858Y-74035061D01*
X187390181Y-74050384D01*
X187423666Y-74111707D01*
X187426500Y-74138065D01*
X187426500Y-79261255D01*
X187424775Y-79276872D01*
X187425061Y-79276899D01*
X187424326Y-79284665D01*
X187426500Y-79353814D01*
X187426500Y-79383343D01*
X187426501Y-79383360D01*
X187427368Y-79390231D01*
X187427826Y-79396050D01*
X187429290Y-79442624D01*
X187429291Y-79442627D01*
X187434880Y-79461867D01*
X187438824Y-79480911D01*
X187441336Y-79500791D01*
X187458490Y-79544119D01*
X187460382Y-79549647D01*
X187473381Y-79594388D01*
X187483580Y-79611634D01*
X187492138Y-79629103D01*
X187499514Y-79647732D01*
X187526898Y-79685423D01*
X187530106Y-79690307D01*
X187553827Y-79730416D01*
X187553833Y-79730424D01*
X187567990Y-79744580D01*
X187580628Y-79759376D01*
X187592405Y-79775586D01*
X187592406Y-79775587D01*
X187628309Y-79805288D01*
X187632620Y-79809210D01*
X188362107Y-80538698D01*
X188602181Y-80778772D01*
X188635666Y-80840095D01*
X188638500Y-80866453D01*
X188638500Y-81179336D01*
X188638501Y-81179355D01*
X188648650Y-81278707D01*
X188648651Y-81278710D01*
X188671888Y-81348835D01*
X188701997Y-81439697D01*
X188701998Y-81439700D01*
X188702594Y-81441496D01*
X188704996Y-81511324D01*
X188669264Y-81571366D01*
X188606744Y-81602559D01*
X188584888Y-81604500D01*
X187531560Y-81604500D01*
X187466461Y-81585384D01*
X187466191Y-81585823D01*
X187464589Y-81584835D01*
X187464521Y-81584815D01*
X187464293Y-81584652D01*
X187315705Y-81493001D01*
X187315699Y-81492998D01*
X187315697Y-81492997D01*
X187240517Y-81468085D01*
X187154709Y-81439651D01*
X187055346Y-81429500D01*
X186508662Y-81429500D01*
X186508644Y-81429501D01*
X186409292Y-81439650D01*
X186409289Y-81439651D01*
X186248305Y-81492996D01*
X186248294Y-81493001D01*
X186103959Y-81582029D01*
X186103953Y-81582033D01*
X186094678Y-81591309D01*
X186033354Y-81624792D01*
X185963662Y-81619805D01*
X185919322Y-81591309D01*
X185910046Y-81582033D01*
X185910040Y-81582029D01*
X185765705Y-81493001D01*
X185765699Y-81492998D01*
X185765697Y-81492997D01*
X185690517Y-81468085D01*
X185604709Y-81439651D01*
X185505346Y-81429500D01*
X184958662Y-81429500D01*
X184958644Y-81429501D01*
X184859292Y-81439650D01*
X184859289Y-81439651D01*
X184698305Y-81492996D01*
X184698294Y-81493001D01*
X184553959Y-81582029D01*
X184553955Y-81582032D01*
X184434032Y-81701955D01*
X184434029Y-81701959D01*
X184345001Y-81846294D01*
X184344996Y-81846305D01*
X184291651Y-82007290D01*
X184281500Y-82106647D01*
X184281500Y-82703337D01*
X184281501Y-82703355D01*
X184291650Y-82802707D01*
X184291651Y-82802710D01*
X184344996Y-82963694D01*
X184344999Y-82963701D01*
X184346172Y-82965602D01*
X184413038Y-83074009D01*
X184431500Y-83139104D01*
X184431500Y-83832326D01*
X184411815Y-83899365D01*
X184377354Y-83934777D01*
X184283850Y-83998528D01*
X184163520Y-84080567D01*
X183971198Y-84259014D01*
X183807614Y-84464143D01*
X183676432Y-84691356D01*
X183580582Y-84935578D01*
X183580576Y-84935597D01*
X183522197Y-85191374D01*
X183522196Y-85191379D01*
X183502592Y-85452995D01*
X183502592Y-85453004D01*
X183522196Y-85714620D01*
X183522197Y-85714625D01*
X183580576Y-85970402D01*
X183580578Y-85970411D01*
X183580580Y-85970416D01*
X183676432Y-86214643D01*
X183807614Y-86441857D01*
X183939736Y-86607533D01*
X183971198Y-86646985D01*
X184152753Y-86815441D01*
X184163521Y-86825433D01*
X184380296Y-86973228D01*
X184380301Y-86973230D01*
X184380302Y-86973231D01*
X184380303Y-86973232D01*
X184457499Y-87010407D01*
X184616673Y-87087061D01*
X184616674Y-87087061D01*
X184616677Y-87087063D01*
X184867385Y-87164396D01*
X185126818Y-87203500D01*
X185389182Y-87203500D01*
X185648615Y-87164396D01*
X185899323Y-87087063D01*
X186135704Y-86973228D01*
X186352479Y-86825433D01*
X186544805Y-86646981D01*
X186708386Y-86441857D01*
X186839568Y-86214643D01*
X186935420Y-85970416D01*
X186993802Y-85714630D01*
X186999944Y-85632668D01*
X187013408Y-85453004D01*
X187013408Y-85452995D01*
X186993803Y-85191379D01*
X186993802Y-85191374D01*
X186993802Y-85191370D01*
X186935420Y-84935584D01*
X186839568Y-84691357D01*
X186708386Y-84464143D01*
X186544805Y-84259019D01*
X186544804Y-84259018D01*
X186544801Y-84259014D01*
X186352479Y-84080567D01*
X186352478Y-84080566D01*
X186135704Y-83932772D01*
X186135698Y-83932769D01*
X186102696Y-83916875D01*
X186050837Y-83870051D01*
X186032500Y-83805156D01*
X186032500Y-83607702D01*
X186032500Y-83406064D01*
X186052183Y-83339029D01*
X186104987Y-83293274D01*
X186174146Y-83283330D01*
X186221595Y-83300529D01*
X186248303Y-83317003D01*
X186409292Y-83370349D01*
X186508655Y-83380500D01*
X187055344Y-83380499D01*
X187055352Y-83380498D01*
X187055355Y-83380498D01*
X187109760Y-83374940D01*
X187154708Y-83370349D01*
X187315697Y-83317003D01*
X187342404Y-83300530D01*
X187466191Y-83224177D01*
X187467868Y-83226896D01*
X187519466Y-83206091D01*
X187531560Y-83205500D01*
X192816194Y-83205500D01*
X192856903Y-83196208D01*
X192863760Y-83195043D01*
X192905255Y-83190368D01*
X192944680Y-83176571D01*
X192951321Y-83174658D01*
X192992061Y-83165360D01*
X193029693Y-83147236D01*
X193036105Y-83144580D01*
X193075522Y-83130789D01*
X193110889Y-83108565D01*
X193116961Y-83105209D01*
X193154587Y-83087091D01*
X193187236Y-83061052D01*
X193192895Y-83057037D01*
X193228262Y-83034816D01*
X193355816Y-82907262D01*
X193355816Y-82907261D01*
X193655819Y-82607257D01*
X193717142Y-82573773D01*
X193786834Y-82578757D01*
X193842767Y-82620629D01*
X193867184Y-82686093D01*
X193867500Y-82694939D01*
X193867500Y-82802546D01*
X193847815Y-82869585D01*
X193831181Y-82890227D01*
X192240208Y-84481199D01*
X192227951Y-84491020D01*
X192228134Y-84491241D01*
X192222123Y-84496213D01*
X192174772Y-84546636D01*
X192153889Y-84567518D01*
X192153877Y-84567532D01*
X192149621Y-84573017D01*
X192145837Y-84577447D01*
X192113937Y-84611418D01*
X192113936Y-84611420D01*
X192104284Y-84628976D01*
X192093610Y-84645226D01*
X192081329Y-84661061D01*
X192081324Y-84661068D01*
X192062815Y-84703838D01*
X192060245Y-84709084D01*
X192037803Y-84749906D01*
X192032822Y-84769307D01*
X192026521Y-84787710D01*
X192018562Y-84806102D01*
X192018561Y-84806106D01*
X192011271Y-84852127D01*
X192010087Y-84857846D01*
X191998499Y-84902983D01*
X191998499Y-84923019D01*
X191996973Y-84942407D01*
X191993840Y-84962192D01*
X191993840Y-84962195D01*
X191998225Y-85008583D01*
X191998500Y-85014421D01*
X191998500Y-93118547D01*
X191978815Y-93185586D01*
X191926011Y-93231341D01*
X191856853Y-93241285D01*
X191793297Y-93212260D01*
X191786819Y-93206228D01*
X190906803Y-92326212D01*
X190896980Y-92313950D01*
X190896759Y-92314134D01*
X190891786Y-92308123D01*
X190865564Y-92283499D01*
X190841364Y-92260773D01*
X190830919Y-92250328D01*
X190820475Y-92239883D01*
X190814986Y-92235625D01*
X190810561Y-92231847D01*
X190776582Y-92199938D01*
X190776580Y-92199936D01*
X190776577Y-92199935D01*
X190759029Y-92190288D01*
X190742763Y-92179604D01*
X190726933Y-92167325D01*
X190684168Y-92148818D01*
X190678922Y-92146248D01*
X190638093Y-92123803D01*
X190638092Y-92123802D01*
X190618693Y-92118822D01*
X190600281Y-92112518D01*
X190581898Y-92104562D01*
X190581892Y-92104560D01*
X190535874Y-92097272D01*
X190530152Y-92096087D01*
X190485021Y-92084500D01*
X190485019Y-92084500D01*
X190464984Y-92084500D01*
X190445586Y-92082973D01*
X190438162Y-92081797D01*
X190425805Y-92079840D01*
X190425804Y-92079840D01*
X190379416Y-92084225D01*
X190373578Y-92084500D01*
X182562179Y-92084500D01*
X182495140Y-92064815D01*
X182474498Y-92048181D01*
X180959321Y-90533004D01*
X179434530Y-89008212D01*
X179424707Y-88995950D01*
X179424486Y-88996134D01*
X179419513Y-88990123D01*
X179404039Y-88975592D01*
X179369091Y-88942773D01*
X179358646Y-88932328D01*
X179348202Y-88921883D01*
X179342713Y-88917625D01*
X179338288Y-88913847D01*
X179304309Y-88881938D01*
X179304307Y-88881936D01*
X179304304Y-88881935D01*
X179286756Y-88872288D01*
X179270490Y-88861604D01*
X179254660Y-88849325D01*
X179211895Y-88830818D01*
X179206649Y-88828248D01*
X179165820Y-88805803D01*
X179165819Y-88805802D01*
X179146420Y-88800822D01*
X179128008Y-88794518D01*
X179109625Y-88786562D01*
X179109619Y-88786560D01*
X179063601Y-88779272D01*
X179057879Y-88778087D01*
X179012748Y-88766500D01*
X179012746Y-88766500D01*
X178992711Y-88766500D01*
X178973313Y-88764973D01*
X178965889Y-88763797D01*
X178953532Y-88761840D01*
X178953531Y-88761840D01*
X178907143Y-88766225D01*
X178901305Y-88766500D01*
X177251499Y-88766500D01*
X177184460Y-88746815D01*
X177138705Y-88694011D01*
X177127499Y-88642500D01*
X177127499Y-88554498D01*
X177127498Y-88554481D01*
X177116999Y-88451703D01*
X177116998Y-88451700D01*
X177061814Y-88285166D01*
X176969712Y-88135844D01*
X176845656Y-88011788D01*
X176752888Y-87954569D01*
X176696336Y-87919687D01*
X176696331Y-87919685D01*
X176694862Y-87919198D01*
X176529797Y-87864501D01*
X176529795Y-87864500D01*
X176427010Y-87854000D01*
X174276998Y-87854000D01*
X174276981Y-87854001D01*
X174174203Y-87864500D01*
X174174200Y-87864501D01*
X174007668Y-87919685D01*
X174007663Y-87919687D01*
X173858342Y-88011789D01*
X173734289Y-88135842D01*
X173734287Y-88135844D01*
X173734288Y-88135844D01*
X173682991Y-88219011D01*
X173674611Y-88232597D01*
X173622663Y-88279321D01*
X173569072Y-88291500D01*
X172863429Y-88291500D01*
X172796390Y-88271815D01*
X172750635Y-88219011D01*
X172740691Y-88149853D01*
X172747247Y-88124167D01*
X172781020Y-88033614D01*
X172800091Y-87982483D01*
X172806500Y-87922873D01*
X172806499Y-85827128D01*
X172800091Y-85767517D01*
X172780365Y-85714630D01*
X172749797Y-85632671D01*
X172749795Y-85632668D01*
X172681233Y-85541080D01*
X172656816Y-85475615D01*
X172656500Y-85466769D01*
X172656500Y-83804619D01*
X172676185Y-83737580D01*
X172676691Y-83736797D01*
X172691912Y-83713500D01*
X172777924Y-83581849D01*
X172871157Y-83369300D01*
X172928134Y-83144305D01*
X172931095Y-83108574D01*
X172947300Y-82913006D01*
X172947300Y-82912993D01*
X172928135Y-82681702D01*
X172928133Y-82681691D01*
X172871157Y-82456699D01*
X172777924Y-82244151D01*
X172650983Y-82049852D01*
X172650980Y-82049849D01*
X172650979Y-82049847D01*
X172493784Y-81879087D01*
X172493779Y-81879083D01*
X172493777Y-81879081D01*
X172310634Y-81736535D01*
X172310628Y-81736531D01*
X172106504Y-81626064D01*
X172106495Y-81626061D01*
X171886984Y-81550702D01*
X171715281Y-81522050D01*
X171658049Y-81512500D01*
X171425951Y-81512500D01*
X171380164Y-81520140D01*
X171197015Y-81550702D01*
X170977504Y-81626061D01*
X170977495Y-81626064D01*
X170773371Y-81736531D01*
X170773365Y-81736535D01*
X170590222Y-81879081D01*
X170590219Y-81879084D01*
X170433016Y-82049852D01*
X170306075Y-82244151D01*
X170212842Y-82456699D01*
X170155866Y-82681691D01*
X170155864Y-82681702D01*
X170136700Y-82912993D01*
X170136700Y-82913006D01*
X170155864Y-83144297D01*
X170155866Y-83144308D01*
X170212842Y-83369300D01*
X170306075Y-83581848D01*
X170435308Y-83779654D01*
X170455495Y-83846543D01*
X170455499Y-83847475D01*
X170455500Y-85338568D01*
X170435815Y-85405607D01*
X170383012Y-85451362D01*
X170313853Y-85461306D01*
X170257190Y-85437835D01*
X170248334Y-85431206D01*
X170248328Y-85431202D01*
X170113482Y-85380908D01*
X170113483Y-85380908D01*
X170053883Y-85374501D01*
X170053881Y-85374500D01*
X170053873Y-85374500D01*
X170053864Y-85374500D01*
X168458129Y-85374500D01*
X168458123Y-85374501D01*
X168398516Y-85380908D01*
X168263671Y-85431202D01*
X168263669Y-85431203D01*
X168180311Y-85493606D01*
X168114847Y-85518023D01*
X168046574Y-85503172D01*
X168031689Y-85493606D01*
X167948330Y-85431203D01*
X167948328Y-85431202D01*
X167813482Y-85380908D01*
X167813483Y-85380908D01*
X167753883Y-85374501D01*
X167753881Y-85374500D01*
X167753873Y-85374500D01*
X167753864Y-85374500D01*
X166158129Y-85374500D01*
X166158123Y-85374501D01*
X166098516Y-85380908D01*
X165963671Y-85431202D01*
X165963664Y-85431206D01*
X165848455Y-85517452D01*
X165848452Y-85517455D01*
X165762206Y-85632664D01*
X165762202Y-85632671D01*
X165711908Y-85767517D01*
X165705501Y-85827116D01*
X165705501Y-85827123D01*
X165705500Y-85827135D01*
X165705500Y-87922870D01*
X165705501Y-87922876D01*
X165711908Y-87982483D01*
X165762202Y-88117328D01*
X165762203Y-88117330D01*
X165830767Y-88208919D01*
X165855184Y-88274383D01*
X165855500Y-88283230D01*
X165855500Y-88972763D01*
X165853783Y-88993328D01*
X165853311Y-88996130D01*
X165853311Y-88996133D01*
X165855500Y-89088083D01*
X165855500Y-89127420D01*
X165856536Y-89138287D01*
X165856799Y-89142700D01*
X165857225Y-89160567D01*
X165858313Y-89206245D01*
X165865931Y-89241267D01*
X165867064Y-89248535D01*
X165869635Y-89275452D01*
X165870472Y-89284217D01*
X165870473Y-89284225D01*
X165888380Y-89345209D01*
X165889475Y-89349498D01*
X165902985Y-89411608D01*
X165902988Y-89411615D01*
X165917093Y-89444556D01*
X165919589Y-89451498D01*
X165929681Y-89485869D01*
X165929683Y-89485874D01*
X165958814Y-89542381D01*
X165960696Y-89546375D01*
X165962415Y-89550388D01*
X165985718Y-89604807D01*
X165985721Y-89604812D01*
X166005807Y-89634489D01*
X166009568Y-89640829D01*
X166025988Y-89672681D01*
X166065289Y-89722656D01*
X166067901Y-89726232D01*
X166103520Y-89778861D01*
X166103526Y-89778868D01*
X166128859Y-89804201D01*
X166133758Y-89809721D01*
X166155905Y-89837883D01*
X166155909Y-89837887D01*
X166203951Y-89879516D01*
X166207191Y-89882533D01*
X167787477Y-91462819D01*
X167820962Y-91524142D01*
X167815978Y-91593834D01*
X167774106Y-91649767D01*
X167708642Y-91674184D01*
X167699796Y-91674500D01*
X167308129Y-91674500D01*
X167308123Y-91674501D01*
X167248516Y-91680908D01*
X167113671Y-91731202D01*
X167113664Y-91731206D01*
X166998455Y-91817452D01*
X166998452Y-91817455D01*
X166912206Y-91932664D01*
X166912202Y-91932671D01*
X166861908Y-92067517D01*
X166855501Y-92127116D01*
X166855500Y-92127135D01*
X166855500Y-94222870D01*
X166855501Y-94222876D01*
X166861908Y-94282483D01*
X166912202Y-94417328D01*
X166912206Y-94417335D01*
X166998452Y-94532544D01*
X166998455Y-94532547D01*
X167113664Y-94618793D01*
X167113671Y-94618797D01*
X167248517Y-94669091D01*
X167248516Y-94669091D01*
X167255444Y-94669835D01*
X167308127Y-94675500D01*
X171203872Y-94675499D01*
X171263483Y-94669091D01*
X171398331Y-94618796D01*
X171513546Y-94532546D01*
X171599796Y-94417331D01*
X171650091Y-94282483D01*
X171656500Y-94222873D01*
X171656499Y-92931202D01*
X171676184Y-92864164D01*
X171728987Y-92818409D01*
X171798146Y-92808465D01*
X171861702Y-92837490D01*
X171868180Y-92843522D01*
X171929181Y-92904523D01*
X171962666Y-92965846D01*
X171965500Y-92992204D01*
X171965500Y-96083263D01*
X171963783Y-96103828D01*
X171963311Y-96106630D01*
X171963311Y-96106633D01*
X171965500Y-96198583D01*
X171965500Y-96237920D01*
X171966536Y-96248787D01*
X171966799Y-96253200D01*
X171968094Y-96307567D01*
X171968313Y-96316745D01*
X171975931Y-96351767D01*
X171977064Y-96359035D01*
X171980472Y-96394717D01*
X171980473Y-96394725D01*
X171998380Y-96455709D01*
X171999475Y-96459998D01*
X172012985Y-96522108D01*
X172012988Y-96522115D01*
X172027093Y-96555056D01*
X172029589Y-96561998D01*
X172039681Y-96596369D01*
X172039683Y-96596374D01*
X172068814Y-96652881D01*
X172070701Y-96656885D01*
X172095718Y-96715307D01*
X172095721Y-96715312D01*
X172115807Y-96744989D01*
X172119568Y-96751329D01*
X172135988Y-96783181D01*
X172175289Y-96833156D01*
X172177896Y-96836725D01*
X172184858Y-96847012D01*
X172213520Y-96889361D01*
X172213526Y-96889368D01*
X172238859Y-96914701D01*
X172243758Y-96920221D01*
X172265905Y-96948383D01*
X172265909Y-96948387D01*
X172313951Y-96990016D01*
X172317191Y-96993033D01*
X172483477Y-97159319D01*
X172516962Y-97220642D01*
X172511978Y-97290334D01*
X172470106Y-97346267D01*
X172404642Y-97370684D01*
X172395796Y-97371000D01*
X171697892Y-97371000D01*
X171630853Y-97351315D01*
X171600234Y-97321400D01*
X171599469Y-97322019D01*
X171596158Y-97317919D01*
X171596153Y-97317912D01*
X171434728Y-97149484D01*
X171434727Y-97149483D01*
X171434726Y-97149482D01*
X171247165Y-97010762D01*
X171140124Y-96956793D01*
X171038847Y-96905730D01*
X170815780Y-96837417D01*
X170815778Y-96837416D01*
X170815776Y-96837416D01*
X170584370Y-96807783D01*
X170351299Y-96817685D01*
X170351290Y-96817686D01*
X170123233Y-96866836D01*
X170123230Y-96866837D01*
X169906768Y-96953819D01*
X169708110Y-97076137D01*
X169532980Y-97230270D01*
X169532977Y-97230273D01*
X169386426Y-97411773D01*
X169386421Y-97411779D01*
X169272646Y-97615445D01*
X169194929Y-97835408D01*
X169194926Y-97835420D01*
X169155500Y-98065344D01*
X169155500Y-98690221D01*
X169170328Y-98864446D01*
X169170329Y-98864448D01*
X169229114Y-99090218D01*
X169325208Y-99302802D01*
X169455847Y-99496088D01*
X169455849Y-99496090D01*
X169617272Y-99664516D01*
X169617273Y-99664517D01*
X169804834Y-99803237D01*
X169804836Y-99803238D01*
X169804839Y-99803240D01*
X170013153Y-99908270D01*
X170236220Y-99976583D01*
X170467624Y-100006216D01*
X170700707Y-99996314D01*
X170928765Y-99947164D01*
X171145235Y-99860179D01*
X171343891Y-99737862D01*
X171497220Y-99602915D01*
X171560548Y-99573402D01*
X171579142Y-99572000D01*
X173569072Y-99572000D01*
X173636111Y-99591685D01*
X173674609Y-99630901D01*
X173734288Y-99727656D01*
X173858344Y-99851712D01*
X174007666Y-99943814D01*
X174174203Y-99998999D01*
X174276991Y-100009500D01*
X176427008Y-100009499D01*
X176529797Y-99998999D01*
X176696334Y-99943814D01*
X176845656Y-99851712D01*
X176969712Y-99727656D01*
X177061814Y-99578334D01*
X177116999Y-99411797D01*
X177127500Y-99309009D01*
X177127499Y-97633992D01*
X177125604Y-97615445D01*
X177116999Y-97531203D01*
X177116998Y-97531200D01*
X177105600Y-97496804D01*
X177061814Y-97364666D01*
X176969712Y-97215344D01*
X176845656Y-97091288D01*
X176709150Y-97007091D01*
X176696336Y-96999187D01*
X176696331Y-96999185D01*
X176694862Y-96998698D01*
X176529797Y-96944001D01*
X176529795Y-96944000D01*
X176427016Y-96933500D01*
X176427009Y-96933500D01*
X175421704Y-96933500D01*
X175354665Y-96913815D01*
X175334023Y-96897181D01*
X174202819Y-95765976D01*
X174169334Y-95704653D01*
X174166500Y-95678295D01*
X174166500Y-92587237D01*
X174168218Y-92566670D01*
X174168687Y-92563876D01*
X174168689Y-92563866D01*
X174166500Y-92471916D01*
X174166500Y-92432575D01*
X174165462Y-92421708D01*
X174165199Y-92417298D01*
X174163687Y-92353755D01*
X174156070Y-92318746D01*
X174154933Y-92311452D01*
X174151528Y-92275782D01*
X174133613Y-92214772D01*
X174132524Y-92210503D01*
X174130226Y-92199938D01*
X174119013Y-92148388D01*
X174104901Y-92115434D01*
X174102411Y-92108507D01*
X174092316Y-92074125D01*
X174092313Y-92074120D01*
X174092312Y-92074115D01*
X174063186Y-92017620D01*
X174061305Y-92013627D01*
X174036279Y-91955187D01*
X174036278Y-91955185D01*
X174036277Y-91955183D01*
X174036276Y-91955182D01*
X174016195Y-91925511D01*
X174012429Y-91919164D01*
X173996016Y-91887328D01*
X173996011Y-91887318D01*
X173956706Y-91837339D01*
X173954099Y-91833767D01*
X173924845Y-91790544D01*
X173918477Y-91781135D01*
X173893130Y-91755788D01*
X173888245Y-91750283D01*
X173866092Y-91722114D01*
X173866090Y-91722112D01*
X173818048Y-91680483D01*
X173814808Y-91677466D01*
X172841523Y-90704181D01*
X172808038Y-90642858D01*
X172813022Y-90573166D01*
X172854894Y-90517233D01*
X172920358Y-90492816D01*
X172929204Y-90492500D01*
X173569072Y-90492500D01*
X173636111Y-90512185D01*
X173674609Y-90551401D01*
X173734288Y-90648156D01*
X173858344Y-90772212D01*
X174007666Y-90864314D01*
X174174203Y-90919499D01*
X174276991Y-90930000D01*
X176427008Y-90929999D01*
X176529797Y-90919499D01*
X176696334Y-90864314D01*
X176845656Y-90772212D01*
X176969712Y-90648156D01*
X177061814Y-90498834D01*
X177116999Y-90332297D01*
X177127500Y-90229509D01*
X177127500Y-90141500D01*
X177147185Y-90074461D01*
X177199989Y-90028706D01*
X177251500Y-90017500D01*
X178623275Y-90017500D01*
X178690314Y-90037185D01*
X178710956Y-90053819D01*
X181750921Y-93093784D01*
X181760746Y-93106048D01*
X181760967Y-93105866D01*
X181765937Y-93111873D01*
X181765940Y-93111876D01*
X181765941Y-93111877D01*
X181816378Y-93159241D01*
X181837257Y-93180120D01*
X181842731Y-93184366D01*
X181847169Y-93188156D01*
X181881145Y-93220062D01*
X181888832Y-93224288D01*
X181898700Y-93229713D01*
X181914958Y-93240392D01*
X181930791Y-93252674D01*
X181947710Y-93259995D01*
X181973564Y-93271183D01*
X181978808Y-93273752D01*
X182019635Y-93296197D01*
X182039039Y-93301179D01*
X182057437Y-93307478D01*
X182075832Y-93315438D01*
X182121856Y-93322726D01*
X182127559Y-93323907D01*
X182172708Y-93335500D01*
X182192743Y-93335500D01*
X182212140Y-93337026D01*
X182231923Y-93340160D01*
X182278310Y-93335775D01*
X182284149Y-93335500D01*
X188513691Y-93335500D01*
X188580730Y-93355185D01*
X188626485Y-93407989D01*
X188636429Y-93477147D01*
X188607404Y-93540703D01*
X188601372Y-93547181D01*
X188545423Y-93603129D01*
X188545417Y-93603137D01*
X188461755Y-93744603D01*
X188461754Y-93744606D01*
X188415902Y-93902426D01*
X188415901Y-93902432D01*
X188413000Y-93939304D01*
X188413000Y-94180500D01*
X188393315Y-94247539D01*
X188340511Y-94293294D01*
X188289000Y-94304500D01*
X188154293Y-94304500D01*
X187973904Y-94304500D01*
X187967986Y-94305850D01*
X187933187Y-94313791D01*
X187926333Y-94314955D01*
X187884841Y-94319632D01*
X187845437Y-94333419D01*
X187838756Y-94335344D01*
X187798033Y-94344641D01*
X187760406Y-94362759D01*
X187753983Y-94365420D01*
X187714579Y-94379210D01*
X187714573Y-94379212D01*
X187679220Y-94401425D01*
X187673134Y-94404789D01*
X187635514Y-94422906D01*
X187635510Y-94422908D01*
X187602865Y-94448941D01*
X187597193Y-94452966D01*
X187561836Y-94475183D01*
X187434282Y-94602738D01*
X184974839Y-97062181D01*
X184913516Y-97095666D01*
X184887158Y-97098500D01*
X184340045Y-97098500D01*
X184273006Y-97078815D01*
X184234317Y-97039289D01*
X184219786Y-97015577D01*
X184209972Y-96999561D01*
X184054027Y-96816973D01*
X183871439Y-96661028D01*
X183864678Y-96656885D01*
X183666702Y-96535565D01*
X183444865Y-96443678D01*
X183444867Y-96443678D01*
X183444863Y-96443677D01*
X183444859Y-96443676D01*
X183444853Y-96443674D01*
X183211382Y-96387623D01*
X182972000Y-96368783D01*
X182732617Y-96387623D01*
X182499146Y-96443674D01*
X182499134Y-96443678D01*
X182277297Y-96535565D01*
X182072563Y-96661026D01*
X181889973Y-96816973D01*
X181734026Y-96999563D01*
X181608565Y-97204297D01*
X181516678Y-97426134D01*
X181516674Y-97426146D01*
X181460623Y-97659617D01*
X181441783Y-97899000D01*
X181460623Y-98138382D01*
X181516674Y-98371853D01*
X181516678Y-98371865D01*
X181608565Y-98593702D01*
X181713926Y-98765636D01*
X181734028Y-98798439D01*
X181889973Y-98981027D01*
X182072561Y-99136972D01*
X182072563Y-99136973D01*
X182277297Y-99262434D01*
X182374047Y-99302508D01*
X182499137Y-99354323D01*
X182732621Y-99410377D01*
X182972000Y-99429217D01*
X183211379Y-99410377D01*
X183444863Y-99354323D01*
X183666704Y-99262433D01*
X183871439Y-99136972D01*
X184054027Y-98981027D01*
X184209972Y-98798439D01*
X184234317Y-98758710D01*
X184286128Y-98711835D01*
X184340045Y-98699500D01*
X185179904Y-98699500D01*
X185225144Y-98699500D01*
X185811768Y-98699500D01*
X185878807Y-98719185D01*
X185888235Y-98725885D01*
X185892807Y-98729466D01*
X185892812Y-98729469D01*
X185892815Y-98729472D01*
X186038394Y-98817478D01*
X186200804Y-98868086D01*
X186271384Y-98874500D01*
X186271387Y-98874500D01*
X186784613Y-98874500D01*
X186784616Y-98874500D01*
X186855196Y-98868086D01*
X187017606Y-98817478D01*
X187163185Y-98729472D01*
X187283472Y-98609185D01*
X187371478Y-98463606D01*
X187422086Y-98301196D01*
X187428500Y-98230616D01*
X187428500Y-97567384D01*
X187422086Y-97496804D01*
X187371478Y-97334394D01*
X187283472Y-97188815D01*
X187283470Y-97188813D01*
X187283469Y-97188811D01*
X187278843Y-97182906D01*
X187280501Y-97181606D01*
X187252112Y-97129616D01*
X187257096Y-97059924D01*
X187285595Y-97015579D01*
X188359356Y-95941819D01*
X188420679Y-95908334D01*
X188447037Y-95905500D01*
X190154196Y-95905500D01*
X190172631Y-95904049D01*
X190191069Y-95902598D01*
X190191071Y-95902597D01*
X190191073Y-95902597D01*
X190293306Y-95872895D01*
X190348898Y-95856744D01*
X190490365Y-95773081D01*
X190490364Y-95773081D01*
X190497080Y-95769110D01*
X190498155Y-95770928D01*
X190553032Y-95749381D01*
X190621550Y-95763059D01*
X190671796Y-95811609D01*
X190688000Y-95872895D01*
X190688000Y-96270696D01*
X190690901Y-96307567D01*
X190690902Y-96307573D01*
X190736754Y-96465393D01*
X190736755Y-96465396D01*
X190820417Y-96606862D01*
X190820423Y-96606870D01*
X190936629Y-96723076D01*
X190936633Y-96723079D01*
X190936635Y-96723081D01*
X191078102Y-96806744D01*
X191081682Y-96807784D01*
X191235926Y-96852597D01*
X191235929Y-96852597D01*
X191235931Y-96852598D01*
X191248222Y-96853565D01*
X191272804Y-96855500D01*
X191272806Y-96855500D01*
X191806046Y-96855500D01*
X193050126Y-96855500D01*
X193117165Y-96875185D01*
X193137807Y-96891819D01*
X193189955Y-96943967D01*
X193189959Y-96943970D01*
X193334294Y-97032998D01*
X193334297Y-97032999D01*
X193334303Y-97033003D01*
X193495292Y-97086349D01*
X193594655Y-97096500D01*
X194141344Y-97096499D01*
X194141352Y-97096498D01*
X194141355Y-97096498D01*
X194195760Y-97090940D01*
X194240708Y-97086349D01*
X194401697Y-97033003D01*
X194546044Y-96943968D01*
X194555318Y-96934693D01*
X194616638Y-96901208D01*
X194686330Y-96906190D01*
X194730681Y-96934693D01*
X194739956Y-96943968D01*
X194739958Y-96943969D01*
X194739959Y-96943970D01*
X194884294Y-97032998D01*
X194884297Y-97032999D01*
X194884303Y-97033003D01*
X195045292Y-97086349D01*
X195144655Y-97096500D01*
X195691344Y-97096499D01*
X195691352Y-97096498D01*
X195691355Y-97096498D01*
X195745760Y-97090940D01*
X195790708Y-97086349D01*
X195951697Y-97033003D01*
X196096044Y-96943968D01*
X196215968Y-96824044D01*
X196305003Y-96679697D01*
X196358349Y-96518708D01*
X196368500Y-96419345D01*
X196368499Y-95822656D01*
X196358349Y-95723292D01*
X196305003Y-95562303D01*
X196236960Y-95451989D01*
X196218500Y-95386893D01*
X196218500Y-95185231D01*
X196238185Y-95118192D01*
X196244888Y-95108759D01*
X196248463Y-95104193D01*
X196248472Y-95104185D01*
X196336478Y-94958606D01*
X196387086Y-94796196D01*
X196393500Y-94725616D01*
X196393500Y-94493499D01*
X196413185Y-94426461D01*
X196465989Y-94380706D01*
X196517500Y-94369500D01*
X199189548Y-94369500D01*
X199256587Y-94389185D01*
X199277229Y-94405819D01*
X200894194Y-96022784D01*
X200904019Y-96035048D01*
X200904240Y-96034866D01*
X200909210Y-96040873D01*
X200909213Y-96040876D01*
X200909214Y-96040877D01*
X200959651Y-96088241D01*
X200980530Y-96109120D01*
X200986004Y-96113366D01*
X200990442Y-96117156D01*
X201024418Y-96149062D01*
X201024422Y-96149064D01*
X201041973Y-96158713D01*
X201058231Y-96169392D01*
X201074064Y-96181674D01*
X201096015Y-96191172D01*
X201116837Y-96200183D01*
X201122081Y-96202752D01*
X201162908Y-96225197D01*
X201182312Y-96230179D01*
X201200710Y-96236478D01*
X201219105Y-96244438D01*
X201265129Y-96251726D01*
X201270832Y-96252907D01*
X201315981Y-96264500D01*
X201336016Y-96264500D01*
X201355413Y-96266026D01*
X201375196Y-96269160D01*
X201421583Y-96264775D01*
X201427422Y-96264500D01*
X208209453Y-96264500D01*
X208276492Y-96284185D01*
X208306724Y-96311595D01*
X208311032Y-96317044D01*
X208430956Y-96436968D01*
X208430958Y-96436969D01*
X208430959Y-96436970D01*
X208575294Y-96525998D01*
X208575297Y-96525999D01*
X208575303Y-96526003D01*
X208736292Y-96579349D01*
X208835655Y-96589500D01*
X209432344Y-96589499D01*
X209432352Y-96589498D01*
X209432355Y-96589498D01*
X209486760Y-96583940D01*
X209531708Y-96579349D01*
X209692697Y-96526003D01*
X209794645Y-96463120D01*
X209862034Y-96444680D01*
X209928698Y-96465602D01*
X209973468Y-96519243D01*
X209982526Y-96557637D01*
X209983146Y-96557571D01*
X209989908Y-96620483D01*
X210040202Y-96755328D01*
X210040206Y-96755335D01*
X210126452Y-96870544D01*
X210126455Y-96870547D01*
X210241664Y-96956793D01*
X210241671Y-96956797D01*
X210376517Y-97007091D01*
X210376516Y-97007091D01*
X210383444Y-97007835D01*
X210436127Y-97013500D01*
X212531872Y-97013499D01*
X212591483Y-97007091D01*
X212726331Y-96956796D01*
X212841546Y-96870546D01*
X212927796Y-96755331D01*
X212978091Y-96620483D01*
X212984500Y-96560873D01*
X212984500Y-96560870D01*
X213983500Y-96560870D01*
X213983501Y-96560876D01*
X213989908Y-96620483D01*
X214040202Y-96755328D01*
X214040206Y-96755335D01*
X214126452Y-96870544D01*
X214126455Y-96870547D01*
X214241664Y-96956793D01*
X214241671Y-96956797D01*
X214376517Y-97007091D01*
X214376516Y-97007091D01*
X214383444Y-97007835D01*
X214436127Y-97013500D01*
X216531872Y-97013499D01*
X216591483Y-97007091D01*
X216726331Y-96956796D01*
X216841546Y-96870546D01*
X216927796Y-96755331D01*
X216978091Y-96620483D01*
X216984500Y-96560873D01*
X216984499Y-94665128D01*
X216978091Y-94605517D01*
X216977055Y-94602740D01*
X216927797Y-94470671D01*
X216927793Y-94470664D01*
X216841547Y-94355455D01*
X216841544Y-94355452D01*
X216726335Y-94269206D01*
X216726328Y-94269202D01*
X216591482Y-94218908D01*
X216591483Y-94218908D01*
X216531883Y-94212501D01*
X216531881Y-94212500D01*
X216531873Y-94212500D01*
X216531864Y-94212500D01*
X214436129Y-94212500D01*
X214436123Y-94212501D01*
X214376516Y-94218908D01*
X214241671Y-94269202D01*
X214241664Y-94269206D01*
X214126455Y-94355452D01*
X214126452Y-94355455D01*
X214040206Y-94470664D01*
X214040202Y-94470671D01*
X213989908Y-94605517D01*
X213983501Y-94665116D01*
X213983501Y-94665123D01*
X213983500Y-94665135D01*
X213983500Y-96560870D01*
X212984500Y-96560870D01*
X212984499Y-94665128D01*
X212978091Y-94605517D01*
X212977055Y-94602740D01*
X212927797Y-94470671D01*
X212927793Y-94470664D01*
X212841547Y-94355455D01*
X212841544Y-94355452D01*
X212726335Y-94269206D01*
X212726328Y-94269202D01*
X212591482Y-94218908D01*
X212591483Y-94218908D01*
X212531883Y-94212501D01*
X212531881Y-94212500D01*
X212531873Y-94212500D01*
X212531864Y-94212500D01*
X210436129Y-94212500D01*
X210436123Y-94212501D01*
X210376516Y-94218908D01*
X210241671Y-94269202D01*
X210241664Y-94269206D01*
X210126455Y-94355452D01*
X210126452Y-94355455D01*
X210040206Y-94470664D01*
X210040202Y-94470671D01*
X209989908Y-94605517D01*
X209983501Y-94665116D01*
X209983501Y-94665123D01*
X209983500Y-94665135D01*
X209983500Y-94688500D01*
X209963815Y-94755539D01*
X209911011Y-94801294D01*
X209859500Y-94812500D01*
X209825953Y-94812500D01*
X209760856Y-94794038D01*
X209692705Y-94752001D01*
X209692699Y-94751998D01*
X209692697Y-94751997D01*
X209613075Y-94725613D01*
X209531709Y-94698651D01*
X209432346Y-94688500D01*
X208835662Y-94688500D01*
X208835644Y-94688501D01*
X208736292Y-94698650D01*
X208736289Y-94698651D01*
X208575305Y-94751996D01*
X208575294Y-94752001D01*
X208430959Y-94841029D01*
X208311032Y-94960955D01*
X208306724Y-94966405D01*
X208249704Y-95006785D01*
X208209453Y-95013500D01*
X201705452Y-95013500D01*
X201638413Y-94993815D01*
X201617771Y-94977181D01*
X200821090Y-94180500D01*
X200000803Y-93360212D01*
X199990980Y-93347950D01*
X199990759Y-93348134D01*
X199985786Y-93342123D01*
X199965618Y-93323184D01*
X199935364Y-93294773D01*
X199922602Y-93282011D01*
X199914475Y-93273883D01*
X199908986Y-93269625D01*
X199904561Y-93265847D01*
X199870582Y-93233938D01*
X199870580Y-93233936D01*
X199870577Y-93233935D01*
X199853029Y-93224288D01*
X199836763Y-93213604D01*
X199820936Y-93201327D01*
X199820935Y-93201326D01*
X199820933Y-93201325D01*
X199778168Y-93182818D01*
X199772922Y-93180248D01*
X199732093Y-93157803D01*
X199732092Y-93157802D01*
X199712693Y-93152822D01*
X199694281Y-93146518D01*
X199675898Y-93138562D01*
X199675892Y-93138560D01*
X199629874Y-93131272D01*
X199624152Y-93130087D01*
X199579021Y-93118500D01*
X199579019Y-93118500D01*
X199558984Y-93118500D01*
X199539586Y-93116973D01*
X199532162Y-93115797D01*
X199519805Y-93113840D01*
X199519804Y-93113840D01*
X199473416Y-93118225D01*
X199467578Y-93118500D01*
X196517500Y-93118500D01*
X196450461Y-93098815D01*
X196404706Y-93046011D01*
X196393500Y-92994500D01*
X196393500Y-92562386D01*
X196387086Y-92491807D01*
X196387086Y-92491804D01*
X196336478Y-92329394D01*
X196267089Y-92214611D01*
X196249254Y-92147060D01*
X196270771Y-92080586D01*
X196303353Y-92048012D01*
X196512479Y-91905433D01*
X196704805Y-91726981D01*
X196868386Y-91521857D01*
X196999568Y-91294643D01*
X197095420Y-91050416D01*
X197153802Y-90794630D01*
X197164562Y-90651048D01*
X197173408Y-90533004D01*
X198742592Y-90533004D01*
X198762196Y-90794620D01*
X198762197Y-90794625D01*
X198820576Y-91050402D01*
X198820578Y-91050411D01*
X198820580Y-91050416D01*
X198916432Y-91294643D01*
X199047614Y-91521857D01*
X199170009Y-91675335D01*
X199211198Y-91726985D01*
X199372659Y-91876797D01*
X199403521Y-91905433D01*
X199620296Y-92053228D01*
X199620301Y-92053230D01*
X199620302Y-92053231D01*
X199620303Y-92053232D01*
X199710803Y-92096814D01*
X199856673Y-92167061D01*
X199856674Y-92167061D01*
X199856677Y-92167063D01*
X200107385Y-92244396D01*
X200366818Y-92283500D01*
X200629182Y-92283500D01*
X200888615Y-92244396D01*
X201139323Y-92167063D01*
X201375704Y-92053228D01*
X201592479Y-91905433D01*
X201784805Y-91726981D01*
X201822122Y-91680186D01*
X201879311Y-91640047D01*
X201919069Y-91633500D01*
X204551419Y-91633500D01*
X204551425Y-91633500D01*
X204708218Y-91618528D01*
X204909875Y-91559316D01*
X205096682Y-91463011D01*
X205249483Y-91342845D01*
X205314345Y-91316879D01*
X205382952Y-91330101D01*
X205411700Y-91350571D01*
X205421563Y-91359976D01*
X205465623Y-91401987D01*
X205560279Y-91462819D01*
X205642428Y-91515613D01*
X205837543Y-91593725D01*
X205940729Y-91613612D01*
X206043914Y-91633500D01*
X206043915Y-91633500D01*
X207636419Y-91633500D01*
X207636425Y-91633500D01*
X207793218Y-91618528D01*
X207994875Y-91559316D01*
X208181682Y-91463011D01*
X208279681Y-91385942D01*
X208344543Y-91359976D01*
X208413150Y-91373198D01*
X208441898Y-91393669D01*
X208450620Y-91401985D01*
X208545279Y-91462819D01*
X208627428Y-91515613D01*
X208822543Y-91593725D01*
X208925728Y-91613612D01*
X209028914Y-91633500D01*
X209028915Y-91633500D01*
X209946820Y-91633500D01*
X210013859Y-91653185D01*
X210046085Y-91683187D01*
X210126454Y-91790546D01*
X210162400Y-91817455D01*
X210241664Y-91876793D01*
X210241671Y-91876797D01*
X210376517Y-91927091D01*
X210376516Y-91927091D01*
X210383444Y-91927835D01*
X210436127Y-91933500D01*
X212531872Y-91933499D01*
X212591483Y-91927091D01*
X212726331Y-91876796D01*
X212841546Y-91790546D01*
X212927796Y-91675331D01*
X212978091Y-91540483D01*
X212984500Y-91480873D01*
X212984499Y-89585128D01*
X212978091Y-89525517D01*
X212971066Y-89506683D01*
X212927797Y-89390671D01*
X212927793Y-89390664D01*
X212841547Y-89275455D01*
X212841544Y-89275452D01*
X212726335Y-89189206D01*
X212726328Y-89189202D01*
X212591482Y-89138908D01*
X212591483Y-89138908D01*
X212531883Y-89132501D01*
X212531881Y-89132500D01*
X212531873Y-89132500D01*
X212531864Y-89132500D01*
X210436129Y-89132500D01*
X210436123Y-89132501D01*
X210376516Y-89138908D01*
X210241671Y-89189202D01*
X210241664Y-89189206D01*
X210126456Y-89275452D01*
X210126455Y-89275453D01*
X210126454Y-89275454D01*
X210071025Y-89349498D01*
X210046087Y-89382811D01*
X209990153Y-89424682D01*
X209946820Y-89432500D01*
X209081575Y-89432500D01*
X208924782Y-89447472D01*
X208924778Y-89447473D01*
X208723127Y-89506683D01*
X208536313Y-89602991D01*
X208438320Y-89680055D01*
X208373455Y-89706024D01*
X208304848Y-89692801D01*
X208276101Y-89672330D01*
X208267379Y-89664014D01*
X208090574Y-89550388D01*
X208075479Y-89544345D01*
X207981404Y-89506683D01*
X207895455Y-89472274D01*
X207689086Y-89432500D01*
X207689085Y-89432500D01*
X206096575Y-89432500D01*
X205939782Y-89447472D01*
X205939778Y-89447473D01*
X205738127Y-89506683D01*
X205551313Y-89602991D01*
X205398518Y-89723152D01*
X205333653Y-89749120D01*
X205265046Y-89735898D01*
X205236298Y-89715427D01*
X205182378Y-89664014D01*
X205182376Y-89664012D01*
X205005574Y-89550388D01*
X204990479Y-89544345D01*
X204896404Y-89506683D01*
X204810455Y-89472274D01*
X204604086Y-89432500D01*
X204604085Y-89432500D01*
X201919069Y-89432500D01*
X201852030Y-89412815D01*
X201822122Y-89385813D01*
X201784805Y-89339019D01*
X201592479Y-89160567D01*
X201375704Y-89012772D01*
X201375698Y-89012769D01*
X201375697Y-89012768D01*
X201375696Y-89012767D01*
X201139325Y-88898938D01*
X201139327Y-88898938D01*
X200888623Y-88821606D01*
X200888619Y-88821605D01*
X200888615Y-88821604D01*
X200763823Y-88802794D01*
X200629187Y-88782500D01*
X200629182Y-88782500D01*
X200366818Y-88782500D01*
X200366812Y-88782500D01*
X200205247Y-88806853D01*
X200107385Y-88821604D01*
X200107381Y-88821605D01*
X200107382Y-88821605D01*
X200107376Y-88821606D01*
X199856673Y-88898938D01*
X199620303Y-89012767D01*
X199620302Y-89012768D01*
X199403520Y-89160567D01*
X199211198Y-89339014D01*
X199047614Y-89544143D01*
X198916432Y-89771356D01*
X198820582Y-90015578D01*
X198820576Y-90015597D01*
X198762197Y-90271374D01*
X198762196Y-90271379D01*
X198742592Y-90532995D01*
X198742592Y-90533004D01*
X197173408Y-90533004D01*
X197173408Y-90532995D01*
X197153803Y-90271379D01*
X197153802Y-90271374D01*
X197153802Y-90271370D01*
X197095420Y-90015584D01*
X196999568Y-89771357D01*
X196868386Y-89544143D01*
X196704805Y-89339019D01*
X196704803Y-89339017D01*
X196704801Y-89339014D01*
X196512479Y-89160567D01*
X196486273Y-89142700D01*
X196295704Y-89012772D01*
X196295701Y-89012771D01*
X196295699Y-89012769D01*
X196288698Y-89009398D01*
X196236838Y-88962575D01*
X196218500Y-88897678D01*
X196218500Y-87088321D01*
X196238185Y-87021282D01*
X196288699Y-86976601D01*
X196295704Y-86973228D01*
X196512479Y-86825433D01*
X196704805Y-86646981D01*
X196868386Y-86441857D01*
X196999568Y-86214643D01*
X197095420Y-85970416D01*
X197153802Y-85714630D01*
X197159944Y-85632668D01*
X197173408Y-85453004D01*
X197173408Y-85452995D01*
X197153803Y-85191379D01*
X197153802Y-85191374D01*
X197153802Y-85191370D01*
X197095420Y-84935584D01*
X196999568Y-84691357D01*
X196868386Y-84464143D01*
X196704805Y-84259019D01*
X196704804Y-84259018D01*
X196704801Y-84259014D01*
X196671805Y-84228399D01*
X196636050Y-84168370D01*
X196638425Y-84098541D01*
X196678176Y-84041081D01*
X196742681Y-84014233D01*
X196756146Y-84013500D01*
X200804419Y-84013500D01*
X200804425Y-84013500D01*
X200961218Y-83998528D01*
X201162875Y-83939316D01*
X201349682Y-83843011D01*
X201514886Y-83713092D01*
X201652519Y-83554256D01*
X201757604Y-83372244D01*
X201826344Y-83173633D01*
X201856254Y-82965602D01*
X201846254Y-82755670D01*
X201796704Y-82551424D01*
X201753445Y-82456700D01*
X201709401Y-82360256D01*
X201709398Y-82360251D01*
X201709397Y-82360250D01*
X201709396Y-82360247D01*
X201603035Y-82210884D01*
X201580184Y-82144858D01*
X201596657Y-82076958D01*
X201614301Y-82053388D01*
X201620986Y-82046378D01*
X201734613Y-81869572D01*
X201812725Y-81674457D01*
X201852500Y-81468085D01*
X201852499Y-80015945D01*
X201872185Y-79948907D01*
X201892155Y-79925051D01*
X202038805Y-79788981D01*
X202202386Y-79583857D01*
X202333073Y-79357499D01*
X202383640Y-79309284D01*
X202440460Y-79295500D01*
X203160531Y-79295500D01*
X203223651Y-79312767D01*
X203281102Y-79346744D01*
X203305437Y-79353814D01*
X203438926Y-79392597D01*
X203438929Y-79392597D01*
X203438931Y-79392598D01*
X203445691Y-79393130D01*
X203475804Y-79395500D01*
X203475806Y-79395500D01*
X204632196Y-79395500D01*
X204650631Y-79394049D01*
X204669069Y-79392598D01*
X204669071Y-79392597D01*
X204669073Y-79392597D01*
X204771306Y-79362895D01*
X204826898Y-79346744D01*
X204968365Y-79263081D01*
X204968364Y-79263081D01*
X204975080Y-79259110D01*
X204976155Y-79260928D01*
X205031032Y-79239381D01*
X205099550Y-79253059D01*
X205149796Y-79301609D01*
X205166000Y-79362895D01*
X205166000Y-79760696D01*
X205168901Y-79797567D01*
X205168902Y-79797573D01*
X205214754Y-79955393D01*
X205214755Y-79955396D01*
X205214756Y-79955398D01*
X205223739Y-79970588D01*
X205298417Y-80096862D01*
X205298423Y-80096870D01*
X205414629Y-80213076D01*
X205414633Y-80213079D01*
X205414635Y-80213081D01*
X205556102Y-80296744D01*
X205597724Y-80308836D01*
X205713926Y-80342597D01*
X205713929Y-80342597D01*
X205713931Y-80342598D01*
X205726222Y-80343565D01*
X205750804Y-80345500D01*
X205750806Y-80345500D01*
X205946060Y-80345500D01*
X206013099Y-80365185D01*
X206033741Y-80381819D01*
X209049742Y-83397819D01*
X209049743Y-83397821D01*
X209067184Y-83415262D01*
X209194738Y-83542816D01*
X209230089Y-83565028D01*
X209235765Y-83569055D01*
X209268411Y-83595090D01*
X209268412Y-83595091D01*
X209289548Y-83605269D01*
X209306035Y-83613208D01*
X209312112Y-83616567D01*
X209329635Y-83627577D01*
X209347477Y-83638789D01*
X209386891Y-83652581D01*
X209393320Y-83655244D01*
X209430941Y-83673361D01*
X209471641Y-83682650D01*
X209478328Y-83684576D01*
X209517742Y-83698367D01*
X209517745Y-83698368D01*
X209559241Y-83703043D01*
X209566093Y-83704207D01*
X209606806Y-83713500D01*
X209652046Y-83713500D01*
X213099955Y-83713500D01*
X213166994Y-83733185D01*
X213205681Y-83772709D01*
X213230028Y-83812439D01*
X213385973Y-83995027D01*
X213568561Y-84150972D01*
X213568563Y-84150973D01*
X213773297Y-84276434D01*
X213870047Y-84316508D01*
X213995137Y-84368323D01*
X214228621Y-84424377D01*
X214468000Y-84443217D01*
X214707379Y-84424377D01*
X214940863Y-84368323D01*
X215162704Y-84276433D01*
X215367439Y-84150972D01*
X215550027Y-83995027D01*
X215705972Y-83812439D01*
X215831433Y-83607704D01*
X215923323Y-83385863D01*
X215979377Y-83152379D01*
X215998217Y-82913000D01*
X215979377Y-82673621D01*
X215923323Y-82440137D01*
X215842143Y-82244151D01*
X215831434Y-82218297D01*
X215705973Y-82013563D01*
X215705972Y-82013561D01*
X215550027Y-81830973D01*
X215367439Y-81675028D01*
X215366504Y-81674455D01*
X215162702Y-81549565D01*
X214940865Y-81457678D01*
X214940867Y-81457678D01*
X214940863Y-81457677D01*
X214940859Y-81457676D01*
X214940853Y-81457674D01*
X214707382Y-81401623D01*
X214527844Y-81387492D01*
X214468000Y-81382783D01*
X214467999Y-81382783D01*
X214228617Y-81401623D01*
X213995146Y-81457674D01*
X213995134Y-81457678D01*
X213773297Y-81549565D01*
X213568563Y-81675026D01*
X213385973Y-81830973D01*
X213230026Y-82013563D01*
X213205683Y-82053289D01*
X213153872Y-82100165D01*
X213099955Y-82112500D01*
X210079940Y-82112500D01*
X210012901Y-82092815D01*
X209992259Y-82076181D01*
X208589734Y-80673656D01*
X208556249Y-80612333D01*
X208561233Y-80542641D01*
X208603105Y-80486708D01*
X208640524Y-80467590D01*
X208682606Y-80454478D01*
X208828185Y-80366472D01*
X208948472Y-80246185D01*
X209036478Y-80100606D01*
X209087086Y-79938196D01*
X209093500Y-79867616D01*
X209093500Y-79354384D01*
X209087086Y-79283804D01*
X209036478Y-79121394D01*
X208948472Y-78975815D01*
X208948470Y-78975813D01*
X208948469Y-78975811D01*
X208828188Y-78855530D01*
X208728592Y-78795322D01*
X208682606Y-78767522D01*
X208520196Y-78716914D01*
X208520194Y-78716913D01*
X208520192Y-78716913D01*
X208470778Y-78712423D01*
X208449616Y-78710500D01*
X207786384Y-78710500D01*
X207767144Y-78712248D01*
X207715807Y-78716913D01*
X207553391Y-78767523D01*
X207511881Y-78792617D01*
X207447732Y-78810500D01*
X207164978Y-78810500D01*
X207109499Y-78795322D01*
X207109054Y-78796353D01*
X207101893Y-78793254D01*
X206944073Y-78747402D01*
X206944067Y-78747401D01*
X206907196Y-78744500D01*
X206907194Y-78744500D01*
X205750806Y-78744500D01*
X205750804Y-78744500D01*
X205713932Y-78747401D01*
X205713926Y-78747402D01*
X205556106Y-78793254D01*
X205556103Y-78793255D01*
X205407920Y-78880890D01*
X205406845Y-78879073D01*
X205351948Y-78900620D01*
X205283432Y-78886931D01*
X205233194Y-78838373D01*
X205217000Y-78777104D01*
X205217000Y-78412895D01*
X205236685Y-78345856D01*
X205289489Y-78300101D01*
X205358647Y-78290157D01*
X205406996Y-78310671D01*
X205407920Y-78309110D01*
X205448534Y-78333128D01*
X205556102Y-78396744D01*
X205580289Y-78403771D01*
X205713926Y-78442597D01*
X205713929Y-78442597D01*
X205713931Y-78442598D01*
X205726222Y-78443565D01*
X205750804Y-78445500D01*
X205750806Y-78445500D01*
X206280564Y-78445500D01*
X206287502Y-78445889D01*
X206316400Y-78449145D01*
X206328998Y-78450565D01*
X206329000Y-78450565D01*
X206329002Y-78450565D01*
X206341599Y-78449145D01*
X206370497Y-78445889D01*
X206377436Y-78445500D01*
X206907196Y-78445500D01*
X206925631Y-78444049D01*
X206944069Y-78442598D01*
X206944071Y-78442597D01*
X206944073Y-78442597D01*
X207046306Y-78412895D01*
X207101898Y-78396744D01*
X207243365Y-78313081D01*
X207359581Y-78196865D01*
X207443244Y-78055398D01*
X207479417Y-77930890D01*
X207489097Y-77897573D01*
X207489098Y-77897567D01*
X207489340Y-77894500D01*
X207490549Y-77879131D01*
X207492000Y-77860696D01*
X207492000Y-77429304D01*
X207489098Y-77392432D01*
X207489097Y-77392426D01*
X207443245Y-77234606D01*
X207443244Y-77234603D01*
X207443244Y-77234602D01*
X207359581Y-77093135D01*
X207359579Y-77093133D01*
X207359576Y-77093129D01*
X207243370Y-76976923D01*
X207243359Y-76976914D01*
X207190378Y-76945581D01*
X207142695Y-76894512D01*
X207129500Y-76838850D01*
X207129500Y-76574015D01*
X207147962Y-76508918D01*
X207239998Y-76359705D01*
X207239997Y-76359705D01*
X207240003Y-76359697D01*
X207293349Y-76198708D01*
X207303500Y-76099345D01*
X207303499Y-75786450D01*
X207323183Y-75719412D01*
X207339813Y-75698775D01*
X212182316Y-70856272D01*
X212243637Y-70822789D01*
X212313329Y-70827773D01*
G37*
%TD.AperFunction*%
%TA.AperFunction,Conductor*%
G36*
X193622128Y-84970974D02*
G01*
X193678062Y-85012845D01*
X193702479Y-85078310D01*
X193699686Y-85114747D01*
X193682197Y-85191371D01*
X193682196Y-85191379D01*
X193662592Y-85452995D01*
X193662592Y-85453004D01*
X193682196Y-85714620D01*
X193682197Y-85714625D01*
X193740576Y-85970402D01*
X193740578Y-85970411D01*
X193740580Y-85970416D01*
X193836432Y-86214643D01*
X193967614Y-86441857D01*
X194099736Y-86607533D01*
X194131198Y-86646985D01*
X194312753Y-86815441D01*
X194323521Y-86825433D01*
X194540296Y-86973228D01*
X194547300Y-86976601D01*
X194599159Y-87023420D01*
X194617500Y-87088321D01*
X194617500Y-88897678D01*
X194597815Y-88964717D01*
X194547302Y-89009398D01*
X194540300Y-89012769D01*
X194323520Y-89160567D01*
X194131198Y-89339014D01*
X193967614Y-89544143D01*
X193836432Y-89771356D01*
X193740582Y-90015578D01*
X193740576Y-90015597D01*
X193682197Y-90271374D01*
X193682196Y-90271379D01*
X193662592Y-90532995D01*
X193662592Y-90533004D01*
X193682196Y-90794620D01*
X193682197Y-90794625D01*
X193740576Y-91050402D01*
X193740578Y-91050411D01*
X193740580Y-91050416D01*
X193836432Y-91294643D01*
X193967614Y-91521857D01*
X194090009Y-91675335D01*
X194131198Y-91726985D01*
X194292659Y-91876797D01*
X194323521Y-91905433D01*
X194532645Y-92048012D01*
X194576946Y-92102039D01*
X194585005Y-92171443D01*
X194568909Y-92214614D01*
X194499522Y-92329393D01*
X194448913Y-92491807D01*
X194442500Y-92562386D01*
X194442500Y-92992451D01*
X194422815Y-93059490D01*
X194370011Y-93105245D01*
X194319060Y-93113841D01*
X194319131Y-93116082D01*
X194311333Y-93116327D01*
X194250925Y-93118225D01*
X194242172Y-93118500D01*
X194212649Y-93118500D01*
X194205778Y-93119367D01*
X194199959Y-93119825D01*
X194153374Y-93121289D01*
X194153368Y-93121290D01*
X194134126Y-93126880D01*
X194115087Y-93130823D01*
X194095217Y-93133334D01*
X194095203Y-93133337D01*
X194051883Y-93150488D01*
X194046358Y-93152380D01*
X194001613Y-93165380D01*
X194001610Y-93165381D01*
X193984366Y-93175579D01*
X193966905Y-93184133D01*
X193948274Y-93191510D01*
X193948262Y-93191517D01*
X193910570Y-93218902D01*
X193905687Y-93222109D01*
X193865580Y-93245829D01*
X193851414Y-93259995D01*
X193836624Y-93272627D01*
X193820414Y-93284404D01*
X193820411Y-93284407D01*
X193790715Y-93320304D01*
X193786781Y-93324627D01*
X193764849Y-93346557D01*
X193703525Y-93380041D01*
X193636219Y-93375917D01*
X193618257Y-93369632D01*
X193576763Y-93364955D01*
X193569908Y-93363791D01*
X193529200Y-93354501D01*
X193529196Y-93354500D01*
X193529194Y-93354500D01*
X193529191Y-93354500D01*
X193373500Y-93354500D01*
X193306461Y-93334815D01*
X193260706Y-93282011D01*
X193249500Y-93230500D01*
X193249500Y-85292452D01*
X193269185Y-85225413D01*
X193285819Y-85204771D01*
X193375843Y-85114747D01*
X193491116Y-84999473D01*
X193552437Y-84965990D01*
X193622128Y-84970974D01*
G37*
%TD.AperFunction*%
%TA.AperFunction,Conductor*%
G36*
X199413920Y-77246185D02*
G01*
X199459675Y-77298989D01*
X199469619Y-77368147D01*
X199443828Y-77427811D01*
X199442637Y-77429306D01*
X199301614Y-77606143D01*
X199170432Y-77833356D01*
X199074582Y-78077578D01*
X199074576Y-78077597D01*
X199016197Y-78333374D01*
X199016196Y-78333379D01*
X198996592Y-78594995D01*
X198996592Y-78595004D01*
X199016196Y-78856620D01*
X199016197Y-78856625D01*
X199074576Y-79112402D01*
X199074578Y-79112411D01*
X199074580Y-79112416D01*
X199170432Y-79356643D01*
X199301614Y-79583857D01*
X199465195Y-79788981D01*
X199611842Y-79925049D01*
X199647596Y-79985075D01*
X199651500Y-80015945D01*
X199651500Y-81415425D01*
X199666472Y-81572218D01*
X199682282Y-81626061D01*
X199690358Y-81653565D01*
X199690358Y-81723435D01*
X199652584Y-81782213D01*
X199589028Y-81811238D01*
X199571381Y-81812500D01*
X198244500Y-81812500D01*
X198177461Y-81792815D01*
X198131706Y-81740011D01*
X198120500Y-81688500D01*
X198120499Y-81090662D01*
X198120498Y-81090644D01*
X198110349Y-80991292D01*
X198110348Y-80991289D01*
X198057003Y-80830303D01*
X198056999Y-80830297D01*
X198056998Y-80830294D01*
X197967970Y-80685959D01*
X197967967Y-80685955D01*
X197908818Y-80626806D01*
X197875333Y-80565483D01*
X197872500Y-80539134D01*
X197872500Y-78491452D01*
X197892185Y-78424412D01*
X197908819Y-78403771D01*
X199049772Y-77262819D01*
X199111095Y-77229334D01*
X199137453Y-77226500D01*
X199346881Y-77226500D01*
X199413920Y-77246185D01*
G37*
%TD.AperFunction*%
%TA.AperFunction,Conductor*%
G36*
X218609539Y-54223185D02*
G01*
X218655294Y-54275989D01*
X218666500Y-54327500D01*
X218666500Y-61816046D01*
X218646815Y-61883085D01*
X218594011Y-61928840D01*
X218524853Y-61938784D01*
X218503497Y-61933752D01*
X218421711Y-61906651D01*
X218322346Y-61896500D01*
X217725662Y-61896500D01*
X217725644Y-61896501D01*
X217626292Y-61906650D01*
X217626289Y-61906651D01*
X217465305Y-61959996D01*
X217465294Y-61960001D01*
X217320959Y-62049029D01*
X217320955Y-62049032D01*
X217293807Y-62076181D01*
X217232484Y-62109666D01*
X217206126Y-62112500D01*
X215654000Y-62112500D01*
X215586961Y-62092815D01*
X215541206Y-62040011D01*
X215530000Y-61988500D01*
X215530000Y-58918222D01*
X215549685Y-58851183D01*
X215559710Y-58837691D01*
X215705969Y-58666442D01*
X215705972Y-58666439D01*
X215831433Y-58461704D01*
X215923323Y-58239863D01*
X215979377Y-58006379D01*
X215998217Y-57767000D01*
X215979377Y-57527621D01*
X215923323Y-57294137D01*
X215871508Y-57169047D01*
X215831434Y-57072297D01*
X215705973Y-56867563D01*
X215705972Y-56867561D01*
X215550027Y-56684973D01*
X215367439Y-56529028D01*
X215367436Y-56529026D01*
X215162702Y-56403565D01*
X214940865Y-56311678D01*
X214940867Y-56311678D01*
X214940863Y-56311677D01*
X214940859Y-56311676D01*
X214940853Y-56311674D01*
X214707382Y-56255623D01*
X214527844Y-56241493D01*
X214468000Y-56236783D01*
X214467999Y-56236783D01*
X214228617Y-56255623D01*
X213995146Y-56311674D01*
X213995134Y-56311678D01*
X213773297Y-56403565D01*
X213568563Y-56529026D01*
X213385973Y-56684973D01*
X213230025Y-56867563D01*
X213220648Y-56882866D01*
X213168835Y-56929739D01*
X213099904Y-56941159D01*
X213050775Y-56924189D01*
X212925606Y-56848522D01*
X212763196Y-56797914D01*
X212763194Y-56797913D01*
X212763192Y-56797913D01*
X212713778Y-56793423D01*
X212692616Y-56791500D01*
X212179384Y-56791500D01*
X212160145Y-56793248D01*
X212108807Y-56797913D01*
X211946393Y-56848522D01*
X211800811Y-56936530D01*
X211680530Y-57056811D01*
X211592522Y-57202393D01*
X211541913Y-57364807D01*
X211535500Y-57435386D01*
X211535500Y-58098613D01*
X211541913Y-58169192D01*
X211541913Y-58169194D01*
X211541914Y-58169196D01*
X211592522Y-58331606D01*
X211671169Y-58461704D01*
X211680530Y-58477188D01*
X211800811Y-58597469D01*
X211800813Y-58597470D01*
X211800815Y-58597472D01*
X211946394Y-58685478D01*
X212108804Y-58736086D01*
X212179384Y-58742500D01*
X212179387Y-58742500D01*
X212692613Y-58742500D01*
X212692616Y-58742500D01*
X212763196Y-58736086D01*
X212925606Y-58685478D01*
X213050775Y-58609810D01*
X213118327Y-58591974D01*
X213184801Y-58613491D01*
X213220650Y-58651136D01*
X213230026Y-58666437D01*
X213246287Y-58685476D01*
X213385973Y-58849027D01*
X213568561Y-59004972D01*
X213773296Y-59130433D01*
X213773298Y-59130433D01*
X213773300Y-59130435D01*
X213773299Y-59130435D01*
X213852452Y-59163221D01*
X213906856Y-59207062D01*
X213928921Y-59273356D01*
X213929000Y-59277782D01*
X213929000Y-62938500D01*
X213909315Y-63005539D01*
X213856511Y-63051294D01*
X213805000Y-63062500D01*
X213138804Y-63062500D01*
X213101932Y-63065401D01*
X213101926Y-63065402D01*
X212944106Y-63111254D01*
X212944103Y-63111255D01*
X212802637Y-63194917D01*
X212802629Y-63194923D01*
X212796372Y-63201181D01*
X212735049Y-63234666D01*
X212708691Y-63237500D01*
X212531743Y-63237500D01*
X212516122Y-63235775D01*
X212516096Y-63236061D01*
X212508334Y-63235327D01*
X212508333Y-63235327D01*
X212439186Y-63237500D01*
X212409649Y-63237500D01*
X212402766Y-63238369D01*
X212396949Y-63238826D01*
X212350373Y-63240290D01*
X212350368Y-63240291D01*
X212332308Y-63245538D01*
X212262439Y-63245337D01*
X212203770Y-63207393D01*
X212184925Y-63177978D01*
X212123396Y-63043247D01*
X212001486Y-62872048D01*
X212001484Y-62872046D01*
X212001479Y-62872040D01*
X211849379Y-62727014D01*
X211672574Y-62613388D01*
X211477455Y-62535274D01*
X211271086Y-62495500D01*
X211271085Y-62495500D01*
X210371500Y-62495500D01*
X210304461Y-62475815D01*
X210258706Y-62423011D01*
X210247500Y-62371500D01*
X210247500Y-61270580D01*
X210247500Y-61270575D01*
X210232528Y-61113782D01*
X210173316Y-60912125D01*
X210077011Y-60725318D01*
X210077009Y-60725316D01*
X210077008Y-60725313D01*
X209947094Y-60560116D01*
X209947090Y-60560112D01*
X209788253Y-60422478D01*
X209606249Y-60317398D01*
X209606245Y-60317396D01*
X209606244Y-60317396D01*
X209407633Y-60248656D01*
X209199602Y-60218746D01*
X209199598Y-60218746D01*
X208989672Y-60228745D01*
X208785421Y-60278296D01*
X208785417Y-60278298D01*
X208594256Y-60365598D01*
X208594244Y-60365605D01*
X208444886Y-60471963D01*
X208378859Y-60494816D01*
X208310959Y-60478343D01*
X208287390Y-60460700D01*
X208280376Y-60454012D01*
X208103574Y-60340388D01*
X207908455Y-60262274D01*
X207702086Y-60222500D01*
X207702085Y-60222500D01*
X206258397Y-60222500D01*
X206205992Y-60210882D01*
X206061330Y-60143425D01*
X206061326Y-60143424D01*
X206061322Y-60143422D01*
X205849977Y-60086793D01*
X205632002Y-60067723D01*
X205631998Y-60067723D01*
X205486681Y-60080436D01*
X205414023Y-60086793D01*
X205414020Y-60086793D01*
X205202677Y-60143422D01*
X205202668Y-60143426D01*
X205004361Y-60235898D01*
X205004357Y-60235900D01*
X204825121Y-60361402D01*
X204670402Y-60516121D01*
X204544900Y-60695357D01*
X204544898Y-60695361D01*
X204452426Y-60893668D01*
X204452422Y-60893677D01*
X204395793Y-61105020D01*
X204395793Y-61105024D01*
X204376723Y-61322997D01*
X204376723Y-61323002D01*
X204395793Y-61540975D01*
X204395793Y-61540979D01*
X204452422Y-61752322D01*
X204452424Y-61752326D01*
X204452425Y-61752330D01*
X204452428Y-61752336D01*
X204544897Y-61950638D01*
X204551453Y-61960001D01*
X204670402Y-62129877D01*
X204825123Y-62284598D01*
X205004361Y-62410102D01*
X205202670Y-62502575D01*
X205414023Y-62559207D01*
X205596926Y-62575208D01*
X205631998Y-62578277D01*
X205632000Y-62578277D01*
X205632002Y-62578277D01*
X205660254Y-62575805D01*
X205849977Y-62559207D01*
X206061330Y-62502575D01*
X206205992Y-62435117D01*
X206258397Y-62423500D01*
X207649419Y-62423500D01*
X207649425Y-62423500D01*
X207806218Y-62408528D01*
X207887566Y-62384642D01*
X207957433Y-62384642D01*
X208016212Y-62422416D01*
X208045237Y-62485971D01*
X208046499Y-62503619D01*
X208046499Y-63318021D01*
X208046060Y-63325391D01*
X208044565Y-63337885D01*
X208044146Y-63340803D01*
X208031312Y-63417122D01*
X208031311Y-63417137D01*
X208031727Y-63434644D01*
X208030886Y-63452299D01*
X208028808Y-63469684D01*
X208028808Y-63469694D01*
X208034329Y-63546903D01*
X208034470Y-63549849D01*
X208036313Y-63627244D01*
X208036313Y-63627246D01*
X208040033Y-63644345D01*
X208042550Y-63661855D01*
X208043799Y-63679327D01*
X208063840Y-63754121D01*
X208064536Y-63756988D01*
X208080984Y-63832603D01*
X208080986Y-63832608D01*
X208080987Y-63832612D01*
X208087879Y-63848706D01*
X208093662Y-63865418D01*
X208098193Y-63882326D01*
X208098194Y-63882330D01*
X208098196Y-63882335D01*
X208132024Y-63951973D01*
X208133249Y-63954656D01*
X208163720Y-64025811D01*
X208173532Y-64040308D01*
X208182370Y-64055615D01*
X208190029Y-64071381D01*
X208190030Y-64071383D01*
X208236434Y-64133371D01*
X208238129Y-64135750D01*
X208270646Y-64183794D01*
X208281520Y-64199861D01*
X208281526Y-64199868D01*
X208283533Y-64201875D01*
X208301390Y-64224457D01*
X208313661Y-64244351D01*
X208435651Y-64366341D01*
X208455535Y-64378605D01*
X208478122Y-64396464D01*
X208492895Y-64411237D01*
X208492906Y-64411247D01*
X208501321Y-64418196D01*
X208504627Y-64421130D01*
X208550622Y-64464986D01*
X208550624Y-64464987D01*
X208580766Y-64484358D01*
X208586726Y-64488711D01*
X208614352Y-64511521D01*
X208614353Y-64511521D01*
X208614355Y-64511523D01*
X208646516Y-64529084D01*
X208670140Y-64541984D01*
X208673947Y-64544243D01*
X208699136Y-64560431D01*
X208727428Y-64578613D01*
X208760691Y-64591929D01*
X208767369Y-64595075D01*
X208798817Y-64612247D01*
X208859390Y-64631609D01*
X208863506Y-64633089D01*
X208922543Y-64656725D01*
X208957729Y-64663506D01*
X208964874Y-64665330D01*
X208999008Y-64676242D01*
X209043912Y-64681610D01*
X209062123Y-64683788D01*
X209066497Y-64684469D01*
X209128915Y-64696500D01*
X209164752Y-64696500D01*
X209172118Y-64696939D01*
X209176118Y-64697417D01*
X209207691Y-64701192D01*
X209271086Y-64696657D01*
X209275509Y-64696500D01*
X210071183Y-64696500D01*
X210138222Y-64716185D01*
X210183977Y-64768989D01*
X210194541Y-64833104D01*
X210190500Y-64872650D01*
X210190500Y-65419337D01*
X210190501Y-65419355D01*
X210200650Y-65518707D01*
X210200651Y-65518710D01*
X210253996Y-65679694D01*
X210254001Y-65679705D01*
X210343029Y-65824040D01*
X210343032Y-65824044D01*
X210395180Y-65876192D01*
X210428665Y-65937515D01*
X210431499Y-65963873D01*
X210431499Y-66643301D01*
X210423682Y-66686631D01*
X210412909Y-66715516D01*
X210412908Y-66715520D01*
X210406501Y-66775116D01*
X210406501Y-66775123D01*
X210406500Y-66775136D01*
X210406500Y-67270870D01*
X210406501Y-67270876D01*
X210412908Y-67330483D01*
X210463202Y-67465328D01*
X210463206Y-67465335D01*
X210549452Y-67580544D01*
X210549455Y-67580547D01*
X210664664Y-67666793D01*
X210664671Y-67666797D01*
X210709618Y-67683561D01*
X210799517Y-67717091D01*
X210810272Y-67718247D01*
X210862987Y-67736542D01*
X210882478Y-67748789D01*
X210882480Y-67748790D01*
X211052737Y-67808366D01*
X211052743Y-67808367D01*
X211052745Y-67808368D01*
X211052746Y-67808368D01*
X211052750Y-67808369D01*
X211147419Y-67819035D01*
X211218043Y-67826992D01*
X211282456Y-67854058D01*
X211322011Y-67911653D01*
X211324149Y-67981490D01*
X211312823Y-68009946D01*
X211295803Y-68040906D01*
X211290822Y-68060307D01*
X211284521Y-68078710D01*
X211276562Y-68097102D01*
X211276561Y-68097105D01*
X211269271Y-68143127D01*
X211268087Y-68148846D01*
X211256501Y-68193972D01*
X211256499Y-68193984D01*
X211256499Y-68214020D01*
X211254973Y-68233411D01*
X211251840Y-68253194D01*
X211251840Y-68253195D01*
X211256225Y-68299583D01*
X211256500Y-68305421D01*
X211256500Y-69961546D01*
X211236815Y-70028585D01*
X211220181Y-70049227D01*
X206480226Y-74789181D01*
X206418903Y-74822666D01*
X206392545Y-74825500D01*
X206079663Y-74825500D01*
X206079644Y-74825501D01*
X205980292Y-74835650D01*
X205980289Y-74835651D01*
X205819305Y-74888996D01*
X205819294Y-74889001D01*
X205674959Y-74978029D01*
X205674955Y-74978032D01*
X205555032Y-75097955D01*
X205555029Y-75097959D01*
X205466001Y-75242294D01*
X205465996Y-75242305D01*
X205412651Y-75403290D01*
X205402500Y-75502647D01*
X205402500Y-75502655D01*
X205402500Y-75735090D01*
X205402501Y-75851500D01*
X205382817Y-75918539D01*
X205330013Y-75964294D01*
X205278501Y-75975500D01*
X198909737Y-75975500D01*
X198894120Y-75973776D01*
X198894093Y-75974062D01*
X198886331Y-75973327D01*
X198817203Y-75975500D01*
X198787650Y-75975500D01*
X198786929Y-75975590D01*
X198780757Y-75976369D01*
X198774945Y-75976826D01*
X198728372Y-75978290D01*
X198728369Y-75978291D01*
X198709126Y-75983881D01*
X198690083Y-75987825D01*
X198670204Y-75990336D01*
X198670203Y-75990337D01*
X198626878Y-76007490D01*
X198621352Y-76009382D01*
X198576608Y-76022383D01*
X198576604Y-76022385D01*
X198559365Y-76032580D01*
X198541898Y-76041137D01*
X198523269Y-76048512D01*
X198523267Y-76048513D01*
X198485564Y-76075906D01*
X198480682Y-76079112D01*
X198440580Y-76102828D01*
X198426408Y-76117000D01*
X198411623Y-76129628D01*
X198395412Y-76141407D01*
X198365709Y-76177310D01*
X198361777Y-76181631D01*
X196863208Y-77680199D01*
X196850951Y-77690020D01*
X196851134Y-77690241D01*
X196845123Y-77695213D01*
X196797772Y-77745636D01*
X196776889Y-77766518D01*
X196776877Y-77766532D01*
X196772621Y-77772017D01*
X196768837Y-77776447D01*
X196736937Y-77810418D01*
X196736936Y-77810420D01*
X196727284Y-77827976D01*
X196716610Y-77844226D01*
X196704329Y-77860061D01*
X196704324Y-77860068D01*
X196685815Y-77902838D01*
X196683245Y-77908084D01*
X196660803Y-77948906D01*
X196655822Y-77968307D01*
X196649521Y-77986710D01*
X196641562Y-78005102D01*
X196641561Y-78005105D01*
X196634271Y-78051127D01*
X196633087Y-78056846D01*
X196621501Y-78101972D01*
X196621500Y-78101982D01*
X196621500Y-78122016D01*
X196619973Y-78141416D01*
X196616839Y-78161194D01*
X196621224Y-78207580D01*
X196621499Y-78213417D01*
X196621499Y-79301609D01*
X196621500Y-80280500D01*
X196601815Y-80347539D01*
X196549012Y-80393294D01*
X196497500Y-80404500D01*
X195949036Y-80404500D01*
X195945292Y-80404387D01*
X195883397Y-80400643D01*
X195883390Y-80400643D01*
X195822402Y-80411819D01*
X195818701Y-80412382D01*
X195757125Y-80419860D01*
X195747642Y-80423456D01*
X195726038Y-80429478D01*
X195724535Y-80429754D01*
X195716065Y-80431306D01*
X195716063Y-80431307D01*
X195659527Y-80456752D01*
X195656069Y-80458184D01*
X195598069Y-80480182D01*
X195589724Y-80485942D01*
X195570183Y-80496964D01*
X195560941Y-80501123D01*
X195512128Y-80539365D01*
X195509111Y-80541585D01*
X195492475Y-80553068D01*
X195426120Y-80574950D01*
X195358468Y-80557484D01*
X195334355Y-80538698D01*
X195275839Y-80480182D01*
X195197598Y-80401941D01*
X195195064Y-80399250D01*
X195153929Y-80352817D01*
X195153928Y-80352816D01*
X195153924Y-80352812D01*
X195102896Y-80317591D01*
X195099887Y-80315377D01*
X195051060Y-80277124D01*
X195051055Y-80277120D01*
X195041813Y-80272961D01*
X195022266Y-80261936D01*
X195013931Y-80256183D01*
X195013932Y-80256183D01*
X195013930Y-80256182D01*
X194955941Y-80234189D01*
X194952490Y-80232759D01*
X194895930Y-80207304D01*
X194885946Y-80205474D01*
X194864343Y-80199451D01*
X194854874Y-80195860D01*
X194854870Y-80195859D01*
X194793313Y-80188384D01*
X194789612Y-80187821D01*
X194728608Y-80176642D01*
X194728603Y-80176642D01*
X194666697Y-80180387D01*
X194662952Y-80180500D01*
X191832624Y-80180500D01*
X191779377Y-80186965D01*
X191710453Y-80175504D01*
X191658668Y-80128600D01*
X191640461Y-80061144D01*
X191661614Y-79994553D01*
X191683408Y-79970944D01*
X191683078Y-79970588D01*
X191686476Y-79967434D01*
X191686479Y-79967433D01*
X191819191Y-79844293D01*
X191878801Y-79788985D01*
X191878801Y-79788983D01*
X191878805Y-79788981D01*
X192042386Y-79583857D01*
X192173568Y-79356643D01*
X192269420Y-79112416D01*
X192327802Y-78856630D01*
X192327803Y-78856620D01*
X192347408Y-78595004D01*
X192347408Y-78594995D01*
X192327803Y-78333379D01*
X192327802Y-78333374D01*
X192327802Y-78333370D01*
X192269420Y-78077584D01*
X192173568Y-77833357D01*
X192042386Y-77606143D01*
X191878805Y-77401019D01*
X191878804Y-77401018D01*
X191878801Y-77401014D01*
X191686479Y-77222567D01*
X191496640Y-77093137D01*
X191469704Y-77074772D01*
X191469701Y-77074771D01*
X191469699Y-77074769D01*
X191462698Y-77071398D01*
X191410838Y-77024575D01*
X191392500Y-76959678D01*
X191392500Y-75150321D01*
X191412185Y-75083282D01*
X191462699Y-75038601D01*
X191469704Y-75035228D01*
X191686479Y-74887433D01*
X191878805Y-74708981D01*
X192042386Y-74503857D01*
X192173568Y-74276643D01*
X192269420Y-74032416D01*
X192327802Y-73776630D01*
X192327803Y-73776620D01*
X192347408Y-73515004D01*
X192347408Y-73514995D01*
X192327803Y-73253379D01*
X192327802Y-73253374D01*
X192327802Y-73253370D01*
X192269420Y-72997584D01*
X192173568Y-72753357D01*
X192042386Y-72526143D01*
X191878805Y-72321019D01*
X191878803Y-72321017D01*
X191878799Y-72321012D01*
X191878796Y-72321009D01*
X191732159Y-72184950D01*
X191696404Y-72124922D01*
X191692500Y-72094052D01*
X191692500Y-70922580D01*
X191690542Y-70902071D01*
X191677528Y-70765782D01*
X191618316Y-70564125D01*
X191522011Y-70377318D01*
X191522009Y-70377316D01*
X191522008Y-70377313D01*
X191444944Y-70279319D01*
X191418976Y-70214454D01*
X191432198Y-70145847D01*
X191452671Y-70117097D01*
X191460986Y-70108378D01*
X191574613Y-69931572D01*
X191652725Y-69736457D01*
X191692500Y-69530085D01*
X191692500Y-68389500D01*
X191712185Y-68322461D01*
X191764989Y-68276706D01*
X191816500Y-68265500D01*
X192396419Y-68265500D01*
X192396425Y-68265500D01*
X192553218Y-68250528D01*
X192754875Y-68191316D01*
X192941682Y-68095011D01*
X193039681Y-68017942D01*
X193104543Y-67991976D01*
X193173150Y-68005198D01*
X193201898Y-68025669D01*
X193210620Y-68033985D01*
X193305575Y-68095009D01*
X193387428Y-68147613D01*
X193582543Y-68225725D01*
X193656396Y-68239959D01*
X193788914Y-68265500D01*
X193788915Y-68265500D01*
X195245603Y-68265500D01*
X195298007Y-68277117D01*
X195442670Y-68344575D01*
X195654023Y-68401207D01*
X195836926Y-68417208D01*
X195871998Y-68420277D01*
X195872000Y-68420277D01*
X195872002Y-68420277D01*
X195900254Y-68417805D01*
X196089977Y-68401207D01*
X196301330Y-68344575D01*
X196499639Y-68252102D01*
X196678877Y-68126598D01*
X196833598Y-67971877D01*
X196959102Y-67792639D01*
X197051575Y-67594330D01*
X197108207Y-67382977D01*
X197127277Y-67165000D01*
X199496723Y-67165000D01*
X199511200Y-67330483D01*
X199515793Y-67382975D01*
X199515793Y-67382979D01*
X199572422Y-67594322D01*
X199572424Y-67594326D01*
X199572425Y-67594330D01*
X199606217Y-67666796D01*
X199639882Y-67738991D01*
X199651500Y-67791395D01*
X199651500Y-69223425D01*
X199666472Y-69380218D01*
X199725684Y-69581875D01*
X199775019Y-69677572D01*
X199821991Y-69768686D01*
X199951905Y-69933883D01*
X199951909Y-69933887D01*
X200110746Y-70071521D01*
X200292750Y-70176601D01*
X200292752Y-70176601D01*
X200292756Y-70176604D01*
X200491367Y-70245344D01*
X200699398Y-70275254D01*
X200909330Y-70265254D01*
X201113576Y-70215704D01*
X201266541Y-70145847D01*
X201304743Y-70128401D01*
X201304746Y-70128399D01*
X201304753Y-70128396D01*
X201475952Y-70006486D01*
X201496838Y-69984582D01*
X201620985Y-69854379D01*
X201638395Y-69827289D01*
X201734613Y-69677572D01*
X201812725Y-69482457D01*
X201852500Y-69276085D01*
X201852500Y-67791396D01*
X201864118Y-67738991D01*
X201872364Y-67721308D01*
X201931575Y-67594330D01*
X201988207Y-67382977D01*
X202007277Y-67165000D01*
X201988207Y-66947023D01*
X201942148Y-66775128D01*
X201931577Y-66735677D01*
X201931576Y-66735676D01*
X201931575Y-66735670D01*
X201864116Y-66591004D01*
X201852500Y-66538606D01*
X201852500Y-61949391D01*
X201864115Y-61896995D01*
X201931575Y-61752330D01*
X201988207Y-61540977D01*
X202007277Y-61323000D01*
X201988207Y-61105023D01*
X201931575Y-60893670D01*
X201839102Y-60695362D01*
X201839100Y-60695359D01*
X201839099Y-60695357D01*
X201713599Y-60516124D01*
X201651487Y-60454012D01*
X201558877Y-60361402D01*
X201417308Y-60262274D01*
X201379638Y-60235897D01*
X201280484Y-60189661D01*
X201181330Y-60143425D01*
X201181326Y-60143424D01*
X201181322Y-60143422D01*
X200969977Y-60086793D01*
X200752002Y-60067723D01*
X200751998Y-60067723D01*
X200606682Y-60080436D01*
X200534023Y-60086793D01*
X200534020Y-60086793D01*
X200322677Y-60143422D01*
X200322668Y-60143426D01*
X200124361Y-60235898D01*
X200124357Y-60235900D01*
X199945121Y-60361402D01*
X199790402Y-60516121D01*
X199664900Y-60695357D01*
X199664898Y-60695361D01*
X199572426Y-60893668D01*
X199572422Y-60893677D01*
X199515793Y-61105020D01*
X199515793Y-61105024D01*
X199496723Y-61322997D01*
X199496723Y-61323002D01*
X199515793Y-61540975D01*
X199515793Y-61540979D01*
X199572422Y-61752322D01*
X199572427Y-61752336D01*
X199639881Y-61896992D01*
X199651499Y-61949396D01*
X199651499Y-66538602D01*
X199639882Y-66591006D01*
X199572424Y-66735672D01*
X199572422Y-66735677D01*
X199515793Y-66947020D01*
X199515793Y-66947023D01*
X199496723Y-67165000D01*
X197127277Y-67165000D01*
X197108207Y-66947023D01*
X197062148Y-66775128D01*
X197051577Y-66735677D01*
X197051576Y-66735676D01*
X197051575Y-66735670D01*
X196959102Y-66537362D01*
X196959100Y-66537359D01*
X196959099Y-66537357D01*
X196833599Y-66358124D01*
X196771489Y-66296014D01*
X196678877Y-66203402D01*
X196528780Y-66098303D01*
X196499638Y-66077897D01*
X196400484Y-66031661D01*
X196301330Y-65985425D01*
X196301326Y-65985424D01*
X196301322Y-65985422D01*
X196089977Y-65928793D01*
X195872002Y-65909723D01*
X195871998Y-65909723D01*
X195726681Y-65922436D01*
X195654023Y-65928793D01*
X195654020Y-65928793D01*
X195442677Y-65985422D01*
X195442670Y-65985424D01*
X195442670Y-65985425D01*
X195311050Y-66046801D01*
X195298009Y-66052882D01*
X195245604Y-66064500D01*
X193841575Y-66064500D01*
X193701266Y-66077898D01*
X193684782Y-66079472D01*
X193684778Y-66079473D01*
X193483127Y-66138683D01*
X193296313Y-66234991D01*
X193198320Y-66312055D01*
X193133455Y-66338024D01*
X193064848Y-66324801D01*
X193036101Y-66304330D01*
X193027379Y-66296014D01*
X192850574Y-66182388D01*
X192834847Y-66176092D01*
X192655457Y-66104275D01*
X192655455Y-66104274D01*
X192449086Y-66064500D01*
X192449085Y-66064500D01*
X190874325Y-66064500D01*
X190856661Y-66063235D01*
X190849796Y-66062247D01*
X190829717Y-66057628D01*
X190826999Y-66056759D01*
X190826989Y-66056757D01*
X190735676Y-66045840D01*
X190714149Y-66042745D01*
X190644602Y-66032746D01*
X190644600Y-66032746D01*
X190644593Y-66032745D01*
X190641734Y-66032881D01*
X190621149Y-66032147D01*
X190618310Y-66031808D01*
X190618309Y-66031808D01*
X190526581Y-66038366D01*
X190526581Y-66038367D01*
X190434670Y-66042745D01*
X190431900Y-66043418D01*
X190411526Y-66046595D01*
X190409595Y-66046734D01*
X190408669Y-66046800D01*
X190408665Y-66046801D01*
X190341909Y-66064689D01*
X190319804Y-66070612D01*
X190230424Y-66092296D01*
X190230421Y-66092297D01*
X190230416Y-66092299D01*
X190227819Y-66093485D01*
X190208435Y-66100453D01*
X190205670Y-66101194D01*
X190205666Y-66101195D01*
X190199326Y-66104275D01*
X190122900Y-66141400D01*
X190094652Y-66154300D01*
X190067060Y-66166901D01*
X190060803Y-66169358D01*
X190040485Y-66176090D01*
X190040479Y-66176093D01*
X189893653Y-66266657D01*
X189771661Y-66388648D01*
X189754107Y-66417106D01*
X189738318Y-66437569D01*
X189723021Y-66453612D01*
X189723007Y-66453631D01*
X189721463Y-66456033D01*
X189708930Y-66472366D01*
X189706999Y-66474490D01*
X189706995Y-66474496D01*
X189659107Y-66553061D01*
X189609387Y-66630425D01*
X189608322Y-66633087D01*
X189599102Y-66651507D01*
X189597611Y-66653953D01*
X189597608Y-66653958D01*
X189565461Y-66740148D01*
X189531275Y-66825542D01*
X189531273Y-66825549D01*
X189530732Y-66828355D01*
X189525164Y-66848188D01*
X189524163Y-66850871D01*
X189524161Y-66850878D01*
X189515461Y-66902617D01*
X189508907Y-66941597D01*
X189494312Y-67017319D01*
X189491500Y-67031914D01*
X189491500Y-67034763D01*
X189489783Y-67055328D01*
X189489311Y-67058130D01*
X189489311Y-67058133D01*
X189489311Y-67058134D01*
X189491500Y-67150083D01*
X189491500Y-69477425D01*
X189506472Y-69634218D01*
X189565684Y-69835875D01*
X189642344Y-69984576D01*
X189661991Y-70022686D01*
X189739055Y-70120679D01*
X189765023Y-70185543D01*
X189751801Y-70254150D01*
X189731334Y-70282895D01*
X189723015Y-70291620D01*
X189723011Y-70291625D01*
X189609388Y-70468425D01*
X189531274Y-70663544D01*
X189491500Y-70869914D01*
X189491500Y-72094052D01*
X189471815Y-72161091D01*
X189451841Y-72184950D01*
X189305203Y-72321009D01*
X189305200Y-72321012D01*
X189141614Y-72526143D01*
X189010432Y-72753356D01*
X188914582Y-72997578D01*
X188914576Y-72997597D01*
X188856197Y-73253374D01*
X188856196Y-73253379D01*
X188839359Y-73478063D01*
X188814720Y-73543444D01*
X188758644Y-73585125D01*
X188688936Y-73589873D01*
X188627727Y-73556180D01*
X188607045Y-73528537D01*
X188604488Y-73523886D01*
X188604486Y-73523881D01*
X188577079Y-73486158D01*
X188573888Y-73481299D01*
X188571974Y-73478063D01*
X188550170Y-73441193D01*
X188550168Y-73441191D01*
X188550165Y-73441187D01*
X188536006Y-73427028D01*
X188523368Y-73412232D01*
X188511594Y-73396026D01*
X188475688Y-73366322D01*
X188471376Y-73362399D01*
X185160041Y-70051063D01*
X185126556Y-69989740D01*
X185131540Y-69920048D01*
X185173412Y-69864115D01*
X185183554Y-69857277D01*
X185322185Y-69773472D01*
X185442472Y-69653185D01*
X185530478Y-69507606D01*
X185581086Y-69345196D01*
X185587500Y-69274616D01*
X185587500Y-68611384D01*
X185581086Y-68540804D01*
X185530478Y-68378394D01*
X185442472Y-68232815D01*
X185442470Y-68232813D01*
X185442469Y-68232811D01*
X185322188Y-68112530D01*
X185296670Y-68097104D01*
X185176606Y-68024522D01*
X185014196Y-67973914D01*
X185014194Y-67973913D01*
X185014192Y-67973913D01*
X184964778Y-67969423D01*
X184943616Y-67967500D01*
X184430384Y-67967500D01*
X184411144Y-67969248D01*
X184359807Y-67973913D01*
X184197393Y-68024522D01*
X184051811Y-68112530D01*
X184051810Y-68112531D01*
X184047161Y-68117181D01*
X183985838Y-68150666D01*
X183959480Y-68153500D01*
X183796500Y-68153500D01*
X183729461Y-68133815D01*
X183683706Y-68081011D01*
X183672500Y-68029500D01*
X183672500Y-59196324D01*
X183692185Y-59129285D01*
X183731708Y-59090597D01*
X183871439Y-59004972D01*
X184054027Y-58849027D01*
X184209972Y-58666439D01*
X184335433Y-58461704D01*
X184427323Y-58239863D01*
X184483377Y-58006379D01*
X184502217Y-57767000D01*
X184483377Y-57527621D01*
X184427323Y-57294137D01*
X184375508Y-57169047D01*
X184335434Y-57072297D01*
X184209973Y-56867563D01*
X184209972Y-56867561D01*
X184054027Y-56684973D01*
X183871439Y-56529028D01*
X183871436Y-56529026D01*
X183666702Y-56403565D01*
X183444865Y-56311678D01*
X183444867Y-56311678D01*
X183444863Y-56311677D01*
X183444859Y-56311676D01*
X183444853Y-56311674D01*
X183211382Y-56255623D01*
X182972000Y-56236783D01*
X182732617Y-56255623D01*
X182499146Y-56311674D01*
X182499134Y-56311678D01*
X182277297Y-56403565D01*
X182072563Y-56529026D01*
X181889973Y-56684973D01*
X181734026Y-56867563D01*
X181608565Y-57072297D01*
X181516678Y-57294134D01*
X181516674Y-57294146D01*
X181460623Y-57527617D01*
X181441783Y-57766999D01*
X181460623Y-58006382D01*
X181516674Y-58239853D01*
X181516678Y-58239865D01*
X181608565Y-58461702D01*
X181724650Y-58651136D01*
X181734028Y-58666439D01*
X181889973Y-58849027D01*
X182072561Y-59004972D01*
X182212290Y-59090597D01*
X182259165Y-59142408D01*
X182271500Y-59196324D01*
X182271500Y-67954690D01*
X182251815Y-68021729D01*
X182242488Y-68033304D01*
X182242701Y-68033469D01*
X182237919Y-68039633D01*
X182154255Y-68181103D01*
X182154254Y-68181106D01*
X182108402Y-68338926D01*
X182108401Y-68338932D01*
X182105500Y-68375804D01*
X182105500Y-68869547D01*
X182085815Y-68936586D01*
X182033011Y-68982341D01*
X181963853Y-68992285D01*
X181900297Y-68963260D01*
X181893819Y-68957228D01*
X181842819Y-68906228D01*
X181809334Y-68844905D01*
X181806500Y-68818547D01*
X181806500Y-68375804D01*
X181803598Y-68338932D01*
X181803597Y-68338926D01*
X181767308Y-68214020D01*
X181757744Y-68181102D01*
X181674081Y-68039635D01*
X181674079Y-68039633D01*
X181674076Y-68039629D01*
X181557870Y-67923423D01*
X181557862Y-67923417D01*
X181461314Y-67866319D01*
X181416398Y-67839756D01*
X181416397Y-67839755D01*
X181416396Y-67839755D01*
X181416393Y-67839754D01*
X181258573Y-67793902D01*
X181258567Y-67793901D01*
X181221696Y-67791000D01*
X181221694Y-67791000D01*
X180790306Y-67791000D01*
X180790304Y-67791000D01*
X180753432Y-67793901D01*
X180753426Y-67793902D01*
X180595606Y-67839754D01*
X180595603Y-67839755D01*
X180454137Y-67923417D01*
X180454129Y-67923423D01*
X180337923Y-68039629D01*
X180337919Y-68039635D01*
X180313088Y-68081621D01*
X180262021Y-68129304D01*
X180206357Y-68142500D01*
X179911560Y-68142500D01*
X179846461Y-68123384D01*
X179846191Y-68123823D01*
X179844589Y-68122835D01*
X179844521Y-68122815D01*
X179844293Y-68122652D01*
X179695705Y-68031001D01*
X179695699Y-68030998D01*
X179695697Y-68030997D01*
X179667728Y-68021729D01*
X179534709Y-67977651D01*
X179435346Y-67967500D01*
X178888662Y-67967500D01*
X178888644Y-67967501D01*
X178789292Y-67977650D01*
X178789289Y-67977651D01*
X178628305Y-68030996D01*
X178628294Y-68031001D01*
X178483959Y-68120029D01*
X178483955Y-68120032D01*
X178364032Y-68239955D01*
X178364029Y-68239959D01*
X178275001Y-68384294D01*
X178274996Y-68384305D01*
X178221651Y-68545290D01*
X178211500Y-68644647D01*
X178211500Y-69241337D01*
X178211501Y-69241355D01*
X178221650Y-69340707D01*
X178221651Y-69340710D01*
X178274996Y-69501694D01*
X178275001Y-69501705D01*
X178364029Y-69646040D01*
X178364032Y-69646044D01*
X178483955Y-69765967D01*
X178483959Y-69765970D01*
X178628294Y-69854998D01*
X178628297Y-69854999D01*
X178628303Y-69855003D01*
X178789292Y-69908349D01*
X178888655Y-69918500D01*
X179435344Y-69918499D01*
X179435352Y-69918498D01*
X179435355Y-69918498D01*
X179489760Y-69912940D01*
X179534708Y-69908349D01*
X179695697Y-69855003D01*
X179777771Y-69804379D01*
X179846191Y-69762177D01*
X179847868Y-69764896D01*
X179899466Y-69744091D01*
X179911560Y-69743500D01*
X180193346Y-69743500D01*
X180260385Y-69763185D01*
X180300077Y-69804378D01*
X180318703Y-69835872D01*
X180337917Y-69868362D01*
X180337923Y-69868370D01*
X180454129Y-69984576D01*
X180454133Y-69984579D01*
X180454135Y-69984581D01*
X180595602Y-70068244D01*
X180637224Y-70080336D01*
X180753426Y-70114097D01*
X180753429Y-70114097D01*
X180753431Y-70114098D01*
X180765722Y-70115065D01*
X180790304Y-70117000D01*
X181188105Y-70117000D01*
X181255144Y-70136685D01*
X181300899Y-70189489D01*
X181310843Y-70258647D01*
X181290328Y-70306996D01*
X181291890Y-70307920D01*
X181204255Y-70456103D01*
X181204254Y-70456106D01*
X181158402Y-70613926D01*
X181158401Y-70613932D01*
X181155500Y-70650804D01*
X181155500Y-71807196D01*
X181158401Y-71844067D01*
X181158402Y-71844073D01*
X181204254Y-72001893D01*
X181204255Y-72001896D01*
X181254355Y-72086612D01*
X181287919Y-72143365D01*
X181294179Y-72149625D01*
X181327665Y-72210945D01*
X181330500Y-72237308D01*
X181330500Y-72546628D01*
X181310815Y-72613667D01*
X181283151Y-72644099D01*
X181262402Y-72660416D01*
X181256621Y-72664452D01*
X181215114Y-72690054D01*
X181147722Y-72708495D01*
X181081058Y-72687573D01*
X181058380Y-72668055D01*
X181055095Y-72664452D01*
X181018236Y-72624019D01*
X180944682Y-72568474D01*
X180840691Y-72489943D01*
X180840683Y-72489938D01*
X180641538Y-72390775D01*
X180641523Y-72390769D01*
X180427537Y-72329885D01*
X180427535Y-72329884D01*
X180309653Y-72318961D01*
X180261503Y-72314500D01*
X178407497Y-72314500D01*
X178362601Y-72318660D01*
X178241464Y-72329884D01*
X178241462Y-72329885D01*
X178027476Y-72390769D01*
X178027461Y-72390775D01*
X177828311Y-72489941D01*
X177737726Y-72558348D01*
X177672365Y-72583039D01*
X177604030Y-72568474D01*
X177588274Y-72558348D01*
X177497688Y-72489941D01*
X177298538Y-72390775D01*
X177298523Y-72390769D01*
X177084537Y-72329885D01*
X177084535Y-72329884D01*
X176966653Y-72318961D01*
X176918503Y-72314500D01*
X166914497Y-72314500D01*
X166862582Y-72319310D01*
X166748466Y-72329884D01*
X166590717Y-72374767D01*
X166556784Y-72379500D01*
X165562500Y-72379500D01*
X165495461Y-72359815D01*
X165449706Y-72307011D01*
X165438500Y-72255500D01*
X165438500Y-54327500D01*
X165458185Y-54260461D01*
X165510989Y-54214706D01*
X165562500Y-54203500D01*
X218542500Y-54203500D01*
X218609539Y-54223185D01*
G37*
%TD.AperFunction*%
%TA.AperFunction,Conductor*%
G36*
X218633366Y-63793577D02*
G01*
X218664559Y-63856097D01*
X218666500Y-63877953D01*
X218666500Y-72255500D01*
X218646815Y-72322539D01*
X218594011Y-72368294D01*
X218542500Y-72379500D01*
X215523629Y-72379500D01*
X215523623Y-72379501D01*
X215456395Y-72386728D01*
X215387636Y-72374321D01*
X215355461Y-72351119D01*
X214037428Y-71033086D01*
X214003943Y-70971763D01*
X214008927Y-70902071D01*
X214019571Y-70880307D01*
X214020965Y-70878046D01*
X214020968Y-70878044D01*
X214110003Y-70733697D01*
X214163349Y-70572708D01*
X214173500Y-70473345D01*
X214173499Y-69926656D01*
X214167110Y-69864115D01*
X214163349Y-69827292D01*
X214163348Y-69827289D01*
X214145515Y-69773472D01*
X214110003Y-69666303D01*
X214109999Y-69666297D01*
X214109998Y-69666294D01*
X214020970Y-69521959D01*
X214020969Y-69521958D01*
X214020968Y-69521956D01*
X213983995Y-69484983D01*
X213968817Y-69469804D01*
X213935333Y-69408480D01*
X213932500Y-69382124D01*
X213932500Y-68923211D01*
X213952185Y-68856172D01*
X214004989Y-68810417D01*
X214074147Y-68800473D01*
X214137703Y-68829498D01*
X214162039Y-68858115D01*
X214178031Y-68884043D01*
X214297955Y-69003967D01*
X214297959Y-69003970D01*
X214442294Y-69092998D01*
X214442297Y-69092999D01*
X214442303Y-69093003D01*
X214603292Y-69146349D01*
X214702655Y-69156500D01*
X215249344Y-69156499D01*
X215249352Y-69156498D01*
X215249355Y-69156498D01*
X215303760Y-69150940D01*
X215348708Y-69146349D01*
X215509697Y-69093003D01*
X215654044Y-69003968D01*
X215773968Y-68884044D01*
X215863003Y-68739697D01*
X215916349Y-68578708D01*
X215926500Y-68479345D01*
X215926499Y-67882656D01*
X215924034Y-67858529D01*
X215916349Y-67783292D01*
X215916348Y-67783289D01*
X215900858Y-67736543D01*
X215863003Y-67622303D01*
X215794960Y-67511989D01*
X215776500Y-67446893D01*
X215776500Y-67348952D01*
X215794963Y-67283853D01*
X215837001Y-67215701D01*
X215837001Y-67215699D01*
X215837003Y-67215697D01*
X215890349Y-67054708D01*
X215900500Y-66955345D01*
X215900499Y-66642451D01*
X215920183Y-66575413D01*
X215936809Y-66554780D01*
X216188773Y-66302816D01*
X216250095Y-66269334D01*
X216276453Y-66266500D01*
X216415508Y-66266500D01*
X216431128Y-66268224D01*
X216431155Y-66267939D01*
X216438911Y-66268671D01*
X216438918Y-66268673D01*
X216508065Y-66266500D01*
X216537601Y-66266500D01*
X216544479Y-66265630D01*
X216550292Y-66265172D01*
X216596878Y-66263709D01*
X216616120Y-66258117D01*
X216635163Y-66254174D01*
X216655043Y-66251664D01*
X216698373Y-66234507D01*
X216703897Y-66232617D01*
X216707647Y-66231527D01*
X216748641Y-66219618D01*
X216765880Y-66209422D01*
X216783354Y-66200862D01*
X216801978Y-66193488D01*
X216801978Y-66193487D01*
X216801983Y-66193486D01*
X216839700Y-66166082D01*
X216844556Y-66162892D01*
X216884671Y-66139170D01*
X216898840Y-66124999D01*
X216913630Y-66112368D01*
X216929838Y-66100594D01*
X216959550Y-66064676D01*
X216963463Y-66060376D01*
X217363285Y-65660554D01*
X217375541Y-65650738D01*
X217375358Y-65650516D01*
X217381375Y-65645538D01*
X217381374Y-65645538D01*
X217381377Y-65645537D01*
X217423356Y-65600834D01*
X217428727Y-65595115D01*
X217439171Y-65584669D01*
X217449620Y-65574222D01*
X217453879Y-65568729D01*
X217457652Y-65564312D01*
X217489562Y-65530333D01*
X217499215Y-65512771D01*
X217509889Y-65496521D01*
X217522173Y-65480687D01*
X217540680Y-65437918D01*
X217543249Y-65432675D01*
X217565696Y-65391844D01*
X217565697Y-65391843D01*
X217570677Y-65372442D01*
X217576978Y-65354039D01*
X217584938Y-65335647D01*
X217592230Y-65289600D01*
X217593411Y-65283903D01*
X217605000Y-65238770D01*
X217605000Y-65218734D01*
X217606527Y-65199333D01*
X217609660Y-65179555D01*
X217605275Y-65133166D01*
X217605000Y-65127328D01*
X217605000Y-64201951D01*
X217624685Y-64134912D01*
X217641315Y-64114274D01*
X217921771Y-63833817D01*
X217983094Y-63800333D01*
X218009452Y-63797499D01*
X218322338Y-63797499D01*
X218322344Y-63797499D01*
X218322352Y-63797498D01*
X218322355Y-63797498D01*
X218380533Y-63791555D01*
X218421708Y-63787349D01*
X218503497Y-63760246D01*
X218573324Y-63757845D01*
X218633366Y-63793577D01*
G37*
%TD.AperFunction*%
%TD*%
%TA.AperFunction,NonConductor*%
G36*
X214762532Y-64521048D02*
G01*
X214812786Y-64569590D01*
X214829000Y-64630894D01*
X214829000Y-65028696D01*
X214831901Y-65065567D01*
X214831902Y-65065573D01*
X214877754Y-65223393D01*
X214877755Y-65223396D01*
X214961417Y-65364862D01*
X214961423Y-65364870D01*
X215066372Y-65469819D01*
X215099857Y-65531142D01*
X215094873Y-65600834D01*
X215053001Y-65656767D01*
X214987537Y-65681184D01*
X214978691Y-65681500D01*
X214676663Y-65681500D01*
X214676644Y-65681501D01*
X214577292Y-65691650D01*
X214577289Y-65691651D01*
X214416305Y-65744996D01*
X214416294Y-65745001D01*
X214271959Y-65834029D01*
X214271955Y-65834032D01*
X214152032Y-65953955D01*
X214152029Y-65953959D01*
X214063001Y-66098294D01*
X214062995Y-66098307D01*
X214050008Y-66137503D01*
X214010236Y-66194948D01*
X213945721Y-66221772D01*
X213932302Y-66222500D01*
X213087039Y-66222500D01*
X212952750Y-66237630D01*
X212952737Y-66237633D01*
X212782478Y-66297210D01*
X212762983Y-66309459D01*
X212710275Y-66327752D01*
X212699518Y-66328908D01*
X212699513Y-66328910D01*
X212564671Y-66379202D01*
X212564664Y-66379206D01*
X212449455Y-66465452D01*
X212449452Y-66465455D01*
X212363206Y-66580664D01*
X212363202Y-66580671D01*
X212312908Y-66715517D01*
X212306501Y-66775116D01*
X212306501Y-66775123D01*
X212306500Y-66775135D01*
X212306500Y-66912546D01*
X212286815Y-66979585D01*
X212270181Y-67000227D01*
X212269180Y-67001228D01*
X212207857Y-67034713D01*
X212138165Y-67029729D01*
X212082232Y-66987857D01*
X212057815Y-66922393D01*
X212057499Y-66913547D01*
X212057499Y-66775129D01*
X212057498Y-66775123D01*
X212057497Y-66775117D01*
X212051091Y-66715517D01*
X212040317Y-66686632D01*
X212032500Y-66643300D01*
X212032500Y-66219617D01*
X212032500Y-65788630D01*
X212050961Y-65723538D01*
X212078003Y-65679697D01*
X212131349Y-65518708D01*
X212141500Y-65419345D01*
X212141499Y-65106451D01*
X212161183Y-65039413D01*
X212177813Y-65018776D01*
X212648456Y-64548133D01*
X212709778Y-64514650D01*
X212779470Y-64519634D01*
X212799256Y-64529084D01*
X212907850Y-64593305D01*
X212944102Y-64614744D01*
X212985724Y-64626836D01*
X213101926Y-64660597D01*
X213101929Y-64660597D01*
X213101931Y-64660598D01*
X213114222Y-64661565D01*
X213138804Y-64663500D01*
X213138806Y-64663500D01*
X214295196Y-64663500D01*
X214313631Y-64662049D01*
X214332069Y-64660598D01*
X214332071Y-64660597D01*
X214332073Y-64660597D01*
X214373691Y-64648505D01*
X214489898Y-64614744D01*
X214631365Y-64531081D01*
X214631364Y-64531081D01*
X214638080Y-64527110D01*
X214639157Y-64528931D01*
X214694012Y-64507382D01*
X214762532Y-64521048D01*
G37*
%TD.AperFunction*%
%TA.AperFunction,NonConductor*%
G36*
X184084974Y-70749185D02*
G01*
X184105616Y-70765819D01*
X184992695Y-71652899D01*
X185026180Y-71714222D01*
X185021196Y-71783914D01*
X184979324Y-71839847D01*
X184941565Y-71859071D01*
X184870671Y-71880939D01*
X184634303Y-71994767D01*
X184634302Y-71994768D01*
X184634296Y-71994771D01*
X184634296Y-71994772D01*
X184623847Y-72001896D01*
X184417520Y-72142567D01*
X184225197Y-72321017D01*
X184225194Y-72321019D01*
X184187878Y-72367813D01*
X184130689Y-72407953D01*
X184090931Y-72414500D01*
X182705500Y-72414500D01*
X182638461Y-72394815D01*
X182592706Y-72342011D01*
X182581500Y-72290500D01*
X182581500Y-72237308D01*
X182601185Y-72170269D01*
X182617818Y-72149627D01*
X182624081Y-72143365D01*
X182707744Y-72001898D01*
X182742887Y-71880937D01*
X182753597Y-71844073D01*
X182753598Y-71844067D01*
X182756500Y-71807196D01*
X182756500Y-70853500D01*
X182776185Y-70786461D01*
X182828989Y-70740706D01*
X182880500Y-70729500D01*
X184017935Y-70729500D01*
X184084974Y-70749185D01*
G37*
%TD.AperFunction*%
%TA.AperFunction,NonConductor*%
G36*
X205118996Y-77246185D02*
G01*
X205164751Y-77298989D01*
X205174695Y-77368147D01*
X205171033Y-77385096D01*
X205168902Y-77392429D01*
X205168901Y-77392432D01*
X205166000Y-77429304D01*
X205166000Y-77827104D01*
X205146315Y-77894143D01*
X205093511Y-77939898D01*
X205024353Y-77949842D01*
X204976002Y-77929330D01*
X204975080Y-77930890D01*
X204893599Y-77882702D01*
X204826898Y-77843256D01*
X204826897Y-77843255D01*
X204826896Y-77843255D01*
X204826893Y-77843254D01*
X204669073Y-77797402D01*
X204669067Y-77797401D01*
X204632196Y-77794500D01*
X204632194Y-77794500D01*
X203475806Y-77794500D01*
X203475804Y-77794500D01*
X203438932Y-77797401D01*
X203438926Y-77797402D01*
X203281106Y-77843254D01*
X203281103Y-77843255D01*
X203223652Y-77877232D01*
X203160531Y-77894500D01*
X202440460Y-77894500D01*
X202373421Y-77874815D01*
X202333073Y-77832500D01*
X202312809Y-77797402D01*
X202202386Y-77606143D01*
X202060171Y-77427811D01*
X202033764Y-77363126D01*
X202046520Y-77294431D01*
X202094390Y-77243537D01*
X202157119Y-77226500D01*
X205051957Y-77226500D01*
X205118996Y-77246185D01*
G37*
%TD.AperFunction*%
%TA.AperFunction,NonConductor*%
G36*
X188882703Y-73989987D02*
G01*
X188916927Y-74038397D01*
X189010432Y-74276643D01*
X189141614Y-74503857D01*
X189253447Y-74644091D01*
X189305198Y-74708985D01*
X189430773Y-74825500D01*
X189497521Y-74887433D01*
X189714296Y-75035228D01*
X189721300Y-75038601D01*
X189773159Y-75085420D01*
X189791500Y-75150321D01*
X189791500Y-76959678D01*
X189771815Y-77026717D01*
X189721302Y-77071398D01*
X189714300Y-77074769D01*
X189497520Y-77222567D01*
X189305198Y-77401014D01*
X189141614Y-77606143D01*
X189010432Y-77833356D01*
X188916928Y-78071601D01*
X188874112Y-78126815D01*
X188808242Y-78150116D01*
X188740232Y-78134105D01*
X188691673Y-78083867D01*
X188677500Y-78026299D01*
X188677500Y-74083700D01*
X188697185Y-74016661D01*
X188749989Y-73970906D01*
X188819147Y-73960962D01*
X188882703Y-73989987D01*
G37*
%TD.AperFunction*%
%TA.AperFunction,NonConductor*%
G36*
X190928996Y-94820671D02*
G01*
X190929920Y-94819110D01*
X190936635Y-94823081D01*
X191078102Y-94906744D01*
X191119724Y-94918836D01*
X191235926Y-94952597D01*
X191235929Y-94952597D01*
X191235931Y-94952598D01*
X191248222Y-94953565D01*
X191272804Y-94955500D01*
X191272806Y-94955500D01*
X191806046Y-94955500D01*
X192579046Y-94955500D01*
X192699379Y-94955500D01*
X192766418Y-94975185D01*
X192804918Y-95014404D01*
X192817031Y-95034043D01*
X192825807Y-95042819D01*
X192859292Y-95104142D01*
X192854308Y-95173834D01*
X192812436Y-95229767D01*
X192746972Y-95254184D01*
X192738126Y-95254500D01*
X191272804Y-95254500D01*
X191235932Y-95257401D01*
X191235926Y-95257402D01*
X191078106Y-95303254D01*
X191078103Y-95303255D01*
X190929920Y-95390890D01*
X190928845Y-95389073D01*
X190873948Y-95410620D01*
X190805432Y-95396931D01*
X190755194Y-95348373D01*
X190739000Y-95287104D01*
X190739000Y-94922895D01*
X190758685Y-94855856D01*
X190811489Y-94810101D01*
X190880647Y-94800157D01*
X190928996Y-94820671D01*
G37*
%TD.AperFunction*%
M02*
