%TF.GenerationSoftware,KiCad,Pcbnew,7.0.6-0*%
%TF.CreationDate,2023-12-30T17:19:21-06:00*%
%TF.ProjectId,MIXER_CORRELATOR,4d495845-525f-4434-9f52-52454c41544f,rev?*%
%TF.SameCoordinates,Original*%
%TF.FileFunction,Soldermask,Top*%
%TF.FilePolarity,Negative*%
%FSLAX46Y46*%
G04 Gerber Fmt 4.6, Leading zero omitted, Abs format (unit mm)*
G04 Created by KiCad (PCBNEW 7.0.6-0) date 2023-12-30 17:19:21*
%MOMM*%
%LPD*%
G01*
G04 APERTURE LIST*
G04 Aperture macros list*
%AMRoundRect*
0 Rectangle with rounded corners*
0 $1 Rounding radius*
0 $2 $3 $4 $5 $6 $7 $8 $9 X,Y pos of 4 corners*
0 Add a 4 corners polygon primitive as box body*
4,1,4,$2,$3,$4,$5,$6,$7,$8,$9,$2,$3,0*
0 Add four circle primitives for the rounded corners*
1,1,$1+$1,$2,$3*
1,1,$1+$1,$4,$5*
1,1,$1+$1,$6,$7*
1,1,$1+$1,$8,$9*
0 Add four rect primitives between the rounded corners*
20,1,$1+$1,$2,$3,$4,$5,0*
20,1,$1+$1,$4,$5,$6,$7,0*
20,1,$1+$1,$6,$7,$8,$9,0*
20,1,$1+$1,$8,$9,$2,$3,0*%
G04 Aperture macros list end*
%ADD10RoundRect,0.150000X0.512500X0.150000X-0.512500X0.150000X-0.512500X-0.150000X0.512500X-0.150000X0*%
%ADD11RoundRect,0.225000X-0.225000X-0.250000X0.225000X-0.250000X0.225000X0.250000X-0.225000X0.250000X0*%
%ADD12RoundRect,0.225000X-0.250000X0.225000X-0.250000X-0.225000X0.250000X-0.225000X0.250000X0.225000X0*%
%ADD13RoundRect,0.225000X0.250000X-0.225000X0.250000X0.225000X-0.250000X0.225000X-0.250000X-0.225000X0*%
%ADD14R,3.600000X1.270000*%
%ADD15R,4.200000X1.350000*%
%ADD16RoundRect,0.237500X-0.237500X0.287500X-0.237500X-0.287500X0.237500X-0.287500X0.237500X0.287500X0*%
%ADD17R,1.270000X3.600000*%
%ADD18R,1.350000X4.200000*%
%ADD19RoundRect,0.225000X0.225000X0.250000X-0.225000X0.250000X-0.225000X-0.250000X0.225000X-0.250000X0*%
%ADD20RoundRect,0.200000X0.200000X0.275000X-0.200000X0.275000X-0.200000X-0.275000X0.200000X-0.275000X0*%
%ADD21RoundRect,0.200000X-0.275000X0.200000X-0.275000X-0.200000X0.275000X-0.200000X0.275000X0.200000X0*%
%ADD22RoundRect,0.200000X0.275000X-0.200000X0.275000X0.200000X-0.275000X0.200000X-0.275000X-0.200000X0*%
%ADD23RoundRect,0.237500X-0.287500X-0.237500X0.287500X-0.237500X0.287500X0.237500X-0.287500X0.237500X0*%
%ADD24RoundRect,0.250000X1.025000X-0.787500X1.025000X0.787500X-1.025000X0.787500X-1.025000X-0.787500X0*%
%ADD25RoundRect,0.237500X0.237500X-0.287500X0.237500X0.287500X-0.237500X0.287500X-0.237500X-0.287500X0*%
%ADD26R,0.650000X0.400000*%
%ADD27RoundRect,0.200000X-0.200000X-0.275000X0.200000X-0.275000X0.200000X0.275000X-0.200000X0.275000X0*%
%ADD28RoundRect,0.237500X0.287500X0.237500X-0.287500X0.237500X-0.287500X-0.237500X0.287500X-0.237500X0*%
%ADD29RoundRect,0.197500X-0.197500X0.642500X-0.197500X-0.642500X0.197500X-0.642500X0.197500X0.642500X0*%
%ADD30R,2.000000X1.800000*%
%ADD31RoundRect,0.150000X-0.150000X0.587500X-0.150000X-0.587500X0.150000X-0.587500X0.150000X0.587500X0*%
%ADD32RoundRect,0.150000X-0.512500X-0.150000X0.512500X-0.150000X0.512500X0.150000X-0.512500X0.150000X0*%
%ADD33RoundRect,0.150000X-0.150000X0.512500X-0.150000X-0.512500X0.150000X-0.512500X0.150000X0.512500X0*%
%ADD34R,1.500000X2.000000*%
%ADD35R,3.800000X2.000000*%
%ADD36R,2.000000X1.500000*%
%ADD37R,2.000000X3.800000*%
%ADD38C,1.500000*%
%ADD39RoundRect,0.250000X-0.620000X-0.845000X0.620000X-0.845000X0.620000X0.845000X-0.620000X0.845000X0*%
%ADD40O,1.740000X2.190000*%
%ADD41C,2.500000*%
%ADD42C,2.050000*%
%ADD43C,2.250000*%
%ADD44R,1.800000X1.800000*%
%ADD45C,1.800000*%
G04 APERTURE END LIST*
D10*
%TO.C,Q2*%
X206329000Y-79545000D03*
X206329000Y-77645000D03*
X204054000Y-78595000D03*
%TD*%
D11*
%TO.C,C34*%
X204803000Y-75801000D03*
X206353000Y-75801000D03*
%TD*%
D12*
%TO.C,C11*%
X77500000Y-58200000D03*
X77500000Y-59750000D03*
%TD*%
D13*
%TO.C,C36*%
X190592000Y-70975000D03*
X190592000Y-69425000D03*
%TD*%
D14*
%TO.C,J14*%
X217371500Y-73515000D03*
D15*
X217171500Y-76340000D03*
X217171500Y-70690000D03*
%TD*%
D12*
%TO.C,C3*%
X51000000Y-56700000D03*
X51000000Y-58250000D03*
%TD*%
D13*
%TO.C,C38*%
X211166000Y-65146000D03*
X211166000Y-63596000D03*
%TD*%
D16*
%TO.C,L7*%
X209134000Y-63496000D03*
X209134000Y-65246000D03*
%TD*%
D11*
%TO.C,C49*%
X185232000Y-82405000D03*
X186782000Y-82405000D03*
%TD*%
D17*
%TO.C,J2*%
X63000000Y-52500000D03*
D18*
X65825000Y-52700000D03*
X60175000Y-52700000D03*
%TD*%
D19*
%TO.C,C42*%
X216500000Y-66657000D03*
X214950000Y-66657000D03*
%TD*%
D20*
%TO.C,R4*%
X188178000Y-97899000D03*
X186528000Y-97899000D03*
%TD*%
D21*
%TO.C,R5*%
X208118000Y-77961000D03*
X208118000Y-79611000D03*
%TD*%
D13*
%TO.C,C46*%
X209134000Y-95639000D03*
X209134000Y-94089000D03*
%TD*%
%TO.C,C43*%
X218024000Y-64397000D03*
X218024000Y-62847000D03*
%TD*%
D22*
%TO.C,R3*%
X195418000Y-94469000D03*
X195418000Y-92819000D03*
%TD*%
D23*
%TO.C,L5*%
X180206000Y-73515000D03*
X181956000Y-73515000D03*
%TD*%
D19*
%TO.C,C2*%
X45550000Y-70000000D03*
X44000000Y-70000000D03*
%TD*%
D24*
%TO.C,C15*%
X72750000Y-73862500D03*
X72750000Y-67637500D03*
%TD*%
%TO.C,C48*%
X175352000Y-89392000D03*
X175352000Y-83167000D03*
%TD*%
D14*
%TO.C,J1*%
X39462500Y-60000000D03*
D15*
X39662500Y-57175000D03*
X39662500Y-62825000D03*
%TD*%
D25*
%TO.C,L6*%
X190592000Y-67137000D03*
X190592000Y-65387000D03*
%TD*%
D12*
%TO.C,C8*%
X69500000Y-59975000D03*
X69500000Y-61525000D03*
%TD*%
D23*
%TO.C,L2*%
X56000000Y-61500000D03*
X57750000Y-61500000D03*
%TD*%
D26*
%TO.C,U4*%
X75600000Y-61450000D03*
X75600000Y-62750000D03*
X77500000Y-62750000D03*
X77500000Y-61450000D03*
%TD*%
D12*
%TO.C,C10*%
X79250000Y-58200000D03*
X79250000Y-59750000D03*
%TD*%
D16*
%TO.C,L4*%
X173955000Y-73543000D03*
X173955000Y-75293000D03*
%TD*%
D12*
%TO.C,C14*%
X67000000Y-56450000D03*
X67000000Y-58000000D03*
%TD*%
D19*
%TO.C,C41*%
X216526000Y-68181000D03*
X214976000Y-68181000D03*
%TD*%
D21*
%TO.C,R8*%
X202784000Y-88883000D03*
X202784000Y-90533000D03*
%TD*%
D20*
%TO.C,R9*%
X206149000Y-90533000D03*
X204499000Y-90533000D03*
%TD*%
D27*
%TO.C,R7*%
X210786000Y-57767000D03*
X212436000Y-57767000D03*
%TD*%
D24*
%TO.C,C47*%
X175352000Y-98471500D03*
X175352000Y-92246500D03*
%TD*%
D14*
%TO.C,J3*%
X86037500Y-62750000D03*
D15*
X85837500Y-65575000D03*
X85837500Y-59925000D03*
%TD*%
D28*
%TO.C,L1*%
X54250000Y-63250000D03*
X52500000Y-63250000D03*
%TD*%
D26*
%TO.C,U11*%
X193518000Y-81613000D03*
X193518000Y-82913000D03*
X195418000Y-82913000D03*
X195418000Y-81613000D03*
%TD*%
D13*
%TO.C,C44*%
X213198000Y-71750000D03*
X213198000Y-70200000D03*
%TD*%
D29*
%TO.C,U1*%
X46500000Y-60030000D03*
X43960000Y-60030000D03*
X43960000Y-63250000D03*
X46500000Y-63250000D03*
%TD*%
D12*
%TO.C,C40*%
X200752000Y-69171000D03*
X200752000Y-70721000D03*
%TD*%
D30*
%TO.C,X1*%
X215484000Y-95613000D03*
X215484000Y-90533000D03*
X211484000Y-90533000D03*
X211484000Y-95613000D03*
%TD*%
D20*
%TO.C,R6*%
X186337000Y-68943000D03*
X184687000Y-68943000D03*
%TD*%
D11*
%TO.C,C32*%
X193868000Y-96121000D03*
X195418000Y-96121000D03*
%TD*%
D31*
%TO.C,Q1*%
X48400000Y-66000000D03*
X46500000Y-66000000D03*
X47450000Y-67875000D03*
%TD*%
D19*
%TO.C,C12*%
X81775000Y-62750000D03*
X80225000Y-62750000D03*
%TD*%
D11*
%TO.C,C28*%
X176863000Y-73515000D03*
X178413000Y-73515000D03*
%TD*%
D19*
%TO.C,C31*%
X198720000Y-81389000D03*
X197170000Y-81389000D03*
%TD*%
%TO.C,C39*%
X209147000Y-61323000D03*
X207597000Y-61323000D03*
%TD*%
D25*
%TO.C,L3*%
X67750000Y-61500000D03*
X67750000Y-59750000D03*
%TD*%
D11*
%TO.C,C45*%
X207584000Y-90533000D03*
X209134000Y-90533000D03*
%TD*%
D13*
%TO.C,C7*%
X63000000Y-57775000D03*
X63000000Y-56225000D03*
%TD*%
D10*
%TO.C,Q4*%
X215992000Y-64813000D03*
X215992000Y-62913000D03*
X213717000Y-63863000D03*
%TD*%
D32*
%TO.C,U13*%
X189576000Y-94155000D03*
X189576000Y-95105000D03*
X189576000Y-96055000D03*
X191851000Y-96055000D03*
X191851000Y-94155000D03*
%TD*%
D12*
%TO.C,C27*%
X171796000Y-73489000D03*
X171796000Y-75039000D03*
%TD*%
D26*
%TO.C,U2*%
X49250000Y-60000000D03*
X49250000Y-61300000D03*
X51150000Y-61300000D03*
X51150000Y-60000000D03*
%TD*%
D27*
%TO.C,R1*%
X47350000Y-70000000D03*
X49000000Y-70000000D03*
%TD*%
D33*
%TO.C,Q3*%
X182906000Y-68954000D03*
X181006000Y-68954000D03*
X181956000Y-71229000D03*
%TD*%
D19*
%TO.C,C5*%
X54275000Y-61500000D03*
X52725000Y-61500000D03*
%TD*%
%TO.C,C6*%
X61050000Y-61500000D03*
X59500000Y-61500000D03*
%TD*%
D14*
%TO.C,J9*%
X166970000Y-73515000D03*
D15*
X167170000Y-70690000D03*
X167170000Y-76340000D03*
%TD*%
D11*
%TO.C,C37*%
X192344000Y-67165000D03*
X193894000Y-67165000D03*
%TD*%
D12*
%TO.C,C33*%
X193640000Y-92806000D03*
X193640000Y-94356000D03*
%TD*%
D19*
%TO.C,C9*%
X73050000Y-61500000D03*
X71500000Y-61500000D03*
%TD*%
D11*
%TO.C,C30*%
X188039000Y-80881000D03*
X189589000Y-80881000D03*
%TD*%
D24*
%TO.C,C16*%
X56750000Y-73862500D03*
X56750000Y-67637500D03*
%TD*%
D13*
%TO.C,C1*%
X50250000Y-67550000D03*
X50250000Y-66000000D03*
%TD*%
D34*
%TO.C,U15*%
X171556000Y-86875000D03*
X169256000Y-86875000D03*
D35*
X169256000Y-93175000D03*
D34*
X166956000Y-86875000D03*
%TD*%
D13*
%TO.C,C29*%
X200752000Y-82913000D03*
X200752000Y-81363000D03*
%TD*%
D12*
%TO.C,C13*%
X65250000Y-56475000D03*
X65250000Y-58025000D03*
%TD*%
D11*
%TO.C,C35*%
X177612000Y-68943000D03*
X179162000Y-68943000D03*
%TD*%
D26*
%TO.C,U14*%
X211232000Y-67023000D03*
X211232000Y-68323000D03*
X213132000Y-68323000D03*
X213132000Y-67023000D03*
%TD*%
D36*
%TO.C,U5*%
X67650000Y-73800000D03*
X67650000Y-71500000D03*
D37*
X61350000Y-71500000D03*
D36*
X67650000Y-69200000D03*
%TD*%
D32*
%TO.C,U3*%
X63000000Y-59600000D03*
X63000000Y-60550000D03*
X63000000Y-61500000D03*
X65275000Y-61500000D03*
X65275000Y-60550000D03*
X65275000Y-59600000D03*
%TD*%
D12*
%TO.C,C4*%
X52750000Y-56700000D03*
X52750000Y-58250000D03*
%TD*%
D38*
%TO.C,Y3*%
X195872000Y-67165000D03*
X200752000Y-67165000D03*
%TD*%
D39*
%TO.C,J15*%
X167986000Y-98407000D03*
D40*
X170526000Y-98407000D03*
%TD*%
D41*
%TO.C,U12*%
X200498000Y-90533000D03*
X200498000Y-85453000D03*
X195418000Y-90533000D03*
X195418000Y-85453000D03*
X190338000Y-90533000D03*
X190338000Y-85453000D03*
X185258000Y-90533000D03*
X185258000Y-85453000D03*
%TD*%
D42*
%TO.C,J10*%
X182972000Y-97899000D03*
D43*
X185512000Y-100439000D03*
X185512000Y-95359000D03*
X180432000Y-100439000D03*
X180432000Y-95359000D03*
%TD*%
D41*
%TO.C,U10*%
X185512000Y-73515000D03*
X185512000Y-78595000D03*
X190592000Y-73515000D03*
X190592000Y-78595000D03*
X195672000Y-73515000D03*
X195672000Y-78595000D03*
X200752000Y-73515000D03*
X200752000Y-78595000D03*
%TD*%
D44*
%TO.C,D3*%
X171542000Y-80373000D03*
D45*
X171542000Y-82913000D03*
%TD*%
D42*
%TO.C,J13*%
X214468000Y-57767000D03*
D43*
X217008000Y-60307000D03*
X217008000Y-55227000D03*
X211928000Y-60307000D03*
X211928000Y-55227000D03*
%TD*%
D44*
%TO.C,D1*%
X51000000Y-70725000D03*
D45*
X51000000Y-73265000D03*
%TD*%
D38*
%TO.C,Y4*%
X205632000Y-61323000D03*
X200752000Y-61323000D03*
%TD*%
D42*
%TO.C,J11*%
X214468000Y-82913000D03*
D43*
X217008000Y-85453000D03*
X217008000Y-80373000D03*
X211928000Y-85453000D03*
X211928000Y-80373000D03*
%TD*%
D42*
%TO.C,J12*%
X182972000Y-57767000D03*
D43*
X185512000Y-60307000D03*
X185512000Y-55227000D03*
X180432000Y-60307000D03*
X180432000Y-55227000D03*
%TD*%
D39*
%TO.C,J4*%
X78250000Y-71750000D03*
D40*
X80790000Y-71750000D03*
%TD*%
M02*
