%TF.GenerationSoftware,KiCad,Pcbnew,7.0.6-0*%
%TF.CreationDate,2023-12-30T17:19:21-06:00*%
%TF.ProjectId,MIXER_CORRELATOR,4d495845-525f-4434-9f52-52454c41544f,rev?*%
%TF.SameCoordinates,Original*%
%TF.FileFunction,Profile,NP*%
%FSLAX46Y46*%
G04 Gerber Fmt 4.6, Leading zero omitted, Abs format (unit mm)*
G04 Created by KiCad (PCBNEW 7.0.6-0) date 2023-12-30 17:19:21*
%MOMM*%
%LPD*%
G01*
G04 APERTURE LIST*
%TA.AperFunction,Profile*%
%ADD10C,0.150000*%
%TD*%
%ADD11C,0.150000*%
G04 APERTURE END LIST*
D10*
X37400000Y-50525000D02*
X87900000Y-50525000D01*
X87900000Y-76525000D01*
X37400000Y-76525000D01*
X37400000Y-50525000D01*
X164938000Y-53703000D02*
X219167000Y-53703000D01*
X219167000Y-101963000D01*
X164938000Y-101963000D01*
X164938000Y-53703000D01*
D11*
X102505057Y-68144046D02*
X102457438Y-68096427D01*
X102457438Y-68096427D02*
X102409819Y-68001189D01*
X102409819Y-68001189D02*
X102409819Y-67763094D01*
X102409819Y-67763094D02*
X102457438Y-67667856D01*
X102457438Y-67667856D02*
X102505057Y-67620237D01*
X102505057Y-67620237D02*
X102600295Y-67572618D01*
X102600295Y-67572618D02*
X102695533Y-67572618D01*
X102695533Y-67572618D02*
X102838390Y-67620237D01*
X102838390Y-67620237D02*
X103409819Y-68191665D01*
X103409819Y-68191665D02*
X103409819Y-67572618D01*
X102409819Y-66715475D02*
X102409819Y-66905951D01*
X102409819Y-66905951D02*
X102457438Y-67001189D01*
X102457438Y-67001189D02*
X102505057Y-67048808D01*
X102505057Y-67048808D02*
X102647914Y-67144046D01*
X102647914Y-67144046D02*
X102838390Y-67191665D01*
X102838390Y-67191665D02*
X103219342Y-67191665D01*
X103219342Y-67191665D02*
X103314580Y-67144046D01*
X103314580Y-67144046D02*
X103362200Y-67096427D01*
X103362200Y-67096427D02*
X103409819Y-67001189D01*
X103409819Y-67001189D02*
X103409819Y-66810713D01*
X103409819Y-66810713D02*
X103362200Y-66715475D01*
X103362200Y-66715475D02*
X103314580Y-66667856D01*
X103314580Y-66667856D02*
X103219342Y-66620237D01*
X103219342Y-66620237D02*
X102981247Y-66620237D01*
X102981247Y-66620237D02*
X102886009Y-66667856D01*
X102886009Y-66667856D02*
X102838390Y-66715475D01*
X102838390Y-66715475D02*
X102790771Y-66810713D01*
X102790771Y-66810713D02*
X102790771Y-67001189D01*
X102790771Y-67001189D02*
X102838390Y-67096427D01*
X102838390Y-67096427D02*
X102886009Y-67144046D01*
X102886009Y-67144046D02*
X102981247Y-67191665D01*
X103314580Y-66191665D02*
X103362200Y-66144046D01*
X103362200Y-66144046D02*
X103409819Y-66191665D01*
X103409819Y-66191665D02*
X103362200Y-66239284D01*
X103362200Y-66239284D02*
X103314580Y-66191665D01*
X103314580Y-66191665D02*
X103409819Y-66191665D01*
X102409819Y-65524999D02*
X102409819Y-65429761D01*
X102409819Y-65429761D02*
X102457438Y-65334523D01*
X102457438Y-65334523D02*
X102505057Y-65286904D01*
X102505057Y-65286904D02*
X102600295Y-65239285D01*
X102600295Y-65239285D02*
X102790771Y-65191666D01*
X102790771Y-65191666D02*
X103028866Y-65191666D01*
X103028866Y-65191666D02*
X103219342Y-65239285D01*
X103219342Y-65239285D02*
X103314580Y-65286904D01*
X103314580Y-65286904D02*
X103362200Y-65334523D01*
X103362200Y-65334523D02*
X103409819Y-65429761D01*
X103409819Y-65429761D02*
X103409819Y-65524999D01*
X103409819Y-65524999D02*
X103362200Y-65620237D01*
X103362200Y-65620237D02*
X103314580Y-65667856D01*
X103314580Y-65667856D02*
X103219342Y-65715475D01*
X103219342Y-65715475D02*
X103028866Y-65763094D01*
X103028866Y-65763094D02*
X102790771Y-65763094D01*
X102790771Y-65763094D02*
X102600295Y-65715475D01*
X102600295Y-65715475D02*
X102505057Y-65667856D01*
X102505057Y-65667856D02*
X102457438Y-65620237D01*
X102457438Y-65620237D02*
X102409819Y-65524999D01*
X102409819Y-64572618D02*
X102409819Y-64477380D01*
X102409819Y-64477380D02*
X102457438Y-64382142D01*
X102457438Y-64382142D02*
X102505057Y-64334523D01*
X102505057Y-64334523D02*
X102600295Y-64286904D01*
X102600295Y-64286904D02*
X102790771Y-64239285D01*
X102790771Y-64239285D02*
X103028866Y-64239285D01*
X103028866Y-64239285D02*
X103219342Y-64286904D01*
X103219342Y-64286904D02*
X103314580Y-64334523D01*
X103314580Y-64334523D02*
X103362200Y-64382142D01*
X103362200Y-64382142D02*
X103409819Y-64477380D01*
X103409819Y-64477380D02*
X103409819Y-64572618D01*
X103409819Y-64572618D02*
X103362200Y-64667856D01*
X103362200Y-64667856D02*
X103314580Y-64715475D01*
X103314580Y-64715475D02*
X103219342Y-64763094D01*
X103219342Y-64763094D02*
X103028866Y-64810713D01*
X103028866Y-64810713D02*
X102790771Y-64810713D01*
X102790771Y-64810713D02*
X102600295Y-64763094D01*
X102600295Y-64763094D02*
X102505057Y-64715475D01*
X102505057Y-64715475D02*
X102457438Y-64667856D01*
X102457438Y-64667856D02*
X102409819Y-64572618D01*
X102409819Y-63620237D02*
X102409819Y-63524999D01*
X102409819Y-63524999D02*
X102457438Y-63429761D01*
X102457438Y-63429761D02*
X102505057Y-63382142D01*
X102505057Y-63382142D02*
X102600295Y-63334523D01*
X102600295Y-63334523D02*
X102790771Y-63286904D01*
X102790771Y-63286904D02*
X103028866Y-63286904D01*
X103028866Y-63286904D02*
X103219342Y-63334523D01*
X103219342Y-63334523D02*
X103314580Y-63382142D01*
X103314580Y-63382142D02*
X103362200Y-63429761D01*
X103362200Y-63429761D02*
X103409819Y-63524999D01*
X103409819Y-63524999D02*
X103409819Y-63620237D01*
X103409819Y-63620237D02*
X103362200Y-63715475D01*
X103362200Y-63715475D02*
X103314580Y-63763094D01*
X103314580Y-63763094D02*
X103219342Y-63810713D01*
X103219342Y-63810713D02*
X103028866Y-63858332D01*
X103028866Y-63858332D02*
X102790771Y-63858332D01*
X102790771Y-63858332D02*
X102600295Y-63810713D01*
X102600295Y-63810713D02*
X102505057Y-63763094D01*
X102505057Y-63763094D02*
X102457438Y-63715475D01*
X102457438Y-63715475D02*
X102409819Y-63620237D01*
X102409819Y-62667856D02*
X102409819Y-62572618D01*
X102409819Y-62572618D02*
X102457438Y-62477380D01*
X102457438Y-62477380D02*
X102505057Y-62429761D01*
X102505057Y-62429761D02*
X102600295Y-62382142D01*
X102600295Y-62382142D02*
X102790771Y-62334523D01*
X102790771Y-62334523D02*
X103028866Y-62334523D01*
X103028866Y-62334523D02*
X103219342Y-62382142D01*
X103219342Y-62382142D02*
X103314580Y-62429761D01*
X103314580Y-62429761D02*
X103362200Y-62477380D01*
X103362200Y-62477380D02*
X103409819Y-62572618D01*
X103409819Y-62572618D02*
X103409819Y-62667856D01*
X103409819Y-62667856D02*
X103362200Y-62763094D01*
X103362200Y-62763094D02*
X103314580Y-62810713D01*
X103314580Y-62810713D02*
X103219342Y-62858332D01*
X103219342Y-62858332D02*
X103028866Y-62905951D01*
X103028866Y-62905951D02*
X102790771Y-62905951D01*
X102790771Y-62905951D02*
X102600295Y-62858332D01*
X102600295Y-62858332D02*
X102505057Y-62810713D01*
X102505057Y-62810713D02*
X102457438Y-62763094D01*
X102457438Y-62763094D02*
X102409819Y-62667856D01*
X103409819Y-61144046D02*
X102743152Y-61144046D01*
X102838390Y-61144046D02*
X102790771Y-61096427D01*
X102790771Y-61096427D02*
X102743152Y-61001189D01*
X102743152Y-61001189D02*
X102743152Y-60858332D01*
X102743152Y-60858332D02*
X102790771Y-60763094D01*
X102790771Y-60763094D02*
X102886009Y-60715475D01*
X102886009Y-60715475D02*
X103409819Y-60715475D01*
X102886009Y-60715475D02*
X102790771Y-60667856D01*
X102790771Y-60667856D02*
X102743152Y-60572618D01*
X102743152Y-60572618D02*
X102743152Y-60429761D01*
X102743152Y-60429761D02*
X102790771Y-60334522D01*
X102790771Y-60334522D02*
X102886009Y-60286903D01*
X102886009Y-60286903D02*
X103409819Y-60286903D01*
X103409819Y-59810713D02*
X102743152Y-59810713D01*
X102838390Y-59810713D02*
X102790771Y-59763094D01*
X102790771Y-59763094D02*
X102743152Y-59667856D01*
X102743152Y-59667856D02*
X102743152Y-59524999D01*
X102743152Y-59524999D02*
X102790771Y-59429761D01*
X102790771Y-59429761D02*
X102886009Y-59382142D01*
X102886009Y-59382142D02*
X103409819Y-59382142D01*
X102886009Y-59382142D02*
X102790771Y-59334523D01*
X102790771Y-59334523D02*
X102743152Y-59239285D01*
X102743152Y-59239285D02*
X102743152Y-59096428D01*
X102743152Y-59096428D02*
X102790771Y-59001189D01*
X102790771Y-59001189D02*
X102886009Y-58953570D01*
X102886009Y-58953570D02*
X103409819Y-58953570D01*
D10*
X88400000Y-76525000D02*
X104691420Y-76525000D01*
X88400000Y-50525000D02*
X104691420Y-50525000D01*
X104105000Y-76525000D02*
X104105000Y-50525000D01*
X104105000Y-76525000D02*
X104105000Y-50525000D01*
X104105000Y-76525000D02*
X103518579Y-75398496D01*
X104105000Y-76525000D02*
X104691421Y-75398496D01*
X104105000Y-50525000D02*
X104691421Y-51651504D01*
X104105000Y-50525000D02*
X103518579Y-51651504D01*
D11*
X58554762Y-79439819D02*
X58078572Y-79439819D01*
X58078572Y-79439819D02*
X58030953Y-79916009D01*
X58030953Y-79916009D02*
X58078572Y-79868390D01*
X58078572Y-79868390D02*
X58173810Y-79820771D01*
X58173810Y-79820771D02*
X58411905Y-79820771D01*
X58411905Y-79820771D02*
X58507143Y-79868390D01*
X58507143Y-79868390D02*
X58554762Y-79916009D01*
X58554762Y-79916009D02*
X58602381Y-80011247D01*
X58602381Y-80011247D02*
X58602381Y-80249342D01*
X58602381Y-80249342D02*
X58554762Y-80344580D01*
X58554762Y-80344580D02*
X58507143Y-80392200D01*
X58507143Y-80392200D02*
X58411905Y-80439819D01*
X58411905Y-80439819D02*
X58173810Y-80439819D01*
X58173810Y-80439819D02*
X58078572Y-80392200D01*
X58078572Y-80392200D02*
X58030953Y-80344580D01*
X59221429Y-79439819D02*
X59316667Y-79439819D01*
X59316667Y-79439819D02*
X59411905Y-79487438D01*
X59411905Y-79487438D02*
X59459524Y-79535057D01*
X59459524Y-79535057D02*
X59507143Y-79630295D01*
X59507143Y-79630295D02*
X59554762Y-79820771D01*
X59554762Y-79820771D02*
X59554762Y-80058866D01*
X59554762Y-80058866D02*
X59507143Y-80249342D01*
X59507143Y-80249342D02*
X59459524Y-80344580D01*
X59459524Y-80344580D02*
X59411905Y-80392200D01*
X59411905Y-80392200D02*
X59316667Y-80439819D01*
X59316667Y-80439819D02*
X59221429Y-80439819D01*
X59221429Y-80439819D02*
X59126191Y-80392200D01*
X59126191Y-80392200D02*
X59078572Y-80344580D01*
X59078572Y-80344580D02*
X59030953Y-80249342D01*
X59030953Y-80249342D02*
X58983334Y-80058866D01*
X58983334Y-80058866D02*
X58983334Y-79820771D01*
X58983334Y-79820771D02*
X59030953Y-79630295D01*
X59030953Y-79630295D02*
X59078572Y-79535057D01*
X59078572Y-79535057D02*
X59126191Y-79487438D01*
X59126191Y-79487438D02*
X59221429Y-79439819D01*
X59983334Y-80344580D02*
X60030953Y-80392200D01*
X60030953Y-80392200D02*
X59983334Y-80439819D01*
X59983334Y-80439819D02*
X59935715Y-80392200D01*
X59935715Y-80392200D02*
X59983334Y-80344580D01*
X59983334Y-80344580D02*
X59983334Y-80439819D01*
X60935714Y-79439819D02*
X60459524Y-79439819D01*
X60459524Y-79439819D02*
X60411905Y-79916009D01*
X60411905Y-79916009D02*
X60459524Y-79868390D01*
X60459524Y-79868390D02*
X60554762Y-79820771D01*
X60554762Y-79820771D02*
X60792857Y-79820771D01*
X60792857Y-79820771D02*
X60888095Y-79868390D01*
X60888095Y-79868390D02*
X60935714Y-79916009D01*
X60935714Y-79916009D02*
X60983333Y-80011247D01*
X60983333Y-80011247D02*
X60983333Y-80249342D01*
X60983333Y-80249342D02*
X60935714Y-80344580D01*
X60935714Y-80344580D02*
X60888095Y-80392200D01*
X60888095Y-80392200D02*
X60792857Y-80439819D01*
X60792857Y-80439819D02*
X60554762Y-80439819D01*
X60554762Y-80439819D02*
X60459524Y-80392200D01*
X60459524Y-80392200D02*
X60411905Y-80344580D01*
X61602381Y-79439819D02*
X61697619Y-79439819D01*
X61697619Y-79439819D02*
X61792857Y-79487438D01*
X61792857Y-79487438D02*
X61840476Y-79535057D01*
X61840476Y-79535057D02*
X61888095Y-79630295D01*
X61888095Y-79630295D02*
X61935714Y-79820771D01*
X61935714Y-79820771D02*
X61935714Y-80058866D01*
X61935714Y-80058866D02*
X61888095Y-80249342D01*
X61888095Y-80249342D02*
X61840476Y-80344580D01*
X61840476Y-80344580D02*
X61792857Y-80392200D01*
X61792857Y-80392200D02*
X61697619Y-80439819D01*
X61697619Y-80439819D02*
X61602381Y-80439819D01*
X61602381Y-80439819D02*
X61507143Y-80392200D01*
X61507143Y-80392200D02*
X61459524Y-80344580D01*
X61459524Y-80344580D02*
X61411905Y-80249342D01*
X61411905Y-80249342D02*
X61364286Y-80058866D01*
X61364286Y-80058866D02*
X61364286Y-79820771D01*
X61364286Y-79820771D02*
X61411905Y-79630295D01*
X61411905Y-79630295D02*
X61459524Y-79535057D01*
X61459524Y-79535057D02*
X61507143Y-79487438D01*
X61507143Y-79487438D02*
X61602381Y-79439819D01*
X62554762Y-79439819D02*
X62650000Y-79439819D01*
X62650000Y-79439819D02*
X62745238Y-79487438D01*
X62745238Y-79487438D02*
X62792857Y-79535057D01*
X62792857Y-79535057D02*
X62840476Y-79630295D01*
X62840476Y-79630295D02*
X62888095Y-79820771D01*
X62888095Y-79820771D02*
X62888095Y-80058866D01*
X62888095Y-80058866D02*
X62840476Y-80249342D01*
X62840476Y-80249342D02*
X62792857Y-80344580D01*
X62792857Y-80344580D02*
X62745238Y-80392200D01*
X62745238Y-80392200D02*
X62650000Y-80439819D01*
X62650000Y-80439819D02*
X62554762Y-80439819D01*
X62554762Y-80439819D02*
X62459524Y-80392200D01*
X62459524Y-80392200D02*
X62411905Y-80344580D01*
X62411905Y-80344580D02*
X62364286Y-80249342D01*
X62364286Y-80249342D02*
X62316667Y-80058866D01*
X62316667Y-80058866D02*
X62316667Y-79820771D01*
X62316667Y-79820771D02*
X62364286Y-79630295D01*
X62364286Y-79630295D02*
X62411905Y-79535057D01*
X62411905Y-79535057D02*
X62459524Y-79487438D01*
X62459524Y-79487438D02*
X62554762Y-79439819D01*
X63507143Y-79439819D02*
X63602381Y-79439819D01*
X63602381Y-79439819D02*
X63697619Y-79487438D01*
X63697619Y-79487438D02*
X63745238Y-79535057D01*
X63745238Y-79535057D02*
X63792857Y-79630295D01*
X63792857Y-79630295D02*
X63840476Y-79820771D01*
X63840476Y-79820771D02*
X63840476Y-80058866D01*
X63840476Y-80058866D02*
X63792857Y-80249342D01*
X63792857Y-80249342D02*
X63745238Y-80344580D01*
X63745238Y-80344580D02*
X63697619Y-80392200D01*
X63697619Y-80392200D02*
X63602381Y-80439819D01*
X63602381Y-80439819D02*
X63507143Y-80439819D01*
X63507143Y-80439819D02*
X63411905Y-80392200D01*
X63411905Y-80392200D02*
X63364286Y-80344580D01*
X63364286Y-80344580D02*
X63316667Y-80249342D01*
X63316667Y-80249342D02*
X63269048Y-80058866D01*
X63269048Y-80058866D02*
X63269048Y-79820771D01*
X63269048Y-79820771D02*
X63316667Y-79630295D01*
X63316667Y-79630295D02*
X63364286Y-79535057D01*
X63364286Y-79535057D02*
X63411905Y-79487438D01*
X63411905Y-79487438D02*
X63507143Y-79439819D01*
X65030953Y-80439819D02*
X65030953Y-79773152D01*
X65030953Y-79868390D02*
X65078572Y-79820771D01*
X65078572Y-79820771D02*
X65173810Y-79773152D01*
X65173810Y-79773152D02*
X65316667Y-79773152D01*
X65316667Y-79773152D02*
X65411905Y-79820771D01*
X65411905Y-79820771D02*
X65459524Y-79916009D01*
X65459524Y-79916009D02*
X65459524Y-80439819D01*
X65459524Y-79916009D02*
X65507143Y-79820771D01*
X65507143Y-79820771D02*
X65602381Y-79773152D01*
X65602381Y-79773152D02*
X65745238Y-79773152D01*
X65745238Y-79773152D02*
X65840477Y-79820771D01*
X65840477Y-79820771D02*
X65888096Y-79916009D01*
X65888096Y-79916009D02*
X65888096Y-80439819D01*
X66364286Y-80439819D02*
X66364286Y-79773152D01*
X66364286Y-79868390D02*
X66411905Y-79820771D01*
X66411905Y-79820771D02*
X66507143Y-79773152D01*
X66507143Y-79773152D02*
X66650000Y-79773152D01*
X66650000Y-79773152D02*
X66745238Y-79820771D01*
X66745238Y-79820771D02*
X66792857Y-79916009D01*
X66792857Y-79916009D02*
X66792857Y-80439819D01*
X66792857Y-79916009D02*
X66840476Y-79820771D01*
X66840476Y-79820771D02*
X66935714Y-79773152D01*
X66935714Y-79773152D02*
X67078571Y-79773152D01*
X67078571Y-79773152D02*
X67173810Y-79820771D01*
X67173810Y-79820771D02*
X67221429Y-79916009D01*
X67221429Y-79916009D02*
X67221429Y-80439819D01*
D10*
X37400000Y-77025000D02*
X37400000Y-81721420D01*
X87900000Y-77025000D02*
X87900000Y-81721420D01*
X37400000Y-81135000D02*
X87900000Y-81135000D01*
X37400000Y-81135000D02*
X87900000Y-81135000D01*
X37400000Y-81135000D02*
X38526504Y-80548579D01*
X37400000Y-81135000D02*
X38526504Y-81721421D01*
X87900000Y-81135000D02*
X86773496Y-81721421D01*
X87900000Y-81135000D02*
X86773496Y-80548579D01*
M02*
