%TF.GenerationSoftware,KiCad,Pcbnew,7.0.6-0*%
%TF.CreationDate,2023-12-30T17:19:21-06:00*%
%TF.ProjectId,MIXER_CORRELATOR,4d495845-525f-4434-9f52-52454c41544f,rev?*%
%TF.SameCoordinates,Original*%
%TF.FileFunction,Legend,Bot*%
%TF.FilePolarity,Positive*%
%FSLAX46Y46*%
G04 Gerber Fmt 4.6, Leading zero omitted, Abs format (unit mm)*
G04 Created by KiCad (PCBNEW 7.0.6-0) date 2023-12-30 17:19:21*
%MOMM*%
%LPD*%
G01*
G04 APERTURE LIST*
%ADD10C,0.150000*%
%ADD11C,0.120000*%
G04 APERTURE END LIST*
D10*
X198788190Y-70668628D02*
X198788190Y-71144819D01*
X199121523Y-70144819D02*
X198788190Y-70668628D01*
X198788190Y-70668628D02*
X198454857Y-70144819D01*
X198216761Y-70144819D02*
X197597714Y-70144819D01*
X197597714Y-70144819D02*
X197931047Y-70525771D01*
X197931047Y-70525771D02*
X197788190Y-70525771D01*
X197788190Y-70525771D02*
X197692952Y-70573390D01*
X197692952Y-70573390D02*
X197645333Y-70621009D01*
X197645333Y-70621009D02*
X197597714Y-70716247D01*
X197597714Y-70716247D02*
X197597714Y-70954342D01*
X197597714Y-70954342D02*
X197645333Y-71049580D01*
X197645333Y-71049580D02*
X197692952Y-71097200D01*
X197692952Y-71097200D02*
X197788190Y-71144819D01*
X197788190Y-71144819D02*
X198073904Y-71144819D01*
X198073904Y-71144819D02*
X198169142Y-71097200D01*
X198169142Y-71097200D02*
X198216761Y-71049580D01*
X170065523Y-101981819D02*
X170065523Y-102696104D01*
X170065523Y-102696104D02*
X170113142Y-102838961D01*
X170113142Y-102838961D02*
X170208380Y-102934200D01*
X170208380Y-102934200D02*
X170351237Y-102981819D01*
X170351237Y-102981819D02*
X170446475Y-102981819D01*
X169065523Y-102981819D02*
X169636951Y-102981819D01*
X169351237Y-102981819D02*
X169351237Y-101981819D01*
X169351237Y-101981819D02*
X169446475Y-102124676D01*
X169446475Y-102124676D02*
X169541713Y-102219914D01*
X169541713Y-102219914D02*
X169636951Y-102267533D01*
X168160761Y-101981819D02*
X168636951Y-101981819D01*
X168636951Y-101981819D02*
X168684570Y-102458009D01*
X168684570Y-102458009D02*
X168636951Y-102410390D01*
X168636951Y-102410390D02*
X168541713Y-102362771D01*
X168541713Y-102362771D02*
X168303618Y-102362771D01*
X168303618Y-102362771D02*
X168208380Y-102410390D01*
X168208380Y-102410390D02*
X168160761Y-102458009D01*
X168160761Y-102458009D02*
X168113142Y-102553247D01*
X168113142Y-102553247D02*
X168113142Y-102791342D01*
X168113142Y-102791342D02*
X168160761Y-102886580D01*
X168160761Y-102886580D02*
X168208380Y-102934200D01*
X168208380Y-102934200D02*
X168303618Y-102981819D01*
X168303618Y-102981819D02*
X168541713Y-102981819D01*
X168541713Y-102981819D02*
X168636951Y-102934200D01*
X168636951Y-102934200D02*
X168684570Y-102886580D01*
X182426819Y-86754905D02*
X183236342Y-86754905D01*
X183236342Y-86754905D02*
X183331580Y-86802524D01*
X183331580Y-86802524D02*
X183379200Y-86850143D01*
X183379200Y-86850143D02*
X183426819Y-86945381D01*
X183426819Y-86945381D02*
X183426819Y-87135857D01*
X183426819Y-87135857D02*
X183379200Y-87231095D01*
X183379200Y-87231095D02*
X183331580Y-87278714D01*
X183331580Y-87278714D02*
X183236342Y-87326333D01*
X183236342Y-87326333D02*
X182426819Y-87326333D01*
X183426819Y-88326333D02*
X183426819Y-87754905D01*
X183426819Y-88040619D02*
X182426819Y-88040619D01*
X182426819Y-88040619D02*
X182569676Y-87945381D01*
X182569676Y-87945381D02*
X182664914Y-87850143D01*
X182664914Y-87850143D02*
X182712533Y-87754905D01*
X182522057Y-88707286D02*
X182474438Y-88754905D01*
X182474438Y-88754905D02*
X182426819Y-88850143D01*
X182426819Y-88850143D02*
X182426819Y-89088238D01*
X182426819Y-89088238D02*
X182474438Y-89183476D01*
X182474438Y-89183476D02*
X182522057Y-89231095D01*
X182522057Y-89231095D02*
X182617295Y-89278714D01*
X182617295Y-89278714D02*
X182712533Y-89278714D01*
X182712533Y-89278714D02*
X182855390Y-89231095D01*
X182855390Y-89231095D02*
X183426819Y-88659667D01*
X183426819Y-88659667D02*
X183426819Y-89278714D01*
X183781523Y-92603819D02*
X183781523Y-93318104D01*
X183781523Y-93318104D02*
X183829142Y-93460961D01*
X183829142Y-93460961D02*
X183924380Y-93556200D01*
X183924380Y-93556200D02*
X184067237Y-93603819D01*
X184067237Y-93603819D02*
X184162475Y-93603819D01*
X182781523Y-93603819D02*
X183352951Y-93603819D01*
X183067237Y-93603819D02*
X183067237Y-92603819D01*
X183067237Y-92603819D02*
X183162475Y-92746676D01*
X183162475Y-92746676D02*
X183257713Y-92841914D01*
X183257713Y-92841914D02*
X183352951Y-92889533D01*
X182162475Y-92603819D02*
X182067237Y-92603819D01*
X182067237Y-92603819D02*
X181971999Y-92651438D01*
X181971999Y-92651438D02*
X181924380Y-92699057D01*
X181924380Y-92699057D02*
X181876761Y-92794295D01*
X181876761Y-92794295D02*
X181829142Y-92984771D01*
X181829142Y-92984771D02*
X181829142Y-93222866D01*
X181829142Y-93222866D02*
X181876761Y-93413342D01*
X181876761Y-93413342D02*
X181924380Y-93508580D01*
X181924380Y-93508580D02*
X181971999Y-93556200D01*
X181971999Y-93556200D02*
X182067237Y-93603819D01*
X182067237Y-93603819D02*
X182162475Y-93603819D01*
X182162475Y-93603819D02*
X182257713Y-93556200D01*
X182257713Y-93556200D02*
X182305332Y-93508580D01*
X182305332Y-93508580D02*
X182352951Y-93413342D01*
X182352951Y-93413342D02*
X182400570Y-93222866D01*
X182400570Y-93222866D02*
X182400570Y-92984771D01*
X182400570Y-92984771D02*
X182352951Y-92794295D01*
X182352951Y-92794295D02*
X182305332Y-92699057D01*
X182305332Y-92699057D02*
X182257713Y-92651438D01*
X182257713Y-92651438D02*
X182162475Y-92603819D01*
X182680819Y-75070905D02*
X183490342Y-75070905D01*
X183490342Y-75070905D02*
X183585580Y-75118524D01*
X183585580Y-75118524D02*
X183633200Y-75166143D01*
X183633200Y-75166143D02*
X183680819Y-75261381D01*
X183680819Y-75261381D02*
X183680819Y-75451857D01*
X183680819Y-75451857D02*
X183633200Y-75547095D01*
X183633200Y-75547095D02*
X183585580Y-75594714D01*
X183585580Y-75594714D02*
X183490342Y-75642333D01*
X183490342Y-75642333D02*
X182680819Y-75642333D01*
X183680819Y-76642333D02*
X183680819Y-76070905D01*
X183680819Y-76356619D02*
X182680819Y-76356619D01*
X182680819Y-76356619D02*
X182823676Y-76261381D01*
X182823676Y-76261381D02*
X182918914Y-76166143D01*
X182918914Y-76166143D02*
X182966533Y-76070905D01*
X182680819Y-77261381D02*
X182680819Y-77356619D01*
X182680819Y-77356619D02*
X182728438Y-77451857D01*
X182728438Y-77451857D02*
X182776057Y-77499476D01*
X182776057Y-77499476D02*
X182871295Y-77547095D01*
X182871295Y-77547095D02*
X183061771Y-77594714D01*
X183061771Y-77594714D02*
X183299866Y-77594714D01*
X183299866Y-77594714D02*
X183490342Y-77547095D01*
X183490342Y-77547095D02*
X183585580Y-77499476D01*
X183585580Y-77499476D02*
X183633200Y-77451857D01*
X183633200Y-77451857D02*
X183680819Y-77356619D01*
X183680819Y-77356619D02*
X183680819Y-77261381D01*
X183680819Y-77261381D02*
X183633200Y-77166143D01*
X183633200Y-77166143D02*
X183585580Y-77118524D01*
X183585580Y-77118524D02*
X183490342Y-77070905D01*
X183490342Y-77070905D02*
X183299866Y-77023286D01*
X183299866Y-77023286D02*
X183061771Y-77023286D01*
X183061771Y-77023286D02*
X182871295Y-77070905D01*
X182871295Y-77070905D02*
X182776057Y-77118524D01*
X182776057Y-77118524D02*
X182728438Y-77166143D01*
X182728438Y-77166143D02*
X182680819Y-77261381D01*
X168036819Y-80904905D02*
X167036819Y-80904905D01*
X167036819Y-80904905D02*
X167036819Y-81143000D01*
X167036819Y-81143000D02*
X167084438Y-81285857D01*
X167084438Y-81285857D02*
X167179676Y-81381095D01*
X167179676Y-81381095D02*
X167274914Y-81428714D01*
X167274914Y-81428714D02*
X167465390Y-81476333D01*
X167465390Y-81476333D02*
X167608247Y-81476333D01*
X167608247Y-81476333D02*
X167798723Y-81428714D01*
X167798723Y-81428714D02*
X167893961Y-81381095D01*
X167893961Y-81381095D02*
X167989200Y-81285857D01*
X167989200Y-81285857D02*
X168036819Y-81143000D01*
X168036819Y-81143000D02*
X168036819Y-80904905D01*
X167036819Y-81809667D02*
X167036819Y-82428714D01*
X167036819Y-82428714D02*
X167417771Y-82095381D01*
X167417771Y-82095381D02*
X167417771Y-82238238D01*
X167417771Y-82238238D02*
X167465390Y-82333476D01*
X167465390Y-82333476D02*
X167513009Y-82381095D01*
X167513009Y-82381095D02*
X167608247Y-82428714D01*
X167608247Y-82428714D02*
X167846342Y-82428714D01*
X167846342Y-82428714D02*
X167941580Y-82381095D01*
X167941580Y-82381095D02*
X167989200Y-82333476D01*
X167989200Y-82333476D02*
X168036819Y-82238238D01*
X168036819Y-82238238D02*
X168036819Y-81952524D01*
X168036819Y-81952524D02*
X167989200Y-81857286D01*
X167989200Y-81857286D02*
X167941580Y-81809667D01*
X215277523Y-52471819D02*
X215277523Y-53186104D01*
X215277523Y-53186104D02*
X215325142Y-53328961D01*
X215325142Y-53328961D02*
X215420380Y-53424200D01*
X215420380Y-53424200D02*
X215563237Y-53471819D01*
X215563237Y-53471819D02*
X215658475Y-53471819D01*
X214277523Y-53471819D02*
X214848951Y-53471819D01*
X214563237Y-53471819D02*
X214563237Y-52471819D01*
X214563237Y-52471819D02*
X214658475Y-52614676D01*
X214658475Y-52614676D02*
X214753713Y-52709914D01*
X214753713Y-52709914D02*
X214848951Y-52757533D01*
X213944189Y-52471819D02*
X213325142Y-52471819D01*
X213325142Y-52471819D02*
X213658475Y-52852771D01*
X213658475Y-52852771D02*
X213515618Y-52852771D01*
X213515618Y-52852771D02*
X213420380Y-52900390D01*
X213420380Y-52900390D02*
X213372761Y-52948009D01*
X213372761Y-52948009D02*
X213325142Y-53043247D01*
X213325142Y-53043247D02*
X213325142Y-53281342D01*
X213325142Y-53281342D02*
X213372761Y-53376580D01*
X213372761Y-53376580D02*
X213420380Y-53424200D01*
X213420380Y-53424200D02*
X213515618Y-53471819D01*
X213515618Y-53471819D02*
X213801332Y-53471819D01*
X213801332Y-53471819D02*
X213896570Y-53424200D01*
X213896570Y-53424200D02*
X213944189Y-53376580D01*
X47494819Y-71256905D02*
X46494819Y-71256905D01*
X46494819Y-71256905D02*
X46494819Y-71495000D01*
X46494819Y-71495000D02*
X46542438Y-71637857D01*
X46542438Y-71637857D02*
X46637676Y-71733095D01*
X46637676Y-71733095D02*
X46732914Y-71780714D01*
X46732914Y-71780714D02*
X46923390Y-71828333D01*
X46923390Y-71828333D02*
X47066247Y-71828333D01*
X47066247Y-71828333D02*
X47256723Y-71780714D01*
X47256723Y-71780714D02*
X47351961Y-71733095D01*
X47351961Y-71733095D02*
X47447200Y-71637857D01*
X47447200Y-71637857D02*
X47494819Y-71495000D01*
X47494819Y-71495000D02*
X47494819Y-71256905D01*
X47494819Y-72780714D02*
X47494819Y-72209286D01*
X47494819Y-72495000D02*
X46494819Y-72495000D01*
X46494819Y-72495000D02*
X46637676Y-72399762D01*
X46637676Y-72399762D02*
X46732914Y-72304524D01*
X46732914Y-72304524D02*
X46780533Y-72209286D01*
X203668190Y-57776628D02*
X203668190Y-58252819D01*
X204001523Y-57252819D02*
X203668190Y-57776628D01*
X203668190Y-57776628D02*
X203334857Y-57252819D01*
X202572952Y-57586152D02*
X202572952Y-58252819D01*
X202811047Y-57205200D02*
X203049142Y-57919485D01*
X203049142Y-57919485D02*
X202430095Y-57919485D01*
X215277523Y-77617819D02*
X215277523Y-78332104D01*
X215277523Y-78332104D02*
X215325142Y-78474961D01*
X215325142Y-78474961D02*
X215420380Y-78570200D01*
X215420380Y-78570200D02*
X215563237Y-78617819D01*
X215563237Y-78617819D02*
X215658475Y-78617819D01*
X214277523Y-78617819D02*
X214848951Y-78617819D01*
X214563237Y-78617819D02*
X214563237Y-77617819D01*
X214563237Y-77617819D02*
X214658475Y-77760676D01*
X214658475Y-77760676D02*
X214753713Y-77855914D01*
X214753713Y-77855914D02*
X214848951Y-77903533D01*
X213325142Y-78617819D02*
X213896570Y-78617819D01*
X213610856Y-78617819D02*
X213610856Y-77617819D01*
X213610856Y-77617819D02*
X213706094Y-77760676D01*
X213706094Y-77760676D02*
X213801332Y-77855914D01*
X213801332Y-77855914D02*
X213896570Y-77903533D01*
X183781523Y-52471819D02*
X183781523Y-53186104D01*
X183781523Y-53186104D02*
X183829142Y-53328961D01*
X183829142Y-53328961D02*
X183924380Y-53424200D01*
X183924380Y-53424200D02*
X184067237Y-53471819D01*
X184067237Y-53471819D02*
X184162475Y-53471819D01*
X182781523Y-53471819D02*
X183352951Y-53471819D01*
X183067237Y-53471819D02*
X183067237Y-52471819D01*
X183067237Y-52471819D02*
X183162475Y-52614676D01*
X183162475Y-52614676D02*
X183257713Y-52709914D01*
X183257713Y-52709914D02*
X183352951Y-52757533D01*
X182400570Y-52567057D02*
X182352951Y-52519438D01*
X182352951Y-52519438D02*
X182257713Y-52471819D01*
X182257713Y-52471819D02*
X182019618Y-52471819D01*
X182019618Y-52471819D02*
X181924380Y-52519438D01*
X181924380Y-52519438D02*
X181876761Y-52567057D01*
X181876761Y-52567057D02*
X181829142Y-52662295D01*
X181829142Y-52662295D02*
X181829142Y-52757533D01*
X181829142Y-52757533D02*
X181876761Y-52900390D01*
X181876761Y-52900390D02*
X182448189Y-53471819D01*
X182448189Y-53471819D02*
X181829142Y-53471819D01*
X79853333Y-75324819D02*
X79853333Y-76039104D01*
X79853333Y-76039104D02*
X79900952Y-76181961D01*
X79900952Y-76181961D02*
X79996190Y-76277200D01*
X79996190Y-76277200D02*
X80139047Y-76324819D01*
X80139047Y-76324819D02*
X80234285Y-76324819D01*
X78948571Y-75658152D02*
X78948571Y-76324819D01*
X79186666Y-75277200D02*
X79424761Y-75991485D01*
X79424761Y-75991485D02*
X78805714Y-75991485D01*
D11*
%TO.C,Y3*%
X195187000Y-64640000D02*
X201437000Y-64640000D01*
X195187000Y-69690000D02*
X201437000Y-69690000D01*
X195187000Y-64640000D02*
G75*
G03*
X195187000Y-69690000I0J-2525000D01*
G01*
X201437000Y-69690000D02*
G75*
G03*
X201437000Y-64640000I0J2525000D01*
G01*
%TO.C,J15*%
X166316000Y-100407000D02*
X166316000Y-96407000D01*
X166606000Y-95417000D02*
X171906000Y-95417000D01*
X166606000Y-101437000D02*
X166606000Y-95417000D01*
X167186000Y-100837000D02*
X168786000Y-100837000D01*
X167186000Y-101437000D02*
X167186000Y-100837000D01*
X167986000Y-95417000D02*
X167986000Y-96417000D01*
X167986000Y-96417000D02*
X168236000Y-96947000D01*
X167986000Y-96417000D02*
X170526000Y-96417000D01*
X168236000Y-95417000D02*
X168236000Y-96417000D01*
X168236000Y-96947000D02*
X170276000Y-96947000D01*
X168786000Y-100837000D02*
X168786000Y-101437000D01*
X169726000Y-100837000D02*
X171326000Y-100837000D01*
X169726000Y-101437000D02*
X169726000Y-100837000D01*
X170276000Y-95417000D02*
X170276000Y-96417000D01*
X170276000Y-96947000D02*
X170526000Y-96417000D01*
X170526000Y-96417000D02*
X170526000Y-95417000D01*
X171326000Y-100837000D02*
X171326000Y-101437000D01*
X171906000Y-95417000D02*
X171906000Y-101437000D01*
X171906000Y-101437000D02*
X166606000Y-101437000D01*
%TO.C,U12*%
X201768000Y-91803000D02*
X201768000Y-84183000D01*
X201768000Y-84183000D02*
X183988000Y-84183000D01*
X200498000Y-88628000D02*
X199228000Y-88628000D01*
X199228000Y-88628000D02*
X200498000Y-88628000D01*
X199228000Y-88628000D02*
X198593000Y-88628000D01*
X198593000Y-88628000D02*
X198593000Y-90533000D01*
X183988000Y-91803000D02*
X201768000Y-91803000D01*
X183988000Y-84183000D02*
X183988000Y-91803000D01*
%TO.C,J10*%
X186652000Y-96099000D02*
X186652000Y-99699000D01*
X184772000Y-101579000D02*
X181172000Y-101579000D01*
X184772000Y-94219000D02*
X181172000Y-94219000D01*
X179292000Y-96099000D02*
X179292000Y-99699000D01*
%TO.C,U10*%
X184242000Y-72245000D02*
X184242000Y-79865000D01*
X184242000Y-79865000D02*
X202022000Y-79865000D01*
X185512000Y-75420000D02*
X186782000Y-75420000D01*
X186782000Y-75420000D02*
X185512000Y-75420000D01*
X186782000Y-75420000D02*
X187417000Y-75420000D01*
X187417000Y-75420000D02*
X187417000Y-73515000D01*
X202022000Y-72245000D02*
X184242000Y-72245000D01*
X202022000Y-79865000D02*
X202022000Y-72245000D01*
%TO.C,D3*%
X169997000Y-79083000D02*
X173087000Y-79083000D01*
X171541538Y-84632999D02*
G75*
G03*
X173086830Y-79083001I462J2989999D01*
G01*
X169997170Y-79083000D02*
G75*
G03*
X171542462Y-84633000I1544830J-2560000D01*
G01*
X174042000Y-81643000D02*
G75*
G03*
X174042000Y-81643000I-2500000J0D01*
G01*
%TO.C,J13*%
X218148000Y-55967000D02*
X218148000Y-59567000D01*
X216268000Y-61447000D02*
X212668000Y-61447000D01*
X216268000Y-54087000D02*
X212668000Y-54087000D01*
X210788000Y-55967000D02*
X210788000Y-59567000D01*
%TO.C,D1*%
X49455000Y-69435000D02*
X52545000Y-69435000D01*
X50999538Y-74984999D02*
G75*
G03*
X52544830Y-69435001I462J2989999D01*
G01*
X49455170Y-69435000D02*
G75*
G03*
X51000462Y-74985000I1544830J-2560000D01*
G01*
X53500000Y-71995000D02*
G75*
G03*
X53500000Y-71995000I-2500000J0D01*
G01*
%TO.C,Y4*%
X206317000Y-63848000D02*
X200067000Y-63848000D01*
X206317000Y-58798000D02*
X200067000Y-58798000D01*
X206317000Y-63848000D02*
G75*
G03*
X206317000Y-58798000I0J2525000D01*
G01*
X200067000Y-58798000D02*
G75*
G03*
X200067000Y-63848000I0J-2525000D01*
G01*
%TO.C,J11*%
X218148000Y-81113000D02*
X218148000Y-84713000D01*
X216268000Y-86593000D02*
X212668000Y-86593000D01*
X216268000Y-79233000D02*
X212668000Y-79233000D01*
X210788000Y-81113000D02*
X210788000Y-84713000D01*
%TO.C,J12*%
X186652000Y-55967000D02*
X186652000Y-59567000D01*
X184772000Y-61447000D02*
X181172000Y-61447000D01*
X184772000Y-54087000D02*
X181172000Y-54087000D01*
X179292000Y-55967000D02*
X179292000Y-59567000D01*
%TO.C,J4*%
X76580000Y-73750000D02*
X76580000Y-69750000D01*
X76870000Y-68760000D02*
X82170000Y-68760000D01*
X76870000Y-74780000D02*
X76870000Y-68760000D01*
X77450000Y-74180000D02*
X79050000Y-74180000D01*
X77450000Y-74780000D02*
X77450000Y-74180000D01*
X78250000Y-68760000D02*
X78250000Y-69760000D01*
X78250000Y-69760000D02*
X78500000Y-70290000D01*
X78250000Y-69760000D02*
X80790000Y-69760000D01*
X78500000Y-68760000D02*
X78500000Y-69760000D01*
X78500000Y-70290000D02*
X80540000Y-70290000D01*
X79050000Y-74180000D02*
X79050000Y-74780000D01*
X79990000Y-74180000D02*
X81590000Y-74180000D01*
X79990000Y-74780000D02*
X79990000Y-74180000D01*
X80540000Y-68760000D02*
X80540000Y-69760000D01*
X80540000Y-70290000D02*
X80790000Y-69760000D01*
X80790000Y-69760000D02*
X80790000Y-68760000D01*
X81590000Y-74180000D02*
X81590000Y-74780000D01*
X82170000Y-68760000D02*
X82170000Y-74780000D01*
X82170000Y-74780000D02*
X76870000Y-74780000D01*
%TD*%
M02*
