M48
; DRILL file {KiCad 7.0.6-0} date 2023 December 30, Saturday 17:19:34
; FORMAT={-:-/ absolute / metric / decimal}
; #@! TF.CreationDate,2023-12-30T17:19:34-06:00
; #@! TF.GenerationSoftware,Kicad,Pcbnew,7.0.6-0
; #@! TF.FileFunction,MixedPlating,1,2
FMAT,2
METRIC
; #@! TA.AperFunction,Plated,PTH,ViaDrill
T1C0.700
; #@! TA.AperFunction,Plated,PTH,ComponentDrill
T2C0.800
; #@! TA.AperFunction,Plated,PTH,ComponentDrill
T3C0.900
; #@! TA.AperFunction,Plated,PTH,ComponentDrill
T4C1.190
; #@! TA.AperFunction,Plated,PTH,ComponentDrill
T5C1.500
; #@! TA.AperFunction,Plated,PTH,ComponentDrill
T6C1.700
; #@! TA.AperFunction,Plated,PTH,ViaDrill
T7C3.000
%
G90
G05
T1
X38.4Y-58.025
X38.4Y-62.025
X40.4Y-58.025
X40.4Y-62.025
X42.4Y-58.025
X42.4Y-62.025
X45.15Y-58.525
X45.15Y-64.775
X47.4Y-58.025
X48.15Y-61.775
X48.15Y-73.025
X49.4Y-58.025
X50.15Y-62.525
X50.15Y-75.275
X51.75Y-58.25
X51.887Y-69.0
X52.9Y-59.775
X52.9Y-63.275
X55.15Y-59.775
X55.9Y-63.025
X56.65Y-67.525
X58.65Y-59.775
X58.65Y-63.025
X60.65Y-51.275
X60.65Y-53.775
X61.15Y-57.025
X61.15Y-59.775
X61.9Y-63.025
X64.15Y-63.025
X65.4Y-51.275
X65.4Y-53.775
X65.4Y-56.275
X66.0Y-58.0
X67.15Y-56.275
X68.65Y-63.025
X70.9Y-60.025
X72.15Y-63.025
X72.65Y-67.525
X73.15Y-60.025
X75.65Y-63.275
X75.9Y-60.025
X77.9Y-58.025
X78.15Y-64.275
X78.25Y-59.75
X79.15Y-61.025
X79.65Y-58.025
X81.15Y-61.275
X81.15Y-64.275
X83.9Y-60.775
X83.9Y-64.525
X85.4Y-60.775
X85.4Y-64.525
X86.9Y-60.775
X86.9Y-64.525
X165.954Y-100.838
X169.764Y-70.467
X169.764Y-76.563
X171.796Y-75.547
X173.066Y-101.092
X173.828Y-70.467
X173.955Y-76.055
X175.352Y-82.151
X175.352Y-91.295
X177.13Y-69.07
X179.416Y-76.055
X179.416Y-82.151
X179.67Y-91.295
X182.972Y-75.438
X182.972Y-78.595
X182.972Y-91.295
X187.036Y-68.943
X187.544Y-80.881
X187.798Y-70.866
X189.068Y-97.899
X189.068Y-100.693
X190.592Y-64.879
X192.624Y-83.566
X193.132Y-70.866
X193.64Y-92.311
X195.672Y-70.866
X198.212Y-92.71
X199.228Y-81.389
X199.736Y-56.243
X200.752Y-70.975
X200.752Y-93.581
X200.752Y-96.375
X202.784Y-88.501
X203.292Y-56.243
X203.292Y-82.151
X203.8Y-75.692
X205.578Y-82.151
X205.578Y-85.199
X206.34Y-69.705
X206.34Y-72.499
X208.118Y-77.071
X208.88Y-85.199
X209.134Y-93.327
X211.166Y-77.071
X214.468Y-70.721
X214.468Y-76.309
X215.484Y-89.263
X217.77Y-68.181
X218.024Y-65.895
T2
X195.872Y-67.165
X200.752Y-61.323
X200.752Y-67.165
X205.632Y-61.323
T3
X51.0Y-70.725
X51.0Y-73.265
X171.542Y-80.373
X171.542Y-82.913
T4
X78.25Y-71.75
X80.79Y-71.75
X167.986Y-98.407
X170.526Y-98.407
T5
X182.972Y-57.767
X182.972Y-97.899
X185.258Y-85.453
X185.258Y-90.533
X185.512Y-73.515
X185.512Y-78.595
X190.338Y-85.453
X190.338Y-90.533
X190.592Y-73.515
X190.592Y-78.595
X195.418Y-85.453
X195.418Y-90.533
X195.672Y-73.515
X195.672Y-78.595
X200.498Y-85.453
X200.498Y-90.533
X200.752Y-73.515
X200.752Y-78.595
X214.468Y-57.767
X214.468Y-82.913
T6
X180.432Y-55.227
X180.432Y-60.307
X180.432Y-95.359
X180.432Y-100.439
X185.512Y-55.227
X185.512Y-60.307
X185.512Y-95.359
X185.512Y-100.439
X211.928Y-55.227
X211.928Y-60.307
X211.928Y-80.373
X211.928Y-85.453
X217.008Y-55.227
X217.008Y-60.307
X217.008Y-80.373
X217.008Y-85.453
T7
X39.9Y-52.775
X39.9Y-74.275
X85.4Y-52.775
X85.4Y-74.275
X168.24Y-57.15
X192.37Y-57.15
X205.07Y-99.06
T0
M30
