%TF.GenerationSoftware,KiCad,Pcbnew,7.0.6-0*%
%TF.CreationDate,2023-12-30T17:27:14-06:00*%
%TF.ProjectId,IF_AND_DEMOD,49465f41-4e44-45f4-9445-4d4f442e6b69,rev?*%
%TF.SameCoordinates,Original*%
%TF.FileFunction,Soldermask,Top*%
%TF.FilePolarity,Negative*%
%FSLAX46Y46*%
G04 Gerber Fmt 4.6, Leading zero omitted, Abs format (unit mm)*
G04 Created by KiCad (PCBNEW 7.0.6-0) date 2023-12-30 17:27:14*
%MOMM*%
%LPD*%
G01*
G04 APERTURE LIST*
G04 Aperture macros list*
%AMRoundRect*
0 Rectangle with rounded corners*
0 $1 Rounding radius*
0 $2 $3 $4 $5 $6 $7 $8 $9 X,Y pos of 4 corners*
0 Add a 4 corners polygon primitive as box body*
4,1,4,$2,$3,$4,$5,$6,$7,$8,$9,$2,$3,0*
0 Add four circle primitives for the rounded corners*
1,1,$1+$1,$2,$3*
1,1,$1+$1,$4,$5*
1,1,$1+$1,$6,$7*
1,1,$1+$1,$8,$9*
0 Add four rect primitives between the rounded corners*
20,1,$1+$1,$2,$3,$4,$5,0*
20,1,$1+$1,$4,$5,$6,$7,0*
20,1,$1+$1,$6,$7,$8,$9,0*
20,1,$1+$1,$8,$9,$2,$3,0*%
G04 Aperture macros list end*
%ADD10RoundRect,0.237500X0.300000X0.237500X-0.300000X0.237500X-0.300000X-0.237500X0.300000X-0.237500X0*%
%ADD11RoundRect,0.237500X0.250000X0.237500X-0.250000X0.237500X-0.250000X-0.237500X0.250000X-0.237500X0*%
%ADD12RoundRect,0.237500X-0.237500X0.250000X-0.237500X-0.250000X0.237500X-0.250000X0.237500X0.250000X0*%
%ADD13RoundRect,0.225000X0.375000X-0.225000X0.375000X0.225000X-0.375000X0.225000X-0.375000X-0.225000X0*%
%ADD14RoundRect,0.237500X-0.300000X-0.237500X0.300000X-0.237500X0.300000X0.237500X-0.300000X0.237500X0*%
%ADD15RoundRect,0.237500X-0.250000X-0.237500X0.250000X-0.237500X0.250000X0.237500X-0.250000X0.237500X0*%
%ADD16RoundRect,0.237500X0.237500X-0.300000X0.237500X0.300000X-0.237500X0.300000X-0.237500X-0.300000X0*%
%ADD17RoundRect,0.150000X-0.825000X-0.150000X0.825000X-0.150000X0.825000X0.150000X-0.825000X0.150000X0*%
%ADD18RoundRect,0.237500X-0.237500X0.300000X-0.237500X-0.300000X0.237500X-0.300000X0.237500X0.300000X0*%
%ADD19RoundRect,0.150000X0.150000X-0.825000X0.150000X0.825000X-0.150000X0.825000X-0.150000X-0.825000X0*%
%ADD20RoundRect,0.225000X0.225000X0.375000X-0.225000X0.375000X-0.225000X-0.375000X0.225000X-0.375000X0*%
%ADD21RoundRect,0.237500X0.237500X-0.250000X0.237500X0.250000X-0.237500X0.250000X-0.237500X-0.250000X0*%
%ADD22R,3.600000X1.270000*%
%ADD23R,4.200000X1.350000*%
%ADD24RoundRect,0.237500X0.287500X0.237500X-0.287500X0.237500X-0.287500X-0.237500X0.287500X-0.237500X0*%
%ADD25RoundRect,0.150000X0.150000X-0.875000X0.150000X0.875000X-0.150000X0.875000X-0.150000X-0.875000X0*%
%ADD26RoundRect,0.317500X-0.572500X0.317500X-0.572500X-0.317500X0.572500X-0.317500X0.572500X0.317500X0*%
%ADD27RoundRect,0.225000X-0.375000X0.225000X-0.375000X-0.225000X0.375000X-0.225000X0.375000X0.225000X0*%
%ADD28R,2.000000X1.500000*%
%ADD29R,2.000000X3.800000*%
%ADD30C,1.500000*%
%ADD31R,1.800000X1.800000*%
%ADD32C,1.800000*%
%ADD33C,1.440000*%
%ADD34RoundRect,0.250000X0.845000X-0.620000X0.845000X0.620000X-0.845000X0.620000X-0.845000X-0.620000X0*%
%ADD35O,2.190000X1.740000*%
%ADD36C,2.050000*%
%ADD37C,2.250000*%
G04 APERTURE END LIST*
D10*
%TO.C,C27*%
X113157000Y-152527000D03*
X111432000Y-152527000D03*
%TD*%
D11*
%TO.C,R9*%
X91463500Y-167386000D03*
X89638500Y-167386000D03*
%TD*%
D12*
%TO.C,R16*%
X71501000Y-168251500D03*
X71501000Y-170076500D03*
%TD*%
D13*
%TO.C,D4*%
X105791000Y-152527000D03*
X105791000Y-149227000D03*
%TD*%
D14*
%TO.C,C29*%
X108790000Y-182245000D03*
X110515000Y-182245000D03*
%TD*%
D15*
%TO.C,R13*%
X79375000Y-166624000D03*
X81200000Y-166624000D03*
%TD*%
D16*
%TO.C,C26*%
X113157000Y-150823000D03*
X113157000Y-149098000D03*
%TD*%
D12*
%TO.C,R4*%
X95758000Y-132541000D03*
X95758000Y-134366000D03*
%TD*%
D16*
%TO.C,C21*%
X93980000Y-169365000D03*
X93980000Y-167640000D03*
%TD*%
D17*
%TO.C,U5*%
X96585000Y-158242000D03*
X96585000Y-159512000D03*
X96585000Y-160782000D03*
X96585000Y-162052000D03*
X101535000Y-162052000D03*
X101535000Y-160782000D03*
X101535000Y-159512000D03*
X101535000Y-158242000D03*
%TD*%
D18*
%TO.C,C28*%
X103378000Y-149278000D03*
X103378000Y-151003000D03*
%TD*%
%TO.C,C15*%
X100076000Y-133403000D03*
X100076000Y-135128000D03*
%TD*%
D10*
%TO.C,C24*%
X105611000Y-166116000D03*
X103886000Y-166116000D03*
%TD*%
D12*
%TO.C,R7*%
X83820000Y-156464000D03*
X83820000Y-158289000D03*
%TD*%
D16*
%TO.C,C6*%
X78232000Y-158189000D03*
X78232000Y-156464000D03*
%TD*%
D11*
%TO.C,R8*%
X91440000Y-165608000D03*
X89615000Y-165608000D03*
%TD*%
D16*
%TO.C,C5*%
X79756000Y-158189000D03*
X79756000Y-156464000D03*
%TD*%
D18*
%TO.C,C20*%
X93980000Y-157887500D03*
X93980000Y-159612500D03*
%TD*%
D16*
%TO.C,C32*%
X76454000Y-170053000D03*
X76454000Y-168328000D03*
%TD*%
%TO.C,C8*%
X71628000Y-158189000D03*
X71628000Y-156464000D03*
%TD*%
D12*
%TO.C,R17*%
X76581000Y-175387000D03*
X76581000Y-177212000D03*
%TD*%
D11*
%TO.C,R14*%
X81200000Y-165100000D03*
X79375000Y-165100000D03*
%TD*%
D18*
%TO.C,C4*%
X77470000Y-140515000D03*
X77470000Y-142240000D03*
%TD*%
D19*
%TO.C,U3*%
X88392000Y-163068000D03*
X89662000Y-163068000D03*
X90932000Y-163068000D03*
X92202000Y-163068000D03*
X92202000Y-158118000D03*
X90932000Y-158118000D03*
X89662000Y-158118000D03*
X88392000Y-158118000D03*
%TD*%
D20*
%TO.C,D6*%
X111021000Y-173609000D03*
X107721000Y-173609000D03*
%TD*%
D21*
%TO.C,R12*%
X113157000Y-147447000D03*
X113157000Y-145622000D03*
%TD*%
D18*
%TO.C,C16*%
X81280000Y-161290000D03*
X81280000Y-163015000D03*
%TD*%
%TO.C,C35*%
X122047000Y-160073000D03*
X122047000Y-161798000D03*
%TD*%
D12*
%TO.C,R15*%
X74803000Y-168228000D03*
X74803000Y-170053000D03*
%TD*%
%TO.C,R3*%
X95758000Y-143002000D03*
X95758000Y-144827000D03*
%TD*%
D17*
%TO.C,U6*%
X96585000Y-166243000D03*
X96585000Y-167513000D03*
X96585000Y-168783000D03*
X96585000Y-170053000D03*
X101535000Y-170053000D03*
X101535000Y-168783000D03*
X101535000Y-167513000D03*
X101535000Y-166243000D03*
%TD*%
D18*
%TO.C,C34*%
X73152000Y-168328000D03*
X73152000Y-170053000D03*
%TD*%
D22*
%TO.C,J1*%
X65422500Y-137240000D03*
D23*
X65622500Y-134415000D03*
X65622500Y-140065000D03*
%TD*%
D18*
%TO.C,C2*%
X76200000Y-132588000D03*
X76200000Y-134313000D03*
%TD*%
D24*
%TO.C,FB1*%
X76567000Y-156464000D03*
X74817000Y-156464000D03*
%TD*%
D16*
%TO.C,C11*%
X82550000Y-142240000D03*
X82550000Y-140515000D03*
%TD*%
D12*
%TO.C,R6*%
X81280000Y-156417000D03*
X81280000Y-158242000D03*
%TD*%
D17*
%TO.C,U2*%
X98682000Y-136906000D03*
X98682000Y-138176000D03*
X98682000Y-139446000D03*
X98682000Y-140716000D03*
X103632000Y-140716000D03*
X103632000Y-139446000D03*
X103632000Y-138176000D03*
X103632000Y-136906000D03*
%TD*%
D15*
%TO.C,R10*%
X103886000Y-162052000D03*
X105711000Y-162052000D03*
%TD*%
D10*
%TO.C,C22*%
X105664000Y-158242000D03*
X103939000Y-158242000D03*
%TD*%
D17*
%TO.C,U4*%
X115316000Y-145669000D03*
X115316000Y-146939000D03*
X115316000Y-148209000D03*
X115316000Y-149479000D03*
X115316000Y-150749000D03*
X115316000Y-152019000D03*
X115316000Y-153289000D03*
X120266000Y-153289000D03*
X120266000Y-152019000D03*
X120266000Y-150749000D03*
X120266000Y-149479000D03*
X120266000Y-148209000D03*
X120266000Y-146939000D03*
X120266000Y-145669000D03*
%TD*%
D10*
%TO.C,C33*%
X76528000Y-173482000D03*
X74803000Y-173482000D03*
%TD*%
D18*
%TO.C,C13*%
X100330000Y-142547000D03*
X100330000Y-144272000D03*
%TD*%
%TO.C,C19*%
X86614000Y-156363500D03*
X86614000Y-158088500D03*
%TD*%
D16*
%TO.C,C7*%
X73152000Y-158189000D03*
X73152000Y-156464000D03*
%TD*%
D14*
%TO.C,C1*%
X74424200Y-137236200D03*
X76149200Y-137236200D03*
%TD*%
D16*
%TO.C,C12*%
X98552000Y-144219000D03*
X98552000Y-142494000D03*
%TD*%
D25*
%TO.C,U1*%
X73660000Y-153979500D03*
X74930000Y-153979500D03*
X76200000Y-153979500D03*
X77470000Y-153979500D03*
X78740000Y-153979500D03*
X80010000Y-153979500D03*
X81280000Y-153979500D03*
X82550000Y-153979500D03*
X83820000Y-153979500D03*
X85090000Y-153979500D03*
X85090000Y-144679500D03*
X83820000Y-144679500D03*
X82550000Y-144679500D03*
X81280000Y-144679500D03*
X80010000Y-144679500D03*
X78740000Y-144679500D03*
X77470000Y-144679500D03*
X76200000Y-144679500D03*
X74930000Y-144679500D03*
X73660000Y-144679500D03*
%TD*%
D26*
%TO.C,T1*%
X95758000Y-136144000D03*
X95758000Y-138684000D03*
X95758000Y-141224000D03*
X90678000Y-141224000D03*
X90678000Y-138684000D03*
X90678000Y-136144000D03*
%TD*%
D27*
%TO.C,D3*%
X108585000Y-149226000D03*
X108585000Y-152526000D03*
%TD*%
D16*
%TO.C,C14*%
X98552000Y-135128000D03*
X98552000Y-133403000D03*
%TD*%
D10*
%TO.C,C30*%
X110615500Y-179959000D03*
X108890500Y-179959000D03*
%TD*%
D12*
%TO.C,R1*%
X71120000Y-137240000D03*
X71120000Y-139065000D03*
%TD*%
D19*
%TO.C,U8*%
X78359000Y-173671000D03*
X79629000Y-173671000D03*
X80899000Y-173671000D03*
X82169000Y-173671000D03*
X82169000Y-168721000D03*
X80899000Y-168721000D03*
X79629000Y-168721000D03*
X78359000Y-168721000D03*
%TD*%
D14*
%TO.C,C23*%
X92472500Y-179070000D03*
X94197500Y-179070000D03*
%TD*%
D18*
%TO.C,C3*%
X74930000Y-140515000D03*
X74930000Y-142240000D03*
%TD*%
%TO.C,C17*%
X83820000Y-161290000D03*
X83820000Y-163015000D03*
%TD*%
D15*
%TO.C,R5*%
X105871000Y-136906000D03*
X107696000Y-136906000D03*
%TD*%
D18*
%TO.C,C31*%
X77724000Y-164745500D03*
X77724000Y-166470500D03*
%TD*%
D12*
%TO.C,R2*%
X78740000Y-133707500D03*
X78740000Y-135532500D03*
%TD*%
D16*
%TO.C,C10*%
X84328000Y-142240000D03*
X84328000Y-140515000D03*
%TD*%
D28*
%TO.C,U7*%
X113207000Y-177659000D03*
X113207000Y-179959000D03*
D29*
X119507000Y-179959000D03*
D28*
X113207000Y-182259000D03*
%TD*%
D18*
%TO.C,C9*%
X78740000Y-130101000D03*
X78740000Y-131826000D03*
%TD*%
D14*
%TO.C,C18*%
X118544000Y-144018000D03*
X120269000Y-144018000D03*
%TD*%
D15*
%TO.C,R11*%
X103886000Y-169164000D03*
X105711000Y-169164000D03*
%TD*%
D14*
%TO.C,C25*%
X92355500Y-173482000D03*
X94080500Y-173482000D03*
%TD*%
D30*
%TO.C,Y3*%
X94996000Y-151802000D03*
X94996000Y-146922000D03*
%TD*%
D31*
%TO.C,D2*%
X107743000Y-169164000D03*
D32*
X110283000Y-169164000D03*
%TD*%
D31*
%TO.C,D1*%
X107743000Y-162052000D03*
D32*
X110283000Y-162052000D03*
%TD*%
D30*
%TO.C,Y2*%
X89154000Y-146902000D03*
X89154000Y-151782000D03*
%TD*%
D31*
%TO.C,D5*%
X107721000Y-176403000D03*
D32*
X110261000Y-176403000D03*
%TD*%
D30*
%TO.C,Y1*%
X78740000Y-137414000D03*
X81180000Y-137414000D03*
X83620000Y-137414000D03*
%TD*%
D33*
%TO.C,RV2*%
X97028000Y-175260000D03*
X94488000Y-175260000D03*
X91948000Y-175260000D03*
%TD*%
%TO.C,RV1*%
X97054500Y-180848000D03*
X94514500Y-180848000D03*
X91974500Y-180848000D03*
%TD*%
D34*
%TO.C,J3*%
X117348000Y-174244000D03*
D35*
X117348000Y-171704000D03*
X117348000Y-169164000D03*
X117348000Y-166624000D03*
X117348000Y-164084000D03*
X117348000Y-161544000D03*
X117348000Y-159004000D03*
X117348000Y-156464000D03*
%TD*%
D33*
%TO.C,RV3*%
X79629000Y-180848000D03*
X77089000Y-180848000D03*
X74549000Y-180848000D03*
%TD*%
D36*
%TO.C,J2*%
X109728000Y-136906000D03*
D37*
X107188000Y-139446000D03*
X112268000Y-139446000D03*
X107188000Y-134366000D03*
X112268000Y-134366000D03*
%TD*%
M02*
