%TF.GenerationSoftware,KiCad,Pcbnew,7.0.6-0*%
%TF.CreationDate,2023-12-30T17:27:14-06:00*%
%TF.ProjectId,IF_AND_DEMOD,49465f41-4e44-45f4-9445-4d4f442e6b69,rev?*%
%TF.SameCoordinates,Original*%
%TF.FileFunction,Legend,Bot*%
%TF.FilePolarity,Positive*%
%FSLAX46Y46*%
G04 Gerber Fmt 4.6, Leading zero omitted, Abs format (unit mm)*
G04 Created by KiCad (PCBNEW 7.0.6-0) date 2023-12-30 17:27:14*
%MOMM*%
%LPD*%
G01*
G04 APERTURE LIST*
%ADD10C,0.150000*%
%ADD11C,0.120000*%
G04 APERTURE END LIST*
D10*
X98499628Y-148885809D02*
X98975819Y-148885809D01*
X97975819Y-148552476D02*
X98499628Y-148885809D01*
X98499628Y-148885809D02*
X97975819Y-149219142D01*
X97975819Y-149457238D02*
X97975819Y-150076285D01*
X97975819Y-150076285D02*
X98356771Y-149742952D01*
X98356771Y-149742952D02*
X98356771Y-149885809D01*
X98356771Y-149885809D02*
X98404390Y-149981047D01*
X98404390Y-149981047D02*
X98452009Y-150028666D01*
X98452009Y-150028666D02*
X98547247Y-150076285D01*
X98547247Y-150076285D02*
X98785342Y-150076285D01*
X98785342Y-150076285D02*
X98880580Y-150028666D01*
X98880580Y-150028666D02*
X98928200Y-149981047D01*
X98928200Y-149981047D02*
X98975819Y-149885809D01*
X98975819Y-149885809D02*
X98975819Y-149600095D01*
X98975819Y-149600095D02*
X98928200Y-149504857D01*
X98928200Y-149504857D02*
X98880580Y-149457238D01*
X109751094Y-172578819D02*
X109751094Y-171578819D01*
X109751094Y-171578819D02*
X109512999Y-171578819D01*
X109512999Y-171578819D02*
X109370142Y-171626438D01*
X109370142Y-171626438D02*
X109274904Y-171721676D01*
X109274904Y-171721676D02*
X109227285Y-171816914D01*
X109227285Y-171816914D02*
X109179666Y-172007390D01*
X109179666Y-172007390D02*
X109179666Y-172150247D01*
X109179666Y-172150247D02*
X109227285Y-172340723D01*
X109227285Y-172340723D02*
X109274904Y-172435961D01*
X109274904Y-172435961D02*
X109370142Y-172531200D01*
X109370142Y-172531200D02*
X109512999Y-172578819D01*
X109512999Y-172578819D02*
X109751094Y-172578819D01*
X108798713Y-171674057D02*
X108751094Y-171626438D01*
X108751094Y-171626438D02*
X108655856Y-171578819D01*
X108655856Y-171578819D02*
X108417761Y-171578819D01*
X108417761Y-171578819D02*
X108322523Y-171626438D01*
X108322523Y-171626438D02*
X108274904Y-171674057D01*
X108274904Y-171674057D02*
X108227285Y-171769295D01*
X108227285Y-171769295D02*
X108227285Y-171864533D01*
X108227285Y-171864533D02*
X108274904Y-172007390D01*
X108274904Y-172007390D02*
X108846332Y-172578819D01*
X108846332Y-172578819D02*
X108227285Y-172578819D01*
X109751094Y-165466819D02*
X109751094Y-164466819D01*
X109751094Y-164466819D02*
X109512999Y-164466819D01*
X109512999Y-164466819D02*
X109370142Y-164514438D01*
X109370142Y-164514438D02*
X109274904Y-164609676D01*
X109274904Y-164609676D02*
X109227285Y-164704914D01*
X109227285Y-164704914D02*
X109179666Y-164895390D01*
X109179666Y-164895390D02*
X109179666Y-165038247D01*
X109179666Y-165038247D02*
X109227285Y-165228723D01*
X109227285Y-165228723D02*
X109274904Y-165323961D01*
X109274904Y-165323961D02*
X109370142Y-165419200D01*
X109370142Y-165419200D02*
X109512999Y-165466819D01*
X109512999Y-165466819D02*
X109751094Y-165466819D01*
X108227285Y-165466819D02*
X108798713Y-165466819D01*
X108512999Y-165466819D02*
X108512999Y-164466819D01*
X108512999Y-164466819D02*
X108608237Y-164609676D01*
X108608237Y-164609676D02*
X108703475Y-164704914D01*
X108703475Y-164704914D02*
X108798713Y-164752533D01*
X85607628Y-148865809D02*
X86083819Y-148865809D01*
X85083819Y-148532476D02*
X85607628Y-148865809D01*
X85607628Y-148865809D02*
X85083819Y-149199142D01*
X85179057Y-149484857D02*
X85131438Y-149532476D01*
X85131438Y-149532476D02*
X85083819Y-149627714D01*
X85083819Y-149627714D02*
X85083819Y-149865809D01*
X85083819Y-149865809D02*
X85131438Y-149961047D01*
X85131438Y-149961047D02*
X85179057Y-150008666D01*
X85179057Y-150008666D02*
X85274295Y-150056285D01*
X85274295Y-150056285D02*
X85369533Y-150056285D01*
X85369533Y-150056285D02*
X85512390Y-150008666D01*
X85512390Y-150008666D02*
X86083819Y-149437238D01*
X86083819Y-149437238D02*
X86083819Y-150056285D01*
X109729094Y-179817819D02*
X109729094Y-178817819D01*
X109729094Y-178817819D02*
X109490999Y-178817819D01*
X109490999Y-178817819D02*
X109348142Y-178865438D01*
X109348142Y-178865438D02*
X109252904Y-178960676D01*
X109252904Y-178960676D02*
X109205285Y-179055914D01*
X109205285Y-179055914D02*
X109157666Y-179246390D01*
X109157666Y-179246390D02*
X109157666Y-179389247D01*
X109157666Y-179389247D02*
X109205285Y-179579723D01*
X109205285Y-179579723D02*
X109252904Y-179674961D01*
X109252904Y-179674961D02*
X109348142Y-179770200D01*
X109348142Y-179770200D02*
X109490999Y-179817819D01*
X109490999Y-179817819D02*
X109729094Y-179817819D01*
X108252904Y-178817819D02*
X108729094Y-178817819D01*
X108729094Y-178817819D02*
X108776713Y-179294009D01*
X108776713Y-179294009D02*
X108729094Y-179246390D01*
X108729094Y-179246390D02*
X108633856Y-179198771D01*
X108633856Y-179198771D02*
X108395761Y-179198771D01*
X108395761Y-179198771D02*
X108300523Y-179246390D01*
X108300523Y-179246390D02*
X108252904Y-179294009D01*
X108252904Y-179294009D02*
X108205285Y-179389247D01*
X108205285Y-179389247D02*
X108205285Y-179627342D01*
X108205285Y-179627342D02*
X108252904Y-179722580D01*
X108252904Y-179722580D02*
X108300523Y-179770200D01*
X108300523Y-179770200D02*
X108395761Y-179817819D01*
X108395761Y-179817819D02*
X108633856Y-179817819D01*
X108633856Y-179817819D02*
X108729094Y-179770200D01*
X108729094Y-179770200D02*
X108776713Y-179722580D01*
X81656190Y-140917628D02*
X81656190Y-141393819D01*
X81989523Y-140393819D02*
X81656190Y-140917628D01*
X81656190Y-140917628D02*
X81322857Y-140393819D01*
X80465714Y-141393819D02*
X81037142Y-141393819D01*
X80751428Y-141393819D02*
X80751428Y-140393819D01*
X80751428Y-140393819D02*
X80846666Y-140536676D01*
X80846666Y-140536676D02*
X80941904Y-140631914D01*
X80941904Y-140631914D02*
X81037142Y-140679533D01*
X88733238Y-173682819D02*
X89066571Y-173206628D01*
X89304666Y-173682819D02*
X89304666Y-172682819D01*
X89304666Y-172682819D02*
X88923714Y-172682819D01*
X88923714Y-172682819D02*
X88828476Y-172730438D01*
X88828476Y-172730438D02*
X88780857Y-172778057D01*
X88780857Y-172778057D02*
X88733238Y-172873295D01*
X88733238Y-172873295D02*
X88733238Y-173016152D01*
X88733238Y-173016152D02*
X88780857Y-173111390D01*
X88780857Y-173111390D02*
X88828476Y-173159009D01*
X88828476Y-173159009D02*
X88923714Y-173206628D01*
X88923714Y-173206628D02*
X89304666Y-173206628D01*
X88447523Y-172682819D02*
X88114190Y-173682819D01*
X88114190Y-173682819D02*
X87780857Y-172682819D01*
X87495142Y-172778057D02*
X87447523Y-172730438D01*
X87447523Y-172730438D02*
X87352285Y-172682819D01*
X87352285Y-172682819D02*
X87114190Y-172682819D01*
X87114190Y-172682819D02*
X87018952Y-172730438D01*
X87018952Y-172730438D02*
X86971333Y-172778057D01*
X86971333Y-172778057D02*
X86923714Y-172873295D01*
X86923714Y-172873295D02*
X86923714Y-172968533D01*
X86923714Y-172968533D02*
X86971333Y-173111390D01*
X86971333Y-173111390D02*
X87542761Y-173682819D01*
X87542761Y-173682819D02*
X86923714Y-173682819D01*
X88759738Y-179270819D02*
X89093071Y-178794628D01*
X89331166Y-179270819D02*
X89331166Y-178270819D01*
X89331166Y-178270819D02*
X88950214Y-178270819D01*
X88950214Y-178270819D02*
X88854976Y-178318438D01*
X88854976Y-178318438D02*
X88807357Y-178366057D01*
X88807357Y-178366057D02*
X88759738Y-178461295D01*
X88759738Y-178461295D02*
X88759738Y-178604152D01*
X88759738Y-178604152D02*
X88807357Y-178699390D01*
X88807357Y-178699390D02*
X88854976Y-178747009D01*
X88854976Y-178747009D02*
X88950214Y-178794628D01*
X88950214Y-178794628D02*
X89331166Y-178794628D01*
X88474023Y-178270819D02*
X88140690Y-179270819D01*
X88140690Y-179270819D02*
X87807357Y-178270819D01*
X86950214Y-179270819D02*
X87521642Y-179270819D01*
X87235928Y-179270819D02*
X87235928Y-178270819D01*
X87235928Y-178270819D02*
X87331166Y-178413676D01*
X87331166Y-178413676D02*
X87426404Y-178508914D01*
X87426404Y-178508914D02*
X87521642Y-178556533D01*
X120922819Y-165020666D02*
X121637104Y-165020666D01*
X121637104Y-165020666D02*
X121779961Y-164973047D01*
X121779961Y-164973047D02*
X121875200Y-164877809D01*
X121875200Y-164877809D02*
X121922819Y-164734952D01*
X121922819Y-164734952D02*
X121922819Y-164639714D01*
X120922819Y-165401619D02*
X120922819Y-166020666D01*
X120922819Y-166020666D02*
X121303771Y-165687333D01*
X121303771Y-165687333D02*
X121303771Y-165830190D01*
X121303771Y-165830190D02*
X121351390Y-165925428D01*
X121351390Y-165925428D02*
X121399009Y-165973047D01*
X121399009Y-165973047D02*
X121494247Y-166020666D01*
X121494247Y-166020666D02*
X121732342Y-166020666D01*
X121732342Y-166020666D02*
X121827580Y-165973047D01*
X121827580Y-165973047D02*
X121875200Y-165925428D01*
X121875200Y-165925428D02*
X121922819Y-165830190D01*
X121922819Y-165830190D02*
X121922819Y-165544476D01*
X121922819Y-165544476D02*
X121875200Y-165449238D01*
X121875200Y-165449238D02*
X121827580Y-165401619D01*
X77684238Y-184962819D02*
X78017571Y-184486628D01*
X78255666Y-184962819D02*
X78255666Y-183962819D01*
X78255666Y-183962819D02*
X77874714Y-183962819D01*
X77874714Y-183962819D02*
X77779476Y-184010438D01*
X77779476Y-184010438D02*
X77731857Y-184058057D01*
X77731857Y-184058057D02*
X77684238Y-184153295D01*
X77684238Y-184153295D02*
X77684238Y-184296152D01*
X77684238Y-184296152D02*
X77731857Y-184391390D01*
X77731857Y-184391390D02*
X77779476Y-184439009D01*
X77779476Y-184439009D02*
X77874714Y-184486628D01*
X77874714Y-184486628D02*
X78255666Y-184486628D01*
X77398523Y-183962819D02*
X77065190Y-184962819D01*
X77065190Y-184962819D02*
X76731857Y-183962819D01*
X76493761Y-183962819D02*
X75874714Y-183962819D01*
X75874714Y-183962819D02*
X76208047Y-184343771D01*
X76208047Y-184343771D02*
X76065190Y-184343771D01*
X76065190Y-184343771D02*
X75969952Y-184391390D01*
X75969952Y-184391390D02*
X75922333Y-184439009D01*
X75922333Y-184439009D02*
X75874714Y-184534247D01*
X75874714Y-184534247D02*
X75874714Y-184772342D01*
X75874714Y-184772342D02*
X75922333Y-184867580D01*
X75922333Y-184867580D02*
X75969952Y-184915200D01*
X75969952Y-184915200D02*
X76065190Y-184962819D01*
X76065190Y-184962819D02*
X76350904Y-184962819D01*
X76350904Y-184962819D02*
X76446142Y-184915200D01*
X76446142Y-184915200D02*
X76493761Y-184867580D01*
X113932819Y-136572666D02*
X114647104Y-136572666D01*
X114647104Y-136572666D02*
X114789961Y-136525047D01*
X114789961Y-136525047D02*
X114885200Y-136429809D01*
X114885200Y-136429809D02*
X114932819Y-136286952D01*
X114932819Y-136286952D02*
X114932819Y-136191714D01*
X114028057Y-137001238D02*
X113980438Y-137048857D01*
X113980438Y-137048857D02*
X113932819Y-137144095D01*
X113932819Y-137144095D02*
X113932819Y-137382190D01*
X113932819Y-137382190D02*
X113980438Y-137477428D01*
X113980438Y-137477428D02*
X114028057Y-137525047D01*
X114028057Y-137525047D02*
X114123295Y-137572666D01*
X114123295Y-137572666D02*
X114218533Y-137572666D01*
X114218533Y-137572666D02*
X114361390Y-137525047D01*
X114361390Y-137525047D02*
X114932819Y-136953619D01*
X114932819Y-136953619D02*
X114932819Y-137572666D01*
D11*
%TO.C,Y3*%
X92471000Y-152487000D02*
X92471000Y-146237000D01*
X97521000Y-152487000D02*
X97521000Y-146237000D01*
X92471000Y-152487000D02*
G75*
G03*
X97521000Y-152487000I2525000J0D01*
G01*
X97521000Y-146237000D02*
G75*
G03*
X92471000Y-146237000I-2525000J0D01*
G01*
%TO.C,D2*%
X107453000Y-168084000D02*
X107453000Y-167928000D01*
X107453000Y-170400000D02*
X107453000Y-170244000D01*
X110685334Y-168085392D02*
G75*
G03*
X107453001Y-167928485I-1672334J-1078608D01*
G01*
X110054129Y-168084164D02*
G75*
G03*
X107972040Y-168084001I-1041129J-1079836D01*
G01*
X107972040Y-170243999D02*
G75*
G03*
X110054129Y-170243836I1040960J1079999D01*
G01*
X107453001Y-170399515D02*
G75*
G03*
X110685334Y-170242608I1559999J1235515D01*
G01*
%TO.C,D1*%
X107453000Y-160972000D02*
X107453000Y-160816000D01*
X107453000Y-163288000D02*
X107453000Y-163132000D01*
X110685334Y-160973392D02*
G75*
G03*
X107453001Y-160816485I-1672334J-1078608D01*
G01*
X110054129Y-160972164D02*
G75*
G03*
X107972040Y-160972001I-1041129J-1079836D01*
G01*
X107972040Y-163131999D02*
G75*
G03*
X110054129Y-163131836I1040960J1079999D01*
G01*
X107453001Y-163287515D02*
G75*
G03*
X110685334Y-163130608I1559999J1235515D01*
G01*
%TO.C,Y2*%
X91679000Y-146217000D02*
X91679000Y-152467000D01*
X86629000Y-146217000D02*
X86629000Y-152467000D01*
X91679000Y-146217000D02*
G75*
G03*
X86629000Y-146217000I-2525000J0D01*
G01*
X86629000Y-152467000D02*
G75*
G03*
X91679000Y-152467000I2525000J0D01*
G01*
%TO.C,D5*%
X107431000Y-175323000D02*
X107431000Y-175167000D01*
X107431000Y-177639000D02*
X107431000Y-177483000D01*
X110663334Y-175324392D02*
G75*
G03*
X107431001Y-175167485I-1672334J-1078608D01*
G01*
X110032129Y-175323164D02*
G75*
G03*
X107950040Y-175323001I-1041129J-1079836D01*
G01*
X107950040Y-177482999D02*
G75*
G03*
X110032129Y-177482836I1040960J1079999D01*
G01*
X107431001Y-177638515D02*
G75*
G03*
X110663334Y-177481608I1559999J1235515D01*
G01*
%TO.C,Y1*%
X78055000Y-134889000D02*
X84305000Y-134889000D01*
X78055000Y-139939000D02*
X84305000Y-139939000D01*
X78055000Y-134889000D02*
G75*
G03*
X78055000Y-139939000I0J-2525000D01*
G01*
X84305000Y-139939000D02*
G75*
G03*
X84305000Y-134889000I0J2525000D01*
G01*
%TO.C,RV2*%
X89603000Y-172720000D02*
X99373000Y-172720000D01*
X89603000Y-177790000D02*
X89603000Y-172720000D01*
X89603000Y-177790000D02*
X99373000Y-177790000D01*
X99373000Y-177790000D02*
X99373000Y-172720000D01*
%TO.C,RV1*%
X89629500Y-178308000D02*
X99399500Y-178308000D01*
X89629500Y-183378000D02*
X89629500Y-178308000D01*
X89629500Y-183378000D02*
X99399500Y-183378000D01*
X99399500Y-183378000D02*
X99399500Y-178308000D01*
%TO.C,J3*%
X119348000Y-175914000D02*
X115348000Y-175914000D01*
X114358000Y-175624000D02*
X114358000Y-155084000D01*
X120378000Y-175624000D02*
X114358000Y-175624000D01*
X119778000Y-175044000D02*
X119778000Y-173444000D01*
X120378000Y-175044000D02*
X119778000Y-175044000D01*
X114358000Y-174244000D02*
X115358000Y-174244000D01*
X115358000Y-174244000D02*
X115888000Y-173994000D01*
X115358000Y-174244000D02*
X115358000Y-169164000D01*
X114358000Y-173994000D02*
X115358000Y-173994000D01*
X115888000Y-173994000D02*
X115888000Y-169164000D01*
X119778000Y-173444000D02*
X120378000Y-173444000D01*
X119778000Y-172504000D02*
X119778000Y-170904000D01*
X120378000Y-172504000D02*
X119778000Y-172504000D01*
X119778000Y-170904000D02*
X120378000Y-170904000D01*
X119778000Y-169964000D02*
X119778000Y-168364000D01*
X120378000Y-169964000D02*
X119778000Y-169964000D01*
X115358000Y-169164000D02*
X114358000Y-169164000D01*
X115888000Y-169164000D02*
X115358000Y-169164000D01*
X119778000Y-168364000D02*
X120378000Y-168364000D01*
X119778000Y-167424000D02*
X119778000Y-165824000D01*
X120378000Y-167424000D02*
X119778000Y-167424000D01*
X119778000Y-165824000D02*
X120378000Y-165824000D01*
X119778000Y-164884000D02*
X119778000Y-163284000D01*
X120378000Y-164884000D02*
X119778000Y-164884000D01*
X119778000Y-163284000D02*
X120378000Y-163284000D01*
X119778000Y-162344000D02*
X119778000Y-160744000D01*
X120378000Y-162344000D02*
X119778000Y-162344000D01*
X115358000Y-161544000D02*
X114358000Y-161544000D01*
X115888000Y-161544000D02*
X115358000Y-161544000D01*
X119778000Y-160744000D02*
X120378000Y-160744000D01*
X119778000Y-159804000D02*
X119778000Y-158204000D01*
X120378000Y-159804000D02*
X119778000Y-159804000D01*
X119778000Y-158204000D02*
X120378000Y-158204000D01*
X119778000Y-157264000D02*
X119778000Y-155664000D01*
X120378000Y-157264000D02*
X119778000Y-157264000D01*
X114358000Y-156714000D02*
X115358000Y-156714000D01*
X115888000Y-156714000D02*
X115888000Y-161544000D01*
X114358000Y-156464000D02*
X115358000Y-156464000D01*
X115358000Y-156464000D02*
X115358000Y-161544000D01*
X115358000Y-156464000D02*
X115888000Y-156714000D01*
X119778000Y-155664000D02*
X120378000Y-155664000D01*
X114358000Y-155084000D02*
X120378000Y-155084000D01*
X120378000Y-155084000D02*
X120378000Y-175624000D01*
%TO.C,RV3*%
X72204000Y-178308000D02*
X81974000Y-178308000D01*
X72204000Y-183378000D02*
X72204000Y-178308000D01*
X72204000Y-183378000D02*
X81974000Y-183378000D01*
X81974000Y-183378000D02*
X81974000Y-178308000D01*
%TO.C,J2*%
X111178000Y-140261000D02*
X108278000Y-140261000D01*
X106373000Y-138356000D02*
X106373000Y-135456000D01*
X113083000Y-138356000D02*
X113083000Y-135456000D01*
X111178000Y-133551000D02*
X108278000Y-133551000D01*
%TD*%
M02*
