%TF.GenerationSoftware,KiCad,Pcbnew,7.0.6-0*%
%TF.CreationDate,2023-12-30T17:27:14-06:00*%
%TF.ProjectId,IF_AND_DEMOD,49465f41-4e44-45f4-9445-4d4f442e6b69,rev?*%
%TF.SameCoordinates,Original*%
%TF.FileFunction,Copper,L2,Bot*%
%TF.FilePolarity,Positive*%
%FSLAX46Y46*%
G04 Gerber Fmt 4.6, Leading zero omitted, Abs format (unit mm)*
G04 Created by KiCad (PCBNEW 7.0.6-0) date 2023-12-30 17:27:14*
%MOMM*%
%LPD*%
G01*
G04 APERTURE LIST*
G04 Aperture macros list*
%AMRoundRect*
0 Rectangle with rounded corners*
0 $1 Rounding radius*
0 $2 $3 $4 $5 $6 $7 $8 $9 X,Y pos of 4 corners*
0 Add a 4 corners polygon primitive as box body*
4,1,4,$2,$3,$4,$5,$6,$7,$8,$9,$2,$3,0*
0 Add four circle primitives for the rounded corners*
1,1,$1+$1,$2,$3*
1,1,$1+$1,$4,$5*
1,1,$1+$1,$6,$7*
1,1,$1+$1,$8,$9*
0 Add four rect primitives between the rounded corners*
20,1,$1+$1,$2,$3,$4,$5,0*
20,1,$1+$1,$4,$5,$6,$7,0*
20,1,$1+$1,$6,$7,$8,$9,0*
20,1,$1+$1,$8,$9,$2,$3,0*%
G04 Aperture macros list end*
%TA.AperFunction,SMDPad,CuDef*%
%ADD10R,4.200000X1.350000*%
%TD*%
%TA.AperFunction,ComponentPad*%
%ADD11C,1.500000*%
%TD*%
%TA.AperFunction,ComponentPad*%
%ADD12R,1.800000X1.800000*%
%TD*%
%TA.AperFunction,ComponentPad*%
%ADD13C,1.800000*%
%TD*%
%TA.AperFunction,ComponentPad*%
%ADD14C,1.440000*%
%TD*%
%TA.AperFunction,ComponentPad*%
%ADD15RoundRect,0.250000X0.845000X-0.620000X0.845000X0.620000X-0.845000X0.620000X-0.845000X-0.620000X0*%
%TD*%
%TA.AperFunction,ComponentPad*%
%ADD16O,2.190000X1.740000*%
%TD*%
%TA.AperFunction,ComponentPad*%
%ADD17C,2.050000*%
%TD*%
%TA.AperFunction,ComponentPad*%
%ADD18C,2.250000*%
%TD*%
%TA.AperFunction,ViaPad*%
%ADD19C,1.000000*%
%TD*%
%TA.AperFunction,ViaPad*%
%ADD20C,5.000000*%
%TD*%
%TA.AperFunction,Conductor*%
%ADD21C,0.300000*%
%TD*%
G04 APERTURE END LIST*
D10*
%TO.P,J1,2,Ext*%
%TO.N,GND*%
X65622500Y-134415000D03*
X65622500Y-140065000D03*
%TD*%
D11*
%TO.P,Y3,1,1*%
%TO.N,Net-(U1-LIM-OUT)*%
X94996000Y-151802000D03*
%TO.P,Y3,2,2*%
%TO.N,Net-(T1-Pad4)*%
X94996000Y-146922000D03*
%TD*%
D12*
%TO.P,D2,1,K*%
%TO.N,Net-(D2-K)*%
X107743000Y-169164000D03*
D13*
%TO.P,D2,2,A*%
%TO.N,VCC*%
X110283000Y-169164000D03*
%TD*%
D12*
%TO.P,D1,1,K*%
%TO.N,Net-(D1-K)*%
X107743000Y-162052000D03*
D13*
%TO.P,D1,2,A*%
%TO.N,VCC*%
X110283000Y-162052000D03*
%TD*%
D11*
%TO.P,Y2,1,1*%
%TO.N,Net-(U1-LIM-OUT)*%
X89154000Y-146902000D03*
%TO.P,Y2,2,2*%
%TO.N,Net-(U1-QUAD_I)*%
X89154000Y-151782000D03*
%TD*%
D12*
%TO.P,D5,1,K*%
%TO.N,Net-(D5-K)*%
X107721000Y-176403000D03*
D13*
%TO.P,D5,2,A*%
%TO.N,Net-(D5-A)*%
X110261000Y-176403000D03*
%TD*%
D11*
%TO.P,Y1,1*%
%TO.N,Net-(U1-IF_O)*%
X78740000Y-137414000D03*
%TO.P,Y1,2*%
%TO.N,GND*%
X81180000Y-137414000D03*
%TO.P,Y1,3*%
%TO.N,Net-(U1-LIM_I)*%
X83620000Y-137414000D03*
%TD*%
D14*
%TO.P,RV2,1,1*%
%TO.N,VCC*%
X97028000Y-175260000D03*
%TO.P,RV2,2,2*%
%TO.N,Net-(U6--)*%
X94488000Y-175260000D03*
%TO.P,RV2,3,3*%
%TO.N,GND*%
X91948000Y-175260000D03*
%TD*%
%TO.P,RV1,1,1*%
%TO.N,VCC*%
X97054500Y-180848000D03*
%TO.P,RV1,2,2*%
%TO.N,Net-(U5--)*%
X94514500Y-180848000D03*
%TO.P,RV1,3,3*%
%TO.N,GND*%
X91974500Y-180848000D03*
%TD*%
D15*
%TO.P,J3,1,Pin_1*%
%TO.N,/VIN*%
X117348000Y-174244000D03*
D16*
%TO.P,J3,2,Pin_2*%
%TO.N,GND*%
X117348000Y-171704000D03*
%TO.P,J3,3,Pin_3*%
%TO.N,/PHASE_DET*%
X117348000Y-169164000D03*
%TO.P,J3,4,Pin_4*%
%TO.N,/CORR_DET_CODE*%
X117348000Y-166624000D03*
%TO.P,J3,5,Pin_5*%
%TO.N,/CORR_DET_DOP*%
X117348000Y-164084000D03*
%TO.P,J3,6,Pin_6*%
%TO.N,GND*%
X117348000Y-161544000D03*
%TO.P,J3,7,Pin_7*%
%TO.N,/DITHER_DEMOD*%
X117348000Y-159004000D03*
%TO.P,J3,8,Pin_8*%
%TO.N,GND*%
X117348000Y-156464000D03*
%TD*%
D14*
%TO.P,RV3,1,1*%
%TO.N,Net-(U8A--)*%
X79629000Y-180848000D03*
%TO.P,RV3,2,2*%
X77089000Y-180848000D03*
%TO.P,RV3,3,3*%
%TO.N,Net-(R17-Pad2)*%
X74549000Y-180848000D03*
%TD*%
D17*
%TO.P,J2,1,In*%
%TO.N,Net-(J2-In)*%
X109728000Y-136906000D03*
D18*
%TO.P,J2,2,Ext*%
%TO.N,GND*%
X107188000Y-139446000D03*
X112268000Y-139446000D03*
X107188000Y-134366000D03*
X112268000Y-134366000D03*
%TD*%
D19*
%TO.N,GND*%
X115316000Y-153162000D03*
X65532000Y-134366000D03*
X98425000Y-177165000D03*
D20*
X124968000Y-126492000D03*
D19*
X115189000Y-168148000D03*
X92202000Y-173482000D03*
X79375000Y-165100000D03*
X93980000Y-157734000D03*
D20*
X67056000Y-126492000D03*
D19*
X105664000Y-158242000D03*
X81280000Y-158242000D03*
X82550000Y-140462000D03*
D20*
X67056000Y-184404000D03*
D19*
X79756000Y-158242000D03*
X76200000Y-132588000D03*
X77724000Y-164719000D03*
X103378000Y-150876000D03*
X111252000Y-178816000D03*
X110998000Y-173736000D03*
X82169000Y-173736000D03*
X108712000Y-182372000D03*
X84836000Y-151892000D03*
X98552000Y-144272000D03*
X117348000Y-150876000D03*
X74168000Y-146812000D03*
X96266000Y-170180000D03*
X100330000Y-144272000D03*
X84836000Y-146812000D03*
X74168000Y-151892000D03*
X93726000Y-169418000D03*
X108712000Y-180086000D03*
X96520000Y-162052000D03*
X92202000Y-163068000D03*
X114300000Y-162052000D03*
X90424000Y-136144000D03*
X81280000Y-163068000D03*
X121666000Y-178435000D03*
X105664000Y-166116000D03*
X84328000Y-140462000D03*
X83820000Y-163068000D03*
X65532000Y-139954000D03*
X98933000Y-179959000D03*
X78740000Y-130048000D03*
X103632000Y-140716000D03*
X92456000Y-179070000D03*
X80010000Y-144780000D03*
X77470000Y-140462000D03*
X98552000Y-133350000D03*
X100076000Y-133350000D03*
D20*
X124968000Y-184404000D03*
D19*
X78232000Y-158242000D03*
X71628000Y-158242000D03*
X118364000Y-144018000D03*
X95758000Y-144780000D03*
X91948000Y-153924000D03*
X115189000Y-165354000D03*
X81788000Y-170942000D03*
X89027000Y-182118000D03*
X96520000Y-158242000D03*
X83566000Y-158242000D03*
X80899000Y-173736000D03*
X74930000Y-140462000D03*
X95758000Y-132334000D03*
X102108000Y-164084000D03*
X103632000Y-139446000D03*
X96520000Y-166116000D03*
X108712000Y-149098000D03*
X71120000Y-138938000D03*
X73152000Y-158242000D03*
X86614000Y-156210000D03*
%TO.N,VCC*%
X103886000Y-155702000D03*
X103939000Y-158242000D03*
X86614000Y-158088500D03*
X74817000Y-156464000D03*
%TD*%
D21*
%TO.N,VCC*%
X103886000Y-158189000D02*
X103939000Y-158242000D01*
X84989500Y-156464000D02*
X86614000Y-158088500D01*
X74817000Y-156464000D02*
X84989500Y-156464000D01*
X103886000Y-155702000D02*
X103886000Y-158189000D01*
%TD*%
%TA.AperFunction,Conductor*%
%TO.N,GND*%
G36*
X128456539Y-122966185D02*
G01*
X128502294Y-123018989D01*
X128513500Y-123070500D01*
X128513500Y-187825500D01*
X128493815Y-187892539D01*
X128441011Y-187938294D01*
X128389500Y-187949500D01*
X63634500Y-187949500D01*
X63567461Y-187929815D01*
X63521706Y-187877011D01*
X63510500Y-187825500D01*
X63510500Y-180848001D01*
X73323838Y-180848001D01*
X73342450Y-181060741D01*
X73342452Y-181060752D01*
X73397721Y-181267022D01*
X73397723Y-181267026D01*
X73397724Y-181267030D01*
X73440171Y-181358058D01*
X73487977Y-181460578D01*
X73610472Y-181635521D01*
X73761478Y-181786527D01*
X73761481Y-181786529D01*
X73936419Y-181909021D01*
X73936421Y-181909022D01*
X73936420Y-181909022D01*
X74000936Y-181939106D01*
X74129970Y-181999276D01*
X74336253Y-182054549D01*
X74488215Y-182067843D01*
X74548998Y-182073162D01*
X74549000Y-182073162D01*
X74549002Y-182073162D01*
X74602186Y-182068508D01*
X74761747Y-182054549D01*
X74968030Y-181999276D01*
X75161581Y-181909021D01*
X75336519Y-181786529D01*
X75487529Y-181635519D01*
X75610021Y-181460581D01*
X75700276Y-181267030D01*
X75700280Y-181267013D01*
X75702130Y-181261936D01*
X75704253Y-181262709D01*
X75735576Y-181211305D01*
X75798419Y-181180766D01*
X75867796Y-181189050D01*
X75921680Y-181233528D01*
X75934827Y-181262315D01*
X75935870Y-181261936D01*
X75937722Y-181267022D01*
X75937724Y-181267030D01*
X75980171Y-181358058D01*
X76027977Y-181460578D01*
X76150472Y-181635521D01*
X76301478Y-181786527D01*
X76301481Y-181786529D01*
X76476419Y-181909021D01*
X76476421Y-181909022D01*
X76476420Y-181909022D01*
X76540936Y-181939105D01*
X76669970Y-181999276D01*
X76876253Y-182054549D01*
X77028215Y-182067844D01*
X77088998Y-182073162D01*
X77089000Y-182073162D01*
X77089002Y-182073162D01*
X77142186Y-182068508D01*
X77301747Y-182054549D01*
X77508030Y-181999276D01*
X77701581Y-181909021D01*
X77876519Y-181786529D01*
X78027529Y-181635519D01*
X78150021Y-181460581D01*
X78240276Y-181267030D01*
X78240280Y-181267013D01*
X78242130Y-181261936D01*
X78244253Y-181262709D01*
X78275576Y-181211305D01*
X78338419Y-181180766D01*
X78407796Y-181189050D01*
X78461680Y-181233528D01*
X78474827Y-181262315D01*
X78475870Y-181261936D01*
X78477722Y-181267022D01*
X78477724Y-181267030D01*
X78520171Y-181358058D01*
X78567977Y-181460578D01*
X78690472Y-181635521D01*
X78841478Y-181786527D01*
X78841481Y-181786529D01*
X79016419Y-181909021D01*
X79016421Y-181909022D01*
X79016420Y-181909022D01*
X79080936Y-181939105D01*
X79209970Y-181999276D01*
X79416253Y-182054549D01*
X79568215Y-182067844D01*
X79628998Y-182073162D01*
X79629000Y-182073162D01*
X79629002Y-182073162D01*
X79682186Y-182068508D01*
X79841747Y-182054549D01*
X80048030Y-181999276D01*
X80241581Y-181909021D01*
X80416519Y-181786529D01*
X80567529Y-181635519D01*
X80690021Y-181460581D01*
X80780276Y-181267030D01*
X80835549Y-181060747D01*
X80854162Y-180848001D01*
X93289338Y-180848001D01*
X93307950Y-181060741D01*
X93307952Y-181060752D01*
X93363221Y-181267022D01*
X93363223Y-181267026D01*
X93363224Y-181267030D01*
X93405671Y-181358058D01*
X93453477Y-181460578D01*
X93575972Y-181635521D01*
X93726978Y-181786527D01*
X93726981Y-181786529D01*
X93901919Y-181909021D01*
X93901921Y-181909022D01*
X93901920Y-181909022D01*
X93966435Y-181939106D01*
X94095470Y-181999276D01*
X94301753Y-182054549D01*
X94453715Y-182067844D01*
X94514498Y-182073162D01*
X94514500Y-182073162D01*
X94514502Y-182073162D01*
X94567686Y-182068508D01*
X94727247Y-182054549D01*
X94933530Y-181999276D01*
X95127081Y-181909021D01*
X95302019Y-181786529D01*
X95453029Y-181635519D01*
X95575521Y-181460581D01*
X95665776Y-181267030D01*
X95665780Y-181267013D01*
X95667630Y-181261936D01*
X95669770Y-181262715D01*
X95701010Y-181211364D01*
X95763830Y-181180781D01*
X95833213Y-181189016D01*
X95887129Y-181233454D01*
X95900333Y-181262313D01*
X95901370Y-181261936D01*
X95903222Y-181267022D01*
X95903224Y-181267030D01*
X95945671Y-181358058D01*
X95993477Y-181460578D01*
X96115972Y-181635521D01*
X96266978Y-181786527D01*
X96266981Y-181786529D01*
X96441919Y-181909021D01*
X96441921Y-181909022D01*
X96441920Y-181909022D01*
X96506435Y-181939105D01*
X96635470Y-181999276D01*
X96841753Y-182054549D01*
X96993715Y-182067844D01*
X97054498Y-182073162D01*
X97054500Y-182073162D01*
X97054502Y-182073162D01*
X97107686Y-182068508D01*
X97267247Y-182054549D01*
X97473530Y-181999276D01*
X97667081Y-181909021D01*
X97842019Y-181786529D01*
X97993029Y-181635519D01*
X98115521Y-181460581D01*
X98205776Y-181267030D01*
X98261049Y-181060747D01*
X98279662Y-180848000D01*
X98261049Y-180635253D01*
X98205776Y-180428970D01*
X98115521Y-180235419D01*
X97993029Y-180060481D01*
X97993027Y-180060478D01*
X97842021Y-179909472D01*
X97667078Y-179786977D01*
X97667079Y-179786977D01*
X97538046Y-179726808D01*
X97473530Y-179696724D01*
X97473526Y-179696723D01*
X97473522Y-179696721D01*
X97267252Y-179641452D01*
X97267248Y-179641451D01*
X97267247Y-179641451D01*
X97267246Y-179641450D01*
X97267241Y-179641450D01*
X97054502Y-179622838D01*
X97054498Y-179622838D01*
X96841758Y-179641450D01*
X96841747Y-179641452D01*
X96635477Y-179696721D01*
X96635468Y-179696725D01*
X96441921Y-179786977D01*
X96266978Y-179909472D01*
X96115972Y-180060478D01*
X95993477Y-180235421D01*
X95903225Y-180428968D01*
X95901370Y-180434064D01*
X95899266Y-180433298D01*
X95867840Y-180484770D01*
X95804969Y-180515252D01*
X95735600Y-180506904D01*
X95681756Y-180462378D01*
X95668676Y-180433683D01*
X95667630Y-180434064D01*
X95665779Y-180428983D01*
X95665776Y-180428970D01*
X95575521Y-180235419D01*
X95453029Y-180060481D01*
X95453027Y-180060478D01*
X95302021Y-179909472D01*
X95127078Y-179786977D01*
X95127079Y-179786977D01*
X94998047Y-179726808D01*
X94933530Y-179696724D01*
X94933526Y-179696723D01*
X94933522Y-179696721D01*
X94727252Y-179641452D01*
X94727248Y-179641451D01*
X94727247Y-179641451D01*
X94727246Y-179641450D01*
X94727241Y-179641450D01*
X94514502Y-179622838D01*
X94514498Y-179622838D01*
X94301758Y-179641450D01*
X94301747Y-179641452D01*
X94095477Y-179696721D01*
X94095468Y-179696725D01*
X93901921Y-179786977D01*
X93726978Y-179909472D01*
X93575972Y-180060478D01*
X93453477Y-180235421D01*
X93363225Y-180428968D01*
X93363221Y-180428977D01*
X93307952Y-180635247D01*
X93307950Y-180635258D01*
X93289338Y-180847998D01*
X93289338Y-180848001D01*
X80854162Y-180848001D01*
X80854162Y-180848000D01*
X80835549Y-180635253D01*
X80780276Y-180428970D01*
X80690021Y-180235419D01*
X80567529Y-180060481D01*
X80567527Y-180060478D01*
X80416521Y-179909472D01*
X80241578Y-179786977D01*
X80241579Y-179786977D01*
X80112547Y-179726809D01*
X80048030Y-179696724D01*
X80048026Y-179696723D01*
X80048022Y-179696721D01*
X79841752Y-179641452D01*
X79841748Y-179641451D01*
X79841747Y-179641451D01*
X79841746Y-179641450D01*
X79841741Y-179641450D01*
X79629002Y-179622838D01*
X79628998Y-179622838D01*
X79416258Y-179641450D01*
X79416247Y-179641452D01*
X79209977Y-179696721D01*
X79209968Y-179696725D01*
X79016421Y-179786977D01*
X78841478Y-179909472D01*
X78690472Y-180060478D01*
X78567977Y-180235421D01*
X78477725Y-180428968D01*
X78475870Y-180434064D01*
X78473749Y-180433292D01*
X78442406Y-180484710D01*
X78379558Y-180515237D01*
X78310183Y-180506939D01*
X78256307Y-180462452D01*
X78243169Y-180433685D01*
X78242130Y-180434064D01*
X78240279Y-180428983D01*
X78240276Y-180428970D01*
X78150021Y-180235419D01*
X78027529Y-180060481D01*
X78027527Y-180060478D01*
X77876521Y-179909472D01*
X77701578Y-179786977D01*
X77701579Y-179786977D01*
X77572547Y-179726808D01*
X77508030Y-179696724D01*
X77508026Y-179696723D01*
X77508022Y-179696721D01*
X77301752Y-179641452D01*
X77301748Y-179641451D01*
X77301747Y-179641451D01*
X77301746Y-179641450D01*
X77301741Y-179641450D01*
X77089002Y-179622838D01*
X77088998Y-179622838D01*
X76876258Y-179641450D01*
X76876247Y-179641452D01*
X76669977Y-179696721D01*
X76669968Y-179696725D01*
X76476421Y-179786977D01*
X76301478Y-179909472D01*
X76150472Y-180060478D01*
X76027977Y-180235421D01*
X75937725Y-180428968D01*
X75935870Y-180434064D01*
X75933749Y-180433292D01*
X75902406Y-180484710D01*
X75839558Y-180515237D01*
X75770183Y-180506939D01*
X75716307Y-180462452D01*
X75703169Y-180433685D01*
X75702130Y-180434064D01*
X75700279Y-180428983D01*
X75700276Y-180428970D01*
X75610021Y-180235419D01*
X75487529Y-180060481D01*
X75487527Y-180060478D01*
X75336521Y-179909472D01*
X75161578Y-179786977D01*
X75161579Y-179786977D01*
X75032547Y-179726808D01*
X74968030Y-179696724D01*
X74968026Y-179696723D01*
X74968022Y-179696721D01*
X74761752Y-179641452D01*
X74761748Y-179641451D01*
X74761747Y-179641451D01*
X74761746Y-179641450D01*
X74761741Y-179641450D01*
X74549002Y-179622838D01*
X74548998Y-179622838D01*
X74336258Y-179641450D01*
X74336247Y-179641452D01*
X74129977Y-179696721D01*
X74129968Y-179696725D01*
X73936421Y-179786977D01*
X73761478Y-179909472D01*
X73610472Y-180060478D01*
X73487977Y-180235421D01*
X73397725Y-180428968D01*
X73397721Y-180428977D01*
X73342452Y-180635247D01*
X73342450Y-180635258D01*
X73323838Y-180847998D01*
X73323838Y-180848001D01*
X63510500Y-180848001D01*
X63510500Y-177350870D01*
X106320500Y-177350870D01*
X106320501Y-177350876D01*
X106326908Y-177410483D01*
X106377202Y-177545328D01*
X106377206Y-177545335D01*
X106463452Y-177660544D01*
X106463455Y-177660547D01*
X106578664Y-177746793D01*
X106578671Y-177746797D01*
X106713517Y-177797091D01*
X106713516Y-177797091D01*
X106720444Y-177797835D01*
X106773127Y-177803500D01*
X108668872Y-177803499D01*
X108728483Y-177797091D01*
X108863331Y-177746796D01*
X108978546Y-177660546D01*
X109064796Y-177545331D01*
X109093454Y-177468493D01*
X109135326Y-177412559D01*
X109200790Y-177388141D01*
X109269063Y-177402992D01*
X109300866Y-177427843D01*
X109308302Y-177435920D01*
X109309215Y-177436912D01*
X109309222Y-177436918D01*
X109492365Y-177579464D01*
X109492371Y-177579468D01*
X109492374Y-177579470D01*
X109696497Y-177689936D01*
X109810487Y-177729068D01*
X109916015Y-177765297D01*
X109916017Y-177765297D01*
X109916019Y-177765298D01*
X110144951Y-177803500D01*
X110144952Y-177803500D01*
X110377048Y-177803500D01*
X110377049Y-177803500D01*
X110605981Y-177765298D01*
X110825503Y-177689936D01*
X111029626Y-177579470D01*
X111212784Y-177436913D01*
X111369979Y-177266153D01*
X111496924Y-177071849D01*
X111590157Y-176859300D01*
X111647134Y-176634305D01*
X111659492Y-176485162D01*
X111666300Y-176403006D01*
X111666300Y-176402993D01*
X111647135Y-176171702D01*
X111647133Y-176171691D01*
X111590157Y-175946699D01*
X111496924Y-175734151D01*
X111369983Y-175539852D01*
X111369980Y-175539849D01*
X111369979Y-175539847D01*
X111212784Y-175369087D01*
X111212779Y-175369083D01*
X111212777Y-175369081D01*
X111029634Y-175226535D01*
X111029628Y-175226531D01*
X110825504Y-175116064D01*
X110825495Y-175116061D01*
X110605984Y-175040702D01*
X110415450Y-175008908D01*
X110377049Y-175002500D01*
X110144951Y-175002500D01*
X110106550Y-175008908D01*
X109916015Y-175040702D01*
X109696504Y-175116061D01*
X109696495Y-175116064D01*
X109492371Y-175226531D01*
X109492365Y-175226535D01*
X109309222Y-175369081D01*
X109309218Y-175369085D01*
X109300866Y-175378158D01*
X109240979Y-175414148D01*
X109171141Y-175412047D01*
X109113525Y-175372522D01*
X109093455Y-175337507D01*
X109064797Y-175260671D01*
X109064793Y-175260664D01*
X108978547Y-175145455D01*
X108978544Y-175145452D01*
X108863335Y-175059206D01*
X108863328Y-175059202D01*
X108728482Y-175008908D01*
X108728483Y-175008908D01*
X108668883Y-175002501D01*
X108668881Y-175002500D01*
X108668873Y-175002500D01*
X108668864Y-175002500D01*
X106773129Y-175002500D01*
X106773123Y-175002501D01*
X106713516Y-175008908D01*
X106578671Y-175059202D01*
X106578664Y-175059206D01*
X106463455Y-175145452D01*
X106463452Y-175145455D01*
X106377206Y-175260664D01*
X106377202Y-175260671D01*
X106326908Y-175395517D01*
X106320501Y-175455116D01*
X106320500Y-175455135D01*
X106320500Y-177350870D01*
X63510500Y-177350870D01*
X63510500Y-175260001D01*
X93262838Y-175260001D01*
X93281450Y-175472741D01*
X93281452Y-175472752D01*
X93336721Y-175679022D01*
X93336723Y-175679026D01*
X93336724Y-175679030D01*
X93362428Y-175734151D01*
X93426977Y-175872578D01*
X93549472Y-176047521D01*
X93700478Y-176198527D01*
X93700481Y-176198529D01*
X93875419Y-176321021D01*
X93875421Y-176321022D01*
X93875420Y-176321022D01*
X93939936Y-176351106D01*
X94068970Y-176411276D01*
X94275253Y-176466549D01*
X94427215Y-176479844D01*
X94487998Y-176485162D01*
X94488000Y-176485162D01*
X94488002Y-176485162D01*
X94541186Y-176480508D01*
X94700747Y-176466549D01*
X94907030Y-176411276D01*
X95100581Y-176321021D01*
X95275519Y-176198529D01*
X95426529Y-176047519D01*
X95549021Y-175872581D01*
X95639276Y-175679030D01*
X95639280Y-175679013D01*
X95641130Y-175673936D01*
X95643253Y-175674709D01*
X95674576Y-175623305D01*
X95737419Y-175592766D01*
X95806796Y-175601050D01*
X95860680Y-175645528D01*
X95873827Y-175674315D01*
X95874870Y-175673936D01*
X95876722Y-175679022D01*
X95876724Y-175679030D01*
X95902428Y-175734151D01*
X95966977Y-175872578D01*
X96089472Y-176047521D01*
X96240478Y-176198527D01*
X96240481Y-176198529D01*
X96415419Y-176321021D01*
X96415421Y-176321022D01*
X96415420Y-176321022D01*
X96479936Y-176351106D01*
X96608970Y-176411276D01*
X96815253Y-176466549D01*
X96967215Y-176479844D01*
X97027998Y-176485162D01*
X97028000Y-176485162D01*
X97028002Y-176485162D01*
X97081186Y-176480508D01*
X97240747Y-176466549D01*
X97447030Y-176411276D01*
X97640581Y-176321021D01*
X97815519Y-176198529D01*
X97966529Y-176047519D01*
X98089021Y-175872581D01*
X98179276Y-175679030D01*
X98234549Y-175472747D01*
X98253103Y-175260671D01*
X98253162Y-175260001D01*
X98253162Y-175259998D01*
X98246454Y-175183331D01*
X98234549Y-175047253D01*
X98198844Y-174914001D01*
X115752500Y-174914001D01*
X115752501Y-174914018D01*
X115763000Y-175016796D01*
X115763001Y-175016799D01*
X115795894Y-175116061D01*
X115818186Y-175183334D01*
X115910288Y-175332656D01*
X116034344Y-175456712D01*
X116183666Y-175548814D01*
X116350203Y-175603999D01*
X116452991Y-175614500D01*
X118243008Y-175614499D01*
X118345797Y-175603999D01*
X118512334Y-175548814D01*
X118661656Y-175456712D01*
X118785712Y-175332656D01*
X118877814Y-175183334D01*
X118932999Y-175016797D01*
X118943500Y-174914009D01*
X118943499Y-173573992D01*
X118932999Y-173471203D01*
X118877814Y-173304666D01*
X118785712Y-173155344D01*
X118661656Y-173031288D01*
X118512334Y-172939186D01*
X118345797Y-172884001D01*
X118345795Y-172884000D01*
X118243010Y-172873500D01*
X116452998Y-172873500D01*
X116452981Y-172873501D01*
X116350203Y-172884000D01*
X116350200Y-172884001D01*
X116183668Y-172939185D01*
X116183663Y-172939187D01*
X116034342Y-173031289D01*
X115910289Y-173155342D01*
X115818187Y-173304663D01*
X115818185Y-173304666D01*
X115818186Y-173304666D01*
X115763001Y-173471203D01*
X115763001Y-173471204D01*
X115763000Y-173471204D01*
X115752500Y-173573983D01*
X115752500Y-174914001D01*
X98198844Y-174914001D01*
X98179276Y-174840970D01*
X98089021Y-174647419D01*
X97966529Y-174472481D01*
X97966527Y-174472478D01*
X97815521Y-174321472D01*
X97640578Y-174198977D01*
X97640579Y-174198977D01*
X97511547Y-174138808D01*
X97447030Y-174108724D01*
X97447026Y-174108723D01*
X97447022Y-174108721D01*
X97240752Y-174053452D01*
X97240748Y-174053451D01*
X97240747Y-174053451D01*
X97240746Y-174053450D01*
X97240741Y-174053450D01*
X97028002Y-174034838D01*
X97027998Y-174034838D01*
X96815258Y-174053450D01*
X96815247Y-174053452D01*
X96608977Y-174108721D01*
X96608968Y-174108725D01*
X96415421Y-174198977D01*
X96240478Y-174321472D01*
X96089472Y-174472478D01*
X95966977Y-174647421D01*
X95876725Y-174840968D01*
X95874870Y-174846064D01*
X95872749Y-174845292D01*
X95841406Y-174896710D01*
X95778558Y-174927237D01*
X95709183Y-174918939D01*
X95655307Y-174874452D01*
X95642169Y-174845685D01*
X95641130Y-174846064D01*
X95639279Y-174840983D01*
X95639276Y-174840970D01*
X95549021Y-174647419D01*
X95426529Y-174472481D01*
X95426527Y-174472478D01*
X95275521Y-174321472D01*
X95100578Y-174198977D01*
X95100579Y-174198977D01*
X94971547Y-174138809D01*
X94907030Y-174108724D01*
X94907026Y-174108723D01*
X94907022Y-174108721D01*
X94700752Y-174053452D01*
X94700748Y-174053451D01*
X94700747Y-174053451D01*
X94700746Y-174053450D01*
X94700741Y-174053450D01*
X94488002Y-174034838D01*
X94487998Y-174034838D01*
X94275258Y-174053450D01*
X94275247Y-174053452D01*
X94068977Y-174108721D01*
X94068968Y-174108725D01*
X93875421Y-174198977D01*
X93700478Y-174321472D01*
X93549472Y-174472478D01*
X93426977Y-174647421D01*
X93336725Y-174840968D01*
X93336721Y-174840977D01*
X93281452Y-175047247D01*
X93281450Y-175047258D01*
X93262838Y-175259998D01*
X93262838Y-175260001D01*
X63510500Y-175260001D01*
X63510500Y-170111870D01*
X106342500Y-170111870D01*
X106342501Y-170111876D01*
X106348908Y-170171483D01*
X106399202Y-170306328D01*
X106399206Y-170306335D01*
X106485452Y-170421544D01*
X106485455Y-170421547D01*
X106600664Y-170507793D01*
X106600671Y-170507797D01*
X106735517Y-170558091D01*
X106735516Y-170558091D01*
X106742444Y-170558835D01*
X106795127Y-170564500D01*
X108690872Y-170564499D01*
X108750483Y-170558091D01*
X108885331Y-170507796D01*
X109000546Y-170421546D01*
X109086796Y-170306331D01*
X109115454Y-170229493D01*
X109157326Y-170173559D01*
X109222790Y-170149141D01*
X109291063Y-170163992D01*
X109322866Y-170188843D01*
X109330302Y-170196920D01*
X109331215Y-170197912D01*
X109331222Y-170197918D01*
X109514365Y-170340464D01*
X109514371Y-170340468D01*
X109514374Y-170340470D01*
X109718497Y-170450936D01*
X109832487Y-170490068D01*
X109938015Y-170526297D01*
X109938017Y-170526297D01*
X109938019Y-170526298D01*
X110166951Y-170564500D01*
X110166952Y-170564500D01*
X110399048Y-170564500D01*
X110399049Y-170564500D01*
X110627981Y-170526298D01*
X110847503Y-170450936D01*
X111051626Y-170340470D01*
X111099032Y-170303573D01*
X111113129Y-170292600D01*
X111234784Y-170197913D01*
X111391979Y-170027153D01*
X111518924Y-169832849D01*
X111612157Y-169620300D01*
X111669134Y-169395305D01*
X111673824Y-169338707D01*
X111688300Y-169164006D01*
X111688300Y-169163993D01*
X111683463Y-169105624D01*
X115748784Y-169105624D01*
X115758685Y-169338700D01*
X115758686Y-169338709D01*
X115807836Y-169566766D01*
X115807837Y-169566769D01*
X115894819Y-169783231D01*
X115894821Y-169783235D01*
X116017138Y-169981891D01*
X116171269Y-170157018D01*
X116171270Y-170157019D01*
X116171273Y-170157022D01*
X116352773Y-170303573D01*
X116352779Y-170303578D01*
X116556445Y-170417353D01*
X116568315Y-170421547D01*
X116776416Y-170495073D01*
X116904725Y-170517074D01*
X117006344Y-170534499D01*
X117006353Y-170534500D01*
X117631221Y-170534500D01*
X117805446Y-170519671D01*
X117805446Y-170519670D01*
X117805453Y-170519670D01*
X118031219Y-170460885D01*
X118243802Y-170364792D01*
X118437088Y-170234153D01*
X118605516Y-170072728D01*
X118744240Y-169885161D01*
X118849270Y-169676847D01*
X118917583Y-169453780D01*
X118947216Y-169222376D01*
X118937314Y-168989293D01*
X118888164Y-168761235D01*
X118801179Y-168544765D01*
X118678862Y-168346109D01*
X118524731Y-168170982D01*
X118524729Y-168170980D01*
X118524726Y-168170977D01*
X118343226Y-168024426D01*
X118343215Y-168024419D01*
X118302897Y-168001895D01*
X118253971Y-167952015D01*
X118239779Y-167883602D01*
X118264827Y-167818376D01*
X118293931Y-167790910D01*
X118437088Y-167694153D01*
X118605516Y-167532728D01*
X118744240Y-167345161D01*
X118849270Y-167136847D01*
X118917583Y-166913780D01*
X118947216Y-166682376D01*
X118937314Y-166449293D01*
X118888164Y-166221235D01*
X118801179Y-166004765D01*
X118678862Y-165806109D01*
X118524731Y-165630982D01*
X118524729Y-165630980D01*
X118524726Y-165630977D01*
X118343226Y-165484426D01*
X118343215Y-165484419D01*
X118302897Y-165461895D01*
X118253971Y-165412015D01*
X118239779Y-165343602D01*
X118264827Y-165278376D01*
X118293931Y-165250910D01*
X118437088Y-165154153D01*
X118605516Y-164992728D01*
X118744240Y-164805161D01*
X118849270Y-164596847D01*
X118917583Y-164373780D01*
X118947216Y-164142376D01*
X118937314Y-163909293D01*
X118888164Y-163681235D01*
X118801179Y-163464765D01*
X118678862Y-163266109D01*
X118524731Y-163090982D01*
X118524729Y-163090980D01*
X118524726Y-163090977D01*
X118343226Y-162944426D01*
X118343220Y-162944421D01*
X118139554Y-162830646D01*
X117919591Y-162752929D01*
X117919586Y-162752927D01*
X117919584Y-162752927D01*
X117919580Y-162752926D01*
X117919579Y-162752926D01*
X117689655Y-162713500D01*
X117689647Y-162713500D01*
X117064784Y-162713500D01*
X117064779Y-162713500D01*
X116890553Y-162728328D01*
X116890551Y-162728329D01*
X116664781Y-162787114D01*
X116452197Y-162883208D01*
X116258911Y-163013847D01*
X116258909Y-163013849D01*
X116090483Y-163175272D01*
X116090482Y-163175273D01*
X115951762Y-163362834D01*
X115846733Y-163571147D01*
X115846730Y-163571153D01*
X115778416Y-163794223D01*
X115748784Y-164025624D01*
X115758685Y-164258700D01*
X115758686Y-164258709D01*
X115807836Y-164486766D01*
X115807837Y-164486769D01*
X115894819Y-164703231D01*
X115894821Y-164703235D01*
X116017138Y-164901891D01*
X116097083Y-164992726D01*
X116171270Y-165077019D01*
X116171273Y-165077022D01*
X116352773Y-165223573D01*
X116352775Y-165223574D01*
X116352780Y-165223578D01*
X116393102Y-165246103D01*
X116442028Y-165295983D01*
X116456220Y-165364396D01*
X116431172Y-165429622D01*
X116402065Y-165457092D01*
X116258907Y-165553850D01*
X116090483Y-165715272D01*
X116090482Y-165715273D01*
X115951762Y-165902834D01*
X115846733Y-166111147D01*
X115846730Y-166111153D01*
X115778416Y-166334223D01*
X115748784Y-166565624D01*
X115758685Y-166798700D01*
X115758686Y-166798709D01*
X115807836Y-167026766D01*
X115807837Y-167026769D01*
X115894819Y-167243231D01*
X115894821Y-167243235D01*
X116017138Y-167441891D01*
X116097083Y-167532726D01*
X116171270Y-167617019D01*
X116171273Y-167617022D01*
X116352773Y-167763573D01*
X116352775Y-167763574D01*
X116352780Y-167763578D01*
X116393102Y-167786103D01*
X116442028Y-167835983D01*
X116456220Y-167904396D01*
X116431172Y-167969622D01*
X116402065Y-167997092D01*
X116258907Y-168093850D01*
X116090483Y-168255272D01*
X116090482Y-168255273D01*
X115951762Y-168442834D01*
X115846733Y-168651147D01*
X115846730Y-168651153D01*
X115778416Y-168874223D01*
X115748784Y-169105624D01*
X111683463Y-169105624D01*
X111669135Y-168932702D01*
X111669133Y-168932691D01*
X111612157Y-168707699D01*
X111518924Y-168495151D01*
X111391983Y-168300852D01*
X111391980Y-168300849D01*
X111391979Y-168300847D01*
X111234784Y-168130087D01*
X111234779Y-168130083D01*
X111234777Y-168130081D01*
X111051634Y-167987535D01*
X111051628Y-167987531D01*
X110847504Y-167877064D01*
X110847495Y-167877061D01*
X110627984Y-167801702D01*
X110437450Y-167769908D01*
X110399049Y-167763500D01*
X110166951Y-167763500D01*
X110128550Y-167769908D01*
X109938015Y-167801702D01*
X109718504Y-167877061D01*
X109718495Y-167877064D01*
X109514371Y-167987531D01*
X109514365Y-167987535D01*
X109331222Y-168130081D01*
X109331218Y-168130085D01*
X109322866Y-168139158D01*
X109262979Y-168175148D01*
X109193141Y-168173047D01*
X109135525Y-168133522D01*
X109115455Y-168098507D01*
X109086797Y-168021671D01*
X109086793Y-168021664D01*
X109000547Y-167906455D01*
X109000544Y-167906452D01*
X108885335Y-167820206D01*
X108885328Y-167820202D01*
X108750482Y-167769908D01*
X108750483Y-167769908D01*
X108690883Y-167763501D01*
X108690881Y-167763500D01*
X108690873Y-167763500D01*
X108690864Y-167763500D01*
X106795129Y-167763500D01*
X106795123Y-167763501D01*
X106735516Y-167769908D01*
X106600671Y-167820202D01*
X106600664Y-167820206D01*
X106485455Y-167906452D01*
X106485452Y-167906455D01*
X106399206Y-168021664D01*
X106399202Y-168021671D01*
X106348908Y-168156517D01*
X106342501Y-168216116D01*
X106342500Y-168216135D01*
X106342500Y-170111870D01*
X63510500Y-170111870D01*
X63510500Y-162999870D01*
X106342500Y-162999870D01*
X106342501Y-162999876D01*
X106348908Y-163059483D01*
X106399202Y-163194328D01*
X106399206Y-163194335D01*
X106485452Y-163309544D01*
X106485455Y-163309547D01*
X106600664Y-163395793D01*
X106600671Y-163395797D01*
X106735517Y-163446091D01*
X106735516Y-163446091D01*
X106742444Y-163446835D01*
X106795127Y-163452500D01*
X108690872Y-163452499D01*
X108750483Y-163446091D01*
X108885331Y-163395796D01*
X109000546Y-163309546D01*
X109086796Y-163194331D01*
X109115454Y-163117493D01*
X109157326Y-163061559D01*
X109222790Y-163037141D01*
X109291063Y-163051992D01*
X109322866Y-163076843D01*
X109330302Y-163084920D01*
X109331215Y-163085912D01*
X109331222Y-163085918D01*
X109514365Y-163228464D01*
X109514371Y-163228468D01*
X109514374Y-163228470D01*
X109718497Y-163338936D01*
X109832487Y-163378068D01*
X109938015Y-163414297D01*
X109938017Y-163414297D01*
X109938019Y-163414298D01*
X110166951Y-163452500D01*
X110166952Y-163452500D01*
X110399048Y-163452500D01*
X110399049Y-163452500D01*
X110627981Y-163414298D01*
X110847503Y-163338936D01*
X111051626Y-163228470D01*
X111234784Y-163085913D01*
X111391979Y-162915153D01*
X111518924Y-162720849D01*
X111612157Y-162508300D01*
X111669134Y-162283305D01*
X111688300Y-162052000D01*
X111688300Y-162051993D01*
X111669135Y-161820702D01*
X111669133Y-161820691D01*
X111612157Y-161595699D01*
X111518924Y-161383151D01*
X111391983Y-161188852D01*
X111391980Y-161188849D01*
X111391979Y-161188847D01*
X111234784Y-161018087D01*
X111234779Y-161018083D01*
X111234777Y-161018081D01*
X111051634Y-160875535D01*
X111051628Y-160875531D01*
X110847504Y-160765064D01*
X110847495Y-160765061D01*
X110627984Y-160689702D01*
X110437450Y-160657908D01*
X110399049Y-160651500D01*
X110166951Y-160651500D01*
X110128550Y-160657908D01*
X109938015Y-160689702D01*
X109718504Y-160765061D01*
X109718495Y-160765064D01*
X109514371Y-160875531D01*
X109514365Y-160875535D01*
X109331222Y-161018081D01*
X109331218Y-161018085D01*
X109322866Y-161027158D01*
X109262979Y-161063148D01*
X109193141Y-161061047D01*
X109135525Y-161021522D01*
X109115455Y-160986507D01*
X109086797Y-160909671D01*
X109086793Y-160909664D01*
X109000547Y-160794455D01*
X109000544Y-160794452D01*
X108885335Y-160708206D01*
X108885328Y-160708202D01*
X108750482Y-160657908D01*
X108750483Y-160657908D01*
X108690883Y-160651501D01*
X108690881Y-160651500D01*
X108690873Y-160651500D01*
X108690864Y-160651500D01*
X106795129Y-160651500D01*
X106795123Y-160651501D01*
X106735516Y-160657908D01*
X106600671Y-160708202D01*
X106600664Y-160708206D01*
X106485455Y-160794452D01*
X106485452Y-160794455D01*
X106399206Y-160909664D01*
X106399202Y-160909671D01*
X106348908Y-161044517D01*
X106342501Y-161104116D01*
X106342500Y-161104135D01*
X106342500Y-162999870D01*
X63510500Y-162999870D01*
X63510500Y-156464000D01*
X73811659Y-156464000D01*
X73830975Y-156660129D01*
X73888188Y-156848733D01*
X73981086Y-157022532D01*
X73981090Y-157022539D01*
X74106116Y-157174883D01*
X74258460Y-157299909D01*
X74258467Y-157299913D01*
X74432266Y-157392811D01*
X74432269Y-157392811D01*
X74432273Y-157392814D01*
X74620868Y-157450024D01*
X74817000Y-157469341D01*
X75013132Y-157450024D01*
X75201727Y-157392814D01*
X75230161Y-157377616D01*
X75375532Y-157299913D01*
X75375538Y-157299910D01*
X75527883Y-157174883D01*
X75540231Y-157159836D01*
X75597978Y-157120501D01*
X75636086Y-157114500D01*
X84668692Y-157114500D01*
X84735731Y-157134185D01*
X84756373Y-157150819D01*
X85574845Y-157969291D01*
X85608330Y-158030614D01*
X85610567Y-158069125D01*
X85608659Y-158088499D01*
X85627975Y-158284629D01*
X85685188Y-158473233D01*
X85778086Y-158647032D01*
X85778090Y-158647039D01*
X85903116Y-158799383D01*
X86055460Y-158924409D01*
X86055467Y-158924413D01*
X86229266Y-159017311D01*
X86229269Y-159017311D01*
X86229273Y-159017314D01*
X86417868Y-159074524D01*
X86614000Y-159093841D01*
X86810132Y-159074524D01*
X86998727Y-159017314D01*
X87172538Y-158924410D01*
X87324883Y-158799383D01*
X87449910Y-158647038D01*
X87496361Y-158560132D01*
X87542811Y-158473233D01*
X87542811Y-158473232D01*
X87542814Y-158473227D01*
X87600024Y-158284632D01*
X87619341Y-158088500D01*
X87600024Y-157892368D01*
X87542814Y-157703773D01*
X87542811Y-157703769D01*
X87542811Y-157703766D01*
X87449913Y-157529967D01*
X87449909Y-157529960D01*
X87324883Y-157377616D01*
X87172539Y-157252590D01*
X87172532Y-157252586D01*
X86998733Y-157159688D01*
X86998727Y-157159686D01*
X86810132Y-157102476D01*
X86810129Y-157102475D01*
X86614000Y-157083159D01*
X86594625Y-157085067D01*
X86525979Y-157072047D01*
X86494791Y-157049345D01*
X85509934Y-156064488D01*
X85499861Y-156051914D01*
X85499674Y-156052070D01*
X85494701Y-156046059D01*
X85442256Y-155996810D01*
X85420535Y-155975089D01*
X85414740Y-155970594D01*
X85410298Y-155966799D01*
X85374896Y-155933554D01*
X85374888Y-155933548D01*
X85356292Y-155923325D01*
X85340031Y-155912644D01*
X85323263Y-155899637D01*
X85299795Y-155889482D01*
X85278678Y-155880343D01*
X85273456Y-155877786D01*
X85230868Y-155854373D01*
X85230865Y-155854372D01*
X85210301Y-155849092D01*
X85191896Y-155842790D01*
X85172427Y-155834365D01*
X85172421Y-155834363D01*
X85124451Y-155826766D01*
X85118736Y-155825582D01*
X85102272Y-155821355D01*
X85071680Y-155813500D01*
X85071677Y-155813500D01*
X85050455Y-155813500D01*
X85031055Y-155811973D01*
X85010096Y-155808653D01*
X85010095Y-155808653D01*
X84986286Y-155810903D01*
X84961730Y-155813225D01*
X84955892Y-155813500D01*
X75636086Y-155813500D01*
X75569047Y-155793815D01*
X75540232Y-155768164D01*
X75527882Y-155753116D01*
X75465598Y-155702000D01*
X102880659Y-155702000D01*
X102899975Y-155898129D01*
X102902201Y-155905467D01*
X102944849Y-156046059D01*
X102957188Y-156086733D01*
X103050086Y-156260532D01*
X103050090Y-156260539D01*
X103175116Y-156412883D01*
X103190161Y-156425229D01*
X103229498Y-156482973D01*
X103235500Y-156521085D01*
X103235500Y-157477752D01*
X103215815Y-157544791D01*
X103207353Y-157556417D01*
X103103090Y-157683460D01*
X103103086Y-157683467D01*
X103010188Y-157857266D01*
X102952975Y-158045870D01*
X102933659Y-158242000D01*
X102952975Y-158438129D01*
X102952976Y-158438132D01*
X103002452Y-158601233D01*
X103010188Y-158626733D01*
X103103086Y-158800532D01*
X103103090Y-158800539D01*
X103228116Y-158952883D01*
X103380460Y-159077909D01*
X103380467Y-159077913D01*
X103554266Y-159170811D01*
X103554269Y-159170811D01*
X103554273Y-159170814D01*
X103742868Y-159228024D01*
X103939000Y-159247341D01*
X104135132Y-159228024D01*
X104323727Y-159170814D01*
X104497538Y-159077910D01*
X104649883Y-158952883D01*
X104655840Y-158945624D01*
X115748784Y-158945624D01*
X115758685Y-159178700D01*
X115758686Y-159178709D01*
X115807836Y-159406766D01*
X115807837Y-159406769D01*
X115894819Y-159623231D01*
X115894821Y-159623235D01*
X116017138Y-159821891D01*
X116097083Y-159912726D01*
X116171270Y-159997019D01*
X116171273Y-159997022D01*
X116352773Y-160143573D01*
X116352779Y-160143578D01*
X116556445Y-160257353D01*
X116556448Y-160257354D01*
X116776416Y-160335073D01*
X116904725Y-160357074D01*
X117006344Y-160374499D01*
X117006353Y-160374500D01*
X117631221Y-160374500D01*
X117805446Y-160359671D01*
X117805446Y-160359670D01*
X117805453Y-160359670D01*
X118031219Y-160300885D01*
X118243802Y-160204792D01*
X118437088Y-160074153D01*
X118605516Y-159912728D01*
X118744240Y-159725161D01*
X118849270Y-159516847D01*
X118917583Y-159293780D01*
X118947216Y-159062376D01*
X118937314Y-158829293D01*
X118888164Y-158601235D01*
X118801179Y-158384765D01*
X118678862Y-158186109D01*
X118524731Y-158010982D01*
X118524729Y-158010980D01*
X118524726Y-158010977D01*
X118343226Y-157864426D01*
X118343220Y-157864421D01*
X118139554Y-157750646D01*
X117919591Y-157672929D01*
X117919586Y-157672927D01*
X117919584Y-157672927D01*
X117919580Y-157672926D01*
X117919579Y-157672926D01*
X117689655Y-157633500D01*
X117689647Y-157633500D01*
X117064784Y-157633500D01*
X117064779Y-157633500D01*
X116890553Y-157648328D01*
X116890551Y-157648329D01*
X116664781Y-157707114D01*
X116452197Y-157803208D01*
X116258911Y-157933847D01*
X116258909Y-157933849D01*
X116090483Y-158095272D01*
X116090482Y-158095273D01*
X115951762Y-158282834D01*
X115846733Y-158491147D01*
X115846730Y-158491153D01*
X115778416Y-158714223D01*
X115748784Y-158945624D01*
X104655840Y-158945624D01*
X104774910Y-158800538D01*
X104867814Y-158626727D01*
X104925024Y-158438132D01*
X104944341Y-158242000D01*
X104925024Y-158045868D01*
X104867814Y-157857273D01*
X104867811Y-157857269D01*
X104867811Y-157857266D01*
X104774913Y-157683467D01*
X104774909Y-157683460D01*
X104649885Y-157531119D01*
X104648481Y-157529967D01*
X104581834Y-157475270D01*
X104542501Y-157417525D01*
X104536500Y-157379418D01*
X104536500Y-156521085D01*
X104556185Y-156454046D01*
X104581839Y-156425229D01*
X104596883Y-156412883D01*
X104721909Y-156260539D01*
X104721913Y-156260532D01*
X104814811Y-156086733D01*
X104814811Y-156086732D01*
X104814814Y-156086727D01*
X104872024Y-155898132D01*
X104891341Y-155702000D01*
X104872024Y-155505868D01*
X104814814Y-155317273D01*
X104814811Y-155317269D01*
X104814811Y-155317266D01*
X104721913Y-155143467D01*
X104721909Y-155143460D01*
X104596883Y-154991116D01*
X104444539Y-154866090D01*
X104444532Y-154866086D01*
X104270733Y-154773188D01*
X104270727Y-154773186D01*
X104082132Y-154715976D01*
X104082129Y-154715975D01*
X103886000Y-154696659D01*
X103689870Y-154715975D01*
X103501266Y-154773188D01*
X103327467Y-154866086D01*
X103327460Y-154866090D01*
X103175116Y-154991116D01*
X103050090Y-155143460D01*
X103050086Y-155143467D01*
X102957188Y-155317266D01*
X102899975Y-155505870D01*
X102880659Y-155702000D01*
X75465598Y-155702000D01*
X75375539Y-155628090D01*
X75375532Y-155628086D01*
X75201733Y-155535188D01*
X75201727Y-155535186D01*
X75013132Y-155477976D01*
X75013129Y-155477975D01*
X74817000Y-155458659D01*
X74620870Y-155477975D01*
X74432266Y-155535188D01*
X74258467Y-155628086D01*
X74258460Y-155628090D01*
X74106116Y-155753116D01*
X73981090Y-155905460D01*
X73981086Y-155905467D01*
X73888188Y-156079266D01*
X73830975Y-156267870D01*
X73811659Y-156464000D01*
X63510500Y-156464000D01*
X63510500Y-151782002D01*
X87898723Y-151782002D01*
X87917793Y-151999975D01*
X87917793Y-151999979D01*
X87974422Y-152211322D01*
X87974424Y-152211326D01*
X87974425Y-152211330D01*
X87983752Y-152231331D01*
X88066897Y-152409638D01*
X88066898Y-152409639D01*
X88192402Y-152588877D01*
X88347123Y-152743598D01*
X88526361Y-152869102D01*
X88724670Y-152961575D01*
X88936023Y-153018207D01*
X89118926Y-153034208D01*
X89153998Y-153037277D01*
X89154000Y-153037277D01*
X89154002Y-153037277D01*
X89182254Y-153034805D01*
X89371977Y-153018207D01*
X89583330Y-152961575D01*
X89781639Y-152869102D01*
X89960877Y-152743598D01*
X90115598Y-152588877D01*
X90241102Y-152409639D01*
X90333575Y-152211330D01*
X90390207Y-151999977D01*
X90407527Y-151802000D01*
X93740723Y-151802000D01*
X93758043Y-151999979D01*
X93759793Y-152019975D01*
X93759793Y-152019979D01*
X93816422Y-152231322D01*
X93816424Y-152231326D01*
X93816425Y-152231330D01*
X93862661Y-152330484D01*
X93908897Y-152429638D01*
X93908898Y-152429639D01*
X94034402Y-152608877D01*
X94189123Y-152763598D01*
X94368361Y-152889102D01*
X94566670Y-152981575D01*
X94778023Y-153038207D01*
X94960926Y-153054208D01*
X94995998Y-153057277D01*
X94996000Y-153057277D01*
X94996002Y-153057277D01*
X95024254Y-153054805D01*
X95213977Y-153038207D01*
X95425330Y-152981575D01*
X95623639Y-152889102D01*
X95802877Y-152763598D01*
X95957598Y-152608877D01*
X96083102Y-152429639D01*
X96175575Y-152231330D01*
X96232207Y-152019977D01*
X96251277Y-151802000D01*
X96249527Y-151782002D01*
X96247569Y-151759618D01*
X96232207Y-151584023D01*
X96175575Y-151372670D01*
X96083102Y-151174362D01*
X96083100Y-151174359D01*
X96083099Y-151174357D01*
X95957599Y-150995124D01*
X95937596Y-150975121D01*
X95802877Y-150840402D01*
X95623639Y-150714898D01*
X95623640Y-150714898D01*
X95623638Y-150714897D01*
X95524484Y-150668661D01*
X95425330Y-150622425D01*
X95425326Y-150622424D01*
X95425322Y-150622422D01*
X95213977Y-150565793D01*
X94996002Y-150546723D01*
X94995998Y-150546723D01*
X94850681Y-150559436D01*
X94778023Y-150565793D01*
X94778020Y-150565793D01*
X94566677Y-150622422D01*
X94566668Y-150622426D01*
X94368361Y-150714898D01*
X94368357Y-150714900D01*
X94189121Y-150840402D01*
X94034402Y-150995121D01*
X93908900Y-151174357D01*
X93908898Y-151174361D01*
X93816426Y-151372668D01*
X93816422Y-151372677D01*
X93759793Y-151584020D01*
X93759793Y-151584024D01*
X93742473Y-151782002D01*
X93740723Y-151802000D01*
X90407527Y-151802000D01*
X90409277Y-151782000D01*
X90390207Y-151564023D01*
X90338934Y-151372670D01*
X90333577Y-151352677D01*
X90333576Y-151352676D01*
X90333575Y-151352670D01*
X90241102Y-151154362D01*
X90241100Y-151154359D01*
X90241099Y-151154357D01*
X90115599Y-150975124D01*
X90115596Y-150975121D01*
X89960877Y-150820402D01*
X89810202Y-150714898D01*
X89781638Y-150694897D01*
X89626222Y-150622426D01*
X89583330Y-150602425D01*
X89583326Y-150602424D01*
X89583322Y-150602422D01*
X89371977Y-150545793D01*
X89154002Y-150526723D01*
X89153998Y-150526723D01*
X89008682Y-150539436D01*
X88936023Y-150545793D01*
X88936020Y-150545793D01*
X88724677Y-150602422D01*
X88724668Y-150602426D01*
X88526361Y-150694898D01*
X88526357Y-150694900D01*
X88347121Y-150820402D01*
X88192402Y-150975121D01*
X88066900Y-151154357D01*
X88066898Y-151154361D01*
X87974426Y-151352668D01*
X87974422Y-151352677D01*
X87917793Y-151564020D01*
X87917793Y-151564024D01*
X87898723Y-151781997D01*
X87898723Y-151782002D01*
X63510500Y-151782002D01*
X63510500Y-146902002D01*
X87898723Y-146902002D01*
X87917793Y-147119975D01*
X87917793Y-147119979D01*
X87974422Y-147331322D01*
X87974424Y-147331326D01*
X87974425Y-147331330D01*
X87983752Y-147351331D01*
X88066897Y-147529638D01*
X88066898Y-147529639D01*
X88192402Y-147708877D01*
X88347123Y-147863598D01*
X88526361Y-147989102D01*
X88724670Y-148081575D01*
X88936023Y-148138207D01*
X89118926Y-148154208D01*
X89153998Y-148157277D01*
X89154000Y-148157277D01*
X89154002Y-148157277D01*
X89182254Y-148154805D01*
X89371977Y-148138207D01*
X89583330Y-148081575D01*
X89781639Y-147989102D01*
X89960877Y-147863598D01*
X90115598Y-147708877D01*
X90241102Y-147529639D01*
X90333575Y-147331330D01*
X90390207Y-147119977D01*
X90407527Y-146922000D01*
X93740723Y-146922000D01*
X93758043Y-147119979D01*
X93759793Y-147139975D01*
X93759793Y-147139979D01*
X93816422Y-147351322D01*
X93816424Y-147351326D01*
X93816425Y-147351330D01*
X93862661Y-147450484D01*
X93908897Y-147549638D01*
X93908898Y-147549639D01*
X94034402Y-147728877D01*
X94189123Y-147883598D01*
X94368361Y-148009102D01*
X94566670Y-148101575D01*
X94778023Y-148158207D01*
X94960926Y-148174208D01*
X94995998Y-148177277D01*
X94996000Y-148177277D01*
X94996002Y-148177277D01*
X95024254Y-148174805D01*
X95213977Y-148158207D01*
X95425330Y-148101575D01*
X95623639Y-148009102D01*
X95802877Y-147883598D01*
X95957598Y-147728877D01*
X96083102Y-147549639D01*
X96175575Y-147351330D01*
X96232207Y-147139977D01*
X96251277Y-146922000D01*
X96249527Y-146902002D01*
X96247569Y-146879618D01*
X96232207Y-146704023D01*
X96175575Y-146492670D01*
X96083102Y-146294362D01*
X96083100Y-146294359D01*
X96083099Y-146294357D01*
X95957599Y-146115124D01*
X95937596Y-146095121D01*
X95802877Y-145960402D01*
X95623639Y-145834898D01*
X95623640Y-145834898D01*
X95623638Y-145834897D01*
X95524484Y-145788661D01*
X95425330Y-145742425D01*
X95425326Y-145742424D01*
X95425322Y-145742422D01*
X95213977Y-145685793D01*
X94996002Y-145666723D01*
X94995998Y-145666723D01*
X94850681Y-145679436D01*
X94778023Y-145685793D01*
X94778020Y-145685793D01*
X94566677Y-145742422D01*
X94566668Y-145742426D01*
X94368361Y-145834898D01*
X94368357Y-145834900D01*
X94189121Y-145960402D01*
X94034402Y-146115121D01*
X93908900Y-146294357D01*
X93908898Y-146294361D01*
X93816426Y-146492668D01*
X93816422Y-146492677D01*
X93759793Y-146704020D01*
X93759793Y-146704024D01*
X93742473Y-146902002D01*
X93740723Y-146922000D01*
X90407527Y-146922000D01*
X90409277Y-146902000D01*
X90390207Y-146684023D01*
X90338934Y-146492670D01*
X90333577Y-146472677D01*
X90333576Y-146472676D01*
X90333575Y-146472670D01*
X90241102Y-146274362D01*
X90241100Y-146274359D01*
X90241099Y-146274357D01*
X90115599Y-146095124D01*
X90115596Y-146095121D01*
X89960877Y-145940402D01*
X89810202Y-145834898D01*
X89781638Y-145814897D01*
X89626222Y-145742426D01*
X89583330Y-145722425D01*
X89583326Y-145722424D01*
X89583322Y-145722422D01*
X89371977Y-145665793D01*
X89154002Y-145646723D01*
X89153998Y-145646723D01*
X89008682Y-145659436D01*
X88936023Y-145665793D01*
X88936020Y-145665793D01*
X88724677Y-145722422D01*
X88724668Y-145722426D01*
X88526361Y-145814898D01*
X88526357Y-145814900D01*
X88347121Y-145940402D01*
X88192402Y-146095121D01*
X88066900Y-146274357D01*
X88066898Y-146274361D01*
X87974426Y-146472668D01*
X87974422Y-146472677D01*
X87917793Y-146684020D01*
X87917793Y-146684024D01*
X87898723Y-146901997D01*
X87898723Y-146902002D01*
X63510500Y-146902002D01*
X63510500Y-137414002D01*
X77484723Y-137414002D01*
X77503793Y-137631975D01*
X77503793Y-137631979D01*
X77560422Y-137843322D01*
X77560424Y-137843326D01*
X77560425Y-137843330D01*
X77606661Y-137942484D01*
X77652897Y-138041638D01*
X77652898Y-138041639D01*
X77778402Y-138220877D01*
X77933123Y-138375598D01*
X78112361Y-138501102D01*
X78310670Y-138593575D01*
X78522023Y-138650207D01*
X78704926Y-138666208D01*
X78739998Y-138669277D01*
X78740000Y-138669277D01*
X78740002Y-138669277D01*
X78768254Y-138666805D01*
X78957977Y-138650207D01*
X79169330Y-138593575D01*
X79367639Y-138501102D01*
X79546877Y-138375598D01*
X79701598Y-138220877D01*
X79827102Y-138041639D01*
X79919575Y-137843330D01*
X79976207Y-137631977D01*
X79995277Y-137414002D01*
X82364723Y-137414002D01*
X82383793Y-137631975D01*
X82383793Y-137631979D01*
X82440422Y-137843322D01*
X82440424Y-137843326D01*
X82440425Y-137843330D01*
X82486661Y-137942484D01*
X82532897Y-138041638D01*
X82532898Y-138041639D01*
X82658402Y-138220877D01*
X82813123Y-138375598D01*
X82992361Y-138501102D01*
X83190670Y-138593575D01*
X83402023Y-138650207D01*
X83584926Y-138666208D01*
X83619998Y-138669277D01*
X83620000Y-138669277D01*
X83620002Y-138669277D01*
X83648254Y-138666805D01*
X83837977Y-138650207D01*
X84049330Y-138593575D01*
X84247639Y-138501102D01*
X84426877Y-138375598D01*
X84581598Y-138220877D01*
X84707102Y-138041639D01*
X84799575Y-137843330D01*
X84856207Y-137631977D01*
X84875277Y-137414000D01*
X84856207Y-137196023D01*
X84799575Y-136984670D01*
X84762890Y-136905999D01*
X108197783Y-136905999D01*
X108216623Y-137145382D01*
X108272674Y-137378853D01*
X108272678Y-137378865D01*
X108364565Y-137600702D01*
X108383732Y-137631979D01*
X108490028Y-137805439D01*
X108645973Y-137988027D01*
X108828561Y-138143972D01*
X108828563Y-138143973D01*
X109033297Y-138269434D01*
X109130047Y-138309508D01*
X109255137Y-138361323D01*
X109488621Y-138417377D01*
X109728000Y-138436217D01*
X109967379Y-138417377D01*
X110200863Y-138361323D01*
X110422704Y-138269433D01*
X110627439Y-138143972D01*
X110810027Y-137988027D01*
X110965972Y-137805439D01*
X111091433Y-137600704D01*
X111183323Y-137378863D01*
X111239377Y-137145379D01*
X111258217Y-136906000D01*
X111239377Y-136666621D01*
X111183323Y-136433137D01*
X111101014Y-136234426D01*
X111091434Y-136211297D01*
X110965973Y-136006563D01*
X110965972Y-136006561D01*
X110810027Y-135823973D01*
X110627439Y-135668028D01*
X110627436Y-135668026D01*
X110422702Y-135542565D01*
X110200865Y-135450678D01*
X110200867Y-135450678D01*
X110200863Y-135450677D01*
X110200859Y-135450676D01*
X110200853Y-135450674D01*
X109967382Y-135394623D01*
X109787844Y-135380492D01*
X109728000Y-135375783D01*
X109727999Y-135375783D01*
X109488617Y-135394623D01*
X109255146Y-135450674D01*
X109255134Y-135450678D01*
X109033297Y-135542565D01*
X108828563Y-135668026D01*
X108645973Y-135823973D01*
X108490026Y-136006563D01*
X108364565Y-136211297D01*
X108272678Y-136433134D01*
X108272674Y-136433146D01*
X108216623Y-136666617D01*
X108197783Y-136905999D01*
X84762890Y-136905999D01*
X84707102Y-136786362D01*
X84707100Y-136786359D01*
X84707099Y-136786357D01*
X84581599Y-136607124D01*
X84581596Y-136607121D01*
X84426877Y-136452402D01*
X84247639Y-136326898D01*
X84247640Y-136326898D01*
X84247638Y-136326897D01*
X84148484Y-136280661D01*
X84049330Y-136234425D01*
X84049326Y-136234424D01*
X84049322Y-136234422D01*
X83837977Y-136177793D01*
X83620002Y-136158723D01*
X83619998Y-136158723D01*
X83474681Y-136171436D01*
X83402023Y-136177793D01*
X83402020Y-136177793D01*
X83190677Y-136234422D01*
X83190668Y-136234426D01*
X82992361Y-136326898D01*
X82992357Y-136326900D01*
X82813121Y-136452402D01*
X82658402Y-136607121D01*
X82532900Y-136786357D01*
X82532898Y-136786361D01*
X82440426Y-136984668D01*
X82440422Y-136984677D01*
X82383793Y-137196020D01*
X82383793Y-137196024D01*
X82364723Y-137413997D01*
X82364723Y-137414002D01*
X79995277Y-137414002D01*
X79995277Y-137414000D01*
X79976207Y-137196023D01*
X79919575Y-136984670D01*
X79827102Y-136786362D01*
X79827100Y-136786359D01*
X79827099Y-136786357D01*
X79701599Y-136607124D01*
X79701596Y-136607121D01*
X79546877Y-136452402D01*
X79367639Y-136326898D01*
X79367640Y-136326898D01*
X79367638Y-136326897D01*
X79268484Y-136280661D01*
X79169330Y-136234425D01*
X79169326Y-136234424D01*
X79169322Y-136234422D01*
X78957977Y-136177793D01*
X78740002Y-136158723D01*
X78739998Y-136158723D01*
X78594681Y-136171436D01*
X78522023Y-136177793D01*
X78522020Y-136177793D01*
X78310677Y-136234422D01*
X78310668Y-136234426D01*
X78112361Y-136326898D01*
X78112357Y-136326900D01*
X77933121Y-136452402D01*
X77778402Y-136607121D01*
X77652900Y-136786357D01*
X77652898Y-136786361D01*
X77560426Y-136984668D01*
X77560422Y-136984677D01*
X77503793Y-137196020D01*
X77503793Y-137196024D01*
X77484723Y-137413997D01*
X77484723Y-137414002D01*
X63510500Y-137414002D01*
X63510500Y-123070500D01*
X63530185Y-123003461D01*
X63582989Y-122957706D01*
X63634500Y-122946500D01*
X128389500Y-122946500D01*
X128456539Y-122966185D01*
G37*
%TD.AperFunction*%
%TD*%
M02*
