%TF.GenerationSoftware,KiCad,Pcbnew,7.0.6-0*%
%TF.CreationDate,2023-12-30T17:27:14-06:00*%
%TF.ProjectId,IF_AND_DEMOD,49465f41-4e44-45f4-9445-4d4f442e6b69,rev?*%
%TF.SameCoordinates,Original*%
%TF.FileFunction,Legend,Top*%
%TF.FilePolarity,Positive*%
%FSLAX46Y46*%
G04 Gerber Fmt 4.6, Leading zero omitted, Abs format (unit mm)*
G04 Created by KiCad (PCBNEW 7.0.6-0) date 2023-12-30 17:27:14*
%MOMM*%
%LPD*%
G01*
G04 APERTURE LIST*
%ADD10C,0.150000*%
%ADD11C,0.120000*%
G04 APERTURE END LIST*
D10*
X111651642Y-154316580D02*
X111604023Y-154364200D01*
X111604023Y-154364200D02*
X111461166Y-154411819D01*
X111461166Y-154411819D02*
X111365928Y-154411819D01*
X111365928Y-154411819D02*
X111223071Y-154364200D01*
X111223071Y-154364200D02*
X111127833Y-154268961D01*
X111127833Y-154268961D02*
X111080214Y-154173723D01*
X111080214Y-154173723D02*
X111032595Y-153983247D01*
X111032595Y-153983247D02*
X111032595Y-153840390D01*
X111032595Y-153840390D02*
X111080214Y-153649914D01*
X111080214Y-153649914D02*
X111127833Y-153554676D01*
X111127833Y-153554676D02*
X111223071Y-153459438D01*
X111223071Y-153459438D02*
X111365928Y-153411819D01*
X111365928Y-153411819D02*
X111461166Y-153411819D01*
X111461166Y-153411819D02*
X111604023Y-153459438D01*
X111604023Y-153459438D02*
X111651642Y-153507057D01*
X112032595Y-153507057D02*
X112080214Y-153459438D01*
X112080214Y-153459438D02*
X112175452Y-153411819D01*
X112175452Y-153411819D02*
X112413547Y-153411819D01*
X112413547Y-153411819D02*
X112508785Y-153459438D01*
X112508785Y-153459438D02*
X112556404Y-153507057D01*
X112556404Y-153507057D02*
X112604023Y-153602295D01*
X112604023Y-153602295D02*
X112604023Y-153697533D01*
X112604023Y-153697533D02*
X112556404Y-153840390D01*
X112556404Y-153840390D02*
X111984976Y-154411819D01*
X111984976Y-154411819D02*
X112604023Y-154411819D01*
X112937357Y-153411819D02*
X113604023Y-153411819D01*
X113604023Y-153411819D02*
X113175452Y-154411819D01*
X87717333Y-167840819D02*
X87384000Y-167364628D01*
X87145905Y-167840819D02*
X87145905Y-166840819D01*
X87145905Y-166840819D02*
X87526857Y-166840819D01*
X87526857Y-166840819D02*
X87622095Y-166888438D01*
X87622095Y-166888438D02*
X87669714Y-166936057D01*
X87669714Y-166936057D02*
X87717333Y-167031295D01*
X87717333Y-167031295D02*
X87717333Y-167174152D01*
X87717333Y-167174152D02*
X87669714Y-167269390D01*
X87669714Y-167269390D02*
X87622095Y-167317009D01*
X87622095Y-167317009D02*
X87526857Y-167364628D01*
X87526857Y-167364628D02*
X87145905Y-167364628D01*
X88193524Y-167840819D02*
X88384000Y-167840819D01*
X88384000Y-167840819D02*
X88479238Y-167793200D01*
X88479238Y-167793200D02*
X88526857Y-167745580D01*
X88526857Y-167745580D02*
X88622095Y-167602723D01*
X88622095Y-167602723D02*
X88669714Y-167412247D01*
X88669714Y-167412247D02*
X88669714Y-167031295D01*
X88669714Y-167031295D02*
X88622095Y-166936057D01*
X88622095Y-166936057D02*
X88574476Y-166888438D01*
X88574476Y-166888438D02*
X88479238Y-166840819D01*
X88479238Y-166840819D02*
X88288762Y-166840819D01*
X88288762Y-166840819D02*
X88193524Y-166888438D01*
X88193524Y-166888438D02*
X88145905Y-166936057D01*
X88145905Y-166936057D02*
X88098286Y-167031295D01*
X88098286Y-167031295D02*
X88098286Y-167269390D01*
X88098286Y-167269390D02*
X88145905Y-167364628D01*
X88145905Y-167364628D02*
X88193524Y-167412247D01*
X88193524Y-167412247D02*
X88288762Y-167459866D01*
X88288762Y-167459866D02*
X88479238Y-167459866D01*
X88479238Y-167459866D02*
X88574476Y-167412247D01*
X88574476Y-167412247D02*
X88622095Y-167364628D01*
X88622095Y-167364628D02*
X88669714Y-167269390D01*
X71955819Y-166608357D02*
X71479628Y-166941690D01*
X71955819Y-167179785D02*
X70955819Y-167179785D01*
X70955819Y-167179785D02*
X70955819Y-166798833D01*
X70955819Y-166798833D02*
X71003438Y-166703595D01*
X71003438Y-166703595D02*
X71051057Y-166655976D01*
X71051057Y-166655976D02*
X71146295Y-166608357D01*
X71146295Y-166608357D02*
X71289152Y-166608357D01*
X71289152Y-166608357D02*
X71384390Y-166655976D01*
X71384390Y-166655976D02*
X71432009Y-166703595D01*
X71432009Y-166703595D02*
X71479628Y-166798833D01*
X71479628Y-166798833D02*
X71479628Y-167179785D01*
X71955819Y-165655976D02*
X71955819Y-166227404D01*
X71955819Y-165941690D02*
X70955819Y-165941690D01*
X70955819Y-165941690D02*
X71098676Y-166036928D01*
X71098676Y-166036928D02*
X71193914Y-166132166D01*
X71193914Y-166132166D02*
X71241533Y-166227404D01*
X70955819Y-164798833D02*
X70955819Y-164989309D01*
X70955819Y-164989309D02*
X71003438Y-165084547D01*
X71003438Y-165084547D02*
X71051057Y-165132166D01*
X71051057Y-165132166D02*
X71193914Y-165227404D01*
X71193914Y-165227404D02*
X71384390Y-165275023D01*
X71384390Y-165275023D02*
X71765342Y-165275023D01*
X71765342Y-165275023D02*
X71860580Y-165227404D01*
X71860580Y-165227404D02*
X71908200Y-165179785D01*
X71908200Y-165179785D02*
X71955819Y-165084547D01*
X71955819Y-165084547D02*
X71955819Y-164894071D01*
X71955819Y-164894071D02*
X71908200Y-164798833D01*
X71908200Y-164798833D02*
X71860580Y-164751214D01*
X71860580Y-164751214D02*
X71765342Y-164703595D01*
X71765342Y-164703595D02*
X71527247Y-164703595D01*
X71527247Y-164703595D02*
X71432009Y-164751214D01*
X71432009Y-164751214D02*
X71384390Y-164798833D01*
X71384390Y-164798833D02*
X71336771Y-164894071D01*
X71336771Y-164894071D02*
X71336771Y-165084547D01*
X71336771Y-165084547D02*
X71384390Y-165179785D01*
X71384390Y-165179785D02*
X71432009Y-165227404D01*
X71432009Y-165227404D02*
X71527247Y-165275023D01*
X106245819Y-148185094D02*
X105245819Y-148185094D01*
X105245819Y-148185094D02*
X105245819Y-147946999D01*
X105245819Y-147946999D02*
X105293438Y-147804142D01*
X105293438Y-147804142D02*
X105388676Y-147708904D01*
X105388676Y-147708904D02*
X105483914Y-147661285D01*
X105483914Y-147661285D02*
X105674390Y-147613666D01*
X105674390Y-147613666D02*
X105817247Y-147613666D01*
X105817247Y-147613666D02*
X106007723Y-147661285D01*
X106007723Y-147661285D02*
X106102961Y-147708904D01*
X106102961Y-147708904D02*
X106198200Y-147804142D01*
X106198200Y-147804142D02*
X106245819Y-147946999D01*
X106245819Y-147946999D02*
X106245819Y-148185094D01*
X105579152Y-146756523D02*
X106245819Y-146756523D01*
X105198200Y-146994618D02*
X105912485Y-147232713D01*
X105912485Y-147232713D02*
X105912485Y-146613666D01*
X105554142Y-182604580D02*
X105506523Y-182652200D01*
X105506523Y-182652200D02*
X105363666Y-182699819D01*
X105363666Y-182699819D02*
X105268428Y-182699819D01*
X105268428Y-182699819D02*
X105125571Y-182652200D01*
X105125571Y-182652200D02*
X105030333Y-182556961D01*
X105030333Y-182556961D02*
X104982714Y-182461723D01*
X104982714Y-182461723D02*
X104935095Y-182271247D01*
X104935095Y-182271247D02*
X104935095Y-182128390D01*
X104935095Y-182128390D02*
X104982714Y-181937914D01*
X104982714Y-181937914D02*
X105030333Y-181842676D01*
X105030333Y-181842676D02*
X105125571Y-181747438D01*
X105125571Y-181747438D02*
X105268428Y-181699819D01*
X105268428Y-181699819D02*
X105363666Y-181699819D01*
X105363666Y-181699819D02*
X105506523Y-181747438D01*
X105506523Y-181747438D02*
X105554142Y-181795057D01*
X105935095Y-181795057D02*
X105982714Y-181747438D01*
X105982714Y-181747438D02*
X106077952Y-181699819D01*
X106077952Y-181699819D02*
X106316047Y-181699819D01*
X106316047Y-181699819D02*
X106411285Y-181747438D01*
X106411285Y-181747438D02*
X106458904Y-181795057D01*
X106458904Y-181795057D02*
X106506523Y-181890295D01*
X106506523Y-181890295D02*
X106506523Y-181985533D01*
X106506523Y-181985533D02*
X106458904Y-182128390D01*
X106458904Y-182128390D02*
X105887476Y-182699819D01*
X105887476Y-182699819D02*
X106506523Y-182699819D01*
X106982714Y-182699819D02*
X107173190Y-182699819D01*
X107173190Y-182699819D02*
X107268428Y-182652200D01*
X107268428Y-182652200D02*
X107316047Y-182604580D01*
X107316047Y-182604580D02*
X107411285Y-182461723D01*
X107411285Y-182461723D02*
X107458904Y-182271247D01*
X107458904Y-182271247D02*
X107458904Y-181890295D01*
X107458904Y-181890295D02*
X107411285Y-181795057D01*
X107411285Y-181795057D02*
X107363666Y-181747438D01*
X107363666Y-181747438D02*
X107268428Y-181699819D01*
X107268428Y-181699819D02*
X107077952Y-181699819D01*
X107077952Y-181699819D02*
X106982714Y-181747438D01*
X106982714Y-181747438D02*
X106935095Y-181795057D01*
X106935095Y-181795057D02*
X106887476Y-181890295D01*
X106887476Y-181890295D02*
X106887476Y-182128390D01*
X106887476Y-182128390D02*
X106935095Y-182223628D01*
X106935095Y-182223628D02*
X106982714Y-182271247D01*
X106982714Y-182271247D02*
X107077952Y-182318866D01*
X107077952Y-182318866D02*
X107268428Y-182318866D01*
X107268428Y-182318866D02*
X107363666Y-182271247D01*
X107363666Y-182271247D02*
X107411285Y-182223628D01*
X107411285Y-182223628D02*
X107458904Y-182128390D01*
X83050142Y-167078819D02*
X82716809Y-166602628D01*
X82478714Y-167078819D02*
X82478714Y-166078819D01*
X82478714Y-166078819D02*
X82859666Y-166078819D01*
X82859666Y-166078819D02*
X82954904Y-166126438D01*
X82954904Y-166126438D02*
X83002523Y-166174057D01*
X83002523Y-166174057D02*
X83050142Y-166269295D01*
X83050142Y-166269295D02*
X83050142Y-166412152D01*
X83050142Y-166412152D02*
X83002523Y-166507390D01*
X83002523Y-166507390D02*
X82954904Y-166555009D01*
X82954904Y-166555009D02*
X82859666Y-166602628D01*
X82859666Y-166602628D02*
X82478714Y-166602628D01*
X84002523Y-167078819D02*
X83431095Y-167078819D01*
X83716809Y-167078819D02*
X83716809Y-166078819D01*
X83716809Y-166078819D02*
X83621571Y-166221676D01*
X83621571Y-166221676D02*
X83526333Y-166316914D01*
X83526333Y-166316914D02*
X83431095Y-166364533D01*
X84335857Y-166078819D02*
X84954904Y-166078819D01*
X84954904Y-166078819D02*
X84621571Y-166459771D01*
X84621571Y-166459771D02*
X84764428Y-166459771D01*
X84764428Y-166459771D02*
X84859666Y-166507390D01*
X84859666Y-166507390D02*
X84907285Y-166555009D01*
X84907285Y-166555009D02*
X84954904Y-166650247D01*
X84954904Y-166650247D02*
X84954904Y-166888342D01*
X84954904Y-166888342D02*
X84907285Y-166983580D01*
X84907285Y-166983580D02*
X84859666Y-167031200D01*
X84859666Y-167031200D02*
X84764428Y-167078819D01*
X84764428Y-167078819D02*
X84478714Y-167078819D01*
X84478714Y-167078819D02*
X84383476Y-167031200D01*
X84383476Y-167031200D02*
X84335857Y-166983580D01*
X111865580Y-150502857D02*
X111913200Y-150550476D01*
X111913200Y-150550476D02*
X111960819Y-150693333D01*
X111960819Y-150693333D02*
X111960819Y-150788571D01*
X111960819Y-150788571D02*
X111913200Y-150931428D01*
X111913200Y-150931428D02*
X111817961Y-151026666D01*
X111817961Y-151026666D02*
X111722723Y-151074285D01*
X111722723Y-151074285D02*
X111532247Y-151121904D01*
X111532247Y-151121904D02*
X111389390Y-151121904D01*
X111389390Y-151121904D02*
X111198914Y-151074285D01*
X111198914Y-151074285D02*
X111103676Y-151026666D01*
X111103676Y-151026666D02*
X111008438Y-150931428D01*
X111008438Y-150931428D02*
X110960819Y-150788571D01*
X110960819Y-150788571D02*
X110960819Y-150693333D01*
X110960819Y-150693333D02*
X111008438Y-150550476D01*
X111008438Y-150550476D02*
X111056057Y-150502857D01*
X111056057Y-150121904D02*
X111008438Y-150074285D01*
X111008438Y-150074285D02*
X110960819Y-149979047D01*
X110960819Y-149979047D02*
X110960819Y-149740952D01*
X110960819Y-149740952D02*
X111008438Y-149645714D01*
X111008438Y-149645714D02*
X111056057Y-149598095D01*
X111056057Y-149598095D02*
X111151295Y-149550476D01*
X111151295Y-149550476D02*
X111246533Y-149550476D01*
X111246533Y-149550476D02*
X111389390Y-149598095D01*
X111389390Y-149598095D02*
X111960819Y-150169523D01*
X111960819Y-150169523D02*
X111960819Y-149550476D01*
X110960819Y-148693333D02*
X110960819Y-148883809D01*
X110960819Y-148883809D02*
X111008438Y-148979047D01*
X111008438Y-148979047D02*
X111056057Y-149026666D01*
X111056057Y-149026666D02*
X111198914Y-149121904D01*
X111198914Y-149121904D02*
X111389390Y-149169523D01*
X111389390Y-149169523D02*
X111770342Y-149169523D01*
X111770342Y-149169523D02*
X111865580Y-149121904D01*
X111865580Y-149121904D02*
X111913200Y-149074285D01*
X111913200Y-149074285D02*
X111960819Y-148979047D01*
X111960819Y-148979047D02*
X111960819Y-148788571D01*
X111960819Y-148788571D02*
X111913200Y-148693333D01*
X111913200Y-148693333D02*
X111865580Y-148645714D01*
X111865580Y-148645714D02*
X111770342Y-148598095D01*
X111770342Y-148598095D02*
X111532247Y-148598095D01*
X111532247Y-148598095D02*
X111437009Y-148645714D01*
X111437009Y-148645714D02*
X111389390Y-148693333D01*
X111389390Y-148693333D02*
X111341771Y-148788571D01*
X111341771Y-148788571D02*
X111341771Y-148979047D01*
X111341771Y-148979047D02*
X111389390Y-149074285D01*
X111389390Y-149074285D02*
X111437009Y-149121904D01*
X111437009Y-149121904D02*
X111532247Y-149169523D01*
X94688819Y-133620166D02*
X94212628Y-133953499D01*
X94688819Y-134191594D02*
X93688819Y-134191594D01*
X93688819Y-134191594D02*
X93688819Y-133810642D01*
X93688819Y-133810642D02*
X93736438Y-133715404D01*
X93736438Y-133715404D02*
X93784057Y-133667785D01*
X93784057Y-133667785D02*
X93879295Y-133620166D01*
X93879295Y-133620166D02*
X94022152Y-133620166D01*
X94022152Y-133620166D02*
X94117390Y-133667785D01*
X94117390Y-133667785D02*
X94165009Y-133715404D01*
X94165009Y-133715404D02*
X94212628Y-133810642D01*
X94212628Y-133810642D02*
X94212628Y-134191594D01*
X94022152Y-132763023D02*
X94688819Y-132763023D01*
X93641200Y-133001118D02*
X94355485Y-133239213D01*
X94355485Y-133239213D02*
X94355485Y-132620166D01*
X94339580Y-165996857D02*
X94387200Y-166044476D01*
X94387200Y-166044476D02*
X94434819Y-166187333D01*
X94434819Y-166187333D02*
X94434819Y-166282571D01*
X94434819Y-166282571D02*
X94387200Y-166425428D01*
X94387200Y-166425428D02*
X94291961Y-166520666D01*
X94291961Y-166520666D02*
X94196723Y-166568285D01*
X94196723Y-166568285D02*
X94006247Y-166615904D01*
X94006247Y-166615904D02*
X93863390Y-166615904D01*
X93863390Y-166615904D02*
X93672914Y-166568285D01*
X93672914Y-166568285D02*
X93577676Y-166520666D01*
X93577676Y-166520666D02*
X93482438Y-166425428D01*
X93482438Y-166425428D02*
X93434819Y-166282571D01*
X93434819Y-166282571D02*
X93434819Y-166187333D01*
X93434819Y-166187333D02*
X93482438Y-166044476D01*
X93482438Y-166044476D02*
X93530057Y-165996857D01*
X93530057Y-165615904D02*
X93482438Y-165568285D01*
X93482438Y-165568285D02*
X93434819Y-165473047D01*
X93434819Y-165473047D02*
X93434819Y-165234952D01*
X93434819Y-165234952D02*
X93482438Y-165139714D01*
X93482438Y-165139714D02*
X93530057Y-165092095D01*
X93530057Y-165092095D02*
X93625295Y-165044476D01*
X93625295Y-165044476D02*
X93720533Y-165044476D01*
X93720533Y-165044476D02*
X93863390Y-165092095D01*
X93863390Y-165092095D02*
X94434819Y-165663523D01*
X94434819Y-165663523D02*
X94434819Y-165044476D01*
X94434819Y-164092095D02*
X94434819Y-164663523D01*
X94434819Y-164377809D02*
X93434819Y-164377809D01*
X93434819Y-164377809D02*
X93577676Y-164473047D01*
X93577676Y-164473047D02*
X93672914Y-164568285D01*
X93672914Y-164568285D02*
X93720533Y-164663523D01*
X98298095Y-156201819D02*
X98298095Y-157011342D01*
X98298095Y-157011342D02*
X98345714Y-157106580D01*
X98345714Y-157106580D02*
X98393333Y-157154200D01*
X98393333Y-157154200D02*
X98488571Y-157201819D01*
X98488571Y-157201819D02*
X98679047Y-157201819D01*
X98679047Y-157201819D02*
X98774285Y-157154200D01*
X98774285Y-157154200D02*
X98821904Y-157106580D01*
X98821904Y-157106580D02*
X98869523Y-157011342D01*
X98869523Y-157011342D02*
X98869523Y-156201819D01*
X99821904Y-156201819D02*
X99345714Y-156201819D01*
X99345714Y-156201819D02*
X99298095Y-156678009D01*
X99298095Y-156678009D02*
X99345714Y-156630390D01*
X99345714Y-156630390D02*
X99440952Y-156582771D01*
X99440952Y-156582771D02*
X99679047Y-156582771D01*
X99679047Y-156582771D02*
X99774285Y-156630390D01*
X99774285Y-156630390D02*
X99821904Y-156678009D01*
X99821904Y-156678009D02*
X99869523Y-156773247D01*
X99869523Y-156773247D02*
X99869523Y-157011342D01*
X99869523Y-157011342D02*
X99821904Y-157106580D01*
X99821904Y-157106580D02*
X99774285Y-157154200D01*
X99774285Y-157154200D02*
X99679047Y-157201819D01*
X99679047Y-157201819D02*
X99440952Y-157201819D01*
X99440952Y-157201819D02*
X99345714Y-157154200D01*
X99345714Y-157154200D02*
X99298095Y-157106580D01*
X103737580Y-153958357D02*
X103785200Y-154005976D01*
X103785200Y-154005976D02*
X103832819Y-154148833D01*
X103832819Y-154148833D02*
X103832819Y-154244071D01*
X103832819Y-154244071D02*
X103785200Y-154386928D01*
X103785200Y-154386928D02*
X103689961Y-154482166D01*
X103689961Y-154482166D02*
X103594723Y-154529785D01*
X103594723Y-154529785D02*
X103404247Y-154577404D01*
X103404247Y-154577404D02*
X103261390Y-154577404D01*
X103261390Y-154577404D02*
X103070914Y-154529785D01*
X103070914Y-154529785D02*
X102975676Y-154482166D01*
X102975676Y-154482166D02*
X102880438Y-154386928D01*
X102880438Y-154386928D02*
X102832819Y-154244071D01*
X102832819Y-154244071D02*
X102832819Y-154148833D01*
X102832819Y-154148833D02*
X102880438Y-154005976D01*
X102880438Y-154005976D02*
X102928057Y-153958357D01*
X102928057Y-153577404D02*
X102880438Y-153529785D01*
X102880438Y-153529785D02*
X102832819Y-153434547D01*
X102832819Y-153434547D02*
X102832819Y-153196452D01*
X102832819Y-153196452D02*
X102880438Y-153101214D01*
X102880438Y-153101214D02*
X102928057Y-153053595D01*
X102928057Y-153053595D02*
X103023295Y-153005976D01*
X103023295Y-153005976D02*
X103118533Y-153005976D01*
X103118533Y-153005976D02*
X103261390Y-153053595D01*
X103261390Y-153053595D02*
X103832819Y-153625023D01*
X103832819Y-153625023D02*
X103832819Y-153005976D01*
X103261390Y-152434547D02*
X103213771Y-152529785D01*
X103213771Y-152529785D02*
X103166152Y-152577404D01*
X103166152Y-152577404D02*
X103070914Y-152625023D01*
X103070914Y-152625023D02*
X103023295Y-152625023D01*
X103023295Y-152625023D02*
X102928057Y-152577404D01*
X102928057Y-152577404D02*
X102880438Y-152529785D01*
X102880438Y-152529785D02*
X102832819Y-152434547D01*
X102832819Y-152434547D02*
X102832819Y-152244071D01*
X102832819Y-152244071D02*
X102880438Y-152148833D01*
X102880438Y-152148833D02*
X102928057Y-152101214D01*
X102928057Y-152101214D02*
X103023295Y-152053595D01*
X103023295Y-152053595D02*
X103070914Y-152053595D01*
X103070914Y-152053595D02*
X103166152Y-152101214D01*
X103166152Y-152101214D02*
X103213771Y-152148833D01*
X103213771Y-152148833D02*
X103261390Y-152244071D01*
X103261390Y-152244071D02*
X103261390Y-152434547D01*
X103261390Y-152434547D02*
X103309009Y-152529785D01*
X103309009Y-152529785D02*
X103356628Y-152577404D01*
X103356628Y-152577404D02*
X103451866Y-152625023D01*
X103451866Y-152625023D02*
X103642342Y-152625023D01*
X103642342Y-152625023D02*
X103737580Y-152577404D01*
X103737580Y-152577404D02*
X103785200Y-152529785D01*
X103785200Y-152529785D02*
X103832819Y-152434547D01*
X103832819Y-152434547D02*
X103832819Y-152244071D01*
X103832819Y-152244071D02*
X103785200Y-152148833D01*
X103785200Y-152148833D02*
X103737580Y-152101214D01*
X103737580Y-152101214D02*
X103642342Y-152053595D01*
X103642342Y-152053595D02*
X103451866Y-152053595D01*
X103451866Y-152053595D02*
X103356628Y-152101214D01*
X103356628Y-152101214D02*
X103309009Y-152148833D01*
X103309009Y-152148833D02*
X103261390Y-152244071D01*
X100435580Y-131706857D02*
X100483200Y-131754476D01*
X100483200Y-131754476D02*
X100530819Y-131897333D01*
X100530819Y-131897333D02*
X100530819Y-131992571D01*
X100530819Y-131992571D02*
X100483200Y-132135428D01*
X100483200Y-132135428D02*
X100387961Y-132230666D01*
X100387961Y-132230666D02*
X100292723Y-132278285D01*
X100292723Y-132278285D02*
X100102247Y-132325904D01*
X100102247Y-132325904D02*
X99959390Y-132325904D01*
X99959390Y-132325904D02*
X99768914Y-132278285D01*
X99768914Y-132278285D02*
X99673676Y-132230666D01*
X99673676Y-132230666D02*
X99578438Y-132135428D01*
X99578438Y-132135428D02*
X99530819Y-131992571D01*
X99530819Y-131992571D02*
X99530819Y-131897333D01*
X99530819Y-131897333D02*
X99578438Y-131754476D01*
X99578438Y-131754476D02*
X99626057Y-131706857D01*
X100530819Y-130754476D02*
X100530819Y-131325904D01*
X100530819Y-131040190D02*
X99530819Y-131040190D01*
X99530819Y-131040190D02*
X99673676Y-131135428D01*
X99673676Y-131135428D02*
X99768914Y-131230666D01*
X99768914Y-131230666D02*
X99816533Y-131325904D01*
X99530819Y-129849714D02*
X99530819Y-130325904D01*
X99530819Y-130325904D02*
X100007009Y-130373523D01*
X100007009Y-130373523D02*
X99959390Y-130325904D01*
X99959390Y-130325904D02*
X99911771Y-130230666D01*
X99911771Y-130230666D02*
X99911771Y-129992571D01*
X99911771Y-129992571D02*
X99959390Y-129897333D01*
X99959390Y-129897333D02*
X100007009Y-129849714D01*
X100007009Y-129849714D02*
X100102247Y-129802095D01*
X100102247Y-129802095D02*
X100340342Y-129802095D01*
X100340342Y-129802095D02*
X100435580Y-129849714D01*
X100435580Y-129849714D02*
X100483200Y-129897333D01*
X100483200Y-129897333D02*
X100530819Y-129992571D01*
X100530819Y-129992571D02*
X100530819Y-130230666D01*
X100530819Y-130230666D02*
X100483200Y-130325904D01*
X100483200Y-130325904D02*
X100435580Y-130373523D01*
X104105642Y-164951580D02*
X104058023Y-164999200D01*
X104058023Y-164999200D02*
X103915166Y-165046819D01*
X103915166Y-165046819D02*
X103819928Y-165046819D01*
X103819928Y-165046819D02*
X103677071Y-164999200D01*
X103677071Y-164999200D02*
X103581833Y-164903961D01*
X103581833Y-164903961D02*
X103534214Y-164808723D01*
X103534214Y-164808723D02*
X103486595Y-164618247D01*
X103486595Y-164618247D02*
X103486595Y-164475390D01*
X103486595Y-164475390D02*
X103534214Y-164284914D01*
X103534214Y-164284914D02*
X103581833Y-164189676D01*
X103581833Y-164189676D02*
X103677071Y-164094438D01*
X103677071Y-164094438D02*
X103819928Y-164046819D01*
X103819928Y-164046819D02*
X103915166Y-164046819D01*
X103915166Y-164046819D02*
X104058023Y-164094438D01*
X104058023Y-164094438D02*
X104105642Y-164142057D01*
X104486595Y-164142057D02*
X104534214Y-164094438D01*
X104534214Y-164094438D02*
X104629452Y-164046819D01*
X104629452Y-164046819D02*
X104867547Y-164046819D01*
X104867547Y-164046819D02*
X104962785Y-164094438D01*
X104962785Y-164094438D02*
X105010404Y-164142057D01*
X105010404Y-164142057D02*
X105058023Y-164237295D01*
X105058023Y-164237295D02*
X105058023Y-164332533D01*
X105058023Y-164332533D02*
X105010404Y-164475390D01*
X105010404Y-164475390D02*
X104438976Y-165046819D01*
X104438976Y-165046819D02*
X105058023Y-165046819D01*
X105915166Y-164380152D02*
X105915166Y-165046819D01*
X105677071Y-163999200D02*
X105438976Y-164713485D01*
X105438976Y-164713485D02*
X106058023Y-164713485D01*
X83653333Y-160220819D02*
X83320000Y-159744628D01*
X83081905Y-160220819D02*
X83081905Y-159220819D01*
X83081905Y-159220819D02*
X83462857Y-159220819D01*
X83462857Y-159220819D02*
X83558095Y-159268438D01*
X83558095Y-159268438D02*
X83605714Y-159316057D01*
X83605714Y-159316057D02*
X83653333Y-159411295D01*
X83653333Y-159411295D02*
X83653333Y-159554152D01*
X83653333Y-159554152D02*
X83605714Y-159649390D01*
X83605714Y-159649390D02*
X83558095Y-159697009D01*
X83558095Y-159697009D02*
X83462857Y-159744628D01*
X83462857Y-159744628D02*
X83081905Y-159744628D01*
X83986667Y-159220819D02*
X84653333Y-159220819D01*
X84653333Y-159220819D02*
X84224762Y-160220819D01*
X78591580Y-160186666D02*
X78639200Y-160234285D01*
X78639200Y-160234285D02*
X78686819Y-160377142D01*
X78686819Y-160377142D02*
X78686819Y-160472380D01*
X78686819Y-160472380D02*
X78639200Y-160615237D01*
X78639200Y-160615237D02*
X78543961Y-160710475D01*
X78543961Y-160710475D02*
X78448723Y-160758094D01*
X78448723Y-160758094D02*
X78258247Y-160805713D01*
X78258247Y-160805713D02*
X78115390Y-160805713D01*
X78115390Y-160805713D02*
X77924914Y-160758094D01*
X77924914Y-160758094D02*
X77829676Y-160710475D01*
X77829676Y-160710475D02*
X77734438Y-160615237D01*
X77734438Y-160615237D02*
X77686819Y-160472380D01*
X77686819Y-160472380D02*
X77686819Y-160377142D01*
X77686819Y-160377142D02*
X77734438Y-160234285D01*
X77734438Y-160234285D02*
X77782057Y-160186666D01*
X77686819Y-159329523D02*
X77686819Y-159519999D01*
X77686819Y-159519999D02*
X77734438Y-159615237D01*
X77734438Y-159615237D02*
X77782057Y-159662856D01*
X77782057Y-159662856D02*
X77924914Y-159758094D01*
X77924914Y-159758094D02*
X78115390Y-159805713D01*
X78115390Y-159805713D02*
X78496342Y-159805713D01*
X78496342Y-159805713D02*
X78591580Y-159758094D01*
X78591580Y-159758094D02*
X78639200Y-159710475D01*
X78639200Y-159710475D02*
X78686819Y-159615237D01*
X78686819Y-159615237D02*
X78686819Y-159424761D01*
X78686819Y-159424761D02*
X78639200Y-159329523D01*
X78639200Y-159329523D02*
X78591580Y-159281904D01*
X78591580Y-159281904D02*
X78496342Y-159234285D01*
X78496342Y-159234285D02*
X78258247Y-159234285D01*
X78258247Y-159234285D02*
X78163009Y-159281904D01*
X78163009Y-159281904D02*
X78115390Y-159329523D01*
X78115390Y-159329523D02*
X78067771Y-159424761D01*
X78067771Y-159424761D02*
X78067771Y-159615237D01*
X78067771Y-159615237D02*
X78115390Y-159710475D01*
X78115390Y-159710475D02*
X78163009Y-159758094D01*
X78163009Y-159758094D02*
X78258247Y-159805713D01*
X87717333Y-166062819D02*
X87384000Y-165586628D01*
X87145905Y-166062819D02*
X87145905Y-165062819D01*
X87145905Y-165062819D02*
X87526857Y-165062819D01*
X87526857Y-165062819D02*
X87622095Y-165110438D01*
X87622095Y-165110438D02*
X87669714Y-165158057D01*
X87669714Y-165158057D02*
X87717333Y-165253295D01*
X87717333Y-165253295D02*
X87717333Y-165396152D01*
X87717333Y-165396152D02*
X87669714Y-165491390D01*
X87669714Y-165491390D02*
X87622095Y-165539009D01*
X87622095Y-165539009D02*
X87526857Y-165586628D01*
X87526857Y-165586628D02*
X87145905Y-165586628D01*
X88288762Y-165491390D02*
X88193524Y-165443771D01*
X88193524Y-165443771D02*
X88145905Y-165396152D01*
X88145905Y-165396152D02*
X88098286Y-165300914D01*
X88098286Y-165300914D02*
X88098286Y-165253295D01*
X88098286Y-165253295D02*
X88145905Y-165158057D01*
X88145905Y-165158057D02*
X88193524Y-165110438D01*
X88193524Y-165110438D02*
X88288762Y-165062819D01*
X88288762Y-165062819D02*
X88479238Y-165062819D01*
X88479238Y-165062819D02*
X88574476Y-165110438D01*
X88574476Y-165110438D02*
X88622095Y-165158057D01*
X88622095Y-165158057D02*
X88669714Y-165253295D01*
X88669714Y-165253295D02*
X88669714Y-165300914D01*
X88669714Y-165300914D02*
X88622095Y-165396152D01*
X88622095Y-165396152D02*
X88574476Y-165443771D01*
X88574476Y-165443771D02*
X88479238Y-165491390D01*
X88479238Y-165491390D02*
X88288762Y-165491390D01*
X88288762Y-165491390D02*
X88193524Y-165539009D01*
X88193524Y-165539009D02*
X88145905Y-165586628D01*
X88145905Y-165586628D02*
X88098286Y-165681866D01*
X88098286Y-165681866D02*
X88098286Y-165872342D01*
X88098286Y-165872342D02*
X88145905Y-165967580D01*
X88145905Y-165967580D02*
X88193524Y-166015200D01*
X88193524Y-166015200D02*
X88288762Y-166062819D01*
X88288762Y-166062819D02*
X88479238Y-166062819D01*
X88479238Y-166062819D02*
X88574476Y-166015200D01*
X88574476Y-166015200D02*
X88622095Y-165967580D01*
X88622095Y-165967580D02*
X88669714Y-165872342D01*
X88669714Y-165872342D02*
X88669714Y-165681866D01*
X88669714Y-165681866D02*
X88622095Y-165586628D01*
X88622095Y-165586628D02*
X88574476Y-165539009D01*
X88574476Y-165539009D02*
X88479238Y-165491390D01*
X80115580Y-160186666D02*
X80163200Y-160234285D01*
X80163200Y-160234285D02*
X80210819Y-160377142D01*
X80210819Y-160377142D02*
X80210819Y-160472380D01*
X80210819Y-160472380D02*
X80163200Y-160615237D01*
X80163200Y-160615237D02*
X80067961Y-160710475D01*
X80067961Y-160710475D02*
X79972723Y-160758094D01*
X79972723Y-160758094D02*
X79782247Y-160805713D01*
X79782247Y-160805713D02*
X79639390Y-160805713D01*
X79639390Y-160805713D02*
X79448914Y-160758094D01*
X79448914Y-160758094D02*
X79353676Y-160710475D01*
X79353676Y-160710475D02*
X79258438Y-160615237D01*
X79258438Y-160615237D02*
X79210819Y-160472380D01*
X79210819Y-160472380D02*
X79210819Y-160377142D01*
X79210819Y-160377142D02*
X79258438Y-160234285D01*
X79258438Y-160234285D02*
X79306057Y-160186666D01*
X79210819Y-159281904D02*
X79210819Y-159758094D01*
X79210819Y-159758094D02*
X79687009Y-159805713D01*
X79687009Y-159805713D02*
X79639390Y-159758094D01*
X79639390Y-159758094D02*
X79591771Y-159662856D01*
X79591771Y-159662856D02*
X79591771Y-159424761D01*
X79591771Y-159424761D02*
X79639390Y-159329523D01*
X79639390Y-159329523D02*
X79687009Y-159281904D01*
X79687009Y-159281904D02*
X79782247Y-159234285D01*
X79782247Y-159234285D02*
X80020342Y-159234285D01*
X80020342Y-159234285D02*
X80115580Y-159281904D01*
X80115580Y-159281904D02*
X80163200Y-159329523D01*
X80163200Y-159329523D02*
X80210819Y-159424761D01*
X80210819Y-159424761D02*
X80210819Y-159662856D01*
X80210819Y-159662856D02*
X80163200Y-159758094D01*
X80163200Y-159758094D02*
X80115580Y-159805713D01*
X94339580Y-156344857D02*
X94387200Y-156392476D01*
X94387200Y-156392476D02*
X94434819Y-156535333D01*
X94434819Y-156535333D02*
X94434819Y-156630571D01*
X94434819Y-156630571D02*
X94387200Y-156773428D01*
X94387200Y-156773428D02*
X94291961Y-156868666D01*
X94291961Y-156868666D02*
X94196723Y-156916285D01*
X94196723Y-156916285D02*
X94006247Y-156963904D01*
X94006247Y-156963904D02*
X93863390Y-156963904D01*
X93863390Y-156963904D02*
X93672914Y-156916285D01*
X93672914Y-156916285D02*
X93577676Y-156868666D01*
X93577676Y-156868666D02*
X93482438Y-156773428D01*
X93482438Y-156773428D02*
X93434819Y-156630571D01*
X93434819Y-156630571D02*
X93434819Y-156535333D01*
X93434819Y-156535333D02*
X93482438Y-156392476D01*
X93482438Y-156392476D02*
X93530057Y-156344857D01*
X93530057Y-155963904D02*
X93482438Y-155916285D01*
X93482438Y-155916285D02*
X93434819Y-155821047D01*
X93434819Y-155821047D02*
X93434819Y-155582952D01*
X93434819Y-155582952D02*
X93482438Y-155487714D01*
X93482438Y-155487714D02*
X93530057Y-155440095D01*
X93530057Y-155440095D02*
X93625295Y-155392476D01*
X93625295Y-155392476D02*
X93720533Y-155392476D01*
X93720533Y-155392476D02*
X93863390Y-155440095D01*
X93863390Y-155440095D02*
X94434819Y-156011523D01*
X94434819Y-156011523D02*
X94434819Y-155392476D01*
X93434819Y-154773428D02*
X93434819Y-154678190D01*
X93434819Y-154678190D02*
X93482438Y-154582952D01*
X93482438Y-154582952D02*
X93530057Y-154535333D01*
X93530057Y-154535333D02*
X93625295Y-154487714D01*
X93625295Y-154487714D02*
X93815771Y-154440095D01*
X93815771Y-154440095D02*
X94053866Y-154440095D01*
X94053866Y-154440095D02*
X94244342Y-154487714D01*
X94244342Y-154487714D02*
X94339580Y-154535333D01*
X94339580Y-154535333D02*
X94387200Y-154582952D01*
X94387200Y-154582952D02*
X94434819Y-154678190D01*
X94434819Y-154678190D02*
X94434819Y-154773428D01*
X94434819Y-154773428D02*
X94387200Y-154868666D01*
X94387200Y-154868666D02*
X94339580Y-154916285D01*
X94339580Y-154916285D02*
X94244342Y-154963904D01*
X94244342Y-154963904D02*
X94053866Y-155011523D01*
X94053866Y-155011523D02*
X93815771Y-155011523D01*
X93815771Y-155011523D02*
X93625295Y-154963904D01*
X93625295Y-154963904D02*
X93530057Y-154916285D01*
X93530057Y-154916285D02*
X93482438Y-154868666D01*
X93482438Y-154868666D02*
X93434819Y-154773428D01*
X76686580Y-166631857D02*
X76734200Y-166679476D01*
X76734200Y-166679476D02*
X76781819Y-166822333D01*
X76781819Y-166822333D02*
X76781819Y-166917571D01*
X76781819Y-166917571D02*
X76734200Y-167060428D01*
X76734200Y-167060428D02*
X76638961Y-167155666D01*
X76638961Y-167155666D02*
X76543723Y-167203285D01*
X76543723Y-167203285D02*
X76353247Y-167250904D01*
X76353247Y-167250904D02*
X76210390Y-167250904D01*
X76210390Y-167250904D02*
X76019914Y-167203285D01*
X76019914Y-167203285D02*
X75924676Y-167155666D01*
X75924676Y-167155666D02*
X75829438Y-167060428D01*
X75829438Y-167060428D02*
X75781819Y-166917571D01*
X75781819Y-166917571D02*
X75781819Y-166822333D01*
X75781819Y-166822333D02*
X75829438Y-166679476D01*
X75829438Y-166679476D02*
X75877057Y-166631857D01*
X75781819Y-166298523D02*
X75781819Y-165679476D01*
X75781819Y-165679476D02*
X76162771Y-166012809D01*
X76162771Y-166012809D02*
X76162771Y-165869952D01*
X76162771Y-165869952D02*
X76210390Y-165774714D01*
X76210390Y-165774714D02*
X76258009Y-165727095D01*
X76258009Y-165727095D02*
X76353247Y-165679476D01*
X76353247Y-165679476D02*
X76591342Y-165679476D01*
X76591342Y-165679476D02*
X76686580Y-165727095D01*
X76686580Y-165727095D02*
X76734200Y-165774714D01*
X76734200Y-165774714D02*
X76781819Y-165869952D01*
X76781819Y-165869952D02*
X76781819Y-166155666D01*
X76781819Y-166155666D02*
X76734200Y-166250904D01*
X76734200Y-166250904D02*
X76686580Y-166298523D01*
X75877057Y-165298523D02*
X75829438Y-165250904D01*
X75829438Y-165250904D02*
X75781819Y-165155666D01*
X75781819Y-165155666D02*
X75781819Y-164917571D01*
X75781819Y-164917571D02*
X75829438Y-164822333D01*
X75829438Y-164822333D02*
X75877057Y-164774714D01*
X75877057Y-164774714D02*
X75972295Y-164727095D01*
X75972295Y-164727095D02*
X76067533Y-164727095D01*
X76067533Y-164727095D02*
X76210390Y-164774714D01*
X76210390Y-164774714D02*
X76781819Y-165346142D01*
X76781819Y-165346142D02*
X76781819Y-164727095D01*
X115192580Y-171997666D02*
X115240200Y-172045285D01*
X115240200Y-172045285D02*
X115287819Y-172188142D01*
X115287819Y-172188142D02*
X115287819Y-172283380D01*
X115287819Y-172283380D02*
X115240200Y-172426237D01*
X115240200Y-172426237D02*
X115144961Y-172521475D01*
X115144961Y-172521475D02*
X115049723Y-172569094D01*
X115049723Y-172569094D02*
X114859247Y-172616713D01*
X114859247Y-172616713D02*
X114716390Y-172616713D01*
X114716390Y-172616713D02*
X114525914Y-172569094D01*
X114525914Y-172569094D02*
X114430676Y-172521475D01*
X114430676Y-172521475D02*
X114335438Y-172426237D01*
X114335438Y-172426237D02*
X114287819Y-172283380D01*
X114287819Y-172283380D02*
X114287819Y-172188142D01*
X114287819Y-172188142D02*
X114335438Y-172045285D01*
X114335438Y-172045285D02*
X114383057Y-171997666D01*
X114716390Y-171426237D02*
X114668771Y-171521475D01*
X114668771Y-171521475D02*
X114621152Y-171569094D01*
X114621152Y-171569094D02*
X114525914Y-171616713D01*
X114525914Y-171616713D02*
X114478295Y-171616713D01*
X114478295Y-171616713D02*
X114383057Y-171569094D01*
X114383057Y-171569094D02*
X114335438Y-171521475D01*
X114335438Y-171521475D02*
X114287819Y-171426237D01*
X114287819Y-171426237D02*
X114287819Y-171235761D01*
X114287819Y-171235761D02*
X114335438Y-171140523D01*
X114335438Y-171140523D02*
X114383057Y-171092904D01*
X114383057Y-171092904D02*
X114478295Y-171045285D01*
X114478295Y-171045285D02*
X114525914Y-171045285D01*
X114525914Y-171045285D02*
X114621152Y-171092904D01*
X114621152Y-171092904D02*
X114668771Y-171140523D01*
X114668771Y-171140523D02*
X114716390Y-171235761D01*
X114716390Y-171235761D02*
X114716390Y-171426237D01*
X114716390Y-171426237D02*
X114764009Y-171521475D01*
X114764009Y-171521475D02*
X114811628Y-171569094D01*
X114811628Y-171569094D02*
X114906866Y-171616713D01*
X114906866Y-171616713D02*
X115097342Y-171616713D01*
X115097342Y-171616713D02*
X115192580Y-171569094D01*
X115192580Y-171569094D02*
X115240200Y-171521475D01*
X115240200Y-171521475D02*
X115287819Y-171426237D01*
X115287819Y-171426237D02*
X115287819Y-171235761D01*
X115287819Y-171235761D02*
X115240200Y-171140523D01*
X115240200Y-171140523D02*
X115192580Y-171092904D01*
X115192580Y-171092904D02*
X115097342Y-171045285D01*
X115097342Y-171045285D02*
X114906866Y-171045285D01*
X114906866Y-171045285D02*
X114811628Y-171092904D01*
X114811628Y-171092904D02*
X114764009Y-171140523D01*
X114764009Y-171140523D02*
X114716390Y-171235761D01*
X78465819Y-176942357D02*
X77989628Y-177275690D01*
X78465819Y-177513785D02*
X77465819Y-177513785D01*
X77465819Y-177513785D02*
X77465819Y-177132833D01*
X77465819Y-177132833D02*
X77513438Y-177037595D01*
X77513438Y-177037595D02*
X77561057Y-176989976D01*
X77561057Y-176989976D02*
X77656295Y-176942357D01*
X77656295Y-176942357D02*
X77799152Y-176942357D01*
X77799152Y-176942357D02*
X77894390Y-176989976D01*
X77894390Y-176989976D02*
X77942009Y-177037595D01*
X77942009Y-177037595D02*
X77989628Y-177132833D01*
X77989628Y-177132833D02*
X77989628Y-177513785D01*
X78465819Y-175989976D02*
X78465819Y-176561404D01*
X78465819Y-176275690D02*
X77465819Y-176275690D01*
X77465819Y-176275690D02*
X77608676Y-176370928D01*
X77608676Y-176370928D02*
X77703914Y-176466166D01*
X77703914Y-176466166D02*
X77751533Y-176561404D01*
X77465819Y-175656642D02*
X77465819Y-174989976D01*
X77465819Y-174989976D02*
X78465819Y-175418547D01*
X83050142Y-165554819D02*
X82716809Y-165078628D01*
X82478714Y-165554819D02*
X82478714Y-164554819D01*
X82478714Y-164554819D02*
X82859666Y-164554819D01*
X82859666Y-164554819D02*
X82954904Y-164602438D01*
X82954904Y-164602438D02*
X83002523Y-164650057D01*
X83002523Y-164650057D02*
X83050142Y-164745295D01*
X83050142Y-164745295D02*
X83050142Y-164888152D01*
X83050142Y-164888152D02*
X83002523Y-164983390D01*
X83002523Y-164983390D02*
X82954904Y-165031009D01*
X82954904Y-165031009D02*
X82859666Y-165078628D01*
X82859666Y-165078628D02*
X82478714Y-165078628D01*
X84002523Y-165554819D02*
X83431095Y-165554819D01*
X83716809Y-165554819D02*
X83716809Y-164554819D01*
X83716809Y-164554819D02*
X83621571Y-164697676D01*
X83621571Y-164697676D02*
X83526333Y-164792914D01*
X83526333Y-164792914D02*
X83431095Y-164840533D01*
X84859666Y-164888152D02*
X84859666Y-165554819D01*
X84621571Y-164507200D02*
X84383476Y-165221485D01*
X84383476Y-165221485D02*
X85002523Y-165221485D01*
X79081333Y-141737080D02*
X79033714Y-141784700D01*
X79033714Y-141784700D02*
X78890857Y-141832319D01*
X78890857Y-141832319D02*
X78795619Y-141832319D01*
X78795619Y-141832319D02*
X78652762Y-141784700D01*
X78652762Y-141784700D02*
X78557524Y-141689461D01*
X78557524Y-141689461D02*
X78509905Y-141594223D01*
X78509905Y-141594223D02*
X78462286Y-141403747D01*
X78462286Y-141403747D02*
X78462286Y-141260890D01*
X78462286Y-141260890D02*
X78509905Y-141070414D01*
X78509905Y-141070414D02*
X78557524Y-140975176D01*
X78557524Y-140975176D02*
X78652762Y-140879938D01*
X78652762Y-140879938D02*
X78795619Y-140832319D01*
X78795619Y-140832319D02*
X78890857Y-140832319D01*
X78890857Y-140832319D02*
X79033714Y-140879938D01*
X79033714Y-140879938D02*
X79081333Y-140927557D01*
X79938476Y-141165652D02*
X79938476Y-141832319D01*
X79700381Y-140784700D02*
X79462286Y-141498985D01*
X79462286Y-141498985D02*
X80081333Y-141498985D01*
X86351819Y-161354904D02*
X87161342Y-161354904D01*
X87161342Y-161354904D02*
X87256580Y-161307285D01*
X87256580Y-161307285D02*
X87304200Y-161259666D01*
X87304200Y-161259666D02*
X87351819Y-161164428D01*
X87351819Y-161164428D02*
X87351819Y-160973952D01*
X87351819Y-160973952D02*
X87304200Y-160878714D01*
X87304200Y-160878714D02*
X87256580Y-160831095D01*
X87256580Y-160831095D02*
X87161342Y-160783476D01*
X87161342Y-160783476D02*
X86351819Y-160783476D01*
X86351819Y-160402523D02*
X86351819Y-159783476D01*
X86351819Y-159783476D02*
X86732771Y-160116809D01*
X86732771Y-160116809D02*
X86732771Y-159973952D01*
X86732771Y-159973952D02*
X86780390Y-159878714D01*
X86780390Y-159878714D02*
X86828009Y-159831095D01*
X86828009Y-159831095D02*
X86923247Y-159783476D01*
X86923247Y-159783476D02*
X87161342Y-159783476D01*
X87161342Y-159783476D02*
X87256580Y-159831095D01*
X87256580Y-159831095D02*
X87304200Y-159878714D01*
X87304200Y-159878714D02*
X87351819Y-159973952D01*
X87351819Y-159973952D02*
X87351819Y-160259666D01*
X87351819Y-160259666D02*
X87304200Y-160354904D01*
X87304200Y-160354904D02*
X87256580Y-160402523D01*
X112164905Y-174063819D02*
X112164905Y-173063819D01*
X112164905Y-173063819D02*
X112403000Y-173063819D01*
X112403000Y-173063819D02*
X112545857Y-173111438D01*
X112545857Y-173111438D02*
X112641095Y-173206676D01*
X112641095Y-173206676D02*
X112688714Y-173301914D01*
X112688714Y-173301914D02*
X112736333Y-173492390D01*
X112736333Y-173492390D02*
X112736333Y-173635247D01*
X112736333Y-173635247D02*
X112688714Y-173825723D01*
X112688714Y-173825723D02*
X112641095Y-173920961D01*
X112641095Y-173920961D02*
X112545857Y-174016200D01*
X112545857Y-174016200D02*
X112403000Y-174063819D01*
X112403000Y-174063819D02*
X112164905Y-174063819D01*
X113593476Y-173063819D02*
X113403000Y-173063819D01*
X113403000Y-173063819D02*
X113307762Y-173111438D01*
X113307762Y-173111438D02*
X113260143Y-173159057D01*
X113260143Y-173159057D02*
X113164905Y-173301914D01*
X113164905Y-173301914D02*
X113117286Y-173492390D01*
X113117286Y-173492390D02*
X113117286Y-173873342D01*
X113117286Y-173873342D02*
X113164905Y-173968580D01*
X113164905Y-173968580D02*
X113212524Y-174016200D01*
X113212524Y-174016200D02*
X113307762Y-174063819D01*
X113307762Y-174063819D02*
X113498238Y-174063819D01*
X113498238Y-174063819D02*
X113593476Y-174016200D01*
X113593476Y-174016200D02*
X113641095Y-173968580D01*
X113641095Y-173968580D02*
X113688714Y-173873342D01*
X113688714Y-173873342D02*
X113688714Y-173635247D01*
X113688714Y-173635247D02*
X113641095Y-173540009D01*
X113641095Y-173540009D02*
X113593476Y-173492390D01*
X113593476Y-173492390D02*
X113498238Y-173444771D01*
X113498238Y-173444771D02*
X113307762Y-173444771D01*
X113307762Y-173444771D02*
X113212524Y-173492390D01*
X113212524Y-173492390D02*
X113164905Y-173540009D01*
X113164905Y-173540009D02*
X113117286Y-173635247D01*
X111960819Y-147200857D02*
X111484628Y-147534190D01*
X111960819Y-147772285D02*
X110960819Y-147772285D01*
X110960819Y-147772285D02*
X110960819Y-147391333D01*
X110960819Y-147391333D02*
X111008438Y-147296095D01*
X111008438Y-147296095D02*
X111056057Y-147248476D01*
X111056057Y-147248476D02*
X111151295Y-147200857D01*
X111151295Y-147200857D02*
X111294152Y-147200857D01*
X111294152Y-147200857D02*
X111389390Y-147248476D01*
X111389390Y-147248476D02*
X111437009Y-147296095D01*
X111437009Y-147296095D02*
X111484628Y-147391333D01*
X111484628Y-147391333D02*
X111484628Y-147772285D01*
X111960819Y-146248476D02*
X111960819Y-146819904D01*
X111960819Y-146534190D02*
X110960819Y-146534190D01*
X110960819Y-146534190D02*
X111103676Y-146629428D01*
X111103676Y-146629428D02*
X111198914Y-146724666D01*
X111198914Y-146724666D02*
X111246533Y-146819904D01*
X111056057Y-145867523D02*
X111008438Y-145819904D01*
X111008438Y-145819904D02*
X110960819Y-145724666D01*
X110960819Y-145724666D02*
X110960819Y-145486571D01*
X110960819Y-145486571D02*
X111008438Y-145391333D01*
X111008438Y-145391333D02*
X111056057Y-145343714D01*
X111056057Y-145343714D02*
X111151295Y-145296095D01*
X111151295Y-145296095D02*
X111246533Y-145296095D01*
X111246533Y-145296095D02*
X111389390Y-145343714D01*
X111389390Y-145343714D02*
X111960819Y-145915142D01*
X111960819Y-145915142D02*
X111960819Y-145296095D01*
X80115580Y-163202857D02*
X80163200Y-163250476D01*
X80163200Y-163250476D02*
X80210819Y-163393333D01*
X80210819Y-163393333D02*
X80210819Y-163488571D01*
X80210819Y-163488571D02*
X80163200Y-163631428D01*
X80163200Y-163631428D02*
X80067961Y-163726666D01*
X80067961Y-163726666D02*
X79972723Y-163774285D01*
X79972723Y-163774285D02*
X79782247Y-163821904D01*
X79782247Y-163821904D02*
X79639390Y-163821904D01*
X79639390Y-163821904D02*
X79448914Y-163774285D01*
X79448914Y-163774285D02*
X79353676Y-163726666D01*
X79353676Y-163726666D02*
X79258438Y-163631428D01*
X79258438Y-163631428D02*
X79210819Y-163488571D01*
X79210819Y-163488571D02*
X79210819Y-163393333D01*
X79210819Y-163393333D02*
X79258438Y-163250476D01*
X79258438Y-163250476D02*
X79306057Y-163202857D01*
X80210819Y-162250476D02*
X80210819Y-162821904D01*
X80210819Y-162536190D02*
X79210819Y-162536190D01*
X79210819Y-162536190D02*
X79353676Y-162631428D01*
X79353676Y-162631428D02*
X79448914Y-162726666D01*
X79448914Y-162726666D02*
X79496533Y-162821904D01*
X79210819Y-161393333D02*
X79210819Y-161583809D01*
X79210819Y-161583809D02*
X79258438Y-161679047D01*
X79258438Y-161679047D02*
X79306057Y-161726666D01*
X79306057Y-161726666D02*
X79448914Y-161821904D01*
X79448914Y-161821904D02*
X79639390Y-161869523D01*
X79639390Y-161869523D02*
X80020342Y-161869523D01*
X80020342Y-161869523D02*
X80115580Y-161821904D01*
X80115580Y-161821904D02*
X80163200Y-161774285D01*
X80163200Y-161774285D02*
X80210819Y-161679047D01*
X80210819Y-161679047D02*
X80210819Y-161488571D01*
X80210819Y-161488571D02*
X80163200Y-161393333D01*
X80163200Y-161393333D02*
X80115580Y-161345714D01*
X80115580Y-161345714D02*
X80020342Y-161298095D01*
X80020342Y-161298095D02*
X79782247Y-161298095D01*
X79782247Y-161298095D02*
X79687009Y-161345714D01*
X79687009Y-161345714D02*
X79639390Y-161393333D01*
X79639390Y-161393333D02*
X79591771Y-161488571D01*
X79591771Y-161488571D02*
X79591771Y-161679047D01*
X79591771Y-161679047D02*
X79639390Y-161774285D01*
X79639390Y-161774285D02*
X79687009Y-161821904D01*
X79687009Y-161821904D02*
X79782247Y-161869523D01*
X123836580Y-161578357D02*
X123884200Y-161625976D01*
X123884200Y-161625976D02*
X123931819Y-161768833D01*
X123931819Y-161768833D02*
X123931819Y-161864071D01*
X123931819Y-161864071D02*
X123884200Y-162006928D01*
X123884200Y-162006928D02*
X123788961Y-162102166D01*
X123788961Y-162102166D02*
X123693723Y-162149785D01*
X123693723Y-162149785D02*
X123503247Y-162197404D01*
X123503247Y-162197404D02*
X123360390Y-162197404D01*
X123360390Y-162197404D02*
X123169914Y-162149785D01*
X123169914Y-162149785D02*
X123074676Y-162102166D01*
X123074676Y-162102166D02*
X122979438Y-162006928D01*
X122979438Y-162006928D02*
X122931819Y-161864071D01*
X122931819Y-161864071D02*
X122931819Y-161768833D01*
X122931819Y-161768833D02*
X122979438Y-161625976D01*
X122979438Y-161625976D02*
X123027057Y-161578357D01*
X122931819Y-161245023D02*
X122931819Y-160625976D01*
X122931819Y-160625976D02*
X123312771Y-160959309D01*
X123312771Y-160959309D02*
X123312771Y-160816452D01*
X123312771Y-160816452D02*
X123360390Y-160721214D01*
X123360390Y-160721214D02*
X123408009Y-160673595D01*
X123408009Y-160673595D02*
X123503247Y-160625976D01*
X123503247Y-160625976D02*
X123741342Y-160625976D01*
X123741342Y-160625976D02*
X123836580Y-160673595D01*
X123836580Y-160673595D02*
X123884200Y-160721214D01*
X123884200Y-160721214D02*
X123931819Y-160816452D01*
X123931819Y-160816452D02*
X123931819Y-161102166D01*
X123931819Y-161102166D02*
X123884200Y-161197404D01*
X123884200Y-161197404D02*
X123836580Y-161245023D01*
X122931819Y-159721214D02*
X122931819Y-160197404D01*
X122931819Y-160197404D02*
X123408009Y-160245023D01*
X123408009Y-160245023D02*
X123360390Y-160197404D01*
X123360390Y-160197404D02*
X123312771Y-160102166D01*
X123312771Y-160102166D02*
X123312771Y-159864071D01*
X123312771Y-159864071D02*
X123360390Y-159768833D01*
X123360390Y-159768833D02*
X123408009Y-159721214D01*
X123408009Y-159721214D02*
X123503247Y-159673595D01*
X123503247Y-159673595D02*
X123741342Y-159673595D01*
X123741342Y-159673595D02*
X123836580Y-159721214D01*
X123836580Y-159721214D02*
X123884200Y-159768833D01*
X123884200Y-159768833D02*
X123931819Y-159864071D01*
X123931819Y-159864071D02*
X123931819Y-160102166D01*
X123931819Y-160102166D02*
X123884200Y-160197404D01*
X123884200Y-160197404D02*
X123836580Y-160245023D01*
X75384819Y-166631857D02*
X74908628Y-166965190D01*
X75384819Y-167203285D02*
X74384819Y-167203285D01*
X74384819Y-167203285D02*
X74384819Y-166822333D01*
X74384819Y-166822333D02*
X74432438Y-166727095D01*
X74432438Y-166727095D02*
X74480057Y-166679476D01*
X74480057Y-166679476D02*
X74575295Y-166631857D01*
X74575295Y-166631857D02*
X74718152Y-166631857D01*
X74718152Y-166631857D02*
X74813390Y-166679476D01*
X74813390Y-166679476D02*
X74861009Y-166727095D01*
X74861009Y-166727095D02*
X74908628Y-166822333D01*
X74908628Y-166822333D02*
X74908628Y-167203285D01*
X75384819Y-165679476D02*
X75384819Y-166250904D01*
X75384819Y-165965190D02*
X74384819Y-165965190D01*
X74384819Y-165965190D02*
X74527676Y-166060428D01*
X74527676Y-166060428D02*
X74622914Y-166155666D01*
X74622914Y-166155666D02*
X74670533Y-166250904D01*
X74384819Y-164774714D02*
X74384819Y-165250904D01*
X74384819Y-165250904D02*
X74861009Y-165298523D01*
X74861009Y-165298523D02*
X74813390Y-165250904D01*
X74813390Y-165250904D02*
X74765771Y-165155666D01*
X74765771Y-165155666D02*
X74765771Y-164917571D01*
X74765771Y-164917571D02*
X74813390Y-164822333D01*
X74813390Y-164822333D02*
X74861009Y-164774714D01*
X74861009Y-164774714D02*
X74956247Y-164727095D01*
X74956247Y-164727095D02*
X75194342Y-164727095D01*
X75194342Y-164727095D02*
X75289580Y-164774714D01*
X75289580Y-164774714D02*
X75337200Y-164822333D01*
X75337200Y-164822333D02*
X75384819Y-164917571D01*
X75384819Y-164917571D02*
X75384819Y-165155666D01*
X75384819Y-165155666D02*
X75337200Y-165250904D01*
X75337200Y-165250904D02*
X75289580Y-165298523D01*
X94688819Y-144081166D02*
X94212628Y-144414499D01*
X94688819Y-144652594D02*
X93688819Y-144652594D01*
X93688819Y-144652594D02*
X93688819Y-144271642D01*
X93688819Y-144271642D02*
X93736438Y-144176404D01*
X93736438Y-144176404D02*
X93784057Y-144128785D01*
X93784057Y-144128785D02*
X93879295Y-144081166D01*
X93879295Y-144081166D02*
X94022152Y-144081166D01*
X94022152Y-144081166D02*
X94117390Y-144128785D01*
X94117390Y-144128785D02*
X94165009Y-144176404D01*
X94165009Y-144176404D02*
X94212628Y-144271642D01*
X94212628Y-144271642D02*
X94212628Y-144652594D01*
X93688819Y-143747832D02*
X93688819Y-143128785D01*
X93688819Y-143128785D02*
X94069771Y-143462118D01*
X94069771Y-143462118D02*
X94069771Y-143319261D01*
X94069771Y-143319261D02*
X94117390Y-143224023D01*
X94117390Y-143224023D02*
X94165009Y-143176404D01*
X94165009Y-143176404D02*
X94260247Y-143128785D01*
X94260247Y-143128785D02*
X94498342Y-143128785D01*
X94498342Y-143128785D02*
X94593580Y-143176404D01*
X94593580Y-143176404D02*
X94641200Y-143224023D01*
X94641200Y-143224023D02*
X94688819Y-143319261D01*
X94688819Y-143319261D02*
X94688819Y-143604975D01*
X94688819Y-143604975D02*
X94641200Y-143700213D01*
X94641200Y-143700213D02*
X94593580Y-143747832D01*
X98298095Y-164202819D02*
X98298095Y-165012342D01*
X98298095Y-165012342D02*
X98345714Y-165107580D01*
X98345714Y-165107580D02*
X98393333Y-165155200D01*
X98393333Y-165155200D02*
X98488571Y-165202819D01*
X98488571Y-165202819D02*
X98679047Y-165202819D01*
X98679047Y-165202819D02*
X98774285Y-165155200D01*
X98774285Y-165155200D02*
X98821904Y-165107580D01*
X98821904Y-165107580D02*
X98869523Y-165012342D01*
X98869523Y-165012342D02*
X98869523Y-164202819D01*
X99774285Y-164202819D02*
X99583809Y-164202819D01*
X99583809Y-164202819D02*
X99488571Y-164250438D01*
X99488571Y-164250438D02*
X99440952Y-164298057D01*
X99440952Y-164298057D02*
X99345714Y-164440914D01*
X99345714Y-164440914D02*
X99298095Y-164631390D01*
X99298095Y-164631390D02*
X99298095Y-165012342D01*
X99298095Y-165012342D02*
X99345714Y-165107580D01*
X99345714Y-165107580D02*
X99393333Y-165155200D01*
X99393333Y-165155200D02*
X99488571Y-165202819D01*
X99488571Y-165202819D02*
X99679047Y-165202819D01*
X99679047Y-165202819D02*
X99774285Y-165155200D01*
X99774285Y-165155200D02*
X99821904Y-165107580D01*
X99821904Y-165107580D02*
X99869523Y-165012342D01*
X99869523Y-165012342D02*
X99869523Y-164774247D01*
X99869523Y-164774247D02*
X99821904Y-164679009D01*
X99821904Y-164679009D02*
X99774285Y-164631390D01*
X99774285Y-164631390D02*
X99679047Y-164583771D01*
X99679047Y-164583771D02*
X99488571Y-164583771D01*
X99488571Y-164583771D02*
X99393333Y-164631390D01*
X99393333Y-164631390D02*
X99345714Y-164679009D01*
X99345714Y-164679009D02*
X99298095Y-164774247D01*
X73511580Y-166631857D02*
X73559200Y-166679476D01*
X73559200Y-166679476D02*
X73606819Y-166822333D01*
X73606819Y-166822333D02*
X73606819Y-166917571D01*
X73606819Y-166917571D02*
X73559200Y-167060428D01*
X73559200Y-167060428D02*
X73463961Y-167155666D01*
X73463961Y-167155666D02*
X73368723Y-167203285D01*
X73368723Y-167203285D02*
X73178247Y-167250904D01*
X73178247Y-167250904D02*
X73035390Y-167250904D01*
X73035390Y-167250904D02*
X72844914Y-167203285D01*
X72844914Y-167203285D02*
X72749676Y-167155666D01*
X72749676Y-167155666D02*
X72654438Y-167060428D01*
X72654438Y-167060428D02*
X72606819Y-166917571D01*
X72606819Y-166917571D02*
X72606819Y-166822333D01*
X72606819Y-166822333D02*
X72654438Y-166679476D01*
X72654438Y-166679476D02*
X72702057Y-166631857D01*
X72606819Y-166298523D02*
X72606819Y-165679476D01*
X72606819Y-165679476D02*
X72987771Y-166012809D01*
X72987771Y-166012809D02*
X72987771Y-165869952D01*
X72987771Y-165869952D02*
X73035390Y-165774714D01*
X73035390Y-165774714D02*
X73083009Y-165727095D01*
X73083009Y-165727095D02*
X73178247Y-165679476D01*
X73178247Y-165679476D02*
X73416342Y-165679476D01*
X73416342Y-165679476D02*
X73511580Y-165727095D01*
X73511580Y-165727095D02*
X73559200Y-165774714D01*
X73559200Y-165774714D02*
X73606819Y-165869952D01*
X73606819Y-165869952D02*
X73606819Y-166155666D01*
X73606819Y-166155666D02*
X73559200Y-166250904D01*
X73559200Y-166250904D02*
X73511580Y-166298523D01*
X72940152Y-164822333D02*
X73606819Y-164822333D01*
X72559200Y-165060428D02*
X73273485Y-165298523D01*
X73273485Y-165298523D02*
X73273485Y-164679476D01*
X68577319Y-137573333D02*
X69291604Y-137573333D01*
X69291604Y-137573333D02*
X69434461Y-137620952D01*
X69434461Y-137620952D02*
X69529700Y-137716190D01*
X69529700Y-137716190D02*
X69577319Y-137859047D01*
X69577319Y-137859047D02*
X69577319Y-137954285D01*
X69577319Y-136573333D02*
X69577319Y-137144761D01*
X69577319Y-136859047D02*
X68577319Y-136859047D01*
X68577319Y-136859047D02*
X68720176Y-136954285D01*
X68720176Y-136954285D02*
X68815414Y-137049523D01*
X68815414Y-137049523D02*
X68863033Y-137144761D01*
X76033333Y-131423580D02*
X75985714Y-131471200D01*
X75985714Y-131471200D02*
X75842857Y-131518819D01*
X75842857Y-131518819D02*
X75747619Y-131518819D01*
X75747619Y-131518819D02*
X75604762Y-131471200D01*
X75604762Y-131471200D02*
X75509524Y-131375961D01*
X75509524Y-131375961D02*
X75461905Y-131280723D01*
X75461905Y-131280723D02*
X75414286Y-131090247D01*
X75414286Y-131090247D02*
X75414286Y-130947390D01*
X75414286Y-130947390D02*
X75461905Y-130756914D01*
X75461905Y-130756914D02*
X75509524Y-130661676D01*
X75509524Y-130661676D02*
X75604762Y-130566438D01*
X75604762Y-130566438D02*
X75747619Y-130518819D01*
X75747619Y-130518819D02*
X75842857Y-130518819D01*
X75842857Y-130518819D02*
X75985714Y-130566438D01*
X75985714Y-130566438D02*
X76033333Y-130614057D01*
X76414286Y-130614057D02*
X76461905Y-130566438D01*
X76461905Y-130566438D02*
X76557143Y-130518819D01*
X76557143Y-130518819D02*
X76795238Y-130518819D01*
X76795238Y-130518819D02*
X76890476Y-130566438D01*
X76890476Y-130566438D02*
X76938095Y-130614057D01*
X76938095Y-130614057D02*
X76985714Y-130709295D01*
X76985714Y-130709295D02*
X76985714Y-130804533D01*
X76985714Y-130804533D02*
X76938095Y-130947390D01*
X76938095Y-130947390D02*
X76366667Y-131518819D01*
X76366667Y-131518819D02*
X76985714Y-131518819D01*
X74858666Y-157919009D02*
X74525333Y-157919009D01*
X74525333Y-158442819D02*
X74525333Y-157442819D01*
X74525333Y-157442819D02*
X75001523Y-157442819D01*
X75715809Y-157919009D02*
X75858666Y-157966628D01*
X75858666Y-157966628D02*
X75906285Y-158014247D01*
X75906285Y-158014247D02*
X75953904Y-158109485D01*
X75953904Y-158109485D02*
X75953904Y-158252342D01*
X75953904Y-158252342D02*
X75906285Y-158347580D01*
X75906285Y-158347580D02*
X75858666Y-158395200D01*
X75858666Y-158395200D02*
X75763428Y-158442819D01*
X75763428Y-158442819D02*
X75382476Y-158442819D01*
X75382476Y-158442819D02*
X75382476Y-157442819D01*
X75382476Y-157442819D02*
X75715809Y-157442819D01*
X75715809Y-157442819D02*
X75811047Y-157490438D01*
X75811047Y-157490438D02*
X75858666Y-157538057D01*
X75858666Y-157538057D02*
X75906285Y-157633295D01*
X75906285Y-157633295D02*
X75906285Y-157728533D01*
X75906285Y-157728533D02*
X75858666Y-157823771D01*
X75858666Y-157823771D02*
X75811047Y-157871390D01*
X75811047Y-157871390D02*
X75715809Y-157919009D01*
X75715809Y-157919009D02*
X75382476Y-157919009D01*
X76906285Y-158442819D02*
X76334857Y-158442819D01*
X76620571Y-158442819D02*
X76620571Y-157442819D01*
X76620571Y-157442819D02*
X76525333Y-157585676D01*
X76525333Y-157585676D02*
X76430095Y-157680914D01*
X76430095Y-157680914D02*
X76334857Y-157728533D01*
X81385580Y-142020357D02*
X81433200Y-142067976D01*
X81433200Y-142067976D02*
X81480819Y-142210833D01*
X81480819Y-142210833D02*
X81480819Y-142306071D01*
X81480819Y-142306071D02*
X81433200Y-142448928D01*
X81433200Y-142448928D02*
X81337961Y-142544166D01*
X81337961Y-142544166D02*
X81242723Y-142591785D01*
X81242723Y-142591785D02*
X81052247Y-142639404D01*
X81052247Y-142639404D02*
X80909390Y-142639404D01*
X80909390Y-142639404D02*
X80718914Y-142591785D01*
X80718914Y-142591785D02*
X80623676Y-142544166D01*
X80623676Y-142544166D02*
X80528438Y-142448928D01*
X80528438Y-142448928D02*
X80480819Y-142306071D01*
X80480819Y-142306071D02*
X80480819Y-142210833D01*
X80480819Y-142210833D02*
X80528438Y-142067976D01*
X80528438Y-142067976D02*
X80576057Y-142020357D01*
X81480819Y-141067976D02*
X81480819Y-141639404D01*
X81480819Y-141353690D02*
X80480819Y-141353690D01*
X80480819Y-141353690D02*
X80623676Y-141448928D01*
X80623676Y-141448928D02*
X80718914Y-141544166D01*
X80718914Y-141544166D02*
X80766533Y-141639404D01*
X81480819Y-140115595D02*
X81480819Y-140687023D01*
X81480819Y-140401309D02*
X80480819Y-140401309D01*
X80480819Y-140401309D02*
X80623676Y-140496547D01*
X80623676Y-140496547D02*
X80718914Y-140591785D01*
X80718914Y-140591785D02*
X80766533Y-140687023D01*
X81113333Y-160220819D02*
X80780000Y-159744628D01*
X80541905Y-160220819D02*
X80541905Y-159220819D01*
X80541905Y-159220819D02*
X80922857Y-159220819D01*
X80922857Y-159220819D02*
X81018095Y-159268438D01*
X81018095Y-159268438D02*
X81065714Y-159316057D01*
X81065714Y-159316057D02*
X81113333Y-159411295D01*
X81113333Y-159411295D02*
X81113333Y-159554152D01*
X81113333Y-159554152D02*
X81065714Y-159649390D01*
X81065714Y-159649390D02*
X81018095Y-159697009D01*
X81018095Y-159697009D02*
X80922857Y-159744628D01*
X80922857Y-159744628D02*
X80541905Y-159744628D01*
X81970476Y-159220819D02*
X81780000Y-159220819D01*
X81780000Y-159220819D02*
X81684762Y-159268438D01*
X81684762Y-159268438D02*
X81637143Y-159316057D01*
X81637143Y-159316057D02*
X81541905Y-159458914D01*
X81541905Y-159458914D02*
X81494286Y-159649390D01*
X81494286Y-159649390D02*
X81494286Y-160030342D01*
X81494286Y-160030342D02*
X81541905Y-160125580D01*
X81541905Y-160125580D02*
X81589524Y-160173200D01*
X81589524Y-160173200D02*
X81684762Y-160220819D01*
X81684762Y-160220819D02*
X81875238Y-160220819D01*
X81875238Y-160220819D02*
X81970476Y-160173200D01*
X81970476Y-160173200D02*
X82018095Y-160125580D01*
X82018095Y-160125580D02*
X82065714Y-160030342D01*
X82065714Y-160030342D02*
X82065714Y-159792247D01*
X82065714Y-159792247D02*
X82018095Y-159697009D01*
X82018095Y-159697009D02*
X81970476Y-159649390D01*
X81970476Y-159649390D02*
X81875238Y-159601771D01*
X81875238Y-159601771D02*
X81684762Y-159601771D01*
X81684762Y-159601771D02*
X81589524Y-159649390D01*
X81589524Y-159649390D02*
X81541905Y-159697009D01*
X81541905Y-159697009D02*
X81494286Y-159792247D01*
X100395095Y-138392819D02*
X100395095Y-139202342D01*
X100395095Y-139202342D02*
X100442714Y-139297580D01*
X100442714Y-139297580D02*
X100490333Y-139345200D01*
X100490333Y-139345200D02*
X100585571Y-139392819D01*
X100585571Y-139392819D02*
X100776047Y-139392819D01*
X100776047Y-139392819D02*
X100871285Y-139345200D01*
X100871285Y-139345200D02*
X100918904Y-139297580D01*
X100918904Y-139297580D02*
X100966523Y-139202342D01*
X100966523Y-139202342D02*
X100966523Y-138392819D01*
X101395095Y-138488057D02*
X101442714Y-138440438D01*
X101442714Y-138440438D02*
X101537952Y-138392819D01*
X101537952Y-138392819D02*
X101776047Y-138392819D01*
X101776047Y-138392819D02*
X101871285Y-138440438D01*
X101871285Y-138440438D02*
X101918904Y-138488057D01*
X101918904Y-138488057D02*
X101966523Y-138583295D01*
X101966523Y-138583295D02*
X101966523Y-138678533D01*
X101966523Y-138678533D02*
X101918904Y-138821390D01*
X101918904Y-138821390D02*
X101347476Y-139392819D01*
X101347476Y-139392819D02*
X101966523Y-139392819D01*
X104155642Y-161076819D02*
X103822309Y-160600628D01*
X103584214Y-161076819D02*
X103584214Y-160076819D01*
X103584214Y-160076819D02*
X103965166Y-160076819D01*
X103965166Y-160076819D02*
X104060404Y-160124438D01*
X104060404Y-160124438D02*
X104108023Y-160172057D01*
X104108023Y-160172057D02*
X104155642Y-160267295D01*
X104155642Y-160267295D02*
X104155642Y-160410152D01*
X104155642Y-160410152D02*
X104108023Y-160505390D01*
X104108023Y-160505390D02*
X104060404Y-160553009D01*
X104060404Y-160553009D02*
X103965166Y-160600628D01*
X103965166Y-160600628D02*
X103584214Y-160600628D01*
X105108023Y-161076819D02*
X104536595Y-161076819D01*
X104822309Y-161076819D02*
X104822309Y-160076819D01*
X104822309Y-160076819D02*
X104727071Y-160219676D01*
X104727071Y-160219676D02*
X104631833Y-160314914D01*
X104631833Y-160314914D02*
X104536595Y-160362533D01*
X105727071Y-160076819D02*
X105822309Y-160076819D01*
X105822309Y-160076819D02*
X105917547Y-160124438D01*
X105917547Y-160124438D02*
X105965166Y-160172057D01*
X105965166Y-160172057D02*
X106012785Y-160267295D01*
X106012785Y-160267295D02*
X106060404Y-160457771D01*
X106060404Y-160457771D02*
X106060404Y-160695866D01*
X106060404Y-160695866D02*
X106012785Y-160886342D01*
X106012785Y-160886342D02*
X105965166Y-160981580D01*
X105965166Y-160981580D02*
X105917547Y-161029200D01*
X105917547Y-161029200D02*
X105822309Y-161076819D01*
X105822309Y-161076819D02*
X105727071Y-161076819D01*
X105727071Y-161076819D02*
X105631833Y-161029200D01*
X105631833Y-161029200D02*
X105584214Y-160981580D01*
X105584214Y-160981580D02*
X105536595Y-160886342D01*
X105536595Y-160886342D02*
X105488976Y-160695866D01*
X105488976Y-160695866D02*
X105488976Y-160457771D01*
X105488976Y-160457771D02*
X105536595Y-160267295D01*
X105536595Y-160267295D02*
X105584214Y-160172057D01*
X105584214Y-160172057D02*
X105631833Y-160124438D01*
X105631833Y-160124438D02*
X105727071Y-160076819D01*
X104132142Y-157077580D02*
X104084523Y-157125200D01*
X104084523Y-157125200D02*
X103941666Y-157172819D01*
X103941666Y-157172819D02*
X103846428Y-157172819D01*
X103846428Y-157172819D02*
X103703571Y-157125200D01*
X103703571Y-157125200D02*
X103608333Y-157029961D01*
X103608333Y-157029961D02*
X103560714Y-156934723D01*
X103560714Y-156934723D02*
X103513095Y-156744247D01*
X103513095Y-156744247D02*
X103513095Y-156601390D01*
X103513095Y-156601390D02*
X103560714Y-156410914D01*
X103560714Y-156410914D02*
X103608333Y-156315676D01*
X103608333Y-156315676D02*
X103703571Y-156220438D01*
X103703571Y-156220438D02*
X103846428Y-156172819D01*
X103846428Y-156172819D02*
X103941666Y-156172819D01*
X103941666Y-156172819D02*
X104084523Y-156220438D01*
X104084523Y-156220438D02*
X104132142Y-156268057D01*
X104513095Y-156268057D02*
X104560714Y-156220438D01*
X104560714Y-156220438D02*
X104655952Y-156172819D01*
X104655952Y-156172819D02*
X104894047Y-156172819D01*
X104894047Y-156172819D02*
X104989285Y-156220438D01*
X104989285Y-156220438D02*
X105036904Y-156268057D01*
X105036904Y-156268057D02*
X105084523Y-156363295D01*
X105084523Y-156363295D02*
X105084523Y-156458533D01*
X105084523Y-156458533D02*
X105036904Y-156601390D01*
X105036904Y-156601390D02*
X104465476Y-157172819D01*
X104465476Y-157172819D02*
X105084523Y-157172819D01*
X105465476Y-156268057D02*
X105513095Y-156220438D01*
X105513095Y-156220438D02*
X105608333Y-156172819D01*
X105608333Y-156172819D02*
X105846428Y-156172819D01*
X105846428Y-156172819D02*
X105941666Y-156220438D01*
X105941666Y-156220438D02*
X105989285Y-156268057D01*
X105989285Y-156268057D02*
X106036904Y-156363295D01*
X106036904Y-156363295D02*
X106036904Y-156458533D01*
X106036904Y-156458533D02*
X105989285Y-156601390D01*
X105989285Y-156601390D02*
X105417857Y-157172819D01*
X105417857Y-157172819D02*
X106036904Y-157172819D01*
X117029095Y-148933819D02*
X117029095Y-149743342D01*
X117029095Y-149743342D02*
X117076714Y-149838580D01*
X117076714Y-149838580D02*
X117124333Y-149886200D01*
X117124333Y-149886200D02*
X117219571Y-149933819D01*
X117219571Y-149933819D02*
X117410047Y-149933819D01*
X117410047Y-149933819D02*
X117505285Y-149886200D01*
X117505285Y-149886200D02*
X117552904Y-149838580D01*
X117552904Y-149838580D02*
X117600523Y-149743342D01*
X117600523Y-149743342D02*
X117600523Y-148933819D01*
X118505285Y-149267152D02*
X118505285Y-149933819D01*
X118267190Y-148886200D02*
X118029095Y-149600485D01*
X118029095Y-149600485D02*
X118648142Y-149600485D01*
X75022642Y-172444580D02*
X74975023Y-172492200D01*
X74975023Y-172492200D02*
X74832166Y-172539819D01*
X74832166Y-172539819D02*
X74736928Y-172539819D01*
X74736928Y-172539819D02*
X74594071Y-172492200D01*
X74594071Y-172492200D02*
X74498833Y-172396961D01*
X74498833Y-172396961D02*
X74451214Y-172301723D01*
X74451214Y-172301723D02*
X74403595Y-172111247D01*
X74403595Y-172111247D02*
X74403595Y-171968390D01*
X74403595Y-171968390D02*
X74451214Y-171777914D01*
X74451214Y-171777914D02*
X74498833Y-171682676D01*
X74498833Y-171682676D02*
X74594071Y-171587438D01*
X74594071Y-171587438D02*
X74736928Y-171539819D01*
X74736928Y-171539819D02*
X74832166Y-171539819D01*
X74832166Y-171539819D02*
X74975023Y-171587438D01*
X74975023Y-171587438D02*
X75022642Y-171635057D01*
X75355976Y-171539819D02*
X75975023Y-171539819D01*
X75975023Y-171539819D02*
X75641690Y-171920771D01*
X75641690Y-171920771D02*
X75784547Y-171920771D01*
X75784547Y-171920771D02*
X75879785Y-171968390D01*
X75879785Y-171968390D02*
X75927404Y-172016009D01*
X75927404Y-172016009D02*
X75975023Y-172111247D01*
X75975023Y-172111247D02*
X75975023Y-172349342D01*
X75975023Y-172349342D02*
X75927404Y-172444580D01*
X75927404Y-172444580D02*
X75879785Y-172492200D01*
X75879785Y-172492200D02*
X75784547Y-172539819D01*
X75784547Y-172539819D02*
X75498833Y-172539819D01*
X75498833Y-172539819D02*
X75403595Y-172492200D01*
X75403595Y-172492200D02*
X75355976Y-172444580D01*
X76308357Y-171539819D02*
X76927404Y-171539819D01*
X76927404Y-171539819D02*
X76594071Y-171920771D01*
X76594071Y-171920771D02*
X76736928Y-171920771D01*
X76736928Y-171920771D02*
X76832166Y-171968390D01*
X76832166Y-171968390D02*
X76879785Y-172016009D01*
X76879785Y-172016009D02*
X76927404Y-172111247D01*
X76927404Y-172111247D02*
X76927404Y-172349342D01*
X76927404Y-172349342D02*
X76879785Y-172444580D01*
X76879785Y-172444580D02*
X76832166Y-172492200D01*
X76832166Y-172492200D02*
X76736928Y-172539819D01*
X76736928Y-172539819D02*
X76451214Y-172539819D01*
X76451214Y-172539819D02*
X76355976Y-172492200D01*
X76355976Y-172492200D02*
X76308357Y-172444580D01*
X100689580Y-147200857D02*
X100737200Y-147248476D01*
X100737200Y-147248476D02*
X100784819Y-147391333D01*
X100784819Y-147391333D02*
X100784819Y-147486571D01*
X100784819Y-147486571D02*
X100737200Y-147629428D01*
X100737200Y-147629428D02*
X100641961Y-147724666D01*
X100641961Y-147724666D02*
X100546723Y-147772285D01*
X100546723Y-147772285D02*
X100356247Y-147819904D01*
X100356247Y-147819904D02*
X100213390Y-147819904D01*
X100213390Y-147819904D02*
X100022914Y-147772285D01*
X100022914Y-147772285D02*
X99927676Y-147724666D01*
X99927676Y-147724666D02*
X99832438Y-147629428D01*
X99832438Y-147629428D02*
X99784819Y-147486571D01*
X99784819Y-147486571D02*
X99784819Y-147391333D01*
X99784819Y-147391333D02*
X99832438Y-147248476D01*
X99832438Y-147248476D02*
X99880057Y-147200857D01*
X100784819Y-146248476D02*
X100784819Y-146819904D01*
X100784819Y-146534190D02*
X99784819Y-146534190D01*
X99784819Y-146534190D02*
X99927676Y-146629428D01*
X99927676Y-146629428D02*
X100022914Y-146724666D01*
X100022914Y-146724666D02*
X100070533Y-146819904D01*
X99784819Y-145915142D02*
X99784819Y-145296095D01*
X99784819Y-145296095D02*
X100165771Y-145629428D01*
X100165771Y-145629428D02*
X100165771Y-145486571D01*
X100165771Y-145486571D02*
X100213390Y-145391333D01*
X100213390Y-145391333D02*
X100261009Y-145343714D01*
X100261009Y-145343714D02*
X100356247Y-145296095D01*
X100356247Y-145296095D02*
X100594342Y-145296095D01*
X100594342Y-145296095D02*
X100689580Y-145343714D01*
X100689580Y-145343714D02*
X100737200Y-145391333D01*
X100737200Y-145391333D02*
X100784819Y-145486571D01*
X100784819Y-145486571D02*
X100784819Y-145772285D01*
X100784819Y-145772285D02*
X100737200Y-145867523D01*
X100737200Y-145867523D02*
X100689580Y-145915142D01*
X85703580Y-157868857D02*
X85751200Y-157916476D01*
X85751200Y-157916476D02*
X85798819Y-158059333D01*
X85798819Y-158059333D02*
X85798819Y-158154571D01*
X85798819Y-158154571D02*
X85751200Y-158297428D01*
X85751200Y-158297428D02*
X85655961Y-158392666D01*
X85655961Y-158392666D02*
X85560723Y-158440285D01*
X85560723Y-158440285D02*
X85370247Y-158487904D01*
X85370247Y-158487904D02*
X85227390Y-158487904D01*
X85227390Y-158487904D02*
X85036914Y-158440285D01*
X85036914Y-158440285D02*
X84941676Y-158392666D01*
X84941676Y-158392666D02*
X84846438Y-158297428D01*
X84846438Y-158297428D02*
X84798819Y-158154571D01*
X84798819Y-158154571D02*
X84798819Y-158059333D01*
X84798819Y-158059333D02*
X84846438Y-157916476D01*
X84846438Y-157916476D02*
X84894057Y-157868857D01*
X85798819Y-156916476D02*
X85798819Y-157487904D01*
X85798819Y-157202190D02*
X84798819Y-157202190D01*
X84798819Y-157202190D02*
X84941676Y-157297428D01*
X84941676Y-157297428D02*
X85036914Y-157392666D01*
X85036914Y-157392666D02*
X85084533Y-157487904D01*
X85798819Y-156440285D02*
X85798819Y-156249809D01*
X85798819Y-156249809D02*
X85751200Y-156154571D01*
X85751200Y-156154571D02*
X85703580Y-156106952D01*
X85703580Y-156106952D02*
X85560723Y-156011714D01*
X85560723Y-156011714D02*
X85370247Y-155964095D01*
X85370247Y-155964095D02*
X84989295Y-155964095D01*
X84989295Y-155964095D02*
X84894057Y-156011714D01*
X84894057Y-156011714D02*
X84846438Y-156059333D01*
X84846438Y-156059333D02*
X84798819Y-156154571D01*
X84798819Y-156154571D02*
X84798819Y-156345047D01*
X84798819Y-156345047D02*
X84846438Y-156440285D01*
X84846438Y-156440285D02*
X84894057Y-156487904D01*
X84894057Y-156487904D02*
X84989295Y-156535523D01*
X84989295Y-156535523D02*
X85227390Y-156535523D01*
X85227390Y-156535523D02*
X85322628Y-156487904D01*
X85322628Y-156487904D02*
X85370247Y-156440285D01*
X85370247Y-156440285D02*
X85417866Y-156345047D01*
X85417866Y-156345047D02*
X85417866Y-156154571D01*
X85417866Y-156154571D02*
X85370247Y-156059333D01*
X85370247Y-156059333D02*
X85322628Y-156011714D01*
X85322628Y-156011714D02*
X85227390Y-155964095D01*
X116716580Y-171997666D02*
X116764200Y-172045285D01*
X116764200Y-172045285D02*
X116811819Y-172188142D01*
X116811819Y-172188142D02*
X116811819Y-172283380D01*
X116811819Y-172283380D02*
X116764200Y-172426237D01*
X116764200Y-172426237D02*
X116668961Y-172521475D01*
X116668961Y-172521475D02*
X116573723Y-172569094D01*
X116573723Y-172569094D02*
X116383247Y-172616713D01*
X116383247Y-172616713D02*
X116240390Y-172616713D01*
X116240390Y-172616713D02*
X116049914Y-172569094D01*
X116049914Y-172569094D02*
X115954676Y-172521475D01*
X115954676Y-172521475D02*
X115859438Y-172426237D01*
X115859438Y-172426237D02*
X115811819Y-172283380D01*
X115811819Y-172283380D02*
X115811819Y-172188142D01*
X115811819Y-172188142D02*
X115859438Y-172045285D01*
X115859438Y-172045285D02*
X115907057Y-171997666D01*
X115811819Y-171664332D02*
X115811819Y-170997666D01*
X115811819Y-170997666D02*
X116811819Y-171426237D01*
X74255333Y-136165780D02*
X74207714Y-136213400D01*
X74207714Y-136213400D02*
X74064857Y-136261019D01*
X74064857Y-136261019D02*
X73969619Y-136261019D01*
X73969619Y-136261019D02*
X73826762Y-136213400D01*
X73826762Y-136213400D02*
X73731524Y-136118161D01*
X73731524Y-136118161D02*
X73683905Y-136022923D01*
X73683905Y-136022923D02*
X73636286Y-135832447D01*
X73636286Y-135832447D02*
X73636286Y-135689590D01*
X73636286Y-135689590D02*
X73683905Y-135499114D01*
X73683905Y-135499114D02*
X73731524Y-135403876D01*
X73731524Y-135403876D02*
X73826762Y-135308638D01*
X73826762Y-135308638D02*
X73969619Y-135261019D01*
X73969619Y-135261019D02*
X74064857Y-135261019D01*
X74064857Y-135261019D02*
X74207714Y-135308638D01*
X74207714Y-135308638D02*
X74255333Y-135356257D01*
X75207714Y-136261019D02*
X74636286Y-136261019D01*
X74922000Y-136261019D02*
X74922000Y-135261019D01*
X74922000Y-135261019D02*
X74826762Y-135403876D01*
X74826762Y-135403876D02*
X74731524Y-135499114D01*
X74731524Y-135499114D02*
X74636286Y-135546733D01*
X98911580Y-147047357D02*
X98959200Y-147094976D01*
X98959200Y-147094976D02*
X99006819Y-147237833D01*
X99006819Y-147237833D02*
X99006819Y-147333071D01*
X99006819Y-147333071D02*
X98959200Y-147475928D01*
X98959200Y-147475928D02*
X98863961Y-147571166D01*
X98863961Y-147571166D02*
X98768723Y-147618785D01*
X98768723Y-147618785D02*
X98578247Y-147666404D01*
X98578247Y-147666404D02*
X98435390Y-147666404D01*
X98435390Y-147666404D02*
X98244914Y-147618785D01*
X98244914Y-147618785D02*
X98149676Y-147571166D01*
X98149676Y-147571166D02*
X98054438Y-147475928D01*
X98054438Y-147475928D02*
X98006819Y-147333071D01*
X98006819Y-147333071D02*
X98006819Y-147237833D01*
X98006819Y-147237833D02*
X98054438Y-147094976D01*
X98054438Y-147094976D02*
X98102057Y-147047357D01*
X99006819Y-146094976D02*
X99006819Y-146666404D01*
X99006819Y-146380690D02*
X98006819Y-146380690D01*
X98006819Y-146380690D02*
X98149676Y-146475928D01*
X98149676Y-146475928D02*
X98244914Y-146571166D01*
X98244914Y-146571166D02*
X98292533Y-146666404D01*
X98102057Y-145714023D02*
X98054438Y-145666404D01*
X98054438Y-145666404D02*
X98006819Y-145571166D01*
X98006819Y-145571166D02*
X98006819Y-145333071D01*
X98006819Y-145333071D02*
X98054438Y-145237833D01*
X98054438Y-145237833D02*
X98102057Y-145190214D01*
X98102057Y-145190214D02*
X98197295Y-145142595D01*
X98197295Y-145142595D02*
X98292533Y-145142595D01*
X98292533Y-145142595D02*
X98435390Y-145190214D01*
X98435390Y-145190214D02*
X99006819Y-145761642D01*
X99006819Y-145761642D02*
X99006819Y-145142595D01*
X71479819Y-150091404D02*
X72289342Y-150091404D01*
X72289342Y-150091404D02*
X72384580Y-150043785D01*
X72384580Y-150043785D02*
X72432200Y-149996166D01*
X72432200Y-149996166D02*
X72479819Y-149900928D01*
X72479819Y-149900928D02*
X72479819Y-149710452D01*
X72479819Y-149710452D02*
X72432200Y-149615214D01*
X72432200Y-149615214D02*
X72384580Y-149567595D01*
X72384580Y-149567595D02*
X72289342Y-149519976D01*
X72289342Y-149519976D02*
X71479819Y-149519976D01*
X72479819Y-148519976D02*
X72479819Y-149091404D01*
X72479819Y-148805690D02*
X71479819Y-148805690D01*
X71479819Y-148805690D02*
X71622676Y-148900928D01*
X71622676Y-148900928D02*
X71717914Y-148996166D01*
X71717914Y-148996166D02*
X71765533Y-149091404D01*
X89495980Y-136753695D02*
X89495980Y-137325123D01*
X88495980Y-137039409D02*
X89495980Y-137039409D01*
X88495980Y-138182266D02*
X88495980Y-137610838D01*
X88495980Y-137896552D02*
X89495980Y-137896552D01*
X89495980Y-137896552D02*
X89353123Y-137801314D01*
X89353123Y-137801314D02*
X89257885Y-137706076D01*
X89257885Y-137706076D02*
X89210266Y-137610838D01*
X109039819Y-148185094D02*
X108039819Y-148185094D01*
X108039819Y-148185094D02*
X108039819Y-147946999D01*
X108039819Y-147946999D02*
X108087438Y-147804142D01*
X108087438Y-147804142D02*
X108182676Y-147708904D01*
X108182676Y-147708904D02*
X108277914Y-147661285D01*
X108277914Y-147661285D02*
X108468390Y-147613666D01*
X108468390Y-147613666D02*
X108611247Y-147613666D01*
X108611247Y-147613666D02*
X108801723Y-147661285D01*
X108801723Y-147661285D02*
X108896961Y-147708904D01*
X108896961Y-147708904D02*
X108992200Y-147804142D01*
X108992200Y-147804142D02*
X109039819Y-147946999D01*
X109039819Y-147946999D02*
X109039819Y-148185094D01*
X108039819Y-147280332D02*
X108039819Y-146661285D01*
X108039819Y-146661285D02*
X108420771Y-146994618D01*
X108420771Y-146994618D02*
X108420771Y-146851761D01*
X108420771Y-146851761D02*
X108468390Y-146756523D01*
X108468390Y-146756523D02*
X108516009Y-146708904D01*
X108516009Y-146708904D02*
X108611247Y-146661285D01*
X108611247Y-146661285D02*
X108849342Y-146661285D01*
X108849342Y-146661285D02*
X108944580Y-146708904D01*
X108944580Y-146708904D02*
X108992200Y-146756523D01*
X108992200Y-146756523D02*
X109039819Y-146851761D01*
X109039819Y-146851761D02*
X109039819Y-147137475D01*
X109039819Y-147137475D02*
X108992200Y-147232713D01*
X108992200Y-147232713D02*
X108944580Y-147280332D01*
X98911580Y-131706857D02*
X98959200Y-131754476D01*
X98959200Y-131754476D02*
X99006819Y-131897333D01*
X99006819Y-131897333D02*
X99006819Y-131992571D01*
X99006819Y-131992571D02*
X98959200Y-132135428D01*
X98959200Y-132135428D02*
X98863961Y-132230666D01*
X98863961Y-132230666D02*
X98768723Y-132278285D01*
X98768723Y-132278285D02*
X98578247Y-132325904D01*
X98578247Y-132325904D02*
X98435390Y-132325904D01*
X98435390Y-132325904D02*
X98244914Y-132278285D01*
X98244914Y-132278285D02*
X98149676Y-132230666D01*
X98149676Y-132230666D02*
X98054438Y-132135428D01*
X98054438Y-132135428D02*
X98006819Y-131992571D01*
X98006819Y-131992571D02*
X98006819Y-131897333D01*
X98006819Y-131897333D02*
X98054438Y-131754476D01*
X98054438Y-131754476D02*
X98102057Y-131706857D01*
X99006819Y-130754476D02*
X99006819Y-131325904D01*
X99006819Y-131040190D02*
X98006819Y-131040190D01*
X98006819Y-131040190D02*
X98149676Y-131135428D01*
X98149676Y-131135428D02*
X98244914Y-131230666D01*
X98244914Y-131230666D02*
X98292533Y-131325904D01*
X98340152Y-129897333D02*
X99006819Y-129897333D01*
X97959200Y-130135428D02*
X98673485Y-130373523D01*
X98673485Y-130373523D02*
X98673485Y-129754476D01*
X105554142Y-180318580D02*
X105506523Y-180366200D01*
X105506523Y-180366200D02*
X105363666Y-180413819D01*
X105363666Y-180413819D02*
X105268428Y-180413819D01*
X105268428Y-180413819D02*
X105125571Y-180366200D01*
X105125571Y-180366200D02*
X105030333Y-180270961D01*
X105030333Y-180270961D02*
X104982714Y-180175723D01*
X104982714Y-180175723D02*
X104935095Y-179985247D01*
X104935095Y-179985247D02*
X104935095Y-179842390D01*
X104935095Y-179842390D02*
X104982714Y-179651914D01*
X104982714Y-179651914D02*
X105030333Y-179556676D01*
X105030333Y-179556676D02*
X105125571Y-179461438D01*
X105125571Y-179461438D02*
X105268428Y-179413819D01*
X105268428Y-179413819D02*
X105363666Y-179413819D01*
X105363666Y-179413819D02*
X105506523Y-179461438D01*
X105506523Y-179461438D02*
X105554142Y-179509057D01*
X105887476Y-179413819D02*
X106506523Y-179413819D01*
X106506523Y-179413819D02*
X106173190Y-179794771D01*
X106173190Y-179794771D02*
X106316047Y-179794771D01*
X106316047Y-179794771D02*
X106411285Y-179842390D01*
X106411285Y-179842390D02*
X106458904Y-179890009D01*
X106458904Y-179890009D02*
X106506523Y-179985247D01*
X106506523Y-179985247D02*
X106506523Y-180223342D01*
X106506523Y-180223342D02*
X106458904Y-180318580D01*
X106458904Y-180318580D02*
X106411285Y-180366200D01*
X106411285Y-180366200D02*
X106316047Y-180413819D01*
X106316047Y-180413819D02*
X106030333Y-180413819D01*
X106030333Y-180413819D02*
X105935095Y-180366200D01*
X105935095Y-180366200D02*
X105887476Y-180318580D01*
X107125571Y-179413819D02*
X107220809Y-179413819D01*
X107220809Y-179413819D02*
X107316047Y-179461438D01*
X107316047Y-179461438D02*
X107363666Y-179509057D01*
X107363666Y-179509057D02*
X107411285Y-179604295D01*
X107411285Y-179604295D02*
X107458904Y-179794771D01*
X107458904Y-179794771D02*
X107458904Y-180032866D01*
X107458904Y-180032866D02*
X107411285Y-180223342D01*
X107411285Y-180223342D02*
X107363666Y-180318580D01*
X107363666Y-180318580D02*
X107316047Y-180366200D01*
X107316047Y-180366200D02*
X107220809Y-180413819D01*
X107220809Y-180413819D02*
X107125571Y-180413819D01*
X107125571Y-180413819D02*
X107030333Y-180366200D01*
X107030333Y-180366200D02*
X106982714Y-180318580D01*
X106982714Y-180318580D02*
X106935095Y-180223342D01*
X106935095Y-180223342D02*
X106887476Y-180032866D01*
X106887476Y-180032866D02*
X106887476Y-179794771D01*
X106887476Y-179794771D02*
X106935095Y-179604295D01*
X106935095Y-179604295D02*
X106982714Y-179509057D01*
X106982714Y-179509057D02*
X107030333Y-179461438D01*
X107030333Y-179461438D02*
X107125571Y-179413819D01*
X71574819Y-135548666D02*
X71098628Y-135881999D01*
X71574819Y-136120094D02*
X70574819Y-136120094D01*
X70574819Y-136120094D02*
X70574819Y-135739142D01*
X70574819Y-135739142D02*
X70622438Y-135643904D01*
X70622438Y-135643904D02*
X70670057Y-135596285D01*
X70670057Y-135596285D02*
X70765295Y-135548666D01*
X70765295Y-135548666D02*
X70908152Y-135548666D01*
X70908152Y-135548666D02*
X71003390Y-135596285D01*
X71003390Y-135596285D02*
X71051009Y-135643904D01*
X71051009Y-135643904D02*
X71098628Y-135739142D01*
X71098628Y-135739142D02*
X71098628Y-136120094D01*
X71574819Y-134596285D02*
X71574819Y-135167713D01*
X71574819Y-134881999D02*
X70574819Y-134881999D01*
X70574819Y-134881999D02*
X70717676Y-134977237D01*
X70717676Y-134977237D02*
X70812914Y-135072475D01*
X70812914Y-135072475D02*
X70860533Y-135167713D01*
X79718819Y-171957904D02*
X80528342Y-171957904D01*
X80528342Y-171957904D02*
X80623580Y-171910285D01*
X80623580Y-171910285D02*
X80671200Y-171862666D01*
X80671200Y-171862666D02*
X80718819Y-171767428D01*
X80718819Y-171767428D02*
X80718819Y-171576952D01*
X80718819Y-171576952D02*
X80671200Y-171481714D01*
X80671200Y-171481714D02*
X80623580Y-171434095D01*
X80623580Y-171434095D02*
X80528342Y-171386476D01*
X80528342Y-171386476D02*
X79718819Y-171386476D01*
X80147390Y-170767428D02*
X80099771Y-170862666D01*
X80099771Y-170862666D02*
X80052152Y-170910285D01*
X80052152Y-170910285D02*
X79956914Y-170957904D01*
X79956914Y-170957904D02*
X79909295Y-170957904D01*
X79909295Y-170957904D02*
X79814057Y-170910285D01*
X79814057Y-170910285D02*
X79766438Y-170862666D01*
X79766438Y-170862666D02*
X79718819Y-170767428D01*
X79718819Y-170767428D02*
X79718819Y-170576952D01*
X79718819Y-170576952D02*
X79766438Y-170481714D01*
X79766438Y-170481714D02*
X79814057Y-170434095D01*
X79814057Y-170434095D02*
X79909295Y-170386476D01*
X79909295Y-170386476D02*
X79956914Y-170386476D01*
X79956914Y-170386476D02*
X80052152Y-170434095D01*
X80052152Y-170434095D02*
X80099771Y-170481714D01*
X80099771Y-170481714D02*
X80147390Y-170576952D01*
X80147390Y-170576952D02*
X80147390Y-170767428D01*
X80147390Y-170767428D02*
X80195009Y-170862666D01*
X80195009Y-170862666D02*
X80242628Y-170910285D01*
X80242628Y-170910285D02*
X80337866Y-170957904D01*
X80337866Y-170957904D02*
X80528342Y-170957904D01*
X80528342Y-170957904D02*
X80623580Y-170910285D01*
X80623580Y-170910285D02*
X80671200Y-170862666D01*
X80671200Y-170862666D02*
X80718819Y-170767428D01*
X80718819Y-170767428D02*
X80718819Y-170576952D01*
X80718819Y-170576952D02*
X80671200Y-170481714D01*
X80671200Y-170481714D02*
X80623580Y-170434095D01*
X80623580Y-170434095D02*
X80528342Y-170386476D01*
X80528342Y-170386476D02*
X80337866Y-170386476D01*
X80337866Y-170386476D02*
X80242628Y-170434095D01*
X80242628Y-170434095D02*
X80195009Y-170481714D01*
X80195009Y-170481714D02*
X80147390Y-170576952D01*
X95903642Y-179429580D02*
X95856023Y-179477200D01*
X95856023Y-179477200D02*
X95713166Y-179524819D01*
X95713166Y-179524819D02*
X95617928Y-179524819D01*
X95617928Y-179524819D02*
X95475071Y-179477200D01*
X95475071Y-179477200D02*
X95379833Y-179381961D01*
X95379833Y-179381961D02*
X95332214Y-179286723D01*
X95332214Y-179286723D02*
X95284595Y-179096247D01*
X95284595Y-179096247D02*
X95284595Y-178953390D01*
X95284595Y-178953390D02*
X95332214Y-178762914D01*
X95332214Y-178762914D02*
X95379833Y-178667676D01*
X95379833Y-178667676D02*
X95475071Y-178572438D01*
X95475071Y-178572438D02*
X95617928Y-178524819D01*
X95617928Y-178524819D02*
X95713166Y-178524819D01*
X95713166Y-178524819D02*
X95856023Y-178572438D01*
X95856023Y-178572438D02*
X95903642Y-178620057D01*
X96284595Y-178620057D02*
X96332214Y-178572438D01*
X96332214Y-178572438D02*
X96427452Y-178524819D01*
X96427452Y-178524819D02*
X96665547Y-178524819D01*
X96665547Y-178524819D02*
X96760785Y-178572438D01*
X96760785Y-178572438D02*
X96808404Y-178620057D01*
X96808404Y-178620057D02*
X96856023Y-178715295D01*
X96856023Y-178715295D02*
X96856023Y-178810533D01*
X96856023Y-178810533D02*
X96808404Y-178953390D01*
X96808404Y-178953390D02*
X96236976Y-179524819D01*
X96236976Y-179524819D02*
X96856023Y-179524819D01*
X97189357Y-178524819D02*
X97808404Y-178524819D01*
X97808404Y-178524819D02*
X97475071Y-178905771D01*
X97475071Y-178905771D02*
X97617928Y-178905771D01*
X97617928Y-178905771D02*
X97713166Y-178953390D01*
X97713166Y-178953390D02*
X97760785Y-179001009D01*
X97760785Y-179001009D02*
X97808404Y-179096247D01*
X97808404Y-179096247D02*
X97808404Y-179334342D01*
X97808404Y-179334342D02*
X97760785Y-179429580D01*
X97760785Y-179429580D02*
X97713166Y-179477200D01*
X97713166Y-179477200D02*
X97617928Y-179524819D01*
X97617928Y-179524819D02*
X97332214Y-179524819D01*
X97332214Y-179524819D02*
X97236976Y-179477200D01*
X97236976Y-179477200D02*
X97189357Y-179429580D01*
X72985333Y-141737080D02*
X72937714Y-141784700D01*
X72937714Y-141784700D02*
X72794857Y-141832319D01*
X72794857Y-141832319D02*
X72699619Y-141832319D01*
X72699619Y-141832319D02*
X72556762Y-141784700D01*
X72556762Y-141784700D02*
X72461524Y-141689461D01*
X72461524Y-141689461D02*
X72413905Y-141594223D01*
X72413905Y-141594223D02*
X72366286Y-141403747D01*
X72366286Y-141403747D02*
X72366286Y-141260890D01*
X72366286Y-141260890D02*
X72413905Y-141070414D01*
X72413905Y-141070414D02*
X72461524Y-140975176D01*
X72461524Y-140975176D02*
X72556762Y-140879938D01*
X72556762Y-140879938D02*
X72699619Y-140832319D01*
X72699619Y-140832319D02*
X72794857Y-140832319D01*
X72794857Y-140832319D02*
X72937714Y-140879938D01*
X72937714Y-140879938D02*
X72985333Y-140927557D01*
X73318667Y-140832319D02*
X73937714Y-140832319D01*
X73937714Y-140832319D02*
X73604381Y-141213271D01*
X73604381Y-141213271D02*
X73747238Y-141213271D01*
X73747238Y-141213271D02*
X73842476Y-141260890D01*
X73842476Y-141260890D02*
X73890095Y-141308509D01*
X73890095Y-141308509D02*
X73937714Y-141403747D01*
X73937714Y-141403747D02*
X73937714Y-141641842D01*
X73937714Y-141641842D02*
X73890095Y-141737080D01*
X73890095Y-141737080D02*
X73842476Y-141784700D01*
X73842476Y-141784700D02*
X73747238Y-141832319D01*
X73747238Y-141832319D02*
X73461524Y-141832319D01*
X73461524Y-141832319D02*
X73366286Y-141784700D01*
X73366286Y-141784700D02*
X73318667Y-141737080D01*
X85703580Y-163202857D02*
X85751200Y-163250476D01*
X85751200Y-163250476D02*
X85798819Y-163393333D01*
X85798819Y-163393333D02*
X85798819Y-163488571D01*
X85798819Y-163488571D02*
X85751200Y-163631428D01*
X85751200Y-163631428D02*
X85655961Y-163726666D01*
X85655961Y-163726666D02*
X85560723Y-163774285D01*
X85560723Y-163774285D02*
X85370247Y-163821904D01*
X85370247Y-163821904D02*
X85227390Y-163821904D01*
X85227390Y-163821904D02*
X85036914Y-163774285D01*
X85036914Y-163774285D02*
X84941676Y-163726666D01*
X84941676Y-163726666D02*
X84846438Y-163631428D01*
X84846438Y-163631428D02*
X84798819Y-163488571D01*
X84798819Y-163488571D02*
X84798819Y-163393333D01*
X84798819Y-163393333D02*
X84846438Y-163250476D01*
X84846438Y-163250476D02*
X84894057Y-163202857D01*
X85798819Y-162250476D02*
X85798819Y-162821904D01*
X85798819Y-162536190D02*
X84798819Y-162536190D01*
X84798819Y-162536190D02*
X84941676Y-162631428D01*
X84941676Y-162631428D02*
X85036914Y-162726666D01*
X85036914Y-162726666D02*
X85084533Y-162821904D01*
X84798819Y-161917142D02*
X84798819Y-161250476D01*
X84798819Y-161250476D02*
X85798819Y-161679047D01*
X103973333Y-135074819D02*
X103640000Y-134598628D01*
X103401905Y-135074819D02*
X103401905Y-134074819D01*
X103401905Y-134074819D02*
X103782857Y-134074819D01*
X103782857Y-134074819D02*
X103878095Y-134122438D01*
X103878095Y-134122438D02*
X103925714Y-134170057D01*
X103925714Y-134170057D02*
X103973333Y-134265295D01*
X103973333Y-134265295D02*
X103973333Y-134408152D01*
X103973333Y-134408152D02*
X103925714Y-134503390D01*
X103925714Y-134503390D02*
X103878095Y-134551009D01*
X103878095Y-134551009D02*
X103782857Y-134598628D01*
X103782857Y-134598628D02*
X103401905Y-134598628D01*
X104878095Y-134074819D02*
X104401905Y-134074819D01*
X104401905Y-134074819D02*
X104354286Y-134551009D01*
X104354286Y-134551009D02*
X104401905Y-134503390D01*
X104401905Y-134503390D02*
X104497143Y-134455771D01*
X104497143Y-134455771D02*
X104735238Y-134455771D01*
X104735238Y-134455771D02*
X104830476Y-134503390D01*
X104830476Y-134503390D02*
X104878095Y-134551009D01*
X104878095Y-134551009D02*
X104925714Y-134646247D01*
X104925714Y-134646247D02*
X104925714Y-134884342D01*
X104925714Y-134884342D02*
X104878095Y-134979580D01*
X104878095Y-134979580D02*
X104830476Y-135027200D01*
X104830476Y-135027200D02*
X104735238Y-135074819D01*
X104735238Y-135074819D02*
X104497143Y-135074819D01*
X104497143Y-135074819D02*
X104401905Y-135027200D01*
X104401905Y-135027200D02*
X104354286Y-134979580D01*
X78083580Y-163176357D02*
X78131200Y-163223976D01*
X78131200Y-163223976D02*
X78178819Y-163366833D01*
X78178819Y-163366833D02*
X78178819Y-163462071D01*
X78178819Y-163462071D02*
X78131200Y-163604928D01*
X78131200Y-163604928D02*
X78035961Y-163700166D01*
X78035961Y-163700166D02*
X77940723Y-163747785D01*
X77940723Y-163747785D02*
X77750247Y-163795404D01*
X77750247Y-163795404D02*
X77607390Y-163795404D01*
X77607390Y-163795404D02*
X77416914Y-163747785D01*
X77416914Y-163747785D02*
X77321676Y-163700166D01*
X77321676Y-163700166D02*
X77226438Y-163604928D01*
X77226438Y-163604928D02*
X77178819Y-163462071D01*
X77178819Y-163462071D02*
X77178819Y-163366833D01*
X77178819Y-163366833D02*
X77226438Y-163223976D01*
X77226438Y-163223976D02*
X77274057Y-163176357D01*
X77178819Y-162843023D02*
X77178819Y-162223976D01*
X77178819Y-162223976D02*
X77559771Y-162557309D01*
X77559771Y-162557309D02*
X77559771Y-162414452D01*
X77559771Y-162414452D02*
X77607390Y-162319214D01*
X77607390Y-162319214D02*
X77655009Y-162271595D01*
X77655009Y-162271595D02*
X77750247Y-162223976D01*
X77750247Y-162223976D02*
X77988342Y-162223976D01*
X77988342Y-162223976D02*
X78083580Y-162271595D01*
X78083580Y-162271595D02*
X78131200Y-162319214D01*
X78131200Y-162319214D02*
X78178819Y-162414452D01*
X78178819Y-162414452D02*
X78178819Y-162700166D01*
X78178819Y-162700166D02*
X78131200Y-162795404D01*
X78131200Y-162795404D02*
X78083580Y-162843023D01*
X78178819Y-161271595D02*
X78178819Y-161843023D01*
X78178819Y-161557309D02*
X77178819Y-161557309D01*
X77178819Y-161557309D02*
X77321676Y-161652547D01*
X77321676Y-161652547D02*
X77416914Y-161747785D01*
X77416914Y-161747785D02*
X77464533Y-161843023D01*
X80351333Y-134058819D02*
X80018000Y-133582628D01*
X79779905Y-134058819D02*
X79779905Y-133058819D01*
X79779905Y-133058819D02*
X80160857Y-133058819D01*
X80160857Y-133058819D02*
X80256095Y-133106438D01*
X80256095Y-133106438D02*
X80303714Y-133154057D01*
X80303714Y-133154057D02*
X80351333Y-133249295D01*
X80351333Y-133249295D02*
X80351333Y-133392152D01*
X80351333Y-133392152D02*
X80303714Y-133487390D01*
X80303714Y-133487390D02*
X80256095Y-133535009D01*
X80256095Y-133535009D02*
X80160857Y-133582628D01*
X80160857Y-133582628D02*
X79779905Y-133582628D01*
X80732286Y-133154057D02*
X80779905Y-133106438D01*
X80779905Y-133106438D02*
X80875143Y-133058819D01*
X80875143Y-133058819D02*
X81113238Y-133058819D01*
X81113238Y-133058819D02*
X81208476Y-133106438D01*
X81208476Y-133106438D02*
X81256095Y-133154057D01*
X81256095Y-133154057D02*
X81303714Y-133249295D01*
X81303714Y-133249295D02*
X81303714Y-133344533D01*
X81303714Y-133344533D02*
X81256095Y-133487390D01*
X81256095Y-133487390D02*
X80684667Y-134058819D01*
X80684667Y-134058819D02*
X81303714Y-134058819D01*
X86465580Y-142020357D02*
X86513200Y-142067976D01*
X86513200Y-142067976D02*
X86560819Y-142210833D01*
X86560819Y-142210833D02*
X86560819Y-142306071D01*
X86560819Y-142306071D02*
X86513200Y-142448928D01*
X86513200Y-142448928D02*
X86417961Y-142544166D01*
X86417961Y-142544166D02*
X86322723Y-142591785D01*
X86322723Y-142591785D02*
X86132247Y-142639404D01*
X86132247Y-142639404D02*
X85989390Y-142639404D01*
X85989390Y-142639404D02*
X85798914Y-142591785D01*
X85798914Y-142591785D02*
X85703676Y-142544166D01*
X85703676Y-142544166D02*
X85608438Y-142448928D01*
X85608438Y-142448928D02*
X85560819Y-142306071D01*
X85560819Y-142306071D02*
X85560819Y-142210833D01*
X85560819Y-142210833D02*
X85608438Y-142067976D01*
X85608438Y-142067976D02*
X85656057Y-142020357D01*
X86560819Y-141067976D02*
X86560819Y-141639404D01*
X86560819Y-141353690D02*
X85560819Y-141353690D01*
X85560819Y-141353690D02*
X85703676Y-141448928D01*
X85703676Y-141448928D02*
X85798914Y-141544166D01*
X85798914Y-141544166D02*
X85846533Y-141639404D01*
X85560819Y-140448928D02*
X85560819Y-140353690D01*
X85560819Y-140353690D02*
X85608438Y-140258452D01*
X85608438Y-140258452D02*
X85656057Y-140210833D01*
X85656057Y-140210833D02*
X85751295Y-140163214D01*
X85751295Y-140163214D02*
X85941771Y-140115595D01*
X85941771Y-140115595D02*
X86179866Y-140115595D01*
X86179866Y-140115595D02*
X86370342Y-140163214D01*
X86370342Y-140163214D02*
X86465580Y-140210833D01*
X86465580Y-140210833D02*
X86513200Y-140258452D01*
X86513200Y-140258452D02*
X86560819Y-140353690D01*
X86560819Y-140353690D02*
X86560819Y-140448928D01*
X86560819Y-140448928D02*
X86513200Y-140544166D01*
X86513200Y-140544166D02*
X86465580Y-140591785D01*
X86465580Y-140591785D02*
X86370342Y-140639404D01*
X86370342Y-140639404D02*
X86179866Y-140687023D01*
X86179866Y-140687023D02*
X85941771Y-140687023D01*
X85941771Y-140687023D02*
X85751295Y-140639404D01*
X85751295Y-140639404D02*
X85656057Y-140591785D01*
X85656057Y-140591785D02*
X85608438Y-140544166D01*
X85608438Y-140544166D02*
X85560819Y-140448928D01*
X115595095Y-174913819D02*
X115595095Y-175723342D01*
X115595095Y-175723342D02*
X115642714Y-175818580D01*
X115642714Y-175818580D02*
X115690333Y-175866200D01*
X115690333Y-175866200D02*
X115785571Y-175913819D01*
X115785571Y-175913819D02*
X115976047Y-175913819D01*
X115976047Y-175913819D02*
X116071285Y-175866200D01*
X116071285Y-175866200D02*
X116118904Y-175818580D01*
X116118904Y-175818580D02*
X116166523Y-175723342D01*
X116166523Y-175723342D02*
X116166523Y-174913819D01*
X116547476Y-174913819D02*
X117214142Y-174913819D01*
X117214142Y-174913819D02*
X116785571Y-175913819D01*
X80351333Y-130407580D02*
X80303714Y-130455200D01*
X80303714Y-130455200D02*
X80160857Y-130502819D01*
X80160857Y-130502819D02*
X80065619Y-130502819D01*
X80065619Y-130502819D02*
X79922762Y-130455200D01*
X79922762Y-130455200D02*
X79827524Y-130359961D01*
X79827524Y-130359961D02*
X79779905Y-130264723D01*
X79779905Y-130264723D02*
X79732286Y-130074247D01*
X79732286Y-130074247D02*
X79732286Y-129931390D01*
X79732286Y-129931390D02*
X79779905Y-129740914D01*
X79779905Y-129740914D02*
X79827524Y-129645676D01*
X79827524Y-129645676D02*
X79922762Y-129550438D01*
X79922762Y-129550438D02*
X80065619Y-129502819D01*
X80065619Y-129502819D02*
X80160857Y-129502819D01*
X80160857Y-129502819D02*
X80303714Y-129550438D01*
X80303714Y-129550438D02*
X80351333Y-129598057D01*
X80827524Y-130502819D02*
X81018000Y-130502819D01*
X81018000Y-130502819D02*
X81113238Y-130455200D01*
X81113238Y-130455200D02*
X81160857Y-130407580D01*
X81160857Y-130407580D02*
X81256095Y-130264723D01*
X81256095Y-130264723D02*
X81303714Y-130074247D01*
X81303714Y-130074247D02*
X81303714Y-129693295D01*
X81303714Y-129693295D02*
X81256095Y-129598057D01*
X81256095Y-129598057D02*
X81208476Y-129550438D01*
X81208476Y-129550438D02*
X81113238Y-129502819D01*
X81113238Y-129502819D02*
X80922762Y-129502819D01*
X80922762Y-129502819D02*
X80827524Y-129550438D01*
X80827524Y-129550438D02*
X80779905Y-129598057D01*
X80779905Y-129598057D02*
X80732286Y-129693295D01*
X80732286Y-129693295D02*
X80732286Y-129931390D01*
X80732286Y-129931390D02*
X80779905Y-130026628D01*
X80779905Y-130026628D02*
X80827524Y-130074247D01*
X80827524Y-130074247D02*
X80922762Y-130121866D01*
X80922762Y-130121866D02*
X81113238Y-130121866D01*
X81113238Y-130121866D02*
X81208476Y-130074247D01*
X81208476Y-130074247D02*
X81256095Y-130026628D01*
X81256095Y-130026628D02*
X81303714Y-129931390D01*
X118763642Y-142947580D02*
X118716023Y-142995200D01*
X118716023Y-142995200D02*
X118573166Y-143042819D01*
X118573166Y-143042819D02*
X118477928Y-143042819D01*
X118477928Y-143042819D02*
X118335071Y-142995200D01*
X118335071Y-142995200D02*
X118239833Y-142899961D01*
X118239833Y-142899961D02*
X118192214Y-142804723D01*
X118192214Y-142804723D02*
X118144595Y-142614247D01*
X118144595Y-142614247D02*
X118144595Y-142471390D01*
X118144595Y-142471390D02*
X118192214Y-142280914D01*
X118192214Y-142280914D02*
X118239833Y-142185676D01*
X118239833Y-142185676D02*
X118335071Y-142090438D01*
X118335071Y-142090438D02*
X118477928Y-142042819D01*
X118477928Y-142042819D02*
X118573166Y-142042819D01*
X118573166Y-142042819D02*
X118716023Y-142090438D01*
X118716023Y-142090438D02*
X118763642Y-142138057D01*
X119716023Y-143042819D02*
X119144595Y-143042819D01*
X119430309Y-143042819D02*
X119430309Y-142042819D01*
X119430309Y-142042819D02*
X119335071Y-142185676D01*
X119335071Y-142185676D02*
X119239833Y-142280914D01*
X119239833Y-142280914D02*
X119144595Y-142328533D01*
X120287452Y-142471390D02*
X120192214Y-142423771D01*
X120192214Y-142423771D02*
X120144595Y-142376152D01*
X120144595Y-142376152D02*
X120096976Y-142280914D01*
X120096976Y-142280914D02*
X120096976Y-142233295D01*
X120096976Y-142233295D02*
X120144595Y-142138057D01*
X120144595Y-142138057D02*
X120192214Y-142090438D01*
X120192214Y-142090438D02*
X120287452Y-142042819D01*
X120287452Y-142042819D02*
X120477928Y-142042819D01*
X120477928Y-142042819D02*
X120573166Y-142090438D01*
X120573166Y-142090438D02*
X120620785Y-142138057D01*
X120620785Y-142138057D02*
X120668404Y-142233295D01*
X120668404Y-142233295D02*
X120668404Y-142280914D01*
X120668404Y-142280914D02*
X120620785Y-142376152D01*
X120620785Y-142376152D02*
X120573166Y-142423771D01*
X120573166Y-142423771D02*
X120477928Y-142471390D01*
X120477928Y-142471390D02*
X120287452Y-142471390D01*
X120287452Y-142471390D02*
X120192214Y-142519009D01*
X120192214Y-142519009D02*
X120144595Y-142566628D01*
X120144595Y-142566628D02*
X120096976Y-142661866D01*
X120096976Y-142661866D02*
X120096976Y-142852342D01*
X120096976Y-142852342D02*
X120144595Y-142947580D01*
X120144595Y-142947580D02*
X120192214Y-142995200D01*
X120192214Y-142995200D02*
X120287452Y-143042819D01*
X120287452Y-143042819D02*
X120477928Y-143042819D01*
X120477928Y-143042819D02*
X120573166Y-142995200D01*
X120573166Y-142995200D02*
X120620785Y-142947580D01*
X120620785Y-142947580D02*
X120668404Y-142852342D01*
X120668404Y-142852342D02*
X120668404Y-142661866D01*
X120668404Y-142661866D02*
X120620785Y-142566628D01*
X120620785Y-142566628D02*
X120573166Y-142519009D01*
X120573166Y-142519009D02*
X120477928Y-142471390D01*
X104155642Y-168188819D02*
X103822309Y-167712628D01*
X103584214Y-168188819D02*
X103584214Y-167188819D01*
X103584214Y-167188819D02*
X103965166Y-167188819D01*
X103965166Y-167188819D02*
X104060404Y-167236438D01*
X104060404Y-167236438D02*
X104108023Y-167284057D01*
X104108023Y-167284057D02*
X104155642Y-167379295D01*
X104155642Y-167379295D02*
X104155642Y-167522152D01*
X104155642Y-167522152D02*
X104108023Y-167617390D01*
X104108023Y-167617390D02*
X104060404Y-167665009D01*
X104060404Y-167665009D02*
X103965166Y-167712628D01*
X103965166Y-167712628D02*
X103584214Y-167712628D01*
X105108023Y-168188819D02*
X104536595Y-168188819D01*
X104822309Y-168188819D02*
X104822309Y-167188819D01*
X104822309Y-167188819D02*
X104727071Y-167331676D01*
X104727071Y-167331676D02*
X104631833Y-167426914D01*
X104631833Y-167426914D02*
X104536595Y-167474533D01*
X106060404Y-168188819D02*
X105488976Y-168188819D01*
X105774690Y-168188819D02*
X105774690Y-167188819D01*
X105774690Y-167188819D02*
X105679452Y-167331676D01*
X105679452Y-167331676D02*
X105584214Y-167426914D01*
X105584214Y-167426914D02*
X105488976Y-167474533D01*
X95776642Y-173841580D02*
X95729023Y-173889200D01*
X95729023Y-173889200D02*
X95586166Y-173936819D01*
X95586166Y-173936819D02*
X95490928Y-173936819D01*
X95490928Y-173936819D02*
X95348071Y-173889200D01*
X95348071Y-173889200D02*
X95252833Y-173793961D01*
X95252833Y-173793961D02*
X95205214Y-173698723D01*
X95205214Y-173698723D02*
X95157595Y-173508247D01*
X95157595Y-173508247D02*
X95157595Y-173365390D01*
X95157595Y-173365390D02*
X95205214Y-173174914D01*
X95205214Y-173174914D02*
X95252833Y-173079676D01*
X95252833Y-173079676D02*
X95348071Y-172984438D01*
X95348071Y-172984438D02*
X95490928Y-172936819D01*
X95490928Y-172936819D02*
X95586166Y-172936819D01*
X95586166Y-172936819D02*
X95729023Y-172984438D01*
X95729023Y-172984438D02*
X95776642Y-173032057D01*
X96157595Y-173032057D02*
X96205214Y-172984438D01*
X96205214Y-172984438D02*
X96300452Y-172936819D01*
X96300452Y-172936819D02*
X96538547Y-172936819D01*
X96538547Y-172936819D02*
X96633785Y-172984438D01*
X96633785Y-172984438D02*
X96681404Y-173032057D01*
X96681404Y-173032057D02*
X96729023Y-173127295D01*
X96729023Y-173127295D02*
X96729023Y-173222533D01*
X96729023Y-173222533D02*
X96681404Y-173365390D01*
X96681404Y-173365390D02*
X96109976Y-173936819D01*
X96109976Y-173936819D02*
X96729023Y-173936819D01*
X97633785Y-172936819D02*
X97157595Y-172936819D01*
X97157595Y-172936819D02*
X97109976Y-173413009D01*
X97109976Y-173413009D02*
X97157595Y-173365390D01*
X97157595Y-173365390D02*
X97252833Y-173317771D01*
X97252833Y-173317771D02*
X97490928Y-173317771D01*
X97490928Y-173317771D02*
X97586166Y-173365390D01*
X97586166Y-173365390D02*
X97633785Y-173413009D01*
X97633785Y-173413009D02*
X97681404Y-173508247D01*
X97681404Y-173508247D02*
X97681404Y-173746342D01*
X97681404Y-173746342D02*
X97633785Y-173841580D01*
X97633785Y-173841580D02*
X97586166Y-173889200D01*
X97586166Y-173889200D02*
X97490928Y-173936819D01*
X97490928Y-173936819D02*
X97252833Y-173936819D01*
X97252833Y-173936819D02*
X97157595Y-173889200D01*
X97157595Y-173889200D02*
X97109976Y-173841580D01*
D11*
%TO.C,C27*%
X112440767Y-153037000D02*
X112148233Y-153037000D01*
X112440767Y-152017000D02*
X112148233Y-152017000D01*
%TO.C,R9*%
X90805724Y-167908500D02*
X90296276Y-167908500D01*
X90805724Y-166863500D02*
X90296276Y-166863500D01*
%TO.C,R16*%
X72023500Y-168909276D02*
X72023500Y-169418724D01*
X70978500Y-168909276D02*
X70978500Y-169418724D01*
%TO.C,D4*%
X104791000Y-153237000D02*
X106791000Y-153237000D01*
X104791000Y-153237000D02*
X104791000Y-149227000D01*
X106791000Y-153237000D02*
X106791000Y-149227000D01*
%TO.C,C29*%
X109506233Y-181735000D02*
X109798767Y-181735000D01*
X109506233Y-182755000D02*
X109798767Y-182755000D01*
%TO.C,R13*%
X80032776Y-166101500D02*
X80542224Y-166101500D01*
X80032776Y-167146500D02*
X80542224Y-167146500D01*
%TO.C,C26*%
X112647000Y-150106767D02*
X112647000Y-149814233D01*
X113667000Y-150106767D02*
X113667000Y-149814233D01*
%TO.C,R4*%
X96280500Y-133198776D02*
X96280500Y-133708224D01*
X95235500Y-133198776D02*
X95235500Y-133708224D01*
%TO.C,C21*%
X93470000Y-168648767D02*
X93470000Y-168356233D01*
X94490000Y-168648767D02*
X94490000Y-168356233D01*
%TO.C,U5*%
X99060000Y-157587000D02*
X95610000Y-157587000D01*
X99060000Y-157587000D02*
X101010000Y-157587000D01*
X99060000Y-162707000D02*
X97110000Y-162707000D01*
X99060000Y-162707000D02*
X101010000Y-162707000D01*
%TO.C,C28*%
X103888000Y-149994233D02*
X103888000Y-150286767D01*
X102868000Y-149994233D02*
X102868000Y-150286767D01*
%TO.C,C15*%
X100586000Y-134119233D02*
X100586000Y-134411767D01*
X99566000Y-134119233D02*
X99566000Y-134411767D01*
%TO.C,C24*%
X104894767Y-166626000D02*
X104602233Y-166626000D01*
X104894767Y-165606000D02*
X104602233Y-165606000D01*
%TO.C,R7*%
X84342500Y-157121776D02*
X84342500Y-157631224D01*
X83297500Y-157121776D02*
X83297500Y-157631224D01*
%TO.C,C6*%
X77722000Y-157472767D02*
X77722000Y-157180233D01*
X78742000Y-157472767D02*
X78742000Y-157180233D01*
%TO.C,R8*%
X90782224Y-166130500D02*
X90272776Y-166130500D01*
X90782224Y-165085500D02*
X90272776Y-165085500D01*
%TO.C,C5*%
X79246000Y-157472767D02*
X79246000Y-157180233D01*
X80266000Y-157472767D02*
X80266000Y-157180233D01*
%TO.C,C20*%
X94490000Y-158603733D02*
X94490000Y-158896267D01*
X93470000Y-158603733D02*
X93470000Y-158896267D01*
%TO.C,C32*%
X75944000Y-169336767D02*
X75944000Y-169044233D01*
X76964000Y-169336767D02*
X76964000Y-169044233D01*
%TO.C,C8*%
X71118000Y-157472767D02*
X71118000Y-157180233D01*
X72138000Y-157472767D02*
X72138000Y-157180233D01*
%TO.C,R17*%
X77103500Y-176044776D02*
X77103500Y-176554224D01*
X76058500Y-176044776D02*
X76058500Y-176554224D01*
%TO.C,R14*%
X80542224Y-165622500D02*
X80032776Y-165622500D01*
X80542224Y-164577500D02*
X80032776Y-164577500D01*
%TO.C,C4*%
X77980000Y-141231233D02*
X77980000Y-141523767D01*
X76960000Y-141231233D02*
X76960000Y-141523767D01*
%TO.C,U3*%
X87737000Y-160593000D02*
X87737000Y-164043000D01*
X87737000Y-160593000D02*
X87737000Y-158643000D01*
X92857000Y-160593000D02*
X92857000Y-162543000D01*
X92857000Y-160593000D02*
X92857000Y-158643000D01*
%TO.C,D6*%
X111731000Y-174609000D02*
X111731000Y-172609000D01*
X111731000Y-174609000D02*
X107721000Y-174609000D01*
X111731000Y-172609000D02*
X107721000Y-172609000D01*
%TO.C,R12*%
X112634500Y-146789224D02*
X112634500Y-146279776D01*
X113679500Y-146789224D02*
X113679500Y-146279776D01*
%TO.C,C16*%
X81790000Y-162006233D02*
X81790000Y-162298767D01*
X80770000Y-162006233D02*
X80770000Y-162298767D01*
%TO.C,C35*%
X122557000Y-160789233D02*
X122557000Y-161081767D01*
X121537000Y-160789233D02*
X121537000Y-161081767D01*
%TO.C,R15*%
X75325500Y-168885776D02*
X75325500Y-169395224D01*
X74280500Y-168885776D02*
X74280500Y-169395224D01*
%TO.C,R3*%
X96280500Y-143659776D02*
X96280500Y-144169224D01*
X95235500Y-143659776D02*
X95235500Y-144169224D01*
%TO.C,U6*%
X99060000Y-165588000D02*
X95610000Y-165588000D01*
X99060000Y-165588000D02*
X101010000Y-165588000D01*
X99060000Y-170708000D02*
X97110000Y-170708000D01*
X99060000Y-170708000D02*
X101010000Y-170708000D01*
%TO.C,C34*%
X73662000Y-169044233D02*
X73662000Y-169336767D01*
X72642000Y-169044233D02*
X72642000Y-169336767D01*
%TO.C,J1*%
X67332500Y-135290000D02*
X67332500Y-136400000D01*
X63622500Y-135290000D02*
X63622500Y-136400000D01*
X68382500Y-136990000D02*
X67882500Y-137240000D01*
X67882500Y-137240000D02*
X68382500Y-137490000D01*
X68382500Y-137490000D02*
X68382500Y-136990000D01*
X67332500Y-138080000D02*
X67332500Y-139190000D01*
X63622500Y-138080000D02*
X63622500Y-139190000D01*
%TO.C,C2*%
X76710000Y-133304233D02*
X76710000Y-133596767D01*
X75690000Y-133304233D02*
X75690000Y-133596767D01*
%TO.C,FB1*%
X75863267Y-156974000D02*
X75520733Y-156974000D01*
X75863267Y-155954000D02*
X75520733Y-155954000D01*
%TO.C,C11*%
X82040000Y-141523767D02*
X82040000Y-141231233D01*
X83060000Y-141523767D02*
X83060000Y-141231233D01*
%TO.C,R6*%
X81802500Y-157074776D02*
X81802500Y-157584224D01*
X80757500Y-157074776D02*
X80757500Y-157584224D01*
%TO.C,U2*%
X101157000Y-136251000D02*
X97707000Y-136251000D01*
X101157000Y-136251000D02*
X103107000Y-136251000D01*
X101157000Y-141371000D02*
X99207000Y-141371000D01*
X101157000Y-141371000D02*
X103107000Y-141371000D01*
%TO.C,R10*%
X104543776Y-161529500D02*
X105053224Y-161529500D01*
X104543776Y-162574500D02*
X105053224Y-162574500D01*
%TO.C,C22*%
X104947767Y-158752000D02*
X104655233Y-158752000D01*
X104947767Y-157732000D02*
X104655233Y-157732000D01*
%TO.C,U4*%
X117791000Y-145044000D02*
X114341000Y-145044000D01*
X117791000Y-145044000D02*
X119741000Y-145044000D01*
X117791000Y-153914000D02*
X115841000Y-153914000D01*
X117791000Y-153914000D02*
X119741000Y-153914000D01*
%TO.C,C33*%
X75811767Y-173992000D02*
X75519233Y-173992000D01*
X75811767Y-172972000D02*
X75519233Y-172972000D01*
%TO.C,C13*%
X100840000Y-143263233D02*
X100840000Y-143555767D01*
X99820000Y-143263233D02*
X99820000Y-143555767D01*
%TO.C,C19*%
X87124000Y-157079733D02*
X87124000Y-157372267D01*
X86104000Y-157079733D02*
X86104000Y-157372267D01*
%TO.C,C7*%
X72642000Y-157472767D02*
X72642000Y-157180233D01*
X73662000Y-157472767D02*
X73662000Y-157180233D01*
%TO.C,C1*%
X75140433Y-136726200D02*
X75432967Y-136726200D01*
X75140433Y-137746200D02*
X75432967Y-137746200D01*
%TO.C,C12*%
X98042000Y-143502767D02*
X98042000Y-143210233D01*
X99062000Y-143502767D02*
X99062000Y-143210233D01*
%TO.C,U1*%
X72865000Y-153189500D02*
X73100000Y-153189500D01*
X73100000Y-153189500D02*
X73100000Y-155004500D01*
X85885000Y-153189500D02*
X85650000Y-153189500D01*
X72865000Y-149329500D02*
X72865000Y-153189500D01*
X72865000Y-149329500D02*
X72865000Y-145469500D01*
X85885000Y-149329500D02*
X85885000Y-153189500D01*
X85885000Y-149329500D02*
X85885000Y-145469500D01*
X72865000Y-145469500D02*
X73100000Y-145469500D01*
X85885000Y-145469500D02*
X85650000Y-145469500D01*
%TO.C,T1*%
X92710000Y-136144000D02*
G75*
G03*
X92710000Y-136144000I-508000J0D01*
G01*
%TO.C,D3*%
X109585000Y-148516000D02*
X107585000Y-148516000D01*
X109585000Y-148516000D02*
X109585000Y-152526000D01*
X107585000Y-148516000D02*
X107585000Y-152526000D01*
%TO.C,C14*%
X98042000Y-134411767D02*
X98042000Y-134119233D01*
X99062000Y-134411767D02*
X99062000Y-134119233D01*
%TO.C,C30*%
X109899267Y-180469000D02*
X109606733Y-180469000D01*
X109899267Y-179449000D02*
X109606733Y-179449000D01*
%TO.C,R1*%
X71642500Y-137897776D02*
X71642500Y-138407224D01*
X70597500Y-137897776D02*
X70597500Y-138407224D01*
%TO.C,U8*%
X77704000Y-171196000D02*
X77704000Y-174646000D01*
X77704000Y-171196000D02*
X77704000Y-169246000D01*
X82824000Y-171196000D02*
X82824000Y-173146000D01*
X82824000Y-171196000D02*
X82824000Y-169246000D01*
%TO.C,C23*%
X93188733Y-178560000D02*
X93481267Y-178560000D01*
X93188733Y-179580000D02*
X93481267Y-179580000D01*
%TO.C,C3*%
X75440000Y-141231233D02*
X75440000Y-141523767D01*
X74420000Y-141231233D02*
X74420000Y-141523767D01*
%TO.C,C17*%
X84330000Y-162006233D02*
X84330000Y-162298767D01*
X83310000Y-162006233D02*
X83310000Y-162298767D01*
%TO.C,R5*%
X106528776Y-136383500D02*
X107038224Y-136383500D01*
X106528776Y-137428500D02*
X107038224Y-137428500D01*
%TO.C,C31*%
X78234000Y-165461733D02*
X78234000Y-165754267D01*
X77214000Y-165461733D02*
X77214000Y-165754267D01*
%TO.C,R2*%
X79262500Y-134365276D02*
X79262500Y-134874724D01*
X78217500Y-134365276D02*
X78217500Y-134874724D01*
%TO.C,C10*%
X83818000Y-141523767D02*
X83818000Y-141231233D01*
X84838000Y-141523767D02*
X84838000Y-141231233D01*
%TO.C,U7*%
X112257000Y-176549000D02*
X118267000Y-176549000D01*
X114507000Y-183369000D02*
X118267000Y-183369000D01*
X118267000Y-176549000D02*
X118267000Y-177809000D01*
X118267000Y-183369000D02*
X118267000Y-182109000D01*
%TO.C,C9*%
X79250000Y-130817233D02*
X79250000Y-131109767D01*
X78230000Y-130817233D02*
X78230000Y-131109767D01*
%TO.C,C18*%
X119260233Y-143508000D02*
X119552767Y-143508000D01*
X119260233Y-144528000D02*
X119552767Y-144528000D01*
%TO.C,R11*%
X104543776Y-168641500D02*
X105053224Y-168641500D01*
X104543776Y-169686500D02*
X105053224Y-169686500D01*
%TO.C,C25*%
X93071733Y-172972000D02*
X93364267Y-172972000D01*
X93071733Y-173992000D02*
X93364267Y-173992000D01*
%TD*%
M02*
