M48
; DRILL file {KiCad 7.0.6-0} date 2023 December 30, Saturday 17:27:16
; FORMAT={-:-/ absolute / metric / decimal}
; #@! TF.CreationDate,2023-12-30T17:27:17-06:00
; #@! TF.GenerationSoftware,Kicad,Pcbnew,7.0.6-0
; #@! TF.FileFunction,MixedPlating,1,2
FMAT,2
METRIC
; #@! TA.AperFunction,Plated,PTH,ViaDrill
T1C0.700
; #@! TA.AperFunction,Plated,PTH,ComponentDrill
T2C0.800
; #@! TA.AperFunction,Plated,PTH,ComponentDrill
T3C0.900
; #@! TA.AperFunction,Plated,PTH,ComponentDrill
T4C1.190
; #@! TA.AperFunction,Plated,PTH,ComponentDrill
T5C1.500
; #@! TA.AperFunction,Plated,PTH,ComponentDrill
T6C1.700
; #@! TA.AperFunction,Plated,PTH,ViaDrill
T7C4.000
%
G90
G05
T1
X65.532Y-134.366
X65.532Y-139.954
X71.12Y-138.938
X71.628Y-158.242
X73.152Y-158.242
X74.168Y-146.812
X74.168Y-151.892
X74.817Y-156.464
X74.93Y-140.462
X76.2Y-132.588
X77.47Y-140.462
X77.724Y-164.719
X78.232Y-158.242
X78.74Y-130.048
X79.375Y-165.1
X79.756Y-158.242
X80.01Y-144.78
X80.899Y-173.736
X81.28Y-158.242
X81.28Y-163.068
X81.788Y-170.942
X82.169Y-173.736
X82.55Y-140.462
X83.566Y-158.242
X83.82Y-163.068
X84.328Y-140.462
X84.836Y-146.812
X84.836Y-151.892
X86.614Y-156.21
X86.614Y-158.088
X89.027Y-182.118
X90.424Y-136.144
X91.948Y-153.924
X92.202Y-163.068
X92.202Y-173.482
X92.456Y-179.07
X93.726Y-169.418
X93.98Y-157.734
X95.758Y-132.334
X95.758Y-144.78
X96.266Y-170.18
X96.52Y-158.242
X96.52Y-162.052
X96.52Y-166.116
X98.425Y-177.165
X98.552Y-133.35
X98.552Y-144.272
X98.933Y-179.959
X100.076Y-133.35
X100.33Y-144.272
X102.108Y-164.084
X103.378Y-150.876
X103.632Y-139.446
X103.632Y-140.716
X103.886Y-155.702
X103.939Y-158.242
X105.664Y-158.242
X105.664Y-166.116
X108.712Y-149.098
X108.712Y-180.086
X108.712Y-182.372
X110.998Y-173.736
X111.252Y-178.816
X114.3Y-162.052
X115.189Y-165.354
X115.189Y-168.148
X115.316Y-153.162
X117.348Y-150.876
X118.364Y-144.018
X121.666Y-178.435
T2
X74.549Y-180.848
X77.089Y-180.848
X78.74Y-137.414
X79.629Y-180.848
X81.18Y-137.414
X83.62Y-137.414
X89.154Y-146.902
X89.154Y-151.782
X91.948Y-175.26
X91.974Y-180.848
X94.488Y-175.26
X94.514Y-180.848
X94.996Y-146.922
X94.996Y-151.802
X97.028Y-175.26
X97.054Y-180.848
T3
X107.721Y-176.403
X107.743Y-162.052
X107.743Y-169.164
X110.261Y-176.403
X110.283Y-162.052
X110.283Y-169.164
T4
X117.348Y-156.464
X117.348Y-159.004
X117.348Y-161.544
X117.348Y-164.084
X117.348Y-166.624
X117.348Y-169.164
X117.348Y-171.704
X117.348Y-174.244
T5
X109.728Y-136.906
T6
X107.188Y-134.366
X107.188Y-139.446
X112.268Y-134.366
X112.268Y-139.446
T7
X67.056Y-126.492
X67.056Y-184.404
X124.968Y-126.492
X124.968Y-184.404
T0
M30
